G04*
G04 #@! TF.GenerationSoftware,Altium Limited,Altium Designer,20.2.7 (254)*
G04*
G04 Layer_Physical_Order=1*
G04 Layer_Color=255*
%FSLAX44Y44*%
%MOMM*%
G71*
G04*
G04 #@! TF.SameCoordinates,4D7A2DC3-99A8-4A5B-9679-2B55FC54A80C*
G04*
G04*
G04 #@! TF.FilePolarity,Positive*
G04*
G01*
G75*
%ADD12C,0.2000*%
%ADD14C,0.4000*%
%ADD39R,0.7000X1.8000*%
%ADD40R,1.8000X0.7000*%
%ADD41R,1.1500X1.3500*%
%ADD42R,0.8500X0.8500*%
%ADD43R,0.9000X0.8000*%
%ADD44R,0.6000X0.2400*%
%ADD45R,1.6500X2.4000*%
%ADD46R,0.2500X0.6000*%
%ADD47R,2.0000X1.6500*%
%ADD48R,0.8500X0.8500*%
%ADD49R,1.4500X1.5500*%
%ADD50R,1.1000X2.0000*%
%ADD51R,2.0000X1.1000*%
%ADD52R,4.5000X1.5000*%
%ADD53R,1.1000X1.0000*%
%ADD54R,2.6000X3.5600*%
%ADD55R,1.8000X0.8000*%
%ADD56R,0.7200X0.6900*%
%ADD57R,1.0500X1.0000*%
%ADD58C,0.5000*%
%ADD59C,0.5000*%
%ADD60R,1.5000X1.5000*%
%ADD61C,1.5000*%
%ADD62R,1.7000X1.7000*%
%ADD63C,1.7000*%
%ADD64C,0.6000*%
%ADD65C,0.8000*%
G36*
X2222888Y1768188D02*
X2222201Y1768098D01*
X2218796Y1766687D01*
X2215871Y1764443D01*
X2213627Y1761519D01*
X2212216Y1758113D01*
X2211735Y1754458D01*
X2212216Y1750803D01*
X2213627Y1747398D01*
X2215871Y1744473D01*
X2218796Y1742229D01*
X2222201Y1740818D01*
X2225856Y1740337D01*
X2229511Y1740818D01*
X2232917Y1742229D01*
X2235841Y1744473D01*
X2238085Y1747398D01*
X2239496Y1750803D01*
X2239586Y1751490D01*
X2240856Y1751406D01*
Y1129458D01*
X2108572D01*
X2108046Y1130728D01*
X2114106Y1136788D01*
X2136210D01*
Y1142206D01*
X2148060D01*
X2148060Y1142206D01*
X2149621Y1142516D01*
X2150944Y1143400D01*
X2155530Y1147986D01*
X2169762D01*
Y1167986D01*
X2149762D01*
Y1153754D01*
X2146371Y1150362D01*
X2136210D01*
Y1156288D01*
X2113210D01*
Y1150635D01*
X2108440D01*
X2106790Y1151737D01*
X2105251Y1152043D01*
X2104804Y1153392D01*
X2116660Y1165248D01*
X2123440D01*
Y1174768D01*
X2112170D01*
Y1170851D01*
X2098927Y1157608D01*
X2097757Y1158234D01*
X2097379Y1160132D01*
X2096163Y1161951D01*
X2094344Y1163167D01*
X2092198Y1163594D01*
X2090052Y1163167D01*
X2089383Y1162720D01*
X2089002Y1162975D01*
X2088026Y1163169D01*
X2084082D01*
Y1164350D01*
X2078542D01*
Y1166890D01*
X2085043D01*
X2085352Y1167055D01*
X2085557Y1166918D01*
X2087118Y1166608D01*
X2088679Y1166918D01*
X2090002Y1167802D01*
X2102064Y1179864D01*
X2102064Y1179864D01*
X2102948Y1181187D01*
X2103258Y1182748D01*
Y1203091D01*
X2103087Y1203951D01*
X2103978Y1205221D01*
X2105332D01*
Y1202020D01*
X2127832D01*
Y1205221D01*
X2130466D01*
X2131413Y1203805D01*
X2133232Y1202589D01*
X2135378Y1202162D01*
X2137524Y1202589D01*
X2139343Y1203805D01*
X2140559Y1205624D01*
X2140986Y1207770D01*
X2140559Y1209916D01*
X2139343Y1211735D01*
X2137524Y1212951D01*
X2135378Y1213378D01*
X2133232Y1212951D01*
X2131413Y1211735D01*
X2130466Y1210319D01*
X2127832D01*
Y1213520D01*
X2105332D01*
Y1210319D01*
X2102432D01*
Y1213520D01*
X2092472D01*
Y1214560D01*
X2086952D01*
Y1207770D01*
Y1200980D01*
X2092472D01*
Y1202020D01*
X2094837D01*
X2095101Y1201624D01*
Y1184437D01*
X2084234Y1173570D01*
X2083042Y1173320D01*
Y1173320D01*
X2083042Y1173320D01*
X2075332D01*
Y1175160D01*
X2070832D01*
Y1180660D01*
X2068312D01*
Y1175120D01*
X2065772D01*
Y1180660D01*
X2063312D01*
Y1175120D01*
X2060772D01*
Y1180660D01*
X2058252D01*
Y1175160D01*
X2053752D01*
Y1173320D01*
X2050588D01*
X2050342Y1173369D01*
X2049178D01*
X2048192Y1174355D01*
X2048271Y1174750D01*
Y1185761D01*
X2050347Y1187838D01*
X2050347Y1187838D01*
X2051231Y1189161D01*
X2051542Y1190721D01*
X2051542Y1190722D01*
Y1192170D01*
X2056047Y1192170D01*
X2056602Y1191130D01*
X2056697Y1191130D01*
X2056698Y1191130D01*
X2065122D01*
Y1201420D01*
Y1211710D01*
X2056698D01*
X2056697Y1211710D01*
X2056602D01*
X2056047Y1210670D01*
X2055332Y1210670D01*
X2052334D01*
X2051719Y1211940D01*
X2052421Y1212990D01*
X2052848Y1215136D01*
X2052421Y1217282D01*
X2051205Y1219101D01*
X2049386Y1220317D01*
X2047240Y1220744D01*
X2045094Y1220317D01*
X2043275Y1219101D01*
X2042059Y1217282D01*
X2041632Y1215136D01*
X2042059Y1212990D01*
X2042761Y1211940D01*
X2042082Y1210670D01*
X2038642D01*
Y1192170D01*
X2041485D01*
X2041971Y1190997D01*
X2041308Y1190334D01*
X2040424Y1189011D01*
X2040114Y1187450D01*
X2040114Y1187450D01*
Y1174750D01*
X2040187Y1174381D01*
X2039017Y1173755D01*
X2037856Y1174915D01*
Y1181862D01*
X2037856Y1181862D01*
X2037546Y1183423D01*
X2036662Y1184746D01*
X2036662Y1184746D01*
X2022444Y1198964D01*
X2021121Y1199848D01*
X2019560Y1200158D01*
X2019560Y1200158D01*
X2007432D01*
Y1203080D01*
X1984432D01*
Y1189080D01*
X2007432D01*
Y1192002D01*
X2017871D01*
X2025119Y1184753D01*
X2024633Y1183580D01*
X2012932D01*
Y1160580D01*
X2026932D01*
Y1181281D01*
X2028105Y1181767D01*
X2029700Y1180173D01*
Y1173226D01*
X2029700Y1173226D01*
X2030010Y1171665D01*
X2030894Y1170342D01*
X2038500Y1162736D01*
X2039823Y1161852D01*
X2041384Y1161542D01*
X2042945Y1161852D01*
X2043732Y1162378D01*
X2044678Y1161890D01*
X2050542D01*
Y1159350D01*
X2044093D01*
X2043732Y1159157D01*
X2043387Y1159388D01*
X2041826Y1159698D01*
X2038016D01*
X2038016Y1159698D01*
X2036455Y1159388D01*
X2035132Y1158504D01*
X2035132Y1158504D01*
X2028787Y1152159D01*
X2007432D01*
Y1155080D01*
X1984432D01*
Y1141080D01*
X2007432D01*
Y1144002D01*
X2030476D01*
X2030476Y1144002D01*
X2032037Y1144312D01*
X2033360Y1145196D01*
X2039114Y1150950D01*
X2040103Y1150292D01*
X2040161Y1150201D01*
X2039860Y1148687D01*
X2039860Y1148686D01*
Y1141476D01*
X2039860Y1141476D01*
X2040170Y1139915D01*
X2041054Y1138592D01*
X2048918Y1130728D01*
X2048392Y1129458D01*
X1918908D01*
X1918824Y1130728D01*
X1919511Y1130818D01*
X1922917Y1132229D01*
X1925841Y1134473D01*
X1928085Y1137398D01*
X1929496Y1140803D01*
X1929977Y1144458D01*
X1929496Y1148113D01*
X1928085Y1151519D01*
X1925841Y1154443D01*
X1922917Y1156687D01*
X1919511Y1158098D01*
X1915856Y1158579D01*
X1912201Y1158098D01*
X1908796Y1156687D01*
X1905871Y1154443D01*
X1903627Y1151519D01*
X1902216Y1148113D01*
X1902126Y1147426D01*
X1900856Y1147510D01*
Y1232710D01*
X1901296Y1233798D01*
X1902126Y1233798D01*
X1925066D01*
Y1243838D01*
Y1253878D01*
X1902126D01*
X1901296Y1253878D01*
X1900856Y1254966D01*
Y1286050D01*
X1901296Y1287138D01*
X1902126Y1287138D01*
X1925066D01*
Y1297178D01*
Y1307218D01*
X1902126D01*
X1901296Y1307218D01*
X1900856Y1308306D01*
Y1483408D01*
X1901296Y1484496D01*
X1902126Y1484496D01*
X1925066D01*
Y1494536D01*
Y1504576D01*
X1902126D01*
X1901296Y1504576D01*
X1900856Y1505664D01*
Y1536748D01*
X1901296Y1537836D01*
X1902126Y1537836D01*
X1925066D01*
Y1547876D01*
Y1557916D01*
X1902126D01*
X1901296Y1557916D01*
X1900856Y1559004D01*
Y1751407D01*
X1902126Y1751490D01*
X1902216Y1750803D01*
X1903627Y1747398D01*
X1905871Y1744473D01*
X1908796Y1742229D01*
X1912201Y1740818D01*
X1915856Y1740337D01*
X1919511Y1740818D01*
X1922917Y1742229D01*
X1925841Y1744473D01*
X1928085Y1747398D01*
X1929496Y1750803D01*
X1929977Y1754458D01*
X1929496Y1758113D01*
X1928085Y1761519D01*
X1925841Y1764443D01*
X1922917Y1766687D01*
X1919511Y1768098D01*
X1918825Y1768188D01*
X1918908Y1769458D01*
X2222804D01*
X2222888Y1768188D01*
D02*
G37*
%LPC*%
G36*
X2231436Y1678706D02*
X2217166D01*
Y1659636D01*
X2231436D01*
Y1678706D01*
D02*
G37*
G36*
X2214626D02*
X2200356D01*
Y1659636D01*
X2214626D01*
Y1678706D01*
D02*
G37*
G36*
X2231436Y1657096D02*
X2217166D01*
Y1638026D01*
X2231436D01*
Y1657096D01*
D02*
G37*
G36*
X2214626D02*
X2200356D01*
Y1638026D01*
X2214626D01*
Y1657096D01*
D02*
G37*
G36*
X2124396Y1694990D02*
X2014396D01*
X2013248Y1694514D01*
X2012773Y1693366D01*
Y1623366D01*
X2013248Y1622218D01*
X2014396Y1621743D01*
X2124396D01*
X2125544Y1622218D01*
X2126020Y1623366D01*
Y1693366D01*
X2125544Y1694514D01*
X2124396Y1694990D01*
D02*
G37*
G36*
X1927606Y1557916D02*
Y1549146D01*
X1951376D01*
Y1557916D01*
X1927606D01*
D02*
G37*
G36*
X1951376Y1546606D02*
X1927606D01*
Y1537836D01*
X1951376D01*
Y1546606D01*
D02*
G37*
G36*
X2180502Y1543246D02*
X2173732D01*
Y1536976D01*
X2180502D01*
Y1543246D01*
D02*
G37*
G36*
X2171192D02*
X2164422D01*
Y1536976D01*
X2171192D01*
Y1543246D01*
D02*
G37*
G36*
X2160452Y1539746D02*
X2154682D01*
Y1534476D01*
X2160452D01*
Y1539746D01*
D02*
G37*
G36*
X2152142D02*
X2146372D01*
Y1534476D01*
X2152142D01*
Y1539746D01*
D02*
G37*
G36*
X2041506Y1538226D02*
X2031236D01*
Y1533456D01*
X2041506D01*
Y1538226D01*
D02*
G37*
G36*
X2028696D02*
X2018426D01*
Y1533456D01*
X2028696D01*
Y1538226D01*
D02*
G37*
G36*
X2041506Y1530916D02*
X2018426D01*
Y1526146D01*
X2017520Y1525269D01*
X1973600D01*
Y1526141D01*
X1963400D01*
Y1525269D01*
X1950336D01*
Y1530206D01*
X1902336D01*
Y1512206D01*
X1950336D01*
Y1517112D01*
X1962921D01*
X1963400Y1516041D01*
X1963400Y1514971D01*
Y1506140D01*
X1964422D01*
Y1494906D01*
X1961750D01*
Y1481906D01*
X1975250D01*
Y1484108D01*
X1976884D01*
Y1479936D01*
X1991384D01*
Y1496436D01*
X1976884D01*
Y1492265D01*
X1975250D01*
Y1494906D01*
X1972578D01*
Y1506140D01*
X1973600D01*
Y1514971D01*
X1973600Y1516041D01*
X1974079Y1517112D01*
X2017316D01*
X2018426Y1516726D01*
Y1511456D01*
X2041506D01*
Y1516726D01*
X2040466D01*
Y1526146D01*
X2041506D01*
Y1530916D01*
D02*
G37*
G36*
X1927606Y1504576D02*
Y1495806D01*
X1951376D01*
Y1504576D01*
X1927606D01*
D02*
G37*
G36*
X2041506Y1508916D02*
X2018426D01*
Y1503646D01*
X2019466D01*
X2019466Y1493163D01*
X2018568Y1492265D01*
X2008884D01*
Y1496436D01*
X1994384D01*
Y1479936D01*
X2008884D01*
Y1484108D01*
X2017314D01*
X2018426Y1483726D01*
Y1478456D01*
X2041506D01*
Y1483726D01*
X2040466D01*
Y1492416D01*
X2040466Y1493686D01*
X2040466Y1494956D01*
Y1503646D01*
X2041506D01*
Y1508916D01*
D02*
G37*
G36*
X1951376Y1493266D02*
X1927606D01*
Y1484496D01*
X1951376D01*
Y1493266D01*
D02*
G37*
G36*
X1976290Y1477946D02*
X1969770D01*
Y1471676D01*
X1976290D01*
Y1477946D01*
D02*
G37*
G36*
X1967230D02*
X1960710D01*
Y1471676D01*
X1967230D01*
Y1477946D01*
D02*
G37*
G36*
X1937396Y1677666D02*
X1908396D01*
Y1639066D01*
X1937396D01*
Y1654288D01*
X1946745D01*
X2104730Y1496302D01*
X2106053Y1495418D01*
X2107614Y1495108D01*
X2107614Y1495108D01*
X2113568D01*
X2114466Y1494210D01*
Y1493686D01*
X2114466Y1492416D01*
Y1483956D01*
X2114466Y1482686D01*
X2114466Y1481416D01*
X2114466Y1471163D01*
X2113568Y1470264D01*
X2078580D01*
X2078580Y1470264D01*
X2077019Y1469954D01*
X2075696Y1469070D01*
X2075696Y1469070D01*
X2043519Y1436893D01*
X1993392D01*
X1993392Y1436893D01*
X1991831Y1436582D01*
X1990508Y1435698D01*
X1990508Y1435698D01*
X1961298Y1406488D01*
X1960414Y1405165D01*
X1960104Y1403604D01*
X1960104Y1403604D01*
Y1355852D01*
X1960104Y1355852D01*
X1960414Y1354291D01*
X1961298Y1352968D01*
X1966972Y1347294D01*
X1968295Y1346410D01*
X1969193Y1346232D01*
X1969716Y1345178D01*
X1969716Y1343908D01*
Y1336448D01*
X1969716Y1335178D01*
X1969716Y1333908D01*
Y1326448D01*
X1969716Y1325178D01*
X1969716Y1323908D01*
Y1315178D01*
Y1306448D01*
X1969716Y1305178D01*
X1969716Y1303908D01*
Y1296448D01*
X1969716Y1295178D01*
X1969716Y1293908D01*
Y1286218D01*
X1968676D01*
Y1281448D01*
X1980216D01*
X1991756D01*
Y1286218D01*
X1990716D01*
Y1293908D01*
X1990716Y1295178D01*
X1990716Y1296448D01*
Y1303908D01*
X1990716Y1305178D01*
X1991557Y1306100D01*
X2146089D01*
X2150680Y1301508D01*
X2150680Y1301508D01*
X2152003Y1300624D01*
X2153564Y1300314D01*
X2190024D01*
X2190215Y1299853D01*
X2191657Y1297973D01*
X2193537Y1296531D01*
X2195727Y1295624D01*
X2198076Y1295314D01*
X2200426Y1295624D01*
X2202615Y1296531D01*
X2204495Y1297973D01*
X2205722Y1299572D01*
X2206973Y1299259D01*
X2206992Y1299248D01*
Y1293675D01*
X2200886Y1287570D01*
X2200426Y1287760D01*
X2198076Y1288070D01*
X2195727Y1287760D01*
X2193537Y1286854D01*
X2191657Y1285411D01*
X2190215Y1283531D01*
X2189308Y1281342D01*
X2188999Y1278992D01*
X2189308Y1276643D01*
X2190215Y1274453D01*
X2191657Y1272573D01*
X2193537Y1271131D01*
X2195727Y1270224D01*
X2198076Y1269914D01*
X2200426Y1270224D01*
X2202615Y1271131D01*
X2204495Y1272573D01*
X2205938Y1274453D01*
X2206844Y1276643D01*
X2207154Y1278992D01*
X2206844Y1281342D01*
X2206654Y1281802D01*
X2213954Y1289102D01*
X2213954Y1289102D01*
X2214838Y1290425D01*
X2215148Y1291986D01*
Y1309744D01*
X2214838Y1311305D01*
X2213954Y1312628D01*
X2213954Y1312628D01*
X2207060Y1319522D01*
X2207076Y1320792D01*
X2207076Y1320792D01*
X2207076Y1320792D01*
Y1338792D01*
X2202155D01*
Y1350916D01*
X2207116D01*
Y1363148D01*
X2221574Y1377606D01*
X2221574Y1377606D01*
X2222458Y1378929D01*
X2222769Y1380490D01*
Y1475478D01*
X2222769Y1475478D01*
X2222458Y1477039D01*
X2221574Y1478362D01*
X2179462Y1520474D01*
X2179462Y1527611D01*
X2180502Y1528166D01*
X2180502Y1528261D01*
X2180502Y1528261D01*
Y1534436D01*
X2164422D01*
Y1528262D01*
X2164422Y1528261D01*
Y1528166D01*
X2165462Y1527611D01*
X2165462Y1526896D01*
Y1525284D01*
X2160561D01*
X2160243Y1526555D01*
X2160452Y1526666D01*
X2160452Y1526761D01*
X2160452Y1526761D01*
Y1531936D01*
X2146372D01*
Y1526761D01*
X2146372Y1526761D01*
Y1526666D01*
X2146524Y1526585D01*
X2146753Y1525023D01*
X2146514Y1524785D01*
X2136364D01*
X2135466Y1525683D01*
X2135466Y1526686D01*
X2135466Y1527956D01*
Y1537186D01*
X2114466D01*
Y1527956D01*
X2114466Y1527186D01*
X2114466Y1525916D01*
Y1516956D01*
X2114466Y1515686D01*
X2114466D01*
Y1515686D01*
X2114466D01*
X2114466Y1504162D01*
X2113568Y1503264D01*
X2109303D01*
X1951318Y1661250D01*
X1949995Y1662134D01*
X1948434Y1662444D01*
X1948434Y1662444D01*
X1937396D01*
Y1677666D01*
D02*
G37*
G36*
X1976290Y1469136D02*
X1969770D01*
Y1462866D01*
X1976290D01*
Y1469136D01*
D02*
G37*
G36*
X1967230D02*
X1960710D01*
Y1462866D01*
X1967230D01*
Y1469136D01*
D02*
G37*
G36*
X2041506Y1475916D02*
X2018426D01*
Y1470646D01*
X2019466D01*
Y1461956D01*
X2019466Y1460686D01*
X2019466Y1459416D01*
Y1450456D01*
X2019466Y1449686D01*
X2019466Y1448416D01*
Y1439186D01*
X2040466D01*
Y1448416D01*
X2040466Y1449186D01*
X2040466Y1450456D01*
Y1459416D01*
X2040466Y1460686D01*
X2040466Y1461956D01*
Y1470646D01*
X2041506D01*
Y1475916D01*
D02*
G37*
G36*
X1927606Y1307218D02*
Y1298448D01*
X1951376D01*
Y1307218D01*
X1927606D01*
D02*
G37*
G36*
X1951376Y1295908D02*
X1927606D01*
Y1287138D01*
X1951376D01*
Y1295908D01*
D02*
G37*
G36*
X2138716Y1295178D02*
X2117716D01*
Y1286218D01*
X2116676D01*
Y1281448D01*
X2128216D01*
X2139756D01*
Y1286218D01*
X2138716D01*
Y1295178D01*
D02*
G37*
G36*
X2139756Y1278908D02*
X2128216D01*
X2116676D01*
Y1274138D01*
Y1271448D01*
X2128216D01*
X2139756D01*
Y1274138D01*
Y1278908D01*
D02*
G37*
G36*
X1950336Y1279508D02*
X1902336D01*
Y1261508D01*
X1950336D01*
Y1266100D01*
X1969716D01*
Y1265178D01*
X1990716D01*
Y1274138D01*
X1991756D01*
Y1278908D01*
X1980216D01*
X1968676D01*
Y1274257D01*
X1950426D01*
X1950397Y1274276D01*
X1950336Y1274288D01*
Y1279508D01*
D02*
G37*
G36*
X2139756Y1268908D02*
X2129486D01*
Y1264138D01*
X2139756D01*
Y1268908D01*
D02*
G37*
G36*
X2126946D02*
X2116676D01*
Y1264138D01*
X2126946D01*
Y1268908D01*
D02*
G37*
G36*
X2084216Y1256678D02*
X2082946Y1256678D01*
X2075486D01*
X2074216Y1256678D01*
X2072946Y1256678D01*
X2065486D01*
X2064216Y1256678D01*
X2062946Y1256678D01*
X2054216D01*
Y1235678D01*
X2062946D01*
X2064216Y1235678D01*
X2065486Y1235678D01*
X2072946D01*
X2074216Y1235678D01*
X2075486Y1235678D01*
X2082946D01*
X2084216Y1235678D01*
X2085486Y1235678D01*
X2094216D01*
Y1256678D01*
X2084216Y1256678D01*
D02*
G37*
G36*
X2199346Y1263551D02*
Y1254862D01*
X2208035D01*
X2207858Y1256213D01*
X2206846Y1258655D01*
X2205237Y1260753D01*
X2203139Y1262362D01*
X2200697Y1263374D01*
X2199346Y1263551D01*
D02*
G37*
G36*
X2196806Y1263552D02*
X2195455Y1263374D01*
X2193013Y1262362D01*
X2190916Y1260753D01*
X2189306Y1258655D01*
X2188295Y1256213D01*
X2188117Y1254862D01*
X2196806D01*
Y1263552D01*
D02*
G37*
G36*
X1927606Y1253878D02*
Y1245108D01*
X1951376D01*
Y1253878D01*
X1927606D01*
D02*
G37*
G36*
X2208035Y1252322D02*
X2199346D01*
Y1243633D01*
X2200697Y1243811D01*
X2203139Y1244822D01*
X2205237Y1246432D01*
X2206846Y1248529D01*
X2207858Y1250971D01*
X2208035Y1252322D01*
D02*
G37*
G36*
X2196806D02*
X2188117D01*
X2188295Y1250971D01*
X2189306Y1248529D01*
X2190916Y1246432D01*
X2193013Y1244822D01*
X2195455Y1243811D01*
X2196806Y1243633D01*
Y1252322D01*
D02*
G37*
G36*
X1951376Y1242568D02*
X1927606D01*
Y1233798D01*
X1951376D01*
Y1242568D01*
D02*
G37*
G36*
X2084412Y1214560D02*
X2078892D01*
Y1209040D01*
X2084412D01*
Y1214560D01*
D02*
G37*
G36*
X2076182Y1211710D02*
X2067662D01*
Y1202690D01*
X2076182D01*
Y1211710D01*
D02*
G37*
G36*
X2084412Y1206500D02*
X2078892D01*
Y1200980D01*
X2084412D01*
Y1206500D01*
D02*
G37*
G36*
X2161032Y1207054D02*
Y1197356D01*
X2170730D01*
X2170518Y1198968D01*
X2169406Y1201654D01*
X2167636Y1203960D01*
X2165330Y1205730D01*
X2162644Y1206842D01*
X2161032Y1207054D01*
D02*
G37*
G36*
X2158492Y1207054D02*
X2156880Y1206842D01*
X2154194Y1205730D01*
X2151888Y1203960D01*
X2150119Y1201654D01*
X2149006Y1198968D01*
X2148794Y1197356D01*
X2158492D01*
Y1207054D01*
D02*
G37*
G36*
X2076182Y1200150D02*
X2067662D01*
Y1191130D01*
X2076182D01*
Y1200150D01*
D02*
G37*
G36*
X2170730Y1194816D02*
X2161032D01*
Y1185118D01*
X2162644Y1185330D01*
X2165330Y1186443D01*
X2167636Y1188212D01*
X2169406Y1190518D01*
X2170518Y1193204D01*
X2170730Y1194816D01*
D02*
G37*
G36*
X2158492D02*
X2148794D01*
X2149006Y1193204D01*
X2150119Y1190518D01*
X2151888Y1188212D01*
X2154194Y1186443D01*
X2156880Y1185330D01*
X2158492Y1185118D01*
Y1194816D01*
D02*
G37*
G36*
X2137250Y1186828D02*
X2125980D01*
Y1177308D01*
X2137250D01*
Y1186828D01*
D02*
G37*
G36*
X2123440D02*
X2112170D01*
Y1177308D01*
X2123440D01*
Y1186828D01*
D02*
G37*
G36*
X2137250Y1174768D02*
X2125980D01*
Y1165248D01*
X2137250D01*
Y1174768D01*
D02*
G37*
G36*
X1978932Y1183580D02*
X1964932D01*
Y1160580D01*
X1978932D01*
Y1183580D01*
D02*
G37*
%LPD*%
G36*
X2165462Y1514706D02*
X2173694D01*
X2214612Y1473789D01*
Y1420266D01*
X2213342Y1419740D01*
X2206528Y1426554D01*
X2205301Y1427374D01*
X2205159Y1427636D01*
X2204918Y1428680D01*
X2205277Y1428956D01*
X2206886Y1431053D01*
X2207898Y1433495D01*
X2208076Y1434846D01*
X2198116D01*
X2188157D01*
X2188335Y1433495D01*
X2189346Y1431053D01*
X2190907Y1429019D01*
X2190836Y1428581D01*
X2190553Y1427749D01*
X2046754D01*
X2046510Y1428995D01*
X2046769Y1429046D01*
X2048092Y1429930D01*
X2080269Y1462108D01*
X2113568D01*
X2114466Y1461210D01*
Y1460163D01*
X2113568Y1459265D01*
X2088916D01*
X2087355Y1458954D01*
X2086032Y1458070D01*
X2086032Y1458070D01*
X2070790Y1442828D01*
X2069478Y1442567D01*
X2067659Y1441351D01*
X2066443Y1439532D01*
X2066016Y1437386D01*
X2066443Y1435240D01*
X2067659Y1433421D01*
X2069478Y1432205D01*
X2071624Y1431778D01*
X2073770Y1432205D01*
X2075589Y1433421D01*
X2076805Y1435240D01*
X2077232Y1437386D01*
X2077174Y1437676D01*
X2090605Y1451108D01*
X2112521D01*
X2113426Y1450226D01*
Y1445456D01*
X2136506D01*
Y1450226D01*
X2135466D01*
Y1459416D01*
X2135466Y1460686D01*
X2135466Y1461956D01*
Y1470416D01*
X2135466Y1471686D01*
X2135466Y1472956D01*
Y1481416D01*
X2135466Y1482686D01*
X2135466Y1483956D01*
Y1492416D01*
X2135466Y1493686D01*
X2135466Y1494956D01*
Y1503416D01*
X2135466Y1504686D01*
X2135466Y1505956D01*
Y1515686D01*
X2136259Y1516628D01*
X2147412D01*
Y1515206D01*
X2159412D01*
Y1517128D01*
X2165462D01*
Y1514706D01*
D02*
G37*
G36*
X2184673Y1408486D02*
X2184673Y1408486D01*
X2185996Y1407602D01*
X2187556Y1407291D01*
X2189793D01*
X2190255Y1406177D01*
X2191697Y1404297D01*
X2193577Y1402855D01*
X2195767Y1401948D01*
X2198116Y1401638D01*
X2200466Y1401948D01*
X2202655Y1402855D01*
X2204535Y1404297D01*
X2205722Y1405844D01*
X2206992Y1405429D01*
Y1399960D01*
X2200926Y1393894D01*
X2200466Y1394084D01*
X2198116Y1394394D01*
X2195767Y1394084D01*
X2193577Y1393178D01*
X2191697Y1391735D01*
X2190255Y1389855D01*
X2189348Y1387666D01*
X2189039Y1385316D01*
X2189348Y1382967D01*
X2190255Y1380777D01*
X2191697Y1378897D01*
X2193577Y1377455D01*
X2195767Y1376548D01*
X2198116Y1376239D01*
X2200466Y1376548D01*
X2202655Y1377455D01*
X2204535Y1378897D01*
X2205978Y1380777D01*
X2206884Y1382967D01*
X2207194Y1385316D01*
X2206884Y1387666D01*
X2206694Y1388126D01*
X2213342Y1394774D01*
X2214612Y1394248D01*
Y1382179D01*
X2201349Y1368916D01*
X2189116D01*
Y1363994D01*
X2186597D01*
X2180298Y1370294D01*
X2178975Y1371178D01*
X2177414Y1371488D01*
X2177414Y1371488D01*
X2174606D01*
Y1373708D01*
X2172984D01*
Y1378308D01*
X2175906D01*
X2175906Y1391213D01*
X2176946Y1391768D01*
X2176946Y1391863D01*
X2176946Y1391863D01*
Y1398038D01*
X2160866D01*
Y1391864D01*
X2160866Y1391863D01*
Y1391768D01*
X2161906Y1391213D01*
X2161906Y1390498D01*
Y1388887D01*
X2158275D01*
X2157957Y1390157D01*
X2158166Y1390268D01*
X2158166Y1390363D01*
X2158166Y1390363D01*
Y1395538D01*
X2144086D01*
Y1390363D01*
X2144086Y1390363D01*
Y1390268D01*
X2144238Y1390187D01*
X2144467Y1388625D01*
X2144228Y1388387D01*
X2138942D01*
X2137381Y1388076D01*
X2136058Y1387192D01*
X2136058Y1387192D01*
X2134123Y1385257D01*
X2129216D01*
X2129216Y1385257D01*
X2128822Y1385178D01*
X2117716D01*
Y1384256D01*
X2109835D01*
X2108274Y1383946D01*
X2106951Y1383062D01*
X2106951Y1383062D01*
X2106261Y1382372D01*
X2105406Y1382542D01*
X2103260Y1382115D01*
X2101441Y1380899D01*
X2100225Y1379080D01*
X2099798Y1376934D01*
X2100225Y1374788D01*
X2101441Y1372969D01*
X2103260Y1371753D01*
X2105406Y1371326D01*
X2107552Y1371753D01*
X2109371Y1372969D01*
X2110587Y1374788D01*
X2110680Y1375255D01*
X2111524Y1376100D01*
X2116676D01*
Y1371448D01*
X2128216D01*
X2139756D01*
Y1376218D01*
X2138716D01*
Y1378314D01*
X2140631Y1380230D01*
X2145126D01*
Y1378808D01*
X2157126D01*
Y1380730D01*
X2161906D01*
Y1378308D01*
X2164828D01*
Y1373708D01*
X2163106D01*
Y1361037D01*
X2158024D01*
X2157785Y1361275D01*
X2158014Y1362837D01*
X2158166Y1362918D01*
X2158166Y1363013D01*
X2158166Y1363013D01*
Y1368188D01*
X2144086D01*
Y1363889D01*
X2142816Y1363210D01*
X2142415Y1363478D01*
X2140879Y1363783D01*
X2140833Y1363798D01*
X2139756Y1364281D01*
Y1368908D01*
X2128216D01*
X2116676D01*
Y1364138D01*
X2117716D01*
Y1356448D01*
X2117716Y1355178D01*
X2116875Y1354256D01*
X2096061D01*
X2095909Y1354483D01*
X2094090Y1355699D01*
X2091944Y1356126D01*
X2089798Y1355699D01*
X2087979Y1354483D01*
X2086763Y1352664D01*
X2086336Y1350518D01*
X2086763Y1348372D01*
X2087979Y1346553D01*
X2089798Y1345337D01*
X2091944Y1344910D01*
X2094090Y1345337D01*
X2095231Y1346100D01*
X2116875D01*
X2117716Y1345178D01*
X2117716Y1343908D01*
Y1335178D01*
X2138716D01*
Y1343908D01*
X2138716Y1345178D01*
X2138716Y1346448D01*
X2138716Y1354284D01*
X2139749Y1354781D01*
X2139986Y1354829D01*
X2141252Y1353983D01*
X2142813Y1353673D01*
X2142813Y1353673D01*
X2145126D01*
Y1351458D01*
X2157126D01*
Y1352880D01*
X2163106D01*
Y1351208D01*
X2174606D01*
Y1362967D01*
X2175876Y1363181D01*
X2182024Y1357032D01*
X2183347Y1356148D01*
X2184908Y1355838D01*
X2184908Y1355838D01*
X2189116D01*
Y1350916D01*
X2193998D01*
Y1338792D01*
X2189076D01*
Y1321069D01*
X2161767D01*
X2159774Y1323062D01*
X2158451Y1323946D01*
X2156890Y1324256D01*
X2156890Y1324256D01*
X1991557D01*
X1990716Y1325178D01*
X1990716Y1326448D01*
Y1333908D01*
X1990716Y1335178D01*
X1991123Y1336280D01*
X1998232D01*
X1999882Y1335177D01*
X2002028Y1334750D01*
X2004174Y1335177D01*
X2005993Y1336393D01*
X2007209Y1338212D01*
X2007636Y1340358D01*
X2007209Y1342504D01*
X2005993Y1344323D01*
X2004174Y1345539D01*
X2002028Y1345966D01*
X1999882Y1345539D01*
X1998232Y1344436D01*
X1991679D01*
X1990716Y1345178D01*
X1990716Y1346448D01*
Y1353908D01*
X1990716Y1355178D01*
X1990716D01*
Y1355178D01*
X1990716D01*
Y1366593D01*
X1995134D01*
X1995134Y1366593D01*
X1996695Y1366904D01*
X1998018Y1367788D01*
X2008076Y1377846D01*
X2008960Y1379169D01*
X2009270Y1380730D01*
X2009270Y1380730D01*
Y1402539D01*
X2013043Y1406311D01*
X2014216Y1405825D01*
Y1388678D01*
X2022946D01*
X2024216Y1388678D01*
X2025486Y1388678D01*
X2032946D01*
X2034216Y1388678D01*
X2035486Y1388678D01*
X2042946D01*
X2044216Y1388678D01*
X2045486Y1388678D01*
X2053176D01*
Y1387638D01*
X2057946D01*
Y1399178D01*
X2060486D01*
Y1387638D01*
X2065256D01*
Y1388678D01*
X2072946D01*
X2074216Y1388678D01*
X2075486Y1388678D01*
X2082946D01*
X2084216Y1388678D01*
X2085486Y1388678D01*
X2094216D01*
Y1408924D01*
X2094216Y1409678D01*
X2095273Y1410194D01*
X2182965D01*
X2184673Y1408486D01*
D02*
G37*
G36*
X2011394Y1427490D02*
X2011135Y1427438D01*
X2009812Y1426554D01*
X2009812Y1426554D01*
X1993302Y1410044D01*
X1992418Y1408721D01*
X1992108Y1407160D01*
X1992108Y1407160D01*
Y1386042D01*
X1990838Y1385136D01*
X1990716Y1385178D01*
Y1385178D01*
X1969716D01*
Y1376448D01*
X1969716Y1375178D01*
X1969716D01*
Y1375178D01*
X1969716D01*
Y1365178D01*
Y1359072D01*
X1968446Y1358393D01*
X1968260Y1358517D01*
Y1401915D01*
X1995081Y1428736D01*
X2011150D01*
X2011394Y1427490D01*
D02*
G37*
G36*
X2157194Y1314106D02*
X2157194Y1314106D01*
X2158517Y1313222D01*
X2160078Y1312912D01*
X2160078Y1312912D01*
X2192309D01*
X2192740Y1311642D01*
X2191657Y1310811D01*
X2190215Y1308931D01*
X2190024Y1308470D01*
X2155253D01*
X2150662Y1313062D01*
X2149339Y1313946D01*
X2147778Y1314256D01*
X2147778Y1314256D01*
X1990716D01*
Y1316100D01*
X2155201D01*
X2157194Y1314106D01*
D02*
G37*
%LPC*%
G36*
X2136506Y1442916D02*
X2126236D01*
Y1438146D01*
X2136506D01*
Y1442916D01*
D02*
G37*
G36*
X2123696D02*
X2113426D01*
Y1438146D01*
X2123696D01*
Y1442916D01*
D02*
G37*
G36*
X2199386Y1446075D02*
Y1437386D01*
X2208076D01*
X2207898Y1438737D01*
X2206886Y1441179D01*
X2205277Y1443277D01*
X2203179Y1444886D01*
X2200737Y1445898D01*
X2199386Y1446075D01*
D02*
G37*
G36*
X2196846Y1446076D02*
X2195495Y1445898D01*
X2193053Y1444886D01*
X2190956Y1443277D01*
X2189346Y1441179D01*
X2188335Y1438737D01*
X2188157Y1437386D01*
X2196846D01*
Y1446076D01*
D02*
G37*
G36*
X2176946Y1406848D02*
X2170176D01*
Y1400578D01*
X2176946D01*
Y1406848D01*
D02*
G37*
G36*
X2167636D02*
X2160866D01*
Y1400578D01*
X2167636D01*
Y1406848D01*
D02*
G37*
G36*
X2158166Y1403348D02*
X2152396D01*
Y1398078D01*
X2158166D01*
Y1403348D01*
D02*
G37*
G36*
X2149856D02*
X2144086D01*
Y1398078D01*
X2149856D01*
Y1403348D01*
D02*
G37*
G36*
X2158166Y1375998D02*
X2152396D01*
Y1370728D01*
X2158166D01*
Y1375998D01*
D02*
G37*
G36*
X2149856D02*
X2144086D01*
Y1370728D01*
X2149856D01*
Y1375998D01*
D02*
G37*
%LPD*%
D12*
X2078608Y1170686D02*
X2087118D01*
X2078542Y1170620D02*
X2078608Y1170686D01*
X2099180Y1207770D02*
X2111082D01*
X2096682D02*
X2099180D01*
X2078542Y1160620D02*
X2088026D01*
X2089512Y1159134D01*
X2089658D01*
X2090354Y1158438D01*
X2089658Y1159134D02*
X2091050D01*
Y1156838D02*
Y1157742D01*
X2090354Y1158438D02*
X2091050Y1157742D01*
X2091746Y1158438D02*
X2092198Y1157986D01*
X2078542Y1150620D02*
X2084832D01*
X2091050Y1159134D02*
X2091746Y1158438D01*
X2084832Y1150620D02*
X2091050Y1156838D01*
X2041384Y1165620D02*
X2050542D01*
X2041826Y1155620D02*
X2050542D01*
X2050342Y1170820D02*
X2050542Y1170620D01*
X2048122Y1170820D02*
X2050342D01*
X2044192Y1174750D02*
X2048122Y1170820D01*
X2069542Y1165620D02*
X2078542D01*
X2064542Y1160620D02*
X2069542Y1165620D01*
X2050542Y1160620D02*
X2064542D01*
X2067042Y1158120D02*
X2069542Y1155620D01*
X2064542Y1160620D02*
X2067042Y1158120D01*
X2069542Y1155620D02*
X2078542D01*
X2122082Y1207770D02*
X2135378D01*
X2045872Y1150620D02*
X2050542D01*
X2044700Y1149449D02*
X2045872Y1150620D01*
D14*
X2069385Y1139698D02*
X2086064D01*
X2117060Y1170138D02*
Y1175736D01*
X2116710Y1169788D02*
X2117060Y1170138D01*
X2116154Y1169788D02*
X2116710D01*
X2086064Y1139698D02*
X2116154Y1169788D01*
X2067042Y1146120D02*
Y1158120D01*
Y1142041D02*
Y1146120D01*
Y1142041D02*
X2069385Y1139698D01*
D39*
X2019216Y1399178D02*
D03*
X2029216D02*
D03*
X2039216D02*
D03*
X2049216D02*
D03*
X2059216D02*
D03*
X2069216D02*
D03*
X2079216D02*
D03*
X2089216D02*
D03*
Y1246178D02*
D03*
X2079216D02*
D03*
X2069216D02*
D03*
X2059216D02*
D03*
D40*
X2128216Y1380178D02*
D03*
Y1370178D02*
D03*
Y1360178D02*
D03*
Y1350178D02*
D03*
Y1340178D02*
D03*
Y1290178D02*
D03*
Y1280178D02*
D03*
Y1270178D02*
D03*
X1980216Y1380178D02*
D03*
Y1370178D02*
D03*
Y1360178D02*
D03*
Y1350178D02*
D03*
Y1340178D02*
D03*
Y1330178D02*
D03*
Y1320178D02*
D03*
Y1310178D02*
D03*
Y1300178D02*
D03*
Y1290178D02*
D03*
Y1280178D02*
D03*
Y1270178D02*
D03*
X2029966Y1444186D02*
D03*
Y1532186D02*
D03*
X2124966D02*
D03*
Y1444186D02*
D03*
D41*
X1984134Y1488186D02*
D03*
X2001634D02*
D03*
D42*
X2168856Y1356958D02*
D03*
Y1367958D02*
D03*
D43*
X2151126Y1369458D02*
D03*
Y1356958D02*
D03*
Y1396808D02*
D03*
Y1384308D02*
D03*
X2153412Y1533206D02*
D03*
Y1520706D02*
D03*
D44*
X2050542Y1170620D02*
D03*
Y1165620D02*
D03*
Y1160620D02*
D03*
Y1155620D02*
D03*
Y1150620D02*
D03*
X2078542D02*
D03*
Y1155620D02*
D03*
Y1160620D02*
D03*
Y1165620D02*
D03*
Y1170620D02*
D03*
D45*
X2064542Y1160620D02*
D03*
D46*
X2067042Y1175120D02*
D03*
X2062042D02*
D03*
X2067042Y1146120D02*
D03*
X2062042D02*
D03*
D47*
X2124710Y1146538D02*
D03*
Y1176038D02*
D03*
D48*
X2111082Y1207770D02*
D03*
X2122082D02*
D03*
X2085682D02*
D03*
X2096682D02*
D03*
D49*
X2066392Y1201420D02*
D03*
X2047392D02*
D03*
D50*
X2019932Y1172080D02*
D03*
X1971932D02*
D03*
D51*
X1995932Y1196080D02*
D03*
Y1148080D02*
D03*
D52*
X1926336Y1270508D02*
D03*
Y1243838D02*
D03*
Y1297178D02*
D03*
Y1547876D02*
D03*
Y1494536D02*
D03*
Y1521206D02*
D03*
D53*
X2168906Y1384808D02*
D03*
Y1399308D02*
D03*
X2172462Y1535706D02*
D03*
Y1521206D02*
D03*
D54*
X1922896Y1658366D02*
D03*
X2215896D02*
D03*
D55*
X2029966Y1455186D02*
D03*
Y1466186D02*
D03*
Y1477186D02*
D03*
Y1488186D02*
D03*
Y1499186D02*
D03*
Y1510186D02*
D03*
Y1521186D02*
D03*
X2124966D02*
D03*
Y1510186D02*
D03*
Y1499186D02*
D03*
Y1488186D02*
D03*
Y1477186D02*
D03*
Y1466186D02*
D03*
Y1455186D02*
D03*
D56*
X1968500Y1521191D02*
D03*
Y1511091D02*
D03*
D57*
Y1488406D02*
D03*
Y1470406D02*
D03*
D58*
X2203644Y1423670D02*
X2211070Y1416244D01*
X2012696Y1423670D02*
X2203644D01*
X2211070Y1398270D02*
Y1416244D01*
X2160078Y1316990D02*
X2203824D01*
X2211070Y1309744D01*
Y1291986D02*
Y1309744D01*
X2128216Y1360178D02*
X2128684Y1359710D01*
X2140854D01*
X2142813Y1357751D01*
X2151613D01*
X2152406Y1356958D01*
X2168856D01*
X2168906Y1367958D02*
X2169454Y1367410D01*
X2168906Y1367958D02*
Y1384808D01*
X2177414Y1367410D02*
X2184908Y1359916D01*
X2169454Y1367410D02*
X2177414D01*
X2047316Y1201496D02*
Y1215060D01*
X2044192Y1187450D02*
X2047463Y1190721D01*
X2047240Y1215136D02*
X2047316Y1215060D01*
X2047463Y1190721D02*
Y1201349D01*
X2047316Y1201496D02*
X2047463Y1201349D01*
X2172462Y1521206D02*
X2172962D01*
X2153912D02*
X2172462D01*
X2125446Y1520706D02*
X2126138Y1520015D01*
X2124966Y1521186D02*
X2125446Y1520706D01*
X2099180Y1182748D02*
Y1203091D01*
X2087118Y1170686D02*
X2099180Y1182748D01*
X2096682Y1207770D02*
X2098432Y1206020D01*
Y1203839D02*
Y1206020D01*
Y1203839D02*
X2099180Y1203091D01*
X2156890Y1320178D02*
X2160078Y1316990D01*
X2198076Y1278992D02*
X2211070Y1291986D01*
X2015236Y1414272D02*
X2184654D01*
X2197462Y1411370D02*
X2198116Y1410716D01*
X2187556Y1411370D02*
X2197462D01*
X2184654Y1414272D02*
X2187556Y1411370D01*
X2005192Y1404228D02*
X2015236Y1414272D01*
X1980216Y1370178D02*
X1980710Y1370672D01*
X1995134D01*
X2005192Y1380730D01*
Y1404228D01*
X1996186Y1407160D02*
X2012696Y1423670D01*
X1980216Y1380178D02*
X1980282Y1380244D01*
X1993257D01*
X1996186Y1383173D01*
Y1407160D01*
X2071116Y1437386D02*
X2088916Y1455186D01*
X2071116Y1437386D02*
X2071624D01*
X1964182Y1403604D02*
X1993392Y1432814D01*
X2045208D01*
X2078580Y1466186D01*
X2198116Y1385316D02*
X2211070Y1398270D01*
X2078580Y1466186D02*
X2124966D01*
X1980216Y1340358D02*
X2002028D01*
X1980216Y1340178D02*
Y1340358D01*
X2043938Y1141476D02*
X2052574Y1132840D01*
X2043938Y1148687D02*
X2044700Y1149449D01*
X2043938Y1141476D02*
Y1148687D01*
X2052574Y1132840D02*
X2104390D01*
X2117454Y1146556D02*
X2124692D01*
X2104644D02*
X2117454D01*
X2104390Y1132840D02*
X2112882Y1141332D01*
X1995932Y1196080D02*
X2019560D01*
X2033778Y1181862D01*
Y1173226D02*
Y1181862D01*
Y1173226D02*
X2041384Y1165620D01*
X1995932Y1148080D02*
X2030476D01*
X2038016Y1155620D02*
X2041826D01*
X2030476Y1148080D02*
X2038016Y1155620D01*
X2044192Y1174750D02*
Y1187450D01*
X2138942Y1384308D02*
X2151126D01*
X2129216Y1381178D02*
X2135812D01*
X2138942Y1384308D01*
X2128216Y1380178D02*
X2129216Y1381178D01*
X2109835Y1380178D02*
X2128216D01*
X2184908Y1359916D02*
X2198116D01*
X2172962Y1521206D02*
X2218690Y1475478D01*
X2203116Y1364916D02*
X2218690Y1380490D01*
Y1475478D01*
X2105980Y1377508D02*
X2107165D01*
X2198076Y1359876D02*
X2198116Y1359916D01*
X2203116Y1364916D02*
X2203116D01*
X2124966Y1510186D02*
X2126138Y1511358D01*
X2124966Y1521186D02*
X2124966D01*
X2151626Y1384808D02*
X2168906D01*
X2153412Y1520706D02*
X2153912Y1521206D01*
X2126138Y1511358D02*
Y1520015D01*
X2153412Y1520706D02*
X2153412Y1520706D01*
X2168906Y1384808D02*
X2168906Y1384808D01*
X2107165Y1377508D02*
X2109835Y1380178D01*
X2125446Y1520706D02*
X2153412D01*
X2151126Y1384308D02*
X2151626Y1384808D01*
X2198076Y1329792D02*
Y1359876D01*
X2198076Y1329792D02*
X2198076Y1329792D01*
X2105406Y1376934D02*
X2105980Y1377508D01*
X2198116Y1359916D02*
X2203116Y1364916D01*
X1948434Y1658366D02*
X2107614Y1499186D01*
X2124966D01*
X1922896Y1658366D02*
X1948434D01*
X2020962Y1521191D02*
X2020966Y1521186D01*
X2029966D01*
X1968500Y1521191D02*
X2020962D01*
X1948836Y1521206D02*
X1948852Y1521191D01*
X1926336Y1521206D02*
X1948836D01*
X1948852Y1521191D02*
X1968500D01*
Y1488406D02*
Y1511091D01*
X1973970Y1488186D02*
X1984134D01*
X1973750Y1488406D02*
X1973970Y1488186D01*
X1968500Y1488406D02*
X1973750D01*
X2001634Y1488186D02*
X2029966D01*
X2088916Y1455186D02*
X2124966D01*
X2091944Y1350518D02*
X2092284Y1350178D01*
X2128216D01*
X1964182Y1355852D02*
X1969856Y1350178D01*
X1980216D01*
X1964182Y1355852D02*
Y1403604D01*
X2147778Y1310178D02*
X2153564Y1304392D01*
X1980216Y1310178D02*
X2147778D01*
X2153564Y1304392D02*
X2198076D01*
X1980216Y1320178D02*
X2156890D01*
X2124692Y1146556D02*
X2124710Y1146538D01*
X2117454Y1143075D02*
Y1145904D01*
X2115710Y1141332D02*
X2117454Y1143075D01*
X2112882Y1141332D02*
X2115710D01*
X2124964Y1146284D02*
X2148060D01*
X2124710Y1146538D02*
X2124964Y1146284D01*
X2148060D02*
X2159762Y1157986D01*
X1948836Y1270508D02*
X1949166Y1270178D01*
X1980216D01*
X1926336Y1270508D02*
X1948836D01*
D59*
X1915856Y1754458D02*
D03*
X2225856D02*
D03*
X1915856Y1144458D02*
D03*
D60*
X2198076Y1329792D02*
D03*
X2198116Y1359916D02*
D03*
D61*
X2198076Y1304392D02*
D03*
Y1278992D02*
D03*
Y1253592D02*
D03*
X2198116Y1385316D02*
D03*
Y1410716D02*
D03*
Y1436116D02*
D03*
D62*
X2159762Y1157986D02*
D03*
D63*
Y1196086D02*
D03*
D64*
X1995856Y1284458D02*
D03*
Y1274458D02*
D03*
Y1264458D02*
D03*
Y1254458D02*
D03*
X1985856D02*
D03*
X1975856D02*
D03*
X1955856Y1464458D02*
D03*
Y1454458D02*
D03*
X1965856D02*
D03*
X1975856D02*
D03*
X1985856D02*
D03*
Y1464458D02*
D03*
X2005856Y1474458D02*
D03*
X1995856D02*
D03*
X1985856D02*
D03*
Y1509458D02*
D03*
X1995856D02*
D03*
X2005856D02*
D03*
Y1534458D02*
D03*
X1995856D02*
D03*
X1985856D02*
D03*
X1975856D02*
D03*
X1965856D02*
D03*
X1905856Y1564458D02*
D03*
X1915856D02*
D03*
X1925856D02*
D03*
X1935856D02*
D03*
X1945856D02*
D03*
X1955856D02*
D03*
Y1554458D02*
D03*
Y1544458D02*
D03*
Y1534458D02*
D03*
Y1504458D02*
D03*
Y1494458D02*
D03*
Y1484458D02*
D03*
Y1474458D02*
D03*
X1945856D02*
D03*
X1935856D02*
D03*
X1925856D02*
D03*
X1915856D02*
D03*
X1905856D02*
D03*
Y1224458D02*
D03*
X1915856D02*
D03*
X1925856D02*
D03*
X1935856D02*
D03*
X1945856D02*
D03*
X1955856D02*
D03*
Y1234458D02*
D03*
Y1244458D02*
D03*
Y1254458D02*
D03*
X1965856D02*
D03*
Y1284458D02*
D03*
X1955856D02*
D03*
Y1294458D02*
D03*
Y1304458D02*
D03*
Y1314458D02*
D03*
X1945856D02*
D03*
X1935856D02*
D03*
X1925856D02*
D03*
X1915856D02*
D03*
X1905856D02*
D03*
X2200000Y1720000D02*
D03*
X2220000Y1600000D02*
D03*
X2200000Y1560000D02*
D03*
X2220000Y1520000D02*
D03*
X2200000Y1480000D02*
D03*
X2220000Y1360000D02*
D03*
Y1280000D02*
D03*
X2200000Y1240000D02*
D03*
X2220000Y1200000D02*
D03*
X2200000Y1160000D02*
D03*
X2160000Y1720000D02*
D03*
X2180000Y1680000D02*
D03*
X2160000Y1640000D02*
D03*
X2180000Y1600000D02*
D03*
X2160000Y1560000D02*
D03*
Y1480000D02*
D03*
X2180000Y1440000D02*
D03*
Y1280000D02*
D03*
X2160000Y1240000D02*
D03*
X2180000Y1200000D02*
D03*
X2120000Y1720000D02*
D03*
X2140000Y1680000D02*
D03*
Y1600000D02*
D03*
X2120000Y1560000D02*
D03*
X2140000Y1440000D02*
D03*
X2120000Y1400000D02*
D03*
Y1240000D02*
D03*
X2140000Y1200000D02*
D03*
X2120000Y1160000D02*
D03*
X2080000Y1720000D02*
D03*
X2100000Y1600000D02*
D03*
X2080000Y1560000D02*
D03*
X2100000Y1520000D02*
D03*
X2080000Y1480000D02*
D03*
X2100000Y1440000D02*
D03*
Y1280000D02*
D03*
X2040000Y1720000D02*
D03*
X2060000Y1600000D02*
D03*
Y1520000D02*
D03*
Y1360000D02*
D03*
Y1280000D02*
D03*
X2040000Y1240000D02*
D03*
X2000000Y1720000D02*
D03*
Y1640000D02*
D03*
X2020000Y1600000D02*
D03*
X2000000Y1560000D02*
D03*
X2020000Y1360000D02*
D03*
Y1280000D02*
D03*
X2000000Y1240000D02*
D03*
Y1160000D02*
D03*
X1960000Y1720000D02*
D03*
X1980000Y1680000D02*
D03*
Y1600000D02*
D03*
Y1440000D02*
D03*
Y1200000D02*
D03*
X1960000Y1160000D02*
D03*
X1920000Y1720000D02*
D03*
X1940000Y1680000D02*
D03*
Y1600000D02*
D03*
Y1440000D02*
D03*
X1920000Y1400000D02*
D03*
X1940000Y1360000D02*
D03*
Y1200000D02*
D03*
X2064258Y1166114D02*
D03*
D65*
X2071624Y1437386D02*
D03*
X2092198Y1157986D02*
D03*
X2002028Y1340358D02*
D03*
X2105406Y1376934D02*
D03*
X2091944Y1350518D02*
D03*
X2104644Y1146556D02*
D03*
X2047240Y1215136D02*
D03*
X2135378Y1207770D02*
D03*
M02*
