G04*
G04 #@! TF.GenerationSoftware,Altium Limited,Altium Designer,20.2.7 (254)*
G04*
G04 Layer_Color=8388736*
%FSLAX44Y44*%
%MOMM*%
G71*
G04*
G04 #@! TF.SameCoordinates,4D7A2DC3-99A8-4A5B-9679-2B55FC54A80C*
G04*
G04*
G04 #@! TF.FilePolarity,Negative*
G04*
G01*
G75*
%ADD15R,1.2080X2.3080*%
%ADD16R,2.3080X1.2080*%
%ADD17R,1.6580X1.8580*%
%ADD18R,1.3580X1.3580*%
%ADD19R,1.4080X1.3080*%
%ADD20R,1.1080X0.7480*%
%ADD21R,2.1580X2.9080*%
%ADD22R,0.7580X1.1080*%
%ADD23R,2.5080X2.1580*%
%ADD24R,1.3580X1.3580*%
%ADD25R,1.9580X2.0580*%
%ADD26R,1.6080X2.5080*%
%ADD27R,2.5080X1.6080*%
%ADD28R,5.0080X2.0080*%
%ADD29R,1.6080X1.5080*%
%ADD30R,3.1080X4.0680*%
%ADD31R,2.3080X1.3080*%
%ADD32R,1.2280X1.1980*%
%ADD33R,1.5580X1.5080*%
%ADD34C,1.0080*%
%ADD35R,2.0080X2.0080*%
%ADD36C,2.0080*%
%ADD37R,2.2080X2.2080*%
%ADD38C,2.2080*%
D15*
X2019216Y1399178D02*
D03*
X2029216D02*
D03*
X2039216D02*
D03*
X2049216D02*
D03*
X2059216D02*
D03*
X2069216D02*
D03*
X2079216D02*
D03*
X2089216D02*
D03*
Y1246178D02*
D03*
X2079216D02*
D03*
X2069216D02*
D03*
X2059216D02*
D03*
D16*
X2128216Y1380178D02*
D03*
Y1370178D02*
D03*
Y1360178D02*
D03*
Y1350178D02*
D03*
Y1340178D02*
D03*
Y1290178D02*
D03*
Y1280178D02*
D03*
Y1270178D02*
D03*
X1980216Y1380178D02*
D03*
Y1370178D02*
D03*
Y1360178D02*
D03*
Y1350178D02*
D03*
Y1340178D02*
D03*
Y1330178D02*
D03*
Y1320178D02*
D03*
Y1310178D02*
D03*
Y1300178D02*
D03*
Y1290178D02*
D03*
Y1280178D02*
D03*
Y1270178D02*
D03*
X2029966Y1444186D02*
D03*
Y1532186D02*
D03*
X2124966D02*
D03*
Y1444186D02*
D03*
D17*
X1984134Y1488186D02*
D03*
X2001634D02*
D03*
D18*
X2168856Y1356958D02*
D03*
Y1367958D02*
D03*
D19*
X2151126Y1369458D02*
D03*
Y1356958D02*
D03*
Y1396808D02*
D03*
Y1384308D02*
D03*
X2153412Y1533206D02*
D03*
Y1520706D02*
D03*
D20*
X2050542Y1170620D02*
D03*
Y1165620D02*
D03*
Y1160620D02*
D03*
Y1155620D02*
D03*
Y1150620D02*
D03*
X2078542D02*
D03*
Y1155620D02*
D03*
Y1160620D02*
D03*
Y1165620D02*
D03*
Y1170620D02*
D03*
D21*
X2064542Y1160620D02*
D03*
D22*
X2067042Y1175120D02*
D03*
X2062042D02*
D03*
X2067042Y1146120D02*
D03*
X2062042D02*
D03*
D23*
X2124710Y1146538D02*
D03*
Y1176038D02*
D03*
D24*
X2111082Y1207770D02*
D03*
X2122082D02*
D03*
X2085682D02*
D03*
X2096682D02*
D03*
D25*
X2066392Y1201420D02*
D03*
X2047392D02*
D03*
D26*
X2019932Y1172080D02*
D03*
X1971932D02*
D03*
D27*
X1995932Y1196080D02*
D03*
Y1148080D02*
D03*
D28*
X1926336Y1270508D02*
D03*
Y1243838D02*
D03*
Y1297178D02*
D03*
Y1547876D02*
D03*
Y1494536D02*
D03*
Y1521206D02*
D03*
D29*
X2168906Y1384808D02*
D03*
Y1399308D02*
D03*
X2172462Y1535706D02*
D03*
Y1521206D02*
D03*
D30*
X1922896Y1658366D02*
D03*
X2215896D02*
D03*
D31*
X2029966Y1455186D02*
D03*
Y1466186D02*
D03*
Y1477186D02*
D03*
Y1488186D02*
D03*
Y1499186D02*
D03*
Y1510186D02*
D03*
Y1521186D02*
D03*
X2124966D02*
D03*
Y1510186D02*
D03*
Y1499186D02*
D03*
Y1488186D02*
D03*
Y1477186D02*
D03*
Y1466186D02*
D03*
Y1455186D02*
D03*
D32*
X1968500Y1521191D02*
D03*
Y1511091D02*
D03*
D33*
Y1488406D02*
D03*
Y1470406D02*
D03*
D34*
X1915856Y1754458D02*
D03*
X2225856D02*
D03*
X1915856Y1144458D02*
D03*
D35*
X2198076Y1329792D02*
D03*
X2198116Y1359916D02*
D03*
D36*
X2198076Y1304392D02*
D03*
Y1278992D02*
D03*
Y1253592D02*
D03*
X2198116Y1385316D02*
D03*
Y1410716D02*
D03*
Y1436116D02*
D03*
D37*
X2159762Y1157986D02*
D03*
D38*
Y1196086D02*
D03*
M02*
