G04*
G04 #@! TF.GenerationSoftware,Altium Limited,Altium Designer,20.2.7 (254)*
G04*
G04 Layer_Physical_Order=2*
G04 Layer_Color=16711680*
%FSLAX44Y44*%
%MOMM*%
G71*
G04*
G04 #@! TF.SameCoordinates,4D7A2DC3-99A8-4A5B-9679-2B55FC54A80C*
G04*
G04*
G04 #@! TF.FilePolarity,Positive*
G04*
G01*
G75*
%ADD58C,0.5000*%
%ADD59C,0.5000*%
%ADD60R,1.5000X1.5000*%
%ADD61C,1.5000*%
%ADD62R,1.7000X1.7000*%
%ADD63C,1.7000*%
%ADD64C,0.6000*%
%ADD65C,0.8000*%
%ADD66R,0.8000X0.6000*%
G36*
X2222888Y1768188D02*
X2222201Y1768098D01*
X2218796Y1766687D01*
X2215871Y1764443D01*
X2213627Y1761519D01*
X2212216Y1758113D01*
X2211735Y1754458D01*
X2212216Y1750803D01*
X2213627Y1747398D01*
X2215871Y1744473D01*
X2218796Y1742229D01*
X2222201Y1740818D01*
X2225856Y1740337D01*
X2229511Y1740818D01*
X2232917Y1742229D01*
X2235841Y1744473D01*
X2238085Y1747398D01*
X2239496Y1750803D01*
X2239586Y1751490D01*
X2240856Y1751406D01*
Y1129458D01*
X1918908D01*
X1918824Y1130728D01*
X1919511Y1130818D01*
X1922917Y1132229D01*
X1925841Y1134473D01*
X1928085Y1137398D01*
X1929496Y1140803D01*
X1929977Y1144458D01*
X1929496Y1148113D01*
X1928085Y1151519D01*
X1925841Y1154443D01*
X1922917Y1156687D01*
X1919511Y1158098D01*
X1915856Y1158579D01*
X1912201Y1158098D01*
X1908796Y1156687D01*
X1905871Y1154443D01*
X1903627Y1151519D01*
X1902216Y1148113D01*
X1902126Y1147426D01*
X1900856Y1147510D01*
Y1751407D01*
X1902126Y1751490D01*
X1902216Y1750803D01*
X1903627Y1747398D01*
X1905871Y1744473D01*
X1908796Y1742229D01*
X1912201Y1740818D01*
X1915856Y1740337D01*
X1919511Y1740818D01*
X1922917Y1742229D01*
X1925841Y1744473D01*
X1928085Y1747398D01*
X1929496Y1750803D01*
X1929977Y1754458D01*
X1929496Y1758113D01*
X1928085Y1761519D01*
X1925841Y1764443D01*
X1922917Y1766687D01*
X1919511Y1768098D01*
X1918825Y1768188D01*
X1918908Y1769458D01*
X2222804D01*
X2222888Y1768188D01*
D02*
G37*
%LPC*%
G36*
X2124396Y1694990D02*
X2014396D01*
X2013248Y1694514D01*
X2012773Y1693366D01*
Y1623366D01*
X2013248Y1622218D01*
X2014396Y1621743D01*
X2124396D01*
X2125544Y1622218D01*
X2126020Y1623366D01*
Y1693366D01*
X2125544Y1694514D01*
X2124396Y1694990D01*
D02*
G37*
G36*
X2199386Y1446075D02*
Y1437386D01*
X2208076D01*
X2207898Y1438737D01*
X2206886Y1441179D01*
X2205277Y1443277D01*
X2203179Y1444886D01*
X2200737Y1445898D01*
X2199386Y1446075D01*
D02*
G37*
G36*
X2196846Y1446076D02*
X2195495Y1445898D01*
X2193053Y1444886D01*
X2190956Y1443277D01*
X2189346Y1441179D01*
X2188335Y1438737D01*
X2188157Y1437386D01*
X2196846D01*
Y1446076D01*
D02*
G37*
G36*
X2071624Y1442994D02*
X2069478Y1442567D01*
X2067659Y1441351D01*
X2066443Y1439532D01*
X2066182Y1438220D01*
X1999144Y1371182D01*
X1998260Y1369859D01*
X1997950Y1368298D01*
X1997950Y1368298D01*
Y1344154D01*
X1996847Y1342504D01*
X1996420Y1340358D01*
X1996847Y1338212D01*
X1998063Y1336393D01*
X1999882Y1335177D01*
X2002028Y1334750D01*
X2004174Y1335177D01*
X2005993Y1336393D01*
X2007209Y1338212D01*
X2007636Y1340358D01*
X2007209Y1342504D01*
X2006107Y1344154D01*
Y1366609D01*
X2071334Y1431836D01*
X2071624Y1431778D01*
X2073770Y1432205D01*
X2075589Y1433421D01*
X2076805Y1435240D01*
X2077232Y1437386D01*
X2076805Y1439532D01*
X2075589Y1441351D01*
X2073770Y1442567D01*
X2071624Y1442994D01*
D02*
G37*
G36*
X2208076Y1434846D02*
X2199386D01*
Y1426157D01*
X2200737Y1426335D01*
X2203179Y1427346D01*
X2205277Y1428956D01*
X2206886Y1431053D01*
X2207898Y1433495D01*
X2208076Y1434846D01*
D02*
G37*
G36*
X2196846D02*
X2188157D01*
X2188335Y1433495D01*
X2189346Y1431053D01*
X2190956Y1428956D01*
X2193053Y1427346D01*
X2195495Y1426335D01*
X2196846Y1426157D01*
Y1434846D01*
D02*
G37*
G36*
X2198116Y1419794D02*
X2195767Y1419484D01*
X2193577Y1418578D01*
X2191697Y1417135D01*
X2190255Y1415255D01*
X2189348Y1413066D01*
X2189039Y1410716D01*
X2189348Y1408367D01*
X2190255Y1406177D01*
X2191697Y1404297D01*
X2193577Y1402855D01*
X2195767Y1401948D01*
X2198116Y1401638D01*
X2200466Y1401948D01*
X2202655Y1402855D01*
X2204535Y1404297D01*
X2205978Y1406177D01*
X2206884Y1408367D01*
X2207194Y1410716D01*
X2206884Y1413066D01*
X2205978Y1415255D01*
X2204535Y1417135D01*
X2202655Y1418578D01*
X2200466Y1419484D01*
X2198116Y1419794D01*
D02*
G37*
G36*
Y1394394D02*
X2195767Y1394084D01*
X2193577Y1393178D01*
X2191697Y1391735D01*
X2190255Y1389855D01*
X2189348Y1387666D01*
X2189039Y1385316D01*
X2189348Y1382967D01*
X2190255Y1380777D01*
X2191697Y1378897D01*
X2193577Y1377455D01*
X2195767Y1376548D01*
X2198116Y1376239D01*
X2200466Y1376548D01*
X2202655Y1377455D01*
X2204535Y1378897D01*
X2205978Y1380777D01*
X2206884Y1382967D01*
X2207194Y1385316D01*
X2206884Y1387666D01*
X2205978Y1389855D01*
X2204535Y1391735D01*
X2202655Y1393178D01*
X2200466Y1394084D01*
X2198116Y1394394D01*
D02*
G37*
G36*
X2105406Y1382542D02*
X2103260Y1382115D01*
X2101441Y1380899D01*
X2100225Y1379080D01*
X2099798Y1376934D01*
X2100225Y1374788D01*
X2101328Y1373138D01*
Y1368018D01*
X2099906D01*
Y1359018D01*
X2110906D01*
Y1368018D01*
X2109485D01*
Y1373138D01*
X2110587Y1374788D01*
X2111014Y1376934D01*
X2110587Y1379080D01*
X2109371Y1380899D01*
X2107552Y1382115D01*
X2105406Y1382542D01*
D02*
G37*
G36*
X2207116Y1368916D02*
X2189116D01*
Y1350916D01*
X2207116D01*
Y1368916D01*
D02*
G37*
G36*
X2091944Y1356126D02*
X2089798Y1355699D01*
X2087979Y1354483D01*
X2086763Y1352664D01*
X2086336Y1350518D01*
X2086763Y1348372D01*
X2087979Y1346553D01*
X2089798Y1345337D01*
X2091944Y1344910D01*
X2094090Y1345337D01*
X2095740Y1346440D01*
X2099906D01*
Y1346018D01*
X2110906D01*
Y1355018D01*
X2099906D01*
Y1354597D01*
X2095740D01*
X2094090Y1355699D01*
X2091944Y1356126D01*
D02*
G37*
G36*
X2207076Y1338792D02*
X2189076D01*
Y1333871D01*
X2132940D01*
X2132940Y1333871D01*
X2131379Y1333560D01*
X2130056Y1332676D01*
X2130056Y1332676D01*
X2044356Y1246976D01*
X2043472Y1245653D01*
X2043162Y1244092D01*
X2043162Y1244092D01*
Y1218932D01*
X2042059Y1217282D01*
X2041632Y1215136D01*
X2042059Y1212990D01*
X2043275Y1211171D01*
X2045094Y1209955D01*
X2047041Y1209568D01*
X2051722Y1204886D01*
X2053045Y1204002D01*
X2054606Y1203692D01*
X2054606Y1203692D01*
X2131582D01*
X2133232Y1202589D01*
X2135378Y1202162D01*
X2137524Y1202589D01*
X2139343Y1203805D01*
X2140559Y1205624D01*
X2140986Y1207770D01*
X2140559Y1209916D01*
X2139343Y1211735D01*
X2137524Y1212951D01*
X2135378Y1213378D01*
X2133232Y1212951D01*
X2131582Y1211849D01*
X2056295D01*
X2052808Y1215336D01*
X2052421Y1217282D01*
X2051319Y1218932D01*
Y1242403D01*
X2134629Y1325714D01*
X2189076D01*
Y1320792D01*
X2207076D01*
Y1338792D01*
D02*
G37*
G36*
X2198076Y1313470D02*
X2195727Y1313160D01*
X2193537Y1312254D01*
X2191657Y1310811D01*
X2190215Y1308931D01*
X2189308Y1306742D01*
X2188999Y1304392D01*
X2189308Y1302043D01*
X2190215Y1299853D01*
X2191657Y1297973D01*
X2193537Y1296531D01*
X2195727Y1295624D01*
X2198076Y1295314D01*
X2200426Y1295624D01*
X2202615Y1296531D01*
X2204495Y1297973D01*
X2205938Y1299853D01*
X2206844Y1302043D01*
X2207154Y1304392D01*
X2206844Y1306742D01*
X2205938Y1308931D01*
X2204495Y1310811D01*
X2202615Y1312254D01*
X2200426Y1313160D01*
X2198076Y1313470D01*
D02*
G37*
G36*
Y1288070D02*
X2195727Y1287760D01*
X2193537Y1286854D01*
X2191657Y1285411D01*
X2190215Y1283531D01*
X2189308Y1281342D01*
X2188999Y1278992D01*
X2189308Y1276643D01*
X2190215Y1274453D01*
X2191657Y1272573D01*
X2193537Y1271131D01*
X2195727Y1270224D01*
X2198076Y1269914D01*
X2200426Y1270224D01*
X2202615Y1271131D01*
X2204495Y1272573D01*
X2205938Y1274453D01*
X2206844Y1276643D01*
X2207154Y1278992D01*
X2206844Y1281342D01*
X2205938Y1283531D01*
X2204495Y1285411D01*
X2202615Y1286854D01*
X2200426Y1287760D01*
X2198076Y1288070D01*
D02*
G37*
G36*
X2199346Y1263551D02*
Y1254862D01*
X2208035D01*
X2207858Y1256213D01*
X2206846Y1258655D01*
X2205237Y1260753D01*
X2203139Y1262362D01*
X2200697Y1263374D01*
X2199346Y1263551D01*
D02*
G37*
G36*
X2196806Y1263552D02*
X2195455Y1263374D01*
X2193013Y1262362D01*
X2190916Y1260753D01*
X2189306Y1258655D01*
X2188295Y1256213D01*
X2188117Y1254862D01*
X2196806D01*
Y1263552D01*
D02*
G37*
G36*
X2208035Y1252322D02*
X2199346D01*
Y1243633D01*
X2200697Y1243811D01*
X2203139Y1244822D01*
X2205237Y1246432D01*
X2206846Y1248529D01*
X2207858Y1250971D01*
X2208035Y1252322D01*
D02*
G37*
G36*
X2196806D02*
X2188117D01*
X2188295Y1250971D01*
X2189306Y1248529D01*
X2190916Y1246432D01*
X2193013Y1244822D01*
X2195455Y1243811D01*
X2196806Y1243633D01*
Y1252322D01*
D02*
G37*
G36*
X2161032Y1207054D02*
Y1197356D01*
X2170730D01*
X2170518Y1198968D01*
X2169406Y1201654D01*
X2167636Y1203960D01*
X2165330Y1205730D01*
X2162644Y1206842D01*
X2161032Y1207054D01*
D02*
G37*
G36*
X2158492Y1207054D02*
X2156880Y1206842D01*
X2154194Y1205730D01*
X2151888Y1203960D01*
X2150119Y1201654D01*
X2149006Y1198968D01*
X2148794Y1197356D01*
X2158492D01*
Y1207054D01*
D02*
G37*
G36*
X2170730Y1194816D02*
X2161032D01*
Y1185118D01*
X2162644Y1185330D01*
X2165330Y1186443D01*
X2167636Y1188212D01*
X2169406Y1190518D01*
X2170518Y1193204D01*
X2170730Y1194816D01*
D02*
G37*
G36*
X2158492D02*
X2148794D01*
X2149006Y1193204D01*
X2150119Y1190518D01*
X2151888Y1188212D01*
X2154194Y1186443D01*
X2156880Y1185330D01*
X2158492Y1185118D01*
Y1194816D01*
D02*
G37*
G36*
X2169762Y1167986D02*
X2149762D01*
Y1147986D01*
X2169762D01*
Y1167986D01*
D02*
G37*
G36*
X2092198Y1163594D02*
X2090052Y1163167D01*
X2088233Y1161951D01*
X2087017Y1160132D01*
X2086590Y1157986D01*
X2087017Y1155840D01*
X2088233Y1154021D01*
X2090052Y1152805D01*
X2091681Y1152481D01*
X2099391Y1144771D01*
X2099463Y1144410D01*
X2100679Y1142591D01*
X2102498Y1141375D01*
X2104644Y1140948D01*
X2106790Y1141375D01*
X2108609Y1142591D01*
X2109825Y1144410D01*
X2110252Y1146556D01*
X2109825Y1148702D01*
X2108609Y1150521D01*
X2106790Y1151737D01*
X2104644Y1152164D01*
X2103718Y1151980D01*
X2097790Y1157908D01*
X2097806Y1157986D01*
X2097379Y1160132D01*
X2096163Y1161951D01*
X2094344Y1163167D01*
X2092198Y1163594D01*
D02*
G37*
%LPD*%
D58*
X2054606Y1207770D02*
X2135378D01*
X2047240Y1215136D02*
X2047240D01*
X2054606Y1207770D01*
X2047240Y1215136D02*
X2047240Y1215136D01*
Y1244092D02*
X2132940Y1329792D01*
X2047240Y1215136D02*
Y1244092D01*
X2002028Y1368298D02*
X2071116Y1437386D01*
X2071624D01*
X2092198Y1157732D02*
Y1157986D01*
Y1157732D02*
X2104644Y1145286D01*
X2002028Y1340358D02*
Y1368298D01*
X2091944Y1350518D02*
X2105406D01*
Y1363518D02*
Y1376934D01*
X2132940Y1329792D02*
X2198076D01*
X2104644Y1145286D02*
X2105914Y1146556D01*
X2104644D02*
X2105914D01*
D59*
X1915856Y1754458D02*
D03*
X2225856D02*
D03*
X1915856Y1144458D02*
D03*
D60*
X2198076Y1329792D02*
D03*
X2198116Y1359916D02*
D03*
D61*
X2198076Y1304392D02*
D03*
Y1278992D02*
D03*
Y1253592D02*
D03*
X2198116Y1385316D02*
D03*
Y1410716D02*
D03*
Y1436116D02*
D03*
D62*
X2159762Y1157986D02*
D03*
D63*
Y1196086D02*
D03*
D64*
X1995856Y1284458D02*
D03*
Y1274458D02*
D03*
Y1264458D02*
D03*
Y1254458D02*
D03*
X1985856D02*
D03*
X1975856D02*
D03*
X1955856Y1464458D02*
D03*
Y1454458D02*
D03*
X1965856D02*
D03*
X1975856D02*
D03*
X1985856D02*
D03*
Y1464458D02*
D03*
X2005856Y1474458D02*
D03*
X1995856D02*
D03*
X1985856D02*
D03*
Y1509458D02*
D03*
X1995856D02*
D03*
X2005856D02*
D03*
Y1534458D02*
D03*
X1995856D02*
D03*
X1985856D02*
D03*
X1975856D02*
D03*
X1965856D02*
D03*
X1905856Y1564458D02*
D03*
X1915856D02*
D03*
X1925856D02*
D03*
X1935856D02*
D03*
X1945856D02*
D03*
X1955856D02*
D03*
Y1554458D02*
D03*
Y1544458D02*
D03*
Y1534458D02*
D03*
Y1504458D02*
D03*
Y1494458D02*
D03*
Y1484458D02*
D03*
Y1474458D02*
D03*
X1945856D02*
D03*
X1935856D02*
D03*
X1925856D02*
D03*
X1915856D02*
D03*
X1905856D02*
D03*
Y1224458D02*
D03*
X1915856D02*
D03*
X1925856D02*
D03*
X1935856D02*
D03*
X1945856D02*
D03*
X1955856D02*
D03*
Y1234458D02*
D03*
Y1244458D02*
D03*
Y1254458D02*
D03*
X1965856D02*
D03*
Y1284458D02*
D03*
X1955856D02*
D03*
Y1294458D02*
D03*
Y1304458D02*
D03*
Y1314458D02*
D03*
X1945856D02*
D03*
X1935856D02*
D03*
X1925856D02*
D03*
X1915856D02*
D03*
X1905856D02*
D03*
X2200000Y1720000D02*
D03*
X2220000Y1600000D02*
D03*
X2200000Y1560000D02*
D03*
X2220000Y1520000D02*
D03*
X2200000Y1480000D02*
D03*
X2220000Y1360000D02*
D03*
Y1280000D02*
D03*
X2200000Y1240000D02*
D03*
X2220000Y1200000D02*
D03*
X2200000Y1160000D02*
D03*
X2160000Y1720000D02*
D03*
X2180000Y1680000D02*
D03*
X2160000Y1640000D02*
D03*
X2180000Y1600000D02*
D03*
X2160000Y1560000D02*
D03*
Y1480000D02*
D03*
X2180000Y1440000D02*
D03*
Y1280000D02*
D03*
X2160000Y1240000D02*
D03*
X2180000Y1200000D02*
D03*
X2120000Y1720000D02*
D03*
X2140000Y1680000D02*
D03*
Y1600000D02*
D03*
X2120000Y1560000D02*
D03*
X2140000Y1440000D02*
D03*
X2120000Y1400000D02*
D03*
Y1240000D02*
D03*
X2140000Y1200000D02*
D03*
X2120000Y1160000D02*
D03*
X2080000Y1720000D02*
D03*
X2100000Y1600000D02*
D03*
X2080000Y1560000D02*
D03*
X2100000Y1520000D02*
D03*
X2080000Y1480000D02*
D03*
X2100000Y1440000D02*
D03*
Y1280000D02*
D03*
X2040000Y1720000D02*
D03*
X2060000Y1600000D02*
D03*
Y1520000D02*
D03*
Y1360000D02*
D03*
Y1280000D02*
D03*
X2040000Y1240000D02*
D03*
X2000000Y1720000D02*
D03*
Y1640000D02*
D03*
X2020000Y1600000D02*
D03*
X2000000Y1560000D02*
D03*
X2020000Y1360000D02*
D03*
Y1280000D02*
D03*
X2000000Y1240000D02*
D03*
Y1160000D02*
D03*
X1960000Y1720000D02*
D03*
X1980000Y1680000D02*
D03*
Y1600000D02*
D03*
Y1440000D02*
D03*
Y1200000D02*
D03*
X1960000Y1160000D02*
D03*
X1920000Y1720000D02*
D03*
X1940000Y1680000D02*
D03*
Y1600000D02*
D03*
Y1440000D02*
D03*
X1920000Y1400000D02*
D03*
X1940000Y1360000D02*
D03*
Y1200000D02*
D03*
X2064258Y1166114D02*
D03*
D65*
X2071624Y1437386D02*
D03*
X2092198Y1157986D02*
D03*
X2002028Y1340358D02*
D03*
X2105406Y1376934D02*
D03*
X2091944Y1350518D02*
D03*
X2104644Y1146556D02*
D03*
X2047240Y1215136D02*
D03*
X2135378Y1207770D02*
D03*
D66*
X2105406Y1363518D02*
D03*
Y1350518D02*
D03*
M02*
