G04*
G04 #@! TF.GenerationSoftware,Altium Limited,Altium Designer,20.2.7 (254)*
G04*
G04 Layer_Color=2752767*
%FSLAX44Y44*%
%MOMM*%
G71*
G04*
G04 #@! TF.SameCoordinates,376ED358-1AEA-4EEA-9480-C934229D8A07*
G04*
G04*
G04 #@! TF.FilePolarity,Positive*
G04*
G01*
G75*
%ADD78C,0.0508*%
%ADD79C,0.0677*%
D78*
X1908702Y1341926D02*
Y1345990D01*
X1912766D01*
Y1341926D01*
X1908702D01*
Y1367326D02*
Y1371390D01*
X1912766D01*
Y1367326D01*
X1908702D01*
Y1392726D02*
Y1396790D01*
X1912766D01*
Y1392726D01*
X1908702D01*
Y1418126D02*
Y1422190D01*
X1912766D01*
Y1418126D01*
X1908702D01*
X1916176Y1535326D02*
X1914144Y1539390D01*
X1918208D01*
X1916176Y1535326D01*
Y1560326D02*
X1914144Y1564390D01*
X1918208D01*
X1916176Y1560326D01*
Y1585326D02*
X1914144Y1589390D01*
X1918208D01*
X1916176Y1585326D01*
X2046224Y1427226D02*
Y1431290D01*
X2050288D01*
Y1427226D01*
X2046224D01*
X2071624D02*
Y1431290D01*
X2075688D01*
Y1427226D01*
X2071624D01*
X2097024D02*
Y1431290D01*
X2101088D01*
Y1427226D01*
X2097024D01*
X2122424D02*
Y1431290D01*
X2126488D01*
Y1427226D01*
X2122424D01*
X1973231Y1642426D02*
X1974247Y1643442D01*
X1975263D01*
X1974247Y1644458D01*
X1975263Y1645474D01*
X1974247D01*
X1973231Y1646490D01*
X1972215Y1645474D01*
X1971199D01*
X1972215Y1644458D01*
X1971199Y1643442D01*
X1972215D01*
X1973231Y1642426D01*
X1974199Y1612126D02*
X1975215Y1614158D01*
X1974199Y1616190D01*
X1976231Y1615174D01*
X1978263Y1616190D01*
X1977247Y1614158D01*
X1978263Y1612126D01*
X1976231Y1613142D01*
X1974199Y1612126D01*
X2022699D02*
X2023715Y1614158D01*
X2022699Y1616190D01*
X2024731Y1615174D01*
X2026763Y1616190D01*
X2025747Y1614158D01*
X2026763Y1612126D01*
X2024731Y1613142D01*
X2022699Y1612126D01*
X2027731Y1642426D02*
X2028747Y1643442D01*
X2029763D01*
X2028747Y1644458D01*
X2029763Y1645474D01*
X2028747D01*
X2027731Y1646490D01*
X2026715Y1645474D01*
X2025699D01*
X2026715Y1644458D01*
X2025699Y1643442D01*
X2026715D01*
X2027731Y1642426D01*
X2163299Y1581742D02*
Y1580726D01*
X2165331D01*
Y1581742D01*
X2166347D01*
Y1583774D01*
X2165331D01*
Y1584790D01*
X2163299D01*
Y1583774D01*
X2162283D01*
Y1581742D01*
X2163299D01*
Y1561742D02*
Y1560726D01*
X2165331D01*
Y1561742D01*
X2166347D01*
Y1563774D01*
X2165331D01*
Y1564790D01*
X2163299D01*
Y1563774D01*
X2162283D01*
Y1561742D01*
X2163299D01*
X2111824Y1349926D02*
X2112840D01*
X2113856Y1350942D01*
X2114872Y1349926D01*
X2115888D01*
Y1350942D01*
X2114872Y1351958D01*
X2115888Y1352974D01*
Y1353990D01*
X2114872D01*
X2113856Y1352974D01*
X2112840Y1353990D01*
X2111824D01*
Y1352974D01*
X2112840Y1351958D01*
X2111824Y1350942D01*
Y1349926D01*
X2016252Y1535176D02*
X2017268D01*
X2018284Y1536192D01*
X2019300Y1535176D01*
X2020316D01*
Y1536192D01*
X2019300Y1537208D01*
X2020316Y1538224D01*
Y1539240D01*
X2019300D01*
X2018284Y1538224D01*
X2017268Y1539240D01*
X2016252D01*
Y1538224D01*
X2017268Y1537208D01*
X2016252Y1536192D01*
Y1535176D01*
X2143824Y1282426D02*
X2144840D01*
X2145856Y1283442D01*
X2146872Y1282426D01*
X2147888D01*
Y1283442D01*
X2146872Y1284458D01*
X2147888Y1285474D01*
Y1286490D01*
X2146872D01*
X2145856Y1285474D01*
X2144840Y1286490D01*
X2143824D01*
Y1285474D01*
X2144840Y1284458D01*
X2143824Y1283442D01*
Y1282426D01*
X1960769Y1437426D02*
X1961785D01*
X1962801Y1438442D01*
X1963817Y1437426D01*
X1964833D01*
Y1438442D01*
X1963817Y1439458D01*
X1964833Y1440474D01*
Y1441490D01*
X1963817D01*
X1962801Y1440474D01*
X1961785Y1441490D01*
X1960769D01*
Y1440474D01*
X1961785Y1439458D01*
X1960769Y1438442D01*
Y1437426D01*
X1994006Y1252426D02*
X1995022D01*
X1996038Y1253442D01*
X1997054Y1252426D01*
X1998070D01*
Y1253442D01*
X1997054Y1254458D01*
X1998070Y1255474D01*
Y1256490D01*
X1997054D01*
X1996038Y1255474D01*
X1995022Y1256490D01*
X1994006D01*
Y1255474D01*
X1995022Y1254458D01*
X1994006Y1253442D01*
Y1252426D01*
X1984824Y1242426D02*
X1985840D01*
X1986856Y1243442D01*
X1987872Y1242426D01*
X1988888D01*
Y1243442D01*
X1987872Y1244458D01*
X1988888Y1245474D01*
Y1246490D01*
X1987872D01*
X1986856Y1245474D01*
X1985840Y1246490D01*
X1984824D01*
Y1245474D01*
X1985840Y1244458D01*
X1984824Y1243442D01*
Y1242426D01*
X2091324Y1302426D02*
X2092340D01*
X2093356Y1303442D01*
X2094372Y1302426D01*
X2095388D01*
Y1303442D01*
X2094372Y1304458D01*
X2095388Y1305474D01*
Y1306490D01*
X2094372D01*
X2093356Y1305474D01*
X2092340Y1306490D01*
X2091324D01*
Y1305474D01*
X2092340Y1304458D01*
X2091324Y1303442D01*
Y1302426D01*
X2083824Y1312426D02*
X2084840D01*
X2085856Y1313442D01*
X2086872Y1312426D01*
X2087888D01*
Y1313442D01*
X2086872Y1314458D01*
X2087888Y1315474D01*
Y1316490D01*
X2086872D01*
X2085856Y1315474D01*
X2084840Y1316490D01*
X2083824D01*
Y1315474D01*
X2084840Y1314458D01*
X2083824Y1313442D01*
Y1312426D01*
D79*
X1966557Y1537358D02*
G03*
X1966557Y1537358I-2032J0D01*
G01*
Y1562758D02*
G03*
X1966557Y1562758I-2032J0D01*
G01*
X1912766Y1315258D02*
G03*
X1912766Y1315258I-2032J0D01*
G01*
Y1289858D02*
G03*
X1912766Y1289858I-2032J0D01*
G01*
Y1264458D02*
G03*
X1912766Y1264458I-2032J0D01*
G01*
Y1239058D02*
G03*
X1912766Y1239058I-2032J0D01*
G01*
Y1213658D02*
G03*
X1912766Y1213658I-2032J0D01*
G01*
M02*
