G04*
G04 #@! TF.GenerationSoftware,Altium Limited,Altium Designer,20.2.7 (254)*
G04*
G04 Layer_Color=8388736*
%FSLAX44Y44*%
%MOMM*%
G71*
G04*
G04 #@! TF.SameCoordinates,376ED358-1AEA-4EEA-9480-C934229D8A07*
G04*
G04*
G04 #@! TF.FilePolarity,Negative*
G04*
G01*
G75*
%ADD14R,2.4000X1.5000*%
%ADD15R,1.5000X2.4000*%
%ADD16R,1.0000X0.6400*%
%ADD17R,2.0500X2.8000*%
%ADD18R,0.6500X1.0000*%
%ADD19R,1.8500X1.9500*%
%ADD20R,1.4000X1.5000*%
%ADD21R,1.4500X1.4500*%
%ADD22C,1.4000*%
%ADD23R,1.2000X1.4000*%
%ADD24R,1.4500X1.4000*%
%ADD25R,1.4000X1.2000*%
%ADD26R,0.8000X2.1500*%
%ADD27R,1.8250X2.9000*%
%ADD28R,1.9000X4.9000*%
%ADD29R,1.1000X2.2000*%
%ADD30R,2.2000X1.1000*%
%ADD31R,1.5000X1.4000*%
%ADD32R,2.4000X1.8600*%
%ADD33C,1.9000*%
%ADD34R,1.9000X1.9000*%
%ADD35C,2.4000*%
%ADD36R,2.4000X2.4000*%
%ADD37R,1.9000X1.9000*%
%ADD38C,2.2000*%
%ADD39O,1.6000X2.1000*%
%ADD40O,1.4000X1.8000*%
%ADD41C,1.6000*%
%ADD42R,1.6000X1.6000*%
G36*
X1975778Y1657458D02*
X1975824Y1657458D01*
X1976254Y1657438D01*
X1976265Y1657437D01*
X1976276Y1657437D01*
X1976362Y1657428D01*
X1976450Y1657420D01*
X1976460Y1657418D01*
X1976471Y1657416D01*
X1976886Y1657351D01*
X1976892Y1657350D01*
X1976898Y1657350D01*
X1976989Y1657330D01*
X1977078Y1657312D01*
X1977084Y1657310D01*
X1977090Y1657308D01*
X1977486Y1657203D01*
X1977494Y1657201D01*
X1977503Y1657198D01*
X1977588Y1657171D01*
X1977673Y1657144D01*
X1977681Y1657140D01*
X1977690Y1657137D01*
X1978080Y1656987D01*
X1978101Y1656978D01*
X1978123Y1656970D01*
X1978191Y1656938D01*
X1978260Y1656908D01*
X1978280Y1656896D01*
X1978301Y1656886D01*
X1978621Y1656716D01*
X1978653Y1656697D01*
X1978687Y1656680D01*
X1978996Y1656500D01*
X1979015Y1656488D01*
X1979034Y1656478D01*
X1979097Y1656434D01*
X1979161Y1656393D01*
X1979178Y1656380D01*
X1979196Y1656367D01*
X1979521Y1656122D01*
X1979553Y1656095D01*
X1979586Y1656071D01*
X1979629Y1656033D01*
X1979672Y1655996D01*
X1979701Y1655967D01*
X1979732Y1655939D01*
X1979997Y1655674D01*
X1980022Y1655647D01*
X1980048Y1655621D01*
X1980309Y1655341D01*
X1980334Y1655310D01*
X1980361Y1655282D01*
X1980397Y1655235D01*
X1980435Y1655190D01*
X1980457Y1655158D01*
X1980482Y1655126D01*
X1980692Y1654826D01*
X1980718Y1654785D01*
X1980746Y1654744D01*
X1980966Y1654394D01*
X1980988Y1654355D01*
X1981012Y1654317D01*
X1981037Y1654269D01*
X1981063Y1654223D01*
X1981081Y1654182D01*
X1981101Y1654141D01*
X1981261Y1653781D01*
X1981283Y1653726D01*
X1981306Y1653671D01*
X1981426Y1653351D01*
X1981448Y1653282D01*
X1981472Y1653213D01*
X1981522Y1653043D01*
X1981535Y1652990D01*
X1981550Y1652937D01*
X1981590Y1652767D01*
X1981596Y1652734D01*
X1981605Y1652701D01*
X1981645Y1652501D01*
X1981646Y1652492D01*
X1981648Y1652483D01*
X1981688Y1652273D01*
X1981694Y1652229D01*
X1981703Y1652185D01*
X1981708Y1652131D01*
X1981715Y1652078D01*
X1981717Y1652034D01*
X1981721Y1651989D01*
X1981732Y1651769D01*
X1981731Y1651723D01*
X1981734Y1651678D01*
Y1651458D01*
Y1630958D01*
Y1623958D01*
X1981724Y1623762D01*
X1981695Y1623568D01*
X1981647Y1623377D01*
X1981581Y1623192D01*
X1981497Y1623014D01*
X1981396Y1622846D01*
X1981279Y1622688D01*
X1981147Y1622542D01*
X1981001Y1622410D01*
X1980844Y1622293D01*
X1980675Y1622192D01*
X1980497Y1622108D01*
X1980312Y1622042D01*
X1980122Y1621994D01*
X1979927Y1621965D01*
X1979731Y1621956D01*
X1961481D01*
X1961285Y1621965D01*
X1961091Y1621994D01*
X1960900Y1622042D01*
X1960715Y1622108D01*
X1960537Y1622192D01*
X1960369Y1622293D01*
X1960211Y1622410D01*
X1960065Y1622542D01*
X1959933Y1622688D01*
X1959816Y1622846D01*
X1959715Y1623014D01*
X1959631Y1623192D01*
X1959565Y1623377D01*
X1959517Y1623568D01*
X1959488Y1623762D01*
X1959479Y1623958D01*
Y1630958D01*
X1959488Y1631154D01*
X1959517Y1631349D01*
X1959565Y1631539D01*
X1959631Y1631724D01*
X1959715Y1631902D01*
X1959816Y1632071D01*
X1959933Y1632229D01*
X1960065Y1632374D01*
X1960211Y1632506D01*
X1960369Y1632623D01*
X1960537Y1632724D01*
X1960715Y1632808D01*
X1960900Y1632874D01*
X1961091Y1632922D01*
X1961285Y1632951D01*
X1961481Y1632961D01*
X1964729D01*
Y1651458D01*
X1964731Y1651509D01*
X1964731Y1651561D01*
X1964751Y1651951D01*
X1964757Y1652004D01*
X1964760Y1652058D01*
X1964800Y1652438D01*
X1964806Y1652479D01*
X1964810Y1652520D01*
X1964821Y1652576D01*
X1964830Y1652632D01*
X1964840Y1652672D01*
X1964848Y1652713D01*
X1964893Y1652891D01*
X1964908Y1652942D01*
X1964921Y1652992D01*
X1964976Y1653174D01*
X1964976Y1653174D01*
X1965086Y1653533D01*
X1965109Y1653598D01*
X1965131Y1653664D01*
X1965143Y1653691D01*
X1965153Y1653718D01*
X1965182Y1653780D01*
X1965210Y1653844D01*
X1965400Y1654224D01*
X1965438Y1654291D01*
X1965474Y1654358D01*
X1965684Y1654708D01*
X1965687Y1654712D01*
X1965689Y1654717D01*
X1965743Y1654796D01*
X1965793Y1654872D01*
X1965796Y1654875D01*
X1965799Y1654880D01*
X1966039Y1655200D01*
X1966084Y1655254D01*
X1966128Y1655310D01*
X1966388Y1655610D01*
X1966417Y1655640D01*
X1966444Y1655672D01*
X1966485Y1655711D01*
X1966524Y1655752D01*
X1966556Y1655779D01*
X1966586Y1655808D01*
X1966896Y1656078D01*
X1966949Y1656120D01*
X1967002Y1656164D01*
X1967332Y1656414D01*
X1967368Y1656439D01*
X1967402Y1656465D01*
X1967448Y1656494D01*
X1967494Y1656525D01*
X1967532Y1656546D01*
X1967569Y1656569D01*
X1967929Y1656769D01*
X1967977Y1656792D01*
X1968025Y1656819D01*
X1968395Y1656999D01*
X1968439Y1657017D01*
X1968482Y1657038D01*
X1968529Y1657056D01*
X1968576Y1657076D01*
X1968621Y1657090D01*
X1968666Y1657107D01*
X1969076Y1657237D01*
X1969093Y1657242D01*
X1969110Y1657247D01*
X1969188Y1657267D01*
X1969266Y1657287D01*
X1969283Y1657290D01*
X1969301Y1657294D01*
X1969611Y1657354D01*
X1969667Y1657362D01*
X1969723Y1657372D01*
X1970093Y1657422D01*
X1970173Y1657429D01*
X1970253Y1657438D01*
X1970623Y1657458D01*
X1970677Y1657458D01*
X1970731Y1657461D01*
X1975731D01*
X1975778Y1657458D01*
D02*
G37*
G36*
X2030285Y1657458D02*
X2030339Y1657458D01*
X2030709Y1657438D01*
X2030789Y1657429D01*
X2030869Y1657422D01*
X2031239Y1657373D01*
X2031295Y1657362D01*
X2031352Y1657354D01*
X2031662Y1657294D01*
X2031679Y1657290D01*
X2031696Y1657287D01*
X2031774Y1657267D01*
X2031853Y1657247D01*
X2031869Y1657242D01*
X2031886Y1657237D01*
X2032296Y1657107D01*
X2032341Y1657090D01*
X2032386Y1657076D01*
X2032433Y1657056D01*
X2032480Y1657038D01*
X2032523Y1657018D01*
X2032567Y1656999D01*
X2032937Y1656819D01*
X2032985Y1656793D01*
X2033034Y1656769D01*
X2033394Y1656569D01*
X2033430Y1656546D01*
X2033468Y1656525D01*
X2033514Y1656494D01*
X2033560Y1656465D01*
X2033594Y1656439D01*
X2033630Y1656414D01*
X2033960Y1656164D01*
X2034013Y1656120D01*
X2034066Y1656078D01*
X2034376Y1655808D01*
X2034407Y1655779D01*
X2034438Y1655752D01*
X2034477Y1655711D01*
X2034518Y1655672D01*
X2034545Y1655640D01*
X2034574Y1655610D01*
X2034834Y1655310D01*
X2034878Y1655254D01*
X2034923Y1655200D01*
X2035163Y1654880D01*
X2035166Y1654875D01*
X2035169Y1654872D01*
X2035219Y1654797D01*
X2035273Y1654717D01*
X2035276Y1654712D01*
X2035278Y1654709D01*
X2035488Y1654359D01*
X2035524Y1654291D01*
X2035562Y1654224D01*
X2035752Y1653844D01*
X2035780Y1653780D01*
X2035809Y1653718D01*
X2035819Y1653691D01*
X2035831Y1653664D01*
X2035853Y1653598D01*
X2035876Y1653533D01*
X2035986Y1653174D01*
X2035986Y1653174D01*
X2036042Y1652992D01*
X2036054Y1652942D01*
X2036069Y1652891D01*
X2036114Y1652713D01*
X2036122Y1652672D01*
X2036132Y1652632D01*
X2036141Y1652576D01*
X2036152Y1652520D01*
X2036156Y1652479D01*
X2036163Y1652438D01*
X2036203Y1652058D01*
X2036205Y1652004D01*
X2036211Y1651951D01*
X2036231Y1651561D01*
X2036231Y1651509D01*
X2036234Y1651458D01*
Y1632961D01*
X2039481D01*
X2039677Y1632951D01*
X2039872Y1632922D01*
X2040062Y1632874D01*
X2040247Y1632808D01*
X2040425Y1632724D01*
X2040594Y1632623D01*
X2040751Y1632506D01*
X2040897Y1632374D01*
X2041029Y1632229D01*
X2041146Y1632071D01*
X2041247Y1631902D01*
X2041331Y1631725D01*
X2041397Y1631539D01*
X2041445Y1631349D01*
X2041474Y1631154D01*
X2041483Y1630958D01*
Y1623958D01*
X2041474Y1623762D01*
X2041445Y1623568D01*
X2041397Y1623377D01*
X2041331Y1623192D01*
X2041247Y1623014D01*
X2041146Y1622846D01*
X2041029Y1622688D01*
X2040897Y1622542D01*
X2040751Y1622410D01*
X2040594Y1622293D01*
X2040425Y1622192D01*
X2040247Y1622108D01*
X2040062Y1622042D01*
X2039872Y1621994D01*
X2039677Y1621965D01*
X2039481Y1621956D01*
X2021231D01*
X2021035Y1621965D01*
X2020840Y1621994D01*
X2020650Y1622042D01*
X2020465Y1622108D01*
X2020287Y1622192D01*
X2020119Y1622293D01*
X2019961Y1622410D01*
X2019815Y1622542D01*
X2019683Y1622688D01*
X2019566Y1622846D01*
X2019465Y1623014D01*
X2019381Y1623192D01*
X2019315Y1623377D01*
X2019267Y1623568D01*
X2019238Y1623762D01*
X2019229Y1623958D01*
Y1630958D01*
Y1651458D01*
Y1651678D01*
X2019231Y1651723D01*
X2019231Y1651769D01*
X2019241Y1651989D01*
X2019245Y1652034D01*
X2019247Y1652078D01*
X2019254Y1652131D01*
X2019259Y1652185D01*
X2019268Y1652229D01*
X2019274Y1652273D01*
X2019314Y1652483D01*
X2019316Y1652492D01*
X2019318Y1652501D01*
X2019357Y1652701D01*
X2019366Y1652734D01*
X2019372Y1652767D01*
X2019412Y1652937D01*
X2019427Y1652990D01*
X2019440Y1653043D01*
X2019490Y1653213D01*
X2019514Y1653282D01*
X2019536Y1653351D01*
X2019656Y1653671D01*
X2019680Y1653726D01*
X2019701Y1653781D01*
X2019861Y1654141D01*
X2019882Y1654182D01*
X2019900Y1654223D01*
X2019926Y1654269D01*
X2019950Y1654317D01*
X2019974Y1654355D01*
X2019996Y1654394D01*
X2020216Y1654744D01*
X2020244Y1654785D01*
X2020271Y1654826D01*
X2020481Y1655126D01*
X2020505Y1655158D01*
X2020527Y1655190D01*
X2020565Y1655235D01*
X2020601Y1655282D01*
X2020628Y1655310D01*
X2020654Y1655341D01*
X2020914Y1655621D01*
X2020941Y1655647D01*
X2020965Y1655674D01*
X2021230Y1655939D01*
X2021261Y1655967D01*
X2021290Y1655996D01*
X2021333Y1656033D01*
X2021376Y1656071D01*
X2021409Y1656096D01*
X2021441Y1656122D01*
X2021766Y1656367D01*
X2021784Y1656380D01*
X2021801Y1656393D01*
X2021865Y1656434D01*
X2021928Y1656478D01*
X2021947Y1656488D01*
X2021966Y1656500D01*
X2022276Y1656680D01*
X2022309Y1656697D01*
X2022342Y1656716D01*
X2022662Y1656886D01*
X2022683Y1656896D01*
X2022702Y1656908D01*
X2022771Y1656938D01*
X2022840Y1656970D01*
X2022861Y1656978D01*
X2022882Y1656987D01*
X2023272Y1657137D01*
X2023281Y1657140D01*
X2023289Y1657144D01*
X2023374Y1657171D01*
X2023459Y1657199D01*
X2023468Y1657201D01*
X2023477Y1657203D01*
X2023872Y1657308D01*
X2023878Y1657310D01*
X2023884Y1657312D01*
X2023973Y1657330D01*
X2024064Y1657350D01*
X2024070Y1657350D01*
X2024076Y1657352D01*
X2024491Y1657417D01*
X2024502Y1657418D01*
X2024512Y1657420D01*
X2024600Y1657428D01*
X2024687Y1657437D01*
X2024697Y1657437D01*
X2024708Y1657438D01*
X2025138Y1657458D01*
X2025185Y1657458D01*
X2025231Y1657461D01*
X2030231D01*
X2030285Y1657458D01*
D02*
G37*
D14*
X2072356Y1520958D02*
D03*
Y1472958D02*
D03*
D15*
X2096356Y1496958D02*
D03*
X2048356D02*
D03*
D16*
X2015856Y1486958D02*
D03*
Y1491958D02*
D03*
Y1496958D02*
D03*
Y1501958D02*
D03*
Y1506958D02*
D03*
X1987856D02*
D03*
Y1501958D02*
D03*
Y1496958D02*
D03*
Y1491958D02*
D03*
Y1486958D02*
D03*
D17*
X2001856Y1496958D02*
D03*
D18*
X1999356Y1482458D02*
D03*
X2004356D02*
D03*
X1999356Y1511458D02*
D03*
X2004356D02*
D03*
D19*
X2000481Y1454959D02*
D03*
X2019481D02*
D03*
D20*
X2018356Y1524458D02*
D03*
X2003856D02*
D03*
D21*
X1962801Y1499958D02*
D03*
Y1486958D02*
D03*
Y1465460D02*
D03*
Y1452460D02*
D03*
D22*
X2043525Y1152545D02*
D03*
X2053525Y1171958D02*
D03*
X2063525Y1152127D02*
D03*
X2073525Y1171958D02*
D03*
X1983356Y1399458D02*
D03*
D23*
X1968106Y1379208D02*
D03*
X1983106D02*
D03*
X2003525Y1379289D02*
D03*
X2018525D02*
D03*
D24*
X2168356Y1296458D02*
D03*
Y1314458D02*
D03*
X2145856Y1335458D02*
D03*
Y1353458D02*
D03*
D25*
Y1299458D02*
D03*
Y1314458D02*
D03*
D26*
X2000481Y1616208D02*
D03*
X2006981D02*
D03*
X2013481D02*
D03*
X1993981D02*
D03*
X1987481D02*
D03*
D27*
X2010106Y1646958D02*
D03*
X1990856D02*
D03*
D28*
X1964525Y1150687D02*
D03*
X1991195D02*
D03*
X1937855D02*
D03*
D29*
X2003525Y1353458D02*
D03*
X2013525D02*
D03*
X2023525D02*
D03*
X2033525D02*
D03*
X2043525D02*
D03*
X2053525D02*
D03*
X2063525D02*
D03*
X2073525D02*
D03*
Y1200458D02*
D03*
X2063525D02*
D03*
X2053525D02*
D03*
X2043525D02*
D03*
D30*
X2112525Y1334458D02*
D03*
Y1324458D02*
D03*
Y1314458D02*
D03*
Y1304458D02*
D03*
Y1294458D02*
D03*
Y1244458D02*
D03*
Y1234458D02*
D03*
Y1224458D02*
D03*
X1964525Y1334458D02*
D03*
Y1324458D02*
D03*
Y1314458D02*
D03*
Y1304458D02*
D03*
Y1294458D02*
D03*
Y1284458D02*
D03*
Y1274458D02*
D03*
Y1264458D02*
D03*
Y1254458D02*
D03*
Y1244458D02*
D03*
Y1234458D02*
D03*
Y1224458D02*
D03*
D31*
X2168356Y1353458D02*
D03*
Y1338958D02*
D03*
D32*
X1971481Y1614158D02*
D03*
X2029481D02*
D03*
D33*
X1910734Y1343958D02*
D03*
Y1369358D02*
D03*
Y1394758D02*
D03*
X1916176Y1537358D02*
D03*
Y1562358D02*
D03*
X2048256Y1429258D02*
D03*
X2073656D02*
D03*
X2099056D02*
D03*
D34*
X1910734Y1420158D02*
D03*
X1916176Y1587358D02*
D03*
D35*
X1964525Y1537358D02*
D03*
D36*
Y1562758D02*
D03*
D37*
X2124456Y1429258D02*
D03*
D38*
X1910734Y1315258D02*
D03*
Y1289858D02*
D03*
Y1264458D02*
D03*
Y1239058D02*
D03*
Y1213658D02*
D03*
D39*
X1973231Y1644458D02*
D03*
X2027731D02*
D03*
D40*
X1976231Y1614158D02*
D03*
X2024731D02*
D03*
D41*
X2164315Y1582758D02*
D03*
D42*
Y1562758D02*
D03*
M02*
