G04*
G04 #@! TF.GenerationSoftware,Altium Limited,Altium Designer,20.2.7 (254)*
G04*
G04 Layer_Physical_Order=1*
G04 Layer_Color=255*
%FSLAX44Y44*%
%MOMM*%
G71*
G04*
G04 #@! TF.SameCoordinates,376ED358-1AEA-4EEA-9480-C934229D8A07*
G04*
G04*
G04 #@! TF.FilePolarity,Positive*
G04*
G01*
G75*
%ADD12C,0.2500*%
%ADD13C,0.2000*%
%ADD43R,2.0000X1.1000*%
%ADD44R,1.1000X2.0000*%
%ADD45R,0.6000X0.2400*%
%ADD46R,1.6500X2.4000*%
%ADD47R,0.2500X0.6000*%
%ADD48R,1.4500X1.5500*%
%ADD49R,1.0000X1.1000*%
%ADD50R,1.0500X1.0500*%
%ADD51C,1.0000*%
%ADD52R,0.8000X1.0000*%
%ADD53R,1.0500X1.0000*%
%ADD54R,1.0000X0.8000*%
%ADD55R,0.4000X1.7500*%
%ADD56R,1.4250X2.5000*%
%ADD57R,1.5000X4.5000*%
%ADD58R,0.7000X1.8000*%
%ADD59R,1.8000X0.7000*%
%ADD60R,1.1000X1.0000*%
%ADD61C,0.5000*%
%ADD62R,2.0000X1.4600*%
%ADD63C,1.5000*%
%ADD64R,1.5000X1.5000*%
%ADD65C,2.0000*%
%ADD66R,2.0000X2.0000*%
%ADD67R,1.5000X1.5000*%
%ADD68C,1.8000*%
%ADD69O,1.2000X1.7000*%
%ADD70O,1.0000X1.4000*%
%ADD71C,1.2000*%
%ADD72R,1.2000X1.2000*%
%ADD73C,0.7000*%
G36*
X2193356Y1126958D02*
X2000695D01*
Y1149417D01*
X1991195D01*
Y1150687D01*
D01*
Y1149417D01*
X1981695D01*
Y1126958D01*
X1974025D01*
Y1175187D01*
X1967584D01*
Y1218958D01*
X1975525D01*
Y1228958D01*
Y1233188D01*
X1964525D01*
X1953525D01*
Y1228958D01*
Y1218958D01*
X1961467D01*
Y1175187D01*
X1955025D01*
Y1126958D01*
X1947355D01*
Y1149417D01*
X1937855D01*
X1928355D01*
Y1126958D01*
X1898356D01*
Y1209570D01*
X1900356Y1209968D01*
X1901125Y1208111D01*
X1902889Y1205813D01*
X1905187Y1204050D01*
X1907862Y1202941D01*
X1909464Y1202730D01*
Y1213658D01*
Y1224586D01*
X1907862Y1224375D01*
X1905187Y1223267D01*
X1902889Y1221503D01*
X1901125Y1219206D01*
X1900356Y1217348D01*
X1898356Y1217746D01*
Y1234970D01*
X1900356Y1235368D01*
X1901125Y1233511D01*
X1902889Y1231213D01*
X1905187Y1229450D01*
X1907862Y1228341D01*
X1910734Y1227963D01*
X1913606Y1228341D01*
X1916281Y1229450D01*
X1918579Y1231213D01*
X1920343Y1233511D01*
X1921451Y1236187D01*
X1921829Y1239058D01*
X1921451Y1241930D01*
X1920343Y1244606D01*
X1918579Y1246903D01*
X1916281Y1248667D01*
X1913606Y1249775D01*
X1910734Y1250153D01*
X1907862Y1249775D01*
X1905187Y1248667D01*
X1902889Y1246903D01*
X1901125Y1244606D01*
X1900356Y1242748D01*
X1898356Y1243146D01*
Y1260370D01*
X1900356Y1260768D01*
X1901125Y1258911D01*
X1902889Y1256613D01*
X1905187Y1254850D01*
X1907862Y1253741D01*
X1910734Y1253363D01*
X1913606Y1253741D01*
X1916281Y1254850D01*
X1918579Y1256613D01*
X1918833Y1256944D01*
X1919527Y1257630D01*
X1921252Y1259163D01*
X1922001Y1259742D01*
X1922705Y1260226D01*
X1923342Y1260602D01*
X1923903Y1260875D01*
X1924378Y1261049D01*
X1924758Y1261138D01*
X1924837Y1261144D01*
X1953525D01*
Y1248958D01*
Y1238958D01*
Y1235728D01*
X1964525D01*
X1975525D01*
Y1241144D01*
X1981819D01*
X1981838Y1241142D01*
X1981991Y1241113D01*
X1982131Y1241074D01*
X1982264Y1241025D01*
X1982391Y1240966D01*
X1982516Y1240894D01*
X1982641Y1240807D01*
X1982728Y1240737D01*
X1982891Y1240493D01*
X1984710Y1239277D01*
X1986856Y1238850D01*
X1989002Y1239277D01*
X1990821Y1240493D01*
X1992037Y1242312D01*
X1992464Y1244458D01*
X1992037Y1246604D01*
X1990843Y1248390D01*
X1990800Y1248611D01*
X1991402Y1250441D01*
X1991878Y1250478D01*
X1992213Y1250399D01*
X1993892Y1249277D01*
X1996038Y1248850D01*
X1998184Y1249277D01*
X2000004Y1250493D01*
X2001219Y1252312D01*
X2001646Y1254458D01*
X2001219Y1256604D01*
X2000004Y1258423D01*
X1998184Y1259639D01*
X1996038Y1260066D01*
X1993892Y1259639D01*
X1992073Y1258423D01*
X1991910Y1258179D01*
X1991824Y1258109D01*
X1991698Y1258023D01*
X1991573Y1257951D01*
X1991446Y1257891D01*
X1991313Y1257842D01*
X1991173Y1257803D01*
X1991021Y1257774D01*
X1991001Y1257772D01*
X1975525D01*
Y1268958D01*
Y1278958D01*
Y1291145D01*
X2053356D01*
X2054624Y1291397D01*
X2055699Y1292115D01*
X2078311Y1314727D01*
X2078886Y1314647D01*
X2080352Y1313939D01*
X2080675Y1312312D01*
X2081891Y1310493D01*
X2083710Y1309277D01*
X2085856Y1308850D01*
X2087488Y1309175D01*
X2088681Y1307828D01*
X2088810Y1307554D01*
X2088175Y1306604D01*
X2087748Y1304458D01*
X2088175Y1302312D01*
X2089391Y1300493D01*
X2091210Y1299277D01*
X2093356Y1298850D01*
X2095502Y1299277D01*
X2097321Y1300493D01*
X2097484Y1300737D01*
X2097571Y1300807D01*
X2097697Y1300894D01*
X2097822Y1300966D01*
X2097949Y1301025D01*
X2098081Y1301074D01*
X2098221Y1301113D01*
X2098374Y1301142D01*
X2098393Y1301145D01*
X2101525D01*
Y1288958D01*
X2123525D01*
Y1298958D01*
Y1311145D01*
X2138856D01*
Y1308458D01*
X2152856D01*
Y1311145D01*
X2161106D01*
Y1307458D01*
X2175606D01*
Y1321458D01*
X2161106D01*
Y1317772D01*
X2152856D01*
Y1320458D01*
X2138856D01*
Y1317772D01*
X2123525D01*
Y1323188D01*
X2112525D01*
X2101525D01*
Y1317772D01*
X2090893D01*
X2090874Y1317774D01*
X2090721Y1317803D01*
X2090581Y1317842D01*
X2090449Y1317891D01*
X2090321Y1317951D01*
X2090197Y1318022D01*
X2090071Y1318109D01*
X2089984Y1318179D01*
X2089821Y1318423D01*
X2088002Y1319639D01*
X2086375Y1319963D01*
X2085667Y1321429D01*
X2085587Y1322003D01*
X2095699Y1332115D01*
X2096418Y1333190D01*
X2096670Y1334458D01*
Y1394458D01*
X2096418Y1395726D01*
X2095699Y1396801D01*
X2076970Y1415531D01*
Y1417612D01*
X2077036Y1417920D01*
X2077164Y1418299D01*
X2077366Y1418742D01*
X2077648Y1419245D01*
X2078014Y1419799D01*
X2078451Y1420382D01*
X2079641Y1421743D01*
X2080180Y1422290D01*
X2080432Y1422483D01*
X2081954Y1424467D01*
X2082912Y1426778D01*
X2083238Y1429258D01*
X2082912Y1431738D01*
X2081954Y1434049D01*
X2080432Y1436034D01*
X2078447Y1437556D01*
X2076136Y1438514D01*
X2073656Y1438840D01*
X2071176Y1438514D01*
X2068865Y1437556D01*
X2066881Y1436034D01*
X2065358Y1434049D01*
X2064401Y1431738D01*
X2064074Y1429258D01*
X2064401Y1426778D01*
X2065358Y1424467D01*
X2066881Y1422483D01*
X2067132Y1422290D01*
X2067671Y1421743D01*
X2068861Y1420382D01*
X2069298Y1419799D01*
X2069664Y1419245D01*
X2069946Y1418742D01*
X2070148Y1418299D01*
X2070277Y1417920D01*
X2070343Y1417612D01*
Y1414158D01*
X2070595Y1412890D01*
X2071313Y1411815D01*
X2090043Y1393086D01*
Y1381216D01*
X2088703Y1380605D01*
X2088042Y1380532D01*
X2051570Y1417005D01*
Y1417612D01*
X2051635Y1417920D01*
X2051764Y1418299D01*
X2051966Y1418742D01*
X2052248Y1419245D01*
X2052614Y1419799D01*
X2053051Y1420382D01*
X2054241Y1421743D01*
X2054780Y1422290D01*
X2055032Y1422483D01*
X2056554Y1424467D01*
X2057512Y1426778D01*
X2057838Y1429258D01*
X2057512Y1431738D01*
X2056554Y1434049D01*
X2055032Y1436034D01*
X2053047Y1437556D01*
X2050736Y1438514D01*
X2048256Y1438840D01*
X2045776Y1438514D01*
X2043465Y1437556D01*
X2041481Y1436034D01*
X2039958Y1434049D01*
X2039001Y1431738D01*
X2038674Y1429258D01*
X2039001Y1426778D01*
X2039958Y1424467D01*
X2041481Y1422483D01*
X2041732Y1422290D01*
X2042271Y1421743D01*
X2043461Y1420382D01*
X2043898Y1419799D01*
X2044264Y1419245D01*
X2044546Y1418742D01*
X2044748Y1418299D01*
X2044877Y1417920D01*
X2044942Y1417612D01*
Y1415632D01*
X2045195Y1414364D01*
X2045913Y1413289D01*
X2082543Y1376659D01*
Y1340581D01*
X2049734Y1307772D01*
X1975525D01*
Y1318958D01*
Y1328958D01*
Y1339958D01*
X1967839D01*
Y1340967D01*
X1967587Y1342235D01*
X1966868Y1343310D01*
X1921312Y1388866D01*
X1921141Y1389130D01*
X1920964Y1389489D01*
X1920793Y1389946D01*
X1920638Y1390500D01*
X1920504Y1391151D01*
X1920401Y1391873D01*
X1920280Y1393676D01*
X1920275Y1394444D01*
X1920316Y1394758D01*
X1919989Y1397238D01*
X1919032Y1399549D01*
X1917509Y1401534D01*
X1915525Y1403056D01*
X1913214Y1404014D01*
X1910734Y1404340D01*
X1908254Y1404014D01*
X1905943Y1403056D01*
X1903958Y1401534D01*
X1902436Y1399549D01*
X1901478Y1397238D01*
X1901152Y1394758D01*
X1901478Y1392278D01*
X1902436Y1389967D01*
X1903958Y1387983D01*
X1905943Y1386460D01*
X1908254Y1385503D01*
X1910734Y1385176D01*
X1911048Y1385217D01*
X1911816Y1385212D01*
X1913620Y1385091D01*
X1914341Y1384988D01*
X1914992Y1384855D01*
X1915546Y1384699D01*
X1916003Y1384528D01*
X1916362Y1384351D01*
X1916626Y1384180D01*
X1959000Y1341806D01*
X1958235Y1339958D01*
X1953525D01*
Y1327772D01*
X1946809D01*
X1933920Y1340661D01*
Y1349486D01*
X1933667Y1350754D01*
X1932949Y1351829D01*
X1921312Y1363466D01*
X1921141Y1363730D01*
X1920964Y1364089D01*
X1920793Y1364546D01*
X1920638Y1365100D01*
X1920504Y1365751D01*
X1920401Y1366473D01*
X1920280Y1368276D01*
X1920275Y1369044D01*
X1920316Y1369358D01*
X1919989Y1371838D01*
X1919032Y1374149D01*
X1917509Y1376134D01*
X1915525Y1377656D01*
X1913214Y1378614D01*
X1910734Y1378940D01*
X1908254Y1378614D01*
X1905943Y1377656D01*
X1903958Y1376134D01*
X1902436Y1374149D01*
X1901478Y1371838D01*
X1901152Y1369358D01*
X1901478Y1366878D01*
X1902436Y1364567D01*
X1903958Y1362583D01*
X1905943Y1361060D01*
X1908254Y1360103D01*
X1910734Y1359776D01*
X1911048Y1359818D01*
X1911816Y1359812D01*
X1913620Y1359691D01*
X1914341Y1359588D01*
X1914992Y1359455D01*
X1915546Y1359299D01*
X1916003Y1359128D01*
X1916362Y1358951D01*
X1916626Y1358780D01*
X1927292Y1348114D01*
Y1339289D01*
X1927545Y1338021D01*
X1928263Y1336946D01*
X1943094Y1322115D01*
X1944169Y1321397D01*
X1945437Y1321145D01*
X1953525D01*
Y1308958D01*
Y1298958D01*
Y1288958D01*
Y1277772D01*
X1927507D01*
X1923049Y1282229D01*
X1922998Y1282289D01*
X1922792Y1282621D01*
X1922580Y1283080D01*
X1922376Y1283669D01*
X1922192Y1284386D01*
X1922036Y1285226D01*
X1921916Y1286165D01*
X1921780Y1288469D01*
X1921774Y1289445D01*
X1921829Y1289858D01*
X1921451Y1292730D01*
X1920343Y1295406D01*
X1918579Y1297703D01*
X1916281Y1299467D01*
X1913606Y1300575D01*
X1910734Y1300953D01*
X1907862Y1300575D01*
X1905187Y1299467D01*
X1902889Y1297703D01*
X1901125Y1295406D01*
X1900356Y1293548D01*
X1898356Y1293946D01*
Y1311170D01*
X1900356Y1311568D01*
X1901125Y1309711D01*
X1902889Y1307413D01*
X1905187Y1305650D01*
X1907862Y1304541D01*
X1910734Y1304163D01*
X1913606Y1304541D01*
X1916281Y1305650D01*
X1918579Y1307413D01*
X1920343Y1309711D01*
X1921451Y1312387D01*
X1921829Y1315258D01*
X1921451Y1318130D01*
X1920343Y1320806D01*
X1918579Y1323103D01*
X1916281Y1324867D01*
X1913606Y1325975D01*
X1910734Y1326353D01*
X1907862Y1325975D01*
X1905187Y1324867D01*
X1902889Y1323103D01*
X1901125Y1320806D01*
X1900356Y1318948D01*
X1898356Y1319346D01*
Y1659458D01*
X1981731D01*
Y1652307D01*
X1979731Y1651629D01*
Y1651458D01*
Y1637288D01*
X1981731Y1636609D01*
Y1632458D01*
X1989586D01*
Y1646958D01*
X1992126D01*
Y1632458D01*
X1999981D01*
Y1632458D01*
X2000981D01*
Y1632458D01*
X2008836D01*
Y1646958D01*
X2011376D01*
Y1632458D01*
X2019231D01*
Y1636609D01*
X2021231Y1637288D01*
Y1651458D01*
Y1651629D01*
X2019231Y1652307D01*
Y1659458D01*
X2193356D01*
Y1126958D01*
D02*
G37*
G36*
X2078146Y1423131D02*
X2076866Y1421667D01*
X2076346Y1420974D01*
X2075906Y1420307D01*
X2075546Y1419666D01*
X2075266Y1419051D01*
X2075066Y1418462D01*
X2074946Y1417900D01*
X2074906Y1417363D01*
X2072406D01*
X2072366Y1417900D01*
X2072246Y1418462D01*
X2072046Y1419051D01*
X2071766Y1419666D01*
X2071406Y1420307D01*
X2070966Y1420974D01*
X2070446Y1421667D01*
X2069166Y1423131D01*
X2068406Y1423902D01*
X2078906D01*
X2078146Y1423131D01*
D02*
G37*
G36*
X2052746D02*
X2051466Y1421667D01*
X2050946Y1420974D01*
X2050506Y1420307D01*
X2050146Y1419666D01*
X2049866Y1419051D01*
X2049666Y1418462D01*
X2049546Y1417900D01*
X2049506Y1417363D01*
X2047006D01*
X2046966Y1417900D01*
X2046846Y1418462D01*
X2046646Y1419051D01*
X2046366Y1419666D01*
X2046006Y1420307D01*
X2045566Y1420974D01*
X2045046Y1421667D01*
X2043766Y1423131D01*
X2043006Y1423902D01*
X2053506D01*
X2052746Y1423131D01*
D02*
G37*
G36*
X1918241Y1393600D02*
X1918372Y1391660D01*
X1918494Y1390802D01*
X1918654Y1390020D01*
X1918853Y1389312D01*
X1919090Y1388679D01*
X1919365Y1388121D01*
X1919678Y1387639D01*
X1920029Y1387231D01*
X1918261Y1385463D01*
X1917853Y1385814D01*
X1917371Y1386127D01*
X1916813Y1386402D01*
X1916180Y1386639D01*
X1915473Y1386838D01*
X1914690Y1386998D01*
X1913832Y1387121D01*
X1911892Y1387251D01*
X1910809Y1387258D01*
X1918234Y1394683D01*
X1918241Y1393600D01*
D02*
G37*
G36*
Y1368201D02*
X1918372Y1366260D01*
X1918494Y1365402D01*
X1918654Y1364620D01*
X1918853Y1363912D01*
X1919090Y1363279D01*
X1919365Y1362722D01*
X1919678Y1362239D01*
X1920029Y1361831D01*
X1918261Y1360063D01*
X1917853Y1360414D01*
X1917371Y1360727D01*
X1916813Y1361002D01*
X1916180Y1361239D01*
X1915473Y1361438D01*
X1914690Y1361598D01*
X1913832Y1361720D01*
X1911892Y1361851D01*
X1910809Y1361859D01*
X1918234Y1369283D01*
X1918241Y1368201D01*
D02*
G37*
G36*
X1965788Y1339953D02*
X1965825Y1339528D01*
X1965888Y1339153D01*
X1965975Y1338828D01*
X1966088Y1338553D01*
X1966225Y1338328D01*
X1966388Y1338153D01*
X1966575Y1338028D01*
X1966788Y1337953D01*
X1967025Y1337928D01*
X1962025D01*
X1962263Y1337953D01*
X1962475Y1338028D01*
X1962663Y1338153D01*
X1962825Y1338328D01*
X1962963Y1338553D01*
X1963075Y1338828D01*
X1963163Y1339153D01*
X1963225Y1339528D01*
X1963263Y1339953D01*
X1963275Y1340428D01*
X1965775D01*
X1965788Y1339953D01*
D02*
G37*
G36*
X1955586Y1321958D02*
X1955561Y1322196D01*
X1955485Y1322408D01*
X1955359Y1322596D01*
X1955181Y1322758D01*
X1954954Y1322896D01*
X1954675Y1323008D01*
X1954346Y1323096D01*
X1953967Y1323158D01*
X1953537Y1323196D01*
X1953056Y1323208D01*
Y1325708D01*
X1953537Y1325721D01*
X1953967Y1325758D01*
X1954346Y1325821D01*
X1954675Y1325908D01*
X1954954Y1326021D01*
X1955181Y1326158D01*
X1955359Y1326321D01*
X1955485Y1326508D01*
X1955561Y1326721D01*
X1955586Y1326958D01*
Y1321958D01*
D02*
G37*
G36*
X2088596Y1316680D02*
X2088847Y1316476D01*
X2089108Y1316296D01*
X2089379Y1316140D01*
X2089661Y1316008D01*
X2089953Y1315900D01*
X2090256Y1315816D01*
X2090569Y1315756D01*
X2090892Y1315720D01*
X2091225Y1315708D01*
Y1313208D01*
X2090892Y1313196D01*
X2090569Y1313160D01*
X2090256Y1313100D01*
X2089953Y1313016D01*
X2089661Y1312908D01*
X2089379Y1312776D01*
X2089108Y1312620D01*
X2088847Y1312440D01*
X2088596Y1312236D01*
X2088356Y1312008D01*
Y1316908D01*
X2088596Y1316680D01*
D02*
G37*
G36*
X2163167Y1311958D02*
X2163142Y1312196D01*
X2163066Y1312408D01*
X2162939Y1312596D01*
X2162762Y1312758D01*
X2162534Y1312896D01*
X2162256Y1313008D01*
X2161927Y1313096D01*
X2161548Y1313158D01*
X2161117Y1313196D01*
X2160637Y1313208D01*
Y1315708D01*
X2161117Y1315721D01*
X2161548Y1315758D01*
X2161927Y1315821D01*
X2162256Y1315908D01*
X2162534Y1316021D01*
X2162762Y1316158D01*
X2162939Y1316321D01*
X2163066Y1316508D01*
X2163142Y1316721D01*
X2163167Y1316958D01*
Y1311958D01*
D02*
G37*
G36*
X2150820Y1316721D02*
X2150896Y1316508D01*
X2151023Y1316321D01*
X2151200Y1316158D01*
X2151428Y1316021D01*
X2151706Y1315908D01*
X2152035Y1315821D01*
X2152415Y1315758D01*
X2152845Y1315721D01*
X2153326Y1315708D01*
Y1313208D01*
X2152845Y1313196D01*
X2152415Y1313158D01*
X2152035Y1313096D01*
X2151706Y1313008D01*
X2151428Y1312896D01*
X2151200Y1312758D01*
X2151023Y1312596D01*
X2150896Y1312408D01*
X2150820Y1312196D01*
X2150795Y1311958D01*
Y1316958D01*
X2150820Y1316721D01*
D02*
G37*
G36*
X2140917Y1311958D02*
X2140892Y1312196D01*
X2140816Y1312408D01*
X2140689Y1312596D01*
X2140512Y1312758D01*
X2140284Y1312896D01*
X2140006Y1313008D01*
X2139677Y1313096D01*
X2139298Y1313158D01*
X2138867Y1313196D01*
X2138387Y1313208D01*
Y1315708D01*
X2138867Y1315721D01*
X2139298Y1315758D01*
X2139677Y1315821D01*
X2140006Y1315908D01*
X2140284Y1316021D01*
X2140512Y1316158D01*
X2140689Y1316321D01*
X2140816Y1316508D01*
X2140892Y1316721D01*
X2140917Y1316958D01*
Y1311958D01*
D02*
G37*
G36*
X2121490Y1316721D02*
X2121566Y1316508D01*
X2121692Y1316321D01*
X2121869Y1316158D01*
X2122097Y1316021D01*
X2122375Y1315908D01*
X2122704Y1315821D01*
X2123084Y1315758D01*
X2123514Y1315721D01*
X2123995Y1315708D01*
Y1313208D01*
X2123514Y1313196D01*
X2123084Y1313158D01*
X2122704Y1313096D01*
X2122375Y1313008D01*
X2122097Y1312896D01*
X2121869Y1312758D01*
X2121692Y1312596D01*
X2121566Y1312408D01*
X2121490Y1312196D01*
X2121464Y1311958D01*
Y1316958D01*
X2121490Y1316721D01*
D02*
G37*
G36*
X2103586Y1311958D02*
X2103561Y1312196D01*
X2103485Y1312408D01*
X2103359Y1312596D01*
X2103181Y1312758D01*
X2102954Y1312896D01*
X2102675Y1313008D01*
X2102346Y1313096D01*
X2101967Y1313158D01*
X2101537Y1313196D01*
X2101056Y1313208D01*
Y1315708D01*
X2101537Y1315721D01*
X2101967Y1315758D01*
X2102346Y1315821D01*
X2102675Y1315908D01*
X2102954Y1316021D01*
X2103181Y1316158D01*
X2103359Y1316321D01*
X2103485Y1316508D01*
X2103561Y1316721D01*
X2103586Y1316958D01*
Y1311958D01*
D02*
G37*
G36*
X2096096Y1306680D02*
X2096347Y1306476D01*
X2096608Y1306296D01*
X2096879Y1306140D01*
X2097161Y1306008D01*
X2097453Y1305900D01*
X2097756Y1305816D01*
X2098069Y1305756D01*
X2098392Y1305720D01*
X2098725Y1305708D01*
X2098725Y1303208D01*
X2098392Y1303196D01*
X2098069Y1303160D01*
X2097756Y1303100D01*
X2097453Y1303016D01*
X2097161Y1302908D01*
X2096879Y1302776D01*
X2096608Y1302620D01*
X2096347Y1302440D01*
X2096096Y1302236D01*
X2095856Y1302008D01*
X2095856Y1306908D01*
X2096096Y1306680D01*
D02*
G37*
G36*
X1973490Y1306721D02*
X1973566Y1306508D01*
X1973692Y1306321D01*
X1973869Y1306158D01*
X1974097Y1306021D01*
X1974375Y1305908D01*
X1974704Y1305821D01*
X1975084Y1305758D01*
X1975514Y1305721D01*
X1975995Y1305708D01*
Y1303208D01*
X1975514Y1303196D01*
X1975084Y1303158D01*
X1974704Y1303096D01*
X1974375Y1303008D01*
X1974097Y1302896D01*
X1973869Y1302758D01*
X1973692Y1302596D01*
X1973566Y1302408D01*
X1973490Y1302196D01*
X1973464Y1301958D01*
Y1306958D01*
X1973490Y1306721D01*
D02*
G37*
G36*
X2103586Y1301958D02*
X2103561Y1302196D01*
X2103485Y1302408D01*
X2103359Y1302596D01*
X2103181Y1302758D01*
X2102954Y1302896D01*
X2102675Y1303008D01*
X2102346Y1303096D01*
X2101967Y1303158D01*
X2101537Y1303196D01*
X2101056Y1303208D01*
Y1305708D01*
X2101537Y1305721D01*
X2101967Y1305758D01*
X2102346Y1305821D01*
X2102675Y1305908D01*
X2102954Y1306021D01*
X2103181Y1306158D01*
X2103359Y1306321D01*
X2103485Y1306508D01*
X2103561Y1306721D01*
X2103586Y1306958D01*
Y1301958D01*
D02*
G37*
G36*
X2088666Y1334504D02*
X2088665Y1334454D01*
X2051984Y1297772D01*
X1975525D01*
Y1301145D01*
X2051106D01*
X2052374Y1301397D01*
X2053449Y1302115D01*
X2086575Y1335240D01*
X2086856Y1335272D01*
X2088666Y1334504D01*
D02*
G37*
G36*
X1973490Y1296721D02*
X1973566Y1296508D01*
X1973692Y1296321D01*
X1973869Y1296158D01*
X1974097Y1296021D01*
X1974375Y1295908D01*
X1974704Y1295821D01*
X1975084Y1295758D01*
X1975514Y1295721D01*
X1975995Y1295708D01*
Y1293208D01*
X1975514Y1293196D01*
X1975084Y1293158D01*
X1974704Y1293096D01*
X1974375Y1293008D01*
X1974097Y1292896D01*
X1973869Y1292758D01*
X1973692Y1292596D01*
X1973566Y1292408D01*
X1973490Y1292196D01*
X1973464Y1291958D01*
Y1296958D01*
X1973490Y1296721D01*
D02*
G37*
G36*
X1919741Y1288404D02*
X1919884Y1285975D01*
X1920020Y1284911D01*
X1920199Y1283946D01*
X1920421Y1283081D01*
X1920686Y1282316D01*
X1920994Y1281651D01*
X1921345Y1281086D01*
X1921738Y1280621D01*
X1919971Y1278854D01*
X1919506Y1279247D01*
X1918941Y1279598D01*
X1918276Y1279906D01*
X1917511Y1280171D01*
X1916646Y1280393D01*
X1915682Y1280572D01*
X1914617Y1280708D01*
X1912188Y1280851D01*
X1910824Y1280859D01*
X1919733Y1289768D01*
X1919741Y1288404D01*
D02*
G37*
G36*
X1955586Y1271958D02*
X1955561Y1272196D01*
X1955485Y1272408D01*
X1955359Y1272596D01*
X1955181Y1272758D01*
X1954954Y1272896D01*
X1954675Y1273008D01*
X1954346Y1273096D01*
X1953967Y1273158D01*
X1953537Y1273196D01*
X1953056Y1273208D01*
Y1275708D01*
X1953537Y1275721D01*
X1953967Y1275758D01*
X1954346Y1275821D01*
X1954675Y1275908D01*
X1954954Y1276021D01*
X1955181Y1276158D01*
X1955359Y1276321D01*
X1955485Y1276508D01*
X1955561Y1276721D01*
X1955586Y1276958D01*
Y1271958D01*
D02*
G37*
G36*
X1901125Y1284311D02*
X1902889Y1282013D01*
X1905187Y1280250D01*
X1907862Y1279141D01*
X1910734Y1278763D01*
X1911147Y1278818D01*
X1912123Y1278812D01*
X1914427Y1278676D01*
X1915366Y1278556D01*
X1916206Y1278400D01*
X1916923Y1278216D01*
X1917512Y1278012D01*
X1917971Y1277800D01*
X1918303Y1277594D01*
X1918363Y1277543D01*
X1923791Y1272115D01*
X1924866Y1271397D01*
X1926134Y1271144D01*
X1953525D01*
Y1267772D01*
X1924837D01*
X1924758Y1267778D01*
X1924378Y1267867D01*
X1923903Y1268042D01*
X1923342Y1268314D01*
X1922705Y1268691D01*
X1922001Y1269174D01*
X1921252Y1269753D01*
X1919527Y1271287D01*
X1918833Y1271973D01*
X1918579Y1272303D01*
X1916281Y1274067D01*
X1913606Y1275175D01*
X1910734Y1275553D01*
X1907862Y1275175D01*
X1905187Y1274067D01*
X1902889Y1272303D01*
X1901125Y1270006D01*
X1900356Y1268148D01*
X1898356Y1268546D01*
Y1285770D01*
X1900356Y1286168D01*
X1901125Y1284311D01*
D02*
G37*
G36*
X1955586Y1261958D02*
X1955561Y1262196D01*
X1955485Y1262408D01*
X1955359Y1262596D01*
X1955181Y1262758D01*
X1954954Y1262896D01*
X1954675Y1263008D01*
X1954346Y1263096D01*
X1953967Y1263158D01*
X1953537Y1263196D01*
X1953056Y1263208D01*
Y1265708D01*
X1953537Y1265721D01*
X1953967Y1265758D01*
X1954346Y1265821D01*
X1954675Y1265908D01*
X1954954Y1266021D01*
X1955181Y1266158D01*
X1955359Y1266321D01*
X1955485Y1266508D01*
X1955561Y1266721D01*
X1955586Y1266958D01*
Y1261958D01*
D02*
G37*
G36*
X1918131Y1269799D02*
X1919950Y1268183D01*
X1920799Y1267526D01*
X1921608Y1266971D01*
X1922376Y1266516D01*
X1923104Y1266163D01*
X1923792Y1265910D01*
X1924440Y1265759D01*
X1925047Y1265708D01*
Y1263208D01*
X1924440Y1263158D01*
X1923792Y1263006D01*
X1923104Y1262754D01*
X1922376Y1262400D01*
X1921608Y1261946D01*
X1920799Y1261390D01*
X1919950Y1260734D01*
X1918131Y1259118D01*
X1917161Y1258158D01*
Y1270758D01*
X1918131Y1269799D01*
D02*
G37*
G36*
X1993539Y1252008D02*
X1993298Y1252236D01*
X1993048Y1252440D01*
X1992787Y1252620D01*
X1992515Y1252776D01*
X1992233Y1252908D01*
X1991941Y1253016D01*
X1991639Y1253100D01*
X1991326Y1253160D01*
X1991003Y1253196D01*
X1990669Y1253208D01*
Y1255708D01*
X1991003Y1255720D01*
X1991326Y1255756D01*
X1991639Y1255816D01*
X1991941Y1255900D01*
X1992233Y1256008D01*
X1992515Y1256140D01*
X1992787Y1256296D01*
X1993048Y1256476D01*
X1993298Y1256680D01*
X1993539Y1256908D01*
Y1252008D01*
D02*
G37*
G36*
X1973490Y1256721D02*
X1973566Y1256508D01*
X1973692Y1256321D01*
X1973869Y1256158D01*
X1974097Y1256021D01*
X1974375Y1255908D01*
X1974704Y1255821D01*
X1975084Y1255758D01*
X1975514Y1255721D01*
X1975995Y1255708D01*
Y1253208D01*
X1975514Y1253196D01*
X1975084Y1253158D01*
X1974704Y1253096D01*
X1974375Y1253008D01*
X1974097Y1252896D01*
X1973869Y1252758D01*
X1973692Y1252596D01*
X1973566Y1252408D01*
X1973490Y1252196D01*
X1973464Y1251958D01*
Y1256958D01*
X1973490Y1256721D01*
D02*
G37*
G36*
X1984357Y1242008D02*
X1984116Y1242236D01*
X1983865Y1242440D01*
X1983604Y1242620D01*
X1983333Y1242776D01*
X1983051Y1242908D01*
X1982759Y1243016D01*
X1982457Y1243100D01*
X1982144Y1243160D01*
X1981820Y1243196D01*
X1981487Y1243208D01*
Y1245708D01*
X1981820Y1245720D01*
X1982144Y1245756D01*
X1982457Y1245816D01*
X1982759Y1245900D01*
X1983051Y1246008D01*
X1983333Y1246140D01*
X1983604Y1246296D01*
X1983865Y1246476D01*
X1984116Y1246680D01*
X1984357Y1246908D01*
Y1242008D01*
D02*
G37*
G36*
X1973490Y1246721D02*
X1973566Y1246508D01*
X1973692Y1246321D01*
X1973869Y1246158D01*
X1974097Y1246021D01*
X1974375Y1245908D01*
X1974704Y1245821D01*
X1975084Y1245758D01*
X1975514Y1245721D01*
X1975995Y1245708D01*
Y1243208D01*
X1975514Y1243196D01*
X1975084Y1243158D01*
X1974704Y1243096D01*
X1974375Y1243008D01*
X1974097Y1242896D01*
X1973869Y1242758D01*
X1973692Y1242596D01*
X1973566Y1242408D01*
X1973490Y1242196D01*
X1973464Y1241958D01*
Y1246958D01*
X1973490Y1246721D01*
D02*
G37*
G36*
X1966335Y1220999D02*
X1966165Y1220938D01*
X1966015Y1220836D01*
X1965885Y1220694D01*
X1965775Y1220511D01*
X1965685Y1220288D01*
X1965615Y1220024D01*
X1965565Y1219720D01*
X1965535Y1219374D01*
X1965525Y1218989D01*
X1963525D01*
X1963515Y1219374D01*
X1963485Y1219720D01*
X1963435Y1220024D01*
X1963365Y1220288D01*
X1963275Y1220511D01*
X1963165Y1220694D01*
X1963035Y1220836D01*
X1962885Y1220938D01*
X1962715Y1220999D01*
X1962525Y1221019D01*
X1966525D01*
X1966335Y1220999D01*
D02*
G37*
G36*
X1965535Y1174771D02*
X1965565Y1174425D01*
X1965615Y1174121D01*
X1965685Y1173857D01*
X1965775Y1173633D01*
X1965885Y1173451D01*
X1966015Y1173309D01*
X1966165Y1173207D01*
X1966335Y1173146D01*
X1966525Y1173126D01*
X1962525D01*
X1962715Y1173146D01*
X1962885Y1173207D01*
X1963035Y1173309D01*
X1963165Y1173451D01*
X1963275Y1173633D01*
X1963365Y1173857D01*
X1963435Y1174121D01*
X1963485Y1174425D01*
X1963515Y1174771D01*
X1963525Y1175156D01*
X1965525D01*
X1965535Y1174771D01*
D02*
G37*
%LPC*%
G36*
X2034222Y1651641D02*
X2034231Y1651458D01*
Y1645728D01*
X2035800D01*
Y1646958D01*
X2035525Y1649047D01*
X2034719Y1650993D01*
X2034222Y1651641D01*
D02*
G37*
G36*
X1966741D02*
X1966243Y1650993D01*
X1965437Y1649047D01*
X1965162Y1646958D01*
Y1645728D01*
X1966731D01*
Y1651458D01*
X1966741Y1651641D01*
D02*
G37*
G36*
X2035800Y1643188D02*
X2034231D01*
Y1637288D01*
X2034719Y1637924D01*
X2035525Y1639870D01*
X2035800Y1641958D01*
Y1643188D01*
D02*
G37*
G36*
X1966731Y1643188D02*
X1965162D01*
Y1641958D01*
X1965437Y1639870D01*
X1966243Y1637924D01*
X1966731Y1637288D01*
Y1643188D01*
D02*
G37*
G36*
X1986211Y1626958D02*
X1983481D01*
Y1621494D01*
X1981481Y1620815D01*
X1981224Y1621151D01*
X1979761Y1622273D01*
X1978058Y1622978D01*
X1977501Y1623051D01*
Y1614158D01*
Y1605265D01*
X1978058Y1605338D01*
X1979761Y1606044D01*
X1981224Y1607166D01*
X1981481Y1607501D01*
X1983481Y1606823D01*
Y1605458D01*
X1986211D01*
Y1616208D01*
Y1626958D01*
D02*
G37*
G36*
X2026001Y1623051D02*
Y1615428D01*
X2031792D01*
Y1616158D01*
X2031551Y1617986D01*
X2030846Y1619688D01*
X2029724Y1621151D01*
X2028261Y1622273D01*
X2026559Y1622978D01*
X2026001Y1623051D01*
D02*
G37*
G36*
X1974961D02*
X1974404Y1622978D01*
X1972701Y1622273D01*
X1971239Y1621151D01*
X1970117Y1619688D01*
X1969411Y1617986D01*
X1969171Y1616158D01*
Y1615428D01*
X1974961D01*
Y1623051D01*
D02*
G37*
G36*
X2017481Y1626958D02*
X1988751D01*
Y1616208D01*
Y1605458D01*
X2008002D01*
X2008994Y1604063D01*
X2009191Y1603458D01*
X2008893Y1601958D01*
Y1569493D01*
X2008799Y1568960D01*
X2008652Y1568520D01*
X2008479Y1568198D01*
X2008282Y1567957D01*
X2008042Y1567761D01*
X2007719Y1567587D01*
X2007279Y1567440D01*
X2006747Y1567346D01*
X1978355D01*
X1977940Y1567383D01*
X1977361Y1567479D01*
X1976926Y1567595D01*
X1976641Y1567711D01*
X1976525Y1567781D01*
Y1574758D01*
X1952525D01*
Y1567381D01*
X1952410Y1567311D01*
X1952125Y1567195D01*
X1951690Y1567079D01*
X1951111Y1566983D01*
X1950696Y1566946D01*
X1926998D01*
X1926703Y1566982D01*
X1926209Y1567085D01*
X1925729Y1567228D01*
X1925259Y1567412D01*
X1924797Y1567640D01*
X1924340Y1567914D01*
X1923887Y1568236D01*
X1923436Y1568610D01*
X1923127Y1568905D01*
X1922952Y1569134D01*
X1920967Y1570656D01*
X1918656Y1571614D01*
X1916176Y1571940D01*
X1913696Y1571614D01*
X1911385Y1570656D01*
X1909401Y1569134D01*
X1907878Y1567149D01*
X1906921Y1564838D01*
X1906594Y1562358D01*
X1906921Y1559878D01*
X1907878Y1557567D01*
X1909401Y1555583D01*
X1911385Y1554060D01*
X1913696Y1553103D01*
X1916176Y1552776D01*
X1918656Y1553103D01*
X1920967Y1554060D01*
X1922952Y1555583D01*
X1923127Y1555812D01*
X1923436Y1556107D01*
X1923887Y1556480D01*
X1924340Y1556802D01*
X1924797Y1557076D01*
X1925259Y1557304D01*
X1925729Y1557489D01*
X1926209Y1557632D01*
X1926703Y1557734D01*
X1926998Y1557770D01*
X1950696D01*
X1951111Y1557734D01*
X1951205Y1557718D01*
X1952317Y1556536D01*
X1952442Y1555895D01*
X1952451Y1555477D01*
X1952442Y1555464D01*
X1951874Y1554793D01*
X1943513Y1546432D01*
X1942795Y1545357D01*
X1942543Y1544089D01*
Y1430454D01*
X1942795Y1429186D01*
X1943513Y1428111D01*
X1957938Y1413686D01*
X1959013Y1412967D01*
X1960281Y1412715D01*
X1996788D01*
X2015212Y1394291D01*
Y1386289D01*
X2012525D01*
Y1372289D01*
X2024525D01*
Y1386289D01*
X2021839D01*
Y1395664D01*
X2021587Y1396932D01*
X2020869Y1398007D01*
X2000504Y1418372D01*
X1999429Y1419090D01*
X1998161Y1419342D01*
X1961654D01*
X1949170Y1431826D01*
Y1542716D01*
X1956455Y1550002D01*
X1956878Y1550395D01*
X1957208Y1550659D01*
X1957351Y1550758D01*
X1958048D01*
X1958091Y1550749D01*
X1958135Y1550758D01*
X1960292D01*
X1960690Y1548758D01*
X1958474Y1547840D01*
X1955967Y1545917D01*
X1954043Y1543410D01*
X1952834Y1540491D01*
X1952422Y1537358D01*
X1952834Y1534225D01*
X1954043Y1531306D01*
X1955967Y1528800D01*
X1956423Y1528450D01*
X1957421Y1527495D01*
X1959286Y1525529D01*
X1959999Y1524675D01*
X1960594Y1523880D01*
X1961059Y1523168D01*
X1961394Y1522547D01*
X1961607Y1522035D01*
X1961710Y1521648D01*
X1961726Y1521489D01*
Y1520530D01*
X1961726Y1520530D01*
X1961959Y1519359D01*
X1962622Y1518367D01*
X1975497Y1505491D01*
Y1500736D01*
X1975497Y1500736D01*
X1975730Y1499566D01*
X1976393Y1498573D01*
X1980171Y1494795D01*
X1980171Y1494795D01*
X1981044Y1494212D01*
X1981164Y1494132D01*
X1982856Y1493758D01*
X1982856Y1493758D01*
X1984843D01*
X1984887Y1493749D01*
X1984930Y1493758D01*
X1992856D01*
Y1500158D01*
X1984930D01*
X1984887Y1500167D01*
X1984843Y1500158D01*
X1983460D01*
X1981719Y1501899D01*
X1981759Y1502444D01*
X1982856Y1503758D01*
X1984843D01*
X1984887Y1503749D01*
X1984930Y1503758D01*
X1992856D01*
Y1510158D01*
X1984930D01*
X1984887Y1510167D01*
X1984843Y1510158D01*
X1982856D01*
Y1510017D01*
X1979623D01*
X1967880Y1521761D01*
X1967959Y1522061D01*
X1968172Y1522587D01*
X1968507Y1523232D01*
X1968969Y1523980D01*
X1969536Y1524788D01*
X1972106Y1527853D01*
X1972781Y1528568D01*
X1973084Y1528800D01*
X1975007Y1531306D01*
X1976216Y1534225D01*
X1976629Y1537358D01*
X1976216Y1540491D01*
X1975007Y1543410D01*
X1973084Y1545917D01*
X1970577Y1547840D01*
X1968361Y1548758D01*
X1968759Y1550758D01*
X1976525D01*
Y1557735D01*
X1976641Y1557806D01*
X1976926Y1557921D01*
X1977361Y1558038D01*
X1977940Y1558134D01*
X1978355Y1558170D01*
X2154486D01*
X2154901Y1558134D01*
X2155480Y1558038D01*
X2155915Y1557921D01*
X2156199Y1557806D01*
X2156315Y1557735D01*
Y1554758D01*
X2172315D01*
Y1570758D01*
X2156315D01*
Y1567781D01*
X2156199Y1567711D01*
X2155915Y1567595D01*
X2155480Y1567479D01*
X2154901Y1567383D01*
X2154486Y1567346D01*
X2020215D01*
X2019683Y1567440D01*
X2019243Y1567587D01*
X2018921Y1567761D01*
X2018680Y1567957D01*
X2018484Y1568197D01*
X2018310Y1568520D01*
X2018163Y1568960D01*
X2018069Y1569493D01*
Y1601958D01*
X2017749Y1603569D01*
X2017481Y1605458D01*
X2017925Y1606245D01*
X2018396Y1606484D01*
X2020270Y1606758D01*
X2021201Y1606044D01*
X2022904Y1605338D01*
X2023461Y1605265D01*
Y1614158D01*
Y1623051D01*
X2022904Y1622978D01*
X2021201Y1622273D01*
X2019739Y1621151D01*
X2019481Y1620815D01*
X2017481Y1621494D01*
Y1626958D01*
D02*
G37*
G36*
X1974961Y1612888D02*
X1969171D01*
Y1612158D01*
X1969411Y1610331D01*
X1970117Y1608628D01*
X1971239Y1607166D01*
X1972701Y1606044D01*
X1974404Y1605338D01*
X1974961Y1605265D01*
Y1612888D01*
D02*
G37*
G36*
X2031792D02*
X2026001D01*
Y1605265D01*
X2026559Y1605338D01*
X2028261Y1606044D01*
X2029724Y1607166D01*
X2030846Y1608628D01*
X2031551Y1610331D01*
X2031792Y1612158D01*
Y1612888D01*
D02*
G37*
G36*
X2165585Y1590660D02*
Y1584028D01*
X2172217D01*
X2172109Y1584847D01*
X2171303Y1586793D01*
X2170021Y1588464D01*
X2168350Y1589746D01*
X2166404Y1590552D01*
X2165585Y1590660D01*
D02*
G37*
G36*
X2163045D02*
X2162227Y1590552D01*
X2160281Y1589746D01*
X2158610Y1588464D01*
X2157327Y1586793D01*
X2156521Y1584847D01*
X2156414Y1584028D01*
X2163045D01*
Y1590660D01*
D02*
G37*
G36*
X1925676Y1596858D02*
X1906676D01*
Y1577858D01*
X1925676D01*
Y1596858D01*
D02*
G37*
G36*
X2172217Y1581488D02*
X2165585D01*
Y1574856D01*
X2166404Y1574964D01*
X2168350Y1575770D01*
X2170021Y1577052D01*
X2171303Y1578724D01*
X2172109Y1580670D01*
X2172217Y1581488D01*
D02*
G37*
G36*
X2163045D02*
X2156414D01*
X2156521Y1580670D01*
X2157327Y1578724D01*
X2158610Y1577052D01*
X2160281Y1575770D01*
X2162227Y1574964D01*
X2163045Y1574856D01*
Y1581488D01*
D02*
G37*
G36*
X2018284Y1542816D02*
X2016138Y1542389D01*
X2014319Y1541173D01*
X2013103Y1539354D01*
X2012676Y1537208D01*
X2013103Y1535062D01*
X2013768Y1534067D01*
Y1533788D01*
X2013733Y1533382D01*
X2013638Y1532806D01*
X2013523Y1532374D01*
X2013409Y1532092D01*
X2013337Y1531973D01*
X2013197Y1531958D01*
X2011356Y1531958D01*
X2009356Y1531958D01*
X2005126D01*
Y1524458D01*
Y1516958D01*
X2009356D01*
X2010856Y1516958D01*
X2012856Y1516958D01*
X2025356D01*
Y1518003D01*
X2026361Y1518570D01*
X2028268Y1517350D01*
Y1513718D01*
X2028192Y1513335D01*
X2028261Y1512989D01*
X2025288Y1510017D01*
X2020856D01*
Y1510158D01*
X2018869D01*
X2018826Y1510167D01*
X2018782Y1510158D01*
X2010856D01*
Y1498758D01*
X2018782D01*
X2018826Y1498749D01*
X2018869Y1498758D01*
X2020856D01*
Y1498899D01*
X2029181D01*
X2029181Y1498899D01*
X2030352Y1499132D01*
X2031344Y1499795D01*
X2038856Y1507307D01*
X2040856Y1506479D01*
Y1487816D01*
X2039008Y1487050D01*
X2031937Y1494121D01*
X2030945Y1494784D01*
X2029774Y1495017D01*
X2029774Y1495017D01*
X2020856D01*
Y1495158D01*
X2018869D01*
X2018826Y1495167D01*
X2018782Y1495158D01*
X2010856D01*
Y1483758D01*
X2017921D01*
X2018750Y1481758D01*
X2016237Y1479245D01*
X2015242Y1477757D01*
X2014893Y1476001D01*
Y1466539D01*
X2014857Y1466124D01*
X2014760Y1465544D01*
X2014644Y1465109D01*
X2014529Y1464825D01*
X2014458Y1464709D01*
X2010231Y1464709D01*
X2008231Y1464709D01*
X2001751D01*
Y1454959D01*
Y1445209D01*
X2008231D01*
X2009731Y1445209D01*
X2011731Y1445209D01*
X2028731D01*
Y1449769D01*
X2028748Y1449932D01*
X2028874Y1450009D01*
X2029154Y1450123D01*
X2029584Y1450239D01*
X2030158Y1450335D01*
X2030569Y1450371D01*
X2096855D01*
X2112894Y1434332D01*
X2113751Y1433409D01*
X2114373Y1432634D01*
X2114852Y1431949D01*
X2114956Y1431767D01*
Y1419758D01*
X2124811D01*
X2124855Y1419749D01*
X2124898Y1419758D01*
X2126949D01*
X2127159Y1419639D01*
X2127818Y1419180D01*
X2129298Y1417928D01*
X2163768Y1383458D01*
Y1362296D01*
X2163753Y1362130D01*
X2162887Y1360467D01*
X2162843Y1360458D01*
X2160856D01*
Y1358618D01*
X2160841Y1358477D01*
X2160722Y1358405D01*
X2160440Y1358291D01*
X2160008Y1358177D01*
X2159432Y1358082D01*
X2159026Y1358046D01*
X2154936D01*
X2154530Y1358082D01*
X2153954Y1358176D01*
X2153522Y1358291D01*
X2153240Y1358405D01*
X2153121Y1358477D01*
X2153106Y1358618D01*
Y1360458D01*
X2151119D01*
X2151076Y1360467D01*
X2151032Y1360458D01*
X2140680D01*
X2140637Y1360467D01*
X2140593Y1360458D01*
X2138606D01*
Y1358618D01*
X2138591Y1358477D01*
X2138472Y1358405D01*
X2138190Y1358291D01*
X2137758Y1358177D01*
X2137182Y1358082D01*
X2136776Y1358046D01*
X2115454D01*
X2113698Y1357697D01*
X2113352Y1357466D01*
X2111710Y1357139D01*
X2109891Y1355923D01*
X2108675Y1354104D01*
X2108325Y1352342D01*
X2108286Y1352285D01*
X2107937Y1350529D01*
X2107981Y1350308D01*
X2107937Y1350086D01*
Y1341796D01*
X2107901Y1341385D01*
X2107805Y1340811D01*
X2107690Y1340381D01*
X2107575Y1340101D01*
X2107498Y1339975D01*
X2107336Y1339958D01*
X2101525D01*
Y1328958D01*
Y1325728D01*
X2112525D01*
X2123525D01*
Y1328958D01*
Y1339958D01*
X2117715D01*
X2117553Y1339975D01*
X2117476Y1340101D01*
X2117361Y1340381D01*
X2117245Y1340811D01*
X2117150Y1341385D01*
X2117114Y1341796D01*
Y1347520D01*
X2117821Y1347993D01*
X2118407Y1348870D01*
X2136776D01*
X2137182Y1348835D01*
X2137758Y1348740D01*
X2138190Y1348625D01*
X2138472Y1348511D01*
X2138591Y1348439D01*
X2138606Y1348299D01*
Y1346458D01*
X2140593D01*
X2140637Y1346449D01*
X2140680Y1346458D01*
X2151032D01*
X2151076Y1346449D01*
X2151119Y1346458D01*
X2153106D01*
Y1348299D01*
X2153121Y1348439D01*
X2153240Y1348511D01*
X2153522Y1348625D01*
X2153954Y1348740D01*
X2154530Y1348835D01*
X2154936Y1348870D01*
X2159026D01*
X2159432Y1348835D01*
X2160008Y1348740D01*
X2160440Y1348625D01*
X2160722Y1348511D01*
X2160841Y1348439D01*
X2160856Y1348299D01*
X2160856Y1346458D01*
X2160856Y1344458D01*
Y1340228D01*
X2168356D01*
X2175856D01*
Y1344458D01*
X2175856Y1345958D01*
X2175856Y1347958D01*
Y1360458D01*
X2173546D01*
X2173383Y1360475D01*
X2173306Y1360601D01*
X2173192Y1360882D01*
X2173076Y1361311D01*
X2172980Y1361885D01*
X2172944Y1362296D01*
Y1385358D01*
X2172595Y1387114D01*
X2171600Y1388602D01*
X2136030Y1424173D01*
X2135168Y1425101D01*
X2134551Y1425873D01*
X2134076Y1426556D01*
X2133956Y1426765D01*
Y1428816D01*
X2133965Y1428860D01*
X2133956Y1428904D01*
Y1438758D01*
X2121947D01*
X2121765Y1438863D01*
X2121103Y1439325D01*
X2119622Y1440581D01*
X2102000Y1458203D01*
X2100511Y1459198D01*
X2098755Y1459547D01*
X2030569D01*
X2030158Y1459583D01*
X2029584Y1459679D01*
X2029154Y1459795D01*
X2028874Y1459909D01*
X2028748Y1459986D01*
X2028731Y1460149D01*
Y1464709D01*
X2024504D01*
X2024434Y1464825D01*
X2024318Y1465109D01*
X2024202Y1465544D01*
X2024106Y1466124D01*
X2024069Y1466539D01*
Y1474100D01*
X2027100Y1477132D01*
X2028095Y1478620D01*
X2028444Y1480376D01*
X2028095Y1482132D01*
X2027553Y1482943D01*
X2027479Y1483108D01*
X2027355Y1483283D01*
X2027286Y1483403D01*
X2027215Y1483559D01*
X2027143Y1483756D01*
X2027076Y1483993D01*
X2027015Y1484272D01*
X2026969Y1484569D01*
X2026915Y1485232D01*
Y1485786D01*
X2026915Y1485786D01*
X2028338Y1487740D01*
X2028364Y1487753D01*
X2029517Y1487890D01*
X2046612Y1470795D01*
X2047604Y1470132D01*
X2048775Y1469899D01*
X2048775Y1469899D01*
X2060356D01*
Y1465458D01*
X2084356D01*
Y1480458D01*
X2060356D01*
Y1476017D01*
X2050042D01*
X2042948Y1483110D01*
X2043713Y1484958D01*
X2055856D01*
Y1508958D01*
X2043335D01*
X2042507Y1510958D01*
X2049448Y1517899D01*
X2060356D01*
Y1513458D01*
X2084356D01*
Y1528458D01*
X2060356D01*
Y1524017D01*
X2048181D01*
X2048181Y1524017D01*
X2047011Y1523784D01*
X2046018Y1523121D01*
X2039292Y1516395D01*
X2037444Y1517160D01*
Y1521529D01*
X2037095Y1523285D01*
X2036100Y1524774D01*
X2033172Y1527702D01*
X2031683Y1528697D01*
X2029927Y1529046D01*
X2027194D01*
X2027029Y1529061D01*
X2025365Y1529928D01*
X2025356Y1529971D01*
Y1531958D01*
X2023516D01*
X2023375Y1531973D01*
X2023303Y1532092D01*
X2023189Y1532374D01*
X2023074Y1532806D01*
X2022980Y1533382D01*
X2022944Y1533788D01*
Y1534283D01*
X2023465Y1535062D01*
X2023892Y1537208D01*
X2023465Y1539354D01*
X2022249Y1541173D01*
X2020430Y1542389D01*
X2018284Y1542816D01*
D02*
G37*
G36*
X1916176Y1546940D02*
X1913696Y1546614D01*
X1911385Y1545656D01*
X1909401Y1544134D01*
X1907878Y1542149D01*
X1906921Y1539838D01*
X1906594Y1537358D01*
X1906921Y1534878D01*
X1907878Y1532567D01*
X1909401Y1530583D01*
X1911385Y1529060D01*
X1913696Y1528103D01*
X1916176Y1527776D01*
X1918656Y1528103D01*
X1920967Y1529060D01*
X1922952Y1530583D01*
X1924474Y1532567D01*
X1925432Y1534878D01*
X1925758Y1537358D01*
X1925432Y1539838D01*
X1924474Y1542149D01*
X1922952Y1544134D01*
X1920967Y1545656D01*
X1918656Y1546614D01*
X1916176Y1546940D01*
D02*
G37*
G36*
X2002586Y1531958D02*
X1996856D01*
Y1525728D01*
X2002586D01*
Y1531958D01*
D02*
G37*
G36*
Y1523188D02*
X1996856D01*
Y1516958D01*
X2002586D01*
Y1523188D01*
D02*
G37*
G36*
X1970051Y1507208D02*
X1964071D01*
Y1501228D01*
X1970051D01*
Y1507208D01*
D02*
G37*
G36*
X1961531D02*
X1955551D01*
Y1501228D01*
X1961531D01*
Y1507208D01*
D02*
G37*
G36*
X2103856Y1508958D02*
X2088856D01*
Y1484958D01*
X2103856D01*
Y1508958D01*
D02*
G37*
G36*
X1970051Y1498688D02*
X1955551D01*
Y1492708D01*
Y1479708D01*
X1959742D01*
Y1472710D01*
X1955551D01*
Y1458210D01*
Y1445210D01*
X1957611D01*
X1957774Y1445193D01*
X1957851Y1445067D01*
X1957965Y1444786D01*
X1958081Y1444357D01*
X1958177Y1443783D01*
X1958213Y1443372D01*
Y1442491D01*
X1957620Y1441604D01*
X1957193Y1439458D01*
X1957620Y1437312D01*
X1958836Y1435493D01*
X1960655Y1434277D01*
X1962801Y1433850D01*
X1964947Y1434277D01*
X1966766Y1435493D01*
X1967982Y1437312D01*
X1968409Y1439458D01*
X1967982Y1441604D01*
X1967389Y1442491D01*
Y1443372D01*
X1967425Y1443783D01*
X1967521Y1444357D01*
X1967637Y1444787D01*
X1967751Y1445067D01*
X1967828Y1445193D01*
X1967991Y1445210D01*
X1970051D01*
Y1458210D01*
Y1472710D01*
X1965860D01*
Y1479708D01*
X1970051D01*
Y1483899D01*
X1982856D01*
Y1483758D01*
X1984843D01*
X1984887Y1483749D01*
X1984930Y1483758D01*
X1992856D01*
Y1490158D01*
X1984930D01*
X1984887Y1490167D01*
X1984843Y1490158D01*
X1982856D01*
Y1490017D01*
X1970051D01*
Y1492708D01*
Y1498688D01*
D02*
G37*
G36*
X1999211Y1464709D02*
X1991231D01*
Y1456229D01*
X1999211D01*
Y1464709D01*
D02*
G37*
G36*
Y1453689D02*
X1991231D01*
Y1445209D01*
X1999211D01*
Y1453689D01*
D02*
G37*
G36*
X2100326Y1438673D02*
Y1430528D01*
X2108471D01*
X2108312Y1431738D01*
X2107354Y1434049D01*
X2105832Y1436034D01*
X2103847Y1437556D01*
X2101536Y1438514D01*
X2100326Y1438673D01*
D02*
G37*
G36*
X2097786Y1438673D02*
X2096576Y1438514D01*
X2094265Y1437556D01*
X2092281Y1436034D01*
X2090758Y1434049D01*
X2089801Y1431738D01*
X2089641Y1430528D01*
X2097786D01*
Y1438673D01*
D02*
G37*
G36*
X2108471Y1427988D02*
X2100326D01*
Y1419843D01*
X2101536Y1420003D01*
X2103847Y1420960D01*
X2105832Y1422483D01*
X2107354Y1424467D01*
X2108312Y1426778D01*
X2108471Y1427988D01*
D02*
G37*
G36*
X2097786D02*
X2089641D01*
X2089801Y1426778D01*
X2090758Y1424467D01*
X2092281Y1422483D01*
X2094265Y1420960D01*
X2096576Y1420003D01*
X2097786Y1419843D01*
Y1427988D01*
D02*
G37*
G36*
X1920234Y1429658D02*
X1901234D01*
Y1410658D01*
X1920234D01*
Y1429658D01*
D02*
G37*
G36*
X1974106Y1386208D02*
X1969376D01*
Y1380478D01*
X1974106D01*
Y1386208D01*
D02*
G37*
G36*
X1966836D02*
X1962106D01*
Y1380478D01*
X1966836D01*
Y1386208D01*
D02*
G37*
G36*
X1974106Y1377938D02*
X1969376D01*
Y1372208D01*
X1974106D01*
Y1377938D01*
D02*
G37*
G36*
X1966836D02*
X1962106D01*
Y1372208D01*
X1966836D01*
Y1377938D01*
D02*
G37*
G36*
X1912004Y1353373D02*
Y1345228D01*
X1920149D01*
X1919989Y1346438D01*
X1919032Y1348749D01*
X1917509Y1350734D01*
X1915525Y1352256D01*
X1913214Y1353214D01*
X1912004Y1353373D01*
D02*
G37*
G36*
X1909464Y1353373D02*
X1908254Y1353214D01*
X1905943Y1352256D01*
X1903958Y1350734D01*
X1902436Y1348749D01*
X1901478Y1346438D01*
X1901319Y1345228D01*
X1909464D01*
Y1353373D01*
D02*
G37*
G36*
X2079025Y1364458D02*
X2044796D01*
Y1353458D01*
Y1342458D01*
X2079025D01*
Y1364458D01*
D02*
G37*
G36*
X1983356Y1406519D02*
X1981529Y1406278D01*
X1979826Y1405573D01*
X1978364Y1404451D01*
X1977242Y1402988D01*
X1976536Y1401286D01*
X1976296Y1399458D01*
X1976536Y1397631D01*
X1977242Y1395928D01*
X1978364Y1394466D01*
X1979826Y1393344D01*
X1979855Y1393332D01*
X1979872Y1393304D01*
X1979909Y1393228D01*
X1979952Y1393107D01*
X1979995Y1392935D01*
X1980032Y1392711D01*
X1980043Y1392597D01*
Y1386398D01*
X1980031Y1386271D01*
X1980028Y1386249D01*
X1979985Y1386220D01*
X1979946Y1386208D01*
X1977106D01*
Y1372208D01*
X1989106D01*
Y1375802D01*
X1989118Y1375816D01*
X1989150Y1375919D01*
X1989180Y1375964D01*
X1989183Y1375965D01*
X1989305Y1375975D01*
X1997525D01*
Y1372289D01*
X2000212D01*
Y1364458D01*
X1998025D01*
Y1342458D01*
X2042256D01*
Y1353458D01*
Y1364458D01*
X2006839D01*
Y1372289D01*
X2009525D01*
Y1386289D01*
X1997525D01*
Y1382603D01*
X1989305D01*
X1989183Y1382613D01*
X1989180Y1382614D01*
X1989150Y1382659D01*
X1989118Y1382762D01*
X1989106Y1382776D01*
Y1386208D01*
X1986767D01*
X1986727Y1386220D01*
X1986685Y1386249D01*
X1986681Y1386271D01*
X1986670Y1386398D01*
Y1392597D01*
X1986680Y1392711D01*
X1986717Y1392935D01*
X1986760Y1393107D01*
X1986803Y1393228D01*
X1986840Y1393304D01*
X1986858Y1393332D01*
X1986886Y1393344D01*
X1988349Y1394466D01*
X1989471Y1395928D01*
X1990176Y1397631D01*
X1990417Y1399458D01*
X1990176Y1401286D01*
X1989471Y1402988D01*
X1988349Y1404451D01*
X1986886Y1405573D01*
X1985184Y1406278D01*
X1983356Y1406519D01*
D02*
G37*
G36*
X2153106Y1342458D02*
X2147126D01*
Y1336728D01*
X2153106D01*
Y1342458D01*
D02*
G37*
G36*
X2144586D02*
X2138606D01*
Y1336728D01*
X2144586D01*
Y1342458D01*
D02*
G37*
G36*
X1909464Y1342688D02*
X1901319D01*
X1901478Y1341478D01*
X1902436Y1339167D01*
X1903958Y1337183D01*
X1905943Y1335660D01*
X1908254Y1334703D01*
X1909464Y1334543D01*
Y1342688D01*
D02*
G37*
G36*
X1920149D02*
X1912004D01*
Y1334543D01*
X1913214Y1334703D01*
X1915525Y1335660D01*
X1917509Y1337183D01*
X1919032Y1339167D01*
X1919989Y1341478D01*
X1920149Y1342688D01*
D02*
G37*
G36*
X2175856Y1337688D02*
X2169626D01*
Y1331958D01*
X2175856D01*
Y1337688D01*
D02*
G37*
G36*
X2167086D02*
X2160856D01*
Y1331958D01*
X2167086D01*
Y1337688D01*
D02*
G37*
G36*
X2153106Y1334188D02*
X2147126D01*
Y1328458D01*
X2153106D01*
Y1334188D01*
D02*
G37*
G36*
X2144586D02*
X2138606D01*
Y1328458D01*
X2144586D01*
Y1334188D01*
D02*
G37*
G36*
X2175606Y1303458D02*
X2169626D01*
Y1297728D01*
X2175606D01*
Y1303458D01*
D02*
G37*
G36*
X2167086D02*
X2161106D01*
Y1297728D01*
X2167086D01*
Y1303458D01*
D02*
G37*
G36*
X2175606Y1295188D02*
X2169626D01*
Y1289458D01*
X2175606D01*
Y1295188D01*
D02*
G37*
G36*
X2167086D02*
X2161106D01*
Y1289458D01*
X2167086D01*
Y1295188D01*
D02*
G37*
G36*
X2152856Y1305458D02*
X2138856D01*
Y1293458D01*
X2142797D01*
Y1289717D01*
X2142793Y1289688D01*
X2142765Y1289570D01*
X2142722Y1289443D01*
X2142661Y1289305D01*
X2142578Y1289153D01*
X2142471Y1288987D01*
X2142337Y1288807D01*
X2142173Y1288616D01*
X2142161Y1288604D01*
X2141891Y1288423D01*
X2140675Y1286604D01*
X2140248Y1284458D01*
X2140675Y1282312D01*
X2141891Y1280493D01*
X2143710Y1279277D01*
X2145856Y1278850D01*
X2148002Y1279277D01*
X2149821Y1280493D01*
X2151037Y1282312D01*
X2151464Y1284458D01*
X2151037Y1286604D01*
X2149821Y1288423D01*
X2149551Y1288604D01*
X2149539Y1288616D01*
X2149376Y1288807D01*
X2149241Y1288987D01*
X2149134Y1289153D01*
X2149051Y1289305D01*
X2148990Y1289443D01*
X2148947Y1289570D01*
X2148919Y1289688D01*
X2148915Y1289717D01*
Y1293458D01*
X2152856D01*
Y1305458D01*
D02*
G37*
G36*
X2123525Y1249958D02*
X2101525D01*
Y1238958D01*
Y1235728D01*
X2112525D01*
X2123525D01*
Y1238958D01*
Y1249958D01*
D02*
G37*
G36*
Y1233188D02*
X2112525D01*
X2101525D01*
Y1228958D01*
Y1225728D01*
X2112525D01*
X2123525D01*
Y1228958D01*
Y1233188D01*
D02*
G37*
G36*
Y1223188D02*
X2113795D01*
Y1218958D01*
X2123525D01*
Y1223188D01*
D02*
G37*
G36*
X2111255D02*
X2101525D01*
Y1218958D01*
X2111255D01*
Y1223188D01*
D02*
G37*
G36*
X1912004Y1224586D02*
Y1214928D01*
X1921662D01*
X1921451Y1216530D01*
X1920343Y1219206D01*
X1918579Y1221503D01*
X1916281Y1223267D01*
X1913606Y1224375D01*
X1912004Y1224586D01*
D02*
G37*
G36*
X1921662Y1212388D02*
X1912004D01*
Y1202730D01*
X1913606Y1202941D01*
X1916281Y1204050D01*
X1918579Y1205813D01*
X1920343Y1208111D01*
X1921451Y1210787D01*
X1921662Y1212388D01*
D02*
G37*
G36*
X2079025Y1211458D02*
X2038025D01*
Y1189458D01*
X2040212D01*
Y1159406D01*
X2040201Y1159292D01*
X2040165Y1159068D01*
X2040121Y1158896D01*
X2040078Y1158775D01*
X2040041Y1158699D01*
X2040024Y1158671D01*
X2039995Y1158659D01*
X2038533Y1157537D01*
X2037411Y1156075D01*
X2036706Y1154372D01*
X2036465Y1152545D01*
X2036706Y1150717D01*
X2037411Y1149015D01*
X2038533Y1147552D01*
X2039995Y1146430D01*
X2041698Y1145725D01*
X2043525Y1145484D01*
X2045353Y1145725D01*
X2047056Y1146430D01*
X2048518Y1147552D01*
X2049640Y1149015D01*
X2050345Y1150717D01*
X2050586Y1152545D01*
X2050345Y1154372D01*
X2049640Y1156075D01*
X2048518Y1157537D01*
X2047056Y1158659D01*
X2047027Y1158671D01*
X2047009Y1158699D01*
X2046973Y1158775D01*
X2046929Y1158896D01*
X2046886Y1159068D01*
X2046849Y1159292D01*
X2046839Y1159406D01*
Y1165888D01*
X2047687Y1166427D01*
X2048839Y1166731D01*
X2049995Y1165844D01*
X2051698Y1165138D01*
X2053525Y1164898D01*
X2055353Y1165138D01*
X2057056Y1165844D01*
X2058212Y1166731D01*
X2059364Y1166427D01*
X2060212Y1165888D01*
Y1158988D01*
X2060201Y1158874D01*
X2060165Y1158651D01*
X2060121Y1158479D01*
X2060078Y1158357D01*
X2060041Y1158281D01*
X2060024Y1158254D01*
X2059995Y1158242D01*
X2058533Y1157120D01*
X2057411Y1155658D01*
X2056706Y1153955D01*
X2056465Y1152127D01*
X2056706Y1150300D01*
X2057411Y1148597D01*
X2058533Y1147135D01*
X2059995Y1146013D01*
X2061698Y1145308D01*
X2063525Y1145067D01*
X2065353Y1145308D01*
X2067056Y1146013D01*
X2068518Y1147135D01*
X2069640Y1148597D01*
X2070345Y1150300D01*
X2070586Y1152127D01*
X2070345Y1153955D01*
X2069640Y1155658D01*
X2068518Y1157120D01*
X2067056Y1158242D01*
X2067027Y1158254D01*
X2067009Y1158281D01*
X2066973Y1158357D01*
X2066929Y1158479D01*
X2066886Y1158651D01*
X2066850Y1158874D01*
X2066839Y1158988D01*
Y1165888D01*
X2067687Y1166427D01*
X2068839Y1166731D01*
X2069995Y1165844D01*
X2071698Y1165138D01*
X2073525Y1164898D01*
X2075353Y1165138D01*
X2077056Y1165844D01*
X2078518Y1166966D01*
X2079640Y1168428D01*
X2080345Y1170131D01*
X2080586Y1171958D01*
X2080345Y1173785D01*
X2079640Y1175488D01*
X2078518Y1176951D01*
X2077056Y1178073D01*
X2077027Y1178084D01*
X2077009Y1178112D01*
X2076973Y1178188D01*
X2076929Y1178310D01*
X2076886Y1178482D01*
X2076850Y1178705D01*
X2076839Y1178819D01*
Y1189458D01*
X2079025D01*
Y1211458D01*
D02*
G37*
G36*
X2000695Y1175187D02*
X1992465D01*
Y1151957D01*
X2000695D01*
Y1175187D01*
D02*
G37*
G36*
X1947355D02*
X1939125D01*
Y1151957D01*
X1947355D01*
Y1175187D01*
D02*
G37*
G36*
X1989925D02*
X1981695D01*
Y1151957D01*
X1989925D01*
Y1175187D01*
D02*
G37*
G36*
X1936585D02*
X1928355D01*
Y1151957D01*
X1936585D01*
Y1175187D01*
D02*
G37*
%LPD*%
G36*
X2014489Y1608338D02*
X2014544Y1607489D01*
X2015451D01*
X2015266Y1607469D01*
X2015102Y1607409D01*
X2014956Y1607309D01*
X2014830Y1607169D01*
X2014724Y1606989D01*
X2014636Y1606769D01*
X2014600Y1606628D01*
X2014673Y1605491D01*
X2014758Y1604978D01*
X2014858Y1604545D01*
X2014973Y1604192D01*
X2015104Y1603919D01*
X2015250Y1603725D01*
X2011712D01*
X2011858Y1603919D01*
X2011989Y1604192D01*
X2012104Y1604545D01*
X2012204Y1604978D01*
X2012289Y1605491D01*
X2012390Y1606525D01*
X2012326Y1606769D01*
X2012239Y1606989D01*
X2012132Y1607169D01*
X2012006Y1607309D01*
X2011861Y1607409D01*
X2011696Y1607469D01*
X2011512Y1607489D01*
X2012440D01*
X2012473Y1608338D01*
X2012481Y1609249D01*
X2014481D01*
X2014489Y1608338D01*
D02*
G37*
G36*
X2016031Y1569308D02*
X2016181Y1568458D01*
X2016431Y1567708D01*
X2016781Y1567058D01*
X2017231Y1566508D01*
X2017781Y1566058D01*
X2018431Y1565708D01*
X2019181Y1565458D01*
X2020031Y1565308D01*
X2020981Y1565258D01*
X2013481Y1560258D01*
X2005981Y1565258D01*
X2006931Y1565308D01*
X2007781Y1565458D01*
X2008531Y1565708D01*
X2009181Y1566058D01*
X2009731Y1566508D01*
X2010181Y1567058D01*
X2010531Y1567708D01*
X2010781Y1568458D01*
X2010931Y1569308D01*
X2010981Y1570258D01*
X2015981D01*
X2016031Y1569308D01*
D02*
G37*
G36*
X2158376Y1557758D02*
X2158326Y1558233D01*
X2158175Y1558658D01*
X2157923Y1559033D01*
X2157571Y1559358D01*
X2157119Y1559633D01*
X2156565Y1559858D01*
X2155911Y1560033D01*
X2155157Y1560158D01*
X2154302Y1560233D01*
X2153346Y1560258D01*
Y1565258D01*
X2154302Y1565283D01*
X2155157Y1565358D01*
X2155911Y1565483D01*
X2156565Y1565658D01*
X2157119Y1565883D01*
X2157571Y1566158D01*
X2157923Y1566483D01*
X2158175Y1566858D01*
X2158326Y1567283D01*
X2158376Y1567758D01*
Y1557758D01*
D02*
G37*
G36*
X1974515Y1567283D02*
X1974666Y1566858D01*
X1974917Y1566483D01*
X1975269Y1566158D01*
X1975722Y1565883D01*
X1976275Y1565658D01*
X1976929Y1565483D01*
X1977684Y1565358D01*
X1978539Y1565283D01*
X1979495Y1565258D01*
Y1560258D01*
X1978539Y1560233D01*
X1977684Y1560158D01*
X1976929Y1560033D01*
X1976275Y1559858D01*
X1975722Y1559633D01*
X1975269Y1559358D01*
X1974917Y1559033D01*
X1974666Y1558658D01*
X1974515Y1558233D01*
X1974465Y1557758D01*
Y1567758D01*
X1974515Y1567283D01*
D02*
G37*
G36*
X1954586Y1557358D02*
X1954536Y1557833D01*
X1954385Y1558258D01*
X1954134Y1558633D01*
X1953781Y1558958D01*
X1953329Y1559233D01*
X1952775Y1559458D01*
X1952121Y1559633D01*
X1951367Y1559758D01*
X1950512Y1559833D01*
X1949556Y1559858D01*
Y1564858D01*
X1950512Y1564883D01*
X1951367Y1564958D01*
X1952121Y1565083D01*
X1952775Y1565258D01*
X1953329Y1565483D01*
X1953781Y1565758D01*
X1954134Y1566083D01*
X1954385Y1566458D01*
X1954536Y1566883D01*
X1954586Y1567358D01*
Y1557358D01*
D02*
G37*
G36*
X1922079Y1567086D02*
X1922643Y1566618D01*
X1923224Y1566206D01*
X1923820Y1565848D01*
X1924434Y1565546D01*
X1925063Y1565298D01*
X1925710Y1565106D01*
X1926372Y1564968D01*
X1927052Y1564886D01*
X1927747Y1564858D01*
Y1559858D01*
X1927052Y1559831D01*
X1926372Y1559748D01*
X1925710Y1559611D01*
X1925063Y1559418D01*
X1924434Y1559171D01*
X1923820Y1558868D01*
X1923224Y1558511D01*
X1922643Y1558098D01*
X1922079Y1557631D01*
X1921532Y1557108D01*
Y1567608D01*
X1922079Y1567086D01*
D02*
G37*
G36*
X1964127Y1559858D02*
X1963953Y1559824D01*
X1963725Y1559720D01*
X1963442Y1559547D01*
X1963105Y1559306D01*
X1962268Y1558616D01*
X1960606Y1557063D01*
X1959943Y1556408D01*
X1958175Y1558176D01*
X1958831Y1558838D01*
X1961315Y1561675D01*
X1961487Y1561957D01*
X1961591Y1562186D01*
X1961625Y1562360D01*
X1964127Y1559858D01*
D02*
G37*
G36*
X1958091Y1552789D02*
X1957897Y1552930D01*
X1957667Y1553001D01*
X1957402D01*
X1957101Y1552930D01*
X1956766Y1552789D01*
X1956394Y1552576D01*
X1955988Y1552294D01*
X1955546Y1551940D01*
X1954556Y1551021D01*
X1952788Y1552789D01*
X1953283Y1553301D01*
X1954061Y1554220D01*
X1954344Y1554627D01*
X1954556Y1554998D01*
X1954697Y1555334D01*
X1954768Y1555635D01*
Y1555900D01*
X1954697Y1556130D01*
X1954556Y1556324D01*
X1958091Y1552789D01*
D02*
G37*
G36*
X1970583Y1529210D02*
X1967917Y1526031D01*
X1967265Y1525102D01*
X1966732Y1524239D01*
X1966318Y1523440D01*
X1966021Y1522707D01*
X1965844Y1522040D01*
X1965784Y1521438D01*
X1963784Y1521386D01*
X1963724Y1522012D01*
X1963542Y1522692D01*
X1963238Y1523425D01*
X1962813Y1524211D01*
X1962267Y1525049D01*
X1961599Y1525941D01*
X1960809Y1526886D01*
X1958866Y1528934D01*
X1957713Y1530038D01*
X1971708Y1530401D01*
X1970583Y1529210D01*
D02*
G37*
G36*
X1984887Y1505789D02*
X1984867Y1505821D01*
X1984807Y1505850D01*
X1984707Y1505875D01*
X1984567Y1505897D01*
X1984387Y1505916D01*
X1983607Y1505951D01*
X1982887Y1505958D01*
Y1507958D01*
X1983267Y1507960D01*
X1984807Y1508067D01*
X1984867Y1508096D01*
X1984887Y1508128D01*
Y1505789D01*
D02*
G37*
G36*
Y1495789D02*
X1984867Y1495821D01*
X1984807Y1495850D01*
X1984707Y1495875D01*
X1984567Y1495897D01*
X1984387Y1495916D01*
X1983607Y1495951D01*
X1982887Y1495958D01*
Y1497958D01*
X1983267Y1497960D01*
X1984807Y1498067D01*
X1984867Y1498096D01*
X1984887Y1498128D01*
Y1495789D01*
D02*
G37*
G36*
X2019788Y1386278D02*
X2019825Y1385847D01*
X2019888Y1385468D01*
X2019975Y1385139D01*
X2020088Y1384861D01*
X2020225Y1384633D01*
X2020388Y1384456D01*
X2020575Y1384329D01*
X2020788Y1384253D01*
X2021025Y1384228D01*
X2016025D01*
X2016263Y1384253D01*
X2016475Y1384329D01*
X2016663Y1384456D01*
X2016825Y1384633D01*
X2016963Y1384861D01*
X2017075Y1385139D01*
X2017163Y1385468D01*
X2017225Y1385847D01*
X2017263Y1386278D01*
X2017275Y1386758D01*
X2019775D01*
X2019788Y1386278D01*
D02*
G37*
G36*
X2020881Y1533978D02*
X2020955Y1533128D01*
X2021078Y1532378D01*
X2021251Y1531728D01*
X2021474Y1531178D01*
X2021745Y1530728D01*
X2022066Y1530378D01*
X2022437Y1530128D01*
X2022856Y1529978D01*
X2023326Y1529928D01*
X2013387D01*
X2013856Y1529978D01*
X2014276Y1530128D01*
X2014646Y1530378D01*
X2014967Y1530728D01*
X2015239Y1531178D01*
X2015461Y1531728D01*
X2015634Y1532378D01*
X2015757Y1533128D01*
X2015831Y1533978D01*
X2015856Y1534928D01*
X2020856D01*
X2020881Y1533978D01*
D02*
G37*
G36*
X2023376Y1528983D02*
X2023526Y1528558D01*
X2023776Y1528183D01*
X2024126Y1527858D01*
X2024576Y1527583D01*
X2025126Y1527358D01*
X2025776Y1527183D01*
X2026526Y1527058D01*
X2027376Y1526983D01*
X2028326Y1526958D01*
Y1521958D01*
X2027376Y1521933D01*
X2026526Y1521858D01*
X2025776Y1521733D01*
X2025126Y1521558D01*
X2024576Y1521333D01*
X2024126Y1521058D01*
X2023776Y1520733D01*
X2023526Y1520358D01*
X2023376Y1519933D01*
X2023326Y1519458D01*
Y1529458D01*
X2023376Y1528983D01*
D02*
G37*
G36*
X2062417Y1518958D02*
X2062397Y1519148D01*
X2062336Y1519318D01*
X2062234Y1519468D01*
X2062092Y1519598D01*
X2061909Y1519708D01*
X2061686Y1519798D01*
X2061422Y1519868D01*
X2061118Y1519918D01*
X2060772Y1519948D01*
X2060387Y1519958D01*
Y1521958D01*
X2060772Y1521968D01*
X2061118Y1521998D01*
X2061422Y1522048D01*
X2061686Y1522118D01*
X2061909Y1522208D01*
X2062092Y1522318D01*
X2062234Y1522448D01*
X2062336Y1522598D01*
X2062397Y1522768D01*
X2062417Y1522958D01*
Y1518958D01*
D02*
G37*
G36*
X2018846Y1508096D02*
X2018906Y1508067D01*
X2019006Y1508041D01*
X2019146Y1508019D01*
X2019326Y1508000D01*
X2020106Y1507965D01*
X2020826Y1507958D01*
Y1505958D01*
X2020446Y1505956D01*
X2018906Y1505850D01*
X2018846Y1505821D01*
X2018826Y1505789D01*
Y1508128D01*
X2018846Y1508096D01*
D02*
G37*
G36*
Y1503095D02*
X2018906Y1503067D01*
X2019006Y1503041D01*
X2019146Y1503019D01*
X2019326Y1503000D01*
X2020106Y1502965D01*
X2020826Y1502958D01*
Y1500958D01*
X2020446Y1500956D01*
X2018906Y1500850D01*
X2018846Y1500821D01*
X2018826Y1500789D01*
Y1503128D01*
X2018846Y1503095D01*
D02*
G37*
G36*
Y1493096D02*
X2018906Y1493067D01*
X2019006Y1493041D01*
X2019146Y1493019D01*
X2019326Y1493000D01*
X2020106Y1492965D01*
X2020826Y1492958D01*
Y1490958D01*
X2020446Y1490957D01*
X2018906Y1490850D01*
X2018846Y1490821D01*
X2018826Y1490789D01*
Y1493128D01*
X2018846Y1493096D01*
D02*
G37*
G36*
Y1488095D02*
X2018906Y1488067D01*
X2019006Y1488041D01*
X2019146Y1488019D01*
X2019326Y1488000D01*
X2020106Y1487965D01*
X2020826Y1487958D01*
Y1485958D01*
X2020446Y1485956D01*
X2018906Y1485850D01*
X2018846Y1485821D01*
X2018826Y1485789D01*
Y1488128D01*
X2018846Y1488095D01*
D02*
G37*
G36*
X2024866Y1485272D02*
X2024943Y1484328D01*
X2025010Y1483899D01*
X2025096Y1483499D01*
X2025202Y1483127D01*
X2025327Y1482784D01*
X2025471Y1482470D01*
X2025634Y1482184D01*
X2025816Y1481927D01*
X2021896D01*
X2022078Y1482184D01*
X2022242Y1482470D01*
X2022386Y1482784D01*
X2022510Y1483127D01*
X2022616Y1483499D01*
X2022702Y1483899D01*
X2022770Y1484328D01*
X2022847Y1485272D01*
X2022856Y1485787D01*
X2024856D01*
X2024866Y1485272D01*
D02*
G37*
G36*
X2062417Y1470958D02*
X2062397Y1471148D01*
X2062336Y1471318D01*
X2062234Y1471468D01*
X2062092Y1471598D01*
X2061909Y1471708D01*
X2061686Y1471798D01*
X2061422Y1471868D01*
X2061118Y1471918D01*
X2060772Y1471948D01*
X2060387Y1471958D01*
Y1473958D01*
X2060772Y1473968D01*
X2061118Y1473998D01*
X2061422Y1474048D01*
X2061686Y1474118D01*
X2061909Y1474208D01*
X2062092Y1474318D01*
X2062234Y1474448D01*
X2062336Y1474598D01*
X2062397Y1474768D01*
X2062417Y1474958D01*
Y1470958D01*
D02*
G37*
G36*
X2022006Y1466723D02*
X2022081Y1465867D01*
X2022206Y1465113D01*
X2022381Y1464459D01*
X2022606Y1463906D01*
X2022881Y1463453D01*
X2023206Y1463101D01*
X2023581Y1462849D01*
X2024006Y1462698D01*
X2024481Y1462648D01*
X2014481D01*
X2014956Y1462698D01*
X2015381Y1462849D01*
X2015756Y1463101D01*
X2016081Y1463453D01*
X2016356Y1463906D01*
X2016581Y1464459D01*
X2016756Y1465113D01*
X2016881Y1465867D01*
X2016956Y1466723D01*
X2016981Y1467679D01*
X2021981D01*
X2022006Y1466723D01*
D02*
G37*
G36*
X2026751Y1459484D02*
X2026901Y1459059D01*
X2027151Y1458684D01*
X2027501Y1458359D01*
X2027951Y1458084D01*
X2028501Y1457859D01*
X2029151Y1457684D01*
X2029901Y1457559D01*
X2030751Y1457484D01*
X2031701Y1457459D01*
Y1452459D01*
X2030751Y1452434D01*
X2029901Y1452359D01*
X2029151Y1452234D01*
X2028501Y1452059D01*
X2027951Y1451834D01*
X2027501Y1451559D01*
X2027151Y1451234D01*
X2026901Y1450859D01*
X2026751Y1450434D01*
X2026701Y1449959D01*
Y1459959D01*
X2026751Y1459484D01*
D02*
G37*
G36*
X2118015Y1439270D02*
X2119857Y1437708D01*
X2120671Y1437140D01*
X2121414Y1436712D01*
X2122085Y1436427D01*
X2122685Y1436282D01*
X2123214Y1436279D01*
X2123672Y1436417D01*
X2124058Y1436697D01*
X2117017Y1429657D01*
X2117297Y1430043D01*
X2117435Y1430500D01*
X2117432Y1431029D01*
X2117288Y1431629D01*
X2117002Y1432301D01*
X2116575Y1433043D01*
X2116006Y1433858D01*
X2115296Y1434743D01*
X2113451Y1436728D01*
X2116987Y1440263D01*
X2118015Y1439270D01*
D02*
G37*
G36*
X2131643Y1428471D02*
X2131501Y1428011D01*
Y1427481D01*
X2131643Y1426880D01*
X2131926Y1426208D01*
X2132350Y1425466D01*
X2132916Y1424652D01*
X2133623Y1423768D01*
X2135461Y1421789D01*
X2131926Y1418253D01*
X2130900Y1419243D01*
X2129062Y1420799D01*
X2128249Y1421364D01*
X2127506Y1421789D01*
X2126835Y1422072D01*
X2126233Y1422213D01*
X2125703D01*
X2125244Y1422072D01*
X2124855Y1421789D01*
X2131926Y1428860D01*
X2131643Y1428471D01*
D02*
G37*
G36*
X2170881Y1362478D02*
X2170956Y1361628D01*
X2171081Y1360878D01*
X2171256Y1360228D01*
X2171481Y1359678D01*
X2171756Y1359228D01*
X2172081Y1358878D01*
X2172456Y1358628D01*
X2172881Y1358478D01*
X2173356Y1358428D01*
X2163356D01*
X2163831Y1358478D01*
X2164256Y1358628D01*
X2164631Y1358878D01*
X2164956Y1359228D01*
X2165231Y1359678D01*
X2165456Y1360228D01*
X2165631Y1360878D01*
X2165756Y1361628D01*
X2165831Y1362478D01*
X2165856Y1363428D01*
X2170856D01*
X2170881Y1362478D01*
D02*
G37*
G36*
X2162887Y1348489D02*
X2162837Y1348958D01*
X2162687Y1349378D01*
X2162437Y1349748D01*
X2162087Y1350069D01*
X2161637Y1350341D01*
X2161087Y1350563D01*
X2160437Y1350736D01*
X2159687Y1350859D01*
X2158837Y1350933D01*
X2157887Y1350958D01*
Y1355958D01*
X2158837Y1355983D01*
X2159687Y1356057D01*
X2160437Y1356180D01*
X2161087Y1356353D01*
X2161637Y1356575D01*
X2162087Y1356847D01*
X2162437Y1357168D01*
X2162687Y1357539D01*
X2162837Y1357958D01*
X2162887Y1358428D01*
Y1348489D01*
D02*
G37*
G36*
X2151126Y1357958D02*
X2151276Y1357539D01*
X2151526Y1357168D01*
X2151876Y1356847D01*
X2152326Y1356575D01*
X2152876Y1356353D01*
X2153526Y1356180D01*
X2154276Y1356057D01*
X2155126Y1355983D01*
X2156076Y1355958D01*
Y1350958D01*
X2155126Y1350933D01*
X2154276Y1350859D01*
X2153526Y1350736D01*
X2152876Y1350563D01*
X2152326Y1350341D01*
X2151876Y1350069D01*
X2151526Y1349748D01*
X2151276Y1349378D01*
X2151126Y1348958D01*
X2151076Y1348489D01*
Y1358428D01*
X2151126Y1357958D01*
D02*
G37*
G36*
X2140637Y1348489D02*
X2140587Y1348958D01*
X2140437Y1349378D01*
X2140187Y1349748D01*
X2139837Y1350069D01*
X2139387Y1350341D01*
X2138837Y1350563D01*
X2138187Y1350736D01*
X2137437Y1350859D01*
X2136587Y1350933D01*
X2135637Y1350958D01*
Y1355958D01*
X2136587Y1355983D01*
X2137437Y1356057D01*
X2138187Y1356180D01*
X2138837Y1356353D01*
X2139387Y1356575D01*
X2139837Y1356847D01*
X2140187Y1357168D01*
X2140437Y1357539D01*
X2140587Y1357958D01*
X2140637Y1358428D01*
Y1348489D01*
D02*
G37*
G36*
X2115050Y1341978D02*
X2115125Y1341128D01*
X2115250Y1340378D01*
X2115425Y1339728D01*
X2115650Y1339178D01*
X2115925Y1338728D01*
X2116250Y1338378D01*
X2116625Y1338128D01*
X2117050Y1337978D01*
X2117525Y1337928D01*
X2107525D01*
X2108000Y1337978D01*
X2108425Y1338128D01*
X2108800Y1338378D01*
X2109125Y1338728D01*
X2109400Y1339178D01*
X2109625Y1339728D01*
X2109800Y1340378D01*
X2109925Y1341128D01*
X2110000Y1341978D01*
X2110025Y1342928D01*
X2115025D01*
X2115050Y1341978D01*
D02*
G37*
G36*
X1984887Y1485789D02*
X1984867Y1485821D01*
X1984807Y1485850D01*
X1984707Y1485875D01*
X1984567Y1485897D01*
X1984387Y1485916D01*
X1983607Y1485951D01*
X1982887Y1485958D01*
Y1487958D01*
X1983267Y1487960D01*
X1984807Y1488067D01*
X1984867Y1488095D01*
X1984887Y1488128D01*
Y1485789D01*
D02*
G37*
G36*
X1968010Y1488768D02*
X1968071Y1488598D01*
X1968173Y1488448D01*
X1968315Y1488318D01*
X1968498Y1488208D01*
X1968721Y1488118D01*
X1968985Y1488048D01*
X1969290Y1487998D01*
X1969635Y1487968D01*
X1970021Y1487958D01*
Y1485958D01*
X1969635Y1485948D01*
X1969290Y1485918D01*
X1968985Y1485868D01*
X1968721Y1485798D01*
X1968498Y1485708D01*
X1968315Y1485598D01*
X1968173Y1485468D01*
X1968071Y1485318D01*
X1968010Y1485148D01*
X1967990Y1484958D01*
Y1488958D01*
X1968010Y1488768D01*
D02*
G37*
G36*
X1964611Y1481719D02*
X1964441Y1481659D01*
X1964291Y1481559D01*
X1964161Y1481419D01*
X1964051Y1481239D01*
X1963961Y1481019D01*
X1963891Y1480759D01*
X1963841Y1480459D01*
X1963811Y1480119D01*
X1963801Y1479739D01*
X1961801D01*
X1961791Y1480119D01*
X1961761Y1480459D01*
X1961711Y1480759D01*
X1961641Y1481019D01*
X1961551Y1481239D01*
X1961441Y1481419D01*
X1961311Y1481559D01*
X1961161Y1481659D01*
X1960991Y1481719D01*
X1960801Y1481739D01*
X1964801D01*
X1964611Y1481719D01*
D02*
G37*
G36*
X1963811Y1472294D02*
X1963841Y1471948D01*
X1963891Y1471644D01*
X1963961Y1471380D01*
X1964051Y1471156D01*
X1964161Y1470974D01*
X1964291Y1470832D01*
X1964441Y1470730D01*
X1964611Y1470669D01*
X1964801Y1470649D01*
X1960801D01*
X1960991Y1470669D01*
X1961161Y1470730D01*
X1961311Y1470832D01*
X1961441Y1470974D01*
X1961551Y1471156D01*
X1961641Y1471380D01*
X1961711Y1471644D01*
X1961761Y1471948D01*
X1961791Y1472294D01*
X1961801Y1472679D01*
X1963801D01*
X1963811Y1472294D01*
D02*
G37*
G36*
X1967326Y1447190D02*
X1966901Y1447040D01*
X1966526Y1446790D01*
X1966201Y1446440D01*
X1965926Y1445990D01*
X1965701Y1445440D01*
X1965526Y1444790D01*
X1965401Y1444040D01*
X1965326Y1443190D01*
X1965301Y1442240D01*
X1960301D01*
X1960276Y1443190D01*
X1960201Y1444040D01*
X1960076Y1444790D01*
X1959901Y1445440D01*
X1959676Y1445990D01*
X1959401Y1446440D01*
X1959076Y1446790D01*
X1958701Y1447040D01*
X1958276Y1447190D01*
X1957801Y1447240D01*
X1967801D01*
X1967326Y1447190D01*
D02*
G37*
G36*
X1985619Y1394968D02*
X1985406Y1394777D01*
X1985219Y1394554D01*
X1985056Y1394300D01*
X1984919Y1394014D01*
X1984806Y1393698D01*
X1984719Y1393349D01*
X1984656Y1392970D01*
X1984619Y1392559D01*
X1984606Y1392117D01*
X1982106D01*
X1982094Y1392559D01*
X1982056Y1392970D01*
X1981994Y1393349D01*
X1981906Y1393698D01*
X1981794Y1394014D01*
X1981656Y1394300D01*
X1981494Y1394554D01*
X1981306Y1394777D01*
X1981094Y1394968D01*
X1980856Y1395128D01*
X1985856D01*
X1985619Y1394968D01*
D02*
G37*
G36*
X1984619Y1386447D02*
X1984656Y1386017D01*
X1984719Y1385637D01*
X1984806Y1385308D01*
X1984919Y1385030D01*
X1985056Y1384802D01*
X1985219Y1384625D01*
X1985406Y1384498D01*
X1985619Y1384422D01*
X1985856Y1384397D01*
X1985198D01*
X1985219Y1384375D01*
X1985406Y1384248D01*
X1985619Y1384173D01*
X1985856Y1384147D01*
X1980856D01*
X1981094Y1384173D01*
X1981306Y1384248D01*
X1981494Y1384375D01*
X1981514Y1384397D01*
X1980856D01*
X1981094Y1384422D01*
X1981306Y1384498D01*
X1981494Y1384625D01*
X1981656Y1384802D01*
X1981794Y1385030D01*
X1981906Y1385308D01*
X1981994Y1385637D01*
X1982056Y1386017D01*
X1982094Y1386447D01*
X1982106Y1386928D01*
X1984606D01*
X1984619Y1386447D01*
D02*
G37*
G36*
X1987351Y1381551D02*
X1987426Y1381339D01*
X1987551Y1381151D01*
X1987726Y1380989D01*
X1987951Y1380851D01*
X1988226Y1380739D01*
X1988551Y1380651D01*
X1988926Y1380589D01*
X1989351Y1380551D01*
X1989826Y1380539D01*
Y1378039D01*
X1989351Y1378026D01*
X1988926Y1377989D01*
X1988551Y1377926D01*
X1988226Y1377839D01*
X1987951Y1377726D01*
X1987726Y1377589D01*
X1987551Y1377426D01*
X1987426Y1377239D01*
X1987351Y1377026D01*
X1987326Y1376789D01*
Y1377450D01*
X1987301Y1377426D01*
X1987176Y1377239D01*
X1987101Y1377026D01*
X1987076Y1376789D01*
Y1381789D01*
X1987101Y1381551D01*
X1987176Y1381339D01*
X1987301Y1381151D01*
X1987326Y1381128D01*
Y1381789D01*
X1987351Y1381551D01*
D02*
G37*
G36*
X1999586Y1376789D02*
X1999561Y1377026D01*
X1999485Y1377239D01*
X1999359Y1377426D01*
X1999182Y1377589D01*
X1998954Y1377726D01*
X1998675Y1377839D01*
X1998346Y1377926D01*
X1997967Y1377989D01*
X1997537Y1378026D01*
X1997056Y1378039D01*
Y1380539D01*
X1997537Y1380551D01*
X1997967Y1380589D01*
X1998346Y1380651D01*
X1998675Y1380739D01*
X1998954Y1380851D01*
X1999182Y1380989D01*
X1999359Y1381151D01*
X1999485Y1381339D01*
X1999561Y1381551D01*
X1999586Y1381789D01*
Y1376789D01*
D02*
G37*
G36*
X2005788Y1374324D02*
X2005575Y1374249D01*
X2005388Y1374122D01*
X2005225Y1373945D01*
X2005088Y1373717D01*
X2004975Y1373439D01*
X2004888Y1373110D01*
X2004825Y1372730D01*
X2004788Y1372300D01*
X2004775Y1371819D01*
X2002275D01*
X2002263Y1372300D01*
X2002225Y1372730D01*
X2002163Y1373110D01*
X2002075Y1373439D01*
X2001963Y1373717D01*
X2001825Y1373945D01*
X2001663Y1374122D01*
X2001475Y1374249D01*
X2001263Y1374324D01*
X2001025Y1374350D01*
X2006025D01*
X2005788Y1374324D01*
D02*
G37*
G36*
X2004788Y1364447D02*
X2004825Y1364017D01*
X2004888Y1363637D01*
X2004975Y1363308D01*
X2005088Y1363030D01*
X2005225Y1362802D01*
X2005388Y1362625D01*
X2005575Y1362498D01*
X2005788Y1362422D01*
X2006025Y1362397D01*
X2001025D01*
X2001263Y1362422D01*
X2001475Y1362498D01*
X2001663Y1362625D01*
X2001825Y1362802D01*
X2001963Y1363030D01*
X2002075Y1363308D01*
X2002163Y1363637D01*
X2002225Y1364017D01*
X2002263Y1364447D01*
X2002275Y1364928D01*
X2004775D01*
X2004788Y1364447D01*
D02*
G37*
G36*
X2147666Y1295499D02*
X2147496Y1295438D01*
X2147346Y1295336D01*
X2147216Y1295194D01*
X2147106Y1295011D01*
X2147016Y1294788D01*
X2146946Y1294524D01*
X2146896Y1294220D01*
X2146866Y1293874D01*
X2146856Y1293489D01*
X2144856D01*
X2144846Y1293874D01*
X2144816Y1294220D01*
X2144766Y1294524D01*
X2144696Y1294788D01*
X2144606Y1295011D01*
X2144496Y1295194D01*
X2144366Y1295336D01*
X2144216Y1295438D01*
X2144046Y1295499D01*
X2143856Y1295519D01*
X2147856D01*
X2147666Y1295499D01*
D02*
G37*
G36*
X2146871Y1289607D02*
X2146914Y1289303D01*
X2146987Y1289002D01*
X2147088Y1288703D01*
X2147219Y1288407D01*
X2147378Y1288113D01*
X2147567Y1287820D01*
X2147784Y1287531D01*
X2148031Y1287243D01*
X2148306Y1286958D01*
X2143406D01*
X2143682Y1287243D01*
X2143928Y1287531D01*
X2144146Y1287820D01*
X2144334Y1288113D01*
X2144494Y1288407D01*
X2144624Y1288703D01*
X2144726Y1289002D01*
X2144798Y1289303D01*
X2144842Y1289607D01*
X2144856Y1289912D01*
X2146856D01*
X2146871Y1289607D01*
D02*
G37*
G36*
X2075788Y1191494D02*
X2075575Y1191418D01*
X2075388Y1191291D01*
X2075225Y1191114D01*
X2075088Y1190887D01*
X2074975Y1190608D01*
X2074888Y1190279D01*
X2074825Y1189900D01*
X2074788Y1189469D01*
X2074775Y1188989D01*
X2072275D01*
X2072263Y1189469D01*
X2072225Y1189900D01*
X2072163Y1190279D01*
X2072075Y1190608D01*
X2071963Y1190887D01*
X2071825Y1191114D01*
X2071663Y1191291D01*
X2071475Y1191418D01*
X2071263Y1191494D01*
X2071025Y1191519D01*
X2076025D01*
X2075788Y1191494D01*
D02*
G37*
G36*
X2065788D02*
X2065575Y1191418D01*
X2065388Y1191291D01*
X2065225Y1191114D01*
X2065088Y1190887D01*
X2064975Y1190608D01*
X2064888Y1190279D01*
X2064825Y1189900D01*
X2064788Y1189469D01*
X2064775Y1188989D01*
X2062275D01*
X2062263Y1189469D01*
X2062225Y1189900D01*
X2062163Y1190279D01*
X2062075Y1190608D01*
X2061963Y1190887D01*
X2061825Y1191114D01*
X2061663Y1191291D01*
X2061475Y1191418D01*
X2061263Y1191494D01*
X2061025Y1191519D01*
X2066025D01*
X2065788Y1191494D01*
D02*
G37*
G36*
X2055788D02*
X2055575Y1191418D01*
X2055388Y1191291D01*
X2055225Y1191114D01*
X2055088Y1190887D01*
X2054975Y1190608D01*
X2054888Y1190279D01*
X2054825Y1189900D01*
X2054788Y1189469D01*
X2054775Y1188989D01*
X2052275D01*
X2052263Y1189469D01*
X2052225Y1189900D01*
X2052163Y1190279D01*
X2052075Y1190608D01*
X2051963Y1190887D01*
X2051825Y1191114D01*
X2051663Y1191291D01*
X2051475Y1191418D01*
X2051263Y1191494D01*
X2051025Y1191519D01*
X2056025D01*
X2055788Y1191494D01*
D02*
G37*
G36*
X2045788D02*
X2045575Y1191418D01*
X2045388Y1191291D01*
X2045225Y1191114D01*
X2045088Y1190887D01*
X2044975Y1190608D01*
X2044888Y1190279D01*
X2044825Y1189900D01*
X2044788Y1189469D01*
X2044775Y1188989D01*
X2042275D01*
X2042263Y1189469D01*
X2042225Y1189900D01*
X2042163Y1190279D01*
X2042075Y1190608D01*
X2041963Y1190887D01*
X2041825Y1191114D01*
X2041663Y1191291D01*
X2041475Y1191418D01*
X2041263Y1191494D01*
X2041025Y1191519D01*
X2046025D01*
X2045788Y1191494D01*
D02*
G37*
G36*
X2074788Y1178857D02*
X2074825Y1178446D01*
X2074888Y1178067D01*
X2074975Y1177719D01*
X2075088Y1177402D01*
X2075225Y1177116D01*
X2075388Y1176862D01*
X2075575Y1176640D01*
X2075788Y1176448D01*
X2076025Y1176288D01*
X2071025D01*
X2071263Y1176448D01*
X2071475Y1176640D01*
X2071663Y1176862D01*
X2071825Y1177116D01*
X2071963Y1177402D01*
X2072075Y1177719D01*
X2072163Y1178067D01*
X2072225Y1178446D01*
X2072263Y1178857D01*
X2072275Y1179299D01*
X2074775D01*
X2074788Y1178857D01*
D02*
G37*
G36*
X2054788D02*
X2054825Y1178446D01*
X2054888Y1178067D01*
X2054975Y1177719D01*
X2055088Y1177402D01*
X2055225Y1177116D01*
X2055388Y1176862D01*
X2055575Y1176640D01*
X2055788Y1176448D01*
X2056025Y1176288D01*
X2051025D01*
X2051263Y1176448D01*
X2051475Y1176640D01*
X2051663Y1176862D01*
X2051825Y1177116D01*
X2051963Y1177402D01*
X2052075Y1177719D01*
X2052163Y1178067D01*
X2052225Y1178446D01*
X2052263Y1178857D01*
X2052275Y1179299D01*
X2054775D01*
X2054788Y1178857D01*
D02*
G37*
G36*
X2044788Y1159444D02*
X2044825Y1159033D01*
X2044888Y1158653D01*
X2044975Y1158305D01*
X2045088Y1157989D01*
X2045225Y1157703D01*
X2045388Y1157449D01*
X2045575Y1157226D01*
X2045788Y1157035D01*
X2046025Y1156875D01*
X2041025D01*
X2041263Y1157035D01*
X2041475Y1157226D01*
X2041663Y1157449D01*
X2041825Y1157703D01*
X2041963Y1157989D01*
X2042075Y1158305D01*
X2042163Y1158653D01*
X2042225Y1159033D01*
X2042263Y1159444D01*
X2042275Y1159886D01*
X2044775D01*
X2044788Y1159444D01*
D02*
G37*
G36*
X2064788Y1159026D02*
X2064825Y1158616D01*
X2064888Y1158236D01*
X2064975Y1157888D01*
X2065088Y1157571D01*
X2065225Y1157286D01*
X2065388Y1157032D01*
X2065575Y1156809D01*
X2065788Y1156618D01*
X2066025Y1156458D01*
X2061025D01*
X2061263Y1156618D01*
X2061475Y1156809D01*
X2061663Y1157032D01*
X2061825Y1157286D01*
X2061963Y1157571D01*
X2062075Y1157888D01*
X2062163Y1158236D01*
X2062225Y1158616D01*
X2062263Y1159026D01*
X2062275Y1159469D01*
X2064775D01*
X2064788Y1159026D01*
D02*
G37*
D12*
X1983356Y1379458D02*
X1983525Y1379289D01*
X2003525D01*
X1930606Y1339289D02*
X1945437Y1324458D01*
X1964525D01*
X1998161Y1416029D02*
X2018525Y1395664D01*
Y1379289D02*
Y1395664D01*
X2003525Y1353458D02*
Y1379289D01*
X1910734Y1369358D02*
X1930606Y1349486D01*
Y1339289D02*
Y1349486D01*
X2042939Y1151958D02*
X2043525Y1152545D01*
Y1200458D01*
X1960281Y1416029D02*
X1998161D01*
X1945856Y1430454D02*
Y1544089D01*
Y1430454D02*
X1960281Y1416029D01*
X1964125Y1562358D02*
X1964525Y1562758D01*
X1945856Y1544089D02*
X1964125Y1562358D01*
X2048256Y1415632D02*
Y1429258D01*
X2073656Y1414158D02*
Y1429258D01*
X1964525Y1254458D02*
X1996038D01*
X1964525Y1244458D02*
X1986856D01*
X2053525Y1171958D02*
Y1200458D01*
X2063356Y1151958D02*
X2063525Y1152127D01*
Y1200458D01*
X2073525Y1171958D02*
Y1200458D01*
X2093356Y1304458D02*
X2093356Y1304458D01*
X2112525D01*
X2145856Y1314458D02*
X2168356D01*
X2112525D02*
X2145856D01*
X2093356Y1334458D02*
Y1394458D01*
X2073656Y1414158D02*
X2093356Y1394458D01*
X1964525Y1294458D02*
X2053356D01*
X2093356Y1334458D01*
X2048256Y1415632D02*
X2085856Y1378032D01*
Y1339208D02*
Y1378032D01*
X2051106Y1304458D02*
X2085856Y1339208D01*
X1964525Y1304458D02*
X2051106D01*
X2085856Y1314458D02*
X2112525D01*
X1910734Y1264458D02*
X1964525D01*
X1910734Y1289858D02*
X1926134Y1274458D01*
X1964525D01*
X1983356Y1379458D02*
Y1399458D01*
X1910734Y1394758D02*
X1964525Y1340967D01*
Y1334458D02*
Y1340967D01*
D13*
X2015856Y1506958D02*
X2026555D01*
X2032780Y1513183D01*
Y1513335D01*
X2015856Y1486958D02*
X2022684D01*
X2023856Y1480376D02*
Y1485787D01*
X2022684Y1486958D02*
X2023856Y1485787D01*
X1964525Y1150687D02*
Y1224458D01*
X1963714Y1149875D02*
X1964525Y1150687D01*
X1978556Y1500736D02*
X1982334Y1496958D01*
X1987856D01*
X1978356Y1506958D02*
X1987856D01*
X1978556Y1500736D02*
Y1506758D01*
X1964785Y1520530D02*
X1978556Y1506758D01*
X1964785Y1520530D02*
Y1537099D01*
X1964525Y1537358D02*
X1964785Y1537099D01*
X2013481Y1601958D02*
Y1616208D01*
X2145856Y1284458D02*
Y1299458D01*
X2048775Y1472958D02*
X2072356D01*
X2029774Y1491958D02*
X2048775Y1472958D01*
X2015856Y1491958D02*
X2029774D01*
X2029181Y1501958D02*
X2048181Y1520958D01*
X2072356D01*
X2015856Y1501958D02*
X2029181D01*
X1962801Y1486958D02*
X1987856D01*
X1962801Y1465460D02*
Y1486958D01*
D43*
X2072356Y1520958D02*
D03*
Y1472958D02*
D03*
D44*
X2096356Y1496958D02*
D03*
X2048356D02*
D03*
D45*
X2015856Y1486958D02*
D03*
Y1491958D02*
D03*
Y1496958D02*
D03*
Y1501958D02*
D03*
Y1506958D02*
D03*
X1987856D02*
D03*
Y1501958D02*
D03*
Y1496958D02*
D03*
Y1491958D02*
D03*
Y1486958D02*
D03*
D46*
X2001856Y1496958D02*
D03*
D47*
X1999356Y1482458D02*
D03*
X2004356D02*
D03*
X1999356Y1511458D02*
D03*
X2004356D02*
D03*
D48*
X2000481Y1454959D02*
D03*
X2019481D02*
D03*
D49*
X2018356Y1524458D02*
D03*
X2003856D02*
D03*
D50*
X1962801Y1499958D02*
D03*
Y1486958D02*
D03*
Y1465460D02*
D03*
Y1452460D02*
D03*
D51*
X2043525Y1152545D02*
D03*
X2053525Y1171958D02*
D03*
X2063525Y1152127D02*
D03*
X2073525Y1171958D02*
D03*
X1983356Y1399458D02*
D03*
D52*
X1968106Y1379208D02*
D03*
X1983106D02*
D03*
X2003525Y1379289D02*
D03*
X2018525D02*
D03*
D53*
X2168356Y1296458D02*
D03*
Y1314458D02*
D03*
X2145856Y1335458D02*
D03*
Y1353458D02*
D03*
D54*
Y1299458D02*
D03*
Y1314458D02*
D03*
D55*
X2000481Y1616208D02*
D03*
X2006981D02*
D03*
X2013481D02*
D03*
X1993981D02*
D03*
X1987481D02*
D03*
D56*
X2010106Y1646958D02*
D03*
X1990856D02*
D03*
D57*
X1964525Y1150687D02*
D03*
X1991195D02*
D03*
X1937855D02*
D03*
D58*
X2003525Y1353458D02*
D03*
X2013525D02*
D03*
X2023525D02*
D03*
X2033525D02*
D03*
X2043525D02*
D03*
X2053525D02*
D03*
X2063525D02*
D03*
X2073525D02*
D03*
Y1200458D02*
D03*
X2063525D02*
D03*
X2053525D02*
D03*
X2043525D02*
D03*
D59*
X2112525Y1334458D02*
D03*
Y1324458D02*
D03*
Y1314458D02*
D03*
Y1304458D02*
D03*
Y1294458D02*
D03*
Y1244458D02*
D03*
Y1234458D02*
D03*
Y1224458D02*
D03*
X1964525Y1334458D02*
D03*
Y1324458D02*
D03*
Y1314458D02*
D03*
Y1304458D02*
D03*
Y1294458D02*
D03*
Y1284458D02*
D03*
Y1274458D02*
D03*
Y1264458D02*
D03*
Y1254458D02*
D03*
Y1244458D02*
D03*
Y1234458D02*
D03*
Y1224458D02*
D03*
D60*
X2168356Y1353458D02*
D03*
Y1338958D02*
D03*
D61*
X2032780Y1513335D02*
X2032856Y1513411D01*
Y1521529D01*
X2018356Y1524458D02*
X2029927D01*
X2032856Y1521529D01*
X2019481Y1476001D02*
X2023856Y1480376D01*
X2018356Y1523958D02*
Y1537136D01*
X2112525Y1334458D02*
Y1350086D01*
X2113856Y1351417D01*
X2145856Y1353458D02*
X2168356D01*
X2115454D02*
X2145856D01*
X2113856Y1351417D02*
Y1351958D01*
X2112525Y1350529D02*
X2115454Y1353458D01*
X2124456Y1429258D02*
X2168356Y1385358D01*
X2098755Y1454959D02*
X2124456Y1429258D01*
X2018284Y1537208D02*
X2018356Y1537136D01*
X2013481Y1562758D02*
X2164315D01*
X1964525D02*
X2013481D01*
X1916176Y1562358D02*
X1964125D01*
X2013481Y1562758D02*
Y1601958D01*
X2019481Y1454959D02*
X2098755D01*
X2168356Y1353458D02*
Y1385358D01*
X2019481Y1454959D02*
Y1476001D01*
X1962801Y1439458D02*
Y1452460D01*
D62*
X1971481Y1614158D02*
D03*
X2029481D02*
D03*
D63*
X1910734Y1343958D02*
D03*
Y1369358D02*
D03*
Y1394758D02*
D03*
X1916176Y1537358D02*
D03*
Y1562358D02*
D03*
X2048256Y1429258D02*
D03*
X2073656D02*
D03*
X2099056D02*
D03*
D64*
X1910734Y1420158D02*
D03*
X1916176Y1587358D02*
D03*
D65*
X1964525Y1537358D02*
D03*
D66*
Y1562758D02*
D03*
D67*
X2124456Y1429258D02*
D03*
D68*
X1910734Y1315258D02*
D03*
Y1289858D02*
D03*
Y1264458D02*
D03*
Y1239058D02*
D03*
Y1213658D02*
D03*
D69*
X1973231Y1644458D02*
D03*
X2027731D02*
D03*
D70*
X1976231Y1614158D02*
D03*
X2024731D02*
D03*
D71*
X2164315Y1582758D02*
D03*
D72*
Y1562758D02*
D03*
D73*
X2113856Y1351958D02*
D03*
X2018284Y1537208D02*
D03*
X2145856Y1284458D02*
D03*
X1962801Y1439458D02*
D03*
X1996038Y1254458D02*
D03*
X1986856Y1244458D02*
D03*
X2093356Y1304458D02*
D03*
X2085856Y1314458D02*
D03*
M02*
