G04*
G04 #@! TF.GenerationSoftware,Altium Limited,Altium Designer,20.2.7 (254)*
G04*
G04 Layer_Color=255*
%FSLAX44Y44*%
%MOMM*%
G71*
G04*
G04 #@! TF.SameCoordinates,376ED358-1AEA-4EEA-9480-C934229D8A07*
G04*
G04*
G04 #@! TF.FilePolarity,Positive*
G04*
G01*
G75*
%ADD43R,2.0000X1.1000*%
%ADD44R,1.1000X2.0000*%
%ADD45R,0.6000X0.2400*%
%ADD46R,1.6500X2.4000*%
%ADD47R,0.2500X0.6000*%
%ADD48R,1.4500X1.5500*%
%ADD49R,1.0000X1.1000*%
%ADD50R,1.0500X1.0500*%
%ADD51C,1.0000*%
%ADD52R,0.8000X1.0000*%
%ADD53R,1.0500X1.0000*%
%ADD54R,1.0000X0.8000*%
%ADD55R,0.4000X1.7500*%
%ADD56R,1.4250X2.5000*%
%ADD57R,1.5000X4.5000*%
%ADD58R,0.7000X1.8000*%
%ADD59R,1.8000X0.7000*%
%ADD60R,1.1000X1.0000*%
%ADD63C,1.5000*%
%ADD64R,1.5000X1.5000*%
%ADD65C,2.0000*%
%ADD66R,2.0000X2.0000*%
%ADD67R,1.5000X1.5000*%
%ADD68C,1.8000*%
%ADD69O,1.2000X1.7000*%
%ADD70O,1.0000X1.4000*%
%ADD71C,1.2000*%
%ADD72R,1.2000X1.2000*%
D43*
X2072356Y1520958D02*
D03*
Y1472958D02*
D03*
D44*
X2096356Y1496958D02*
D03*
X2048356D02*
D03*
D45*
X2015856Y1486958D02*
D03*
Y1491958D02*
D03*
Y1496958D02*
D03*
Y1501958D02*
D03*
Y1506958D02*
D03*
X1987856D02*
D03*
Y1501958D02*
D03*
Y1496958D02*
D03*
Y1491958D02*
D03*
Y1486958D02*
D03*
D46*
X2001856Y1496958D02*
D03*
D47*
X1999356Y1482458D02*
D03*
X2004356D02*
D03*
X1999356Y1511458D02*
D03*
X2004356D02*
D03*
D48*
X2000481Y1454959D02*
D03*
X2019481D02*
D03*
D49*
X2018356Y1524458D02*
D03*
X2003856D02*
D03*
D50*
X1962801Y1499958D02*
D03*
Y1486958D02*
D03*
Y1465460D02*
D03*
Y1452460D02*
D03*
D51*
X2043525Y1152545D02*
D03*
X2053525Y1171958D02*
D03*
X2063525Y1152127D02*
D03*
X2073525Y1171958D02*
D03*
X1983356Y1399458D02*
D03*
D52*
X1968106Y1379208D02*
D03*
X1983106D02*
D03*
X2003525Y1379289D02*
D03*
X2018525D02*
D03*
D53*
X2168356Y1296458D02*
D03*
Y1314458D02*
D03*
X2145856Y1335458D02*
D03*
Y1353458D02*
D03*
D54*
Y1299458D02*
D03*
Y1314458D02*
D03*
D55*
X2000481Y1616208D02*
D03*
X2006981D02*
D03*
X2013481D02*
D03*
X1993981D02*
D03*
X1987481D02*
D03*
D56*
X2010106Y1646958D02*
D03*
X1990856D02*
D03*
D57*
X1964525Y1150687D02*
D03*
X1991195D02*
D03*
X1937855D02*
D03*
D58*
X2003525Y1353458D02*
D03*
X2013525D02*
D03*
X2023525D02*
D03*
X2033525D02*
D03*
X2043525D02*
D03*
X2053525D02*
D03*
X2063525D02*
D03*
X2073525D02*
D03*
Y1200458D02*
D03*
X2063525D02*
D03*
X2053525D02*
D03*
X2043525D02*
D03*
D59*
X2112525Y1334458D02*
D03*
Y1324458D02*
D03*
Y1314458D02*
D03*
Y1304458D02*
D03*
Y1294458D02*
D03*
Y1244458D02*
D03*
Y1234458D02*
D03*
Y1224458D02*
D03*
X1964525Y1334458D02*
D03*
Y1324458D02*
D03*
Y1314458D02*
D03*
Y1304458D02*
D03*
Y1294458D02*
D03*
Y1284458D02*
D03*
Y1274458D02*
D03*
Y1264458D02*
D03*
Y1254458D02*
D03*
Y1244458D02*
D03*
Y1234458D02*
D03*
Y1224458D02*
D03*
D60*
X2168356Y1353458D02*
D03*
Y1338958D02*
D03*
D63*
X1910734Y1343958D02*
D03*
Y1369358D02*
D03*
Y1394758D02*
D03*
X1916176Y1537358D02*
D03*
Y1562358D02*
D03*
X2048256Y1429258D02*
D03*
X2073656D02*
D03*
X2099056D02*
D03*
D64*
X1910734Y1420158D02*
D03*
X1916176Y1587358D02*
D03*
D65*
X1964525Y1537358D02*
D03*
D66*
Y1562758D02*
D03*
D67*
X2124456Y1429258D02*
D03*
D68*
X1910734Y1315258D02*
D03*
Y1289858D02*
D03*
Y1264458D02*
D03*
Y1239058D02*
D03*
Y1213658D02*
D03*
D69*
X1973231Y1644458D02*
D03*
X2027731D02*
D03*
D70*
X1976231Y1614158D02*
D03*
X2024731D02*
D03*
D71*
X2164315Y1582758D02*
D03*
D72*
Y1562758D02*
D03*
M02*
