G04*
G04 #@! TF.GenerationSoftware,Altium Limited,Altium Designer,20.2.7 (254)*
G04*
G04 Layer_Color=65535*
%FSLAX44Y44*%
%MOMM*%
G71*
G04*
G04 #@! TF.SameCoordinates,376ED358-1AEA-4EEA-9480-C934229D8A07*
G04*
G04*
G04 #@! TF.FilePolarity,Positive*
G04*
G01*
G75*
%ADD10C,0.2540*%
%ADD11C,0.1000*%
%ADD12C,0.2500*%
%ADD13C,0.2000*%
D10*
X2073626Y1532518D02*
G03*
X2073626Y1532518I-1270J0D01*
G01*
D11*
X2021914Y1486290D02*
G03*
X2020914Y1486290I-500J0D01*
G01*
D02*
G03*
X2021914Y1486290I500J0D01*
G01*
X2050766Y1481718D02*
X2057116Y1475368D01*
X2086326Y1474098D02*
X2093946Y1481718D01*
X2087596Y1518548D02*
X2093946Y1512198D01*
X2050766D02*
X2057116Y1518548D01*
X2009476Y1481958D02*
X2016856D01*
Y1482734D01*
X1986856Y1481958D02*
X1994490D01*
X1986856D02*
Y1482734D01*
Y1510928D02*
Y1511958D01*
X1994744D01*
X2016856Y1510928D02*
Y1511958D01*
X2008968D02*
X2016856D01*
X1932854Y1346457D02*
X1931605Y1347707D01*
X1929106D01*
X1927856Y1346457D01*
Y1341459D01*
X1929106Y1340209D01*
X1931605D01*
X1932854Y1341459D01*
Y1343958D01*
X1930355D01*
X1935354Y1340209D02*
Y1347707D01*
X1940352Y1340209D01*
Y1347707D01*
X1942851D02*
Y1340209D01*
X1946600D01*
X1947850Y1341459D01*
Y1346457D01*
X1946600Y1347707D01*
X1942851D01*
X1927856Y1420158D02*
X1932854D01*
X1930355Y1422657D02*
Y1417659D01*
X1935354Y1423907D02*
Y1418909D01*
X1937853Y1416409D01*
X1940352Y1418909D01*
Y1423907D01*
X1910857Y1628624D02*
X1910024Y1629457D01*
X1908358D01*
X1907525Y1628624D01*
Y1627791D01*
X1908358Y1626958D01*
X1910024D01*
X1910857Y1626125D01*
Y1625292D01*
X1910024Y1624459D01*
X1908358D01*
X1907525Y1625292D01*
X1912523Y1629457D02*
Y1624459D01*
X1914189Y1626125D01*
X1915855Y1624459D01*
Y1629457D01*
X1917521Y1624459D02*
X1919188D01*
X1918354D01*
Y1629457D01*
X1917521Y1628624D01*
X1926856Y1373207D02*
X1931855D01*
X1929355D01*
Y1365709D01*
X1934354Y1373207D02*
X1939352Y1365709D01*
Y1373207D02*
X1934354Y1365709D01*
X1927856Y1390918D02*
Y1398416D01*
X1931605D01*
X1932854Y1397166D01*
Y1394667D01*
X1931605Y1393418D01*
X1927856D01*
X1930355D02*
X1932854Y1390918D01*
X1935354Y1398416D02*
X1940352Y1390918D01*
Y1398416D02*
X1935354Y1390918D01*
X1931855Y1216157D02*
X1930605Y1217407D01*
X1928106D01*
X1926856Y1216157D01*
Y1211159D01*
X1928106Y1209909D01*
X1930605D01*
X1931855Y1211159D01*
Y1213658D01*
X1929355D01*
X1934354Y1209909D02*
Y1217407D01*
X1939352Y1209909D01*
Y1217407D01*
X1941851D02*
Y1209909D01*
X1945600D01*
X1946850Y1211159D01*
Y1216157D01*
X1945600Y1217407D01*
X1941851D01*
X1926856Y1235709D02*
Y1243207D01*
X1930605D01*
X1931855Y1241957D01*
Y1239458D01*
X1930605Y1238208D01*
X1926856D01*
X1929355D02*
X1931855Y1235709D01*
X1939352Y1241957D02*
X1938103Y1243207D01*
X1935603D01*
X1934354Y1241957D01*
Y1240708D01*
X1935603Y1239458D01*
X1938103D01*
X1939352Y1238208D01*
Y1236959D01*
X1938103Y1235709D01*
X1935603D01*
X1934354Y1236959D01*
X1941851Y1243207D02*
X1946850D01*
X1944350D01*
Y1235709D01*
X1931855Y1266957D02*
X1930605Y1268207D01*
X1928106D01*
X1926856Y1266957D01*
Y1261959D01*
X1928106Y1260709D01*
X1930605D01*
X1931855Y1261959D01*
X1934354Y1268207D02*
Y1260709D01*
X1939352D01*
X1941851Y1268207D02*
Y1260709D01*
Y1263209D01*
X1946850Y1268207D01*
X1943101Y1264458D01*
X1946850Y1260709D01*
X1926856Y1293607D02*
Y1286109D01*
X1930605D01*
X1931855Y1287359D01*
Y1292357D01*
X1930605Y1293607D01*
X1926856D01*
X1934354D02*
X1936853D01*
X1935603D01*
Y1286109D01*
X1934354D01*
X1936853D01*
X1944350Y1293607D02*
X1941851D01*
X1940602Y1292357D01*
Y1287359D01*
X1941851Y1286109D01*
X1944350D01*
X1945600Y1287359D01*
Y1292357D01*
X1944350Y1293607D01*
X1926856Y1315458D02*
X1931855D01*
X1929355Y1317957D02*
Y1312959D01*
X1934354Y1319207D02*
Y1314209D01*
X1936853Y1311709D01*
X1939352Y1314209D01*
Y1319207D01*
X1958859Y1584665D02*
X1962191Y1579667D01*
Y1584665D02*
X1958859Y1579667D01*
X1963857Y1584665D02*
X1967189D01*
X1965523D01*
Y1579667D01*
X1968855D02*
X1970522D01*
X1969689D01*
Y1584665D01*
X1968855Y1583832D01*
X1904675Y1441957D02*
X1908007Y1436959D01*
Y1441957D02*
X1904675Y1436959D01*
X1909673D02*
Y1441957D01*
X1912173D01*
X1913006Y1441124D01*
Y1439458D01*
X1912173Y1438625D01*
X1909673D01*
X1918004Y1436959D02*
X1914672D01*
X1918004Y1440291D01*
Y1441124D01*
X1917171Y1441957D01*
X1915505D01*
X1914672Y1441124D01*
X1917171Y1191959D02*
X1913839Y1196957D01*
Y1191959D02*
X1917171Y1196957D01*
X1912173D02*
Y1191959D01*
X1909673D01*
X1908840Y1192792D01*
Y1194458D01*
X1909673Y1195291D01*
X1912173D01*
X1907174Y1196957D02*
X1905508D01*
X1906341D01*
Y1191959D01*
X1907174Y1192792D01*
X2140389Y1614596D02*
X2143721Y1609598D01*
Y1614596D02*
X2140389Y1609598D01*
X2145388Y1613763D02*
X2146221Y1614596D01*
X2147887D01*
X2148720Y1613763D01*
Y1612930D01*
X2147887Y1612097D01*
X2147054D01*
X2147887D01*
X2148720Y1611264D01*
Y1610431D01*
X2147887Y1609598D01*
X2146221D01*
X2145388Y1610431D01*
X2150386Y1612097D02*
X2153718D01*
X2155384Y1609598D02*
X2157050D01*
X2156217D01*
Y1614596D01*
X2155384Y1613763D01*
X1950732Y1612293D02*
X1955730Y1615625D01*
X1950732D02*
X1955730Y1612293D01*
Y1620623D02*
Y1617291D01*
X1952398Y1620623D01*
X1951565D01*
X1950732Y1619790D01*
Y1618124D01*
X1951565Y1617291D01*
X1917026Y1132355D02*
X1922025Y1135687D01*
X1917026D02*
X1922025Y1132355D01*
Y1137353D02*
Y1139019D01*
Y1138186D01*
X1917026D01*
X1917859Y1137353D01*
X1976878Y1418945D02*
Y1415612D01*
X1978544Y1413946D01*
X1980210Y1415612D01*
Y1418945D01*
X1981876D02*
Y1413946D01*
X1984376D01*
X1985209Y1414779D01*
Y1415612D01*
X1984376Y1416445D01*
X1981876D01*
X1984376D01*
X1985209Y1417278D01*
Y1418111D01*
X1984376Y1418945D01*
X1981876D01*
X1986875Y1413946D02*
Y1417278D01*
X1988541Y1418945D01*
X1990207Y1417278D01*
Y1413946D01*
Y1416445D01*
X1986875D01*
X1991873Y1418945D02*
X1995205D01*
X1993539D01*
Y1413946D01*
X1996871Y1413113D02*
X2000204D01*
X2001870Y1413946D02*
Y1417278D01*
X2003536Y1418945D01*
X2005202Y1417278D01*
Y1413946D01*
Y1416445D01*
X2001870D01*
X2006868Y1418945D02*
Y1413946D01*
X2009367D01*
X2010200Y1414779D01*
Y1418111D01*
X2009367Y1418945D01*
X2006868D01*
X2015199Y1418111D02*
X2014366Y1418945D01*
X2012700D01*
X2011867Y1418111D01*
Y1414779D01*
X2012700Y1413946D01*
X2014366D01*
X2015199Y1414779D01*
X2014860Y1174041D02*
X2014027Y1174874D01*
X2012361D01*
X2011528Y1174041D01*
Y1173208D01*
X2012361Y1172375D01*
X2014027D01*
X2014860Y1171542D01*
Y1170709D01*
X2014027Y1169875D01*
X2012361D01*
X2011528Y1170709D01*
X2016526Y1169875D02*
Y1174874D01*
X2019026D01*
X2019859Y1174041D01*
Y1172375D01*
X2019026Y1171542D01*
X2016526D01*
X2021525Y1174874D02*
X2023191D01*
X2022358D01*
Y1169875D01*
X2021525D01*
X2023191D01*
X2025690D02*
X2027356D01*
X2026523D01*
Y1174874D01*
X2025690Y1174041D01*
X2029855Y1169042D02*
X2033188D01*
X2038186Y1174041D02*
X2037353Y1174874D01*
X2035687D01*
X2034854Y1174041D01*
Y1173208D01*
X2035687Y1172375D01*
X2037353D01*
X2038186Y1171542D01*
Y1170709D01*
X2037353Y1169875D01*
X2035687D01*
X2034854Y1170709D01*
X2042351Y1174874D02*
X2040685D01*
X2039852Y1174041D01*
Y1170709D01*
X2040685Y1169875D01*
X2042351D01*
X2043184Y1170709D01*
Y1174041D01*
X2042351Y1174874D01*
X2007280Y1154628D02*
X2006447Y1155461D01*
X2004781D01*
X2003948Y1154628D01*
Y1153794D01*
X2004781Y1152961D01*
X2006447D01*
X2007280Y1152128D01*
Y1151295D01*
X2006447Y1150462D01*
X2004781D01*
X2003948Y1151295D01*
X2008946Y1150462D02*
Y1155461D01*
X2011445D01*
X2012278Y1154628D01*
Y1152961D01*
X2011445Y1152128D01*
X2008946D01*
X2013944Y1155461D02*
X2015611D01*
X2014778D01*
Y1150462D01*
X2013944D01*
X2015611D01*
X2018110D02*
X2019776D01*
X2018943D01*
Y1155461D01*
X2018110Y1154628D01*
X2022275Y1149629D02*
X2025607D01*
X2030606Y1154628D02*
X2029773Y1155461D01*
X2028107D01*
X2027273Y1154628D01*
Y1153794D01*
X2028107Y1152961D01*
X2029773D01*
X2030606Y1152128D01*
Y1151295D01*
X2029773Y1150462D01*
X2028107D01*
X2027273Y1151295D01*
X2032272Y1155461D02*
X2033938D01*
X2033105D01*
Y1150462D01*
X2032272D01*
X2033938D01*
X2085860Y1174041D02*
X2085027Y1174874D01*
X2083361D01*
X2082528Y1174041D01*
Y1173208D01*
X2083361Y1172375D01*
X2085027D01*
X2085860Y1171542D01*
Y1170709D01*
X2085027Y1169875D01*
X2083361D01*
X2082528Y1170709D01*
X2087526Y1169875D02*
Y1174874D01*
X2090025D01*
X2090859Y1174041D01*
Y1172375D01*
X2090025Y1171542D01*
X2087526D01*
X2092525Y1174874D02*
X2094191D01*
X2093358D01*
Y1169875D01*
X2092525D01*
X2094191D01*
X2096690D02*
X2098356D01*
X2097523D01*
Y1174874D01*
X2096690Y1174041D01*
X2100855Y1169042D02*
X2104188D01*
X2109186Y1174041D02*
X2108353Y1174874D01*
X2106687D01*
X2105854Y1174041D01*
Y1170709D01*
X2106687Y1169875D01*
X2108353D01*
X2109186Y1170709D01*
X2114184Y1174041D02*
X2113351Y1174874D01*
X2111685D01*
X2110852Y1174041D01*
Y1173208D01*
X2111685Y1172375D01*
X2113351D01*
X2114184Y1171542D01*
Y1170709D01*
X2113351Y1169875D01*
X2111685D01*
X2110852Y1170709D01*
X2078530Y1154210D02*
X2077697Y1155043D01*
X2076031D01*
X2075198Y1154210D01*
Y1153377D01*
X2076031Y1152544D01*
X2077697D01*
X2078530Y1151711D01*
Y1150878D01*
X2077697Y1150045D01*
X2076031D01*
X2075198Y1150878D01*
X2080196Y1150045D02*
Y1155043D01*
X2082696D01*
X2083529Y1154210D01*
Y1152544D01*
X2082696Y1151711D01*
X2080196D01*
X2085195Y1155043D02*
X2086861D01*
X2086028D01*
Y1150045D01*
X2085195D01*
X2086861D01*
X2089360D02*
X2091026D01*
X2090193D01*
Y1155043D01*
X2089360Y1154210D01*
X2093526Y1149212D02*
X2096858D01*
X2101856Y1154210D02*
X2101023Y1155043D01*
X2099357D01*
X2098524Y1154210D01*
Y1150878D01*
X2099357Y1150045D01*
X2101023D01*
X2101856Y1150878D01*
X2103522Y1155043D02*
Y1150045D01*
X2106854D01*
X2108521Y1155043D02*
Y1150045D01*
Y1151711D01*
X2111853Y1155043D01*
X2109354Y1152544D01*
X2111853Y1150045D01*
X1942180Y1498959D02*
Y1503957D01*
X1944679D01*
X1945512Y1503124D01*
Y1501458D01*
X1944679Y1500625D01*
X1942180D01*
X1943846D02*
X1945512Y1498959D01*
X1950511Y1503957D02*
X1948845Y1503124D01*
X1947178Y1501458D01*
Y1499792D01*
X1948011Y1498959D01*
X1949678D01*
X1950511Y1499792D01*
Y1500625D01*
X1949678Y1501458D01*
X1947178D01*
X1941891Y1462961D02*
Y1467959D01*
X1944390D01*
X1945223Y1467126D01*
Y1465460D01*
X1944390Y1464627D01*
X1941891D01*
X1943557D02*
X1945223Y1462961D01*
X1950221Y1467959D02*
X1946889D01*
Y1465460D01*
X1948555Y1466293D01*
X1949388D01*
X1950221Y1465460D01*
Y1463794D01*
X1949388Y1462961D01*
X1947722D01*
X1946889Y1463794D01*
X1963464Y1392426D02*
Y1397424D01*
X1965963D01*
X1966796Y1396591D01*
Y1394925D01*
X1965963Y1394092D01*
X1963464D01*
X1965130D02*
X1966796Y1392426D01*
X1970962D02*
Y1397424D01*
X1968462Y1394925D01*
X1971795D01*
X1999943Y1391999D02*
Y1396997D01*
X2002442D01*
X2003275Y1396164D01*
Y1394498D01*
X2002442Y1393665D01*
X1999943D01*
X2001609D02*
X2003275Y1391999D01*
X2004942Y1396164D02*
X2005775Y1396997D01*
X2007441D01*
X2008274Y1396164D01*
Y1395331D01*
X2007441Y1394498D01*
X2006608D01*
X2007441D01*
X2008274Y1393665D01*
Y1392832D01*
X2007441Y1391999D01*
X2005775D01*
X2004942Y1392832D01*
X2125524Y1292209D02*
Y1297207D01*
X2128023D01*
X2128856Y1296374D01*
Y1294708D01*
X2128023Y1293875D01*
X2125524D01*
X2127190D02*
X2128856Y1292209D01*
X2130522D02*
X2132188D01*
X2131355D01*
Y1297207D01*
X2130522Y1296374D01*
X2045024Y1525457D02*
Y1520459D01*
X2048356D01*
X2050022D02*
X2051688D01*
X2050855D01*
Y1525457D01*
X2050022Y1524624D01*
X1969192Y1354457D02*
Y1349459D01*
X1971691D01*
X1972524Y1350292D01*
Y1353624D01*
X1971691Y1354457D01*
X1969192D01*
X1974190D02*
Y1349459D01*
X1976689D01*
X1977522Y1350292D01*
Y1353624D01*
X1976689Y1354457D01*
X1974190D01*
X1982521Y1349459D02*
X1979188D01*
X1982521Y1352791D01*
Y1353624D01*
X1981688Y1354457D01*
X1980021D01*
X1979188Y1353624D01*
X2021687Y1473209D02*
Y1478207D01*
X2019188D01*
X2018355Y1477374D01*
Y1474042D01*
X2019188Y1473209D01*
X2021687D01*
X2016689Y1478207D02*
Y1474875D01*
X2015023Y1473209D01*
X2013357Y1474875D01*
Y1478207D01*
Y1475708D01*
X2016689D01*
X2011691Y1478207D02*
X2010025D01*
X2010858D01*
Y1473209D01*
X2011691Y1474042D01*
X1985273Y1526124D02*
X1984440Y1526957D01*
X1982774D01*
X1981941Y1526124D01*
Y1522792D01*
X1982774Y1521959D01*
X1984440D01*
X1985273Y1522792D01*
X1990271Y1526957D02*
X1986939D01*
Y1524458D01*
X1988605Y1525291D01*
X1989438D01*
X1990271Y1524458D01*
Y1522792D01*
X1989438Y1521959D01*
X1987772D01*
X1986939Y1522792D01*
X1982023Y1456625D02*
X1981190Y1457458D01*
X1979524D01*
X1978691Y1456625D01*
Y1453293D01*
X1979524Y1452460D01*
X1981190D01*
X1982023Y1453293D01*
X1986188Y1452460D02*
Y1457458D01*
X1983689Y1454959D01*
X1987021D01*
X2182523Y1297374D02*
X2181690Y1298207D01*
X2180024D01*
X2179191Y1297374D01*
Y1294042D01*
X2180024Y1293209D01*
X2181690D01*
X2182523Y1294042D01*
X2184189Y1297374D02*
X2185022Y1298207D01*
X2186688D01*
X2187521Y1297374D01*
Y1296541D01*
X2186688Y1295708D01*
X2185855D01*
X2186688D01*
X2187521Y1294875D01*
Y1294042D01*
X2186688Y1293209D01*
X2185022D01*
X2184189Y1294042D01*
X2161876Y1373582D02*
X2161043Y1374415D01*
X2159377D01*
X2158544Y1373582D01*
Y1370250D01*
X2159377Y1369417D01*
X2161043D01*
X2161876Y1370250D01*
X2166875Y1369417D02*
X2163542D01*
X2166875Y1372749D01*
Y1373582D01*
X2166042Y1374415D01*
X2164375D01*
X2163542Y1373582D01*
X2141904Y1371302D02*
X2141071Y1372135D01*
X2139405D01*
X2138572Y1371302D01*
Y1367970D01*
X2139405Y1367137D01*
X2141071D01*
X2141904Y1367970D01*
X2143570Y1367137D02*
X2145237D01*
X2144403D01*
Y1372135D01*
X2143570Y1371302D01*
D12*
X1943926Y1587358D02*
G03*
X1943926Y1587358I-1250J0D01*
G01*
X2014731Y1601958D02*
G03*
X2014731Y1601958I-1250J0D01*
G01*
X2143075Y1562598D02*
G03*
X2143075Y1562598I-1250J0D01*
G01*
D13*
X1896176Y1620358D02*
X1936176D01*
X1896176Y1504358D02*
Y1620358D01*
Y1504358D02*
X1936176D01*
Y1620358D01*
X2164106Y1304958D02*
Y1305958D01*
X2172606Y1304958D02*
Y1305958D01*
X2141606Y1343958D02*
Y1344958D01*
X2150106Y1343958D02*
Y1344958D01*
X2040681Y1634958D02*
Y1672658D01*
Y1651330D02*
Y1672658D01*
X1960281D02*
X2040681D01*
X1960281Y1634958D02*
Y1672658D01*
X2146905Y1543258D02*
X2192625D01*
X2146905D02*
Y1553258D01*
X2192625Y1543258D02*
Y1602260D01*
X2146905D02*
X2192625D01*
X2146905Y1592258D02*
Y1602260D01*
M02*
