G04*
G04 #@! TF.GenerationSoftware,Altium Limited,Altium Designer,20.2.7 (254)*
G04*
G04 Layer_Physical_Order=2*
G04 Layer_Color=16711680*
%FSLAX44Y44*%
%MOMM*%
G71*
G04*
G04 #@! TF.SameCoordinates,376ED358-1AEA-4EEA-9480-C934229D8A07*
G04*
G04*
G04 #@! TF.FilePolarity,Positive*
G04*
G01*
G75*
%ADD12C,0.2500*%
%ADD13C,0.2000*%
%ADD51C,1.0000*%
%ADD61C,0.5000*%
%ADD63C,1.5000*%
%ADD64R,1.5000X1.5000*%
%ADD65C,2.0000*%
%ADD66R,2.0000X2.0000*%
%ADD67R,1.5000X1.5000*%
%ADD68C,1.8000*%
%ADD69O,1.2000X1.7000*%
%ADD70O,1.0000X1.4000*%
%ADD71C,1.2000*%
%ADD72R,1.2000X1.2000*%
%ADD73C,0.7000*%
%ADD74R,0.4000X0.4000*%
%ADD75R,0.4000X1.0500*%
G36*
X2118015Y1439270D02*
X2119857Y1437708D01*
X2120671Y1437140D01*
X2121414Y1436712D01*
X2122085Y1436427D01*
X2122685Y1436282D01*
X2123214Y1436279D01*
X2123672Y1436417D01*
X2124058Y1436697D01*
X2117017Y1429657D01*
X2117297Y1430043D01*
X2117435Y1430500D01*
X2117432Y1431029D01*
X2117288Y1431629D01*
X2117002Y1432301D01*
X2116575Y1433043D01*
X2116006Y1433858D01*
X2115296Y1434743D01*
X2113451Y1436728D01*
X2116987Y1440263D01*
X2118015Y1439270D01*
D02*
G37*
G36*
X2193356Y1126958D02*
X1898356D01*
Y1209570D01*
X1900356Y1209968D01*
X1901125Y1208111D01*
X1902889Y1205813D01*
X1905187Y1204050D01*
X1907862Y1202941D01*
X1909464Y1202730D01*
Y1213658D01*
Y1224586D01*
X1907862Y1224375D01*
X1905187Y1223267D01*
X1902889Y1221503D01*
X1901125Y1219206D01*
X1900356Y1217348D01*
X1898356Y1217746D01*
Y1234970D01*
X1900356Y1235368D01*
X1901125Y1233511D01*
X1902889Y1231213D01*
X1905187Y1229450D01*
X1907862Y1228341D01*
X1910734Y1227963D01*
X1913606Y1228341D01*
X1916281Y1229450D01*
X1918579Y1231213D01*
X1920343Y1233511D01*
X1921451Y1236187D01*
X1921829Y1239058D01*
X1921774Y1239471D01*
X1921780Y1240447D01*
X1921916Y1242751D01*
X1922036Y1243690D01*
X1922192Y1244530D01*
X1922376Y1245247D01*
X1922580Y1245836D01*
X1922792Y1246295D01*
X1922998Y1246627D01*
X1923050Y1246687D01*
X1987507Y1311145D01*
X2080819D01*
X2080838Y1311142D01*
X2080991Y1311113D01*
X2081131Y1311074D01*
X2081264Y1311025D01*
X2081391Y1310966D01*
X2081516Y1310894D01*
X2081641Y1310807D01*
X2081728Y1310737D01*
X2081891Y1310493D01*
X2083710Y1309277D01*
X2085856Y1308850D01*
X2087488Y1309175D01*
X2088681Y1307828D01*
X2088810Y1307554D01*
X2088175Y1306604D01*
X2087748Y1304458D01*
X2088175Y1302312D01*
X2089391Y1300493D01*
X2091210Y1299277D01*
X2093356Y1298850D01*
X2095502Y1299277D01*
X2097321Y1300493D01*
X2097484Y1300737D01*
X2097571Y1300807D01*
X2097697Y1300894D01*
X2097822Y1300966D01*
X2097948Y1301025D01*
X2098081Y1301074D01*
X2098221Y1301113D01*
X2098374Y1301142D01*
X2098393Y1301145D01*
X2100736D01*
Y1296958D01*
X2100891Y1296178D01*
X2101333Y1295516D01*
X2101995Y1295074D01*
X2102775Y1294919D01*
X2106792D01*
Y1288997D01*
X2102606D01*
X2101826Y1288842D01*
X2101164Y1288400D01*
X2100722Y1287738D01*
X2100567Y1286958D01*
Y1269708D01*
X2100722Y1268928D01*
X2101164Y1268266D01*
X2101826Y1267824D01*
X2102606Y1267669D01*
X2105856Y1267669D01*
X2106047Y1267707D01*
X2108032Y1267708D01*
X2108836D01*
Y1274958D01*
X2111376D01*
Y1267708D01*
X2114106D01*
Y1267708D01*
X2114106Y1267708D01*
X2114165Y1267707D01*
X2114356Y1267669D01*
X2117606Y1267669D01*
X2118386Y1267824D01*
X2119048Y1268266D01*
X2119048Y1268266D01*
X2119490Y1268928D01*
X2119645Y1269708D01*
Y1286958D01*
X2119490Y1287738D01*
X2119048Y1288400D01*
X2118387Y1288842D01*
X2117606Y1288997D01*
X2113420D01*
Y1294919D01*
X2117775D01*
X2118556Y1295074D01*
X2119217Y1295516D01*
X2119659Y1296178D01*
X2119815Y1296958D01*
Y1314208D01*
X2119659Y1314989D01*
X2119217Y1315650D01*
X2118556Y1316092D01*
X2117775Y1316247D01*
X2115334Y1316247D01*
X2113403Y1317702D01*
X2113334Y1317791D01*
Y1320941D01*
X2116019Y1323626D01*
X2116019Y1323626D01*
X2116682Y1324618D01*
X2116915Y1325789D01*
Y1341960D01*
X2118763Y1342726D01*
X2142797Y1318691D01*
Y1289717D01*
X2142793Y1289688D01*
X2142765Y1289570D01*
X2142722Y1289443D01*
X2142661Y1289305D01*
X2142578Y1289153D01*
X2142471Y1288987D01*
X2142337Y1288807D01*
X2142173Y1288616D01*
X2142161Y1288604D01*
X2141891Y1288423D01*
X2140675Y1286604D01*
X2140248Y1284458D01*
X2140675Y1282312D01*
X2141891Y1280493D01*
X2143710Y1279277D01*
X2145856Y1278850D01*
X2148002Y1279277D01*
X2149821Y1280493D01*
X2151037Y1282312D01*
X2151464Y1284458D01*
X2151037Y1286604D01*
X2149821Y1288423D01*
X2149551Y1288604D01*
X2149539Y1288616D01*
X2149376Y1288807D01*
X2149241Y1288987D01*
X2149134Y1289153D01*
X2149051Y1289305D01*
X2148990Y1289443D01*
X2148947Y1289570D01*
X2148919Y1289688D01*
X2148915Y1289717D01*
Y1319958D01*
X2148682Y1321129D01*
X2148019Y1322121D01*
X2119737Y1350403D01*
X2119720Y1350426D01*
X2119657Y1350529D01*
X2119598Y1350649D01*
X2119543Y1350790D01*
X2119493Y1350957D01*
X2119452Y1351149D01*
X2119420Y1351371D01*
X2119401Y1351623D01*
X2119400Y1351639D01*
X2119464Y1351958D01*
X2119037Y1354104D01*
X2117821Y1355923D01*
X2116002Y1357139D01*
X2113856Y1357566D01*
X2111710Y1357139D01*
X2109891Y1355923D01*
X2108675Y1354104D01*
X2108248Y1351958D01*
X2108675Y1349812D01*
X2109891Y1347993D01*
X2110161Y1347812D01*
X2110173Y1347800D01*
X2110336Y1347609D01*
X2110471Y1347429D01*
X2110578Y1347264D01*
X2110661Y1347112D01*
X2110722Y1346973D01*
X2110765Y1346846D01*
X2110793Y1346728D01*
X2110797Y1346700D01*
Y1327056D01*
X2108112Y1324371D01*
X2107449Y1323379D01*
X2107217Y1322208D01*
X2107217Y1322208D01*
Y1317791D01*
X2107148Y1317702D01*
X2105217Y1316247D01*
X2102775Y1316247D01*
X2101995Y1316092D01*
X2101333Y1315650D01*
X2101333Y1315650D01*
X2100891Y1314989D01*
X2100736Y1314208D01*
Y1307772D01*
X2098393D01*
X2098374Y1307774D01*
X2098221Y1307803D01*
X2098081Y1307842D01*
X2097949Y1307891D01*
X2097821Y1307951D01*
X2097697Y1308022D01*
X2097571Y1308109D01*
X2097484Y1308179D01*
X2097321Y1308423D01*
X2095502Y1309639D01*
X2093356Y1310066D01*
X2091725Y1309741D01*
X2090531Y1311088D01*
X2090402Y1311362D01*
X2091037Y1312312D01*
X2091464Y1314458D01*
X2091037Y1316604D01*
X2089821Y1318423D01*
X2088002Y1319639D01*
X2085856Y1320066D01*
X2083710Y1319639D01*
X2081891Y1318423D01*
X2081728Y1318179D01*
X2081642Y1318109D01*
X2081516Y1318022D01*
X2081391Y1317951D01*
X2081264Y1317891D01*
X2081131Y1317842D01*
X2080991Y1317803D01*
X2080838Y1317774D01*
X2080819Y1317772D01*
X1986134D01*
X1984866Y1317520D01*
X1983791Y1316801D01*
X1918363Y1251374D01*
X1918303Y1251322D01*
X1917971Y1251116D01*
X1917512Y1250904D01*
X1916923Y1250700D01*
X1916206Y1250516D01*
X1915366Y1250360D01*
X1914427Y1250240D01*
X1912123Y1250104D01*
X1911147Y1250099D01*
X1910734Y1250153D01*
X1907862Y1249775D01*
X1905187Y1248667D01*
X1902889Y1246903D01*
X1901125Y1244606D01*
X1900356Y1242748D01*
X1898356Y1243146D01*
Y1260370D01*
X1900356Y1260768D01*
X1901125Y1258911D01*
X1902889Y1256613D01*
X1905187Y1254850D01*
X1907862Y1253741D01*
X1910734Y1253363D01*
X1913606Y1253741D01*
X1916281Y1254850D01*
X1918579Y1256613D01*
X1920343Y1258911D01*
X1921451Y1261587D01*
X1921829Y1264458D01*
X1921451Y1267330D01*
X1920343Y1270006D01*
X1918579Y1272303D01*
X1916281Y1274067D01*
X1913606Y1275175D01*
X1910734Y1275553D01*
X1907862Y1275175D01*
X1905187Y1274067D01*
X1902889Y1272303D01*
X1901125Y1270006D01*
X1900356Y1268148D01*
X1898356Y1268546D01*
Y1285770D01*
X1900356Y1286168D01*
X1901125Y1284311D01*
X1902889Y1282013D01*
X1905187Y1280250D01*
X1907862Y1279141D01*
X1910734Y1278763D01*
X1913606Y1279141D01*
X1916281Y1280250D01*
X1918579Y1282013D01*
X1920343Y1284311D01*
X1921451Y1286987D01*
X1921829Y1289858D01*
X1921451Y1292730D01*
X1920343Y1295406D01*
X1918579Y1297703D01*
X1916281Y1299467D01*
X1913606Y1300575D01*
X1910734Y1300953D01*
X1907862Y1300575D01*
X1905187Y1299467D01*
X1902889Y1297703D01*
X1901125Y1295406D01*
X1900356Y1293548D01*
X1898356Y1293946D01*
Y1311170D01*
X1900356Y1311568D01*
X1901125Y1309711D01*
X1902889Y1307413D01*
X1905187Y1305650D01*
X1907862Y1304541D01*
X1910734Y1304163D01*
X1913606Y1304541D01*
X1916281Y1305650D01*
X1918579Y1307413D01*
X1920343Y1309711D01*
X1921451Y1312387D01*
X1921829Y1315258D01*
X1921778Y1315645D01*
X1921789Y1316294D01*
X1921853Y1317158D01*
X1921964Y1317959D01*
X1922120Y1318699D01*
X1922317Y1319379D01*
X1922554Y1319999D01*
X1922828Y1320565D01*
X1923139Y1321080D01*
X1923414Y1321449D01*
X1931600Y1329636D01*
X1932595Y1331125D01*
X1932944Y1332880D01*
Y1402536D01*
X1932595Y1404292D01*
X1931600Y1405780D01*
X1923811Y1413570D01*
X1924639Y1415570D01*
X1943501D01*
X1945257Y1415919D01*
X1946745Y1416914D01*
X1963901Y1434069D01*
X1964947Y1434277D01*
X1966766Y1435493D01*
X1967982Y1437312D01*
X1968190Y1438358D01*
X1969002Y1439171D01*
X2042351D01*
X2042963Y1437171D01*
X2041481Y1436034D01*
X2039958Y1434049D01*
X2039001Y1431738D01*
X2038674Y1429258D01*
X2039001Y1426778D01*
X2039958Y1424467D01*
X2041481Y1422483D01*
X2043465Y1420960D01*
X2045776Y1420003D01*
X2048256Y1419676D01*
X2050736Y1420003D01*
X2053047Y1420960D01*
X2055032Y1422483D01*
X2056554Y1424467D01*
X2057512Y1426778D01*
X2057838Y1429258D01*
X2057512Y1431738D01*
X2056554Y1434049D01*
X2055032Y1436034D01*
X2053550Y1437171D01*
X2054161Y1439171D01*
X2067751D01*
X2068363Y1437171D01*
X2066881Y1436034D01*
X2065358Y1434049D01*
X2064401Y1431738D01*
X2064074Y1429258D01*
X2064401Y1426778D01*
X2065358Y1424467D01*
X2066881Y1422483D01*
X2068865Y1420960D01*
X2071176Y1420003D01*
X2073656Y1419676D01*
X2076136Y1420003D01*
X2078447Y1420960D01*
X2080432Y1422483D01*
X2081954Y1424467D01*
X2082912Y1426778D01*
X2083238Y1429258D01*
X2082912Y1431738D01*
X2081954Y1434049D01*
X2080432Y1436034D01*
X2078950Y1437171D01*
X2079561Y1439171D01*
X2093151D01*
X2093763Y1437171D01*
X2092281Y1436034D01*
X2090758Y1434049D01*
X2089801Y1431738D01*
X2089641Y1430528D01*
X2099056D01*
X2108471D01*
X2108312Y1431738D01*
X2107354Y1434049D01*
X2105832Y1436034D01*
X2104350Y1437171D01*
X2104961Y1439171D01*
X2108055D01*
X2112894Y1434332D01*
X2113751Y1433409D01*
X2114373Y1432634D01*
X2114852Y1431949D01*
X2114956Y1431767D01*
Y1419758D01*
X2133956D01*
Y1438758D01*
X2121947D01*
X2121765Y1438863D01*
X2121103Y1439325D01*
X2119622Y1440581D01*
X2113200Y1447003D01*
X2111711Y1447998D01*
X2109955Y1448347D01*
X1967102D01*
X1965346Y1447998D01*
X1963858Y1447003D01*
X1961701Y1444847D01*
X1960655Y1444639D01*
X1958836Y1443423D01*
X1957620Y1441604D01*
X1957412Y1440558D01*
X1941601Y1424746D01*
X1922064D01*
X1921649Y1424783D01*
X1921069Y1424879D01*
X1920634Y1424995D01*
X1920350Y1425111D01*
X1920234Y1425181D01*
Y1429658D01*
X1901234D01*
Y1410658D01*
X1911089D01*
X1911132Y1410650D01*
X1911176Y1410658D01*
X1913227D01*
X1913436Y1410539D01*
X1914096Y1410080D01*
X1915576Y1408828D01*
X1923768Y1400636D01*
Y1334781D01*
X1916925Y1327938D01*
X1916556Y1327664D01*
X1916041Y1327352D01*
X1915475Y1327078D01*
X1914854Y1326841D01*
X1914175Y1326644D01*
X1913435Y1326488D01*
X1912634Y1326377D01*
X1911770Y1326313D01*
X1911120Y1326302D01*
X1910734Y1326353D01*
X1907862Y1325975D01*
X1905187Y1324867D01*
X1902889Y1323103D01*
X1901125Y1320806D01*
X1900356Y1318948D01*
X1898356Y1319346D01*
Y1659458D01*
X2193356D01*
Y1126958D01*
D02*
G37*
G36*
X1918223Y1424683D02*
X1918374Y1424258D01*
X1918626Y1423883D01*
X1918978Y1423558D01*
X1919431Y1423283D01*
X1919984Y1423058D01*
X1920638Y1422883D01*
X1921393Y1422758D01*
X1922248Y1422683D01*
X1923203Y1422658D01*
Y1417658D01*
X1922248Y1417633D01*
X1921393Y1417558D01*
X1920638Y1417433D01*
X1919984Y1417258D01*
X1919431Y1417033D01*
X1918978Y1416758D01*
X1918626Y1416433D01*
X1918606Y1416404D01*
X1918628Y1416366D01*
X1919193Y1415552D01*
X1919901Y1414668D01*
X1921739Y1412689D01*
X1918203Y1409153D01*
X1917178Y1410143D01*
X1915340Y1411699D01*
X1914527Y1412264D01*
X1913784Y1412689D01*
X1913112Y1412971D01*
X1912511Y1413113D01*
X1911981D01*
X1911521Y1412971D01*
X1911132Y1412689D01*
X1918173Y1419729D01*
Y1425158D01*
X1918223Y1424683D01*
D02*
G37*
G36*
X2117363Y1351526D02*
X2117392Y1351149D01*
X2117443Y1350790D01*
X2117516Y1350450D01*
X2117612Y1350129D01*
X2117729Y1349827D01*
X2117869Y1349544D01*
X2118030Y1349280D01*
X2118214Y1349035D01*
X2118420Y1348809D01*
X2117006Y1347394D01*
X2116779Y1347600D01*
X2116534Y1347784D01*
X2116270Y1347946D01*
X2115987Y1348085D01*
X2115685Y1348203D01*
X2115373Y1348295D01*
X2115219Y1348009D01*
X2115088Y1347713D01*
X2114987Y1347414D01*
X2114914Y1347113D01*
X2114871Y1346810D01*
X2114856Y1346504D01*
X2112856D01*
X2112842Y1346810D01*
X2112798Y1347113D01*
X2112726Y1347414D01*
X2112624Y1347713D01*
X2112494Y1348009D01*
X2112334Y1348304D01*
X2112146Y1348596D01*
X2111928Y1348886D01*
X2111682Y1349173D01*
X2111406Y1349459D01*
X2114892D01*
X2117356Y1351923D01*
X2117363Y1351526D01*
D02*
G37*
G36*
X1922434Y1323422D02*
X1921911Y1322846D01*
X1921445Y1322218D01*
X1921034Y1321539D01*
X1920680Y1320809D01*
X1920382Y1320027D01*
X1920140Y1319194D01*
X1919954Y1318310D01*
X1919825Y1317374D01*
X1919751Y1316387D01*
X1919733Y1315348D01*
X1910824Y1324258D01*
X1911862Y1324275D01*
X1912850Y1324349D01*
X1913785Y1324478D01*
X1914670Y1324664D01*
X1915503Y1324906D01*
X1916285Y1325204D01*
X1917015Y1325558D01*
X1917694Y1325969D01*
X1918322Y1326435D01*
X1918898Y1326958D01*
X1922434Y1323422D01*
D02*
G37*
G36*
X2111285Y1315798D02*
X2111314Y1315458D01*
X2111363Y1315158D01*
X2111431Y1314898D01*
X2111518Y1314678D01*
X2111624Y1314498D01*
X2111750Y1314358D01*
X2111896Y1314258D01*
X2112061Y1314198D01*
X2112245Y1314178D01*
X2108306D01*
X2108490Y1314198D01*
X2108655Y1314258D01*
X2108800Y1314358D01*
X2108926Y1314498D01*
X2109033Y1314678D01*
X2109120Y1314898D01*
X2109188Y1315158D01*
X2109237Y1315458D01*
X2109266Y1315798D01*
X2109275Y1316178D01*
X2111275D01*
X2111285Y1315798D01*
D02*
G37*
G36*
X2083357Y1312008D02*
X2083116Y1312236D01*
X2082865Y1312440D01*
X2082604Y1312620D01*
X2082333Y1312776D01*
X2082051Y1312908D01*
X2081759Y1313016D01*
X2081456Y1313100D01*
X2081144Y1313160D01*
X2080820Y1313196D01*
X2080487Y1313208D01*
Y1315708D01*
X2080820Y1315720D01*
X2081144Y1315756D01*
X2081456Y1315816D01*
X2081759Y1315900D01*
X2082051Y1316008D01*
X2082333Y1316140D01*
X2082604Y1316296D01*
X2082865Y1316476D01*
X2083116Y1316680D01*
X2083357Y1316908D01*
Y1312008D01*
D02*
G37*
G36*
X2096096Y1306680D02*
X2096347Y1306476D01*
X2096608Y1306296D01*
X2096879Y1306140D01*
X2097161Y1306008D01*
X2097453Y1305900D01*
X2097756Y1305816D01*
X2098069Y1305756D01*
X2098392Y1305720D01*
X2098725Y1305708D01*
Y1303208D01*
X2098392Y1303196D01*
X2098069Y1303160D01*
X2097756Y1303100D01*
X2097453Y1303016D01*
X2097161Y1302908D01*
X2096879Y1302776D01*
X2096608Y1302620D01*
X2096347Y1302440D01*
X2096096Y1302236D01*
X2095856Y1302008D01*
Y1306908D01*
X2096096Y1306680D01*
D02*
G37*
G36*
X2106025Y1314208D02*
Y1301458D01*
X2114525Y1301458D01*
Y1314208D01*
X2117775Y1314208D01*
Y1296958D01*
X2111755D01*
X2111676Y1296839D01*
X2111578Y1296614D01*
X2111498Y1296339D01*
X2111436Y1296014D01*
X2111392Y1295639D01*
X2111365Y1295214D01*
X2111356Y1294739D01*
X2108856D01*
X2108851Y1295214D01*
X2108768Y1296339D01*
X2108719Y1296614D01*
X2108658Y1296839D01*
X2108609Y1296958D01*
X2102775D01*
Y1314208D01*
X2106025Y1314208D01*
D02*
G37*
G36*
X2146871Y1289607D02*
X2146914Y1289303D01*
X2146987Y1289002D01*
X2147088Y1288703D01*
X2147219Y1288407D01*
X2147378Y1288113D01*
X2147567Y1287820D01*
X2147784Y1287531D01*
X2148031Y1287243D01*
X2148306Y1286958D01*
X2143406D01*
X2143682Y1287243D01*
X2143928Y1287531D01*
X2144146Y1287820D01*
X2144334Y1288113D01*
X2144494Y1288407D01*
X2144624Y1288703D01*
X2144726Y1289002D01*
X2144798Y1289303D01*
X2144842Y1289607D01*
X2144856Y1289912D01*
X2146856D01*
X2146871Y1289607D01*
D02*
G37*
G36*
X2111363Y1288703D02*
X2111421Y1287903D01*
X2111471Y1287578D01*
X2111536Y1287303D01*
X2111615Y1287078D01*
X2111679Y1286958D01*
X2117606D01*
Y1269708D01*
X2114356Y1269708D01*
Y1282458D01*
X2105856Y1282458D01*
Y1269708D01*
X2102606Y1269708D01*
Y1286958D01*
X2108533D01*
X2108597Y1287078D01*
X2108676Y1287303D01*
X2108741Y1287578D01*
X2108791Y1287903D01*
X2108827Y1288278D01*
X2108856Y1289178D01*
X2111356D01*
X2111363Y1288703D01*
D02*
G37*
G36*
X1921738Y1248295D02*
X1921345Y1247830D01*
X1920994Y1247265D01*
X1920686Y1246600D01*
X1920421Y1245835D01*
X1920199Y1244970D01*
X1920020Y1244006D01*
X1919884Y1242941D01*
X1919741Y1240512D01*
X1919733Y1239148D01*
X1910824Y1248058D01*
X1912188Y1248065D01*
X1914617Y1248208D01*
X1915682Y1248344D01*
X1916646Y1248524D01*
X1917511Y1248746D01*
X1918276Y1249010D01*
X1918941Y1249318D01*
X1919506Y1249669D01*
X1919971Y1250063D01*
X1921738Y1248295D01*
D02*
G37*
%LPC*%
G36*
X2029001Y1654860D02*
Y1645728D01*
X2035800D01*
Y1646958D01*
X2035525Y1649047D01*
X2034719Y1650993D01*
X2033437Y1652664D01*
X2031766Y1653946D01*
X2029819Y1654752D01*
X2029001Y1654860D01*
D02*
G37*
G36*
X2026461D02*
X2025643Y1654752D01*
X2023697Y1653946D01*
X2022025Y1652664D01*
X2020743Y1650993D01*
X2019937Y1649047D01*
X2019662Y1646958D01*
Y1645728D01*
X2026461D01*
Y1654860D01*
D02*
G37*
G36*
X1974501D02*
Y1645728D01*
X1981300D01*
Y1646958D01*
X1981025Y1649047D01*
X1980219Y1650993D01*
X1978937Y1652664D01*
X1977266Y1653946D01*
X1975320Y1654752D01*
X1974501Y1654860D01*
D02*
G37*
G36*
X1971961D02*
X1971143Y1654752D01*
X1969197Y1653946D01*
X1967525Y1652664D01*
X1966243Y1650993D01*
X1965437Y1649047D01*
X1965162Y1646958D01*
Y1645728D01*
X1971961D01*
Y1654860D01*
D02*
G37*
G36*
X2035800Y1643188D02*
X2029001D01*
Y1634056D01*
X2029819Y1634164D01*
X2031766Y1634970D01*
X2033437Y1636252D01*
X2034719Y1637924D01*
X2035525Y1639870D01*
X2035800Y1641958D01*
Y1643188D01*
D02*
G37*
G36*
X1971961Y1643188D02*
X1965162D01*
Y1641958D01*
X1965437Y1639870D01*
X1966243Y1637924D01*
X1967525Y1636252D01*
X1969197Y1634970D01*
X1971143Y1634164D01*
X1971961Y1634056D01*
Y1643188D01*
D02*
G37*
G36*
X1981300D02*
X1974501D01*
Y1634056D01*
X1975320Y1634164D01*
X1977266Y1634970D01*
X1978937Y1636252D01*
X1980219Y1637924D01*
X1981025Y1639870D01*
X1981300Y1641958D01*
Y1643188D01*
D02*
G37*
G36*
X2026461Y1643188D02*
X2019662D01*
Y1641958D01*
X2019937Y1639870D01*
X2020743Y1637924D01*
X2022025Y1636252D01*
X2023697Y1634970D01*
X2025643Y1634164D01*
X2026461Y1634056D01*
Y1643188D01*
D02*
G37*
G36*
X2026001Y1623051D02*
Y1615428D01*
X2031792D01*
Y1616158D01*
X2031551Y1617986D01*
X2030846Y1619688D01*
X2029724Y1621151D01*
X2028261Y1622273D01*
X2026559Y1622978D01*
X2026001Y1623051D01*
D02*
G37*
G36*
X1977501D02*
Y1615428D01*
X1983291D01*
Y1616158D01*
X1983051Y1617986D01*
X1982346Y1619688D01*
X1981224Y1621151D01*
X1979761Y1622273D01*
X1978058Y1622978D01*
X1977501Y1623051D01*
D02*
G37*
G36*
X2023461D02*
X2022904Y1622978D01*
X2021201Y1622273D01*
X2019739Y1621151D01*
X2018617Y1619688D01*
X2017911Y1617986D01*
X2017671Y1616158D01*
Y1615428D01*
X2023461D01*
Y1623051D01*
D02*
G37*
G36*
X1974961D02*
X1974404Y1622978D01*
X1972701Y1622273D01*
X1971239Y1621151D01*
X1970117Y1619688D01*
X1969411Y1617986D01*
X1969171Y1616158D01*
Y1615428D01*
X1974961D01*
Y1623051D01*
D02*
G37*
G36*
X2023461Y1612888D02*
X2017671D01*
Y1612158D01*
X2017911Y1610331D01*
X2018617Y1608628D01*
X2019739Y1607166D01*
X2021201Y1606044D01*
X2022904Y1605338D01*
X2023461Y1605265D01*
Y1612888D01*
D02*
G37*
G36*
X1974961D02*
X1969171D01*
Y1612158D01*
X1969411Y1610331D01*
X1970117Y1608628D01*
X1971239Y1607166D01*
X1972701Y1606044D01*
X1974404Y1605338D01*
X1974961Y1605265D01*
Y1612888D01*
D02*
G37*
G36*
X2031792D02*
X2026001D01*
Y1605265D01*
X2026559Y1605338D01*
X2028261Y1606044D01*
X2029724Y1607166D01*
X2030846Y1608628D01*
X2031551Y1610331D01*
X2031792Y1612158D01*
Y1612888D01*
D02*
G37*
G36*
X1983291D02*
X1977501D01*
Y1605265D01*
X1978058Y1605338D01*
X1979761Y1606044D01*
X1981224Y1607166D01*
X1982346Y1608628D01*
X1983051Y1610331D01*
X1983291Y1612158D01*
Y1612888D01*
D02*
G37*
G36*
X2165585Y1590660D02*
Y1584028D01*
X2172217D01*
X2172109Y1584847D01*
X2171303Y1586793D01*
X2170021Y1588464D01*
X2168350Y1589746D01*
X2166404Y1590552D01*
X2165585Y1590660D01*
D02*
G37*
G36*
X2163045D02*
X2162227Y1590552D01*
X2160281Y1589746D01*
X2158610Y1588464D01*
X2157327Y1586793D01*
X2156521Y1584847D01*
X2156414Y1584028D01*
X2163045D01*
Y1590660D01*
D02*
G37*
G36*
X1925676Y1596858D02*
X1906676D01*
Y1577858D01*
X1925676D01*
Y1596858D01*
D02*
G37*
G36*
X2172217Y1581488D02*
X2165585D01*
Y1574856D01*
X2166404Y1574964D01*
X2168350Y1575770D01*
X2170021Y1577052D01*
X2171303Y1578724D01*
X2172109Y1580670D01*
X2172217Y1581488D01*
D02*
G37*
G36*
X2163045D02*
X2156414D01*
X2156521Y1580670D01*
X2157327Y1578724D01*
X2158610Y1577052D01*
X2160281Y1575770D01*
X2162227Y1574964D01*
X2163045Y1574856D01*
Y1581488D01*
D02*
G37*
G36*
X2172315Y1570758D02*
X2156315D01*
Y1554758D01*
X2172315D01*
Y1570758D01*
D02*
G37*
G36*
X1916176Y1571940D02*
X1913696Y1571614D01*
X1911385Y1570656D01*
X1909401Y1569134D01*
X1907878Y1567149D01*
X1906921Y1564838D01*
X1906594Y1562358D01*
X1906921Y1559878D01*
X1907878Y1557567D01*
X1909401Y1555583D01*
X1911385Y1554060D01*
X1913696Y1553103D01*
X1916176Y1552776D01*
X1918656Y1553103D01*
X1920967Y1554060D01*
X1922952Y1555583D01*
X1924474Y1557567D01*
X1925432Y1559878D01*
X1925758Y1562358D01*
X1925432Y1564838D01*
X1924474Y1567149D01*
X1922952Y1569134D01*
X1920967Y1570656D01*
X1918656Y1571614D01*
X1916176Y1571940D01*
D02*
G37*
G36*
X1976525Y1574758D02*
X1952525D01*
Y1550758D01*
X1960292D01*
X1960690Y1548758D01*
X1958474Y1547840D01*
X1955967Y1545917D01*
X1955688Y1545554D01*
X1955121Y1545002D01*
X1954332Y1544312D01*
X1953563Y1543714D01*
X1952817Y1543207D01*
X1952094Y1542790D01*
X1951397Y1542458D01*
X1950725Y1542208D01*
X1950079Y1542035D01*
X1949532Y1541946D01*
X1926998D01*
X1926703Y1541982D01*
X1926209Y1542085D01*
X1925729Y1542228D01*
X1925259Y1542412D01*
X1924797Y1542640D01*
X1924340Y1542914D01*
X1923887Y1543236D01*
X1923436Y1543610D01*
X1923127Y1543905D01*
X1922952Y1544134D01*
X1920967Y1545656D01*
X1918656Y1546614D01*
X1916176Y1546940D01*
X1913696Y1546614D01*
X1911385Y1545656D01*
X1909401Y1544134D01*
X1907878Y1542149D01*
X1906921Y1539838D01*
X1906594Y1537358D01*
X1906921Y1534878D01*
X1907878Y1532567D01*
X1909401Y1530583D01*
X1911385Y1529060D01*
X1913696Y1528103D01*
X1916176Y1527776D01*
X1918656Y1528103D01*
X1920967Y1529060D01*
X1922952Y1530583D01*
X1923127Y1530812D01*
X1923436Y1531107D01*
X1923887Y1531480D01*
X1924340Y1531802D01*
X1924797Y1532076D01*
X1925259Y1532304D01*
X1925729Y1532489D01*
X1926209Y1532632D01*
X1926703Y1532734D01*
X1926998Y1532770D01*
X1949532D01*
X1950078Y1532682D01*
X1950725Y1532508D01*
X1951397Y1532258D01*
X1952094Y1531927D01*
X1952816Y1531509D01*
X1953538Y1531020D01*
X1955142Y1529694D01*
X1955688Y1529162D01*
X1955967Y1528800D01*
X1958474Y1526876D01*
X1961393Y1525667D01*
X1964525Y1525255D01*
X1967658Y1525667D01*
X1970577Y1526876D01*
X1973084Y1528800D01*
X1973362Y1529162D01*
X1973930Y1529714D01*
X1974718Y1530405D01*
X1975488Y1531003D01*
X1976234Y1531509D01*
X1976957Y1531927D01*
X1977654Y1532258D01*
X1978326Y1532508D01*
X1978972Y1532682D01*
X1979518Y1532770D01*
X2015027D01*
X2016138Y1532027D01*
X2018284Y1531600D01*
X2020430Y1532027D01*
X2022249Y1533243D01*
X2023465Y1535062D01*
X2023892Y1537208D01*
X2023465Y1539354D01*
X2022249Y1541173D01*
X2020430Y1542389D01*
X2018284Y1542816D01*
X2016138Y1542389D01*
X2015476Y1541946D01*
X1979518D01*
X1978972Y1542035D01*
X1978326Y1542208D01*
X1977654Y1542458D01*
X1976957Y1542789D01*
X1976234Y1543207D01*
X1975513Y1543696D01*
X1973909Y1545022D01*
X1973362Y1545554D01*
X1973084Y1545917D01*
X1970577Y1547840D01*
X1968361Y1548758D01*
X1968759Y1550758D01*
X1976525D01*
Y1574758D01*
D02*
G37*
G36*
X2108471Y1427988D02*
X2100326D01*
Y1419843D01*
X2101536Y1420003D01*
X2103847Y1420960D01*
X2105832Y1422483D01*
X2107354Y1424467D01*
X2108312Y1426778D01*
X2108471Y1427988D01*
D02*
G37*
G36*
X2097786D02*
X2089641D01*
X2089801Y1426778D01*
X2090758Y1424467D01*
X2092281Y1422483D01*
X2094265Y1420960D01*
X2096576Y1420003D01*
X2097786Y1419843D01*
Y1427988D01*
D02*
G37*
G36*
X1910734Y1404340D02*
X1908254Y1404014D01*
X1905943Y1403056D01*
X1903958Y1401534D01*
X1902436Y1399549D01*
X1901478Y1397238D01*
X1901152Y1394758D01*
X1901478Y1392278D01*
X1902436Y1389967D01*
X1903958Y1387983D01*
X1905943Y1386460D01*
X1908254Y1385503D01*
X1910734Y1385176D01*
X1913214Y1385503D01*
X1915525Y1386460D01*
X1917509Y1387983D01*
X1919032Y1389967D01*
X1919989Y1392278D01*
X1920316Y1394758D01*
X1919989Y1397238D01*
X1919032Y1399549D01*
X1917509Y1401534D01*
X1915525Y1403056D01*
X1913214Y1404014D01*
X1910734Y1404340D01*
D02*
G37*
G36*
Y1378940D02*
X1908254Y1378614D01*
X1905943Y1377656D01*
X1903958Y1376134D01*
X1902436Y1374149D01*
X1901478Y1371838D01*
X1901152Y1369358D01*
X1901478Y1366878D01*
X1902436Y1364567D01*
X1903958Y1362583D01*
X1905943Y1361060D01*
X1908254Y1360103D01*
X1910734Y1359776D01*
X1913214Y1360103D01*
X1915525Y1361060D01*
X1917509Y1362583D01*
X1919032Y1364567D01*
X1919989Y1366878D01*
X1920316Y1369358D01*
X1919989Y1371838D01*
X1919032Y1374149D01*
X1917509Y1376134D01*
X1915525Y1377656D01*
X1913214Y1378614D01*
X1910734Y1378940D01*
D02*
G37*
G36*
X1912004Y1353373D02*
Y1345228D01*
X1920149D01*
X1919989Y1346438D01*
X1919032Y1348749D01*
X1917509Y1350734D01*
X1915525Y1352256D01*
X1913214Y1353214D01*
X1912004Y1353373D01*
D02*
G37*
G36*
X1909464Y1353373D02*
X1908254Y1353214D01*
X1905943Y1352256D01*
X1903958Y1350734D01*
X1902436Y1348749D01*
X1901478Y1346438D01*
X1901319Y1345228D01*
X1909464D01*
Y1353373D01*
D02*
G37*
G36*
Y1342688D02*
X1901319D01*
X1901478Y1341478D01*
X1902436Y1339167D01*
X1903958Y1337183D01*
X1905943Y1335660D01*
X1908254Y1334703D01*
X1909464Y1334543D01*
Y1342688D01*
D02*
G37*
G36*
X1920149D02*
X1912004D01*
Y1334543D01*
X1913214Y1334703D01*
X1915525Y1335660D01*
X1917509Y1337183D01*
X1919032Y1339167D01*
X1919989Y1341478D01*
X1920149Y1342688D01*
D02*
G37*
G36*
X2027356Y1261518D02*
X2025529Y1261278D01*
X2023826Y1260573D01*
X2022364Y1259451D01*
X2021242Y1257988D01*
X2021230Y1257960D01*
X2021202Y1257942D01*
X2021126Y1257905D01*
X2021004Y1257862D01*
X2020833Y1257819D01*
X2020609Y1257782D01*
X2020495Y1257772D01*
X2001075D01*
X2001056Y1257774D01*
X2000904Y1257803D01*
X2000763Y1257842D01*
X2000631Y1257891D01*
X2000504Y1257951D01*
X2000379Y1258023D01*
X2000253Y1258109D01*
X2000167Y1258179D01*
X2000004Y1258423D01*
X1998184Y1259639D01*
X1996038Y1260066D01*
X1993892Y1259639D01*
X1992073Y1258423D01*
X1990858Y1256604D01*
X1990431Y1254458D01*
X1990858Y1252312D01*
X1992051Y1250526D01*
X1992094Y1250306D01*
X1991493Y1248475D01*
X1991016Y1248438D01*
X1990682Y1248517D01*
X1989002Y1249639D01*
X1986856Y1250066D01*
X1984710Y1249639D01*
X1982891Y1248423D01*
X1981675Y1246604D01*
X1981248Y1244458D01*
X1981675Y1242312D01*
X1982891Y1240493D01*
X1984710Y1239277D01*
X1986856Y1238850D01*
X1989002Y1239277D01*
X1990821Y1240493D01*
X1990984Y1240737D01*
X1991071Y1240807D01*
X1991197Y1240894D01*
X1991322Y1240966D01*
X1991449Y1241025D01*
X1991581Y1241074D01*
X1991721Y1241113D01*
X1991874Y1241142D01*
X1991893Y1241144D01*
X1999495D01*
X1999609Y1241134D01*
X1999833Y1241097D01*
X2000004Y1241054D01*
X2000126Y1241011D01*
X2000202Y1240974D01*
X2000230Y1240957D01*
X2000242Y1240928D01*
X2001364Y1239466D01*
X2002826Y1238344D01*
X2004529Y1237638D01*
X2006356Y1237398D01*
X2008183Y1237638D01*
X2009886Y1238344D01*
X2011349Y1239466D01*
X2012471Y1240928D01*
X2013176Y1242631D01*
X2013416Y1244458D01*
X2013176Y1246285D01*
X2012471Y1247988D01*
X2011583Y1249145D01*
X2011887Y1250296D01*
X2012426Y1251144D01*
X2020495D01*
X2020609Y1251134D01*
X2020833Y1251097D01*
X2021005Y1251054D01*
X2021126Y1251011D01*
X2021202Y1250974D01*
X2021230Y1250957D01*
X2021242Y1250928D01*
X2022364Y1249466D01*
X2023826Y1248344D01*
X2025529Y1247638D01*
X2027356Y1247398D01*
X2029184Y1247638D01*
X2030886Y1248344D01*
X2032349Y1249466D01*
X2033471Y1250928D01*
X2034176Y1252631D01*
X2034417Y1254458D01*
X2034176Y1256285D01*
X2033471Y1257988D01*
X2032349Y1259451D01*
X2030886Y1260573D01*
X2029184Y1261278D01*
X2027356Y1261518D01*
D02*
G37*
G36*
X1912004Y1224586D02*
Y1214928D01*
X1921662D01*
X1921451Y1216530D01*
X1920343Y1219206D01*
X1918579Y1221503D01*
X1916281Y1223267D01*
X1913606Y1224375D01*
X1912004Y1224586D01*
D02*
G37*
G36*
X1921662Y1212388D02*
X1912004D01*
Y1202730D01*
X1913606Y1202941D01*
X1916281Y1204050D01*
X1918579Y1205813D01*
X1920343Y1208111D01*
X1921451Y1210787D01*
X1921662Y1212388D01*
D02*
G37*
%LPD*%
G36*
X1922079Y1542086D02*
X1922643Y1541618D01*
X1923224Y1541206D01*
X1923820Y1540848D01*
X1924434Y1540546D01*
X1925063Y1540298D01*
X1925710Y1540106D01*
X1926372Y1539968D01*
X1927052Y1539886D01*
X1927747Y1539858D01*
Y1534858D01*
X1927052Y1534831D01*
X1926372Y1534748D01*
X1925710Y1534611D01*
X1925063Y1534418D01*
X1924434Y1534171D01*
X1923820Y1533868D01*
X1923224Y1533511D01*
X1922643Y1533098D01*
X1922079Y1532631D01*
X1921532Y1532108D01*
Y1542608D01*
X1922079Y1542086D01*
D02*
G37*
G36*
X1972546Y1543503D02*
X1974288Y1542063D01*
X1975151Y1541478D01*
X1976008Y1540983D01*
X1976859Y1540578D01*
X1977704Y1540263D01*
X1978545Y1540038D01*
X1979379Y1539903D01*
X1980208Y1539858D01*
Y1534858D01*
X1979379Y1534813D01*
X1978545Y1534678D01*
X1977704Y1534453D01*
X1976859Y1534138D01*
X1976008Y1533733D01*
X1975151Y1533238D01*
X1974288Y1532653D01*
X1973420Y1531978D01*
X1972546Y1531213D01*
X1971667Y1530358D01*
Y1544358D01*
X1972546Y1543503D01*
D02*
G37*
G36*
X1957384Y1530358D02*
X1956505Y1531213D01*
X1954763Y1532653D01*
X1953900Y1533238D01*
X1953043Y1533733D01*
X1952192Y1534138D01*
X1951346Y1534453D01*
X1950506Y1534678D01*
X1949672Y1534813D01*
X1948843Y1534858D01*
Y1539858D01*
X1949672Y1539903D01*
X1950506Y1540038D01*
X1951346Y1540263D01*
X1952192Y1540578D01*
X1953043Y1540983D01*
X1953900Y1541478D01*
X1954763Y1542063D01*
X1955631Y1542738D01*
X1956505Y1543503D01*
X1957384Y1544358D01*
Y1530358D01*
D02*
G37*
G36*
X1998778Y1256680D02*
X1999029Y1256476D01*
X1999290Y1256296D01*
X1999562Y1256140D01*
X1999843Y1256008D01*
X2000136Y1255900D01*
X2000438Y1255816D01*
X2000751Y1255756D01*
X2001074Y1255720D01*
X2001408Y1255708D01*
Y1253208D01*
X2001074Y1253196D01*
X2000751Y1253160D01*
X2000438Y1253100D01*
X2000136Y1253016D01*
X1999843Y1252908D01*
X1999562Y1252776D01*
X1999290Y1252620D01*
X1999029Y1252440D01*
X1998778Y1252236D01*
X1998538Y1252008D01*
Y1256908D01*
X1998778Y1256680D01*
D02*
G37*
G36*
X2023026Y1251958D02*
X2022866Y1252196D01*
X2022675Y1252408D01*
X2022452Y1252596D01*
X2022198Y1252758D01*
X2021912Y1252896D01*
X2021596Y1253008D01*
X2021247Y1253096D01*
X2020868Y1253158D01*
X2020457Y1253196D01*
X2020015Y1253208D01*
Y1255708D01*
X2020457Y1255721D01*
X2020868Y1255758D01*
X2021247Y1255821D01*
X2021596Y1255908D01*
X2021912Y1256021D01*
X2022198Y1256158D01*
X2022452Y1256321D01*
X2022675Y1256508D01*
X2022866Y1256721D01*
X2023026Y1256958D01*
Y1251958D01*
D02*
G37*
G36*
X1989596Y1246680D02*
X1989847Y1246476D01*
X1990108Y1246296D01*
X1990379Y1246140D01*
X1990661Y1246008D01*
X1990953Y1245900D01*
X1991256Y1245816D01*
X1991569Y1245756D01*
X1991892Y1245720D01*
X1992225Y1245708D01*
Y1243208D01*
X1991892Y1243196D01*
X1991569Y1243160D01*
X1991256Y1243100D01*
X1990953Y1243016D01*
X1990661Y1242908D01*
X1990379Y1242776D01*
X1990108Y1242620D01*
X1989847Y1242440D01*
X1989596Y1242236D01*
X1989356Y1242008D01*
Y1246908D01*
X1989596Y1246680D01*
D02*
G37*
G36*
X2002026Y1241958D02*
X2001866Y1242196D01*
X2001675Y1242408D01*
X2001452Y1242596D01*
X2001198Y1242758D01*
X2000912Y1242896D01*
X2000596Y1243008D01*
X2000247Y1243096D01*
X1999868Y1243158D01*
X1999457Y1243196D01*
X1999015Y1243208D01*
Y1245708D01*
X1999457Y1245721D01*
X1999868Y1245758D01*
X2000247Y1245821D01*
X2000596Y1245908D01*
X2000912Y1246021D01*
X2001198Y1246158D01*
X2001452Y1246321D01*
X2001675Y1246508D01*
X2001866Y1246721D01*
X2002026Y1246958D01*
Y1241958D01*
D02*
G37*
%LPC*%
G36*
X1918173Y1419718D02*
X1917921Y1419371D01*
X1917779Y1418911D01*
Y1418381D01*
X1917921Y1417780D01*
X1918173Y1417180D01*
Y1419718D01*
D02*
G37*
%LPD*%
D12*
X2110106Y1299039D02*
X2110275Y1299208D01*
X2110106Y1284708D02*
Y1299039D01*
X2093356Y1304458D02*
X2104524D01*
X1996038Y1254458D02*
X2027356D01*
X1986856Y1244458D02*
X2006356D01*
X1910734Y1239058D02*
X1986134Y1314458D01*
X2085856D01*
D13*
X2113856Y1325789D02*
Y1351958D01*
X2110275Y1322208D02*
X2113856Y1325789D01*
X2110275Y1308958D02*
Y1312208D01*
Y1322208D01*
X2113856Y1351958D02*
X2145856Y1319958D01*
Y1284458D02*
Y1319958D01*
D51*
X2027356Y1254458D02*
D03*
X2006356Y1244458D02*
D03*
D61*
X1964525Y1537358D02*
X2018134D01*
X2018284Y1537208D01*
X1910734Y1420158D02*
X1928356Y1402536D01*
Y1332880D02*
Y1402536D01*
X1910734Y1315258D02*
X1928356Y1332880D01*
X1916176Y1537358D02*
X1964525D01*
X1910734Y1420158D02*
X1943501D01*
X1962801Y1439458D01*
X2109955Y1443759D02*
X2124456Y1429258D01*
X1967102Y1443759D02*
X2109955D01*
X1962801Y1439458D02*
Y1439458D01*
X1967102Y1443759D01*
D63*
X1910734Y1343958D02*
D03*
Y1369358D02*
D03*
Y1394758D02*
D03*
X1916176Y1537358D02*
D03*
Y1562358D02*
D03*
X2048256Y1429258D02*
D03*
X2073656D02*
D03*
X2099056D02*
D03*
D64*
X1910734Y1420158D02*
D03*
X1916176Y1587358D02*
D03*
D65*
X1964525Y1537358D02*
D03*
D66*
Y1562758D02*
D03*
D67*
X2124456Y1429258D02*
D03*
D68*
X1910734Y1315258D02*
D03*
Y1289858D02*
D03*
Y1264458D02*
D03*
Y1239058D02*
D03*
Y1213658D02*
D03*
D69*
X1973231Y1644458D02*
D03*
X2027731D02*
D03*
D70*
X1976231Y1614158D02*
D03*
X2024731D02*
D03*
D71*
X2164315Y1582758D02*
D03*
D72*
Y1562758D02*
D03*
D73*
X2113856Y1351958D02*
D03*
X2018284Y1537208D02*
D03*
X2145856Y1284458D02*
D03*
X1962801Y1439458D02*
D03*
X1996038Y1254458D02*
D03*
X1986856Y1244458D02*
D03*
X2093356Y1304458D02*
D03*
X2085856Y1314458D02*
D03*
D74*
X2110106Y1284708D02*
D03*
X2110275Y1299208D02*
D03*
D75*
X2110106Y1274958D02*
D03*
X2110275Y1308958D02*
D03*
M02*
