G04*
G04 #@! TF.GenerationSoftware,Altium Limited,Altium Designer,20.2.7 (254)*
G04*
G04 Layer_Color=16711935*
%FSLAX44Y44*%
%MOMM*%
G71*
G04*
G04 #@! TF.SameCoordinates,376ED358-1AEA-4EEA-9480-C934229D8A07*
G04*
G04*
G04 #@! TF.FilePolarity,Negative*
G04*
G01*
G75*
%ADD22C,1.4000*%
%ADD33C,1.9000*%
%ADD34R,1.9000X1.9000*%
%ADD35C,2.4000*%
%ADD36R,2.4000X2.4000*%
%ADD37R,1.9000X1.9000*%
%ADD38C,2.2000*%
%ADD39O,1.6000X2.1000*%
%ADD40O,1.4000X1.8000*%
%ADD41C,1.6000*%
%ADD42R,1.6000X1.6000*%
%ADD74R,0.4000X0.4000*%
%ADD75R,0.4000X1.0500*%
%ADD76R,1.7075X1.9464*%
G36*
X2117606Y1269708D02*
X2114356Y1269708D01*
Y1282458D01*
X2105856Y1282458D01*
Y1269708D01*
X2102606Y1269708D01*
Y1286958D01*
X2117606D01*
Y1269708D01*
D02*
G37*
G36*
X2106025Y1314208D02*
Y1301458D01*
X2114525Y1301458D01*
Y1314208D01*
X2117775Y1314208D01*
Y1296958D01*
X2102775D01*
Y1314208D01*
X2106025Y1314208D01*
D02*
G37*
D22*
X2027356Y1254458D02*
D03*
X2006356Y1244458D02*
D03*
D33*
X1910734Y1343958D02*
D03*
Y1369358D02*
D03*
Y1394758D02*
D03*
X1916176Y1537358D02*
D03*
Y1562358D02*
D03*
X2048256Y1429258D02*
D03*
X2073656D02*
D03*
X2099056D02*
D03*
D34*
X1910734Y1420158D02*
D03*
X1916176Y1587358D02*
D03*
D35*
X1964525Y1537358D02*
D03*
D36*
Y1562758D02*
D03*
D37*
X2124456Y1429258D02*
D03*
D38*
X1910734Y1315258D02*
D03*
Y1289858D02*
D03*
Y1264458D02*
D03*
Y1239058D02*
D03*
Y1213658D02*
D03*
D39*
X1973231Y1644458D02*
D03*
X2027731D02*
D03*
D40*
X1976231Y1614158D02*
D03*
X2024731D02*
D03*
D41*
X2164315Y1582758D02*
D03*
D42*
Y1562758D02*
D03*
D74*
X2110106Y1284708D02*
D03*
X2110275Y1299208D02*
D03*
D75*
X2110106Y1274958D02*
D03*
X2110275Y1308958D02*
D03*
D76*
X2110088Y1278186D02*
D03*
X2110294Y1305730D02*
D03*
M02*
