G04*
G04 #@! TF.GenerationSoftware,Altium Limited,Altium Designer,20.2.7 (254)*
G04*
G04 Layer_Color=3326705*
%FSLAX44Y44*%
%MOMM*%
G71*
G04*
G04 #@! TF.SameCoordinates,376ED358-1AEA-4EEA-9480-C934229D8A07*
G04*
G04*
G04 #@! TF.FilePolarity,Positive*
G04*
G01*
G75*
%ADD11C,0.1000*%
%ADD13C,0.2000*%
D11*
X2098434Y1284957D02*
X2093435Y1277459D01*
Y1284957D02*
X2098434Y1277459D01*
X2090936Y1284957D02*
X2085938D01*
X2088437D01*
Y1277459D01*
X2083438Y1283707D02*
X2082189Y1284957D01*
X2079690D01*
X2078440Y1283707D01*
Y1282458D01*
X2079690Y1281208D01*
X2080939D01*
X2079690D01*
X2078440Y1279959D01*
Y1278709D01*
X2079690Y1277459D01*
X2082189D01*
X2083438Y1278709D01*
X2098603Y1308957D02*
X2093604Y1301459D01*
Y1308957D02*
X2098603Y1301459D01*
X2091105Y1308957D02*
X2086107D01*
X2088606D01*
Y1301459D01*
X2078609D02*
X2083608D01*
X2078609Y1306458D01*
Y1307707D01*
X2079859Y1308957D01*
X2082358D01*
X2083608Y1307707D01*
X2003440Y1235703D02*
Y1234037D01*
Y1234870D01*
X2008439D01*
Y1235703D01*
Y1234037D01*
Y1228205D02*
Y1231537D01*
X2005107Y1228205D01*
X2004273D01*
X2003440Y1229038D01*
Y1230704D01*
X2004273Y1231537D01*
Y1223207D02*
X2003440Y1224040D01*
Y1225706D01*
X2004273Y1226539D01*
X2007606D01*
X2008439Y1225706D01*
Y1224040D01*
X2007606Y1223207D01*
X2009272Y1221541D02*
Y1218208D01*
X2004273Y1213210D02*
X2003440Y1214043D01*
Y1215709D01*
X2004273Y1216542D01*
X2005107D01*
X2005940Y1215709D01*
Y1214043D01*
X2006773Y1213210D01*
X2007606D01*
X2008439Y1214043D01*
Y1215709D01*
X2007606Y1216542D01*
X2003440Y1211544D02*
X2008439D01*
Y1209045D01*
X2007606Y1208212D01*
X2004273D01*
X2003440Y1209045D01*
Y1211544D01*
X2008439Y1206546D02*
X2005107D01*
X2003440Y1204880D01*
X2005107Y1203213D01*
X2008439D01*
X2005940D01*
Y1206546D01*
X2024440Y1245703D02*
Y1244037D01*
Y1244870D01*
X2029439D01*
Y1245703D01*
Y1244037D01*
Y1238205D02*
Y1241537D01*
X2026107Y1238205D01*
X2025273D01*
X2024440Y1239038D01*
Y1240704D01*
X2025273Y1241537D01*
Y1233207D02*
X2024440Y1234040D01*
Y1235706D01*
X2025273Y1236539D01*
X2028606D01*
X2029439Y1235706D01*
Y1234040D01*
X2028606Y1233207D01*
X2030272Y1231541D02*
Y1228209D01*
X2025273Y1223210D02*
X2024440Y1224043D01*
Y1225709D01*
X2025273Y1226543D01*
X2026107D01*
X2026940Y1225709D01*
Y1224043D01*
X2027773Y1223210D01*
X2028606D01*
X2029439Y1224043D01*
Y1225709D01*
X2028606Y1226543D01*
X2025273Y1218212D02*
X2024440Y1219045D01*
Y1220711D01*
X2025273Y1221544D01*
X2028606D01*
X2029439Y1220711D01*
Y1219045D01*
X2028606Y1218212D01*
X2024440Y1216546D02*
X2029439D01*
Y1213214D01*
X2132437Y1451457D02*
Y1446459D01*
X2129938D01*
X2129105Y1447292D01*
Y1450624D01*
X2129938Y1451457D01*
X2132437D01*
X2127439D02*
Y1446459D01*
X2124940D01*
X2124107Y1447292D01*
Y1450624D01*
X2124940Y1451457D01*
X2127439D01*
X2122441Y1446459D02*
X2120775D01*
X2121608D01*
Y1451457D01*
X2122441Y1450624D01*
D13*
X2137156Y1416558D02*
Y1441958D01*
X2035556D02*
X2137156D01*
X2035556Y1416558D02*
X2137156D01*
X2035556D02*
Y1441958D01*
M02*
