M48
;Layer_Color=9474304
;FILE_FORMAT=4:4
METRIC,TZ
;TYPE=PLATED
T1F00S00C0.3000
T2F00S00C0.7000
T3F00S00C0.9000
T4F00S00C1.1000
T5F00S00C1.6500
;TYPE=NON_PLATED
T6F00S00C2.5000
%
T01
X1910588Y1167638
X1923542Y1168654
X1933448Y1171702
X1934210Y1183132
X1945894Y1185672
X1961134Y1184910
X1972310Y1189482
X2078856Y1175458
X2068606Y1199958
X2049606Y1204458
X2031356Y1196958
X2000000Y1200000
X2025000Y1250000
X2075000
X2079856Y1269208
X2074164Y1278890
X2047856Y1288458
X2050000Y1300000
X2000000
X2011856Y1365458
X2025000Y1450000
X2073356Y1439458
X2083356Y1451958
X2125000Y1450000
X2152856Y1485958
X2200000Y1500000
X2225000Y1550000
X2175000
X2125000
X2075000
X2025000
X1995170Y1526286
X1988058Y1518158
X1989074Y1494282
X2063856Y1500958
X2150000Y1400000
X2125000Y1350000
X2080856Y1320708
X2125000Y1250000
X2150000Y1200000
X2200000
X2211726Y1358038
X2225696Y1372008
X1975000Y1450000
X1978660Y1494028
X1968754Y1493266
X1941068Y1493774
X1939036Y1485646
X1931924Y1476756
X1918716Y1476248
X1907794Y1475740
X1905508Y1535938
X1918208Y1536192
X1928876Y1534922
X1935734Y1526794
X1944116Y1518412
X1953260Y1520698
X1965198Y1519428
X1975612Y1518412
X1975000Y1550000
X1970856Y1259458
X1975000Y1250000
X1971856Y1229458
X1978856Y1218458
X1972056Y1200912
X1934464Y1212342
X1934210Y1221740
X1928114Y1228852
X1917700Y1229106
X1906778
X1975000Y1650000
X1950000Y1700000
X2000000
X2050000
X2100000
X2150000
X2200000
X2175000Y1650000
X2200000Y1600000
X2150000
X2100000
X2050000
X2000000
T02
X2215856Y1444458
Y1464458
T03
X1913856Y1380058
Y1405458
Y1430858
Y1456258
T04
X1913856Y1250658
Y1276058
Y1301458
Y1326858
Y1352258
T05
X2148598Y1178844
X2188198
T06
X2225856Y1174458
X1915856Y1754458
X2225856
M30
