G04*
G04 #@! TF.GenerationSoftware,Altium Limited,Altium Designer,20.2.7 (254)*
G04*
G04 Layer_Color=65535*
%FSLAX44Y44*%
%MOMM*%
G71*
G04*
G04 #@! TF.SameCoordinates,4D7A2DC3-99A8-4A5B-9679-2B55FC54A80C*
G04*
G04*
G04 #@! TF.FilePolarity,Positive*
G04*
G01*
G75*
%ADD10C,0.1000*%
%ADD11C,0.2540*%
%ADD12C,0.2000*%
%ADD13C,0.2500*%
%ADD14C,0.4000*%
D10*
X2045542Y1170620D02*
G03*
X2046542Y1170620I500J0D01*
G01*
D02*
G03*
X2045542Y1170620I-500J0D01*
G01*
X2069542Y1175620D02*
X2079542D01*
Y1173620D02*
Y1175620D01*
X2049542Y1173620D02*
Y1175620D01*
X2059542D01*
X2079542Y1145620D02*
Y1147620D01*
X2069542Y1145620D02*
X2079542D01*
X2049542D02*
Y1147620D01*
Y1145620D02*
X2059542D01*
X2006932Y1146080D02*
X2021932Y1161080D01*
X1969932D02*
X1984932Y1146080D01*
X1969932Y1183080D02*
X1984932Y1198080D01*
X2006932D02*
X2021932Y1183080D01*
X2042466Y1437686D02*
X2112466D01*
X2042466D02*
X2112466D01*
X2042466Y1538686D02*
X2112466D01*
X2042466D02*
X2112466D01*
D11*
X1997202Y1136520D02*
G03*
X1997202Y1136520I-1270J0D01*
G01*
X2024380Y1200404D02*
Y1209548D01*
X2004822D02*
X2024380D01*
Y1200404D02*
X2044446Y1180338D01*
X1911991Y1321481D02*
X1918656Y1311484D01*
Y1321481D02*
X1911991Y1311484D01*
X1928652Y1319814D02*
X1926986Y1321481D01*
X1923654D01*
X1921988Y1319814D01*
Y1318148D01*
X1923654Y1316482D01*
X1926986D01*
X1928652Y1314816D01*
Y1313150D01*
X1926986Y1311484D01*
X1923654D01*
X1921988Y1313150D01*
X1938649Y1311484D02*
X1931985D01*
X1938649Y1318148D01*
Y1319814D01*
X1936983Y1321481D01*
X1933651D01*
X1931985Y1319814D01*
X1940031Y1471504D02*
X1933367Y1481501D01*
Y1471504D02*
X1940031Y1481501D01*
X1923370Y1473170D02*
X1925036Y1471504D01*
X1928368D01*
X1930034Y1473170D01*
Y1474836D01*
X1928368Y1476502D01*
X1925036D01*
X1923370Y1478168D01*
Y1479834D01*
X1925036Y1481501D01*
X1928368D01*
X1930034Y1479834D01*
X1920038Y1481501D02*
X1916705D01*
X1918371D01*
Y1471504D01*
X1920038Y1473170D01*
X2192102Y1454425D02*
X2202099Y1461090D01*
X2192102D02*
X2202099Y1454425D01*
Y1464422D02*
X2192102D01*
Y1469420D01*
X2193768Y1471086D01*
X2197100D01*
X2198766Y1469420D01*
Y1464422D01*
X2202099Y1474419D02*
Y1477751D01*
Y1476085D01*
X2192102D01*
X2193768Y1474419D01*
X2182166Y1184828D02*
X2188830Y1174832D01*
Y1184828D02*
X2182166Y1174832D01*
X2192162Y1183162D02*
X2193828Y1184828D01*
X2197161D01*
X2198827Y1183162D01*
Y1181496D01*
X2197161Y1179830D01*
X2195495D01*
X2197161D01*
X2198827Y1178164D01*
Y1176498D01*
X2197161Y1174832D01*
X2193828D01*
X2192162Y1176498D01*
X2168480Y1250239D02*
X2178477Y1256904D01*
X2168480D02*
X2178477Y1250239D01*
Y1266901D02*
Y1260236D01*
X2171812Y1266901D01*
X2170146D01*
X2168480Y1265235D01*
Y1261902D01*
X2170146Y1260236D01*
X2151357Y1663253D02*
X2141360Y1656588D01*
X2151357D02*
X2141360Y1663253D01*
Y1653256D02*
Y1649924D01*
Y1651590D01*
X2151357D01*
X2149690Y1653256D01*
X2082090Y1219282D02*
Y1229278D01*
X2087088D01*
X2088754Y1227612D01*
Y1224280D01*
X2087088Y1222614D01*
X2082090D01*
X2085422D02*
X2088754Y1219282D01*
X2098751Y1229278D02*
X2092086D01*
Y1224280D01*
X2095419Y1225946D01*
X2097085D01*
X2098751Y1224280D01*
Y1220948D01*
X2097085Y1219282D01*
X2093752D01*
X2092086Y1220948D01*
X2107236Y1218266D02*
Y1228262D01*
X2112234D01*
X2113900Y1226596D01*
Y1223264D01*
X2112234Y1221598D01*
X2107236D01*
X2110568D02*
X2113900Y1218266D01*
X2122231D02*
Y1228262D01*
X2117232Y1223264D01*
X2123897D01*
X2175125Y1326068D02*
X2165128D01*
Y1331066D01*
X2166794Y1332732D01*
X2170126D01*
X2171792Y1331066D01*
Y1326068D01*
Y1329400D02*
X2175125Y1332732D01*
Y1342729D02*
Y1336064D01*
X2168460Y1342729D01*
X2166794D01*
X2165128Y1341063D01*
Y1337730D01*
X2166794Y1336064D01*
X1987656Y1497646D02*
Y1507643D01*
X1992654D01*
X1994320Y1505976D01*
Y1502644D01*
X1992654Y1500978D01*
X1987656D01*
X1990988D02*
X1994320Y1497646D01*
X1997652D02*
X2000985D01*
X1999319D01*
Y1507643D01*
X1997652Y1505976D01*
X1971599Y1225214D02*
Y1215218D01*
X1978264D01*
X1988261D02*
X1981596D01*
X1988261Y1221882D01*
Y1223548D01*
X1986595Y1225214D01*
X1983262D01*
X1981596Y1223548D01*
X1963248Y1530036D02*
X1973244D01*
Y1536700D01*
Y1540032D02*
Y1543365D01*
Y1541698D01*
X1963248D01*
X1964914Y1540032D01*
X1973459Y1415968D02*
Y1405972D01*
X1978457D01*
X1980124Y1407638D01*
Y1414302D01*
X1978457Y1415968D01*
X1973459D01*
X1983456D02*
Y1405972D01*
X1988454D01*
X1990120Y1407638D01*
Y1414302D01*
X1988454Y1415968D01*
X1983456D01*
X2000117Y1405972D02*
X1993453D01*
X2000117Y1412636D01*
Y1414302D01*
X1998451Y1415968D01*
X1995119D01*
X1993453Y1414302D01*
X2091669Y1423244D02*
Y1433241D01*
X2086671D01*
X2085004Y1431574D01*
Y1424910D01*
X2086671Y1423244D01*
X2091669D01*
X2081672D02*
Y1433241D01*
X2076674D01*
X2075008Y1431574D01*
Y1424910D01*
X2076674Y1423244D01*
X2081672D01*
X2071676Y1433241D02*
X2068343D01*
X2070009D01*
Y1423244D01*
X2071676Y1424910D01*
X2004589Y1224453D02*
Y1214456D01*
X2009588D01*
X2011254Y1216122D01*
Y1222786D01*
X2009588Y1224453D01*
X2004589D01*
X2014586Y1214456D02*
Y1221120D01*
X2017918Y1224453D01*
X2021250Y1221120D01*
Y1214456D01*
Y1219454D01*
X2014586D01*
X2024583Y1214456D02*
X2027915D01*
X2026249D01*
Y1224453D01*
X2024583Y1222786D01*
X2055226Y1225834D02*
X2053560Y1227501D01*
X2050228D01*
X2048562Y1225834D01*
Y1219170D01*
X2050228Y1217504D01*
X2053560D01*
X2055226Y1219170D01*
X2058558Y1225834D02*
X2060224Y1227501D01*
X2063557D01*
X2065223Y1225834D01*
Y1224168D01*
X2063557Y1222502D01*
X2065223Y1220836D01*
Y1219170D01*
X2063557Y1217504D01*
X2060224D01*
X2058558Y1219170D01*
Y1220836D01*
X2060224Y1222502D01*
X2058558Y1224168D01*
Y1225834D01*
X2060224Y1222502D02*
X2063557D01*
X2098518Y1174100D02*
X2096852Y1172434D01*
Y1169102D01*
X2098518Y1167436D01*
X2105182D01*
X2106848Y1169102D01*
Y1172434D01*
X2105182Y1174100D01*
X2096852Y1177432D02*
Y1184097D01*
X2098518D01*
X2105182Y1177432D01*
X2106848D01*
X2148048Y1334618D02*
X2146382Y1332952D01*
Y1329620D01*
X2148048Y1327953D01*
X2154712D01*
X2156378Y1329620D01*
Y1332952D01*
X2154712Y1334618D01*
X2146382Y1344615D02*
X2148048Y1341283D01*
X2151380Y1337950D01*
X2154712D01*
X2156378Y1339616D01*
Y1342949D01*
X2154712Y1344615D01*
X2153046D01*
X2151380Y1342949D01*
Y1337950D01*
X2165320Y1418702D02*
X2163654Y1417036D01*
Y1413704D01*
X2165320Y1412038D01*
X2171984D01*
X2173651Y1413704D01*
Y1417036D01*
X2171984Y1418702D01*
X2163654Y1428699D02*
Y1422034D01*
X2168652D01*
X2166986Y1425367D01*
Y1427033D01*
X2168652Y1428699D01*
X2171984D01*
X2173651Y1427033D01*
Y1423700D01*
X2171984Y1422034D01*
X2147794Y1414384D02*
X2146128Y1412718D01*
Y1409386D01*
X2147794Y1407720D01*
X2154458D01*
X2156125Y1409386D01*
Y1412718D01*
X2154458Y1414384D01*
X2156125Y1422715D02*
X2146128D01*
X2151126Y1417716D01*
Y1424381D01*
X2169638Y1498712D02*
X2167972Y1497046D01*
Y1493714D01*
X2169638Y1492047D01*
X2176302D01*
X2177968Y1493714D01*
Y1497046D01*
X2176302Y1498712D01*
X2169638Y1502044D02*
X2167972Y1503710D01*
Y1507043D01*
X2169638Y1508709D01*
X2171304D01*
X2172970Y1507043D01*
Y1505376D01*
Y1507043D01*
X2174636Y1508709D01*
X2176302D01*
X2177968Y1507043D01*
Y1503710D01*
X2176302Y1502044D01*
X2150080Y1500744D02*
X2148414Y1499078D01*
Y1495746D01*
X2150080Y1494079D01*
X2156744D01*
X2158410Y1495746D01*
Y1499078D01*
X2156744Y1500744D01*
X2158410Y1510741D02*
Y1504076D01*
X2151746Y1510741D01*
X2150080D01*
X2148414Y1509075D01*
Y1505742D01*
X2150080Y1504076D01*
X1965676Y1453642D02*
X1964010Y1451976D01*
Y1448644D01*
X1965676Y1446978D01*
X1972340D01*
X1974007Y1448644D01*
Y1451976D01*
X1972340Y1453642D01*
X1974007Y1456974D02*
Y1460307D01*
Y1458640D01*
X1964010D01*
X1965676Y1456974D01*
D12*
X2138466Y1444186D02*
G03*
X2139466Y1444186I500J0D01*
G01*
D02*
G03*
X2138466Y1444186I-500J0D01*
G01*
D02*
G03*
X2139466Y1444186I500J0D01*
G01*
X2115710Y1158788D02*
Y1163788D01*
X2133710Y1158788D02*
Y1163788D01*
X2185376Y1240892D02*
X2210776D01*
X2185376D02*
Y1342492D01*
X2210776Y1240892D02*
Y1342492D01*
X2185376D02*
X2210776D01*
X2185416Y1448816D02*
X2210816D01*
Y1347216D02*
Y1448816D01*
X2185416Y1347216D02*
Y1448816D01*
Y1347216D02*
X2210816D01*
X1899896Y1653366D02*
Y1663366D01*
X1894896Y1658366D02*
X1904896D01*
X1929396Y1738366D02*
X2209396D01*
X1929396Y1578366D02*
X2209396D01*
X1929396Y1680166D02*
Y1738366D01*
X2209396Y1680166D02*
Y1738366D01*
Y1578366D02*
Y1636566D01*
X1929396Y1578366D02*
Y1636566D01*
X2147262Y1222086D02*
X2239762D01*
Y1131986D02*
Y1222086D01*
X2147262Y1131986D02*
X2239762D01*
X2147262D02*
Y1222086D01*
X1972750Y1478906D02*
Y1479906D01*
X1964250Y1478906D02*
Y1479906D01*
D13*
X2142012Y1157986D02*
G03*
X2142012Y1157986I-1250J0D01*
G01*
D14*
X1965750Y1502641D02*
X1971250D01*
M02*
