G04*
G04 #@! TF.GenerationSoftware,Altium Limited,Altium Designer,20.2.7 (254)*
G04*
G04 Layer_Color=255*
%FSLAX44Y44*%
%MOMM*%
G71*
G04*
G04 #@! TF.SameCoordinates,4D7A2DC3-99A8-4A5B-9679-2B55FC54A80C*
G04*
G04*
G04 #@! TF.FilePolarity,Positive*
G04*
G01*
G75*
%ADD39R,0.7000X1.8000*%
%ADD40R,1.8000X0.7000*%
%ADD41R,1.1500X1.3500*%
%ADD42R,0.8500X0.8500*%
%ADD43R,0.9000X0.8000*%
%ADD44R,0.6000X0.2400*%
%ADD45R,1.6500X2.4000*%
%ADD46R,0.2500X0.6000*%
%ADD47R,2.0000X1.6500*%
%ADD48R,0.8500X0.8500*%
%ADD49R,1.4500X1.5500*%
%ADD50R,1.1000X2.0000*%
%ADD51R,2.0000X1.1000*%
%ADD52R,4.5000X1.5000*%
%ADD53R,1.1000X1.0000*%
%ADD54R,2.6000X3.5600*%
%ADD55R,1.8000X0.8000*%
%ADD56R,0.7200X0.6900*%
%ADD57R,1.0500X1.0000*%
%ADD59C,0.5000*%
%ADD60R,1.5000X1.5000*%
%ADD61C,1.5000*%
%ADD62R,1.7000X1.7000*%
%ADD63C,1.7000*%
D39*
X2019216Y1399178D02*
D03*
X2029216D02*
D03*
X2039216D02*
D03*
X2049216D02*
D03*
X2059216D02*
D03*
X2069216D02*
D03*
X2079216D02*
D03*
X2089216D02*
D03*
Y1246178D02*
D03*
X2079216D02*
D03*
X2069216D02*
D03*
X2059216D02*
D03*
D40*
X2128216Y1380178D02*
D03*
Y1370178D02*
D03*
Y1360178D02*
D03*
Y1350178D02*
D03*
Y1340178D02*
D03*
Y1290178D02*
D03*
Y1280178D02*
D03*
Y1270178D02*
D03*
X1980216Y1380178D02*
D03*
Y1370178D02*
D03*
Y1360178D02*
D03*
Y1350178D02*
D03*
Y1340178D02*
D03*
Y1330178D02*
D03*
Y1320178D02*
D03*
Y1310178D02*
D03*
Y1300178D02*
D03*
Y1290178D02*
D03*
Y1280178D02*
D03*
Y1270178D02*
D03*
X2029966Y1444186D02*
D03*
Y1532186D02*
D03*
X2124966D02*
D03*
Y1444186D02*
D03*
D41*
X1984134Y1488186D02*
D03*
X2001634D02*
D03*
D42*
X2168856Y1356958D02*
D03*
Y1367958D02*
D03*
D43*
X2151126Y1369458D02*
D03*
Y1356958D02*
D03*
Y1396808D02*
D03*
Y1384308D02*
D03*
X2153412Y1533206D02*
D03*
Y1520706D02*
D03*
D44*
X2050542Y1170620D02*
D03*
Y1165620D02*
D03*
Y1160620D02*
D03*
Y1155620D02*
D03*
Y1150620D02*
D03*
X2078542D02*
D03*
Y1155620D02*
D03*
Y1160620D02*
D03*
Y1165620D02*
D03*
Y1170620D02*
D03*
D45*
X2064542Y1160620D02*
D03*
D46*
X2067042Y1175120D02*
D03*
X2062042D02*
D03*
X2067042Y1146120D02*
D03*
X2062042D02*
D03*
D47*
X2124710Y1146538D02*
D03*
Y1176038D02*
D03*
D48*
X2111082Y1207770D02*
D03*
X2122082D02*
D03*
X2085682D02*
D03*
X2096682D02*
D03*
D49*
X2066392Y1201420D02*
D03*
X2047392D02*
D03*
D50*
X2019932Y1172080D02*
D03*
X1971932D02*
D03*
D51*
X1995932Y1196080D02*
D03*
Y1148080D02*
D03*
D52*
X1926336Y1270508D02*
D03*
Y1243838D02*
D03*
Y1297178D02*
D03*
Y1547876D02*
D03*
Y1494536D02*
D03*
Y1521206D02*
D03*
D53*
X2168906Y1384808D02*
D03*
Y1399308D02*
D03*
X2172462Y1535706D02*
D03*
Y1521206D02*
D03*
D54*
X1922896Y1658366D02*
D03*
X2215896D02*
D03*
D55*
X2029966Y1455186D02*
D03*
Y1466186D02*
D03*
Y1477186D02*
D03*
Y1488186D02*
D03*
Y1499186D02*
D03*
Y1510186D02*
D03*
Y1521186D02*
D03*
X2124966D02*
D03*
Y1510186D02*
D03*
Y1499186D02*
D03*
Y1488186D02*
D03*
Y1477186D02*
D03*
Y1466186D02*
D03*
Y1455186D02*
D03*
D56*
X1968500Y1521191D02*
D03*
Y1511091D02*
D03*
D57*
Y1488406D02*
D03*
Y1470406D02*
D03*
D59*
X1915856Y1754458D02*
D03*
X2225856D02*
D03*
X1915856Y1144458D02*
D03*
D60*
X2198076Y1329792D02*
D03*
X2198116Y1359916D02*
D03*
D61*
X2198076Y1304392D02*
D03*
Y1278992D02*
D03*
Y1253592D02*
D03*
X2198116Y1385316D02*
D03*
Y1410716D02*
D03*
Y1436116D02*
D03*
D62*
X2159762Y1157986D02*
D03*
D63*
Y1196086D02*
D03*
M02*
