M48
;Layer_Color=9474304
;FILE_FORMAT=4:4
METRIC,TZ
;TYPE=PLATED
T1F00S00C0.3000
T3F00S00C0.7000
T5F00S00C0.9000
T6F00S00C1.0000
T7F00S00C1.1000
%
T01
X1986856Y1244458
X1996038Y1254458
X2093356Y1304458
X2085856Y1314458
X2113856Y1351958
X2145856Y1284458
X2018284Y1537208
X1962801Y1439458
T03
X2164315Y1562758
Y1582758
T05
X2048256Y1429258
X2073656
X2099056
X2124456
X1910734Y1420158
Y1394758
Y1369358
Y1343958
T06
X1916176Y1537358
Y1562358
Y1587358
T07
X1910734Y1213658
Y1239058
Y1264458
Y1289858
Y1315258
X1964525Y1537358
Y1562758
M30
