M48
;Layer_Color=9474304
;FILE_FORMAT=4:4
METRIC,TZ
;TYPE=PLATED
T1F00S00C0.3000
T2F00S00C0.5000
T3F00S00C0.9000
T4F00S00C1.2000
;TYPE=NON_PLATED
T5F00S00C2.5000
%
T01
X1960000Y1160000
X2000000
X2064258Y1166114
X2120000Y1160000
X2200000
X2220000Y1200000
X2180000
X2140000
X2120000Y1240000
X2160000
X2200000
X2220000Y1280000
X2180000
X2100000
X2060000
X2020000
X1995856Y1284458
Y1274458
Y1264458
Y1254458
X1985856
X2000000Y1240000
X2040000
X2060000Y1360000
X2020000
X1985856Y1454458
Y1464458
Y1474458
X1995856
X2005856
Y1509458
X1995856
X1985856
Y1534458
X1995856
X2005856
X2000000Y1560000
X2080000
X2120000
X2160000
X2200000
X2220000Y1520000
X2200000Y1480000
X2160000
X2180000Y1440000
X2140000
X2100000
X2080000Y1480000
X2100000Y1520000
X2060000
X2120000Y1400000
X2220000Y1360000
X1940000
X1935856Y1314458
X1945856
X1955856
Y1304458
Y1294458
Y1284458
X1965856
Y1254458
X1975856
X1955856
Y1244458
Y1234458
Y1224458
X1945856
X1935856
X1925856
X1915856
X1905856
X1940000Y1200000
X1980000
X1925856Y1314458
X1915856
X1905856
X1920000Y1400000
X1940000Y1440000
X1955856Y1454458
Y1464458
Y1474458
Y1484458
Y1494458
Y1504458
Y1534458
X1965856
X1975856
X1955856Y1544458
Y1554458
Y1564458
X1945856
X1935856
X1925856
X1915856
X1905856
Y1474458
X1915856
X1925856
X1935856
X1945856
X1965856Y1454458
X1975856
X1980000Y1440000
Y1600000
X1940000
Y1680000
X1980000
X1960000Y1720000
X1920000
X2000000
X2040000
X2080000
X2120000
X2160000
X2200000
X2180000Y1680000
X2140000
X2160000Y1640000
X2180000Y1600000
X2220000
X2140000
X2100000
X2060000
X2020000
X2000000Y1640000
T02
X2092198Y1157986
X2104644Y1146556
X2135378Y1207770
X2047240Y1215136
X2002028Y1340358
X2091944Y1350518
X2105406Y1376934
X2071624Y1437386
T03
X2198076Y1253592
Y1278992
Y1304392
Y1329792
X2198116Y1359916
Y1385316
Y1410716
Y1436116
T04
X2159762Y1157986
Y1196086
T05
X1915856Y1144458
Y1754458
X2225856
M30
