G04*
G04 #@! TF.GenerationSoftware,Altium Limited,Altium Designer,20.2.7 (254)*
G04*
G04 Layer_Color=2752767*
%FSLAX44Y44*%
%MOMM*%
G71*
G04*
G04 #@! TF.SameCoordinates,3AAC9187-E8BA-4CE9-B87A-6CD4D1A61E21*
G04*
G04*
G04 #@! TF.FilePolarity,Positive*
G04*
G01*
G75*
%ADD66C,0.0508*%
%ADD67C,0.0677*%
D66*
X1911824Y1248626D02*
Y1252690D01*
X1915888D01*
Y1248626D01*
X1911824D01*
Y1274026D02*
Y1278090D01*
X1915888D01*
Y1274026D01*
X1911824D01*
Y1299426D02*
Y1303490D01*
X1915888D01*
Y1299426D01*
X1911824D01*
Y1324826D02*
Y1328890D01*
X1915888D01*
Y1324826D01*
X1911824D01*
Y1350226D02*
Y1354290D01*
X1915888D01*
Y1350226D01*
X1911824D01*
X2148598Y1176812D02*
X2146566Y1180876D01*
X2150630D01*
X2148598Y1176812D01*
X2188198D02*
X2186166Y1180876D01*
X2190230D01*
X2188198Y1176812D01*
X2225856Y1172426D02*
X2226872Y1173442D01*
X2227888D01*
X2226872Y1174458D01*
X2227888Y1175474D01*
X2226872D01*
X2225856Y1176490D01*
X2224840Y1175474D01*
X2223824D01*
X2224840Y1174458D01*
X2223824Y1173442D01*
X2224840D01*
X2225856Y1172426D01*
X2213824Y1462426D02*
X2214840Y1464458D01*
X2213824Y1466490D01*
X2215856Y1465474D01*
X2217888Y1466490D01*
X2216872Y1464458D01*
X2217888Y1462426D01*
X2215856Y1463442D01*
X2213824Y1462426D01*
Y1442426D02*
X2214840Y1444458D01*
X2213824Y1446490D01*
X2215856Y1445474D01*
X2217888Y1446490D01*
X2216872Y1444458D01*
X2217888Y1442426D01*
X2215856Y1443442D01*
X2213824Y1442426D01*
X1915856Y1752426D02*
X1916872Y1753442D01*
X1917888D01*
X1916872Y1754458D01*
X1917888Y1755474D01*
X1916872D01*
X1915856Y1756490D01*
X1914840Y1755474D01*
X1913824D01*
X1914840Y1754458D01*
X1913824Y1753442D01*
X1914840D01*
X1915856Y1752426D01*
X2225856D02*
X2226872Y1753442D01*
X2227888D01*
X2226872Y1754458D01*
X2227888Y1755474D01*
X2226872D01*
X2225856Y1756490D01*
X2224840Y1755474D01*
X2223824D01*
X2224840Y1754458D01*
X2223824Y1753442D01*
X2224840D01*
X2225856Y1752426D01*
X2198984Y1698984D02*
Y1697968D01*
X2201016D01*
Y1698984D01*
X2202032D01*
Y1701016D01*
X2201016D01*
Y1702032D01*
X2198984D01*
Y1701016D01*
X2197968D01*
Y1698984D01*
X2198984D01*
Y1598984D02*
Y1597968D01*
X2201016D01*
Y1598984D01*
X2202032D01*
Y1601016D01*
X2201016D01*
Y1602032D01*
X2198984D01*
Y1601016D01*
X2197968D01*
Y1598984D01*
X2198984D01*
X2223984Y1548984D02*
Y1547968D01*
X2226016D01*
Y1548984D01*
X2227032D01*
Y1551016D01*
X2226016D01*
Y1552032D01*
X2223984D01*
Y1551016D01*
X2222968D01*
Y1548984D01*
X2223984D01*
X2198984Y1498984D02*
Y1497968D01*
X2201016D01*
Y1498984D01*
X2202032D01*
Y1501016D01*
X2201016D01*
Y1502032D01*
X2198984D01*
Y1501016D01*
X2197968D01*
Y1498984D01*
X2198984D01*
Y1198984D02*
Y1197968D01*
X2201016D01*
Y1198984D01*
X2202032D01*
Y1201016D01*
X2201016D01*
Y1202032D01*
X2198984D01*
Y1201016D01*
X2197968D01*
Y1198984D01*
X2198984D01*
X2148984Y1698984D02*
Y1697968D01*
X2151016D01*
Y1698984D01*
X2152032D01*
Y1701016D01*
X2151016D01*
Y1702032D01*
X2148984D01*
Y1701016D01*
X2147968D01*
Y1698984D01*
X2148984D01*
X2173984Y1648984D02*
Y1647968D01*
X2176016D01*
Y1648984D01*
X2177032D01*
Y1651016D01*
X2176016D01*
Y1652032D01*
X2173984D01*
Y1651016D01*
X2172968D01*
Y1648984D01*
X2173984D01*
X2148984Y1598984D02*
Y1597968D01*
X2151016D01*
Y1598984D01*
X2152032D01*
Y1601016D01*
X2151016D01*
Y1602032D01*
X2148984D01*
Y1601016D01*
X2147968D01*
Y1598984D01*
X2148984D01*
X2173984Y1548984D02*
Y1547968D01*
X2176016D01*
Y1548984D01*
X2177032D01*
Y1551016D01*
X2176016D01*
Y1552032D01*
X2173984D01*
Y1551016D01*
X2172968D01*
Y1548984D01*
X2173984D01*
X2148984Y1398984D02*
Y1397968D01*
X2151016D01*
Y1398984D01*
X2152032D01*
Y1401016D01*
X2151016D01*
Y1402032D01*
X2148984D01*
Y1401016D01*
X2147968D01*
Y1398984D01*
X2148984D01*
Y1198984D02*
Y1197968D01*
X2151016D01*
Y1198984D01*
X2152032D01*
Y1201016D01*
X2151016D01*
Y1202032D01*
X2148984D01*
Y1201016D01*
X2147968D01*
Y1198984D01*
X2148984D01*
X2098984Y1698984D02*
Y1697968D01*
X2101016D01*
Y1698984D01*
X2102032D01*
Y1701016D01*
X2101016D01*
Y1702032D01*
X2098984D01*
Y1701016D01*
X2097968D01*
Y1698984D01*
X2098984D01*
Y1598984D02*
Y1597968D01*
X2101016D01*
Y1598984D01*
X2102032D01*
Y1601016D01*
X2101016D01*
Y1602032D01*
X2098984D01*
Y1601016D01*
X2097968D01*
Y1598984D01*
X2098984D01*
X2123984Y1548984D02*
Y1547968D01*
X2126016D01*
Y1548984D01*
X2127032D01*
Y1551016D01*
X2126016D01*
Y1552032D01*
X2123984D01*
Y1551016D01*
X2122968D01*
Y1548984D01*
X2123984D01*
Y1448984D02*
Y1447968D01*
X2126016D01*
Y1448984D01*
X2127032D01*
Y1451016D01*
X2126016D01*
Y1452032D01*
X2123984D01*
Y1451016D01*
X2122968D01*
Y1448984D01*
X2123984D01*
Y1348984D02*
Y1347968D01*
X2126016D01*
Y1348984D01*
X2127032D01*
Y1351016D01*
X2126016D01*
Y1352032D01*
X2123984D01*
Y1351016D01*
X2122968D01*
Y1348984D01*
X2123984D01*
Y1248984D02*
Y1247968D01*
X2126016D01*
Y1248984D01*
X2127032D01*
Y1251016D01*
X2126016D01*
Y1252032D01*
X2123984D01*
Y1251016D01*
X2122968D01*
Y1248984D01*
X2123984D01*
X2048984Y1698984D02*
Y1697968D01*
X2051016D01*
Y1698984D01*
X2052032D01*
Y1701016D01*
X2051016D01*
Y1702032D01*
X2048984D01*
Y1701016D01*
X2047968D01*
Y1698984D01*
X2048984D01*
Y1598984D02*
Y1597968D01*
X2051016D01*
Y1598984D01*
X2052032D01*
Y1601016D01*
X2051016D01*
Y1602032D01*
X2048984D01*
Y1601016D01*
X2047968D01*
Y1598984D01*
X2048984D01*
X2073984Y1548984D02*
Y1547968D01*
X2076016D01*
Y1548984D01*
X2077032D01*
Y1551016D01*
X2076016D01*
Y1552032D01*
X2073984D01*
Y1551016D01*
X2072968D01*
Y1548984D01*
X2073984D01*
X2048984Y1298984D02*
Y1297968D01*
X2051016D01*
Y1298984D01*
X2052032D01*
Y1301016D01*
X2051016D01*
Y1302032D01*
X2048984D01*
Y1301016D01*
X2047968D01*
Y1298984D01*
X2048984D01*
X2073984Y1248984D02*
Y1247968D01*
X2076016D01*
Y1248984D01*
X2077032D01*
Y1251016D01*
X2076016D01*
Y1252032D01*
X2073984D01*
Y1251016D01*
X2072968D01*
Y1248984D01*
X2073984D01*
X1998984Y1698984D02*
Y1697968D01*
X2001016D01*
Y1698984D01*
X2002032D01*
Y1701016D01*
X2001016D01*
Y1702032D01*
X1998984D01*
Y1701016D01*
X1997968D01*
Y1698984D01*
X1998984D01*
Y1598984D02*
Y1597968D01*
X2001016D01*
Y1598984D01*
X2002032D01*
Y1601016D01*
X2001016D01*
Y1602032D01*
X1998984D01*
Y1601016D01*
X1997968D01*
Y1598984D01*
X1998984D01*
X2023984Y1548984D02*
Y1547968D01*
X2026016D01*
Y1548984D01*
X2027032D01*
Y1551016D01*
X2026016D01*
Y1552032D01*
X2023984D01*
Y1551016D01*
X2022968D01*
Y1548984D01*
X2023984D01*
Y1448984D02*
Y1447968D01*
X2026016D01*
Y1448984D01*
X2027032D01*
Y1451016D01*
X2026016D01*
Y1452032D01*
X2023984D01*
Y1451016D01*
X2022968D01*
Y1448984D01*
X2023984D01*
X1998984Y1298984D02*
Y1297968D01*
X2001016D01*
Y1298984D01*
X2002032D01*
Y1301016D01*
X2001016D01*
Y1302032D01*
X1998984D01*
Y1301016D01*
X1997968D01*
Y1298984D01*
X1998984D01*
X2023984Y1248984D02*
Y1247968D01*
X2026016D01*
Y1248984D01*
X2027032D01*
Y1251016D01*
X2026016D01*
Y1252032D01*
X2023984D01*
Y1251016D01*
X2022968D01*
Y1248984D01*
X2023984D01*
X1998984Y1198984D02*
Y1197968D01*
X2001016D01*
Y1198984D01*
X2002032D01*
Y1201016D01*
X2001016D01*
Y1202032D01*
X1998984D01*
Y1201016D01*
X1997968D01*
Y1198984D01*
X1998984D01*
X1948984Y1698984D02*
Y1697968D01*
X1951016D01*
Y1698984D01*
X1952032D01*
Y1701016D01*
X1951016D01*
Y1702032D01*
X1948984D01*
Y1701016D01*
X1947968D01*
Y1698984D01*
X1948984D01*
X1973984Y1648984D02*
Y1647968D01*
X1976016D01*
Y1648984D01*
X1977032D01*
Y1651016D01*
X1976016D01*
Y1652032D01*
X1973984D01*
Y1651016D01*
X1972968D01*
Y1648984D01*
X1973984D01*
Y1548984D02*
Y1547968D01*
X1976016D01*
Y1548984D01*
X1977032D01*
Y1551016D01*
X1976016D01*
Y1552032D01*
X1973984D01*
Y1551016D01*
X1972968D01*
Y1548984D01*
X1973984D01*
Y1448984D02*
Y1447968D01*
X1976016D01*
Y1448984D01*
X1977032D01*
Y1451016D01*
X1976016D01*
Y1452032D01*
X1973984D01*
Y1451016D01*
X1972968D01*
Y1448984D01*
X1973984D01*
Y1248984D02*
Y1247968D01*
X1976016D01*
Y1248984D01*
X1977032D01*
Y1251016D01*
X1976016D01*
Y1252032D01*
X1973984D01*
Y1251016D01*
X1972968D01*
Y1248984D01*
X1973984D01*
X1988058Y1493266D02*
Y1492250D01*
X1990090D01*
Y1493266D01*
X1991106D01*
Y1495298D01*
X1990090D01*
Y1496314D01*
X1988058D01*
Y1495298D01*
X1987042D01*
Y1493266D01*
X1988058D01*
X1977644Y1493012D02*
Y1491996D01*
X1979676D01*
Y1493012D01*
X1980692D01*
Y1495044D01*
X1979676D01*
Y1496060D01*
X1977644D01*
Y1495044D01*
X1976628D01*
Y1493012D01*
X1977644D01*
X1967738Y1492250D02*
Y1491234D01*
X1969770D01*
Y1492250D01*
X1970786D01*
Y1494282D01*
X1969770D01*
Y1495298D01*
X1967738D01*
Y1494282D01*
X1966722D01*
Y1492250D01*
X1967738D01*
X1940052Y1492758D02*
Y1491742D01*
X1942084D01*
Y1492758D01*
X1943100D01*
Y1494790D01*
X1942084D01*
Y1495806D01*
X1940052D01*
Y1494790D01*
X1939036D01*
Y1492758D01*
X1940052D01*
X1938020Y1484630D02*
Y1483614D01*
X1940052D01*
Y1484630D01*
X1941068D01*
Y1486662D01*
X1940052D01*
Y1487678D01*
X1938020D01*
Y1486662D01*
X1937004D01*
Y1484630D01*
X1938020D01*
X1930908Y1475740D02*
Y1474724D01*
X1932940D01*
Y1475740D01*
X1933956D01*
Y1477772D01*
X1932940D01*
Y1478788D01*
X1930908D01*
Y1477772D01*
X1929892D01*
Y1475740D01*
X1930908D01*
X1917700Y1475232D02*
Y1474216D01*
X1919732D01*
Y1475232D01*
X1920748D01*
Y1477264D01*
X1919732D01*
Y1478280D01*
X1917700D01*
Y1477264D01*
X1916684D01*
Y1475232D01*
X1917700D01*
X1906778Y1474724D02*
Y1473708D01*
X1908810D01*
Y1474724D01*
X1909826D01*
Y1476756D01*
X1908810D01*
Y1477772D01*
X1906778D01*
Y1476756D01*
X1905762D01*
Y1474724D01*
X1906778D01*
X1994154Y1525270D02*
Y1524254D01*
X1996186D01*
Y1525270D01*
X1997202D01*
Y1527302D01*
X1996186D01*
Y1528318D01*
X1994154D01*
Y1527302D01*
X1993138D01*
Y1525270D01*
X1994154D01*
X1987042Y1517142D02*
Y1516126D01*
X1989074D01*
Y1517142D01*
X1990090D01*
Y1519174D01*
X1989074D01*
Y1520190D01*
X1987042D01*
Y1519174D01*
X1986026D01*
Y1517142D01*
X1987042D01*
X1974596Y1517396D02*
Y1516380D01*
X1976628D01*
Y1517396D01*
X1977644D01*
Y1519428D01*
X1976628D01*
Y1520444D01*
X1974596D01*
Y1519428D01*
X1973580D01*
Y1517396D01*
X1974596D01*
X1964182Y1518412D02*
Y1517396D01*
X1966214D01*
Y1518412D01*
X1967230D01*
Y1520444D01*
X1966214D01*
Y1521460D01*
X1964182D01*
Y1520444D01*
X1963166D01*
Y1518412D01*
X1964182D01*
X1952244Y1519682D02*
Y1518666D01*
X1954276D01*
Y1519682D01*
X1955292D01*
Y1521714D01*
X1954276D01*
Y1522730D01*
X1952244D01*
Y1521714D01*
X1951228D01*
Y1519682D01*
X1952244D01*
X1943100Y1517396D02*
Y1516380D01*
X1945132D01*
Y1517396D01*
X1946148D01*
Y1519428D01*
X1945132D01*
Y1520444D01*
X1943100D01*
Y1519428D01*
X1942084D01*
Y1517396D01*
X1943100D01*
X1934718Y1525778D02*
Y1524762D01*
X1936750D01*
Y1525778D01*
X1937766D01*
Y1527810D01*
X1936750D01*
Y1528826D01*
X1934718D01*
Y1527810D01*
X1933702D01*
Y1525778D01*
X1934718D01*
X1927860Y1533906D02*
Y1532890D01*
X1929892D01*
Y1533906D01*
X1930908D01*
Y1535938D01*
X1929892D01*
Y1536954D01*
X1927860D01*
Y1535938D01*
X1926844D01*
Y1533906D01*
X1927860D01*
X1917192Y1535176D02*
Y1534160D01*
X1919224D01*
Y1535176D01*
X1920240D01*
Y1537208D01*
X1919224D01*
Y1538224D01*
X1917192D01*
Y1537208D01*
X1916176D01*
Y1535176D01*
X1917192D01*
X1904492Y1534922D02*
Y1533906D01*
X1906524D01*
Y1534922D01*
X1907540D01*
Y1536954D01*
X1906524D01*
Y1537970D01*
X1904492D01*
Y1536954D01*
X1903476D01*
Y1534922D01*
X1904492D01*
X1971040Y1199896D02*
Y1198880D01*
X1973072D01*
Y1199896D01*
X1974088D01*
Y1201928D01*
X1973072D01*
Y1202944D01*
X1971040D01*
Y1201928D01*
X1970024D01*
Y1199896D01*
X1971040D01*
X1971294Y1188466D02*
Y1187450D01*
X1973326D01*
Y1188466D01*
X1974342D01*
Y1190498D01*
X1973326D01*
Y1191514D01*
X1971294D01*
Y1190498D01*
X1970278D01*
Y1188466D01*
X1971294D01*
X1960118Y1183894D02*
Y1182878D01*
X1962150D01*
Y1183894D01*
X1963166D01*
Y1185926D01*
X1962150D01*
Y1186942D01*
X1960118D01*
Y1185926D01*
X1959102D01*
Y1183894D01*
X1960118D01*
X1944878Y1184656D02*
Y1183640D01*
X1946910D01*
Y1184656D01*
X1947926D01*
Y1186688D01*
X1946910D01*
Y1187704D01*
X1944878D01*
Y1186688D01*
X1943862D01*
Y1184656D01*
X1944878D01*
X1909572Y1166622D02*
Y1165606D01*
X1911604D01*
Y1166622D01*
X1912620D01*
Y1168654D01*
X1911604D01*
Y1169670D01*
X1909572D01*
Y1168654D01*
X1908556D01*
Y1166622D01*
X1909572D01*
X1922526Y1167638D02*
Y1166622D01*
X1924558D01*
Y1167638D01*
X1925574D01*
Y1169670D01*
X1924558D01*
Y1170686D01*
X1922526D01*
Y1169670D01*
X1921510D01*
Y1167638D01*
X1922526D01*
X1932432Y1170686D02*
Y1169670D01*
X1934464D01*
Y1170686D01*
X1935480D01*
Y1172718D01*
X1934464D01*
Y1173734D01*
X1932432D01*
Y1172718D01*
X1931416D01*
Y1170686D01*
X1932432D01*
X1933194Y1182116D02*
Y1181100D01*
X1935226D01*
Y1182116D01*
X1936242D01*
Y1184148D01*
X1935226D01*
Y1185164D01*
X1933194D01*
Y1184148D01*
X1932178D01*
Y1182116D01*
X1933194D01*
X1933448Y1211326D02*
Y1210310D01*
X1935480D01*
Y1211326D01*
X1936496D01*
Y1213358D01*
X1935480D01*
Y1214374D01*
X1933448D01*
Y1213358D01*
X1932432D01*
Y1211326D01*
X1933448D01*
X1933194Y1220724D02*
Y1219708D01*
X1935226D01*
Y1220724D01*
X1936242D01*
Y1222756D01*
X1935226D01*
Y1223772D01*
X1933194D01*
Y1222756D01*
X1932178D01*
Y1220724D01*
X1933194D01*
X1927098Y1227836D02*
Y1226820D01*
X1929130D01*
Y1227836D01*
X1930146D01*
Y1229868D01*
X1929130D01*
Y1230884D01*
X1927098D01*
Y1229868D01*
X1926082D01*
Y1227836D01*
X1927098D01*
X1916684Y1228090D02*
Y1227074D01*
X1918716D01*
Y1228090D01*
X1919732D01*
Y1230122D01*
X1918716D01*
Y1231138D01*
X1916684D01*
Y1230122D01*
X1915668D01*
Y1228090D01*
X1916684D01*
X1905762D02*
Y1227074D01*
X1907794D01*
Y1228090D01*
X1908810D01*
Y1230122D01*
X1907794D01*
Y1231138D01*
X1905762D01*
Y1230122D01*
X1904746D01*
Y1228090D01*
X1905762D01*
X2073148Y1277874D02*
Y1276858D01*
X2075180D01*
Y1277874D01*
X2076196D01*
Y1279906D01*
X2075180D01*
Y1280922D01*
X2073148D01*
Y1279906D01*
X2072132D01*
Y1277874D01*
X2073148D01*
X2151840Y1484942D02*
Y1483926D01*
X2153872D01*
Y1484942D01*
X2154888D01*
Y1486974D01*
X2153872D01*
Y1487990D01*
X2151840D01*
Y1486974D01*
X2150824D01*
Y1484942D01*
X2151840D01*
X2072340Y1438442D02*
Y1437426D01*
X2074372D01*
Y1438442D01*
X2075388D01*
Y1440474D01*
X2074372D01*
Y1441490D01*
X2072340D01*
Y1440474D01*
X2071324D01*
Y1438442D01*
X2072340D01*
X2082340Y1450942D02*
Y1449926D01*
X2084372D01*
Y1450942D01*
X2085388D01*
Y1452974D01*
X2084372D01*
Y1453990D01*
X2082340D01*
Y1452974D01*
X2081324D01*
Y1450942D01*
X2082340D01*
X2062840Y1499942D02*
Y1498926D01*
X2064872D01*
Y1499942D01*
X2065888D01*
Y1501974D01*
X2064872D01*
Y1502990D01*
X2062840D01*
Y1501974D01*
X2061824D01*
Y1499942D01*
X2062840D01*
X2010840Y1364442D02*
Y1363426D01*
X2012872D01*
Y1364442D01*
X2013888D01*
Y1366474D01*
X2012872D01*
Y1367490D01*
X2010840D01*
Y1366474D01*
X2009824D01*
Y1364442D01*
X2010840D01*
X1977840Y1217442D02*
Y1216426D01*
X1979872D01*
Y1217442D01*
X1980888D01*
Y1219474D01*
X1979872D01*
Y1220490D01*
X1977840D01*
Y1219474D01*
X1976824D01*
Y1217442D01*
X1977840D01*
X1970840Y1228442D02*
Y1227426D01*
X1972872D01*
Y1228442D01*
X1973888D01*
Y1230474D01*
X1972872D01*
Y1231490D01*
X1970840D01*
Y1230474D01*
X1969824D01*
Y1228442D01*
X1970840D01*
X1969840Y1258442D02*
Y1257426D01*
X1971872D01*
Y1258442D01*
X1972888D01*
Y1260474D01*
X1971872D01*
Y1261490D01*
X1969840D01*
Y1260474D01*
X1968824D01*
Y1258442D01*
X1969840D01*
X2046840Y1287442D02*
Y1286426D01*
X2048872D01*
Y1287442D01*
X2049888D01*
Y1289474D01*
X2048872D01*
Y1290490D01*
X2046840D01*
Y1289474D01*
X2045824D01*
Y1287442D01*
X2046840D01*
X2078840Y1268192D02*
Y1267176D01*
X2080872D01*
Y1268192D01*
X2081888D01*
Y1270224D01*
X2080872D01*
Y1271240D01*
X2078840D01*
Y1270224D01*
X2077824D01*
Y1268192D01*
X2078840D01*
X2079840Y1319692D02*
Y1318676D01*
X2081872D01*
Y1319692D01*
X2082888D01*
Y1321724D01*
X2081872D01*
Y1322740D01*
X2079840D01*
Y1321724D01*
X2078824D01*
Y1319692D01*
X2079840D01*
X2048590Y1203442D02*
Y1202426D01*
X2050622D01*
Y1203442D01*
X2051638D01*
Y1205474D01*
X2050622D01*
Y1206490D01*
X2048590D01*
Y1205474D01*
X2047574D01*
Y1203442D01*
X2048590D01*
X2030340Y1195942D02*
Y1194926D01*
X2032372D01*
Y1195942D01*
X2033388D01*
Y1197974D01*
X2032372D01*
Y1198990D01*
X2030340D01*
Y1197974D01*
X2029324D01*
Y1195942D01*
X2030340D01*
X2077840Y1174442D02*
Y1173426D01*
X2079872D01*
Y1174442D01*
X2080888D01*
Y1176474D01*
X2079872D01*
Y1177490D01*
X2077840D01*
Y1176474D01*
X2076824D01*
Y1174442D01*
X2077840D01*
X2067590Y1198942D02*
Y1197926D01*
X2069622D01*
Y1198942D01*
X2070638D01*
Y1200974D01*
X2069622D01*
Y1201990D01*
X2067590D01*
Y1200974D01*
X2066574D01*
Y1198942D01*
X2067590D01*
D67*
X1915888Y1456258D02*
G03*
X1915888Y1456258I-2032J0D01*
G01*
Y1430858D02*
G03*
X1915888Y1430858I-2032J0D01*
G01*
Y1405458D02*
G03*
X1915888Y1405458I-2032J0D01*
G01*
Y1380058D02*
G03*
X1915888Y1380058I-2032J0D01*
G01*
M02*
