G04*
G04 #@! TF.GenerationSoftware,Altium Limited,Altium Designer,20.2.7 (254)*
G04*
G04 Layer_Color=8421504*
%FSLAX44Y44*%
%MOMM*%
G71*
G04*
G04 #@! TF.SameCoordinates,3AAC9187-E8BA-4CE9-B87A-6CD4D1A61E21*
G04*
G04*
G04 #@! TF.FilePolarity,Positive*
G04*
G01*
G75*
%ADD14C,0.3400*%
%ADD15R,1.4000X1.4500*%
%ADD16R,1.4000X1.2000*%
%ADD17R,1.2000X1.4000*%
%ADD18R,2.2000X1.1000*%
%ADD19R,2.2000X1.2000*%
%ADD20C,1.4000*%
%ADD21R,1.2000X1.0000*%
%ADD22R,1.4500X1.4000*%
%ADD23R,2.6000X1.4500*%
%ADD24R,1.1000X2.2000*%
%ADD25R,1.4500X1.4000*%
%ADD26R,1.3000X1.1000*%
%ADD27R,1.8000X1.6000*%
%ADD28R,3.0000X3.9600*%
%ADD29R,1.4800X1.6200*%
D14*
X2224912Y1377790D02*
D03*
Y1367790D02*
D03*
Y1357790D02*
D03*
X2216912Y1367790D02*
D03*
X2216912Y1357790D02*
D03*
X2208912Y1377790D02*
D03*
Y1367790D02*
D03*
Y1357790D02*
D03*
D15*
X2207786Y1334102D02*
D03*
X2225786D02*
D03*
X2207658Y1399540D02*
D03*
X2225658D02*
D03*
D16*
X2183856Y1474958D02*
D03*
Y1459958D02*
D03*
D17*
X1970398Y1472946D02*
D03*
X1985398D02*
D03*
D18*
X2104356Y1428958D02*
D03*
Y1516958D02*
D03*
X2009356D02*
D03*
Y1428958D02*
D03*
X1952216Y1199058D02*
D03*
Y1209058D02*
D03*
Y1219058D02*
D03*
Y1229058D02*
D03*
Y1239058D02*
D03*
Y1249058D02*
D03*
Y1259058D02*
D03*
Y1269058D02*
D03*
Y1279058D02*
D03*
Y1289058D02*
D03*
Y1299058D02*
D03*
Y1309058D02*
D03*
X2100216Y1199058D02*
D03*
Y1209058D02*
D03*
Y1219058D02*
D03*
Y1269058D02*
D03*
Y1279058D02*
D03*
Y1289058D02*
D03*
Y1299058D02*
D03*
Y1309058D02*
D03*
D19*
X2104356Y1439958D02*
D03*
Y1450958D02*
D03*
Y1461958D02*
D03*
Y1472958D02*
D03*
Y1483958D02*
D03*
Y1494958D02*
D03*
Y1505958D02*
D03*
X2009356D02*
D03*
Y1494958D02*
D03*
Y1483958D02*
D03*
Y1472958D02*
D03*
Y1461958D02*
D03*
Y1450958D02*
D03*
Y1439958D02*
D03*
D20*
X2028856Y1403458D02*
D03*
X2051304Y1366266D02*
D03*
X2069846Y1350772D02*
D03*
X2001266Y1352550D02*
D03*
X2021078Y1350772D02*
D03*
X2041856Y1384458D02*
D03*
X2124650Y1218946D02*
D03*
D21*
X2183856Y1448958D02*
D03*
Y1435958D02*
D03*
D22*
X1929135Y1199134D02*
D03*
X1930151Y1505738D02*
D03*
D23*
X1913885Y1184384D02*
D03*
Y1213884D02*
D03*
X1914901Y1490988D02*
D03*
Y1520488D02*
D03*
D24*
X2031216Y1175058D02*
D03*
X2041216D02*
D03*
X2051216D02*
D03*
X2061216D02*
D03*
Y1328058D02*
D03*
X2051216D02*
D03*
X2041216D02*
D03*
X2031216D02*
D03*
X2021216D02*
D03*
X2011216D02*
D03*
X2001216D02*
D03*
X1991216D02*
D03*
D25*
X2123126Y1283088D02*
D03*
Y1301088D02*
D03*
X2122856Y1314338D02*
D03*
Y1332338D02*
D03*
X2131060Y1505966D02*
D03*
Y1523966D02*
D03*
X1954276Y1472946D02*
D03*
Y1454946D02*
D03*
D26*
X2140966Y1296954D02*
D03*
Y1282954D02*
D03*
D27*
X2140906Y1315348D02*
D03*
Y1332348D02*
D03*
X2152904Y1522966D02*
D03*
Y1505966D02*
D03*
D28*
X1924356Y1641958D02*
D03*
X2217356D02*
D03*
D29*
X1954356Y1506518D02*
D03*
Y1489718D02*
D03*
M02*
