G04*
G04 #@! TF.GenerationSoftware,Altium Limited,Altium Designer,20.2.7 (254)*
G04*
G04 Layer_Color=255*
%FSLAX44Y44*%
%MOMM*%
G71*
G04*
G04 #@! TF.SameCoordinates,2281EFF5-857D-4E86-B53A-B943DB852D4A*
G04*
G04*
G04 #@! TF.FilePolarity,Positive*
G04*
G01*
G75*
%ADD53C,1.0000*%
%ADD65C,1.8000*%
%ADD66C,1.5000*%
%ADD67R,1.5000X1.5000*%
%ADD68R,2.1500X2.1500*%
%ADD69C,2.1500*%
%ADD70C,0.5000*%
%ADD71C,1.2000*%
%ADD72R,1.2000X1.2000*%
%ADD74R,0.2500X0.2500*%
D53*
X2048356Y1499458D02*
D03*
X1988956Y1259458D02*
D03*
X2130856Y1459458D02*
D03*
Y1439458D02*
D03*
X2123856Y1269208D02*
D03*
X2100856Y1236208D02*
D03*
X2100106Y1216958D02*
D03*
X2099606Y1198458D02*
D03*
X2099356Y1180208D02*
D03*
X2005856Y1219458D02*
D03*
X1987856Y1229458D02*
D03*
D65*
X1913856Y1250658D02*
D03*
Y1276058D02*
D03*
Y1301458D02*
D03*
Y1326858D02*
D03*
Y1352258D02*
D03*
D66*
Y1456258D02*
D03*
Y1430858D02*
D03*
Y1405458D02*
D03*
D67*
Y1380058D02*
D03*
D68*
X2148598Y1178844D02*
D03*
D69*
X2188198D02*
D03*
D70*
X2225856Y1174458D02*
D03*
X1915856Y1754458D02*
D03*
X2225856D02*
D03*
D71*
X2215856Y1464458D02*
D03*
D72*
Y1444458D02*
D03*
D74*
X2068856Y1304958D02*
D03*
X2074106Y1290708D02*
D03*
X2095856Y1304458D02*
D03*
X2101106Y1290208D02*
D03*
M02*
