G04*
G04 #@! TF.GenerationSoftware,Altium Limited,Altium Designer,20.2.7 (254)*
G04*
G04 Layer_Color=16711935*
%FSLAX44Y44*%
%MOMM*%
G71*
G04*
G04 #@! TF.SameCoordinates,2281EFF5-857D-4E86-B53A-B943DB852D4A*
G04*
G04*
G04 #@! TF.FilePolarity,Negative*
G04*
G01*
G75*
%ADD23C,1.4000*%
%ADD36C,2.2000*%
%ADD37C,1.9000*%
%ADD38R,1.9000X1.9000*%
%ADD39R,2.5500X2.5500*%
%ADD40C,2.5500*%
%ADD41C,0.9000*%
%ADD42C,1.6000*%
%ADD43R,1.6000X1.6000*%
%ADD74R,0.2500X0.2500*%
%ADD75R,2.0843X1.9316*%
G36*
X2075606Y1294333D02*
X2072606Y1294333D01*
X2072606Y1303458D01*
X2065106Y1303458D01*
X2065106Y1289208D01*
X2062106Y1289208D01*
X2062106Y1306458D01*
X2075606Y1306458D01*
X2075606Y1294333D01*
D02*
G37*
G36*
X2080856Y1289208D02*
X2067356D01*
X2067356Y1301208D01*
X2070356Y1301208D01*
X2070356Y1292208D01*
X2077856Y1292208D01*
X2077856Y1306458D01*
X2080856Y1306458D01*
X2080856Y1289208D01*
D02*
G37*
G36*
X2102606Y1293833D02*
X2099606Y1293833D01*
X2099606Y1302958D01*
X2092106Y1302958D01*
X2092106Y1288708D01*
X2089106Y1288708D01*
X2089106Y1305958D01*
X2102606Y1305958D01*
X2102606Y1293833D01*
D02*
G37*
G36*
X2107856Y1288708D02*
X2094356D01*
X2094356Y1300708D01*
X2097356Y1300708D01*
X2097356Y1291708D01*
X2104856Y1291708D01*
X2104856Y1305958D01*
X2107856Y1305958D01*
X2107856Y1288708D01*
D02*
G37*
D23*
X2048356Y1499458D02*
D03*
X1988956Y1259458D02*
D03*
X2130856Y1459458D02*
D03*
Y1439458D02*
D03*
X2123856Y1269208D02*
D03*
X2100856Y1236208D02*
D03*
X2100106Y1216958D02*
D03*
X2099606Y1198458D02*
D03*
X2099356Y1180208D02*
D03*
X2005856Y1219458D02*
D03*
X1987856Y1229458D02*
D03*
D36*
X1913856Y1250658D02*
D03*
Y1276058D02*
D03*
Y1301458D02*
D03*
Y1326858D02*
D03*
Y1352258D02*
D03*
D37*
Y1456258D02*
D03*
Y1430858D02*
D03*
Y1405458D02*
D03*
D38*
Y1380058D02*
D03*
D39*
X2148598Y1178844D02*
D03*
D40*
X2188198D02*
D03*
D41*
X2225856Y1174458D02*
D03*
X1915856Y1754458D02*
D03*
X2225856D02*
D03*
D42*
X2215856Y1464458D02*
D03*
D43*
Y1444458D02*
D03*
D74*
X2074106Y1290708D02*
D03*
X2101106Y1290208D02*
D03*
D75*
X2071464Y1297800D02*
D03*
X2098464Y1297300D02*
D03*
M02*
