G04*
G04 #@! TF.GenerationSoftware,Altium Limited,Altium Designer,20.2.7 (254)*
G04*
G04 Layer_Color=255*
%FSLAX44Y44*%
%MOMM*%
G71*
G04*
G04 #@! TF.SameCoordinates,2281EFF5-857D-4E86-B53A-B943DB852D4A*
G04*
G04*
G04 #@! TF.FilePolarity,Positive*
G04*
G01*
G75*
%ADD14R,1.4000X1.2000*%
%ADD15R,1.2000X1.4000*%
%ADD44R,1.0000X0.8000*%
%ADD45R,0.8000X1.0000*%
%ADD46R,1.1000X2.0000*%
%ADD47R,2.0000X1.1000*%
%ADD48R,0.2400X0.6000*%
%ADD49R,2.4000X1.6500*%
%ADD50R,0.6000X0.2500*%
%ADD51R,1.8000X0.7000*%
%ADD52R,1.8000X0.8000*%
%ADD53C,1.0000*%
%ADD54R,0.8000X0.6000*%
%ADD55R,1.0500X1.0000*%
%ADD56R,2.2000X1.0500*%
%ADD57R,0.7000X1.8000*%
%ADD58R,1.0500X1.0000*%
%ADD59R,0.9000X0.7000*%
%ADD60R,2.6000X3.5600*%
%ADD61R,1.0800X1.2200*%
%ADD62R,1.4500X1.2500*%
%ADD63R,0.8500X0.8500*%
%ADD65C,1.8000*%
%ADD66C,1.5000*%
%ADD67R,1.5000X1.5000*%
%ADD68R,2.1500X2.1500*%
%ADD69C,2.1500*%
%ADD70C,0.5000*%
%ADD71C,1.2000*%
%ADD72R,1.2000X1.2000*%
D14*
X2140906Y1315348D02*
D03*
Y1332348D02*
D03*
X2152904Y1522966D02*
D03*
Y1505966D02*
D03*
D15*
X2206246Y1392458D02*
D03*
X2223246D02*
D03*
D44*
X2183856Y1474958D02*
D03*
Y1459958D02*
D03*
D45*
X1970398Y1472946D02*
D03*
X1985398D02*
D03*
D46*
X2221124Y1262534D02*
D03*
X2173124D02*
D03*
D47*
X2197124Y1238534D02*
D03*
Y1286534D02*
D03*
D48*
X2198584Y1317144D02*
D03*
X2203584D02*
D03*
X2208584D02*
D03*
X2213584D02*
D03*
X2218584D02*
D03*
Y1345144D02*
D03*
X2213584D02*
D03*
X2208584D02*
D03*
X2203584D02*
D03*
X2198584D02*
D03*
D49*
X2208584Y1331144D02*
D03*
D50*
X2194084Y1333644D02*
D03*
Y1328644D02*
D03*
X2223084Y1333644D02*
D03*
Y1328644D02*
D03*
D51*
X2104356Y1428958D02*
D03*
Y1516958D02*
D03*
X2009356D02*
D03*
Y1428958D02*
D03*
X1952216Y1199058D02*
D03*
Y1209058D02*
D03*
Y1219058D02*
D03*
Y1229058D02*
D03*
Y1239058D02*
D03*
Y1249058D02*
D03*
Y1259058D02*
D03*
Y1269058D02*
D03*
Y1279058D02*
D03*
Y1289058D02*
D03*
Y1299058D02*
D03*
Y1309058D02*
D03*
X2100216Y1199058D02*
D03*
Y1209058D02*
D03*
Y1219058D02*
D03*
Y1269058D02*
D03*
Y1279058D02*
D03*
Y1289058D02*
D03*
Y1299058D02*
D03*
Y1309058D02*
D03*
D52*
X2104356Y1439958D02*
D03*
Y1450958D02*
D03*
Y1461958D02*
D03*
Y1472958D02*
D03*
Y1483958D02*
D03*
Y1494958D02*
D03*
Y1505958D02*
D03*
X2009356D02*
D03*
Y1494958D02*
D03*
Y1483958D02*
D03*
Y1472958D02*
D03*
Y1461958D02*
D03*
Y1450958D02*
D03*
Y1439958D02*
D03*
D53*
X2028856Y1403458D02*
D03*
X2051304Y1366266D02*
D03*
X2069846Y1350772D02*
D03*
X2001266Y1352550D02*
D03*
X2021078Y1350772D02*
D03*
X2041856Y1384458D02*
D03*
X2124650Y1218946D02*
D03*
D54*
X2183856Y1448958D02*
D03*
Y1435958D02*
D03*
D55*
X1929135Y1199134D02*
D03*
X1930151Y1505738D02*
D03*
D56*
X1913885Y1184384D02*
D03*
Y1213884D02*
D03*
X1914901Y1490988D02*
D03*
Y1520488D02*
D03*
D57*
X2031216Y1175058D02*
D03*
X2041216D02*
D03*
X2051216D02*
D03*
X2061216D02*
D03*
Y1328058D02*
D03*
X2051216D02*
D03*
X2041216D02*
D03*
X2031216D02*
D03*
X2021216D02*
D03*
X2011216D02*
D03*
X2001216D02*
D03*
X1991216D02*
D03*
D58*
X2123126Y1283088D02*
D03*
Y1301088D02*
D03*
X2122856Y1314338D02*
D03*
Y1332338D02*
D03*
X2131060Y1505966D02*
D03*
Y1523966D02*
D03*
X1954276Y1472946D02*
D03*
Y1454946D02*
D03*
D59*
X2140966Y1296954D02*
D03*
Y1282954D02*
D03*
D60*
X1924356Y1641958D02*
D03*
X2217356D02*
D03*
D61*
X1954356Y1506518D02*
D03*
Y1489718D02*
D03*
D62*
X2167784Y1314994D02*
D03*
Y1331994D02*
D03*
D63*
X2167434Y1377684D02*
D03*
Y1388684D02*
D03*
Y1352284D02*
D03*
Y1363284D02*
D03*
D65*
X1913856Y1250658D02*
D03*
Y1276058D02*
D03*
Y1301458D02*
D03*
Y1326858D02*
D03*
Y1352258D02*
D03*
D66*
Y1456258D02*
D03*
Y1430858D02*
D03*
Y1405458D02*
D03*
D67*
Y1380058D02*
D03*
D68*
X2148598Y1178844D02*
D03*
D69*
X2188198D02*
D03*
D70*
X2225856Y1174458D02*
D03*
X1915856Y1754458D02*
D03*
X2225856D02*
D03*
D71*
X2215856Y1464458D02*
D03*
D72*
Y1444458D02*
D03*
M02*
