G04*
G04 #@! TF.GenerationSoftware,Altium Limited,Altium Designer,20.2.7 (254)*
G04*
G04 Layer_Color=65535*
%FSLAX44Y44*%
%MOMM*%
G71*
G04*
G04 #@! TF.SameCoordinates,2281EFF5-857D-4E86-B53A-B943DB852D4A*
G04*
G04*
G04 #@! TF.FilePolarity,Positive*
G04*
G01*
G75*
%ADD10C,0.2500*%
%ADD11C,0.2540*%
%ADD12C,0.1000*%
%ADD13C,0.2000*%
G36*
X1965438Y1438075D02*
X1965266D01*
Y1437903D01*
X1965438D01*
Y1437731D01*
X1965266D01*
Y1437560D01*
X1965438D01*
Y1437388D01*
X1965266D01*
Y1437216D01*
X1965438D01*
Y1437045D01*
X1965266D01*
Y1436873D01*
X1965438D01*
Y1436701D01*
X1965266D01*
Y1436530D01*
X1965438D01*
Y1436358D01*
X1965266D01*
Y1436186D01*
X1965438D01*
Y1436015D01*
X1965266D01*
Y1435843D01*
X1965438D01*
Y1435671D01*
X1965266D01*
Y1435500D01*
X1965438D01*
Y1435328D01*
X1965266D01*
Y1435156D01*
X1965438D01*
Y1434984D01*
X1965266D01*
Y1434813D01*
X1965438D01*
Y1434641D01*
X1965266D01*
Y1434469D01*
X1965438D01*
Y1434298D01*
X1965266D01*
Y1434126D01*
X1965438D01*
Y1433954D01*
X1965266D01*
Y1433783D01*
X1965438D01*
Y1433611D01*
X1965266D01*
Y1433439D01*
X1965438D01*
Y1433268D01*
X1965266D01*
Y1433096D01*
X1965438D01*
Y1432924D01*
X1965266D01*
Y1432753D01*
X1965438D01*
Y1432581D01*
X1965266D01*
Y1432409D01*
X1965438D01*
Y1432238D01*
X1965266D01*
Y1432066D01*
X1965438D01*
Y1431894D01*
X1965266D01*
Y1431723D01*
X1965438D01*
Y1431551D01*
X1965266D01*
Y1431379D01*
X1965438D01*
Y1431207D01*
X1965266D01*
Y1431036D01*
X1965438D01*
Y1430864D01*
X1965266D01*
Y1430692D01*
X1965438D01*
Y1430521D01*
X1965266D01*
Y1430349D01*
X1965438D01*
Y1430177D01*
X1950845D01*
Y1430006D01*
X1950673D01*
Y1429834D01*
X1950502D01*
Y1429662D01*
X1950330D01*
Y1429491D01*
X1950158D01*
Y1429319D01*
X1950330D01*
Y1429147D01*
X1950158D01*
Y1428976D01*
Y1428804D01*
Y1428632D01*
X1949987D01*
Y1428461D01*
Y1428289D01*
Y1428117D01*
X1950158D01*
Y1427946D01*
X1949987D01*
Y1427774D01*
Y1427602D01*
Y1427430D01*
X1950158D01*
Y1427259D01*
X1949987D01*
Y1427087D01*
X1950158D01*
Y1426915D01*
X1949987D01*
Y1426744D01*
X1950158D01*
Y1426572D01*
X1949987D01*
Y1426400D01*
Y1426229D01*
Y1426057D01*
X1950158D01*
Y1425885D01*
Y1425714D01*
Y1425542D01*
X1950330D01*
Y1425370D01*
X1950502D01*
Y1425199D01*
Y1425027D01*
Y1424855D01*
X1951017D01*
Y1424684D01*
X1951188D01*
Y1424855D01*
X1951360D01*
Y1424684D01*
X1951875D01*
Y1424855D01*
X1952047D01*
Y1424684D01*
X1952218D01*
Y1424512D01*
X1952390D01*
Y1424684D01*
X1952562D01*
Y1424855D01*
X1952734D01*
Y1424684D01*
X1953592D01*
Y1424512D01*
X1953764D01*
Y1424684D01*
X1953935D01*
Y1424855D01*
X1954107D01*
Y1424684D01*
X1954622D01*
Y1424855D01*
X1954794D01*
Y1424684D01*
X1954965D01*
Y1424512D01*
X1955137D01*
Y1424684D01*
X1955309D01*
Y1424855D01*
X1955480D01*
Y1424684D01*
X1956339D01*
Y1424512D01*
X1956511D01*
Y1424684D01*
X1956682D01*
Y1424855D01*
X1956854D01*
Y1424684D01*
X1957369D01*
Y1424855D01*
X1957541D01*
Y1424684D01*
X1957712D01*
Y1424512D01*
X1957884D01*
Y1424684D01*
X1958056D01*
Y1424855D01*
X1958227D01*
Y1424684D01*
X1959086D01*
Y1424512D01*
X1959258D01*
Y1424684D01*
X1959429D01*
Y1424855D01*
X1959601D01*
Y1424684D01*
X1960116D01*
Y1424855D01*
X1960288D01*
Y1424684D01*
X1960459D01*
Y1424512D01*
X1960631D01*
Y1424684D01*
X1960803D01*
Y1424855D01*
X1960974D01*
Y1424684D01*
X1961833D01*
Y1424512D01*
X1962004D01*
Y1424684D01*
X1962176D01*
Y1424855D01*
X1962348D01*
Y1424684D01*
X1962863D01*
Y1424855D01*
X1963035D01*
Y1424684D01*
X1963206D01*
Y1424512D01*
X1963378D01*
Y1424684D01*
X1963549D01*
Y1424855D01*
X1963721D01*
Y1424684D01*
X1964580D01*
Y1424512D01*
X1964751D01*
Y1424684D01*
X1964923D01*
Y1424855D01*
X1965095D01*
Y1424684D01*
X1965953D01*
Y1424512D01*
X1966125D01*
Y1424684D01*
X1966296D01*
Y1424512D01*
X1966812D01*
Y1424340D01*
X1966983D01*
Y1424512D01*
X1967155D01*
Y1424340D01*
X1967327D01*
Y1424169D01*
X1967498D01*
Y1424340D01*
X1967670D01*
Y1424169D01*
X1968185D01*
Y1423997D01*
X1968357D01*
Y1423825D01*
X1968528D01*
Y1423997D01*
X1968700D01*
Y1423825D01*
X1968872D01*
Y1423653D01*
X1969043D01*
Y1423482D01*
X1969558D01*
Y1423310D01*
X1969730D01*
Y1423138D01*
X1969902D01*
Y1422967D01*
X1970073D01*
Y1422795D01*
X1970589D01*
Y1422623D01*
Y1422452D01*
X1970932D01*
Y1422280D01*
Y1422108D01*
X1971275D01*
Y1421937D01*
Y1421765D01*
Y1421593D01*
X1971447D01*
Y1421422D01*
X1971619D01*
Y1421250D01*
X1971790D01*
Y1421078D01*
X1971962D01*
Y1420907D01*
Y1420735D01*
X1972134D01*
Y1420563D01*
Y1420392D01*
X1972305D01*
Y1420220D01*
X1972477D01*
Y1420048D01*
X1972649D01*
Y1419876D01*
X1972477D01*
Y1419705D01*
X1972649D01*
Y1419533D01*
X1972820D01*
Y1419361D01*
Y1419190D01*
Y1419018D01*
X1972992D01*
Y1418846D01*
Y1418675D01*
X1973164D01*
Y1418503D01*
Y1418331D01*
X1973335D01*
Y1418160D01*
X1973164D01*
Y1417988D01*
X1973335D01*
Y1417816D01*
X1973507D01*
Y1417645D01*
X1973335D01*
Y1417473D01*
X1973507D01*
Y1417301D01*
Y1417130D01*
Y1416958D01*
X1973679D01*
Y1416786D01*
Y1416615D01*
Y1416443D01*
X1973507D01*
Y1416271D01*
X1973679D01*
Y1416100D01*
X1973851D01*
Y1415928D01*
X1973679D01*
Y1415756D01*
X1973851D01*
Y1415584D01*
Y1415413D01*
Y1415241D01*
X1974022D01*
Y1415069D01*
X1973851D01*
Y1414898D01*
Y1414726D01*
Y1414554D01*
X1974022D01*
Y1414383D01*
X1973851D01*
Y1414211D01*
Y1414039D01*
Y1413868D01*
X1974022D01*
Y1413696D01*
X1973851D01*
Y1413524D01*
Y1413353D01*
Y1413181D01*
X1974022D01*
Y1413009D01*
X1973851D01*
Y1412838D01*
Y1412666D01*
Y1412494D01*
X1974022D01*
Y1412322D01*
X1973851D01*
Y1412151D01*
Y1411979D01*
Y1411807D01*
X1974022D01*
Y1411636D01*
X1973851D01*
Y1411464D01*
Y1411292D01*
Y1411121D01*
X1974022D01*
Y1410949D01*
X1973851D01*
Y1410777D01*
Y1410606D01*
Y1410434D01*
X1973679D01*
Y1410262D01*
X1973851D01*
Y1410091D01*
X1973679D01*
Y1409919D01*
Y1409747D01*
Y1409576D01*
Y1409404D01*
Y1409232D01*
X1973507D01*
Y1409061D01*
X1973679D01*
Y1408889D01*
X1973507D01*
Y1408717D01*
Y1408545D01*
X1973335D01*
Y1408374D01*
Y1408202D01*
Y1408030D01*
Y1407859D01*
X1973164D01*
Y1407687D01*
Y1407515D01*
Y1407344D01*
X1972992D01*
Y1407172D01*
X1972820D01*
Y1407000D01*
X1972992D01*
Y1406829D01*
X1972820D01*
Y1406657D01*
X1972649D01*
Y1406485D01*
X1972477D01*
Y1406314D01*
X1972649D01*
Y1406142D01*
X1972477D01*
Y1405970D01*
X1972305D01*
Y1405798D01*
X1972134D01*
Y1405627D01*
Y1405455D01*
X1971962D01*
Y1405284D01*
Y1405112D01*
X1971790D01*
Y1404940D01*
X1971619D01*
Y1404768D01*
X1971447D01*
Y1404597D01*
X1971275D01*
Y1404425D01*
X1971104D01*
Y1404253D01*
X1970932D01*
Y1404082D01*
X1970760D01*
Y1403910D01*
X1970589D01*
Y1403738D01*
X1970073D01*
Y1403567D01*
X1969902D01*
Y1403395D01*
X1969730D01*
Y1403223D01*
X1969558D01*
Y1403052D01*
X1969387D01*
Y1403223D01*
X1969215D01*
Y1403052D01*
X1969043D01*
Y1402880D01*
X1968528D01*
Y1402708D01*
X1968013D01*
Y1402537D01*
X1967498D01*
Y1402365D01*
X1967327D01*
Y1402537D01*
X1967155D01*
Y1402365D01*
X1966640D01*
Y1402193D01*
X1966468D01*
Y1402365D01*
X1966296D01*
Y1402193D01*
X1966125D01*
Y1402021D01*
X1965953D01*
Y1402193D01*
X1965781D01*
Y1402021D01*
X1965610D01*
Y1402193D01*
X1965095D01*
Y1402021D01*
X1964236D01*
Y1402193D01*
X1964065D01*
Y1402021D01*
X1963549D01*
Y1402193D01*
X1963378D01*
Y1402021D01*
X1962863D01*
Y1402193D01*
X1962691D01*
Y1402021D01*
X1961489D01*
Y1402193D01*
X1961318D01*
Y1402021D01*
X1960803D01*
Y1402193D01*
X1960631D01*
Y1402021D01*
X1960116D01*
Y1402193D01*
X1959944D01*
Y1402021D01*
X1958742D01*
Y1402193D01*
X1958571D01*
Y1402021D01*
X1958056D01*
Y1402193D01*
X1957884D01*
Y1402021D01*
X1957369D01*
Y1402193D01*
X1957197D01*
Y1402021D01*
X1955995D01*
Y1402193D01*
X1955824D01*
Y1402021D01*
X1955309D01*
Y1402193D01*
X1955137D01*
Y1402021D01*
X1954622D01*
Y1402193D01*
X1954450D01*
Y1402021D01*
X1953249D01*
Y1402193D01*
X1953077D01*
Y1402021D01*
X1952562D01*
Y1402193D01*
X1952390D01*
Y1402021D01*
X1951875D01*
Y1402193D01*
X1951703D01*
Y1402021D01*
X1950502D01*
Y1402193D01*
X1950330D01*
Y1402021D01*
X1949815D01*
Y1402193D01*
X1949643D01*
Y1402021D01*
X1949128D01*
Y1402193D01*
X1948957D01*
Y1402021D01*
X1947755D01*
Y1402193D01*
X1947583D01*
Y1402021D01*
X1947068D01*
Y1402193D01*
X1946896D01*
Y1402021D01*
X1946381D01*
Y1402193D01*
X1946210D01*
Y1402021D01*
X1945008D01*
Y1402193D01*
X1944836D01*
Y1402021D01*
X1944321D01*
Y1402193D01*
X1944149D01*
Y1402021D01*
X1943634D01*
Y1402193D01*
X1943463D01*
Y1402021D01*
X1943291D01*
Y1402193D01*
X1943119D01*
Y1402365D01*
X1943291D01*
Y1402537D01*
X1943119D01*
Y1402708D01*
Y1402880D01*
Y1403052D01*
X1943291D01*
Y1403223D01*
X1943119D01*
Y1403395D01*
Y1403567D01*
Y1403738D01*
X1943291D01*
Y1403910D01*
X1943119D01*
Y1404082D01*
Y1404253D01*
Y1404425D01*
X1943291D01*
Y1404597D01*
X1943119D01*
Y1404768D01*
Y1404940D01*
Y1405112D01*
X1943291D01*
Y1405284D01*
X1943119D01*
Y1405455D01*
Y1405627D01*
Y1405798D01*
X1943291D01*
Y1405970D01*
X1943119D01*
Y1406142D01*
Y1406314D01*
Y1406485D01*
X1943291D01*
Y1406657D01*
X1943119D01*
Y1406829D01*
Y1407000D01*
Y1407172D01*
X1943291D01*
Y1407344D01*
X1943119D01*
Y1407515D01*
Y1407687D01*
Y1407859D01*
X1943291D01*
Y1408030D01*
X1943119D01*
Y1408202D01*
Y1408374D01*
Y1408545D01*
X1943291D01*
Y1408717D01*
X1943119D01*
Y1408889D01*
Y1409061D01*
Y1409232D01*
X1943291D01*
Y1409404D01*
X1943119D01*
Y1409576D01*
Y1409747D01*
Y1409919D01*
X1943291D01*
Y1410091D01*
X1943119D01*
Y1410262D01*
X1943291D01*
Y1410091D01*
X1943463D01*
Y1410262D01*
X1943634D01*
Y1410091D01*
X1943806D01*
Y1410262D01*
X1943978D01*
Y1410091D01*
X1944149D01*
Y1410262D01*
X1944321D01*
Y1410091D01*
X1944493D01*
Y1410262D01*
X1944664D01*
Y1410091D01*
X1944836D01*
Y1410262D01*
X1945008D01*
Y1410091D01*
X1945179D01*
Y1410262D01*
X1945351D01*
Y1410091D01*
X1945523D01*
Y1410262D01*
X1945695D01*
Y1410091D01*
X1945866D01*
Y1410262D01*
X1946038D01*
Y1410091D01*
X1946210D01*
Y1410262D01*
X1946381D01*
Y1410091D01*
X1946553D01*
Y1410262D01*
X1946725D01*
Y1410091D01*
X1946896D01*
Y1410262D01*
X1947068D01*
Y1410091D01*
X1947240D01*
Y1410262D01*
X1947411D01*
Y1410091D01*
X1947583D01*
Y1410262D01*
X1947755D01*
Y1410091D01*
X1947926D01*
Y1410262D01*
X1948098D01*
Y1410091D01*
X1948270D01*
Y1410262D01*
X1948441D01*
Y1410091D01*
X1948613D01*
Y1410262D01*
X1948785D01*
Y1410091D01*
X1948957D01*
Y1410262D01*
X1949128D01*
Y1410091D01*
X1949300D01*
Y1410262D01*
X1949472D01*
Y1410091D01*
X1949643D01*
Y1410262D01*
X1949815D01*
Y1410091D01*
X1949987D01*
Y1410262D01*
X1950158D01*
Y1410091D01*
X1950330D01*
Y1410262D01*
X1950502D01*
Y1410091D01*
X1950673D01*
Y1410262D01*
X1950845D01*
Y1410091D01*
X1951017D01*
Y1410262D01*
X1951188D01*
Y1410091D01*
X1951360D01*
Y1410262D01*
X1951532D01*
Y1410091D01*
X1951703D01*
Y1410262D01*
X1951875D01*
Y1410091D01*
X1952047D01*
Y1410262D01*
X1952218D01*
Y1410091D01*
X1952390D01*
Y1410262D01*
X1952562D01*
Y1410091D01*
X1952734D01*
Y1410262D01*
X1952905D01*
Y1410091D01*
X1953077D01*
Y1410262D01*
X1953249D01*
Y1410091D01*
X1953420D01*
Y1410262D01*
X1953592D01*
Y1410091D01*
X1953764D01*
Y1410262D01*
X1953935D01*
Y1410091D01*
X1954107D01*
Y1410262D01*
X1954279D01*
Y1410091D01*
X1954450D01*
Y1410262D01*
X1954622D01*
Y1410091D01*
X1954794D01*
Y1410262D01*
X1954965D01*
Y1410091D01*
X1955137D01*
Y1410262D01*
X1955309D01*
Y1410091D01*
X1955480D01*
Y1410262D01*
X1955652D01*
Y1410091D01*
X1955824D01*
Y1410262D01*
X1955995D01*
Y1410091D01*
X1956167D01*
Y1410262D01*
X1956339D01*
Y1410091D01*
X1956511D01*
Y1410262D01*
X1956682D01*
Y1410091D01*
X1956854D01*
Y1410262D01*
X1957026D01*
Y1410091D01*
X1957197D01*
Y1410262D01*
X1957369D01*
Y1410091D01*
X1957541D01*
Y1410262D01*
X1957712D01*
Y1410091D01*
X1957884D01*
Y1410262D01*
X1958056D01*
Y1410091D01*
X1958227D01*
Y1410262D01*
X1958399D01*
Y1410091D01*
X1958571D01*
Y1410262D01*
X1958742D01*
Y1410091D01*
X1958914D01*
Y1410262D01*
X1959086D01*
Y1410091D01*
X1959258D01*
Y1410262D01*
X1959429D01*
Y1410091D01*
X1959601D01*
Y1410262D01*
X1959772D01*
Y1410091D01*
X1959944D01*
Y1410262D01*
X1960116D01*
Y1410091D01*
X1960288D01*
Y1410262D01*
X1960459D01*
Y1410091D01*
X1960631D01*
Y1410262D01*
X1960803D01*
Y1410091D01*
X1960974D01*
Y1410262D01*
X1961146D01*
Y1410091D01*
X1961318D01*
Y1410262D01*
X1961489D01*
Y1410091D01*
X1961661D01*
Y1410262D01*
X1961833D01*
Y1410091D01*
X1962004D01*
Y1410262D01*
X1962176D01*
Y1410091D01*
X1962348D01*
Y1410262D01*
X1962519D01*
Y1410091D01*
X1962691D01*
Y1410262D01*
X1962863D01*
Y1410091D01*
X1963035D01*
Y1410262D01*
X1963206D01*
Y1410091D01*
X1963378D01*
Y1410262D01*
X1963549D01*
Y1410091D01*
X1963721D01*
Y1410262D01*
X1963893D01*
Y1410091D01*
X1964065D01*
Y1410262D01*
X1964236D01*
Y1410091D01*
X1964408D01*
Y1410262D01*
X1964923D01*
Y1410434D01*
X1965095D01*
Y1410262D01*
X1965266D01*
Y1410434D01*
X1965438D01*
Y1410606D01*
X1965610D01*
Y1410434D01*
X1965781D01*
Y1410606D01*
Y1410777D01*
Y1410949D01*
X1965953D01*
Y1411121D01*
X1966125D01*
Y1411292D01*
Y1411464D01*
Y1411636D01*
X1966296D01*
Y1411807D01*
X1966125D01*
Y1411979D01*
X1966296D01*
Y1412151D01*
Y1412322D01*
Y1412494D01*
X1966468D01*
Y1412666D01*
X1966296D01*
Y1412838D01*
Y1413009D01*
Y1413181D01*
X1966468D01*
Y1413353D01*
X1966296D01*
Y1413524D01*
Y1413696D01*
Y1413868D01*
X1966468D01*
Y1414039D01*
X1966296D01*
Y1414211D01*
Y1414383D01*
Y1414554D01*
X1966468D01*
Y1414726D01*
X1966296D01*
Y1414898D01*
Y1415069D01*
Y1415241D01*
X1966125D01*
Y1415413D01*
X1965953D01*
Y1415584D01*
X1966125D01*
Y1415756D01*
X1965953D01*
Y1415928D01*
X1965781D01*
Y1416100D01*
X1965610D01*
Y1416271D01*
X1965438D01*
Y1416443D01*
X1964923D01*
Y1416615D01*
X1964408D01*
Y1416443D01*
X1964236D01*
Y1416615D01*
X1964065D01*
Y1416443D01*
X1963893D01*
Y1416615D01*
X1963721D01*
Y1416443D01*
X1963549D01*
Y1416615D01*
X1963035D01*
Y1416443D01*
X1962863D01*
Y1416615D01*
X1962348D01*
Y1416443D01*
X1962176D01*
Y1416615D01*
X1961661D01*
Y1416443D01*
X1961489D01*
Y1416615D01*
X1961318D01*
Y1416443D01*
X1961146D01*
Y1416615D01*
X1960974D01*
Y1416443D01*
X1960803D01*
Y1416615D01*
X1960288D01*
Y1416443D01*
X1960116D01*
Y1416615D01*
X1959601D01*
Y1416443D01*
X1959429D01*
Y1416615D01*
X1958914D01*
Y1416443D01*
X1958742D01*
Y1416615D01*
X1958571D01*
Y1416443D01*
X1958399D01*
Y1416615D01*
X1958227D01*
Y1416443D01*
X1958056D01*
Y1416615D01*
X1957541D01*
Y1416443D01*
X1957369D01*
Y1416615D01*
X1956854D01*
Y1416443D01*
X1956682D01*
Y1416615D01*
X1956167D01*
Y1416443D01*
X1955995D01*
Y1416615D01*
X1955824D01*
Y1416443D01*
X1955652D01*
Y1416615D01*
X1955480D01*
Y1416443D01*
X1955309D01*
Y1416615D01*
X1954794D01*
Y1416443D01*
X1954622D01*
Y1416615D01*
X1954107D01*
Y1416443D01*
X1953935D01*
Y1416615D01*
X1953420D01*
Y1416443D01*
X1953249D01*
Y1416615D01*
X1953077D01*
Y1416443D01*
X1952905D01*
Y1416615D01*
X1952734D01*
Y1416443D01*
X1952562D01*
Y1416615D01*
X1952047D01*
Y1416443D01*
X1951875D01*
Y1416615D01*
X1951360D01*
Y1416443D01*
X1951188D01*
Y1416615D01*
X1950673D01*
Y1416443D01*
X1950502D01*
Y1416615D01*
X1950330D01*
Y1416786D01*
X1950158D01*
Y1416615D01*
X1949987D01*
Y1416786D01*
X1949815D01*
Y1416615D01*
X1949643D01*
Y1416786D01*
X1948785D01*
Y1416958D01*
X1948270D01*
Y1417130D01*
X1948098D01*
Y1416958D01*
X1947926D01*
Y1417130D01*
X1947755D01*
Y1417301D01*
X1947583D01*
Y1417130D01*
X1947411D01*
Y1417301D01*
X1947240D01*
Y1417473D01*
X1946725D01*
Y1417645D01*
X1946553D01*
Y1417816D01*
X1946381D01*
Y1417988D01*
X1946210D01*
Y1418160D01*
X1945695D01*
Y1418331D01*
X1945523D01*
Y1418503D01*
X1945351D01*
Y1418675D01*
X1945179D01*
Y1418846D01*
X1945008D01*
Y1419018D01*
X1944836D01*
Y1419190D01*
X1944664D01*
Y1419361D01*
Y1419533D01*
X1944493D01*
Y1419705D01*
Y1419876D01*
X1944321D01*
Y1420048D01*
X1944149D01*
Y1420220D01*
X1943978D01*
Y1420392D01*
X1944149D01*
Y1420563D01*
X1943806D01*
Y1420735D01*
Y1420907D01*
X1943634D01*
Y1421078D01*
Y1421250D01*
Y1421422D01*
X1943463D01*
Y1421593D01*
X1943291D01*
Y1421765D01*
X1943463D01*
Y1421937D01*
X1943291D01*
Y1422108D01*
X1943119D01*
Y1422280D01*
Y1422452D01*
Y1422623D01*
X1942948D01*
Y1422795D01*
X1943119D01*
Y1422967D01*
X1942948D01*
Y1423138D01*
Y1423310D01*
Y1423482D01*
X1942776D01*
Y1423653D01*
X1942604D01*
Y1423825D01*
X1942776D01*
Y1423997D01*
X1942604D01*
Y1424169D01*
X1942776D01*
Y1424340D01*
X1942604D01*
Y1424512D01*
X1942776D01*
Y1424684D01*
X1942604D01*
Y1424855D01*
Y1425027D01*
Y1425199D01*
X1942433D01*
Y1425370D01*
X1942604D01*
Y1425542D01*
Y1425714D01*
Y1425885D01*
X1942433D01*
Y1426057D01*
X1942604D01*
Y1426229D01*
Y1426400D01*
Y1426572D01*
X1942433D01*
Y1426744D01*
X1942604D01*
Y1426915D01*
Y1427087D01*
Y1427259D01*
X1942433D01*
Y1427430D01*
X1942604D01*
Y1427602D01*
Y1427774D01*
Y1427946D01*
X1942433D01*
Y1428117D01*
X1942604D01*
Y1428289D01*
Y1428461D01*
Y1428632D01*
X1942433D01*
Y1428804D01*
X1942604D01*
Y1428976D01*
Y1429147D01*
Y1429319D01*
X1942433D01*
Y1429491D01*
X1942604D01*
Y1429662D01*
Y1429834D01*
Y1430006D01*
X1942776D01*
Y1430177D01*
X1942604D01*
Y1430349D01*
Y1430521D01*
Y1430692D01*
X1942776D01*
Y1430864D01*
X1942604D01*
Y1431036D01*
X1942776D01*
Y1431207D01*
X1942604D01*
Y1431379D01*
X1942776D01*
Y1431551D01*
Y1431723D01*
Y1431894D01*
X1942948D01*
Y1432066D01*
Y1432238D01*
Y1432409D01*
X1943119D01*
Y1432581D01*
Y1432753D01*
Y1432924D01*
X1943291D01*
Y1433096D01*
Y1433268D01*
Y1433439D01*
X1943463D01*
Y1433611D01*
Y1433783D01*
Y1433954D01*
X1943634D01*
Y1434126D01*
X1943806D01*
Y1434298D01*
X1943634D01*
Y1434469D01*
X1943806D01*
Y1434641D01*
X1943978D01*
Y1434813D01*
X1944149D01*
Y1434984D01*
Y1435156D01*
X1944493D01*
Y1435328D01*
X1944321D01*
Y1435500D01*
X1944493D01*
Y1435671D01*
X1944664D01*
Y1435843D01*
X1944836D01*
Y1436015D01*
X1945008D01*
Y1436186D01*
X1945179D01*
Y1436358D01*
X1945351D01*
Y1436530D01*
X1945523D01*
Y1436701D01*
X1945695D01*
Y1436873D01*
X1946210D01*
Y1437045D01*
X1946381D01*
Y1437216D01*
X1946725D01*
Y1437388D01*
X1947068D01*
Y1437560D01*
X1947240D01*
Y1437731D01*
X1947411D01*
Y1437560D01*
X1947583D01*
Y1437731D01*
X1947755D01*
Y1437903D01*
X1948613D01*
Y1438075D01*
X1948785D01*
Y1438246D01*
X1948957D01*
Y1438075D01*
X1949128D01*
Y1437903D01*
X1949300D01*
Y1438075D01*
X1949472D01*
Y1438246D01*
X1949643D01*
Y1438075D01*
X1949815D01*
Y1438246D01*
X1949987D01*
Y1438075D01*
X1950158D01*
Y1438246D01*
X1965438D01*
Y1438075D01*
D02*
G37*
G36*
X1969902Y1438418D02*
X1970073D01*
Y1438246D01*
X1970245D01*
Y1438075D01*
X1970417D01*
Y1437903D01*
X1970589D01*
Y1437731D01*
X1970760D01*
Y1437560D01*
X1971104D01*
Y1437388D01*
Y1437216D01*
X1971447D01*
Y1437045D01*
X1971104D01*
Y1436873D01*
Y1436701D01*
X1970760D01*
Y1436530D01*
X1970589D01*
Y1436358D01*
X1970417D01*
Y1436186D01*
X1970245D01*
Y1436015D01*
X1970073D01*
Y1435843D01*
X1969902D01*
Y1435671D01*
X1969730D01*
Y1435843D01*
X1969558D01*
Y1436015D01*
X1969387D01*
Y1436186D01*
X1969215D01*
Y1436358D01*
X1969043D01*
Y1436530D01*
X1968872D01*
Y1436701D01*
X1968357D01*
Y1436873D01*
Y1437045D01*
X1968013D01*
Y1437216D01*
X1968185D01*
Y1437388D01*
X1968357D01*
Y1437216D01*
X1968528D01*
Y1437388D01*
Y1437560D01*
X1968700D01*
Y1437731D01*
Y1437903D01*
X1969215D01*
Y1438075D01*
X1969387D01*
Y1438246D01*
X1969558D01*
Y1438418D01*
X1969730D01*
Y1438590D01*
X1969902D01*
Y1438418D01*
D02*
G37*
G36*
X1973335Y1437388D02*
X1973164D01*
Y1437216D01*
X1973335D01*
Y1437045D01*
X1973164D01*
Y1436873D01*
X1973335D01*
Y1436701D01*
X1973164D01*
Y1436530D01*
X1973335D01*
Y1436358D01*
X1973164D01*
Y1436186D01*
X1973335D01*
Y1436015D01*
X1973164D01*
Y1435843D01*
X1973335D01*
Y1435671D01*
X1973164D01*
Y1435500D01*
X1973335D01*
Y1435328D01*
X1973164D01*
Y1435156D01*
X1973335D01*
Y1434984D01*
X1973164D01*
Y1434813D01*
X1973335D01*
Y1434641D01*
X1973164D01*
Y1434469D01*
X1972992D01*
Y1434298D01*
X1972649D01*
Y1434126D01*
Y1433954D01*
X1972134D01*
Y1433783D01*
X1971962D01*
Y1433611D01*
X1971790D01*
Y1433439D01*
X1971619D01*
Y1433268D01*
X1971104D01*
Y1433096D01*
X1971275D01*
Y1432924D01*
X1970760D01*
Y1432753D01*
X1970589D01*
Y1432581D01*
X1970417D01*
Y1432409D01*
X1970245D01*
Y1432238D01*
X1970073D01*
Y1432409D01*
Y1432581D01*
Y1432753D01*
X1970245D01*
Y1432924D01*
X1970073D01*
Y1433096D01*
Y1433268D01*
Y1433439D01*
X1970245D01*
Y1433611D01*
X1970073D01*
Y1433783D01*
X1970245D01*
Y1433954D01*
X1970073D01*
Y1434126D01*
X1970245D01*
Y1434298D01*
X1970073D01*
Y1434469D01*
Y1434641D01*
Y1434813D01*
X1970245D01*
Y1434984D01*
X1970073D01*
Y1435156D01*
X1970245D01*
Y1435328D01*
X1970417D01*
Y1435500D01*
X1970589D01*
Y1435671D01*
X1970760D01*
Y1435843D01*
X1970932D01*
Y1436015D01*
X1971104D01*
Y1436186D01*
X1971619D01*
Y1436358D01*
X1971790D01*
Y1436530D01*
X1971962D01*
Y1436701D01*
X1972134D01*
Y1436873D01*
X1972305D01*
Y1437045D01*
X1972477D01*
Y1437216D01*
X1972820D01*
Y1437388D01*
Y1437560D01*
X1973335D01*
Y1437388D01*
D02*
G37*
G36*
X1966468D02*
X1966640D01*
Y1437216D01*
X1967155D01*
Y1437045D01*
X1967327D01*
Y1436873D01*
X1967498D01*
Y1436701D01*
X1967670D01*
Y1436530D01*
X1967842D01*
Y1436358D01*
X1968013D01*
Y1436186D01*
X1968185D01*
Y1436015D01*
X1968357D01*
Y1435843D01*
X1968872D01*
Y1435671D01*
X1969043D01*
Y1435500D01*
X1969215D01*
Y1435328D01*
X1969387D01*
Y1435156D01*
X1969558D01*
Y1434984D01*
X1969387D01*
Y1434813D01*
X1969558D01*
Y1434641D01*
X1969387D01*
Y1434469D01*
X1969558D01*
Y1434298D01*
X1969387D01*
Y1434126D01*
X1969558D01*
Y1433954D01*
X1969387D01*
Y1433783D01*
X1969558D01*
Y1433611D01*
X1969387D01*
Y1433439D01*
X1969558D01*
Y1433268D01*
X1969387D01*
Y1433096D01*
X1969558D01*
Y1432924D01*
X1969387D01*
Y1432753D01*
X1969558D01*
Y1432581D01*
X1969387D01*
Y1432409D01*
X1969558D01*
Y1432238D01*
X1969387D01*
Y1432409D01*
X1969215D01*
Y1432581D01*
X1969043D01*
Y1432753D01*
X1968872D01*
Y1432924D01*
X1968357D01*
Y1433096D01*
X1968185D01*
Y1433268D01*
X1968013D01*
Y1433439D01*
X1967842D01*
Y1433611D01*
X1967498D01*
Y1433783D01*
X1967327D01*
Y1433954D01*
X1966983D01*
Y1434126D01*
X1966812D01*
Y1434298D01*
X1966640D01*
Y1434469D01*
X1966468D01*
Y1434641D01*
X1966296D01*
Y1434813D01*
Y1434984D01*
Y1435156D01*
X1966468D01*
Y1435328D01*
X1966296D01*
Y1435500D01*
Y1435671D01*
Y1435843D01*
X1966468D01*
Y1436015D01*
X1966296D01*
Y1436186D01*
Y1436358D01*
Y1436530D01*
X1966468D01*
Y1436701D01*
X1966296D01*
Y1436873D01*
Y1437045D01*
Y1437216D01*
X1966468D01*
Y1437388D01*
X1966296D01*
Y1437560D01*
X1966468D01*
Y1437388D01*
D02*
G37*
G36*
X1973164Y1433783D02*
X1973335D01*
Y1433611D01*
X1973164D01*
Y1433439D01*
X1973335D01*
Y1433268D01*
X1973164D01*
Y1433096D01*
X1973335D01*
Y1432924D01*
X1973164D01*
Y1432753D01*
X1973335D01*
Y1432581D01*
X1973164D01*
Y1432409D01*
X1973335D01*
Y1432238D01*
X1973164D01*
Y1432066D01*
X1973335D01*
Y1431894D01*
X1973164D01*
Y1431723D01*
X1973335D01*
Y1431551D01*
X1973164D01*
Y1431379D01*
X1973335D01*
Y1431207D01*
X1973164D01*
Y1431036D01*
X1973335D01*
Y1430864D01*
X1972992D01*
Y1430692D01*
Y1430521D01*
X1972477D01*
Y1430349D01*
X1972305D01*
Y1430177D01*
X1972134D01*
Y1430006D01*
X1971962D01*
Y1429834D01*
X1971790D01*
Y1429662D01*
X1971619D01*
Y1429491D01*
X1971104D01*
Y1429319D01*
X1970932D01*
Y1429147D01*
X1970760D01*
Y1428976D01*
X1970589D01*
Y1428804D01*
X1970073D01*
Y1428976D01*
Y1429147D01*
Y1429319D01*
X1970245D01*
Y1429491D01*
X1970073D01*
Y1429662D01*
X1970245D01*
Y1429834D01*
X1970073D01*
Y1430006D01*
X1970245D01*
Y1430177D01*
X1970073D01*
Y1430349D01*
Y1430521D01*
Y1430692D01*
X1970245D01*
Y1430864D01*
X1970073D01*
Y1431036D01*
X1970245D01*
Y1431207D01*
X1970073D01*
Y1431379D01*
X1970245D01*
Y1431551D01*
X1970073D01*
Y1431723D01*
X1970589D01*
Y1431894D01*
X1970760D01*
Y1432066D01*
X1970932D01*
Y1432238D01*
X1971104D01*
Y1432409D01*
X1971275D01*
Y1432581D01*
X1971447D01*
Y1432753D01*
X1971790D01*
Y1432924D01*
Y1433096D01*
X1972305D01*
Y1433268D01*
X1972477D01*
Y1433439D01*
X1972649D01*
Y1433611D01*
X1972820D01*
Y1433783D01*
X1972992D01*
Y1433954D01*
X1973164D01*
Y1433783D01*
D02*
G37*
G36*
X1966640Y1433611D02*
Y1433439D01*
X1967155D01*
Y1433268D01*
X1967327D01*
Y1433096D01*
X1967498D01*
Y1432924D01*
X1967670D01*
Y1432753D01*
X1967842D01*
Y1432581D01*
X1968013D01*
Y1432409D01*
X1968528D01*
Y1432238D01*
X1968700D01*
Y1432066D01*
X1968872D01*
Y1431894D01*
X1969043D01*
Y1431723D01*
X1969215D01*
Y1431551D01*
X1969387D01*
Y1431379D01*
X1969558D01*
Y1431207D01*
X1969387D01*
Y1431036D01*
X1969558D01*
Y1430864D01*
X1969387D01*
Y1430692D01*
X1969558D01*
Y1430521D01*
X1969387D01*
Y1430349D01*
X1969558D01*
Y1430177D01*
X1969387D01*
Y1430006D01*
X1969558D01*
Y1429834D01*
X1969387D01*
Y1429662D01*
X1969558D01*
Y1429491D01*
X1969387D01*
Y1429319D01*
X1969558D01*
Y1429147D01*
X1969387D01*
Y1428976D01*
X1969558D01*
Y1428804D01*
X1969387D01*
Y1428632D01*
X1969215D01*
Y1428804D01*
X1969043D01*
Y1428976D01*
X1968872D01*
Y1429147D01*
X1968700D01*
Y1429319D01*
X1968357D01*
Y1429491D01*
X1968013D01*
Y1429662D01*
X1967842D01*
Y1429834D01*
X1967670D01*
Y1430006D01*
X1967498D01*
Y1430177D01*
X1966983D01*
Y1430349D01*
Y1430521D01*
X1966640D01*
Y1430692D01*
X1966468D01*
Y1430864D01*
X1966296D01*
Y1431036D01*
X1966468D01*
Y1431207D01*
X1966296D01*
Y1431379D01*
Y1431551D01*
Y1431723D01*
X1966468D01*
Y1431894D01*
X1966296D01*
Y1432066D01*
Y1432238D01*
Y1432409D01*
X1966468D01*
Y1432581D01*
X1966296D01*
Y1432753D01*
Y1432924D01*
Y1433096D01*
X1966468D01*
Y1433268D01*
X1966296D01*
Y1433439D01*
Y1433611D01*
Y1433783D01*
X1966640D01*
Y1433611D01*
D02*
G37*
G36*
X1973164Y1430006D02*
X1973335D01*
Y1429834D01*
X1973164D01*
Y1429662D01*
X1973335D01*
Y1429491D01*
X1973164D01*
Y1429319D01*
X1973335D01*
Y1429147D01*
X1973164D01*
Y1428976D01*
X1973335D01*
Y1428804D01*
X1973164D01*
Y1428632D01*
X1973335D01*
Y1428461D01*
X1973164D01*
Y1428289D01*
X1973335D01*
Y1428117D01*
X1973164D01*
Y1427946D01*
X1973335D01*
Y1427774D01*
X1973164D01*
Y1427602D01*
X1973335D01*
Y1427430D01*
X1973164D01*
Y1427259D01*
Y1427087D01*
X1972820D01*
Y1426915D01*
Y1426744D01*
X1972477D01*
Y1426572D01*
X1972305D01*
Y1426400D01*
X1972134D01*
Y1426229D01*
X1971962D01*
Y1426400D01*
X1971790D01*
Y1426229D01*
X1971962D01*
Y1426057D01*
X1971447D01*
Y1425885D01*
X1971275D01*
Y1425714D01*
X1971104D01*
Y1425542D01*
X1970932D01*
Y1425370D01*
X1970760D01*
Y1425199D01*
X1970417D01*
Y1425027D01*
X1970073D01*
Y1425199D01*
X1970245D01*
Y1425370D01*
X1970073D01*
Y1425542D01*
X1970245D01*
Y1425714D01*
X1970073D01*
Y1425885D01*
X1970245D01*
Y1426057D01*
X1970073D01*
Y1426229D01*
Y1426400D01*
Y1426572D01*
X1970245D01*
Y1426744D01*
X1970073D01*
Y1426915D01*
X1970245D01*
Y1427087D01*
X1970073D01*
Y1427259D01*
X1970245D01*
Y1427430D01*
X1970073D01*
Y1427602D01*
Y1427774D01*
Y1427946D01*
X1970417D01*
Y1428117D01*
Y1428289D01*
X1970932D01*
Y1428461D01*
X1971104D01*
Y1428632D01*
X1971275D01*
Y1428804D01*
X1971447D01*
Y1428976D01*
X1971619D01*
Y1429147D01*
X1971790D01*
Y1429319D01*
X1972305D01*
Y1429491D01*
X1972477D01*
Y1429662D01*
X1972649D01*
Y1429834D01*
X1972820D01*
Y1430006D01*
X1972992D01*
Y1430177D01*
X1973164D01*
Y1430006D01*
D02*
G37*
G36*
X1966468Y1430177D02*
X1966640D01*
Y1430006D01*
X1966812D01*
Y1429834D01*
X1966983D01*
Y1429662D01*
X1967155D01*
Y1429491D01*
X1967327D01*
Y1429319D01*
X1967670D01*
Y1429147D01*
Y1428976D01*
X1968185D01*
Y1428804D01*
X1968357D01*
Y1428632D01*
X1968528D01*
Y1428461D01*
X1968700D01*
Y1428289D01*
X1968872D01*
Y1428117D01*
X1969043D01*
Y1427946D01*
X1969558D01*
Y1427774D01*
X1969387D01*
Y1427602D01*
X1969558D01*
Y1427430D01*
X1969387D01*
Y1427259D01*
X1969558D01*
Y1427087D01*
X1969387D01*
Y1426915D01*
X1969558D01*
Y1426744D01*
X1969387D01*
Y1426572D01*
X1969558D01*
Y1426400D01*
X1969387D01*
Y1426229D01*
X1969558D01*
Y1426057D01*
X1969387D01*
Y1425885D01*
X1969558D01*
Y1425714D01*
X1969387D01*
Y1425542D01*
X1969558D01*
Y1425370D01*
X1969387D01*
Y1425199D01*
X1969558D01*
Y1425027D01*
X1969043D01*
Y1425199D01*
X1968872D01*
Y1425370D01*
X1968700D01*
Y1425542D01*
X1968528D01*
Y1425714D01*
X1968013D01*
Y1425885D01*
X1967842D01*
Y1426057D01*
X1967670D01*
Y1426229D01*
X1967498D01*
Y1426400D01*
X1967327D01*
Y1426572D01*
X1967155D01*
Y1426744D01*
X1966640D01*
Y1426915D01*
Y1427087D01*
X1966296D01*
Y1427259D01*
Y1427430D01*
Y1427602D01*
X1966468D01*
Y1427774D01*
X1966296D01*
Y1427946D01*
Y1428117D01*
Y1428289D01*
X1966468D01*
Y1428461D01*
X1966296D01*
Y1428632D01*
Y1428804D01*
Y1428976D01*
X1966468D01*
Y1429147D01*
X1966296D01*
Y1429319D01*
Y1429491D01*
Y1429662D01*
X1966468D01*
Y1429834D01*
X1966296D01*
Y1430006D01*
X1966468D01*
Y1430177D01*
X1966296D01*
Y1430349D01*
X1966468D01*
Y1430177D01*
D02*
G37*
G36*
Y1426400D02*
X1966640D01*
Y1426229D01*
X1966812D01*
Y1426057D01*
X1966983D01*
Y1425885D01*
X1967155D01*
Y1425714D01*
X1967327D01*
Y1425542D01*
X1967842D01*
Y1425370D01*
X1968013D01*
Y1425199D01*
X1968185D01*
Y1425027D01*
X1967670D01*
Y1425199D01*
X1967498D01*
Y1425370D01*
X1967327D01*
Y1425199D01*
X1967155D01*
Y1425370D01*
X1966296D01*
Y1425542D01*
X1966468D01*
Y1425714D01*
X1966296D01*
Y1425885D01*
Y1426057D01*
Y1426229D01*
X1966468D01*
Y1426400D01*
X1966296D01*
Y1426572D01*
X1966468D01*
Y1426400D01*
D02*
G37*
G36*
X1973164Y1426229D02*
X1973335D01*
Y1426057D01*
X1973164D01*
Y1425885D01*
X1973335D01*
Y1425714D01*
X1973164D01*
Y1425542D01*
X1973335D01*
Y1425370D01*
X1973164D01*
Y1425199D01*
X1973335D01*
Y1425027D01*
X1973164D01*
Y1424855D01*
X1973335D01*
Y1424684D01*
X1973164D01*
Y1424512D01*
X1973335D01*
Y1424340D01*
X1973164D01*
Y1424169D01*
X1973335D01*
Y1423997D01*
X1973164D01*
Y1423825D01*
X1973335D01*
Y1423653D01*
X1973164D01*
Y1423482D01*
X1972992D01*
Y1423310D01*
X1972820D01*
Y1423138D01*
X1972649D01*
Y1422967D01*
X1972477D01*
Y1422795D01*
X1972305D01*
Y1422623D01*
X1971619D01*
Y1422795D01*
Y1422967D01*
X1971447D01*
Y1423138D01*
X1971275D01*
Y1423310D01*
X1970932D01*
Y1423482D01*
Y1423653D01*
X1970417D01*
Y1423825D01*
X1970245D01*
Y1423997D01*
X1970073D01*
Y1424169D01*
X1970245D01*
Y1424340D01*
X1970417D01*
Y1424512D01*
X1970589D01*
Y1424684D01*
X1970760D01*
Y1424855D01*
X1971275D01*
Y1425027D01*
X1971447D01*
Y1425199D01*
X1971619D01*
Y1425370D01*
X1971790D01*
Y1425542D01*
X1971962D01*
Y1425714D01*
X1972134D01*
Y1425885D01*
X1972649D01*
Y1426057D01*
Y1426229D01*
X1972992D01*
Y1426400D01*
X1973164D01*
Y1426229D01*
D02*
G37*
G36*
X1973335Y1422623D02*
X1973164D01*
Y1422452D01*
X1973335D01*
Y1422280D01*
X1973164D01*
Y1422108D01*
X1973335D01*
Y1421937D01*
X1973164D01*
Y1421765D01*
X1973335D01*
Y1421593D01*
X1973164D01*
Y1421422D01*
X1973335D01*
Y1421250D01*
X1973164D01*
Y1421078D01*
X1973335D01*
Y1420907D01*
X1973164D01*
Y1420735D01*
X1973335D01*
Y1420563D01*
X1973164D01*
Y1420735D01*
X1972992D01*
Y1420907D01*
X1972820D01*
Y1421078D01*
X1972992D01*
Y1421250D01*
X1972649D01*
Y1421422D01*
Y1421593D01*
X1972477D01*
Y1421765D01*
X1972305D01*
Y1421937D01*
X1972134D01*
Y1422108D01*
X1972305D01*
Y1422280D01*
X1972477D01*
Y1422452D01*
X1972649D01*
Y1422623D01*
X1972820D01*
Y1422452D01*
X1972992D01*
Y1422623D01*
Y1422795D01*
X1973335D01*
Y1422623D01*
D02*
G37*
G36*
X1993937Y1437045D02*
Y1436873D01*
Y1436701D01*
X1993766D01*
Y1436530D01*
X1993937D01*
Y1436358D01*
Y1436186D01*
Y1436015D01*
X1993766D01*
Y1435843D01*
X1993937D01*
Y1435671D01*
Y1435500D01*
Y1435328D01*
X1993766D01*
Y1435156D01*
X1993937D01*
Y1434984D01*
Y1434813D01*
Y1434641D01*
X1993766D01*
Y1434469D01*
X1993937D01*
Y1434298D01*
Y1434126D01*
Y1433954D01*
X1993766D01*
Y1433783D01*
X1993937D01*
Y1433611D01*
X1993766D01*
Y1433439D01*
X1993937D01*
Y1433268D01*
X1993766D01*
Y1433096D01*
X1993937D01*
Y1432924D01*
Y1432753D01*
Y1432581D01*
X1993766D01*
Y1432409D01*
X1993937D01*
Y1432238D01*
X1993766D01*
Y1432066D01*
X1993937D01*
Y1431894D01*
X1993766D01*
Y1431723D01*
X1993937D01*
Y1431551D01*
X1993766D01*
Y1431379D01*
X1993937D01*
Y1431207D01*
X1993766D01*
Y1431036D01*
X1993937D01*
Y1430864D01*
X1993766D01*
Y1430692D01*
X1993937D01*
Y1430521D01*
X1993766D01*
Y1430349D01*
X1993937D01*
Y1430177D01*
X1993766D01*
Y1430006D01*
X1993937D01*
Y1429834D01*
X1993766D01*
Y1429662D01*
X1993937D01*
Y1429491D01*
X1993766D01*
Y1429319D01*
X1993937D01*
Y1429147D01*
X1993766D01*
Y1428976D01*
X1993937D01*
Y1428804D01*
X1993766D01*
Y1428632D01*
X1993937D01*
Y1428461D01*
X1993766D01*
Y1428289D01*
X1993937D01*
Y1428117D01*
X1993766D01*
Y1427946D01*
X1993937D01*
Y1427774D01*
X1993766D01*
Y1427602D01*
X1993937D01*
Y1427430D01*
X1993766D01*
Y1427259D01*
X1993937D01*
Y1427087D01*
X1993766D01*
Y1426915D01*
X1993937D01*
Y1426744D01*
X1993766D01*
Y1426572D01*
X1993937D01*
Y1426400D01*
X1993766D01*
Y1426229D01*
X1993937D01*
Y1426057D01*
X1993766D01*
Y1425885D01*
X1993937D01*
Y1425714D01*
X1993766D01*
Y1425542D01*
X1993937D01*
Y1425370D01*
X1993766D01*
Y1425199D01*
X1993937D01*
Y1425027D01*
X1993766D01*
Y1424855D01*
X1993937D01*
Y1424684D01*
X1993766D01*
Y1424512D01*
X1993937D01*
Y1424340D01*
X1993766D01*
Y1424169D01*
X1993937D01*
Y1423997D01*
X1993766D01*
Y1423825D01*
X1993937D01*
Y1423653D01*
X1993766D01*
Y1423482D01*
X1993937D01*
Y1423310D01*
X1993766D01*
Y1423138D01*
X1993937D01*
Y1422967D01*
X1993766D01*
Y1422795D01*
X1993937D01*
Y1422623D01*
X1993766D01*
Y1422452D01*
X1993937D01*
Y1422280D01*
X1993766D01*
Y1422108D01*
X1993937D01*
Y1421937D01*
X1993766D01*
Y1421765D01*
X1993937D01*
Y1421593D01*
X1993766D01*
Y1421422D01*
X1993937D01*
Y1421250D01*
X1993766D01*
Y1421078D01*
X1993937D01*
Y1420907D01*
X1993766D01*
Y1420735D01*
X1993937D01*
Y1420563D01*
X1993766D01*
Y1420392D01*
X1993937D01*
Y1420220D01*
X1993766D01*
Y1420048D01*
X1993937D01*
Y1419876D01*
X1993766D01*
Y1419705D01*
X1993937D01*
Y1419533D01*
X1993766D01*
Y1419361D01*
X1993937D01*
Y1419190D01*
X1993766D01*
Y1419018D01*
X1993937D01*
Y1418846D01*
X1993766D01*
Y1418675D01*
X1993937D01*
Y1418503D01*
X1993766D01*
Y1418331D01*
X1993937D01*
Y1418160D01*
X1993766D01*
Y1417988D01*
X1993937D01*
Y1417816D01*
X1993766D01*
Y1417645D01*
X1993937D01*
Y1417473D01*
X1993766D01*
Y1417301D01*
X1993937D01*
Y1417130D01*
X1993766D01*
Y1416958D01*
X1993937D01*
Y1416786D01*
X1993766D01*
Y1416615D01*
X1993937D01*
Y1416443D01*
X1993766D01*
Y1416271D01*
X1993937D01*
Y1416100D01*
X1993766D01*
Y1415928D01*
X1993937D01*
Y1415756D01*
X1993766D01*
Y1415584D01*
X1993937D01*
Y1415413D01*
X1993766D01*
Y1415241D01*
X1993937D01*
Y1415069D01*
X1993766D01*
Y1414898D01*
X1993937D01*
Y1414726D01*
X1993766D01*
Y1414554D01*
X1993937D01*
Y1414383D01*
X1993766D01*
Y1414211D01*
X1993937D01*
Y1414039D01*
X1993766D01*
Y1413868D01*
X1993937D01*
Y1413696D01*
X1993766D01*
Y1413524D01*
X1993937D01*
Y1413353D01*
X1993766D01*
Y1413181D01*
X1993937D01*
Y1413009D01*
X1993766D01*
Y1412838D01*
X1993937D01*
Y1412666D01*
X1993766D01*
Y1412494D01*
X1993937D01*
Y1412322D01*
X1993766D01*
Y1412151D01*
X1993937D01*
Y1411979D01*
X1993766D01*
Y1411807D01*
X1993937D01*
Y1411636D01*
X1993766D01*
Y1411464D01*
Y1411292D01*
Y1411121D01*
X1993937D01*
Y1410949D01*
X1993766D01*
Y1410777D01*
X1993594D01*
Y1410606D01*
Y1410434D01*
Y1410262D01*
X1993422D01*
Y1410091D01*
X1993594D01*
Y1409919D01*
X1993422D01*
Y1409747D01*
Y1409576D01*
X1993250D01*
Y1409404D01*
Y1409232D01*
X1993079D01*
Y1409061D01*
X1993250D01*
Y1408889D01*
X1992907D01*
Y1408717D01*
Y1408545D01*
X1992735D01*
Y1408374D01*
X1992564D01*
Y1408202D01*
X1992220D01*
Y1408374D01*
X1991877D01*
Y1408545D01*
X1991705D01*
Y1408717D01*
X1991534D01*
Y1408889D01*
X1991019D01*
Y1408717D01*
X1990847D01*
Y1408545D01*
X1990675D01*
Y1408374D01*
X1990504D01*
Y1408202D01*
X1990332D01*
Y1408030D01*
Y1407859D01*
X1989989D01*
Y1407687D01*
Y1407515D01*
X1989817D01*
Y1407344D01*
X1989645D01*
Y1407172D01*
Y1407000D01*
X1989817D01*
Y1406829D01*
Y1406657D01*
X1990160D01*
Y1406485D01*
Y1406314D01*
X1990504D01*
Y1406142D01*
Y1405970D01*
Y1405798D01*
X1990332D01*
Y1405627D01*
X1990160D01*
Y1405455D01*
X1989989D01*
Y1405284D01*
X1989817D01*
Y1405112D01*
X1989645D01*
Y1404940D01*
X1989474D01*
Y1404768D01*
X1988958D01*
Y1404597D01*
X1988787D01*
Y1404425D01*
X1988615D01*
Y1404253D01*
X1988443D01*
Y1404425D01*
X1988272D01*
Y1404253D01*
X1988443D01*
Y1404082D01*
X1988272D01*
Y1404253D01*
X1988100D01*
Y1404082D01*
X1987928D01*
Y1403910D01*
X1987757D01*
Y1403738D01*
X1987242D01*
Y1403567D01*
X1987070D01*
Y1403395D01*
X1986898D01*
Y1403567D01*
X1986727D01*
Y1403738D01*
X1986555D01*
Y1403910D01*
X1986383D01*
Y1404082D01*
X1986212D01*
Y1404253D01*
X1986383D01*
Y1404425D01*
X1986040D01*
Y1404597D01*
Y1404768D01*
X1985868D01*
Y1404597D01*
X1985353D01*
Y1404425D01*
X1984838D01*
Y1404253D01*
X1984666D01*
Y1404082D01*
X1984495D01*
Y1404253D01*
X1984323D01*
Y1404082D01*
X1983808D01*
Y1403910D01*
X1983636D01*
Y1403738D01*
X1983465D01*
Y1403567D01*
X1983636D01*
Y1403395D01*
X1983808D01*
Y1403223D01*
Y1403052D01*
Y1402880D01*
X1983980D01*
Y1402708D01*
X1983808D01*
Y1402537D01*
X1983980D01*
Y1402365D01*
X1983808D01*
Y1402537D01*
X1983636D01*
Y1402365D01*
X1983121D01*
Y1402193D01*
X1982950D01*
Y1402365D01*
X1982778D01*
Y1402193D01*
X1982606D01*
Y1402021D01*
X1982435D01*
Y1402193D01*
X1982263D01*
Y1402021D01*
X1982091D01*
Y1402193D01*
X1981920D01*
Y1402021D01*
X1979001D01*
Y1402193D01*
X1979173D01*
Y1402365D01*
X1979001D01*
Y1402537D01*
X1979173D01*
Y1402708D01*
X1979001D01*
Y1402880D01*
X1979173D01*
Y1403052D01*
X1979001D01*
Y1403223D01*
X1979173D01*
Y1403395D01*
X1979001D01*
Y1403567D01*
X1978829D01*
Y1403738D01*
X1978658D01*
Y1403567D01*
X1978486D01*
Y1403738D01*
X1978314D01*
Y1403567D01*
X1978143D01*
Y1403738D01*
X1977971D01*
Y1403567D01*
X1977799D01*
Y1403738D01*
X1976941D01*
Y1403910D01*
X1976769D01*
Y1403738D01*
X1976597D01*
Y1403910D01*
X1976426D01*
Y1403738D01*
X1976254D01*
Y1403567D01*
Y1403395D01*
Y1403223D01*
X1976082D01*
Y1403052D01*
X1975911D01*
Y1402880D01*
X1976082D01*
Y1402708D01*
Y1402537D01*
Y1402365D01*
X1975567D01*
Y1402537D01*
X1975052D01*
Y1402708D01*
X1974881D01*
Y1402537D01*
X1974709D01*
Y1402708D01*
X1974194D01*
Y1402880D01*
X1974022D01*
Y1403052D01*
X1973851D01*
Y1402880D01*
X1974022D01*
Y1402708D01*
X1973851D01*
Y1402880D01*
X1973679D01*
Y1403052D01*
X1973164D01*
Y1403223D01*
X1972992D01*
Y1403395D01*
X1972820D01*
Y1403223D01*
X1972649D01*
Y1403395D01*
X1972477D01*
Y1403567D01*
X1972305D01*
Y1403395D01*
X1972134D01*
Y1403567D01*
X1971962D01*
Y1403738D01*
X1971447D01*
Y1403910D01*
X1971619D01*
Y1404082D01*
X1971790D01*
Y1404253D01*
X1971962D01*
Y1404425D01*
X1972134D01*
Y1404597D01*
X1972305D01*
Y1404768D01*
Y1404940D01*
X1972649D01*
Y1405112D01*
X1972477D01*
Y1405284D01*
X1972649D01*
Y1405455D01*
X1972820D01*
Y1405627D01*
X1972992D01*
Y1405798D01*
Y1405970D01*
Y1406142D01*
X1973164D01*
Y1406314D01*
X1973335D01*
Y1406485D01*
Y1406657D01*
Y1406829D01*
X1973507D01*
Y1407000D01*
X1973679D01*
Y1407172D01*
X1973507D01*
Y1407344D01*
X1973679D01*
Y1407515D01*
Y1407687D01*
Y1407859D01*
X1973851D01*
Y1408030D01*
Y1408202D01*
Y1408374D01*
X1974022D01*
Y1408545D01*
Y1408717D01*
Y1408889D01*
X1973851D01*
Y1409061D01*
X1974194D01*
Y1409232D01*
Y1409404D01*
X1974022D01*
Y1409576D01*
X1974194D01*
Y1409747D01*
X1974366D01*
Y1409919D01*
X1974194D01*
Y1410091D01*
X1974366D01*
Y1410262D01*
X1974194D01*
Y1410434D01*
X1974366D01*
Y1410606D01*
X1974194D01*
Y1410777D01*
X1974366D01*
Y1410949D01*
X1974194D01*
Y1411121D01*
X1974366D01*
Y1411292D01*
X1974537D01*
Y1411121D01*
X1974709D01*
Y1410949D01*
X1974881D01*
Y1410777D01*
X1975052D01*
Y1410606D01*
X1975224D01*
Y1410434D01*
X1975396D01*
Y1410262D01*
X1975567D01*
Y1410091D01*
X1976082D01*
Y1409919D01*
X1976254D01*
Y1409747D01*
X1976769D01*
Y1409576D01*
X1976941D01*
Y1409747D01*
X1977112D01*
Y1409576D01*
X1977284D01*
Y1409404D01*
X1977456D01*
Y1409576D01*
X1977627D01*
Y1409404D01*
X1978143D01*
Y1409232D01*
X1978314D01*
Y1409404D01*
X1978486D01*
Y1409232D01*
X1979001D01*
Y1409404D01*
X1979173D01*
Y1409232D01*
X1979344D01*
Y1409061D01*
X1979516D01*
Y1409232D01*
X1979688D01*
Y1409404D01*
X1979859D01*
Y1409232D01*
X1980374D01*
Y1409404D01*
X1980546D01*
Y1409232D01*
X1980718D01*
Y1409404D01*
X1980889D01*
Y1409232D01*
X1981061D01*
Y1409404D01*
X1981920D01*
Y1409576D01*
X1982091D01*
Y1409747D01*
X1982606D01*
Y1409919D01*
X1982778D01*
Y1409747D01*
X1982950D01*
Y1409919D01*
X1983121D01*
Y1410091D01*
X1983465D01*
Y1410262D01*
Y1410434D01*
X1983980D01*
Y1410606D01*
X1984151D01*
Y1410777D01*
X1984323D01*
Y1410949D01*
X1984495D01*
Y1411121D01*
X1984666D01*
Y1411292D01*
X1984838D01*
Y1411464D01*
X1985010D01*
Y1411636D01*
X1985181D01*
Y1411807D01*
X1985353D01*
Y1411979D01*
Y1412151D01*
X1985525D01*
Y1412322D01*
Y1412494D01*
X1985697D01*
Y1412666D01*
X1985525D01*
Y1412838D01*
X1985697D01*
Y1413009D01*
Y1413181D01*
Y1413353D01*
X1985868D01*
Y1413524D01*
X1985697D01*
Y1413696D01*
X1985868D01*
Y1413868D01*
Y1414039D01*
Y1414211D01*
X1985697D01*
Y1414383D01*
X1985868D01*
Y1414554D01*
Y1414726D01*
Y1414898D01*
X1985697D01*
Y1415069D01*
X1985868D01*
Y1415241D01*
Y1415413D01*
Y1415584D01*
X1985697D01*
Y1415756D01*
X1985868D01*
Y1415928D01*
Y1416100D01*
Y1416271D01*
X1985697D01*
Y1416443D01*
X1985868D01*
Y1416615D01*
Y1416786D01*
Y1416958D01*
X1985697D01*
Y1417130D01*
X1985868D01*
Y1417301D01*
Y1417473D01*
Y1417645D01*
X1985697D01*
Y1417816D01*
X1985868D01*
Y1417988D01*
Y1418160D01*
Y1418331D01*
X1985697D01*
Y1418503D01*
X1985868D01*
Y1418675D01*
Y1418846D01*
Y1419018D01*
X1985697D01*
Y1419190D01*
X1985868D01*
Y1419361D01*
Y1419533D01*
Y1419705D01*
X1985697D01*
Y1419876D01*
X1985868D01*
Y1420048D01*
Y1420220D01*
Y1420392D01*
X1985697D01*
Y1420563D01*
X1985868D01*
Y1420735D01*
Y1420907D01*
Y1421078D01*
X1985697D01*
Y1421250D01*
X1985868D01*
Y1421422D01*
Y1421593D01*
Y1421765D01*
X1985697D01*
Y1421937D01*
X1985868D01*
Y1422108D01*
Y1422280D01*
Y1422452D01*
X1985697D01*
Y1422623D01*
X1985868D01*
Y1422795D01*
Y1422967D01*
Y1423138D01*
X1985697D01*
Y1423310D01*
X1985868D01*
Y1423482D01*
Y1423653D01*
Y1423825D01*
X1985697D01*
Y1423997D01*
X1985868D01*
Y1424169D01*
Y1424340D01*
Y1424512D01*
X1985697D01*
Y1424684D01*
X1985868D01*
Y1424855D01*
Y1425027D01*
Y1425199D01*
X1985697D01*
Y1425370D01*
X1985868D01*
Y1425542D01*
Y1425714D01*
Y1425885D01*
X1985697D01*
Y1426057D01*
X1985868D01*
Y1426229D01*
Y1426400D01*
Y1426572D01*
X1985697D01*
Y1426744D01*
X1985868D01*
Y1426915D01*
Y1427087D01*
Y1427259D01*
X1985697D01*
Y1427430D01*
X1985868D01*
Y1427602D01*
Y1427774D01*
Y1427946D01*
X1985697D01*
Y1428117D01*
X1985868D01*
Y1428289D01*
Y1428461D01*
Y1428632D01*
X1985697D01*
Y1428804D01*
X1985868D01*
Y1428976D01*
Y1429147D01*
Y1429319D01*
X1985697D01*
Y1429491D01*
X1985868D01*
Y1429662D01*
Y1429834D01*
Y1430006D01*
X1985697D01*
Y1430177D01*
X1985868D01*
Y1430349D01*
Y1430521D01*
Y1430692D01*
X1985697D01*
Y1430864D01*
X1985868D01*
Y1431036D01*
Y1431207D01*
Y1431379D01*
X1985697D01*
Y1431551D01*
X1985868D01*
Y1431723D01*
Y1431894D01*
Y1432066D01*
X1985697D01*
Y1432238D01*
X1985868D01*
Y1432409D01*
Y1432581D01*
Y1432753D01*
X1985697D01*
Y1432924D01*
X1985868D01*
Y1433096D01*
Y1433268D01*
Y1433439D01*
X1985697D01*
Y1433611D01*
X1985868D01*
Y1433783D01*
Y1433954D01*
Y1434126D01*
X1985697D01*
Y1434298D01*
X1985868D01*
Y1434469D01*
Y1434641D01*
Y1434813D01*
X1985697D01*
Y1434984D01*
X1985868D01*
Y1435156D01*
Y1435328D01*
Y1435500D01*
X1985697D01*
Y1435671D01*
X1985868D01*
Y1435843D01*
Y1436015D01*
Y1436186D01*
X1985697D01*
Y1436358D01*
X1985868D01*
Y1436530D01*
Y1436701D01*
Y1436873D01*
X1985697D01*
Y1437045D01*
X1985868D01*
Y1437216D01*
X1993937D01*
Y1437045D01*
D02*
G37*
G36*
X1966468Y1399275D02*
X1966640D01*
Y1399103D01*
X1966812D01*
Y1399275D01*
X1966983D01*
Y1399103D01*
X1967155D01*
Y1398931D01*
X1967327D01*
Y1398760D01*
X1967498D01*
Y1398588D01*
Y1398416D01*
X1967670D01*
Y1398244D01*
Y1398073D01*
X1967842D01*
Y1397901D01*
X1967670D01*
Y1397729D01*
Y1397558D01*
Y1397386D01*
X1967842D01*
Y1397214D01*
X1967670D01*
Y1397043D01*
Y1396871D01*
Y1396699D01*
X1967842D01*
Y1396528D01*
X1967670D01*
Y1396356D01*
X1967498D01*
Y1396184D01*
X1967327D01*
Y1396013D01*
Y1395841D01*
Y1395669D01*
X1967155D01*
Y1395498D01*
X1966983D01*
Y1395326D01*
X1966812D01*
Y1395154D01*
X1966296D01*
Y1394983D01*
X1966125D01*
Y1394811D01*
X1965953D01*
Y1394983D01*
X1965781D01*
Y1394811D01*
X1965266D01*
Y1394983D01*
X1965438D01*
Y1395154D01*
X1965266D01*
Y1395326D01*
X1965438D01*
Y1395154D01*
X1965610D01*
Y1395326D01*
X1966125D01*
Y1395498D01*
X1966296D01*
Y1395669D01*
X1966468D01*
Y1395841D01*
X1966640D01*
Y1396013D01*
Y1396184D01*
Y1396356D01*
X1966812D01*
Y1396528D01*
Y1396699D01*
Y1396871D01*
X1966296D01*
Y1396699D01*
X1966125D01*
Y1396528D01*
X1965953D01*
Y1396699D01*
X1965781D01*
Y1396528D01*
X1965610D01*
Y1396699D01*
X1965438D01*
Y1396528D01*
X1965266D01*
Y1396699D01*
X1965095D01*
Y1396871D01*
X1964923D01*
Y1397043D01*
X1964751D01*
Y1397214D01*
X1964580D01*
Y1397386D01*
Y1397558D01*
Y1397729D01*
Y1397901D01*
Y1398073D01*
Y1398244D01*
Y1398416D01*
X1964751D01*
Y1398588D01*
Y1398760D01*
X1965095D01*
Y1398931D01*
X1964923D01*
Y1399103D01*
X1965438D01*
Y1399275D01*
X1965610D01*
Y1399446D01*
X1965781D01*
Y1399275D01*
X1965953D01*
Y1399446D01*
X1966125D01*
Y1399275D01*
X1966296D01*
Y1399446D01*
X1966468D01*
Y1399275D01*
D02*
G37*
G36*
X1975567Y1399103D02*
X1975739D01*
Y1398931D01*
X1975567D01*
Y1398760D01*
X1975396D01*
Y1398588D01*
Y1398416D01*
Y1398244D01*
X1975224D01*
Y1398073D01*
X1975052D01*
Y1397901D01*
Y1397729D01*
Y1397558D01*
X1974881D01*
Y1397386D01*
Y1397214D01*
Y1397043D01*
X1974709D01*
Y1396871D01*
X1974537D01*
Y1396699D01*
X1974709D01*
Y1396528D01*
X1974537D01*
Y1396356D01*
X1974366D01*
Y1396184D01*
Y1396013D01*
Y1395841D01*
X1974194D01*
Y1395669D01*
X1974022D01*
Y1395498D01*
Y1395326D01*
Y1395154D01*
X1973851D01*
Y1394983D01*
X1973679D01*
Y1394811D01*
X1973507D01*
Y1394983D01*
X1973335D01*
Y1395154D01*
X1973164D01*
Y1395326D01*
X1973335D01*
Y1395498D01*
X1973507D01*
Y1395669D01*
X1973679D01*
Y1395841D01*
Y1396013D01*
Y1396184D01*
X1973851D01*
Y1396356D01*
X1974022D01*
Y1396528D01*
X1973851D01*
Y1396699D01*
X1974022D01*
Y1396871D01*
X1974194D01*
Y1397043D01*
X1974366D01*
Y1397214D01*
Y1397386D01*
Y1397558D01*
X1974537D01*
Y1397729D01*
X1974709D01*
Y1397901D01*
X1974537D01*
Y1398073D01*
X1974709D01*
Y1398244D01*
X1974881D01*
Y1398416D01*
X1974709D01*
Y1398588D01*
X1974537D01*
Y1398416D01*
X1974366D01*
Y1398588D01*
X1974194D01*
Y1398416D01*
X1974022D01*
Y1398588D01*
X1973851D01*
Y1398416D01*
X1973679D01*
Y1398588D01*
X1973507D01*
Y1398416D01*
X1973335D01*
Y1398588D01*
X1973164D01*
Y1398416D01*
X1972992D01*
Y1398244D01*
X1972820D01*
Y1398073D01*
X1972649D01*
Y1398244D01*
X1972477D01*
Y1398416D01*
X1972649D01*
Y1398588D01*
X1972477D01*
Y1398760D01*
X1972649D01*
Y1398931D01*
X1972477D01*
Y1399103D01*
X1972649D01*
Y1399275D01*
X1972820D01*
Y1399103D01*
X1972992D01*
Y1399275D01*
X1973164D01*
Y1399103D01*
X1973335D01*
Y1399275D01*
X1973507D01*
Y1399103D01*
X1973679D01*
Y1399275D01*
X1973851D01*
Y1399103D01*
X1974022D01*
Y1399275D01*
X1974194D01*
Y1399103D01*
X1974366D01*
Y1399275D01*
X1974537D01*
Y1399103D01*
X1974709D01*
Y1399275D01*
X1974881D01*
Y1399103D01*
X1975052D01*
Y1399275D01*
X1975567D01*
Y1399103D01*
D02*
G37*
G36*
X1971447Y1399275D02*
Y1399103D01*
X1971275D01*
Y1398931D01*
X1971447D01*
Y1398760D01*
Y1398588D01*
X1971104D01*
Y1398416D01*
X1970932D01*
Y1398588D01*
X1970760D01*
Y1398416D01*
X1970589D01*
Y1398588D01*
X1970417D01*
Y1398416D01*
X1970245D01*
Y1398588D01*
X1970073D01*
Y1398416D01*
X1969902D01*
Y1398588D01*
X1969730D01*
Y1398416D01*
X1969558D01*
Y1398588D01*
X1969387D01*
Y1398416D01*
Y1398244D01*
Y1398073D01*
Y1397901D01*
Y1397729D01*
Y1397558D01*
Y1397386D01*
X1969558D01*
Y1397214D01*
X1969730D01*
Y1397386D01*
X1970932D01*
Y1397214D01*
X1971104D01*
Y1397043D01*
X1971275D01*
Y1396871D01*
X1971447D01*
Y1396699D01*
X1971619D01*
Y1396528D01*
X1971447D01*
Y1396356D01*
X1971619D01*
Y1396184D01*
X1971447D01*
Y1396013D01*
X1971619D01*
Y1395841D01*
X1971447D01*
Y1395669D01*
X1971619D01*
Y1395498D01*
X1971447D01*
Y1395326D01*
X1971275D01*
Y1395154D01*
X1970760D01*
Y1394983D01*
X1970589D01*
Y1394811D01*
X1970417D01*
Y1394983D01*
X1970245D01*
Y1394811D01*
X1969730D01*
Y1394983D01*
X1969558D01*
Y1394811D01*
X1969387D01*
Y1394983D01*
X1969215D01*
Y1394811D01*
X1969043D01*
Y1394983D01*
X1968872D01*
Y1395154D01*
X1968700D01*
Y1395326D01*
Y1395498D01*
Y1395669D01*
X1968872D01*
Y1395841D01*
X1969043D01*
Y1396013D01*
X1969215D01*
Y1395841D01*
Y1395669D01*
Y1395498D01*
X1969387D01*
Y1395326D01*
X1969558D01*
Y1395154D01*
X1969730D01*
Y1395326D01*
X1969902D01*
Y1395154D01*
X1970073D01*
Y1395326D01*
X1970245D01*
Y1395154D01*
X1970417D01*
Y1395326D01*
X1970589D01*
Y1395498D01*
Y1395669D01*
Y1395841D01*
X1970760D01*
Y1396013D01*
Y1396184D01*
Y1396356D01*
X1970589D01*
Y1396528D01*
X1970417D01*
Y1396699D01*
X1970589D01*
Y1396871D01*
X1970073D01*
Y1397043D01*
X1969558D01*
Y1396871D01*
X1969387D01*
Y1397043D01*
X1969215D01*
Y1396871D01*
X1969043D01*
Y1397043D01*
X1968872D01*
Y1397214D01*
Y1397386D01*
Y1397558D01*
Y1397729D01*
Y1397901D01*
Y1398073D01*
Y1398244D01*
Y1398416D01*
Y1398588D01*
Y1398760D01*
Y1398931D01*
Y1399103D01*
Y1399275D01*
X1969043D01*
Y1399103D01*
X1969215D01*
Y1399275D01*
X1969387D01*
Y1399103D01*
X1969558D01*
Y1399275D01*
X1970073D01*
Y1399103D01*
X1970245D01*
Y1399275D01*
X1970417D01*
Y1399103D01*
X1970589D01*
Y1399275D01*
X1970760D01*
Y1399103D01*
X1970932D01*
Y1399275D01*
X1971104D01*
Y1399446D01*
X1971447D01*
Y1399275D01*
D02*
G37*
G36*
X1961146Y1398416D02*
X1961318D01*
Y1398244D01*
X1961146D01*
Y1398073D01*
X1960974D01*
Y1398244D01*
X1960803D01*
Y1398416D01*
X1960974D01*
Y1398588D01*
X1961146D01*
Y1398416D01*
D02*
G37*
G36*
X1962691Y1399275D02*
X1962863D01*
Y1399103D01*
Y1398931D01*
Y1398760D01*
Y1398588D01*
Y1398416D01*
Y1398244D01*
Y1398073D01*
Y1397901D01*
Y1397729D01*
Y1397558D01*
Y1397386D01*
Y1397214D01*
Y1397043D01*
Y1396871D01*
Y1396699D01*
Y1396528D01*
Y1396356D01*
Y1396184D01*
Y1396013D01*
Y1395841D01*
Y1395669D01*
Y1395498D01*
Y1395326D01*
X1963035D01*
Y1395154D01*
X1963206D01*
Y1395326D01*
X1963378D01*
Y1395154D01*
X1963549D01*
Y1394983D01*
X1963721D01*
Y1394811D01*
X1963549D01*
Y1394983D01*
X1963378D01*
Y1394811D01*
X1963206D01*
Y1394983D01*
X1963035D01*
Y1394811D01*
X1962863D01*
Y1394983D01*
X1962691D01*
Y1394811D01*
X1962519D01*
Y1394983D01*
X1962348D01*
Y1394811D01*
X1962176D01*
Y1394983D01*
X1962004D01*
Y1394811D01*
X1961833D01*
Y1394983D01*
X1961661D01*
Y1394811D01*
X1961489D01*
Y1394983D01*
X1961318D01*
Y1395154D01*
X1961489D01*
Y1395326D01*
X1961833D01*
Y1395498D01*
Y1395669D01*
X1962004D01*
Y1395841D01*
X1961833D01*
Y1396013D01*
X1962004D01*
Y1396184D01*
X1961833D01*
Y1396356D01*
X1962004D01*
Y1396528D01*
X1961833D01*
Y1396699D01*
X1962004D01*
Y1396871D01*
X1961833D01*
Y1397043D01*
X1962004D01*
Y1397214D01*
X1961833D01*
Y1397386D01*
X1962004D01*
Y1397558D01*
X1961833D01*
Y1397729D01*
X1962004D01*
Y1397901D01*
X1961833D01*
Y1398073D01*
X1962004D01*
Y1398244D01*
X1961833D01*
Y1398416D01*
X1961318D01*
Y1398588D01*
X1961489D01*
Y1398760D01*
X1961661D01*
Y1398931D01*
X1961833D01*
Y1399103D01*
X1962348D01*
Y1399275D01*
X1962519D01*
Y1399446D01*
X1962691D01*
Y1399275D01*
D02*
G37*
G36*
X1961146Y1394983D02*
X1961318D01*
Y1394811D01*
X1961146D01*
Y1394983D01*
X1960974D01*
Y1395154D01*
X1961146D01*
Y1394983D01*
D02*
G37*
G36*
X1976082Y1392751D02*
X1976254D01*
Y1392579D01*
X1976426D01*
Y1392751D01*
X1976597D01*
Y1392579D01*
X1977456D01*
Y1392407D01*
X1977627D01*
Y1392236D01*
X1977799D01*
Y1392407D01*
X1977971D01*
Y1392236D01*
X1978486D01*
Y1392064D01*
X1978658D01*
Y1391892D01*
X1978829D01*
Y1392064D01*
X1979001D01*
Y1391892D01*
X1979516D01*
Y1391721D01*
X1979688D01*
Y1391892D01*
X1979859D01*
Y1391721D01*
X1980374D01*
Y1391549D01*
X1981233D01*
Y1391377D01*
X1981404D01*
Y1391549D01*
X1981576D01*
Y1391377D01*
X1981748D01*
Y1391549D01*
X1981920D01*
Y1391377D01*
X1982091D01*
Y1391549D01*
X1982263D01*
Y1391377D01*
X1982435D01*
Y1391549D01*
X1982606D01*
Y1391377D01*
X1982778D01*
Y1391549D01*
X1982950D01*
Y1391377D01*
Y1391205D01*
X1983121D01*
Y1391034D01*
Y1390862D01*
X1983293D01*
Y1390690D01*
Y1390519D01*
Y1390347D01*
X1983465D01*
Y1390175D01*
X1983636D01*
Y1390004D01*
X1983465D01*
Y1389832D01*
X1983808D01*
Y1389660D01*
Y1389489D01*
X1983980D01*
Y1389317D01*
Y1389145D01*
Y1388974D01*
X1984151D01*
Y1388802D01*
X1984323D01*
Y1388630D01*
Y1388459D01*
X1984495D01*
Y1388287D01*
Y1388115D01*
X1984666D01*
Y1387944D01*
X1984838D01*
Y1387772D01*
Y1387600D01*
Y1387428D01*
X1985010D01*
Y1387257D01*
Y1387085D01*
X1985181D01*
Y1386913D01*
Y1386742D01*
X1985353D01*
Y1386570D01*
X1985525D01*
Y1386398D01*
X1985697D01*
Y1386227D01*
X1985525D01*
Y1386055D01*
X1985697D01*
Y1385883D01*
X1985868D01*
Y1385712D01*
X1986040D01*
Y1385540D01*
X1985868D01*
Y1385368D01*
X1985353D01*
Y1385197D01*
X1985181D01*
Y1385368D01*
X1983980D01*
Y1385540D01*
X1983808D01*
Y1385368D01*
X1983636D01*
Y1385540D01*
X1982778D01*
Y1385712D01*
X1982606D01*
Y1385883D01*
X1982435D01*
Y1385712D01*
X1982263D01*
Y1385883D01*
X1981404D01*
Y1386055D01*
X1981233D01*
Y1386227D01*
X1981061D01*
Y1386055D01*
X1981233D01*
Y1385883D01*
X1981061D01*
Y1386055D01*
X1980889D01*
Y1386227D01*
X1980031D01*
Y1386398D01*
X1979516D01*
Y1386570D01*
X1979344D01*
Y1386398D01*
X1979173D01*
Y1386570D01*
X1978314D01*
Y1386742D01*
X1978143D01*
Y1386570D01*
X1977971D01*
Y1386742D01*
X1977112D01*
Y1386913D01*
X1976941D01*
Y1386742D01*
X1976769D01*
Y1386913D01*
X1975224D01*
Y1387085D01*
X1975052D01*
Y1386913D01*
X1974881D01*
Y1387085D01*
X1974709D01*
Y1386913D01*
X1974537D01*
Y1387085D01*
X1974366D01*
Y1386913D01*
X1974194D01*
Y1387085D01*
X1974022D01*
Y1386913D01*
X1973851D01*
Y1387085D01*
X1973679D01*
Y1386913D01*
X1973507D01*
Y1387085D01*
X1973335D01*
Y1386913D01*
X1972134D01*
Y1386742D01*
X1971962D01*
Y1386913D01*
X1971790D01*
Y1386742D01*
X1971275D01*
Y1386570D01*
X1970417D01*
Y1386398D01*
X1970245D01*
Y1386227D01*
X1969730D01*
Y1386055D01*
X1969558D01*
Y1385883D01*
X1969043D01*
Y1385712D01*
X1968872D01*
Y1385540D01*
X1968700D01*
Y1385368D01*
X1968528D01*
Y1385197D01*
X1968357D01*
Y1385368D01*
Y1385540D01*
Y1385712D01*
X1968528D01*
Y1385883D01*
X1968357D01*
Y1386055D01*
Y1386227D01*
Y1386398D01*
Y1386570D01*
Y1386742D01*
Y1386913D01*
Y1387085D01*
X1968528D01*
Y1387257D01*
X1968357D01*
Y1387428D01*
Y1387600D01*
Y1387772D01*
Y1387944D01*
Y1388115D01*
Y1388287D01*
Y1388459D01*
X1968528D01*
Y1388630D01*
X1968357D01*
Y1388802D01*
Y1388974D01*
Y1389145D01*
Y1389317D01*
Y1389489D01*
Y1389660D01*
Y1389832D01*
X1968528D01*
Y1390004D01*
X1968357D01*
Y1390175D01*
Y1390347D01*
Y1390519D01*
Y1390690D01*
Y1390862D01*
X1968528D01*
Y1391034D01*
X1968700D01*
Y1390862D01*
X1968872D01*
Y1391034D01*
Y1391205D01*
X1969215D01*
Y1391377D01*
X1969387D01*
Y1391549D01*
X1969558D01*
Y1391721D01*
X1969730D01*
Y1391892D01*
X1970245D01*
Y1392064D01*
X1970760D01*
Y1392236D01*
X1970932D01*
Y1392407D01*
X1971104D01*
Y1392579D01*
X1971275D01*
Y1392407D01*
X1971447D01*
Y1392579D01*
X1972305D01*
Y1392751D01*
X1972477D01*
Y1392579D01*
X1972649D01*
Y1392751D01*
X1972820D01*
Y1392922D01*
X1972992D01*
Y1392751D01*
X1973164D01*
Y1392922D01*
X1975396D01*
Y1392751D01*
X1975567D01*
Y1392922D01*
X1975739D01*
Y1392751D01*
X1975911D01*
Y1392922D01*
X1976082D01*
Y1392751D01*
D02*
G37*
G36*
X1963721D02*
X1963893D01*
Y1392579D01*
X1964065D01*
Y1392751D01*
X1964236D01*
Y1392579D01*
X1965095D01*
Y1392407D01*
X1965266D01*
Y1392236D01*
X1965781D01*
Y1392064D01*
X1965953D01*
Y1392236D01*
X1966125D01*
Y1392064D01*
X1966296D01*
Y1391892D01*
X1966468D01*
Y1391721D01*
X1966640D01*
Y1391549D01*
X1967155D01*
Y1391377D01*
X1967327D01*
Y1391205D01*
X1967498D01*
Y1391034D01*
X1967670D01*
Y1390862D01*
X1967842D01*
Y1390690D01*
X1968013D01*
Y1390519D01*
X1968185D01*
Y1390347D01*
X1968013D01*
Y1390175D01*
X1968185D01*
Y1390004D01*
X1968013D01*
Y1389832D01*
X1968185D01*
Y1389660D01*
X1968013D01*
Y1389489D01*
X1968185D01*
Y1389317D01*
X1968013D01*
Y1389145D01*
X1968185D01*
Y1388974D01*
X1968013D01*
Y1388802D01*
X1968185D01*
Y1388630D01*
X1968013D01*
Y1388459D01*
X1968185D01*
Y1388287D01*
X1968013D01*
Y1388115D01*
X1968185D01*
Y1387944D01*
X1968013D01*
Y1387772D01*
X1968185D01*
Y1387600D01*
X1968013D01*
Y1387428D01*
X1968185D01*
Y1387257D01*
X1968013D01*
Y1387085D01*
X1968185D01*
Y1386913D01*
X1968013D01*
Y1386742D01*
X1968185D01*
Y1386570D01*
X1968013D01*
Y1386398D01*
X1968185D01*
Y1386227D01*
X1968013D01*
Y1386055D01*
X1968185D01*
Y1385883D01*
X1968013D01*
Y1385712D01*
X1968185D01*
Y1385540D01*
X1968013D01*
Y1385368D01*
X1968185D01*
Y1385197D01*
X1968013D01*
Y1385368D01*
X1967842D01*
Y1385540D01*
X1967670D01*
Y1385712D01*
X1967498D01*
Y1385540D01*
X1967327D01*
Y1385712D01*
Y1385883D01*
X1966983D01*
Y1386055D01*
X1966812D01*
Y1386227D01*
X1966296D01*
Y1386398D01*
X1966125D01*
Y1386570D01*
X1965953D01*
Y1386398D01*
X1965781D01*
Y1386570D01*
X1965266D01*
Y1386742D01*
X1964751D01*
Y1386913D01*
X1964580D01*
Y1386742D01*
X1964408D01*
Y1386913D01*
X1964236D01*
Y1386742D01*
X1964065D01*
Y1386913D01*
X1962863D01*
Y1387085D01*
X1962691D01*
Y1386913D01*
X1962519D01*
Y1387085D01*
X1962348D01*
Y1386913D01*
X1962176D01*
Y1387085D01*
X1962004D01*
Y1386913D01*
X1961833D01*
Y1387085D01*
X1961661D01*
Y1386913D01*
X1961489D01*
Y1387085D01*
X1961318D01*
Y1386913D01*
X1959772D01*
Y1386742D01*
X1959601D01*
Y1386913D01*
X1959429D01*
Y1386742D01*
X1959258D01*
Y1386913D01*
X1959086D01*
Y1386742D01*
X1958571D01*
Y1386570D01*
X1958399D01*
Y1386742D01*
X1958227D01*
Y1386570D01*
X1957369D01*
Y1386398D01*
X1957197D01*
Y1386570D01*
X1957026D01*
Y1386398D01*
X1956854D01*
Y1386227D01*
X1956682D01*
Y1386398D01*
X1956511D01*
Y1386227D01*
X1955652D01*
Y1386055D01*
X1955480D01*
Y1386227D01*
X1955309D01*
Y1386055D01*
X1955137D01*
Y1385883D01*
X1954965D01*
Y1386055D01*
X1954794D01*
Y1385883D01*
X1954279D01*
Y1385712D01*
X1954107D01*
Y1385883D01*
X1953935D01*
Y1385712D01*
X1953764D01*
Y1385540D01*
X1953592D01*
Y1385712D01*
X1953420D01*
Y1385540D01*
X1952905D01*
Y1385368D01*
X1952734D01*
Y1385540D01*
X1952562D01*
Y1385368D01*
X1952390D01*
Y1385540D01*
X1952218D01*
Y1385368D01*
X1951017D01*
Y1385197D01*
X1950845D01*
Y1385368D01*
X1950502D01*
Y1385540D01*
Y1385712D01*
X1950673D01*
Y1385883D01*
X1950845D01*
Y1386055D01*
Y1386227D01*
Y1386398D01*
X1951017D01*
Y1386570D01*
Y1386742D01*
X1951188D01*
Y1386913D01*
Y1387085D01*
X1951360D01*
Y1387257D01*
X1951532D01*
Y1387428D01*
X1951703D01*
Y1387600D01*
X1951532D01*
Y1387772D01*
X1951703D01*
Y1387944D01*
X1951875D01*
Y1388115D01*
Y1388287D01*
Y1388459D01*
X1952047D01*
Y1388630D01*
X1952218D01*
Y1388802D01*
X1952390D01*
Y1388974D01*
X1952218D01*
Y1389145D01*
X1952390D01*
Y1389317D01*
X1952562D01*
Y1389489D01*
Y1389660D01*
Y1389832D01*
X1952734D01*
Y1390004D01*
X1952905D01*
Y1390175D01*
X1953077D01*
Y1390347D01*
X1952905D01*
Y1390519D01*
X1953077D01*
Y1390690D01*
X1953249D01*
Y1390862D01*
Y1391034D01*
Y1391205D01*
X1953420D01*
Y1391377D01*
X1953592D01*
Y1391549D01*
X1953764D01*
Y1391377D01*
X1953935D01*
Y1391549D01*
X1954107D01*
Y1391377D01*
X1954279D01*
Y1391549D01*
X1954450D01*
Y1391377D01*
X1954622D01*
Y1391549D01*
X1954794D01*
Y1391377D01*
X1954965D01*
Y1391549D01*
X1955137D01*
Y1391377D01*
X1955309D01*
Y1391549D01*
X1956167D01*
Y1391721D01*
X1956339D01*
Y1391549D01*
X1956511D01*
Y1391721D01*
X1956682D01*
Y1391892D01*
X1957197D01*
Y1392064D01*
X1957369D01*
Y1391892D01*
X1957541D01*
Y1392064D01*
X1957712D01*
Y1392236D01*
X1957884D01*
Y1392064D01*
X1958056D01*
Y1392236D01*
X1958571D01*
Y1392407D01*
X1958742D01*
Y1392579D01*
X1958914D01*
Y1392407D01*
X1959086D01*
Y1392579D01*
X1959944D01*
Y1392751D01*
X1960116D01*
Y1392579D01*
X1960288D01*
Y1392751D01*
X1960459D01*
Y1392922D01*
X1960631D01*
Y1392751D01*
X1960803D01*
Y1392922D01*
X1963378D01*
Y1392751D01*
X1963549D01*
Y1392922D01*
X1963721D01*
Y1392751D01*
D02*
G37*
G36*
X1951017Y1389660D02*
X1950845D01*
Y1389489D01*
X1950673D01*
Y1389660D01*
X1950502D01*
Y1389832D01*
X1951017D01*
Y1389660D01*
D02*
G37*
G36*
X1985697D02*
X1985868D01*
Y1389489D01*
X1986040D01*
Y1389317D01*
X1985868D01*
Y1389489D01*
X1985697D01*
Y1389660D01*
X1985525D01*
Y1389832D01*
X1985697D01*
Y1389660D01*
D02*
G37*
G36*
X1950502Y1389145D02*
Y1388974D01*
X1950158D01*
Y1389145D01*
X1950330D01*
Y1389317D01*
X1950502D01*
Y1389145D01*
D02*
G37*
G36*
X1986212Y1388974D02*
Y1388802D01*
X1986383D01*
Y1388630D01*
X1986555D01*
Y1388459D01*
X1986727D01*
Y1388287D01*
X1986212D01*
Y1388459D01*
X1986383D01*
Y1388630D01*
X1986212D01*
Y1388802D01*
X1986040D01*
Y1388974D01*
X1985868D01*
Y1389145D01*
X1986212D01*
Y1388974D01*
D02*
G37*
G36*
X1949815Y1388115D02*
Y1387944D01*
X1949472D01*
Y1388115D01*
X1949643D01*
Y1388287D01*
X1949815D01*
Y1388115D01*
D02*
G37*
G36*
X1986727Y1387944D02*
X1986898D01*
Y1387772D01*
X1987070D01*
Y1387600D01*
X1987242D01*
Y1387428D01*
X1987413D01*
Y1387257D01*
X1987070D01*
Y1387428D01*
Y1387600D01*
X1986898D01*
Y1387772D01*
X1986727D01*
Y1387944D01*
X1986555D01*
Y1388115D01*
X1986727D01*
Y1387944D01*
D02*
G37*
G36*
X1949128Y1387085D02*
X1949300D01*
Y1386913D01*
X1948957D01*
Y1387085D01*
Y1387257D01*
X1949128D01*
Y1387085D01*
D02*
G37*
G36*
X1987413Y1386913D02*
X1987585D01*
Y1386742D01*
X1987757D01*
Y1386570D01*
X1987585D01*
Y1386742D01*
X1987413D01*
Y1386913D01*
X1987242D01*
Y1387085D01*
X1987413D01*
Y1386913D01*
D02*
G37*
G36*
X1952218Y1390175D02*
Y1390004D01*
X1952047D01*
Y1389832D01*
Y1389660D01*
X1951875D01*
Y1389489D01*
Y1389317D01*
X1951703D01*
Y1389145D01*
Y1388974D01*
X1951532D01*
Y1388802D01*
X1951360D01*
Y1388630D01*
Y1388459D01*
Y1388287D01*
X1951188D01*
Y1388115D01*
X1951017D01*
Y1387944D01*
X1950845D01*
Y1387772D01*
X1951017D01*
Y1387600D01*
X1950845D01*
Y1387428D01*
X1950673D01*
Y1387257D01*
X1950502D01*
Y1387085D01*
X1950673D01*
Y1386913D01*
X1950502D01*
Y1386742D01*
X1950330D01*
Y1386570D01*
X1950158D01*
Y1386398D01*
Y1386227D01*
Y1386055D01*
X1949987D01*
Y1385883D01*
X1949815D01*
Y1385712D01*
Y1385540D01*
X1949643D01*
Y1385368D01*
Y1385197D01*
X1949472D01*
Y1385025D01*
X1949300D01*
Y1384853D01*
X1949128D01*
Y1384682D01*
X1949300D01*
Y1384510D01*
X1949472D01*
Y1384682D01*
X1949987D01*
Y1384510D01*
X1950158D01*
Y1384682D01*
X1950673D01*
Y1384510D01*
X1950845D01*
Y1384682D01*
X1951703D01*
Y1384853D01*
X1951875D01*
Y1384682D01*
X1952047D01*
Y1384853D01*
X1952218D01*
Y1384682D01*
X1952390D01*
Y1384853D01*
X1952562D01*
Y1385025D01*
X1952734D01*
Y1384853D01*
X1952905D01*
Y1385025D01*
X1953764D01*
Y1385197D01*
X1953935D01*
Y1385025D01*
X1954107D01*
Y1385197D01*
X1954622D01*
Y1385368D01*
X1954794D01*
Y1385197D01*
X1954965D01*
Y1385368D01*
X1955824D01*
Y1385540D01*
X1955995D01*
Y1385368D01*
X1956167D01*
Y1385540D01*
X1956682D01*
Y1385712D01*
X1957884D01*
Y1385883D01*
X1958056D01*
Y1385712D01*
X1958227D01*
Y1385883D01*
X1958399D01*
Y1386055D01*
X1958571D01*
Y1385883D01*
X1959086D01*
Y1386055D01*
X1960288D01*
Y1385883D01*
X1960459D01*
Y1386055D01*
X1960974D01*
Y1386227D01*
X1961146D01*
Y1386055D01*
X1963035D01*
Y1385883D01*
X1963206D01*
Y1386055D01*
X1963378D01*
Y1385883D01*
X1963549D01*
Y1386055D01*
X1963721D01*
Y1385883D01*
X1963893D01*
Y1386055D01*
X1964065D01*
Y1385883D01*
X1964236D01*
Y1385712D01*
X1964408D01*
Y1385883D01*
X1964580D01*
Y1385712D01*
X1965438D01*
Y1385540D01*
X1965610D01*
Y1385712D01*
X1965781D01*
Y1385540D01*
X1965953D01*
Y1385368D01*
X1966468D01*
Y1385197D01*
X1966640D01*
Y1385368D01*
X1966812D01*
Y1385197D01*
X1966983D01*
Y1385025D01*
X1967498D01*
Y1384853D01*
X1967670D01*
Y1384682D01*
X1968185D01*
Y1384510D01*
X1967327D01*
Y1384682D01*
X1967155D01*
Y1384853D01*
X1966983D01*
Y1384682D01*
X1966812D01*
Y1384853D01*
X1966296D01*
Y1385025D01*
X1965781D01*
Y1385197D01*
X1965610D01*
Y1385025D01*
X1965438D01*
Y1385197D01*
X1964580D01*
Y1385368D01*
X1964408D01*
Y1385197D01*
X1964236D01*
Y1385368D01*
X1964065D01*
Y1385197D01*
X1963893D01*
Y1385368D01*
X1963721D01*
Y1385197D01*
X1963549D01*
Y1385368D01*
X1962004D01*
Y1385197D01*
X1961833D01*
Y1385368D01*
X1959944D01*
Y1385197D01*
X1959772D01*
Y1385368D01*
X1959601D01*
Y1385197D01*
X1959429D01*
Y1385368D01*
X1959258D01*
Y1385197D01*
X1959086D01*
Y1385368D01*
X1958914D01*
Y1385197D01*
X1958056D01*
Y1385025D01*
X1957884D01*
Y1385197D01*
X1957712D01*
Y1385025D01*
X1957541D01*
Y1385197D01*
X1957369D01*
Y1385025D01*
X1956854D01*
Y1384853D01*
X1956682D01*
Y1385025D01*
X1956511D01*
Y1384853D01*
X1954965D01*
Y1384682D01*
X1954794D01*
Y1384853D01*
X1954622D01*
Y1384682D01*
X1954450D01*
Y1384510D01*
X1954279D01*
Y1384682D01*
X1954107D01*
Y1384510D01*
X1953935D01*
Y1384682D01*
X1953764D01*
Y1384510D01*
X1952218D01*
Y1384338D01*
X1952047D01*
Y1384510D01*
X1951875D01*
Y1384338D01*
X1951360D01*
Y1384167D01*
X1951188D01*
Y1384338D01*
X1951017D01*
Y1384167D01*
X1950845D01*
Y1384338D01*
X1950673D01*
Y1384167D01*
X1950502D01*
Y1384338D01*
X1950330D01*
Y1384167D01*
X1948098D01*
Y1384338D01*
X1948270D01*
Y1384510D01*
Y1384682D01*
X1948441D01*
Y1384853D01*
Y1385025D01*
X1948613D01*
Y1385197D01*
X1948785D01*
Y1385368D01*
X1948957D01*
Y1385540D01*
Y1385712D01*
Y1385883D01*
X1949128D01*
Y1385712D01*
X1949300D01*
Y1385883D01*
X1949128D01*
Y1386055D01*
X1949300D01*
Y1386227D01*
X1949472D01*
Y1386398D01*
X1949643D01*
Y1386570D01*
X1949472D01*
Y1386742D01*
X1949643D01*
Y1386913D01*
X1949815D01*
Y1387085D01*
X1949987D01*
Y1387257D01*
X1950158D01*
Y1387428D01*
Y1387600D01*
Y1387772D01*
X1950330D01*
Y1387944D01*
X1950502D01*
Y1388115D01*
X1950673D01*
Y1388287D01*
X1950502D01*
Y1388459D01*
X1950673D01*
Y1388630D01*
X1950845D01*
Y1388802D01*
X1951017D01*
Y1388974D01*
Y1389145D01*
X1951360D01*
Y1389317D01*
X1951188D01*
Y1389489D01*
X1951360D01*
Y1389660D01*
X1951532D01*
Y1389832D01*
X1951703D01*
Y1390004D01*
X1951532D01*
Y1390175D01*
X1951703D01*
Y1390347D01*
X1952218D01*
Y1390175D01*
D02*
G37*
G36*
X1948441Y1385883D02*
Y1385712D01*
X1948270D01*
Y1385883D01*
X1948098D01*
Y1386055D01*
X1948441D01*
Y1385883D01*
D02*
G37*
G36*
X1987928Y1386227D02*
Y1386055D01*
X1988100D01*
Y1385883D01*
X1988272D01*
Y1385712D01*
X1988443D01*
Y1385540D01*
X1988615D01*
Y1385368D01*
X1988787D01*
Y1385197D01*
X1988443D01*
Y1385368D01*
Y1385540D01*
X1988272D01*
Y1385712D01*
X1988100D01*
Y1385883D01*
X1987928D01*
Y1386055D01*
X1987757D01*
Y1386227D01*
X1987585D01*
Y1386398D01*
X1987928D01*
Y1386227D01*
D02*
G37*
G36*
X1975396Y1384853D02*
X1975911D01*
Y1384682D01*
X1976082D01*
Y1384853D01*
X1976254D01*
Y1384682D01*
X1976426D01*
Y1384853D01*
X1976597D01*
Y1384682D01*
X1976769D01*
Y1384853D01*
X1976941D01*
Y1384682D01*
X1977112D01*
Y1384853D01*
X1977284D01*
Y1384682D01*
X1978829D01*
Y1384510D01*
X1979001D01*
Y1384682D01*
X1979173D01*
Y1384510D01*
X1979688D01*
Y1384682D01*
X1979859D01*
Y1384510D01*
X1980031D01*
Y1384338D01*
X1980203D01*
Y1384510D01*
X1980374D01*
Y1384338D01*
X1980546D01*
Y1384510D01*
X1980718D01*
Y1384338D01*
X1981920D01*
Y1384167D01*
X1982091D01*
Y1384338D01*
X1982606D01*
Y1384167D01*
X1982778D01*
Y1384338D01*
X1982950D01*
Y1384167D01*
X1983465D01*
Y1383995D01*
X1983636D01*
Y1383823D01*
X1983121D01*
Y1383995D01*
X1982950D01*
Y1383823D01*
X1982778D01*
Y1383995D01*
X1982606D01*
Y1383823D01*
X1982435D01*
Y1383995D01*
X1981576D01*
Y1384167D01*
X1981404D01*
Y1383995D01*
X1981233D01*
Y1384167D01*
X1981061D01*
Y1383995D01*
X1980889D01*
Y1384167D01*
X1979344D01*
Y1384338D01*
X1979173D01*
Y1384167D01*
X1979001D01*
Y1384338D01*
X1978829D01*
Y1384167D01*
X1978658D01*
Y1384338D01*
X1978143D01*
Y1384510D01*
X1977971D01*
Y1384338D01*
X1977456D01*
Y1384510D01*
X1977284D01*
Y1384338D01*
X1977112D01*
Y1384510D01*
X1976597D01*
Y1384338D01*
X1976426D01*
Y1384510D01*
X1975224D01*
Y1384338D01*
X1975052D01*
Y1384510D01*
X1972477D01*
Y1384338D01*
X1972305D01*
Y1384510D01*
X1971104D01*
Y1384338D01*
X1970589D01*
Y1384510D01*
X1970417D01*
Y1384338D01*
X1969902D01*
Y1384167D01*
X1969730D01*
Y1384338D01*
X1969558D01*
Y1384510D01*
X1970073D01*
Y1384682D01*
X1971275D01*
Y1384853D01*
X1971447D01*
Y1384682D01*
X1971619D01*
Y1384853D01*
X1971790D01*
Y1384682D01*
X1971962D01*
Y1384853D01*
X1972134D01*
Y1384682D01*
X1972305D01*
Y1384853D01*
X1972477D01*
Y1385025D01*
X1972649D01*
Y1384853D01*
X1972820D01*
Y1385025D01*
X1972992D01*
Y1384853D01*
X1973164D01*
Y1385025D01*
X1973335D01*
Y1384853D01*
X1973507D01*
Y1385025D01*
X1973679D01*
Y1384853D01*
X1973851D01*
Y1385025D01*
X1974022D01*
Y1384853D01*
X1974194D01*
Y1385025D01*
X1974366D01*
Y1384853D01*
X1974537D01*
Y1385025D01*
X1974709D01*
Y1384853D01*
X1974881D01*
Y1385025D01*
X1975052D01*
Y1384853D01*
X1975224D01*
Y1385025D01*
X1975396D01*
Y1384853D01*
D02*
G37*
G36*
X1963721D02*
X1963893D01*
Y1384682D01*
X1964065D01*
Y1384853D01*
X1964236D01*
Y1384682D01*
X1964408D01*
Y1384853D01*
X1964580D01*
Y1384682D01*
X1964751D01*
Y1384853D01*
X1964923D01*
Y1384682D01*
X1965095D01*
Y1384853D01*
X1965266D01*
Y1384682D01*
X1966468D01*
Y1384510D01*
X1966640D01*
Y1384682D01*
X1966812D01*
Y1384510D01*
X1966983D01*
Y1384338D01*
X1967155D01*
Y1384510D01*
X1967327D01*
Y1384338D01*
X1968185D01*
Y1384167D01*
X1968013D01*
Y1383995D01*
X1967842D01*
Y1384167D01*
X1966983D01*
Y1384338D01*
X1966812D01*
Y1384167D01*
X1966640D01*
Y1384338D01*
X1966468D01*
Y1384167D01*
X1966296D01*
Y1384338D01*
X1965781D01*
Y1384510D01*
X1965610D01*
Y1384338D01*
X1965781D01*
Y1384167D01*
X1965610D01*
Y1384338D01*
X1965438D01*
Y1384510D01*
X1964236D01*
Y1384338D01*
X1964065D01*
Y1384510D01*
X1961489D01*
Y1384338D01*
X1961318D01*
Y1384510D01*
X1960116D01*
Y1384338D01*
X1959944D01*
Y1384510D01*
X1959429D01*
Y1384338D01*
X1959258D01*
Y1384510D01*
X1959086D01*
Y1384338D01*
X1958914D01*
Y1384510D01*
X1958742D01*
Y1384338D01*
X1958227D01*
Y1384510D01*
X1958056D01*
Y1384338D01*
X1957884D01*
Y1384167D01*
X1957712D01*
Y1384338D01*
X1957541D01*
Y1384167D01*
X1957369D01*
Y1384338D01*
X1957197D01*
Y1384167D01*
X1957026D01*
Y1384338D01*
X1956854D01*
Y1384167D01*
X1955652D01*
Y1383995D01*
X1955480D01*
Y1384167D01*
X1955309D01*
Y1383995D01*
X1955137D01*
Y1384167D01*
X1954965D01*
Y1383995D01*
X1954794D01*
Y1384167D01*
X1954622D01*
Y1384338D01*
X1955480D01*
Y1384510D01*
X1955652D01*
Y1384338D01*
X1955824D01*
Y1384510D01*
X1955995D01*
Y1384338D01*
X1956167D01*
Y1384510D01*
X1956339D01*
Y1384682D01*
X1956511D01*
Y1384510D01*
X1957026D01*
Y1384682D01*
X1957541D01*
Y1384510D01*
X1957712D01*
Y1384682D01*
X1959258D01*
Y1384853D01*
X1959429D01*
Y1384682D01*
X1959601D01*
Y1384853D01*
X1959772D01*
Y1384682D01*
X1959944D01*
Y1384853D01*
X1960116D01*
Y1384682D01*
X1960288D01*
Y1384853D01*
X1960459D01*
Y1384682D01*
X1960631D01*
Y1384853D01*
X1960803D01*
Y1385025D01*
X1960974D01*
Y1384853D01*
X1961146D01*
Y1385025D01*
X1961318D01*
Y1384853D01*
X1961489D01*
Y1385025D01*
X1961661D01*
Y1384853D01*
X1961833D01*
Y1385025D01*
X1962004D01*
Y1384853D01*
X1962176D01*
Y1385025D01*
X1962348D01*
Y1384853D01*
X1962519D01*
Y1385025D01*
X1962691D01*
Y1384853D01*
X1962863D01*
Y1385025D01*
X1963035D01*
Y1384853D01*
X1963206D01*
Y1385025D01*
X1963378D01*
Y1384853D01*
X1963549D01*
Y1385025D01*
X1963721D01*
Y1384853D01*
D02*
G37*
G36*
X1984495Y1390175D02*
X1984666D01*
Y1390004D01*
X1984838D01*
Y1389832D01*
X1985010D01*
Y1389660D01*
X1985181D01*
Y1389489D01*
Y1389317D01*
Y1389145D01*
X1985353D01*
Y1388974D01*
X1985525D01*
Y1388802D01*
Y1388630D01*
Y1388459D01*
X1985697D01*
Y1388287D01*
X1985868D01*
Y1388115D01*
X1986040D01*
Y1387944D01*
Y1387772D01*
X1986383D01*
Y1387600D01*
X1986212D01*
Y1387428D01*
X1986383D01*
Y1387257D01*
X1986555D01*
Y1387085D01*
X1986727D01*
Y1386913D01*
Y1386742D01*
Y1386570D01*
X1986898D01*
Y1386398D01*
X1987070D01*
Y1386227D01*
X1987242D01*
Y1386055D01*
Y1385883D01*
Y1385712D01*
X1987413D01*
Y1385540D01*
X1987585D01*
Y1385368D01*
X1987757D01*
Y1385197D01*
Y1385025D01*
X1987928D01*
Y1384853D01*
Y1384682D01*
X1988100D01*
Y1384510D01*
X1988272D01*
Y1384338D01*
X1988443D01*
Y1384167D01*
X1985868D01*
Y1384338D01*
X1985697D01*
Y1384167D01*
X1985525D01*
Y1384338D01*
X1985353D01*
Y1384167D01*
X1985181D01*
Y1384338D01*
X1985010D01*
Y1384510D01*
X1984838D01*
Y1384338D01*
X1984323D01*
Y1384510D01*
X1984151D01*
Y1384338D01*
X1983980D01*
Y1384510D01*
X1982778D01*
Y1384682D01*
X1982606D01*
Y1384510D01*
X1982435D01*
Y1384682D01*
X1982263D01*
Y1384510D01*
X1982091D01*
Y1384682D01*
X1981920D01*
Y1384853D01*
X1981748D01*
Y1384682D01*
X1981576D01*
Y1384853D01*
X1980031D01*
Y1385025D01*
X1979516D01*
Y1384853D01*
X1979344D01*
Y1385025D01*
X1979173D01*
Y1385197D01*
X1979001D01*
Y1385025D01*
X1978829D01*
Y1385197D01*
X1978658D01*
Y1385025D01*
X1978486D01*
Y1385197D01*
X1977284D01*
Y1385368D01*
X1977112D01*
Y1385197D01*
X1976941D01*
Y1385368D01*
X1976769D01*
Y1385197D01*
X1976597D01*
Y1385368D01*
X1976426D01*
Y1385197D01*
X1976254D01*
Y1385368D01*
X1975739D01*
Y1385197D01*
X1975567D01*
Y1385368D01*
X1972992D01*
Y1385197D01*
X1972820D01*
Y1385368D01*
X1972649D01*
Y1385197D01*
X1972477D01*
Y1385368D01*
X1972305D01*
Y1385197D01*
X1972134D01*
Y1385368D01*
X1971962D01*
Y1385197D01*
X1971104D01*
Y1385025D01*
X1970932D01*
Y1385197D01*
X1970760D01*
Y1385025D01*
X1970589D01*
Y1384853D01*
X1970417D01*
Y1385025D01*
X1970245D01*
Y1384853D01*
X1969387D01*
Y1384682D01*
X1969215D01*
Y1384510D01*
X1969387D01*
Y1384338D01*
X1969558D01*
Y1384167D01*
X1968700D01*
Y1383995D01*
X1968528D01*
Y1384167D01*
X1968357D01*
Y1384338D01*
X1969215D01*
Y1384510D01*
X1969043D01*
Y1384682D01*
X1968872D01*
Y1384853D01*
X1969043D01*
Y1385025D01*
X1969558D01*
Y1385197D01*
X1969730D01*
Y1385368D01*
X1969902D01*
Y1385197D01*
X1970073D01*
Y1385368D01*
X1970245D01*
Y1385540D01*
X1970417D01*
Y1385368D01*
X1970589D01*
Y1385540D01*
X1970760D01*
Y1385712D01*
X1970932D01*
Y1385540D01*
X1971104D01*
Y1385712D01*
X1971962D01*
Y1385883D01*
X1972134D01*
Y1385712D01*
X1972305D01*
Y1385883D01*
X1972820D01*
Y1386055D01*
X1972992D01*
Y1385883D01*
X1973164D01*
Y1386055D01*
X1974022D01*
Y1385883D01*
X1974194D01*
Y1386055D01*
X1974709D01*
Y1386227D01*
X1974881D01*
Y1386055D01*
X1976769D01*
Y1385883D01*
X1976941D01*
Y1386055D01*
X1977112D01*
Y1385883D01*
X1977284D01*
Y1386055D01*
X1977456D01*
Y1385883D01*
X1977627D01*
Y1386055D01*
X1977799D01*
Y1385883D01*
X1977971D01*
Y1385712D01*
X1978143D01*
Y1385883D01*
X1978314D01*
Y1385712D01*
X1978486D01*
Y1385883D01*
X1978658D01*
Y1385712D01*
X1979859D01*
Y1385540D01*
X1980031D01*
Y1385712D01*
X1980203D01*
Y1385540D01*
X1980374D01*
Y1385368D01*
X1980546D01*
Y1385540D01*
X1980718D01*
Y1385368D01*
X1981576D01*
Y1385197D01*
X1982091D01*
Y1385025D01*
X1982606D01*
Y1385197D01*
X1982778D01*
Y1385025D01*
X1983293D01*
Y1384853D01*
X1983465D01*
Y1385025D01*
X1983636D01*
Y1384853D01*
X1983808D01*
Y1385025D01*
X1983980D01*
Y1384853D01*
X1984151D01*
Y1384682D01*
X1984323D01*
Y1384853D01*
X1984495D01*
Y1384682D01*
X1985697D01*
Y1384510D01*
X1985868D01*
Y1384682D01*
X1986383D01*
Y1384510D01*
X1986555D01*
Y1384682D01*
X1987070D01*
Y1384510D01*
X1987242D01*
Y1384682D01*
X1987070D01*
Y1384853D01*
X1986898D01*
Y1385025D01*
X1987070D01*
Y1385197D01*
X1986898D01*
Y1385368D01*
X1986727D01*
Y1385540D01*
X1986555D01*
Y1385712D01*
Y1385883D01*
Y1386055D01*
X1986383D01*
Y1386227D01*
X1986212D01*
Y1386398D01*
Y1386570D01*
X1986040D01*
Y1386742D01*
Y1386913D01*
X1985868D01*
Y1387085D01*
Y1387257D01*
X1985697D01*
Y1387428D01*
Y1387600D01*
X1985525D01*
Y1387772D01*
X1985353D01*
Y1387944D01*
X1985181D01*
Y1388115D01*
X1985353D01*
Y1388287D01*
X1985181D01*
Y1388459D01*
X1985010D01*
Y1388630D01*
X1984838D01*
Y1388802D01*
Y1388974D01*
Y1389145D01*
X1984666D01*
Y1389317D01*
X1984495D01*
Y1389489D01*
X1984666D01*
Y1389660D01*
X1984495D01*
Y1389832D01*
X1984323D01*
Y1390004D01*
X1984151D01*
Y1390175D01*
Y1390347D01*
X1984495D01*
Y1390175D01*
D02*
G37*
G36*
X1968700Y1384682D02*
X1968872D01*
Y1384510D01*
X1968357D01*
Y1384682D01*
X1968528D01*
Y1384853D01*
X1968700D01*
Y1384682D01*
D02*
G37*
G36*
X1947755Y1385025D02*
X1947926D01*
Y1384853D01*
X1947583D01*
Y1384682D01*
Y1384510D01*
X1947411D01*
Y1384682D01*
Y1384853D01*
Y1385025D01*
X1947583D01*
Y1385197D01*
X1947755D01*
Y1385025D01*
D02*
G37*
G36*
X1954450Y1384167D02*
X1954622D01*
Y1383995D01*
X1953764D01*
Y1383823D01*
X1953592D01*
Y1383995D01*
X1953420D01*
Y1383823D01*
X1952905D01*
Y1383995D01*
X1952734D01*
Y1384167D01*
X1952905D01*
Y1383995D01*
X1953077D01*
Y1384167D01*
X1953249D01*
Y1384338D01*
X1953420D01*
Y1384167D01*
X1953935D01*
Y1384338D01*
X1954450D01*
Y1384167D01*
D02*
G37*
G36*
X1984151Y1383995D02*
X1985010D01*
Y1383823D01*
X1985181D01*
Y1383651D01*
X1985010D01*
Y1383823D01*
X1983808D01*
Y1383995D01*
X1983636D01*
Y1384167D01*
X1983808D01*
Y1383995D01*
X1983980D01*
Y1384167D01*
X1984151D01*
Y1383995D01*
D02*
G37*
G36*
X1988958Y1383651D02*
X1989474D01*
Y1383480D01*
X1987928D01*
Y1383651D01*
X1988100D01*
Y1383823D01*
X1988272D01*
Y1383651D01*
X1988787D01*
Y1383823D01*
X1988958D01*
Y1383651D01*
D02*
G37*
G36*
X1985697Y1383823D02*
X1985868D01*
Y1383651D01*
X1985697D01*
Y1383823D01*
X1985525D01*
Y1383995D01*
X1985697D01*
Y1383823D01*
D02*
G37*
G36*
X1985353D02*
X1985525D01*
Y1383651D01*
X1985353D01*
Y1383823D01*
X1985181D01*
Y1383995D01*
X1985353D01*
Y1383823D01*
D02*
G37*
G36*
X1952562Y1383995D02*
X1952734D01*
Y1383823D01*
X1951532D01*
Y1383651D01*
X1951360D01*
Y1383823D01*
X1951188D01*
Y1383995D01*
X1952390D01*
Y1384167D01*
X1952562D01*
Y1383995D01*
D02*
G37*
G36*
X1951017Y1383823D02*
X1951188D01*
Y1383651D01*
X1951017D01*
Y1383823D01*
X1950845D01*
Y1383995D01*
X1951017D01*
Y1383823D01*
D02*
G37*
G36*
X1950673D02*
X1950845D01*
Y1383651D01*
X1950673D01*
Y1383823D01*
X1950502D01*
Y1383995D01*
X1950673D01*
Y1383823D01*
D02*
G37*
G36*
X1988787Y1384853D02*
X1988958D01*
Y1384682D01*
X1989130D01*
Y1384510D01*
X1989302D01*
Y1384338D01*
X1989474D01*
Y1384167D01*
Y1383995D01*
X1989645D01*
Y1383823D01*
Y1383651D01*
X1989817D01*
Y1383480D01*
X1989645D01*
Y1383651D01*
X1989474D01*
Y1383823D01*
X1989302D01*
Y1383995D01*
Y1384167D01*
X1988958D01*
Y1384338D01*
X1989130D01*
Y1384510D01*
X1988958D01*
Y1384682D01*
X1988787D01*
Y1384853D01*
X1988615D01*
Y1385025D01*
X1988787D01*
Y1384853D01*
D02*
G37*
G36*
X1987585Y1383651D02*
X1987757D01*
Y1383480D01*
X1987585D01*
Y1383651D01*
X1987413D01*
Y1383480D01*
X1987242D01*
Y1383651D01*
X1987070D01*
Y1383823D01*
X1987585D01*
Y1383651D01*
D02*
G37*
G36*
X1986898D02*
X1987070D01*
Y1383480D01*
X1986898D01*
Y1383651D01*
X1986727D01*
Y1383480D01*
X1986555D01*
Y1383651D01*
X1986383D01*
Y1383823D01*
X1986898D01*
Y1383651D01*
D02*
G37*
G36*
X1986040Y1383823D02*
X1986212D01*
Y1383651D01*
X1986383D01*
Y1383480D01*
X1986212D01*
Y1383651D01*
X1986040D01*
Y1383823D01*
X1985868D01*
Y1383995D01*
X1986040D01*
Y1383823D01*
D02*
G37*
G36*
X1950330D02*
X1950502D01*
Y1383651D01*
X1950330D01*
Y1383480D01*
X1950158D01*
Y1383651D01*
X1949987D01*
Y1383823D01*
X1950158D01*
Y1383995D01*
X1950330D01*
Y1383823D01*
D02*
G37*
G36*
X1949815Y1383651D02*
X1949987D01*
Y1383480D01*
X1949815D01*
Y1383651D01*
X1949643D01*
Y1383480D01*
X1949472D01*
Y1383651D01*
X1949300D01*
Y1383823D01*
X1949815D01*
Y1383651D01*
D02*
G37*
G36*
X1949128D02*
X1949300D01*
Y1383480D01*
X1949128D01*
Y1383651D01*
X1948957D01*
Y1383823D01*
X1949128D01*
Y1383651D01*
D02*
G37*
G36*
X1947068Y1383995D02*
Y1383823D01*
Y1383651D01*
X1947583D01*
Y1383823D01*
X1947755D01*
Y1383651D01*
X1948270D01*
Y1383823D01*
X1948441D01*
Y1383651D01*
X1948613D01*
Y1383480D01*
X1947068D01*
Y1383651D01*
X1946896D01*
Y1383480D01*
X1946725D01*
Y1383651D01*
Y1383823D01*
Y1383995D01*
X1946896D01*
Y1384167D01*
X1947068D01*
Y1383995D01*
D02*
G37*
%LPC*%
G36*
X1968185Y1426057D02*
X1968013D01*
Y1425885D01*
X1968185D01*
Y1426057D01*
D02*
G37*
G36*
X1966296Y1399103D02*
X1966125D01*
Y1398931D01*
X1965610D01*
Y1398760D01*
X1965438D01*
Y1398588D01*
Y1398416D01*
Y1398244D01*
X1965266D01*
Y1398073D01*
X1965438D01*
Y1397901D01*
X1965266D01*
Y1397729D01*
X1965438D01*
Y1397558D01*
Y1397386D01*
Y1397214D01*
X1965610D01*
Y1397043D01*
X1966468D01*
Y1397214D01*
X1966640D01*
Y1397386D01*
X1966812D01*
Y1397558D01*
Y1397729D01*
Y1397901D01*
X1966983D01*
Y1398073D01*
X1966812D01*
Y1398244D01*
X1966640D01*
Y1398416D01*
X1966812D01*
Y1398588D01*
X1966640D01*
Y1398760D01*
Y1398931D01*
X1966296D01*
Y1399103D01*
D02*
G37*
%LPD*%
D10*
X2123848Y1178844D02*
G03*
X2123848Y1178844I-1250J0D01*
G01*
X2194616Y1444298D02*
G03*
X2194616Y1444298I-1250J0D01*
G01*
D11*
X2233954Y1262534D02*
G03*
X2233954Y1262534I-1270J0D01*
G01*
X2210856Y1416958D02*
X2220856D01*
X2215856D02*
X2220856D01*
X2215856Y1411958D02*
Y1416958D01*
Y1411958D02*
Y1421958D01*
D12*
X2197916Y1311086D02*
G03*
X2197916Y1312086I0J500D01*
G01*
D02*
G03*
X2197916Y1311086I0J-500D01*
G01*
X2175534Y1277774D02*
X2181884Y1284124D01*
X2174264Y1248564D02*
X2181884Y1240944D01*
X2212364D02*
X2218714Y1247294D01*
X2212364Y1284124D02*
X2218714Y1277774D01*
X2193584Y1316144D02*
Y1323524D01*
Y1316144D02*
X2194360D01*
X2193584Y1338510D02*
Y1346144D01*
X2194360D01*
X2222554D02*
X2223584D01*
Y1338256D02*
Y1346144D01*
X2222554Y1316144D02*
X2223584D01*
Y1324032D01*
X2021856Y1523458D02*
X2091856D01*
X2021856D02*
X2091856D01*
X2021856Y1422458D02*
X2091856D01*
X2021856D02*
X2091856D01*
X2161388Y1206185D02*
X2166387Y1198688D01*
Y1206185D02*
X2161388Y1198688D01*
X2173884D02*
X2168886D01*
X2173884Y1203686D01*
Y1204936D01*
X2172635Y1206185D01*
X2170135D01*
X2168886Y1204936D01*
X1910162Y1576264D02*
X1920159Y1582928D01*
X1910162D02*
X1920159Y1576264D01*
Y1586260D02*
Y1589593D01*
Y1587926D01*
X1910162D01*
X1911828Y1586260D01*
X1900428Y1545707D02*
X1907092Y1535710D01*
Y1545707D02*
X1900428Y1535710D01*
X1910425Y1545707D02*
Y1535710D01*
X1913757Y1539042D01*
X1917089Y1535710D01*
Y1545707D01*
X1927086Y1535710D02*
X1920422D01*
X1927086Y1542375D01*
Y1544041D01*
X1925420Y1545707D01*
X1922088D01*
X1920422Y1544041D01*
X1903139Y1236317D02*
X1909804Y1226320D01*
Y1236317D02*
X1903139Y1226320D01*
X1913136Y1236317D02*
Y1226320D01*
X1916468Y1229652D01*
X1919801Y1226320D01*
Y1236317D01*
X1923133Y1226320D02*
X1926465D01*
X1924799D01*
Y1236317D01*
X1923133Y1234650D01*
X2039035Y1407540D02*
Y1400875D01*
X2042367Y1397543D01*
X2045700Y1400875D01*
Y1407540D01*
X2049032D02*
Y1397543D01*
X2054030D01*
X2055696Y1399209D01*
Y1400875D01*
X2054030Y1402541D01*
X2049032D01*
X2054030D01*
X2055696Y1404207D01*
Y1405873D01*
X2054030Y1407540D01*
X2049032D01*
X2059029Y1397543D02*
Y1404207D01*
X2062361Y1407540D01*
X2065693Y1404207D01*
Y1397543D01*
Y1402541D01*
X2059029D01*
X2069026Y1407540D02*
X2075690D01*
X2072358D01*
Y1397543D01*
X2079022Y1395877D02*
X2085687D01*
X2089019Y1397543D02*
Y1404207D01*
X2092351Y1407540D01*
X2095684Y1404207D01*
Y1397543D01*
Y1402541D01*
X2089019D01*
X2099016Y1407540D02*
Y1397543D01*
X2104014D01*
X2105680Y1399209D01*
Y1405873D01*
X2104014Y1407540D01*
X2099016D01*
X2115677Y1405873D02*
X2114011Y1407540D01*
X2110679D01*
X2109013Y1405873D01*
Y1399209D01*
X2110679Y1397543D01*
X2114011D01*
X2115677Y1399209D01*
X2170854Y1456127D02*
X2160858D01*
Y1461126D01*
X2162524Y1462792D01*
X2165856D01*
X2167522Y1461126D01*
Y1456127D01*
Y1459460D02*
X2170854Y1462792D01*
X2160858Y1472789D02*
X2162524Y1469456D01*
X2165856Y1466124D01*
X2169188D01*
X2170854Y1467790D01*
Y1471123D01*
X2169188Y1472789D01*
X2167522D01*
X2165856Y1471123D01*
Y1466124D01*
X2052606Y1380318D02*
Y1390314D01*
X2057604D01*
X2059270Y1388648D01*
Y1385316D01*
X2057604Y1383650D01*
X2052606D01*
X2062603Y1390314D02*
Y1380318D01*
X2067601D01*
X2069267Y1381984D01*
Y1383650D01*
X2067601Y1385316D01*
X2062603D01*
X2067601D01*
X2069267Y1386982D01*
Y1388648D01*
X2067601Y1390314D01*
X2062603D01*
X2072599Y1380318D02*
X2075932D01*
X2074265D01*
Y1390314D01*
X2072599Y1388648D01*
X2087594Y1380318D02*
X2080930D01*
X2087594Y1386982D01*
Y1388648D01*
X2085928Y1390314D01*
X2082596D01*
X2080930Y1388648D01*
X2121033Y1228934D02*
Y1238931D01*
X2126031D01*
X2127698Y1237264D01*
Y1233932D01*
X2126031Y1232266D01*
X2121033D01*
X2131030Y1228934D02*
Y1235598D01*
X2134362Y1238931D01*
X2137694Y1235598D01*
Y1228934D01*
Y1233932D01*
X2131030D01*
X2141027Y1237264D02*
X2142693Y1238931D01*
X2146025D01*
X2147691Y1237264D01*
Y1235598D01*
X2146025Y1233932D01*
X2147691Y1232266D01*
Y1230600D01*
X2146025Y1228934D01*
X2142693D01*
X2141027Y1230600D01*
Y1232266D01*
X2142693Y1233932D01*
X2141027Y1235598D01*
Y1237264D01*
X2142693Y1233932D02*
X2146025D01*
X2027077Y1359443D02*
X2017080D01*
Y1364442D01*
X2018746Y1366108D01*
X2022078D01*
X2023744Y1364442D01*
Y1359443D01*
X2027077Y1369440D02*
X2020412D01*
X2017080Y1372772D01*
X2020412Y1376104D01*
X2027077D01*
X2022078D01*
Y1369440D01*
X2018746Y1379437D02*
X2017080Y1381103D01*
Y1384435D01*
X2018746Y1386101D01*
X2025410D01*
X2027077Y1384435D01*
Y1381103D01*
X2025410Y1379437D01*
X2018746D01*
X2079519Y1346024D02*
Y1352688D01*
X2082851Y1356021D01*
X2086183Y1352688D01*
Y1346024D01*
Y1351022D01*
X2079519D01*
X2089516Y1356021D02*
Y1346024D01*
X2094514D01*
X2096180Y1347690D01*
Y1354354D01*
X2094514Y1356021D01*
X2089516D01*
X2106177Y1354354D02*
X2104511Y1356021D01*
X2101178D01*
X2099512Y1354354D01*
Y1347690D01*
X2101178Y1346024D01*
X2104511D01*
X2106177Y1347690D01*
X2114508Y1346024D02*
Y1356021D01*
X2109509Y1351022D01*
X2116174D01*
X2060977Y1362268D02*
Y1368932D01*
X2064309Y1372265D01*
X2067641Y1368932D01*
Y1362268D01*
Y1367266D01*
X2060977D01*
X2070974Y1372265D02*
Y1362268D01*
X2075972D01*
X2077638Y1363934D01*
Y1370598D01*
X2075972Y1372265D01*
X2070974D01*
X2087635Y1370598D02*
X2085969Y1372265D01*
X2082636D01*
X2080970Y1370598D01*
Y1363934D01*
X2082636Y1362268D01*
X2085969D01*
X2087635Y1363934D01*
X2090967Y1370598D02*
X2092633Y1372265D01*
X2095965D01*
X2097632Y1370598D01*
Y1368932D01*
X2095965Y1367266D01*
X2094299D01*
X2095965D01*
X2097632Y1365600D01*
Y1363934D01*
X2095965Y1362268D01*
X2092633D01*
X2090967Y1363934D01*
X2004265Y1363223D02*
X1997600D01*
X1994268Y1366555D01*
X1997600Y1369887D01*
X2004265D01*
X1999266D01*
Y1363223D01*
X1994268Y1373219D02*
X2004265D01*
Y1378218D01*
X2002598Y1379884D01*
X1995934D01*
X1994268Y1378218D01*
Y1373219D01*
X1995934Y1389881D02*
X1994268Y1388215D01*
Y1384882D01*
X1995934Y1383216D01*
X2002598D01*
X2004265Y1384882D01*
Y1388215D01*
X2002598Y1389881D01*
X2004265Y1399878D02*
Y1393213D01*
X1997600Y1399878D01*
X1995934D01*
X1994268Y1398212D01*
Y1394879D01*
X1995934Y1393213D01*
X2238355Y1461789D02*
X2228358Y1455124D01*
X2238355D02*
X2228358Y1461789D01*
X2236688Y1451792D02*
X2238355Y1450126D01*
Y1446794D01*
X2236688Y1445127D01*
X2235022D01*
X2233356Y1446794D01*
Y1448460D01*
Y1446794D01*
X2231690Y1445127D01*
X2230024D01*
X2228358Y1446794D01*
Y1450126D01*
X2230024Y1451792D01*
X2159173Y1348792D02*
X2149176D01*
Y1353790D01*
X2150842Y1355456D01*
X2154174D01*
X2155840Y1353790D01*
Y1348792D01*
Y1352124D02*
X2159173Y1355456D01*
X2149176Y1365453D02*
Y1358788D01*
X2154174D01*
X2152508Y1362121D01*
Y1363787D01*
X2154174Y1365453D01*
X2157506D01*
X2159173Y1363787D01*
Y1360454D01*
X2157506Y1358788D01*
X2159427Y1374953D02*
X2149430D01*
Y1379952D01*
X2151096Y1381618D01*
X2154428D01*
X2156094Y1379952D01*
Y1374953D01*
Y1378286D02*
X2159427Y1381618D01*
Y1389949D02*
X2149430D01*
X2154428Y1384950D01*
Y1391615D01*
X2170854Y1436127D02*
X2160858D01*
Y1441126D01*
X2162524Y1442792D01*
X2165856D01*
X2167522Y1441126D01*
Y1436127D01*
Y1439460D02*
X2170854Y1442792D01*
X2162524Y1446124D02*
X2160858Y1447790D01*
Y1451123D01*
X2162524Y1452789D01*
X2164190D01*
X2165856Y1451123D01*
Y1449456D01*
Y1451123D01*
X2167522Y1452789D01*
X2169188D01*
X2170854Y1451123D01*
Y1447790D01*
X2169188Y1446124D01*
X2147234Y1253564D02*
X2137238D01*
Y1258562D01*
X2138904Y1260228D01*
X2142236D01*
X2143902Y1258562D01*
Y1253564D01*
Y1256896D02*
X2147234Y1260228D01*
Y1270225D02*
Y1263560D01*
X2140570Y1270225D01*
X2138904D01*
X2137238Y1268559D01*
Y1265226D01*
X2138904Y1263560D01*
X1972670Y1482406D02*
Y1492402D01*
X1977668D01*
X1979334Y1490736D01*
Y1487404D01*
X1977668Y1485738D01*
X1972670D01*
X1976002D02*
X1979334Y1482406D01*
X1982666D02*
X1985999D01*
X1984333D01*
Y1492402D01*
X1982666Y1490736D01*
X2216201Y1296080D02*
Y1286084D01*
X2222866D01*
X2232863D02*
X2226198D01*
X2232863Y1292748D01*
Y1294414D01*
X2231197Y1296080D01*
X2227864D01*
X2226198Y1294414D01*
X1949358Y1521454D02*
X1959355D01*
Y1528118D01*
Y1531450D02*
Y1534783D01*
Y1533116D01*
X1949358D01*
X1951024Y1531450D01*
X1952027Y1341707D02*
Y1331710D01*
X1957025D01*
X1958692Y1333376D01*
Y1340040D01*
X1957025Y1341707D01*
X1952027D01*
X1962024D02*
Y1331710D01*
X1967022D01*
X1968688Y1333376D01*
Y1340040D01*
X1967022Y1341707D01*
X1962024D01*
X1978685Y1331710D02*
X1972021D01*
X1978685Y1338374D01*
Y1340040D01*
X1977019Y1341707D01*
X1973687D01*
X1972021Y1340040D01*
X1966693Y1524456D02*
Y1514460D01*
X1971692D01*
X1973358Y1516126D01*
Y1522790D01*
X1971692Y1524456D01*
X1966693D01*
X1976690D02*
Y1514460D01*
X1981688D01*
X1983354Y1516126D01*
Y1522790D01*
X1981688Y1524456D01*
X1976690D01*
X1986687Y1514460D02*
X1990019D01*
X1988353D01*
Y1524456D01*
X1986687Y1522790D01*
X2177878Y1345967D02*
X2187874D01*
Y1350966D01*
X2186208Y1352632D01*
X2179544D01*
X2177878Y1350966D01*
Y1345967D01*
X2187874Y1355964D02*
X2181210D01*
X2177878Y1359296D01*
X2181210Y1362628D01*
X2187874D01*
X2182876D01*
Y1355964D01*
X2187874Y1365961D02*
Y1369293D01*
Y1367627D01*
X2177878D01*
X2179544Y1365961D01*
X2158970Y1291956D02*
X2157304Y1290290D01*
Y1286958D01*
X2158970Y1285291D01*
X2165634D01*
X2167301Y1286958D01*
Y1290290D01*
X2165634Y1291956D01*
X2158970Y1295288D02*
X2157304Y1296954D01*
Y1300287D01*
X2158970Y1301953D01*
X2160636D01*
X2162302Y1300287D01*
X2163968Y1301953D01*
X2165634D01*
X2167301Y1300287D01*
Y1296954D01*
X2165634Y1295288D01*
X2163968D01*
X2162302Y1296954D01*
X2160636Y1295288D01*
X2158970D01*
X2162302Y1296954D02*
Y1300287D01*
X2187522Y1388126D02*
X2189188Y1386460D01*
X2192521D01*
X2194187Y1388126D01*
Y1394790D01*
X2192521Y1396456D01*
X2189188D01*
X2187522Y1394790D01*
X2184190Y1386460D02*
X2177525D01*
Y1388126D01*
X2184190Y1394790D01*
Y1396456D01*
X2120048Y1263498D02*
X2118382Y1261832D01*
Y1258500D01*
X2120048Y1256833D01*
X2126712D01*
X2128378Y1258500D01*
Y1261832D01*
X2126712Y1263498D01*
X2118382Y1273495D02*
X2120048Y1270163D01*
X2123380Y1266830D01*
X2126712D01*
X2128378Y1268496D01*
Y1271829D01*
X2126712Y1273495D01*
X2125046D01*
X2123380Y1271829D01*
Y1266830D01*
X2137320Y1350492D02*
X2135654Y1348826D01*
Y1345494D01*
X2137320Y1343828D01*
X2143984D01*
X2145650Y1345494D01*
Y1348826D01*
X2143984Y1350492D01*
X2135654Y1360489D02*
Y1353824D01*
X2140652D01*
X2138986Y1357157D01*
Y1358823D01*
X2140652Y1360489D01*
X2143984D01*
X2145650Y1358823D01*
Y1355490D01*
X2143984Y1353824D01*
X2119346Y1348090D02*
X2117680Y1346424D01*
Y1343092D01*
X2119346Y1341425D01*
X2126010D01*
X2127677Y1343092D01*
Y1346424D01*
X2126010Y1348090D01*
X2127677Y1356421D02*
X2117680D01*
X2122678Y1351422D01*
Y1358087D01*
X2157506Y1488192D02*
X2159173Y1489858D01*
Y1493191D01*
X2157506Y1494857D01*
X2150842D01*
X2149176Y1493191D01*
Y1489858D01*
X2150842Y1488192D01*
X2157506Y1484860D02*
X2159173Y1483194D01*
Y1479862D01*
X2157506Y1478195D01*
X2155840D01*
X2154174Y1479862D01*
Y1481528D01*
Y1479862D01*
X2152508Y1478195D01*
X2150842D01*
X2149176Y1479862D01*
Y1483194D01*
X2150842Y1484860D01*
X2134392Y1487422D02*
X2136059Y1489088D01*
Y1492421D01*
X2134392Y1494087D01*
X2127728D01*
X2126062Y1492421D01*
Y1489088D01*
X2127728Y1487422D01*
X2126062Y1477426D02*
Y1484090D01*
X2132726Y1477426D01*
X2134392D01*
X2136059Y1479092D01*
Y1482424D01*
X2134392Y1484090D01*
X1935450Y1463802D02*
X1933784Y1462136D01*
Y1458804D01*
X1935450Y1457138D01*
X1942114D01*
X1943781Y1458804D01*
Y1462136D01*
X1942114Y1463802D01*
X1943781Y1467134D02*
Y1470467D01*
Y1468801D01*
X1933784D01*
X1935450Y1467134D01*
D13*
X2117856Y1428958D02*
G03*
X2118856Y1428958I500J0D01*
G01*
D02*
G03*
X2117856Y1428958I-500J0D01*
G01*
D02*
G03*
X2118856Y1428958I500J0D01*
G01*
X1901156Y1367358D02*
X1926556D01*
X1901156D02*
Y1468958D01*
X1926556Y1367358D02*
Y1468958D01*
X1901156D02*
X1926556D01*
X2129098Y1130844D02*
X2207698D01*
X2141598Y1215844D02*
X2195198D01*
X2141598Y1198844D02*
Y1215844D01*
X2129098Y1198844D02*
X2141598D01*
X2129098Y1130844D02*
Y1198844D01*
X2195198D02*
Y1215844D01*
Y1198844D02*
X2207698D01*
Y1130844D02*
Y1198844D01*
X1899510Y1176134D02*
Y1222134D01*
X1937510D01*
Y1176134D02*
Y1222134D01*
X1899510Y1176134D02*
X1937510D01*
X2118876Y1291588D02*
Y1292588D01*
X2127376Y1291588D02*
Y1292588D01*
X2118606Y1322838D02*
Y1323838D01*
X2127106Y1322838D02*
Y1323838D01*
X1901356Y1636958D02*
Y1646958D01*
X1896356Y1641958D02*
X1906356D01*
X1930856Y1746098D02*
X2210856D01*
X1930856Y1537818D02*
X2210856D01*
X1930856Y1663758D02*
Y1746098D01*
X2210856Y1663758D02*
Y1746098D01*
Y1537818D02*
Y1620158D01*
X1930856Y1537818D02*
Y1620158D01*
X1900526Y1482738D02*
Y1528738D01*
X1938526D01*
Y1482738D02*
Y1528738D01*
X1900526Y1482738D02*
X1938526D01*
X2198446Y1424958D02*
X2244166D01*
X2198446D02*
Y1434958D01*
X2244166Y1424958D02*
Y1483960D01*
X2198446D02*
X2244166D01*
X2198446Y1473958D02*
Y1483960D01*
X2126810Y1514466D02*
Y1515466D01*
X2135310Y1514466D02*
Y1515466D01*
X1958526Y1463446D02*
Y1464446D01*
X1950026Y1463446D02*
Y1464446D01*
M02*
