G04*
G04 #@! TF.GenerationSoftware,Altium Limited,Altium Designer,20.2.7 (254)*
G04*
G04 Layer_Color=3326705*
%FSLAX44Y44*%
%MOMM*%
G71*
G04*
G04 #@! TF.SameCoordinates,2281EFF5-857D-4E86-B53A-B943DB852D4A*
G04*
G04*
G04 #@! TF.FilePolarity,Positive*
G04*
G01*
G75*
%ADD12C,0.1000*%
G36*
X2093134Y1668521D02*
X2093305D01*
Y1668349D01*
X2094164D01*
Y1668178D01*
X2094335D01*
Y1668006D01*
X2094507D01*
Y1668178D01*
X2094679D01*
Y1668006D01*
X2094850D01*
Y1667834D01*
X2095194D01*
Y1667663D01*
X2095537D01*
Y1667491D01*
X2095709D01*
Y1667319D01*
X2096224D01*
Y1667148D01*
X2096396D01*
Y1666976D01*
X2096567D01*
Y1666804D01*
X2096739D01*
Y1666633D01*
X2096911D01*
Y1666461D01*
X2097082D01*
Y1666289D01*
X2097254D01*
Y1666117D01*
X2097426D01*
Y1665946D01*
X2097598D01*
Y1665774D01*
X2097426D01*
Y1665602D01*
X2097769D01*
Y1665431D01*
Y1665259D01*
X2097941D01*
Y1665087D01*
X2098112D01*
Y1664916D01*
X2098284D01*
Y1664744D01*
X2098112D01*
Y1664572D01*
X2098284D01*
Y1664401D01*
X2098456D01*
Y1664229D01*
Y1664057D01*
Y1663885D01*
X2098627D01*
Y1663714D01*
Y1663542D01*
Y1663371D01*
X2098799D01*
Y1663199D01*
Y1663027D01*
Y1662855D01*
X2098971D01*
Y1662684D01*
Y1662512D01*
Y1662340D01*
X2099143D01*
Y1662169D01*
Y1661997D01*
Y1661825D01*
X2099314D01*
Y1661654D01*
X2099143D01*
Y1661482D01*
X2099314D01*
Y1661310D01*
X2099143D01*
Y1661139D01*
X2099314D01*
Y1660967D01*
Y1660795D01*
Y1660624D01*
X2099143D01*
Y1660452D01*
X2099314D01*
Y1660280D01*
Y1660108D01*
Y1659937D01*
X2099486D01*
Y1659765D01*
X2099314D01*
Y1659594D01*
Y1659422D01*
Y1659250D01*
X2099486D01*
Y1659078D01*
X2099314D01*
Y1658907D01*
Y1658735D01*
Y1658563D01*
X2099486D01*
Y1658392D01*
X2099314D01*
Y1658220D01*
Y1658048D01*
Y1657877D01*
X2099486D01*
Y1657705D01*
X2099314D01*
Y1657533D01*
Y1657362D01*
Y1657190D01*
X2099486D01*
Y1657018D01*
X2099314D01*
Y1656847D01*
Y1656675D01*
Y1656503D01*
X2099486D01*
Y1656331D01*
X2099314D01*
Y1656160D01*
Y1655988D01*
Y1655816D01*
X2099486D01*
Y1655645D01*
X2099314D01*
Y1655473D01*
Y1655301D01*
Y1655130D01*
X2099143D01*
Y1654958D01*
X2099314D01*
Y1654786D01*
X2099143D01*
Y1654615D01*
X2099314D01*
Y1654443D01*
X2099143D01*
Y1654271D01*
X2099314D01*
Y1654100D01*
X2099143D01*
Y1653928D01*
X2098971D01*
Y1653756D01*
Y1653585D01*
Y1653413D01*
X2098799D01*
Y1653241D01*
X2098971D01*
Y1653070D01*
X2098799D01*
Y1652898D01*
Y1652726D01*
Y1652554D01*
X2098627D01*
Y1652383D01*
X2098456D01*
Y1652211D01*
X2098627D01*
Y1652039D01*
X2098456D01*
Y1651868D01*
X2098284D01*
Y1651696D01*
Y1651524D01*
Y1651353D01*
X2098112D01*
Y1651181D01*
Y1651009D01*
X2097769D01*
Y1650838D01*
X2097941D01*
Y1650666D01*
X2097769D01*
Y1650494D01*
X2097598D01*
Y1650323D01*
X2097426D01*
Y1650151D01*
Y1649979D01*
X2097254D01*
Y1649808D01*
Y1649636D01*
X2097082D01*
Y1649464D01*
X2096911D01*
Y1649293D01*
X2096739D01*
Y1649121D01*
X2096567D01*
Y1648949D01*
X2096396D01*
Y1648777D01*
X2096224D01*
Y1648606D01*
X2095709D01*
Y1648434D01*
X2095537D01*
Y1648262D01*
X2095366D01*
Y1648091D01*
X2095194D01*
Y1647919D01*
X2094679D01*
Y1647747D01*
X2094507D01*
Y1647576D01*
X2094335D01*
Y1647747D01*
X2094164D01*
Y1647576D01*
X2093992D01*
Y1647404D01*
X2093820D01*
Y1647576D01*
X2093649D01*
Y1647404D01*
X2093134D01*
Y1647232D01*
X2092275D01*
Y1647061D01*
X2092104D01*
Y1647232D01*
X2091932D01*
Y1647061D01*
X2091760D01*
Y1647232D01*
X2091589D01*
Y1647061D01*
X2091417D01*
Y1646889D01*
X2091245D01*
Y1647061D01*
X2090730D01*
Y1646889D01*
X2090558D01*
Y1647061D01*
X2090043D01*
Y1646889D01*
X2089872D01*
Y1647061D01*
X2089357D01*
Y1646889D01*
X2089185D01*
Y1647061D01*
X2089013D01*
Y1646889D01*
X2088842D01*
Y1647061D01*
X2088670D01*
Y1646889D01*
X2088498D01*
Y1647061D01*
X2087983D01*
Y1646889D01*
X2087812D01*
Y1647061D01*
X2087296D01*
Y1646889D01*
X2087125D01*
Y1647061D01*
X2086610D01*
Y1646889D01*
X2086438D01*
Y1647061D01*
X2086266D01*
Y1646889D01*
X2086095D01*
Y1647061D01*
X2085923D01*
Y1646889D01*
X2085751D01*
Y1647061D01*
X2085236D01*
Y1646889D01*
X2085065D01*
Y1647061D01*
X2084550D01*
Y1646889D01*
X2084378D01*
Y1647061D01*
X2083863D01*
Y1646889D01*
X2083691D01*
Y1647061D01*
X2083519D01*
Y1646889D01*
X2083348D01*
Y1647061D01*
X2083176D01*
Y1646889D01*
X2083004D01*
Y1647061D01*
X2082489D01*
Y1646889D01*
X2082318D01*
Y1647061D01*
X2081803D01*
Y1646889D01*
X2081631D01*
Y1647061D01*
X2081116D01*
Y1646889D01*
X2080944D01*
Y1647061D01*
X2080773D01*
Y1646889D01*
X2080601D01*
Y1647061D01*
X2080429D01*
Y1646889D01*
X2080258D01*
Y1647061D01*
X2079742D01*
Y1646889D01*
X2079571D01*
Y1647061D01*
X2079056D01*
Y1646889D01*
X2078884D01*
Y1647061D01*
X2078369D01*
Y1646889D01*
X2078197D01*
Y1647061D01*
X2078026D01*
Y1646889D01*
X2077854D01*
Y1647061D01*
X2077682D01*
Y1646889D01*
X2077511D01*
Y1647061D01*
X2076996D01*
Y1646889D01*
X2076481D01*
Y1646717D01*
X2076309D01*
Y1646546D01*
X2076137D01*
Y1646374D01*
X2075966D01*
Y1646202D01*
X2075794D01*
Y1646031D01*
X2075966D01*
Y1645859D01*
X2075794D01*
Y1645687D01*
X2075622D01*
Y1645516D01*
Y1645344D01*
Y1645172D01*
X2075450D01*
Y1645000D01*
X2075622D01*
Y1644829D01*
Y1644657D01*
Y1644485D01*
X2075450D01*
Y1644314D01*
X2075622D01*
Y1644142D01*
Y1643970D01*
Y1643799D01*
X2075450D01*
Y1643627D01*
X2075622D01*
Y1643455D01*
Y1643284D01*
Y1643112D01*
X2075450D01*
Y1642940D01*
X2075622D01*
Y1642769D01*
Y1642597D01*
Y1642425D01*
X2075794D01*
Y1642254D01*
X2075622D01*
Y1642082D01*
X2075794D01*
Y1641910D01*
Y1641739D01*
Y1641567D01*
X2075966D01*
Y1641395D01*
X2076137D01*
Y1641223D01*
Y1641052D01*
Y1640880D01*
X2076309D01*
Y1641052D01*
X2076481D01*
Y1640880D01*
X2076652D01*
Y1640708D01*
X2076824D01*
Y1640880D01*
X2076996D01*
Y1640708D01*
X2077511D01*
Y1640537D01*
X2077682D01*
Y1640708D01*
X2077854D01*
Y1640537D01*
X2078026D01*
Y1640708D01*
X2078197D01*
Y1640537D01*
X2078369D01*
Y1640708D01*
X2078541D01*
Y1640537D01*
X2078712D01*
Y1640708D01*
X2078884D01*
Y1640537D01*
X2079056D01*
Y1640708D01*
X2079227D01*
Y1640537D01*
X2079399D01*
Y1640708D01*
X2079571D01*
Y1640537D01*
X2079742D01*
Y1640708D01*
X2079914D01*
Y1640537D01*
X2080086D01*
Y1640708D01*
X2080258D01*
Y1640537D01*
X2080429D01*
Y1640708D01*
X2080601D01*
Y1640537D01*
X2080773D01*
Y1640708D01*
X2080944D01*
Y1640537D01*
X2081116D01*
Y1640708D01*
X2081288D01*
Y1640537D01*
X2081459D01*
Y1640708D01*
X2081631D01*
Y1640537D01*
X2081803D01*
Y1640708D01*
X2081974D01*
Y1640537D01*
X2082146D01*
Y1640708D01*
X2082318D01*
Y1640537D01*
X2082489D01*
Y1640708D01*
X2082661D01*
Y1640537D01*
X2082833D01*
Y1640708D01*
X2083004D01*
Y1640537D01*
X2083176D01*
Y1640708D01*
X2083348D01*
Y1640537D01*
X2083519D01*
Y1640708D01*
X2083691D01*
Y1640537D01*
X2083863D01*
Y1640708D01*
X2084035D01*
Y1640537D01*
X2084206D01*
Y1640708D01*
X2084378D01*
Y1640537D01*
X2084550D01*
Y1640708D01*
X2084721D01*
Y1640537D01*
X2084893D01*
Y1640708D01*
X2085065D01*
Y1640537D01*
X2085236D01*
Y1640708D01*
X2085408D01*
Y1640537D01*
X2085580D01*
Y1640708D01*
X2085751D01*
Y1640537D01*
X2085923D01*
Y1640708D01*
X2086095D01*
Y1640537D01*
X2086266D01*
Y1640708D01*
X2086438D01*
Y1640537D01*
X2086610D01*
Y1640708D01*
X2086781D01*
Y1640537D01*
X2086953D01*
Y1640708D01*
X2087125D01*
Y1640537D01*
X2087296D01*
Y1640708D01*
X2087468D01*
Y1640537D01*
X2087640D01*
Y1640708D01*
X2087812D01*
Y1640537D01*
X2087983D01*
Y1640708D01*
X2088155D01*
Y1640537D01*
X2088327D01*
Y1640708D01*
X2088498D01*
Y1640537D01*
X2088670D01*
Y1640708D01*
X2088842D01*
Y1640537D01*
X2089013D01*
Y1640708D01*
X2089185D01*
Y1640537D01*
X2089357D01*
Y1640708D01*
X2089528D01*
Y1640537D01*
X2089700D01*
Y1640708D01*
X2089872D01*
Y1640537D01*
X2090043D01*
Y1640708D01*
X2090215D01*
Y1640537D01*
X2090387D01*
Y1640708D01*
X2090558D01*
Y1640537D01*
X2090730D01*
Y1640708D01*
X2090902D01*
Y1640537D01*
X2091073D01*
Y1640708D01*
X2091245D01*
Y1640537D01*
X2091417D01*
Y1640708D01*
X2091589D01*
Y1640537D01*
X2091760D01*
Y1640708D01*
X2091932D01*
Y1640537D01*
X2092104D01*
Y1640708D01*
X2092275D01*
Y1640537D01*
X2092447D01*
Y1640708D01*
X2092619D01*
Y1640537D01*
X2092790D01*
Y1640708D01*
X2092962D01*
Y1640537D01*
X2093134D01*
Y1640708D01*
X2093305D01*
Y1640537D01*
X2093477D01*
Y1640708D01*
X2093649D01*
Y1640537D01*
X2093820D01*
Y1640708D01*
X2093992D01*
Y1640537D01*
X2094164D01*
Y1640708D01*
X2094335D01*
Y1640537D01*
X2094507D01*
Y1640708D01*
X2094679D01*
Y1640537D01*
X2094850D01*
Y1640708D01*
X2095022D01*
Y1640537D01*
X2095194D01*
Y1640708D01*
X2095366D01*
Y1640537D01*
X2095537D01*
Y1640708D01*
X2095709D01*
Y1640537D01*
X2095881D01*
Y1640708D01*
X2096052D01*
Y1640537D01*
X2096224D01*
Y1640708D01*
X2096396D01*
Y1640537D01*
X2096567D01*
Y1640708D01*
X2096739D01*
Y1640537D01*
X2096911D01*
Y1640708D01*
X2097082D01*
Y1640537D01*
X2097254D01*
Y1640708D01*
X2097426D01*
Y1640537D01*
X2097598D01*
Y1640708D01*
X2097769D01*
Y1640537D01*
X2097941D01*
Y1640708D01*
X2098112D01*
Y1640537D01*
X2098284D01*
Y1640708D01*
X2098456D01*
Y1640537D01*
X2098627D01*
Y1640365D01*
X2098799D01*
Y1640193D01*
Y1640022D01*
Y1639850D01*
X2098627D01*
Y1639678D01*
X2098799D01*
Y1639507D01*
Y1639335D01*
Y1639163D01*
X2098627D01*
Y1638992D01*
X2098799D01*
Y1638820D01*
Y1638648D01*
Y1638477D01*
X2098627D01*
Y1638305D01*
X2098799D01*
Y1638133D01*
Y1637962D01*
Y1637790D01*
X2098627D01*
Y1637618D01*
X2098799D01*
Y1637446D01*
Y1637275D01*
Y1637103D01*
X2098627D01*
Y1636931D01*
X2098799D01*
Y1636760D01*
Y1636588D01*
Y1636416D01*
X2098627D01*
Y1636245D01*
X2098799D01*
Y1636073D01*
Y1635901D01*
Y1635730D01*
X2098627D01*
Y1635558D01*
X2098799D01*
Y1635386D01*
Y1635215D01*
Y1635043D01*
X2098627D01*
Y1634871D01*
X2098799D01*
Y1634700D01*
Y1634528D01*
Y1634356D01*
X2098627D01*
Y1634185D01*
X2098799D01*
Y1634013D01*
Y1633841D01*
Y1633669D01*
X2098627D01*
Y1633498D01*
X2098799D01*
Y1633326D01*
Y1633154D01*
Y1632983D01*
X2098627D01*
Y1632811D01*
X2098799D01*
Y1632639D01*
X2098627D01*
Y1632468D01*
X2098456D01*
Y1632639D01*
X2098284D01*
Y1632468D01*
X2097769D01*
Y1632639D01*
X2097598D01*
Y1632468D01*
X2097082D01*
Y1632639D01*
X2096911D01*
Y1632468D01*
X2095709D01*
Y1632639D01*
X2095537D01*
Y1632468D01*
X2095022D01*
Y1632639D01*
X2094850D01*
Y1632468D01*
X2094335D01*
Y1632639D01*
X2094164D01*
Y1632468D01*
X2092962D01*
Y1632639D01*
X2092790D01*
Y1632468D01*
X2092275D01*
Y1632639D01*
X2092104D01*
Y1632468D01*
X2091589D01*
Y1632639D01*
X2091417D01*
Y1632468D01*
X2090215D01*
Y1632639D01*
X2090043D01*
Y1632468D01*
X2089528D01*
Y1632639D01*
X2089357D01*
Y1632468D01*
X2088842D01*
Y1632639D01*
X2088670D01*
Y1632468D01*
X2087468D01*
Y1632639D01*
X2087296D01*
Y1632468D01*
X2086781D01*
Y1632639D01*
X2086610D01*
Y1632468D01*
X2086095D01*
Y1632639D01*
X2085923D01*
Y1632468D01*
X2084721D01*
Y1632639D01*
X2084550D01*
Y1632468D01*
X2084035D01*
Y1632639D01*
X2083863D01*
Y1632468D01*
X2083348D01*
Y1632639D01*
X2083176D01*
Y1632468D01*
X2081974D01*
Y1632639D01*
X2081803D01*
Y1632468D01*
X2081288D01*
Y1632639D01*
X2081116D01*
Y1632468D01*
X2080601D01*
Y1632639D01*
X2080429D01*
Y1632468D01*
X2079227D01*
Y1632639D01*
X2079056D01*
Y1632468D01*
X2078541D01*
Y1632639D01*
X2078369D01*
Y1632468D01*
X2077854D01*
Y1632639D01*
X2077682D01*
Y1632468D01*
X2076824D01*
Y1632639D01*
X2076309D01*
Y1632468D01*
X2076137D01*
Y1632639D01*
X2075966D01*
Y1632468D01*
X2075794D01*
Y1632639D01*
X2075622D01*
Y1632811D01*
X2075450D01*
Y1632639D01*
X2075279D01*
Y1632811D01*
X2074764D01*
Y1632983D01*
X2074592D01*
Y1632811D01*
X2074420D01*
Y1632983D01*
X2073905D01*
Y1633154D01*
X2073390D01*
Y1633326D01*
X2072875D01*
Y1633498D01*
X2072704D01*
Y1633669D01*
X2072532D01*
Y1633498D01*
X2072360D01*
Y1633669D01*
X2072189D01*
Y1633841D01*
X2072017D01*
Y1634013D01*
X2071845D01*
Y1634185D01*
X2071330D01*
Y1634356D01*
X2071158D01*
Y1634528D01*
X2070987D01*
Y1634700D01*
X2070815D01*
Y1634871D01*
X2070643D01*
Y1635043D01*
X2070472D01*
Y1635215D01*
X2070300D01*
Y1635386D01*
X2070128D01*
Y1635558D01*
X2069957D01*
Y1635730D01*
Y1635901D01*
X2069785D01*
Y1636073D01*
Y1636245D01*
X2069613D01*
Y1636416D01*
X2069442D01*
Y1636588D01*
X2069270D01*
Y1636760D01*
X2069442D01*
Y1636931D01*
X2069270D01*
Y1637103D01*
X2069098D01*
Y1637275D01*
X2068927D01*
Y1637446D01*
X2069098D01*
Y1637618D01*
X2068927D01*
Y1637790D01*
X2068755D01*
Y1637962D01*
Y1638133D01*
Y1638305D01*
X2068583D01*
Y1638477D01*
Y1638648D01*
Y1638820D01*
Y1638992D01*
X2068412D01*
Y1639163D01*
Y1639335D01*
X2068240D01*
Y1639507D01*
X2068412D01*
Y1639678D01*
X2068240D01*
Y1639850D01*
Y1640022D01*
Y1640193D01*
Y1640365D01*
Y1640537D01*
X2068068D01*
Y1640708D01*
X2068240D01*
Y1640880D01*
X2068068D01*
Y1641052D01*
Y1641223D01*
Y1641395D01*
X2067896D01*
Y1641567D01*
X2068068D01*
Y1641739D01*
Y1641910D01*
Y1642082D01*
X2067896D01*
Y1642254D01*
X2068068D01*
Y1642425D01*
Y1642597D01*
Y1642769D01*
X2067896D01*
Y1642940D01*
X2068068D01*
Y1643112D01*
Y1643284D01*
Y1643455D01*
X2067896D01*
Y1643627D01*
X2068068D01*
Y1643799D01*
Y1643970D01*
Y1644142D01*
X2067896D01*
Y1644314D01*
X2068068D01*
Y1644485D01*
Y1644657D01*
Y1644829D01*
X2067896D01*
Y1645000D01*
X2068068D01*
Y1645172D01*
Y1645344D01*
Y1645516D01*
X2067896D01*
Y1645687D01*
X2068068D01*
Y1645859D01*
Y1646031D01*
Y1646202D01*
X2068240D01*
Y1646374D01*
X2068068D01*
Y1646546D01*
X2068240D01*
Y1646717D01*
X2068412D01*
Y1646889D01*
X2068240D01*
Y1647061D01*
Y1647232D01*
Y1647404D01*
X2068412D01*
Y1647576D01*
Y1647747D01*
Y1647919D01*
X2068583D01*
Y1648091D01*
X2068412D01*
Y1648262D01*
X2068583D01*
Y1648434D01*
X2068755D01*
Y1648606D01*
X2068583D01*
Y1648777D01*
X2068755D01*
Y1648949D01*
Y1649121D01*
X2068927D01*
Y1649293D01*
Y1649464D01*
X2069098D01*
Y1649636D01*
Y1649808D01*
Y1649979D01*
X2069270D01*
Y1650151D01*
X2069442D01*
Y1650323D01*
X2069270D01*
Y1650494D01*
X2069442D01*
Y1650666D01*
X2069613D01*
Y1650838D01*
X2069785D01*
Y1651009D01*
Y1651181D01*
X2069957D01*
Y1651353D01*
Y1651524D01*
X2070128D01*
Y1651696D01*
X2070300D01*
Y1651868D01*
X2070472D01*
Y1652039D01*
X2070643D01*
Y1652211D01*
Y1652383D01*
Y1652554D01*
X2070987D01*
Y1652726D01*
Y1652898D01*
X2071330D01*
Y1653070D01*
Y1653241D01*
X2071845D01*
Y1653413D01*
X2072017D01*
Y1653585D01*
X2072189D01*
Y1653756D01*
X2072360D01*
Y1653928D01*
X2072875D01*
Y1654100D01*
X2073047D01*
Y1654271D01*
X2073219D01*
Y1654443D01*
X2073390D01*
Y1654271D01*
X2073562D01*
Y1654443D01*
X2073734D01*
Y1654615D01*
X2074249D01*
Y1654786D01*
X2074420D01*
Y1654615D01*
X2074592D01*
Y1654786D01*
X2074764D01*
Y1654958D01*
X2074935D01*
Y1654786D01*
X2075107D01*
Y1654958D01*
X2075622D01*
Y1655130D01*
X2075794D01*
Y1654958D01*
X2075966D01*
Y1655130D01*
X2076824D01*
Y1655301D01*
X2076996D01*
Y1655130D01*
X2077167D01*
Y1654958D01*
X2077339D01*
Y1655130D01*
X2078197D01*
Y1655301D01*
X2078369D01*
Y1655130D01*
X2078541D01*
Y1654958D01*
X2078712D01*
Y1655130D01*
X2078884D01*
Y1655301D01*
X2079056D01*
Y1655130D01*
X2079571D01*
Y1655301D01*
X2079742D01*
Y1655130D01*
X2079914D01*
Y1654958D01*
X2080086D01*
Y1655130D01*
X2080944D01*
Y1655301D01*
X2081116D01*
Y1655130D01*
X2081288D01*
Y1654958D01*
X2081459D01*
Y1655130D01*
X2081631D01*
Y1655301D01*
X2081803D01*
Y1655130D01*
X2082318D01*
Y1655301D01*
X2082489D01*
Y1655130D01*
X2082661D01*
Y1654958D01*
X2082833D01*
Y1655130D01*
X2083691D01*
Y1655301D01*
X2083863D01*
Y1655130D01*
X2084035D01*
Y1654958D01*
X2084206D01*
Y1655130D01*
X2084378D01*
Y1655301D01*
X2084550D01*
Y1655130D01*
X2085065D01*
Y1655301D01*
X2085236D01*
Y1655130D01*
X2085408D01*
Y1654958D01*
X2085580D01*
Y1655130D01*
X2086438D01*
Y1655301D01*
X2086610D01*
Y1655130D01*
X2086781D01*
Y1654958D01*
X2086953D01*
Y1655130D01*
X2087125D01*
Y1655301D01*
X2087296D01*
Y1655130D01*
X2087812D01*
Y1655301D01*
X2087983D01*
Y1655130D01*
X2088155D01*
Y1654958D01*
X2088327D01*
Y1655130D01*
X2089185D01*
Y1655301D01*
X2089357D01*
Y1655130D01*
X2089528D01*
Y1654958D01*
X2089700D01*
Y1655130D01*
X2089872D01*
Y1655301D01*
X2090043D01*
Y1655130D01*
X2090558D01*
Y1655301D01*
X2090730D01*
Y1655130D01*
X2090902D01*
Y1655301D01*
X2091417D01*
Y1655473D01*
Y1655645D01*
Y1655816D01*
X2091589D01*
Y1655988D01*
X2091760D01*
Y1656160D01*
Y1656331D01*
Y1656503D01*
X2091932D01*
Y1656675D01*
Y1656847D01*
Y1657018D01*
X2091760D01*
Y1657190D01*
X2091932D01*
Y1657362D01*
X2091760D01*
Y1657533D01*
X2091932D01*
Y1657705D01*
X2091760D01*
Y1657877D01*
X2091932D01*
Y1658048D01*
Y1658220D01*
Y1658392D01*
X2091760D01*
Y1658563D01*
X2091932D01*
Y1658735D01*
Y1658907D01*
Y1659078D01*
X2091760D01*
Y1659250D01*
Y1659422D01*
Y1659594D01*
X2091589D01*
Y1659765D01*
X2091760D01*
Y1659937D01*
X2091589D01*
Y1660108D01*
X2091417D01*
Y1660280D01*
X2091245D01*
Y1660452D01*
X2091073D01*
Y1660624D01*
X2076481D01*
Y1660795D01*
X2076652D01*
Y1660967D01*
X2076481D01*
Y1661139D01*
X2076652D01*
Y1661310D01*
X2076481D01*
Y1661482D01*
X2076652D01*
Y1661654D01*
X2076481D01*
Y1661825D01*
X2076652D01*
Y1661997D01*
X2076481D01*
Y1662169D01*
X2076652D01*
Y1662340D01*
X2076481D01*
Y1662512D01*
X2076652D01*
Y1662684D01*
X2076481D01*
Y1662855D01*
X2076652D01*
Y1663027D01*
X2076481D01*
Y1663199D01*
X2076652D01*
Y1663371D01*
X2076481D01*
Y1663542D01*
X2076652D01*
Y1663714D01*
X2076481D01*
Y1663885D01*
X2076652D01*
Y1664057D01*
X2076481D01*
Y1664229D01*
X2076652D01*
Y1664401D01*
X2076481D01*
Y1664572D01*
X2076652D01*
Y1664744D01*
X2076481D01*
Y1664916D01*
X2076652D01*
Y1665087D01*
X2076481D01*
Y1665259D01*
X2076652D01*
Y1665431D01*
X2076481D01*
Y1665602D01*
X2076652D01*
Y1665774D01*
X2076481D01*
Y1665946D01*
X2076652D01*
Y1666117D01*
X2076481D01*
Y1666289D01*
X2076652D01*
Y1666461D01*
X2076481D01*
Y1666633D01*
X2076652D01*
Y1666804D01*
X2076481D01*
Y1666976D01*
X2076652D01*
Y1667148D01*
X2076481D01*
Y1667319D01*
X2076652D01*
Y1667491D01*
X2076481D01*
Y1667663D01*
X2076652D01*
Y1667834D01*
X2076481D01*
Y1668006D01*
X2076652D01*
Y1668178D01*
X2076481D01*
Y1668349D01*
X2076652D01*
Y1668521D01*
X2076481D01*
Y1668693D01*
X2091760D01*
Y1668521D01*
X2091932D01*
Y1668693D01*
X2092104D01*
Y1668521D01*
X2092275D01*
Y1668693D01*
X2092447D01*
Y1668521D01*
X2092619D01*
Y1668349D01*
X2092790D01*
Y1668521D01*
X2092962D01*
Y1668693D01*
X2093134D01*
Y1668521D01*
D02*
G37*
G36*
X2075622Y1667834D02*
X2075450D01*
Y1668006D01*
X2075622D01*
Y1667834D01*
D02*
G37*
G36*
X2072189Y1668864D02*
X2072360D01*
Y1668693D01*
X2072532D01*
Y1668521D01*
X2072704D01*
Y1668349D01*
X2073219D01*
Y1668178D01*
Y1668006D01*
X2073390D01*
Y1667834D01*
Y1667663D01*
X2073562D01*
Y1667834D01*
X2073734D01*
Y1667663D01*
X2073905D01*
Y1667491D01*
X2073562D01*
Y1667319D01*
Y1667148D01*
X2073047D01*
Y1666976D01*
X2072875D01*
Y1666804D01*
X2072704D01*
Y1666633D01*
X2072532D01*
Y1666461D01*
X2072360D01*
Y1666289D01*
X2072189D01*
Y1666117D01*
X2072017D01*
Y1666289D01*
X2071845D01*
Y1666461D01*
X2071673D01*
Y1666633D01*
X2071502D01*
Y1666804D01*
X2071330D01*
Y1666976D01*
X2071158D01*
Y1667148D01*
X2070815D01*
Y1667319D01*
Y1667491D01*
X2070472D01*
Y1667663D01*
X2070815D01*
Y1667834D01*
Y1668006D01*
X2071158D01*
Y1668178D01*
X2071330D01*
Y1668349D01*
X2071502D01*
Y1668521D01*
X2071673D01*
Y1668693D01*
X2071845D01*
Y1668864D01*
X2072017D01*
Y1669036D01*
X2072189D01*
Y1668864D01*
D02*
G37*
G36*
X2075450Y1667663D02*
X2075622D01*
Y1667491D01*
Y1667319D01*
Y1667148D01*
X2075450D01*
Y1666976D01*
X2075622D01*
Y1666804D01*
Y1666633D01*
Y1666461D01*
X2075450D01*
Y1666289D01*
X2075622D01*
Y1666117D01*
Y1665946D01*
Y1665774D01*
X2075450D01*
Y1665602D01*
X2075622D01*
Y1665431D01*
Y1665259D01*
Y1665087D01*
X2075450D01*
Y1664916D01*
X2075279D01*
Y1664744D01*
X2075107D01*
Y1664572D01*
X2074935D01*
Y1664401D01*
X2074592D01*
Y1664229D01*
X2074420D01*
Y1664057D01*
X2074077D01*
Y1663885D01*
X2073905D01*
Y1663714D01*
X2073734D01*
Y1663542D01*
X2073562D01*
Y1663371D01*
X2073047D01*
Y1663199D01*
X2072875D01*
Y1663027D01*
X2072704D01*
Y1662855D01*
X2072532D01*
Y1663027D01*
X2072360D01*
Y1663199D01*
X2072532D01*
Y1663371D01*
X2072360D01*
Y1663542D01*
X2072532D01*
Y1663714D01*
X2072360D01*
Y1663885D01*
X2072532D01*
Y1664057D01*
X2072360D01*
Y1664229D01*
X2072532D01*
Y1664401D01*
X2072360D01*
Y1664572D01*
X2072532D01*
Y1664744D01*
X2072360D01*
Y1664916D01*
X2072532D01*
Y1665087D01*
X2072360D01*
Y1665259D01*
X2072532D01*
Y1665431D01*
X2072360D01*
Y1665602D01*
X2072532D01*
Y1665774D01*
X2072704D01*
Y1665946D01*
X2072875D01*
Y1666117D01*
X2073047D01*
Y1666289D01*
X2073562D01*
Y1666461D01*
X2073734D01*
Y1666633D01*
X2073905D01*
Y1666804D01*
X2074077D01*
Y1666976D01*
X2074249D01*
Y1667148D01*
X2074420D01*
Y1667319D01*
X2074592D01*
Y1667491D01*
X2074764D01*
Y1667663D01*
X2075279D01*
Y1667834D01*
X2075450D01*
Y1667663D01*
D02*
G37*
G36*
X2072532Y1662684D02*
X2072360D01*
Y1662855D01*
X2072532D01*
Y1662684D01*
D02*
G37*
G36*
X2069098Y1667834D02*
Y1667663D01*
X2069442D01*
Y1667491D01*
X2069613D01*
Y1667319D01*
X2069785D01*
Y1667148D01*
X2069957D01*
Y1666976D01*
X2070128D01*
Y1666804D01*
X2070300D01*
Y1666633D01*
X2070815D01*
Y1666461D01*
X2070987D01*
Y1666289D01*
X2071158D01*
Y1666117D01*
X2071330D01*
Y1665946D01*
X2071502D01*
Y1665774D01*
X2071673D01*
Y1665602D01*
X2071845D01*
Y1665431D01*
X2071673D01*
Y1665259D01*
X2071845D01*
Y1665087D01*
Y1664916D01*
Y1664744D01*
X2071673D01*
Y1664572D01*
X2071845D01*
Y1664401D01*
X2071673D01*
Y1664229D01*
X2071845D01*
Y1664057D01*
X2071673D01*
Y1663885D01*
X2071845D01*
Y1663714D01*
Y1663542D01*
Y1663371D01*
X2071673D01*
Y1663199D01*
X2071845D01*
Y1663027D01*
Y1662855D01*
Y1662684D01*
X2071673D01*
Y1662855D01*
X2071502D01*
Y1663027D01*
X2071330D01*
Y1663199D01*
X2071158D01*
Y1663371D01*
X2070643D01*
Y1663542D01*
X2070815D01*
Y1663714D01*
X2070300D01*
Y1663885D01*
X2070128D01*
Y1664057D01*
X2069957D01*
Y1664229D01*
X2069785D01*
Y1664401D01*
X2069270D01*
Y1664572D01*
Y1664744D01*
X2068927D01*
Y1664916D01*
X2068755D01*
Y1665087D01*
X2068583D01*
Y1665259D01*
X2068755D01*
Y1665431D01*
X2068583D01*
Y1665602D01*
X2068755D01*
Y1665774D01*
X2068583D01*
Y1665946D01*
X2068755D01*
Y1666117D01*
X2068583D01*
Y1666289D01*
X2068755D01*
Y1666461D01*
X2068583D01*
Y1666633D01*
X2068755D01*
Y1666804D01*
X2068583D01*
Y1666976D01*
X2068755D01*
Y1667148D01*
X2068583D01*
Y1667319D01*
X2068755D01*
Y1667491D01*
X2068583D01*
Y1667663D01*
X2068755D01*
Y1667834D01*
X2068583D01*
Y1668006D01*
X2069098D01*
Y1667834D01*
D02*
G37*
G36*
X2075622Y1660624D02*
X2075450D01*
Y1660795D01*
X2075622D01*
Y1660624D01*
D02*
G37*
G36*
X2068927Y1664229D02*
X2069098D01*
Y1664057D01*
X2069270D01*
Y1663885D01*
X2069442D01*
Y1663714D01*
X2069613D01*
Y1663542D01*
X2070128D01*
Y1663371D01*
Y1663199D01*
X2070472D01*
Y1663027D01*
X2070643D01*
Y1662855D01*
X2070815D01*
Y1662684D01*
X2070987D01*
Y1662512D01*
X2071158D01*
Y1662340D01*
X2071330D01*
Y1662169D01*
X2071845D01*
Y1661997D01*
X2071673D01*
Y1661825D01*
X2071845D01*
Y1661654D01*
X2071673D01*
Y1661482D01*
X2071845D01*
Y1661310D01*
X2071673D01*
Y1661139D01*
X2071845D01*
Y1660967D01*
Y1660795D01*
Y1660624D01*
X2071673D01*
Y1660452D01*
X2071845D01*
Y1660280D01*
X2071673D01*
Y1660108D01*
X2071845D01*
Y1659937D01*
X2071673D01*
Y1659765D01*
X2071845D01*
Y1659594D01*
Y1659422D01*
Y1659250D01*
X2071330D01*
Y1659422D01*
X2071158D01*
Y1659594D01*
X2070987D01*
Y1659765D01*
X2070815D01*
Y1659937D01*
X2070300D01*
Y1660108D01*
X2070128D01*
Y1660280D01*
X2069957D01*
Y1660452D01*
X2069785D01*
Y1660624D01*
X2069613D01*
Y1660795D01*
X2069442D01*
Y1660967D01*
X2068927D01*
Y1661139D01*
Y1661310D01*
X2068583D01*
Y1661482D01*
X2068755D01*
Y1661654D01*
X2068583D01*
Y1661825D01*
X2068755D01*
Y1661997D01*
X2068583D01*
Y1662169D01*
X2068755D01*
Y1662340D01*
X2068583D01*
Y1662512D01*
X2068755D01*
Y1662684D01*
X2068583D01*
Y1662855D01*
X2068755D01*
Y1663027D01*
X2068583D01*
Y1663199D01*
X2068755D01*
Y1663371D01*
X2068583D01*
Y1663542D01*
X2068755D01*
Y1663714D01*
X2068583D01*
Y1663885D01*
X2068755D01*
Y1664057D01*
X2068583D01*
Y1664229D01*
X2068755D01*
Y1664401D01*
X2068927D01*
Y1664229D01*
D02*
G37*
G36*
X2075622Y1664057D02*
Y1663885D01*
Y1663714D01*
X2075450D01*
Y1663542D01*
X2075622D01*
Y1663371D01*
Y1663199D01*
Y1663027D01*
X2075450D01*
Y1662855D01*
X2075622D01*
Y1662684D01*
Y1662512D01*
Y1662340D01*
X2075450D01*
Y1662169D01*
X2075622D01*
Y1661997D01*
Y1661825D01*
Y1661654D01*
X2075450D01*
Y1661482D01*
X2075622D01*
Y1661310D01*
X2075450D01*
Y1661139D01*
X2075279D01*
Y1660967D01*
X2074935D01*
Y1660795D01*
Y1660624D01*
X2074420D01*
Y1660452D01*
X2074249D01*
Y1660280D01*
X2074077D01*
Y1660108D01*
X2073905D01*
Y1659937D01*
X2073562D01*
Y1659765D01*
X2073219D01*
Y1659594D01*
X2073047D01*
Y1659422D01*
X2072875D01*
Y1659250D01*
X2072704D01*
Y1659078D01*
X2072532D01*
Y1659250D01*
X2072360D01*
Y1659422D01*
X2072532D01*
Y1659594D01*
X2072360D01*
Y1659765D01*
X2072532D01*
Y1659937D01*
X2072360D01*
Y1660108D01*
X2072532D01*
Y1660280D01*
X2072360D01*
Y1660452D01*
X2072532D01*
Y1660624D01*
X2072360D01*
Y1660795D01*
X2072532D01*
Y1660967D01*
X2072360D01*
Y1661139D01*
X2072532D01*
Y1661310D01*
X2072360D01*
Y1661482D01*
X2072532D01*
Y1661654D01*
X2072360D01*
Y1661825D01*
X2072532D01*
Y1661997D01*
X2072704D01*
Y1662169D01*
X2072875D01*
Y1662340D01*
X2073047D01*
Y1662512D01*
X2073219D01*
Y1662684D01*
X2073390D01*
Y1662855D01*
X2073905D01*
Y1663027D01*
X2074077D01*
Y1663199D01*
X2074249D01*
Y1663371D01*
X2074420D01*
Y1663542D01*
X2074592D01*
Y1663714D01*
X2074764D01*
Y1663885D01*
X2075279D01*
Y1664057D01*
Y1664229D01*
X2075622D01*
Y1664057D01*
D02*
G37*
G36*
Y1656847D02*
X2075450D01*
Y1657018D01*
X2075622D01*
Y1656847D01*
D02*
G37*
G36*
X2075450Y1660452D02*
X2075622D01*
Y1660280D01*
X2075450D01*
Y1660108D01*
X2075622D01*
Y1659937D01*
Y1659765D01*
Y1659594D01*
X2075450D01*
Y1659422D01*
X2075622D01*
Y1659250D01*
Y1659078D01*
Y1658907D01*
X2075450D01*
Y1658735D01*
X2075622D01*
Y1658563D01*
Y1658392D01*
Y1658220D01*
X2075450D01*
Y1658048D01*
X2075622D01*
Y1657877D01*
Y1657705D01*
Y1657533D01*
X2075279D01*
Y1657362D01*
Y1657190D01*
X2074764D01*
Y1657018D01*
X2074592D01*
Y1656847D01*
X2074420D01*
Y1656675D01*
X2074249D01*
Y1656503D01*
X2074077D01*
Y1656331D01*
X2073905D01*
Y1656503D01*
X2073734D01*
Y1656331D01*
X2073905D01*
Y1656160D01*
X2073390D01*
Y1655988D01*
X2073219D01*
Y1655816D01*
X2073047D01*
Y1655645D01*
X2072875D01*
Y1655473D01*
X2072360D01*
Y1655645D01*
X2072532D01*
Y1655816D01*
X2072360D01*
Y1655988D01*
X2072532D01*
Y1656160D01*
X2072360D01*
Y1656331D01*
X2072532D01*
Y1656503D01*
X2072360D01*
Y1656675D01*
X2072532D01*
Y1656847D01*
X2072360D01*
Y1657018D01*
X2072532D01*
Y1657190D01*
X2072360D01*
Y1657362D01*
X2072532D01*
Y1657533D01*
X2072360D01*
Y1657705D01*
X2072532D01*
Y1657877D01*
X2072360D01*
Y1658048D01*
X2072532D01*
Y1658220D01*
X2072360D01*
Y1658392D01*
X2072875D01*
Y1658563D01*
X2073047D01*
Y1658735D01*
X2073219D01*
Y1658907D01*
X2073390D01*
Y1659078D01*
X2073562D01*
Y1659250D01*
X2073734D01*
Y1659422D01*
X2074249D01*
Y1659594D01*
Y1659765D01*
X2074592D01*
Y1659937D01*
X2074764D01*
Y1660108D01*
X2074935D01*
Y1660280D01*
X2075107D01*
Y1660452D01*
X2075279D01*
Y1660624D01*
X2075450D01*
Y1660452D01*
D02*
G37*
G36*
Y1656675D02*
X2075622D01*
Y1656503D01*
Y1656331D01*
Y1656160D01*
X2075450D01*
Y1655988D01*
X2075622D01*
Y1655816D01*
X2074764D01*
Y1655645D01*
X2074592D01*
Y1655816D01*
X2074420D01*
Y1655645D01*
X2074249D01*
Y1655473D01*
X2073734D01*
Y1655645D01*
X2073905D01*
Y1655816D01*
X2074077D01*
Y1655988D01*
X2074592D01*
Y1656160D01*
X2074764D01*
Y1656331D01*
X2074935D01*
Y1656503D01*
X2075107D01*
Y1656675D01*
X2075279D01*
Y1656847D01*
X2075450D01*
Y1656675D01*
D02*
G37*
G36*
X2068927Y1660452D02*
X2069098D01*
Y1660280D01*
X2069270D01*
Y1660108D01*
X2069442D01*
Y1659937D01*
X2069613D01*
Y1659765D01*
X2070128D01*
Y1659594D01*
X2070300D01*
Y1659422D01*
X2070472D01*
Y1659250D01*
X2070643D01*
Y1659078D01*
X2070815D01*
Y1658907D01*
X2070987D01*
Y1658735D01*
X2071502D01*
Y1658563D01*
Y1658392D01*
X2071845D01*
Y1658220D01*
Y1658048D01*
Y1657877D01*
X2071673D01*
Y1657705D01*
X2071845D01*
Y1657533D01*
X2071673D01*
Y1657362D01*
X2071845D01*
Y1657190D01*
X2071673D01*
Y1657018D01*
X2071845D01*
Y1656847D01*
Y1656675D01*
Y1656503D01*
X2071673D01*
Y1656331D01*
X2071845D01*
Y1656160D01*
X2071673D01*
Y1655988D01*
X2071845D01*
Y1655816D01*
X2071673D01*
Y1655645D01*
X2071845D01*
Y1655473D01*
X2071502D01*
Y1655645D01*
X2071158D01*
Y1655816D01*
X2070987D01*
Y1655988D01*
X2070815D01*
Y1656160D01*
X2070643D01*
Y1656331D01*
X2070472D01*
Y1656503D01*
X2069957D01*
Y1656675D01*
X2069785D01*
Y1656847D01*
X2069613D01*
Y1657018D01*
X2069442D01*
Y1657190D01*
X2069098D01*
Y1657362D01*
Y1657533D01*
X2068755D01*
Y1657705D01*
Y1657877D01*
X2068583D01*
Y1658048D01*
X2068755D01*
Y1658220D01*
X2068583D01*
Y1658392D01*
X2068755D01*
Y1658563D01*
X2068583D01*
Y1658735D01*
X2068755D01*
Y1658907D01*
X2068583D01*
Y1659078D01*
X2068755D01*
Y1659250D01*
X2068583D01*
Y1659422D01*
X2068755D01*
Y1659594D01*
X2068583D01*
Y1659765D01*
X2068755D01*
Y1659937D01*
X2068583D01*
Y1660108D01*
X2068755D01*
Y1660280D01*
X2068583D01*
Y1660452D01*
X2068755D01*
Y1660624D01*
X2068927D01*
Y1660452D01*
D02*
G37*
G36*
Y1656675D02*
X2069270D01*
Y1656503D01*
Y1656331D01*
X2069785D01*
Y1656160D01*
X2069957D01*
Y1655988D01*
X2070128D01*
Y1655816D01*
X2070300D01*
Y1655645D01*
X2070472D01*
Y1655473D01*
X2070643D01*
Y1655301D01*
X2071158D01*
Y1655130D01*
X2071330D01*
Y1654958D01*
X2071502D01*
Y1654786D01*
X2071673D01*
Y1654615D01*
X2071845D01*
Y1654443D01*
X2071673D01*
Y1654271D01*
X2071502D01*
Y1654100D01*
X2070987D01*
Y1653928D01*
Y1653756D01*
X2070643D01*
Y1653585D01*
X2070472D01*
Y1653413D01*
X2070300D01*
Y1653241D01*
Y1653070D01*
X2069613D01*
Y1653241D01*
X2069442D01*
Y1653413D01*
X2069270D01*
Y1653585D01*
X2069098D01*
Y1653756D01*
X2068927D01*
Y1653928D01*
X2068755D01*
Y1654100D01*
X2068583D01*
Y1654271D01*
X2068755D01*
Y1654443D01*
X2068583D01*
Y1654615D01*
X2068755D01*
Y1654786D01*
X2068583D01*
Y1654958D01*
X2068755D01*
Y1655130D01*
X2068583D01*
Y1655301D01*
X2068755D01*
Y1655473D01*
X2068583D01*
Y1655645D01*
X2068755D01*
Y1655816D01*
X2068583D01*
Y1655988D01*
X2068755D01*
Y1656160D01*
X2068583D01*
Y1656331D01*
X2068755D01*
Y1656503D01*
X2068583D01*
Y1656675D01*
X2068755D01*
Y1656847D01*
X2068927D01*
Y1656675D01*
D02*
G37*
G36*
Y1653070D02*
Y1652898D01*
X2069098D01*
Y1653070D01*
X2069270D01*
Y1652898D01*
X2069442D01*
Y1652726D01*
X2069613D01*
Y1652554D01*
X2069785D01*
Y1652383D01*
X2069613D01*
Y1652211D01*
X2069442D01*
Y1652039D01*
X2069270D01*
Y1651868D01*
Y1651696D01*
X2068927D01*
Y1651524D01*
X2069098D01*
Y1651353D01*
X2068927D01*
Y1651181D01*
X2068755D01*
Y1651353D01*
X2068583D01*
Y1651524D01*
X2068755D01*
Y1651696D01*
X2068583D01*
Y1651868D01*
X2068755D01*
Y1652039D01*
X2068583D01*
Y1652211D01*
X2068755D01*
Y1652383D01*
X2068583D01*
Y1652554D01*
X2068755D01*
Y1652726D01*
X2068583D01*
Y1652898D01*
X2068755D01*
Y1653070D01*
X2068583D01*
Y1653241D01*
X2068927D01*
Y1653070D01*
D02*
G37*
G36*
X2068755Y1651009D02*
X2068583D01*
Y1651181D01*
X2068755D01*
Y1651009D01*
D02*
G37*
G36*
X2098799Y1640537D02*
X2098627D01*
Y1640708D01*
X2098799D01*
Y1640537D01*
D02*
G37*
G36*
X2056050Y1667491D02*
X2056222D01*
Y1667319D01*
X2056050D01*
Y1667148D01*
Y1666976D01*
Y1666804D01*
X2056222D01*
Y1666633D01*
X2056050D01*
Y1666461D01*
Y1666289D01*
Y1666117D01*
X2056222D01*
Y1665946D01*
X2056050D01*
Y1665774D01*
Y1665602D01*
Y1665431D01*
X2056222D01*
Y1665259D01*
X2056050D01*
Y1665087D01*
Y1664916D01*
Y1664744D01*
X2056222D01*
Y1664572D01*
X2056050D01*
Y1664401D01*
Y1664229D01*
Y1664057D01*
X2056222D01*
Y1663885D01*
X2056050D01*
Y1663714D01*
Y1663542D01*
Y1663371D01*
X2056222D01*
Y1663199D01*
X2056050D01*
Y1663027D01*
Y1662855D01*
Y1662684D01*
X2056222D01*
Y1662512D01*
X2056050D01*
Y1662340D01*
Y1662169D01*
Y1661997D01*
X2056222D01*
Y1661825D01*
X2056050D01*
Y1661654D01*
Y1661482D01*
Y1661310D01*
X2056222D01*
Y1661139D01*
X2056050D01*
Y1660967D01*
Y1660795D01*
Y1660624D01*
X2056222D01*
Y1660452D01*
X2056050D01*
Y1660280D01*
Y1660108D01*
Y1659937D01*
X2056222D01*
Y1659765D01*
X2056050D01*
Y1659594D01*
Y1659422D01*
Y1659250D01*
X2056222D01*
Y1659078D01*
X2056050D01*
Y1658907D01*
Y1658735D01*
Y1658563D01*
X2056222D01*
Y1658392D01*
X2056050D01*
Y1658220D01*
Y1658048D01*
Y1657877D01*
X2056222D01*
Y1657705D01*
X2056050D01*
Y1657533D01*
Y1657362D01*
Y1657190D01*
X2056222D01*
Y1657018D01*
X2056050D01*
Y1656847D01*
Y1656675D01*
Y1656503D01*
X2056222D01*
Y1656331D01*
X2056050D01*
Y1656160D01*
Y1655988D01*
Y1655816D01*
X2056222D01*
Y1655645D01*
X2056050D01*
Y1655473D01*
Y1655301D01*
Y1655130D01*
X2056222D01*
Y1654958D01*
X2056050D01*
Y1654786D01*
Y1654615D01*
Y1654443D01*
X2056222D01*
Y1654271D01*
X2056050D01*
Y1654100D01*
Y1653928D01*
Y1653756D01*
X2056222D01*
Y1653585D01*
X2056050D01*
Y1653413D01*
Y1653241D01*
Y1653070D01*
X2056222D01*
Y1652898D01*
X2056050D01*
Y1652726D01*
Y1652554D01*
Y1652383D01*
X2056222D01*
Y1652211D01*
X2056050D01*
Y1652039D01*
Y1651868D01*
Y1651696D01*
X2056222D01*
Y1651524D01*
X2056050D01*
Y1651353D01*
Y1651181D01*
Y1651009D01*
X2056222D01*
Y1650838D01*
X2056050D01*
Y1650666D01*
Y1650494D01*
Y1650323D01*
X2056222D01*
Y1650151D01*
X2056050D01*
Y1649979D01*
Y1649808D01*
Y1649636D01*
X2056222D01*
Y1649464D01*
X2056050D01*
Y1649293D01*
Y1649121D01*
Y1648949D01*
X2056222D01*
Y1648777D01*
X2056050D01*
Y1648606D01*
Y1648434D01*
Y1648262D01*
X2056222D01*
Y1648091D01*
X2056050D01*
Y1647919D01*
Y1647747D01*
Y1647576D01*
X2056222D01*
Y1647404D01*
X2056050D01*
Y1647232D01*
Y1647061D01*
Y1646889D01*
X2056222D01*
Y1646717D01*
X2056050D01*
Y1646546D01*
Y1646374D01*
Y1646202D01*
X2056222D01*
Y1646031D01*
X2056050D01*
Y1645859D01*
Y1645687D01*
Y1645516D01*
X2056222D01*
Y1645344D01*
X2056050D01*
Y1645172D01*
Y1645000D01*
Y1644829D01*
X2056222D01*
Y1644657D01*
X2056050D01*
Y1644485D01*
Y1644314D01*
Y1644142D01*
X2056222D01*
Y1643970D01*
X2056050D01*
Y1643799D01*
X2056222D01*
Y1643627D01*
Y1643455D01*
Y1643284D01*
X2056394D01*
Y1643112D01*
X2056222D01*
Y1642940D01*
X2056394D01*
Y1642769D01*
Y1642597D01*
X2056566D01*
Y1642425D01*
Y1642254D01*
X2056737D01*
Y1642082D01*
X2056909D01*
Y1641910D01*
X2057081D01*
Y1641739D01*
X2057252D01*
Y1641567D01*
X2057424D01*
Y1641395D01*
X2057596D01*
Y1641223D01*
X2057767D01*
Y1641052D01*
X2057939D01*
Y1640880D01*
X2058454D01*
Y1640708D01*
Y1640537D01*
X2058797D01*
Y1640365D01*
X2058969D01*
Y1640193D01*
X2059141D01*
Y1640365D01*
X2059312D01*
Y1640193D01*
X2059827D01*
Y1640022D01*
X2059999D01*
Y1639850D01*
X2060858D01*
Y1639678D01*
X2061029D01*
Y1639850D01*
X2061201D01*
Y1639678D01*
X2061373D01*
Y1639850D01*
X2061544D01*
Y1639678D01*
X2062059D01*
Y1639850D01*
X2062231D01*
Y1639678D01*
X2062403D01*
Y1639507D01*
X2062574D01*
Y1639678D01*
X2062746D01*
Y1639850D01*
X2062918D01*
Y1639678D01*
X2063433D01*
Y1639850D01*
X2063604D01*
Y1639678D01*
X2063776D01*
Y1639850D01*
X2064291D01*
Y1640022D01*
X2064463D01*
Y1639850D01*
X2064635D01*
Y1640022D01*
X2064806D01*
Y1640193D01*
X2064978D01*
Y1640022D01*
X2065150D01*
Y1640193D01*
X2065665D01*
Y1640365D01*
X2065836D01*
Y1640537D01*
X2066351D01*
Y1640708D01*
X2066523D01*
Y1640880D01*
X2066695D01*
Y1641052D01*
X2066866D01*
Y1641223D01*
X2067038D01*
Y1641395D01*
X2067210D01*
Y1641567D01*
X2067381D01*
Y1641739D01*
X2067553D01*
Y1641567D01*
X2067725D01*
Y1641395D01*
X2067553D01*
Y1641223D01*
X2067725D01*
Y1641052D01*
X2067553D01*
Y1640880D01*
X2067725D01*
Y1640708D01*
X2067553D01*
Y1640537D01*
X2067725D01*
Y1640365D01*
X2067553D01*
Y1640193D01*
X2067725D01*
Y1640022D01*
X2067896D01*
Y1639850D01*
X2067725D01*
Y1639678D01*
Y1639507D01*
X2068068D01*
Y1639335D01*
X2067896D01*
Y1639163D01*
Y1638992D01*
Y1638820D01*
X2068068D01*
Y1638648D01*
Y1638477D01*
Y1638305D01*
X2068240D01*
Y1638133D01*
Y1637962D01*
Y1637790D01*
X2068412D01*
Y1637618D01*
X2068240D01*
Y1637446D01*
X2068412D01*
Y1637275D01*
X2068583D01*
Y1637103D01*
Y1636931D01*
Y1636760D01*
X2068755D01*
Y1636588D01*
X2068927D01*
Y1636416D01*
Y1636245D01*
Y1636073D01*
X2069098D01*
Y1635901D01*
X2069270D01*
Y1635730D01*
X2069442D01*
Y1635558D01*
X2069270D01*
Y1635386D01*
X2069613D01*
Y1635215D01*
Y1635043D01*
X2069785D01*
Y1634871D01*
X2069957D01*
Y1634700D01*
X2070128D01*
Y1634528D01*
X2070300D01*
Y1634356D01*
X2070472D01*
Y1634185D01*
X2069957D01*
Y1634013D01*
X2069785D01*
Y1633841D01*
X2069613D01*
Y1634013D01*
X2069442D01*
Y1633841D01*
X2069270D01*
Y1633669D01*
X2069098D01*
Y1633841D01*
X2068927D01*
Y1633669D01*
X2068755D01*
Y1633498D01*
X2068240D01*
Y1633326D01*
X2068068D01*
Y1633498D01*
X2067896D01*
Y1633326D01*
X2068068D01*
Y1633154D01*
X2067896D01*
Y1633326D01*
X2067725D01*
Y1633154D01*
X2067210D01*
Y1632983D01*
X2067038D01*
Y1633154D01*
X2066866D01*
Y1632983D01*
X2066351D01*
Y1632811D01*
X2065836D01*
Y1632983D01*
Y1633154D01*
Y1633326D01*
X2066008D01*
Y1633498D01*
X2065836D01*
Y1633669D01*
X2065665D01*
Y1633841D01*
Y1634013D01*
Y1634185D01*
X2065493D01*
Y1634356D01*
X2065321D01*
Y1634185D01*
X2065150D01*
Y1634356D01*
X2064978D01*
Y1634185D01*
X2064120D01*
Y1634013D01*
X2063948D01*
Y1634185D01*
X2063776D01*
Y1634013D01*
X2063604D01*
Y1634185D01*
X2063433D01*
Y1634013D01*
X2063261D01*
Y1634185D01*
X2063089D01*
Y1634013D01*
X2062918D01*
Y1633841D01*
X2062746D01*
Y1633669D01*
X2062918D01*
Y1633498D01*
X2062746D01*
Y1633326D01*
X2062918D01*
Y1633154D01*
X2062746D01*
Y1632983D01*
X2062918D01*
Y1632811D01*
X2062746D01*
Y1632639D01*
X2062918D01*
Y1632468D01*
X2059999D01*
Y1632639D01*
X2059827D01*
Y1632468D01*
X2059656D01*
Y1632639D01*
X2059484D01*
Y1632468D01*
X2059312D01*
Y1632639D01*
X2059141D01*
Y1632811D01*
X2058969D01*
Y1632639D01*
X2058797D01*
Y1632811D01*
X2058282D01*
Y1632983D01*
X2058111D01*
Y1633154D01*
X2057939D01*
Y1633326D01*
X2058111D01*
Y1633498D01*
Y1633669D01*
Y1633841D01*
X2058282D01*
Y1634013D01*
X2058454D01*
Y1634185D01*
X2058282D01*
Y1634356D01*
X2058111D01*
Y1634528D01*
X2057596D01*
Y1634700D01*
X2057424D01*
Y1634528D01*
X2057252D01*
Y1634700D01*
X2057081D01*
Y1634871D01*
X2056566D01*
Y1635043D01*
X2056050D01*
Y1635215D01*
X2055879D01*
Y1635043D01*
Y1634871D01*
X2055535D01*
Y1634700D01*
X2055707D01*
Y1634528D01*
X2055535D01*
Y1634356D01*
X2055364D01*
Y1634185D01*
X2055192D01*
Y1634013D01*
X2055020D01*
Y1633841D01*
X2054849D01*
Y1634013D01*
X2054677D01*
Y1634185D01*
X2054162D01*
Y1634356D01*
X2053990D01*
Y1634528D01*
X2053819D01*
Y1634700D01*
X2053647D01*
Y1634871D01*
X2053475D01*
Y1634700D01*
X2053647D01*
Y1634528D01*
X2053475D01*
Y1634700D01*
X2053304D01*
Y1634871D01*
X2053132D01*
Y1635043D01*
X2052960D01*
Y1635215D01*
X2052445D01*
Y1635386D01*
X2052273D01*
Y1635558D01*
X2052102D01*
Y1635730D01*
X2051930D01*
Y1635901D01*
X2051758D01*
Y1636073D01*
X2051587D01*
Y1636245D01*
X2051415D01*
Y1636416D01*
Y1636588D01*
Y1636760D01*
X2051758D01*
Y1636931D01*
Y1637103D01*
X2052102D01*
Y1637275D01*
Y1637446D01*
X2052273D01*
Y1637618D01*
Y1637790D01*
X2052102D01*
Y1637962D01*
X2051930D01*
Y1638133D01*
Y1638305D01*
X2051587D01*
Y1638477D01*
Y1638648D01*
X2051415D01*
Y1638820D01*
X2051243D01*
Y1638992D01*
X2051072D01*
Y1639163D01*
X2050900D01*
Y1639335D01*
X2050385D01*
Y1639163D01*
X2050213D01*
Y1638992D01*
X2050042D01*
Y1638820D01*
X2049698D01*
Y1638648D01*
X2049355D01*
Y1638820D01*
X2049183D01*
Y1638992D01*
X2049011D01*
Y1639163D01*
Y1639335D01*
X2048668D01*
Y1639507D01*
X2048840D01*
Y1639678D01*
X2048668D01*
Y1639850D01*
Y1640022D01*
X2048496D01*
Y1640193D01*
Y1640365D01*
X2048325D01*
Y1640537D01*
X2048496D01*
Y1640708D01*
X2048325D01*
Y1640880D01*
Y1641052D01*
Y1641223D01*
X2048153D01*
Y1641395D01*
X2047981D01*
Y1641567D01*
X2048153D01*
Y1641739D01*
Y1641910D01*
Y1642082D01*
X2047981D01*
Y1642254D01*
X2048153D01*
Y1642425D01*
X2047981D01*
Y1642597D01*
X2048153D01*
Y1642769D01*
X2047981D01*
Y1642940D01*
X2048153D01*
Y1643112D01*
X2047981D01*
Y1643284D01*
X2048153D01*
Y1643455D01*
X2047981D01*
Y1643627D01*
X2048153D01*
Y1643799D01*
X2047981D01*
Y1643970D01*
X2048153D01*
Y1644142D01*
X2047981D01*
Y1644314D01*
X2048153D01*
Y1644485D01*
X2047981D01*
Y1644657D01*
X2048153D01*
Y1644829D01*
X2047981D01*
Y1645000D01*
X2048153D01*
Y1645172D01*
X2047981D01*
Y1645344D01*
X2048153D01*
Y1645516D01*
X2047981D01*
Y1645687D01*
X2048153D01*
Y1645859D01*
X2047981D01*
Y1646031D01*
X2048153D01*
Y1646202D01*
X2047981D01*
Y1646374D01*
X2048153D01*
Y1646546D01*
X2047981D01*
Y1646717D01*
X2048153D01*
Y1646889D01*
X2047981D01*
Y1647061D01*
X2048153D01*
Y1647232D01*
X2047981D01*
Y1647404D01*
X2048153D01*
Y1647576D01*
X2047981D01*
Y1647747D01*
X2048153D01*
Y1647919D01*
X2047981D01*
Y1648091D01*
X2048153D01*
Y1648262D01*
X2047981D01*
Y1648434D01*
X2048153D01*
Y1648606D01*
X2047981D01*
Y1648777D01*
X2048153D01*
Y1648949D01*
X2047981D01*
Y1649121D01*
X2048153D01*
Y1649293D01*
X2047981D01*
Y1649464D01*
X2048153D01*
Y1649636D01*
X2047981D01*
Y1649808D01*
X2048153D01*
Y1649979D01*
X2047981D01*
Y1650151D01*
X2048153D01*
Y1650323D01*
X2047981D01*
Y1650494D01*
X2048153D01*
Y1650666D01*
X2047981D01*
Y1650838D01*
X2048153D01*
Y1651009D01*
X2047981D01*
Y1651181D01*
X2048153D01*
Y1651353D01*
X2047981D01*
Y1651524D01*
X2048153D01*
Y1651696D01*
X2047981D01*
Y1651868D01*
X2048153D01*
Y1652039D01*
X2047981D01*
Y1652211D01*
X2048153D01*
Y1652383D01*
X2047981D01*
Y1652554D01*
X2048153D01*
Y1652726D01*
X2047981D01*
Y1652898D01*
X2048153D01*
Y1653070D01*
X2047981D01*
Y1653241D01*
X2048153D01*
Y1653413D01*
X2047981D01*
Y1653585D01*
X2048153D01*
Y1653756D01*
X2047981D01*
Y1653928D01*
X2048153D01*
Y1654100D01*
X2047981D01*
Y1654271D01*
X2048153D01*
Y1654443D01*
X2047981D01*
Y1654615D01*
X2048153D01*
Y1654786D01*
X2047981D01*
Y1654958D01*
X2048153D01*
Y1655130D01*
X2047981D01*
Y1655301D01*
X2048153D01*
Y1655473D01*
X2047981D01*
Y1655645D01*
X2048153D01*
Y1655816D01*
X2047981D01*
Y1655988D01*
X2048153D01*
Y1656160D01*
X2047981D01*
Y1656331D01*
X2048153D01*
Y1656503D01*
X2047981D01*
Y1656675D01*
X2048153D01*
Y1656847D01*
X2047981D01*
Y1657018D01*
X2048153D01*
Y1657190D01*
X2047981D01*
Y1657362D01*
X2048153D01*
Y1657533D01*
X2047981D01*
Y1657705D01*
X2048153D01*
Y1657877D01*
X2047981D01*
Y1658048D01*
X2048153D01*
Y1658220D01*
X2047981D01*
Y1658392D01*
X2048153D01*
Y1658563D01*
X2047981D01*
Y1658735D01*
X2048153D01*
Y1658907D01*
X2047981D01*
Y1659078D01*
X2048153D01*
Y1659250D01*
X2047981D01*
Y1659422D01*
X2048153D01*
Y1659594D01*
X2047981D01*
Y1659765D01*
X2048153D01*
Y1659937D01*
X2047981D01*
Y1660108D01*
X2048153D01*
Y1660280D01*
X2047981D01*
Y1660452D01*
X2048153D01*
Y1660624D01*
X2047981D01*
Y1660795D01*
X2048153D01*
Y1660967D01*
X2047981D01*
Y1661139D01*
X2048153D01*
Y1661310D01*
X2047981D01*
Y1661482D01*
X2048153D01*
Y1661654D01*
X2047981D01*
Y1661825D01*
X2048153D01*
Y1661997D01*
X2047981D01*
Y1662169D01*
X2048153D01*
Y1662340D01*
X2047981D01*
Y1662512D01*
X2048153D01*
Y1662684D01*
X2047981D01*
Y1662855D01*
X2048153D01*
Y1663027D01*
X2047981D01*
Y1663199D01*
Y1663371D01*
Y1663542D01*
X2048153D01*
Y1663714D01*
X2047981D01*
Y1663885D01*
X2048153D01*
Y1664057D01*
X2047981D01*
Y1664229D01*
X2048153D01*
Y1664401D01*
X2047981D01*
Y1664572D01*
Y1664744D01*
Y1664916D01*
X2048153D01*
Y1665087D01*
X2047981D01*
Y1665259D01*
Y1665431D01*
Y1665602D01*
X2048153D01*
Y1665774D01*
X2047981D01*
Y1665946D01*
Y1666117D01*
Y1666289D01*
X2048153D01*
Y1666461D01*
X2047981D01*
Y1666633D01*
Y1666804D01*
Y1666976D01*
X2048153D01*
Y1667148D01*
X2047981D01*
Y1667319D01*
Y1667491D01*
Y1667663D01*
X2056050D01*
Y1667491D01*
D02*
G37*
G36*
X2058111Y1632811D02*
X2057939D01*
Y1632983D01*
X2058111D01*
Y1632811D01*
D02*
G37*
G36*
X2076309Y1629721D02*
X2076481D01*
Y1629549D01*
X2076996D01*
Y1629377D01*
X2076824D01*
Y1629206D01*
X2077167D01*
Y1629034D01*
Y1628862D01*
X2077339D01*
Y1628691D01*
Y1628519D01*
Y1628347D01*
Y1628176D01*
Y1628004D01*
Y1627832D01*
Y1627661D01*
X2077167D01*
Y1627489D01*
X2076996D01*
Y1627317D01*
X2076824D01*
Y1627146D01*
X2076652D01*
Y1626974D01*
X2076481D01*
Y1627146D01*
X2076309D01*
Y1626974D01*
X2076137D01*
Y1627146D01*
X2075966D01*
Y1626974D01*
X2075794D01*
Y1627146D01*
X2075622D01*
Y1627317D01*
X2075107D01*
Y1627146D01*
Y1626974D01*
Y1626802D01*
X2075279D01*
Y1626631D01*
Y1626459D01*
Y1626287D01*
X2075450D01*
Y1626116D01*
X2075622D01*
Y1625944D01*
X2075794D01*
Y1625772D01*
X2076309D01*
Y1625600D01*
X2076481D01*
Y1625429D01*
X2076652D01*
Y1625257D01*
X2076137D01*
Y1625429D01*
X2075966D01*
Y1625257D01*
X2075794D01*
Y1625429D01*
X2075622D01*
Y1625600D01*
X2075107D01*
Y1625772D01*
X2074935D01*
Y1625944D01*
X2074764D01*
Y1626116D01*
X2074592D01*
Y1626287D01*
Y1626459D01*
Y1626631D01*
X2074420D01*
Y1626802D01*
X2074249D01*
Y1626974D01*
X2074077D01*
Y1627146D01*
X2074249D01*
Y1627317D01*
Y1627489D01*
Y1627661D01*
X2074077D01*
Y1627832D01*
X2074249D01*
Y1628004D01*
Y1628176D01*
Y1628347D01*
X2074077D01*
Y1628519D01*
X2074249D01*
Y1628691D01*
Y1628862D01*
X2074420D01*
Y1629034D01*
Y1629206D01*
X2074592D01*
Y1629377D01*
X2074764D01*
Y1629549D01*
X2074935D01*
Y1629721D01*
X2075107D01*
Y1629549D01*
X2075279D01*
Y1629721D01*
X2075450D01*
Y1629892D01*
X2075622D01*
Y1629721D01*
X2075794D01*
Y1629892D01*
X2075966D01*
Y1629721D01*
X2076137D01*
Y1629892D01*
X2076309D01*
Y1629721D01*
D02*
G37*
G36*
X2069270Y1629549D02*
X2069442D01*
Y1629377D01*
X2069270D01*
Y1629206D01*
X2069442D01*
Y1629034D01*
X2069270D01*
Y1628862D01*
X2069442D01*
Y1628691D01*
X2069270D01*
Y1628519D01*
X2069098D01*
Y1628691D01*
X2068927D01*
Y1628862D01*
X2068755D01*
Y1629034D01*
X2068583D01*
Y1628862D01*
X2068412D01*
Y1629034D01*
X2068240D01*
Y1628862D01*
X2068068D01*
Y1629034D01*
X2067896D01*
Y1628862D01*
X2067725D01*
Y1629034D01*
X2067553D01*
Y1628862D01*
X2067381D01*
Y1629034D01*
X2067210D01*
Y1628862D01*
X2067038D01*
Y1628691D01*
X2067210D01*
Y1628519D01*
X2067381D01*
Y1628347D01*
X2067210D01*
Y1628176D01*
X2067381D01*
Y1628004D01*
X2067553D01*
Y1627832D01*
Y1627661D01*
Y1627489D01*
X2067725D01*
Y1627317D01*
X2067896D01*
Y1627146D01*
X2068068D01*
Y1626974D01*
X2067896D01*
Y1626802D01*
X2068068D01*
Y1626631D01*
X2068240D01*
Y1626459D01*
Y1626287D01*
Y1626116D01*
X2068412D01*
Y1625944D01*
X2068583D01*
Y1625772D01*
X2068755D01*
Y1625600D01*
X2068583D01*
Y1625429D01*
X2068412D01*
Y1625257D01*
X2068240D01*
Y1625429D01*
X2068068D01*
Y1625600D01*
X2067896D01*
Y1625772D01*
Y1625944D01*
Y1626116D01*
X2067725D01*
Y1626287D01*
X2067553D01*
Y1626459D01*
Y1626631D01*
Y1626802D01*
X2067381D01*
Y1626974D01*
X2067210D01*
Y1627146D01*
X2067381D01*
Y1627317D01*
X2067210D01*
Y1627489D01*
X2067038D01*
Y1627661D01*
Y1627832D01*
Y1628004D01*
X2066866D01*
Y1628176D01*
Y1628347D01*
Y1628519D01*
X2066695D01*
Y1628691D01*
X2066523D01*
Y1628862D01*
Y1629034D01*
Y1629206D01*
X2066351D01*
Y1629377D01*
X2066180D01*
Y1629549D01*
X2066351D01*
Y1629721D01*
X2066866D01*
Y1629549D01*
X2067038D01*
Y1629721D01*
X2067210D01*
Y1629549D01*
X2067381D01*
Y1629721D01*
X2067553D01*
Y1629549D01*
X2067725D01*
Y1629721D01*
X2067896D01*
Y1629549D01*
X2068068D01*
Y1629721D01*
X2068240D01*
Y1629549D01*
X2068412D01*
Y1629721D01*
X2068583D01*
Y1629549D01*
X2068755D01*
Y1629721D01*
X2068927D01*
Y1629549D01*
X2069098D01*
Y1629721D01*
X2069270D01*
Y1629549D01*
D02*
G37*
G36*
X2079399Y1629721D02*
X2079571D01*
Y1629549D01*
X2080086D01*
Y1629377D01*
X2080258D01*
Y1629206D01*
X2080429D01*
Y1629034D01*
X2080601D01*
Y1628862D01*
X2080773D01*
Y1629034D01*
X2080944D01*
Y1628862D01*
X2081116D01*
Y1628691D01*
X2080944D01*
Y1628519D01*
X2080773D01*
Y1628691D01*
X2080601D01*
Y1628862D01*
X2080086D01*
Y1628691D01*
X2079914D01*
Y1628519D01*
X2080086D01*
Y1628347D01*
X2079914D01*
Y1628176D01*
X2080086D01*
Y1628004D01*
X2079914D01*
Y1627832D01*
X2080086D01*
Y1627661D01*
X2079914D01*
Y1627489D01*
X2080086D01*
Y1627317D01*
X2079914D01*
Y1627146D01*
X2080086D01*
Y1626974D01*
X2079914D01*
Y1626802D01*
X2080086D01*
Y1626631D01*
X2079914D01*
Y1626459D01*
X2080086D01*
Y1626287D01*
X2079914D01*
Y1626116D01*
X2080086D01*
Y1625944D01*
Y1625772D01*
X2080429D01*
Y1625600D01*
X2080601D01*
Y1625429D01*
X2080773D01*
Y1625257D01*
X2080601D01*
Y1625429D01*
X2080429D01*
Y1625257D01*
X2080258D01*
Y1625429D01*
X2080086D01*
Y1625257D01*
X2079914D01*
Y1625429D01*
X2079742D01*
Y1625257D01*
X2079571D01*
Y1625429D01*
X2079399D01*
Y1625257D01*
X2079227D01*
Y1625429D01*
X2079056D01*
Y1625257D01*
X2078884D01*
Y1625429D01*
X2078712D01*
Y1625257D01*
X2078541D01*
Y1625429D01*
X2078369D01*
Y1625600D01*
X2078541D01*
Y1625772D01*
X2078712D01*
Y1625600D01*
X2078884D01*
Y1625772D01*
X2079056D01*
Y1625944D01*
Y1626116D01*
Y1626287D01*
Y1626459D01*
Y1626631D01*
Y1626802D01*
Y1626974D01*
Y1627146D01*
Y1627317D01*
Y1627489D01*
Y1627661D01*
Y1627832D01*
Y1628004D01*
Y1628176D01*
Y1628347D01*
Y1628519D01*
Y1628691D01*
Y1628862D01*
Y1629034D01*
Y1629206D01*
Y1629377D01*
Y1629549D01*
Y1629721D01*
X2079227D01*
Y1629892D01*
X2079399D01*
Y1629721D01*
D02*
G37*
G36*
X2070815D02*
X2070987D01*
Y1629549D01*
X2071158D01*
Y1629721D01*
X2071330D01*
Y1629549D01*
X2071502D01*
Y1629721D01*
X2071673D01*
Y1629549D01*
X2071845D01*
Y1629721D01*
X2072360D01*
Y1629549D01*
X2072532D01*
Y1629721D01*
X2072704D01*
Y1629549D01*
X2072875D01*
Y1629721D01*
X2073047D01*
Y1629549D01*
Y1629377D01*
Y1629206D01*
Y1629034D01*
Y1628862D01*
Y1628691D01*
Y1628519D01*
Y1628347D01*
Y1628176D01*
Y1628004D01*
Y1627832D01*
Y1627661D01*
Y1627489D01*
X2072875D01*
Y1627317D01*
X2072704D01*
Y1627489D01*
X2072532D01*
Y1627317D01*
X2072360D01*
Y1627489D01*
X2071845D01*
Y1627317D01*
X2071330D01*
Y1627146D01*
X2071502D01*
Y1626974D01*
X2071330D01*
Y1626802D01*
X2071158D01*
Y1626631D01*
Y1626459D01*
Y1626287D01*
X2071330D01*
Y1626116D01*
Y1625944D01*
Y1625772D01*
X2071502D01*
Y1625600D01*
X2071673D01*
Y1625772D01*
X2071845D01*
Y1625600D01*
X2072017D01*
Y1625772D01*
X2072189D01*
Y1625600D01*
X2072360D01*
Y1625772D01*
X2072532D01*
Y1625944D01*
X2072704D01*
Y1626116D01*
Y1626287D01*
Y1626459D01*
X2072875D01*
Y1626287D01*
X2073047D01*
Y1626116D01*
X2073219D01*
Y1625944D01*
Y1625772D01*
Y1625600D01*
X2073047D01*
Y1625429D01*
X2072875D01*
Y1625257D01*
X2072704D01*
Y1625429D01*
X2072532D01*
Y1625257D01*
X2072360D01*
Y1625429D01*
X2072189D01*
Y1625257D01*
X2071673D01*
Y1625429D01*
X2071502D01*
Y1625257D01*
X2071330D01*
Y1625429D01*
X2071158D01*
Y1625600D01*
X2070643D01*
Y1625772D01*
X2070472D01*
Y1625944D01*
X2070300D01*
Y1626116D01*
X2070472D01*
Y1626287D01*
X2070300D01*
Y1626459D01*
X2070472D01*
Y1626631D01*
X2070300D01*
Y1626802D01*
X2070472D01*
Y1626974D01*
X2070300D01*
Y1627146D01*
X2070472D01*
Y1627317D01*
X2070643D01*
Y1627489D01*
X2070815D01*
Y1627661D01*
X2070987D01*
Y1627832D01*
X2072189D01*
Y1627661D01*
X2072360D01*
Y1627832D01*
X2072532D01*
Y1628004D01*
Y1628176D01*
Y1628347D01*
Y1628519D01*
Y1628691D01*
Y1628862D01*
Y1629034D01*
X2072360D01*
Y1628862D01*
X2072189D01*
Y1629034D01*
X2072017D01*
Y1628862D01*
X2071845D01*
Y1629034D01*
X2071673D01*
Y1628862D01*
X2071502D01*
Y1629034D01*
X2071330D01*
Y1628862D01*
X2071158D01*
Y1629034D01*
X2070987D01*
Y1628862D01*
X2070815D01*
Y1629034D01*
X2070472D01*
Y1629206D01*
Y1629377D01*
X2070643D01*
Y1629549D01*
X2070472D01*
Y1629721D01*
Y1629892D01*
X2070815D01*
Y1629721D01*
D02*
G37*
G36*
X2076652Y1625600D02*
X2076481D01*
Y1625772D01*
X2076652D01*
Y1625600D01*
D02*
G37*
G36*
X2080944Y1625429D02*
X2080773D01*
Y1625600D01*
X2080944D01*
Y1625429D01*
D02*
G37*
G36*
X2078369Y1625257D02*
X2078197D01*
Y1625429D01*
X2078369D01*
Y1625257D01*
D02*
G37*
G36*
X2081459Y1623197D02*
X2081631D01*
Y1623025D01*
X2081803D01*
Y1623197D01*
X2081974D01*
Y1623025D01*
X2082833D01*
Y1622854D01*
X2083004D01*
Y1623025D01*
X2083176D01*
Y1622854D01*
X2083348D01*
Y1622682D01*
X2083863D01*
Y1622510D01*
X2084035D01*
Y1622682D01*
X2084206D01*
Y1622510D01*
X2084378D01*
Y1622339D01*
X2084550D01*
Y1622510D01*
X2084721D01*
Y1622339D01*
X2085236D01*
Y1622167D01*
X2085408D01*
Y1621995D01*
X2085580D01*
Y1622167D01*
X2085751D01*
Y1621995D01*
X2086610D01*
Y1621823D01*
X2086781D01*
Y1621995D01*
X2086953D01*
Y1621823D01*
X2087125D01*
Y1621995D01*
X2087296D01*
Y1621823D01*
X2087468D01*
Y1621995D01*
X2087640D01*
Y1621823D01*
X2087812D01*
Y1621995D01*
X2087983D01*
Y1621823D01*
X2088155D01*
Y1621995D01*
X2088327D01*
Y1621823D01*
X2088498D01*
Y1621652D01*
X2088670D01*
Y1621480D01*
Y1621308D01*
Y1621137D01*
X2088842D01*
Y1620965D01*
X2089013D01*
Y1620793D01*
X2088842D01*
Y1620622D01*
X2089013D01*
Y1620450D01*
X2089185D01*
Y1620278D01*
X2089357D01*
Y1620107D01*
Y1619935D01*
Y1619763D01*
X2089528D01*
Y1619592D01*
X2089700D01*
Y1619420D01*
X2089528D01*
Y1619248D01*
X2089700D01*
Y1619077D01*
X2089872D01*
Y1618905D01*
X2090043D01*
Y1618733D01*
Y1618562D01*
Y1618390D01*
X2090215D01*
Y1618218D01*
X2090387D01*
Y1618046D01*
X2090215D01*
Y1617875D01*
X2090387D01*
Y1617703D01*
X2090558D01*
Y1617531D01*
X2090730D01*
Y1617360D01*
Y1617188D01*
X2090902D01*
Y1617016D01*
Y1616845D01*
X2091073D01*
Y1616673D01*
Y1616501D01*
Y1616330D01*
X2091245D01*
Y1616158D01*
X2091417D01*
Y1615986D01*
Y1615815D01*
X2091073D01*
Y1615643D01*
X2090902D01*
Y1615815D01*
X2089700D01*
Y1615986D01*
X2089528D01*
Y1615815D01*
X2089357D01*
Y1615986D01*
X2089185D01*
Y1615815D01*
X2089013D01*
Y1615986D01*
X2088498D01*
Y1616158D01*
X2088327D01*
Y1615986D01*
X2088155D01*
Y1616158D01*
X2087983D01*
Y1616330D01*
X2087812D01*
Y1616158D01*
X2087640D01*
Y1616330D01*
X2087125D01*
Y1616501D01*
X2086953D01*
Y1616330D01*
X2086781D01*
Y1616501D01*
X2086610D01*
Y1616673D01*
X2086438D01*
Y1616501D01*
X2086266D01*
Y1616673D01*
X2085408D01*
Y1616845D01*
X2085236D01*
Y1616673D01*
X2085065D01*
Y1616845D01*
X2084893D01*
Y1617016D01*
X2084721D01*
Y1616845D01*
X2084550D01*
Y1617016D01*
X2083691D01*
Y1617188D01*
X2083519D01*
Y1617016D01*
X2083348D01*
Y1617188D01*
X2082833D01*
Y1617360D01*
X2082661D01*
Y1617188D01*
X2082489D01*
Y1617360D01*
X2082318D01*
Y1617188D01*
X2082146D01*
Y1617360D01*
X2080601D01*
Y1617531D01*
X2080429D01*
Y1617360D01*
X2080258D01*
Y1617531D01*
X2080086D01*
Y1617360D01*
X2079914D01*
Y1617531D01*
X2079742D01*
Y1617360D01*
X2079571D01*
Y1617531D01*
X2079399D01*
Y1617360D01*
X2079227D01*
Y1617531D01*
X2079056D01*
Y1617360D01*
X2077854D01*
Y1617188D01*
X2077682D01*
Y1617360D01*
X2077511D01*
Y1617188D01*
X2077339D01*
Y1617360D01*
X2077167D01*
Y1617188D01*
X2076652D01*
Y1617016D01*
X2076137D01*
Y1616845D01*
X2075966D01*
Y1617016D01*
X2075794D01*
Y1616845D01*
X2075622D01*
Y1616673D01*
X2075107D01*
Y1616501D01*
X2074935D01*
Y1616330D01*
X2074592D01*
Y1616158D01*
Y1615986D01*
X2074420D01*
Y1616158D01*
X2074249D01*
Y1615986D01*
X2074077D01*
Y1615815D01*
X2073905D01*
Y1615986D01*
X2073734D01*
Y1616158D01*
X2073905D01*
Y1616330D01*
X2073734D01*
Y1616501D01*
X2073905D01*
Y1616673D01*
X2073734D01*
Y1616845D01*
X2073905D01*
Y1617016D01*
X2073734D01*
Y1617188D01*
X2073905D01*
Y1617360D01*
X2073734D01*
Y1617531D01*
X2073905D01*
Y1617703D01*
X2073734D01*
Y1617875D01*
X2073905D01*
Y1618046D01*
X2073734D01*
Y1618218D01*
X2073905D01*
Y1618390D01*
X2073734D01*
Y1618562D01*
X2073905D01*
Y1618733D01*
X2073734D01*
Y1618905D01*
X2073905D01*
Y1619077D01*
X2073734D01*
Y1619248D01*
X2073905D01*
Y1619420D01*
X2073734D01*
Y1619592D01*
X2073905D01*
Y1619763D01*
X2073734D01*
Y1619935D01*
X2073905D01*
Y1620107D01*
X2073734D01*
Y1620278D01*
X2073905D01*
Y1620450D01*
X2073734D01*
Y1620622D01*
X2073905D01*
Y1620793D01*
X2073734D01*
Y1620965D01*
X2073905D01*
Y1621137D01*
X2074077D01*
Y1621308D01*
X2074249D01*
Y1621480D01*
X2074420D01*
Y1621652D01*
X2074592D01*
Y1621823D01*
X2074764D01*
Y1621995D01*
X2075279D01*
Y1622167D01*
X2075450D01*
Y1622339D01*
X2075622D01*
Y1622510D01*
X2075794D01*
Y1622682D01*
X2075966D01*
Y1622510D01*
X2076137D01*
Y1622682D01*
X2076652D01*
Y1622854D01*
X2076824D01*
Y1623025D01*
X2077682D01*
Y1623197D01*
X2077854D01*
Y1623025D01*
X2078026D01*
Y1623197D01*
X2078197D01*
Y1623369D01*
X2078369D01*
Y1623197D01*
X2078541D01*
Y1623369D01*
X2081116D01*
Y1623197D01*
X2081288D01*
Y1623369D01*
X2081459D01*
Y1623197D01*
D02*
G37*
G36*
X2069098D02*
X2069270D01*
Y1623025D01*
X2069442D01*
Y1623197D01*
X2069613D01*
Y1623025D01*
X2070472D01*
Y1622854D01*
X2070643D01*
Y1623025D01*
X2070815D01*
Y1622854D01*
X2070987D01*
Y1622682D01*
X2071158D01*
Y1622510D01*
X2071673D01*
Y1622339D01*
X2072189D01*
Y1622167D01*
X2072360D01*
Y1621995D01*
X2072532D01*
Y1621823D01*
X2072704D01*
Y1621652D01*
X2073047D01*
Y1621480D01*
Y1621308D01*
X2073219D01*
Y1621480D01*
X2073390D01*
Y1621308D01*
X2073562D01*
Y1621137D01*
Y1620965D01*
Y1620793D01*
Y1620622D01*
Y1620450D01*
X2073390D01*
Y1620278D01*
X2073562D01*
Y1620107D01*
Y1619935D01*
Y1619763D01*
Y1619592D01*
Y1619420D01*
Y1619248D01*
Y1619077D01*
X2073390D01*
Y1618905D01*
X2073562D01*
Y1618733D01*
Y1618562D01*
Y1618390D01*
Y1618218D01*
Y1618046D01*
Y1617875D01*
Y1617703D01*
X2073390D01*
Y1617531D01*
X2073562D01*
Y1617360D01*
Y1617188D01*
Y1617016D01*
Y1616845D01*
Y1616673D01*
Y1616501D01*
Y1616330D01*
X2073390D01*
Y1616158D01*
X2073562D01*
Y1615986D01*
Y1615815D01*
Y1615643D01*
X2073390D01*
Y1615815D01*
X2073219D01*
Y1615986D01*
X2073047D01*
Y1616158D01*
X2072875D01*
Y1616330D01*
X2072360D01*
Y1616501D01*
X2072189D01*
Y1616673D01*
X2071673D01*
Y1616845D01*
X2071502D01*
Y1617016D01*
X2070643D01*
Y1617188D01*
X2070128D01*
Y1617360D01*
X2069957D01*
Y1617188D01*
X2069785D01*
Y1617360D01*
X2068583D01*
Y1617531D01*
X2068412D01*
Y1617360D01*
X2068240D01*
Y1617531D01*
X2068068D01*
Y1617360D01*
X2067896D01*
Y1617531D01*
X2067725D01*
Y1617360D01*
X2067553D01*
Y1617531D01*
X2067381D01*
Y1617360D01*
X2067210D01*
Y1617531D01*
X2067038D01*
Y1617360D01*
X2066866D01*
Y1617531D01*
X2066695D01*
Y1617360D01*
X2065150D01*
Y1617188D01*
X2064978D01*
Y1617360D01*
X2064806D01*
Y1617188D01*
X2063948D01*
Y1617016D01*
X2063776D01*
Y1617188D01*
X2063604D01*
Y1617016D01*
X2062746D01*
Y1616845D01*
X2062574D01*
Y1617016D01*
X2062403D01*
Y1616845D01*
X2061888D01*
Y1616673D01*
X2061029D01*
Y1616501D01*
X2060858D01*
Y1616673D01*
X2060686D01*
Y1616501D01*
X2060858D01*
Y1616330D01*
X2060686D01*
Y1616501D01*
X2060514D01*
Y1616330D01*
X2059656D01*
Y1616158D01*
X2059484D01*
Y1616330D01*
X2059312D01*
Y1616158D01*
X2059141D01*
Y1615986D01*
X2058282D01*
Y1615815D01*
X2058111D01*
Y1615986D01*
X2057939D01*
Y1615815D01*
X2056737D01*
Y1615643D01*
X2056566D01*
Y1615815D01*
X2056050D01*
Y1615986D01*
X2055879D01*
Y1616158D01*
X2056050D01*
Y1616330D01*
X2056222D01*
Y1616501D01*
X2056394D01*
Y1616673D01*
X2056222D01*
Y1616845D01*
X2056394D01*
Y1617016D01*
X2056566D01*
Y1617188D01*
X2056737D01*
Y1617360D01*
Y1617531D01*
X2056909D01*
Y1617703D01*
Y1617875D01*
X2057081D01*
Y1618046D01*
Y1618218D01*
Y1618390D01*
X2057252D01*
Y1618562D01*
X2057424D01*
Y1618733D01*
Y1618905D01*
X2057596D01*
Y1619077D01*
Y1619248D01*
X2057767D01*
Y1619420D01*
X2057939D01*
Y1619592D01*
Y1619763D01*
Y1619935D01*
X2058111D01*
Y1620107D01*
Y1620278D01*
X2058454D01*
Y1620450D01*
X2058282D01*
Y1620622D01*
X2058454D01*
Y1620793D01*
X2058626D01*
Y1620965D01*
Y1621137D01*
Y1621308D01*
X2058797D01*
Y1621480D01*
Y1621652D01*
X2058969D01*
Y1621823D01*
Y1621995D01*
X2059141D01*
Y1621823D01*
X2059312D01*
Y1621995D01*
X2059484D01*
Y1621823D01*
X2059656D01*
Y1621995D01*
X2059827D01*
Y1621823D01*
X2059999D01*
Y1621995D01*
X2060171D01*
Y1621823D01*
X2060342D01*
Y1621995D01*
X2060514D01*
Y1621823D01*
X2060686D01*
Y1621995D01*
X2061544D01*
Y1622167D01*
X2062059D01*
Y1622339D01*
X2062231D01*
Y1622167D01*
X2062403D01*
Y1622339D01*
X2062918D01*
Y1622510D01*
X2063089D01*
Y1622339D01*
X2063261D01*
Y1622510D01*
X2063433D01*
Y1622682D01*
X2063948D01*
Y1622854D01*
X2064120D01*
Y1622682D01*
X2064291D01*
Y1622854D01*
X2064463D01*
Y1623025D01*
X2065321D01*
Y1623197D01*
X2065493D01*
Y1623025D01*
X2065665D01*
Y1623197D01*
X2065836D01*
Y1623369D01*
X2066008D01*
Y1623197D01*
X2066180D01*
Y1623369D01*
X2066351D01*
Y1623197D01*
X2066523D01*
Y1623369D01*
X2068755D01*
Y1623197D01*
X2068927D01*
Y1623369D01*
X2069098D01*
Y1623197D01*
D02*
G37*
G36*
X2056394Y1620107D02*
X2056222D01*
Y1620278D01*
X2056394D01*
Y1620107D01*
D02*
G37*
G36*
X2091417D02*
X2091245D01*
Y1619935D01*
X2091073D01*
Y1620107D01*
X2090902D01*
Y1620278D01*
X2091417D01*
Y1620107D01*
D02*
G37*
G36*
X2056222Y1619935D02*
X2056050D01*
Y1620107D01*
X2056222D01*
Y1619935D01*
D02*
G37*
G36*
X2056050Y1619763D02*
X2055879D01*
Y1619935D01*
X2056050D01*
Y1619763D01*
D02*
G37*
G36*
X2091589Y1619592D02*
X2091760D01*
Y1619420D01*
X2091417D01*
Y1619592D01*
Y1619763D01*
X2091589D01*
Y1619592D01*
D02*
G37*
G36*
X2056050Y1619420D02*
X2055879D01*
Y1619248D01*
X2055707D01*
Y1619420D01*
Y1619592D01*
X2056050D01*
Y1619420D01*
D02*
G37*
G36*
X2055707Y1619077D02*
X2055535D01*
Y1619248D01*
X2055707D01*
Y1619077D01*
D02*
G37*
G36*
X2055535Y1618905D02*
X2055707D01*
Y1618733D01*
X2055192D01*
Y1618905D01*
X2055364D01*
Y1619077D01*
X2055535D01*
Y1618905D01*
D02*
G37*
G36*
X2092275Y1618562D02*
X2092447D01*
Y1618390D01*
X2092104D01*
Y1618562D01*
Y1618733D01*
X2092275D01*
Y1618562D01*
D02*
G37*
G36*
X2055364Y1618390D02*
X2055192D01*
Y1618562D01*
X2055364D01*
Y1618390D01*
D02*
G37*
G36*
X2055192Y1618218D02*
X2055020D01*
Y1618390D01*
X2055192D01*
Y1618218D01*
D02*
G37*
G36*
X2055020Y1618046D02*
X2054849D01*
Y1618218D01*
X2055020D01*
Y1618046D01*
D02*
G37*
G36*
X2054849Y1617875D02*
Y1617703D01*
X2054505D01*
Y1617875D01*
X2054677D01*
Y1618046D01*
X2054849D01*
Y1617875D01*
D02*
G37*
G36*
X2092962Y1617531D02*
Y1617360D01*
X2092619D01*
Y1617531D01*
X2092790D01*
Y1617703D01*
X2092962D01*
Y1617531D01*
D02*
G37*
G36*
X2054677Y1617360D02*
X2054505D01*
Y1617531D01*
X2054677D01*
Y1617360D01*
D02*
G37*
G36*
X2054505Y1617188D02*
X2054334D01*
Y1617360D01*
X2054505D01*
Y1617188D01*
D02*
G37*
G36*
X2054334Y1617016D02*
X2054162D01*
Y1617188D01*
X2054334D01*
Y1617016D01*
D02*
G37*
G36*
Y1616673D02*
X2054162D01*
Y1616501D01*
X2053990D01*
Y1616673D01*
Y1616845D01*
X2054334D01*
Y1616673D01*
D02*
G37*
G36*
X2053990Y1616330D02*
X2053819D01*
Y1616501D01*
X2053990D01*
Y1616330D01*
D02*
G37*
G36*
X2093820D02*
X2093649D01*
Y1616158D01*
X2093477D01*
Y1616330D01*
Y1616501D01*
X2093820D01*
Y1616330D01*
D02*
G37*
G36*
X2053819Y1616158D02*
X2053647D01*
Y1616330D01*
X2053819D01*
Y1616158D01*
D02*
G37*
G36*
X2053647Y1615986D02*
X2053475D01*
Y1616158D01*
X2053647D01*
Y1615986D01*
D02*
G37*
G36*
X2073905Y1615643D02*
X2073734D01*
Y1615815D01*
X2073905D01*
Y1615643D01*
D02*
G37*
G36*
X2053475Y1615815D02*
Y1615643D01*
X2053132D01*
Y1615815D01*
X2053304D01*
Y1615986D01*
X2053475D01*
Y1615815D01*
D02*
G37*
G36*
X2069442Y1615300D02*
X2069613D01*
Y1615128D01*
X2069785D01*
Y1615300D01*
X2069957D01*
Y1615128D01*
X2070128D01*
Y1615300D01*
X2070300D01*
Y1615128D01*
X2070472D01*
Y1615300D01*
X2070643D01*
Y1615128D01*
X2071845D01*
Y1614956D01*
X2072360D01*
Y1614785D01*
X2072532D01*
Y1614956D01*
X2072704D01*
Y1614785D01*
X2073562D01*
Y1614613D01*
X2073390D01*
Y1614441D01*
X2073219D01*
Y1614613D01*
X2072360D01*
Y1614785D01*
X2072189D01*
Y1614613D01*
X2072017D01*
Y1614785D01*
X2071502D01*
Y1614956D01*
X2071330D01*
Y1614785D01*
X2070815D01*
Y1614956D01*
X2069613D01*
Y1614785D01*
X2069442D01*
Y1614956D01*
X2066866D01*
Y1614785D01*
X2066695D01*
Y1614956D01*
X2065493D01*
Y1614785D01*
X2065321D01*
Y1614956D01*
X2064806D01*
Y1614785D01*
X2064635D01*
Y1614956D01*
X2064463D01*
Y1614785D01*
X2063948D01*
Y1614956D01*
X2063776D01*
Y1614785D01*
X2063261D01*
Y1614613D01*
X2063089D01*
Y1614785D01*
X2062918D01*
Y1614613D01*
X2062746D01*
Y1614785D01*
X2062574D01*
Y1614613D01*
X2061029D01*
Y1614441D01*
X2060858D01*
Y1614613D01*
X2060686D01*
Y1614441D01*
X2060514D01*
Y1614613D01*
X2060342D01*
Y1614441D01*
X2059484D01*
Y1614269D01*
X2059312D01*
Y1614441D01*
X2059141D01*
Y1614269D01*
X2058969D01*
Y1614441D01*
X2058797D01*
Y1614269D01*
X2058282D01*
Y1614441D01*
X2058111D01*
Y1614613D01*
X2058282D01*
Y1614441D01*
X2058454D01*
Y1614613D01*
X2058969D01*
Y1614785D01*
X2059141D01*
Y1614613D01*
X2059312D01*
Y1614785D01*
X2059827D01*
Y1614613D01*
X2059999D01*
Y1614785D01*
X2061201D01*
Y1614956D01*
X2061373D01*
Y1614785D01*
X2061544D01*
Y1614956D01*
X2061716D01*
Y1614785D01*
X2061888D01*
Y1614956D01*
X2062059D01*
Y1615128D01*
X2062231D01*
Y1614956D01*
X2062746D01*
Y1615128D01*
X2062918D01*
Y1614956D01*
X2063089D01*
Y1615128D01*
X2064635D01*
Y1615300D01*
X2064806D01*
Y1615128D01*
X2064978D01*
Y1615300D01*
X2065150D01*
Y1615128D01*
X2065321D01*
Y1615300D01*
X2065493D01*
Y1615128D01*
X2065665D01*
Y1615300D01*
X2065836D01*
Y1615128D01*
X2066008D01*
Y1615300D01*
X2066523D01*
Y1615471D01*
X2066695D01*
Y1615300D01*
X2066866D01*
Y1615471D01*
X2067038D01*
Y1615300D01*
X2067210D01*
Y1615471D01*
X2067381D01*
Y1615300D01*
X2067553D01*
Y1615471D01*
X2067725D01*
Y1615300D01*
X2067896D01*
Y1615471D01*
X2068068D01*
Y1615300D01*
X2068240D01*
Y1615471D01*
X2068412D01*
Y1615300D01*
X2068583D01*
Y1615471D01*
X2068755D01*
Y1615300D01*
X2068927D01*
Y1615471D01*
X2069098D01*
Y1615300D01*
X2069270D01*
Y1615471D01*
X2069442D01*
Y1615300D01*
D02*
G37*
G36*
X2053304D02*
X2053132D01*
Y1615471D01*
X2053304D01*
Y1615300D01*
D02*
G37*
G36*
X2053132Y1615128D02*
X2052960D01*
Y1615300D01*
X2053132D01*
Y1615128D01*
D02*
G37*
G36*
X2094335Y1615471D02*
X2094507D01*
Y1615300D01*
Y1615128D01*
Y1614956D01*
X2094335D01*
Y1615128D01*
Y1615300D01*
X2093992D01*
Y1615471D01*
X2094164D01*
Y1615643D01*
X2094335D01*
Y1615471D01*
D02*
G37*
G36*
X2090215Y1620622D02*
X2090387D01*
Y1620450D01*
X2090215D01*
Y1620278D01*
X2090387D01*
Y1620107D01*
X2090558D01*
Y1619935D01*
X2090730D01*
Y1619763D01*
X2090558D01*
Y1619592D01*
X2090902D01*
Y1619420D01*
Y1619248D01*
X2091073D01*
Y1619077D01*
X2091245D01*
Y1618905D01*
X2091417D01*
Y1618733D01*
X2091245D01*
Y1618562D01*
X2091417D01*
Y1618390D01*
X2091589D01*
Y1618218D01*
X2091760D01*
Y1618046D01*
Y1617875D01*
Y1617703D01*
X2091932D01*
Y1617531D01*
X2092104D01*
Y1617360D01*
X2092275D01*
Y1617188D01*
X2092447D01*
Y1617016D01*
X2092275D01*
Y1616845D01*
X2092447D01*
Y1616673D01*
X2092619D01*
Y1616501D01*
X2092790D01*
Y1616330D01*
X2092962D01*
Y1616158D01*
Y1615986D01*
Y1615815D01*
X2093134D01*
Y1615643D01*
X2093305D01*
Y1615471D01*
X2093477D01*
Y1615300D01*
Y1615128D01*
X2093649D01*
Y1614956D01*
Y1614785D01*
X2093820D01*
Y1614613D01*
X2091589D01*
Y1614785D01*
X2091417D01*
Y1614613D01*
X2091245D01*
Y1614785D01*
X2091073D01*
Y1614613D01*
X2090902D01*
Y1614785D01*
X2090730D01*
Y1614613D01*
X2090558D01*
Y1614785D01*
X2090043D01*
Y1614956D01*
X2089872D01*
Y1614785D01*
X2089700D01*
Y1614956D01*
X2088155D01*
Y1615128D01*
X2087983D01*
Y1614956D01*
X2087812D01*
Y1615128D01*
X2087640D01*
Y1614956D01*
X2087468D01*
Y1615128D01*
X2087296D01*
Y1615300D01*
X2087125D01*
Y1615128D01*
X2086953D01*
Y1615300D01*
X2085408D01*
Y1615471D01*
X2085236D01*
Y1615300D01*
X2085065D01*
Y1615471D01*
X2084550D01*
Y1615643D01*
X2084378D01*
Y1615471D01*
X2084206D01*
Y1615643D01*
X2084035D01*
Y1615471D01*
X2083863D01*
Y1615643D01*
X2083004D01*
Y1615815D01*
X2082833D01*
Y1615643D01*
X2082661D01*
Y1615815D01*
X2082489D01*
Y1615643D01*
X2082318D01*
Y1615815D01*
X2082146D01*
Y1615643D01*
X2081974D01*
Y1615815D01*
X2080086D01*
Y1615643D01*
X2079914D01*
Y1615815D01*
X2078369D01*
Y1615643D01*
X2078197D01*
Y1615815D01*
X2078026D01*
Y1615643D01*
X2077854D01*
Y1615815D01*
X2077682D01*
Y1615643D01*
X2077511D01*
Y1615815D01*
X2077339D01*
Y1615643D01*
X2076481D01*
Y1615471D01*
X2076309D01*
Y1615643D01*
X2076137D01*
Y1615471D01*
X2075622D01*
Y1615300D01*
X2075107D01*
Y1615128D01*
X2075279D01*
Y1614956D01*
X2075450D01*
Y1615128D01*
X2076652D01*
Y1615300D01*
X2076824D01*
Y1615128D01*
X2076996D01*
Y1615300D01*
X2077167D01*
Y1615128D01*
X2077339D01*
Y1615300D01*
X2077511D01*
Y1615128D01*
X2077682D01*
Y1615300D01*
X2077854D01*
Y1615128D01*
X2078026D01*
Y1615300D01*
X2078197D01*
Y1615471D01*
X2078369D01*
Y1615300D01*
X2078541D01*
Y1615471D01*
X2078712D01*
Y1615300D01*
X2078884D01*
Y1615471D01*
X2079056D01*
Y1615300D01*
X2079227D01*
Y1615471D01*
X2079399D01*
Y1615300D01*
X2079571D01*
Y1615471D01*
X2079742D01*
Y1615300D01*
X2079914D01*
Y1615471D01*
X2080086D01*
Y1615300D01*
X2080258D01*
Y1615471D01*
X2080429D01*
Y1615300D01*
X2080601D01*
Y1615471D01*
X2080773D01*
Y1615300D01*
X2080944D01*
Y1615471D01*
X2081116D01*
Y1615300D01*
X2081288D01*
Y1615128D01*
X2081459D01*
Y1615300D01*
X2081631D01*
Y1615128D01*
X2081803D01*
Y1615300D01*
X2081974D01*
Y1615128D01*
X2082146D01*
Y1615300D01*
X2082318D01*
Y1615128D01*
X2082489D01*
Y1615300D01*
X2082661D01*
Y1615128D01*
X2084206D01*
Y1614956D01*
X2084378D01*
Y1615128D01*
X2084893D01*
Y1614956D01*
X2085408D01*
Y1615128D01*
X2085580D01*
Y1614956D01*
X2085751D01*
Y1614785D01*
X2085923D01*
Y1614956D01*
X2086095D01*
Y1614785D01*
X2086266D01*
Y1614956D01*
X2086438D01*
Y1614785D01*
X2087296D01*
Y1614613D01*
X2087468D01*
Y1614785D01*
X2087983D01*
Y1614613D01*
X2088498D01*
Y1614785D01*
X2088670D01*
Y1614613D01*
X2088842D01*
Y1614441D01*
X2089013D01*
Y1614269D01*
X2088498D01*
Y1614441D01*
X2088327D01*
Y1614269D01*
X2088155D01*
Y1614441D01*
X2087296D01*
Y1614613D01*
X2087125D01*
Y1614441D01*
X2086953D01*
Y1614613D01*
X2086781D01*
Y1614441D01*
X2086610D01*
Y1614613D01*
X2086438D01*
Y1614441D01*
X2086266D01*
Y1614613D01*
X2085065D01*
Y1614785D01*
X2084893D01*
Y1614613D01*
X2084721D01*
Y1614785D01*
X2084550D01*
Y1614613D01*
X2084378D01*
Y1614785D01*
X2084206D01*
Y1614613D01*
X2084035D01*
Y1614785D01*
X2083863D01*
Y1614956D01*
X2083691D01*
Y1614785D01*
X2083176D01*
Y1614956D01*
X2083004D01*
Y1614785D01*
X2082833D01*
Y1614956D01*
X2082661D01*
Y1614785D01*
X2082489D01*
Y1614956D01*
X2081974D01*
Y1614785D01*
X2081803D01*
Y1614956D01*
X2080601D01*
Y1614785D01*
X2080429D01*
Y1614956D01*
X2077854D01*
Y1614785D01*
X2077682D01*
Y1614956D01*
X2076481D01*
Y1614785D01*
X2076309D01*
Y1614956D01*
X2076137D01*
Y1614785D01*
X2076309D01*
Y1614613D01*
X2076137D01*
Y1614785D01*
X2075622D01*
Y1614613D01*
X2075450D01*
Y1614785D01*
X2075279D01*
Y1614613D01*
X2075107D01*
Y1614785D01*
X2074935D01*
Y1614956D01*
X2075107D01*
Y1615128D01*
X2074935D01*
Y1615300D01*
X2074764D01*
Y1615128D01*
X2074592D01*
Y1614956D01*
X2074764D01*
Y1614785D01*
X2074935D01*
Y1614613D01*
X2074077D01*
Y1614441D01*
X2073905D01*
Y1614613D01*
X2073734D01*
Y1614785D01*
X2074592D01*
Y1614956D01*
X2073734D01*
Y1615128D01*
X2074249D01*
Y1615300D01*
X2074420D01*
Y1615471D01*
X2074935D01*
Y1615643D01*
X2075107D01*
Y1615815D01*
X2075279D01*
Y1615643D01*
X2075450D01*
Y1615815D01*
X2075966D01*
Y1615986D01*
X2076137D01*
Y1616158D01*
X2076309D01*
Y1615986D01*
X2076481D01*
Y1616158D01*
X2077339D01*
Y1616330D01*
X2077511D01*
Y1616158D01*
X2077682D01*
Y1616330D01*
X2077854D01*
Y1616501D01*
X2078026D01*
Y1616330D01*
X2078197D01*
Y1616501D01*
X2078369D01*
Y1616330D01*
X2078541D01*
Y1616501D01*
X2078712D01*
Y1616330D01*
X2078884D01*
Y1616501D01*
X2080773D01*
Y1616673D01*
X2080944D01*
Y1616501D01*
X2081459D01*
Y1616330D01*
X2081631D01*
Y1616501D01*
X2082833D01*
Y1616330D01*
X2083348D01*
Y1616501D01*
X2083519D01*
Y1616330D01*
X2083691D01*
Y1616158D01*
X2083863D01*
Y1616330D01*
X2084035D01*
Y1616158D01*
X2085236D01*
Y1615986D01*
X2085751D01*
Y1615815D01*
X2085923D01*
Y1615986D01*
X2086095D01*
Y1615815D01*
X2086953D01*
Y1615643D01*
X2087125D01*
Y1615815D01*
X2087296D01*
Y1615643D01*
X2087812D01*
Y1615471D01*
X2087983D01*
Y1615643D01*
X2088155D01*
Y1615471D01*
X2089013D01*
Y1615300D01*
X2089185D01*
Y1615471D01*
X2089357D01*
Y1615300D01*
X2089528D01*
Y1615128D01*
X2089700D01*
Y1615300D01*
X2089872D01*
Y1615128D01*
X2090043D01*
Y1615300D01*
X2090215D01*
Y1615128D01*
X2091073D01*
Y1614956D01*
X2091245D01*
Y1615128D01*
X2091760D01*
Y1614956D01*
X2091932D01*
Y1615128D01*
X2092447D01*
Y1614956D01*
X2092619D01*
Y1615128D01*
X2092790D01*
Y1615300D01*
X2092619D01*
Y1615471D01*
X2092447D01*
Y1615643D01*
X2092275D01*
Y1615815D01*
Y1615986D01*
X2092104D01*
Y1616158D01*
Y1616330D01*
X2091932D01*
Y1616501D01*
X2091760D01*
Y1616673D01*
Y1616845D01*
Y1617016D01*
X2091589D01*
Y1617188D01*
X2091417D01*
Y1617360D01*
X2091245D01*
Y1617531D01*
X2091417D01*
Y1617703D01*
X2091245D01*
Y1617875D01*
X2091073D01*
Y1618046D01*
X2090902D01*
Y1618218D01*
X2091073D01*
Y1618390D01*
X2090902D01*
Y1618562D01*
X2090730D01*
Y1618733D01*
X2090558D01*
Y1618905D01*
Y1619077D01*
Y1619248D01*
X2090387D01*
Y1619420D01*
X2090215D01*
Y1619592D01*
Y1619763D01*
X2090043D01*
Y1619935D01*
Y1620107D01*
X2089872D01*
Y1620278D01*
Y1620450D01*
X2089700D01*
Y1620622D01*
Y1620793D01*
X2090215D01*
Y1620622D01*
D02*
G37*
G36*
X2057767D02*
Y1620450D01*
X2057596D01*
Y1620278D01*
X2057424D01*
Y1620107D01*
X2057252D01*
Y1619935D01*
X2057424D01*
Y1619763D01*
X2057252D01*
Y1619592D01*
X2057081D01*
Y1619420D01*
Y1619248D01*
Y1619077D01*
X2056909D01*
Y1618905D01*
X2056737D01*
Y1618733D01*
X2056566D01*
Y1618562D01*
X2056737D01*
Y1618390D01*
X2056566D01*
Y1618218D01*
X2056394D01*
Y1618046D01*
X2056222D01*
Y1617875D01*
Y1617703D01*
X2056050D01*
Y1617531D01*
Y1617360D01*
X2055879D01*
Y1617188D01*
Y1617016D01*
X2055707D01*
Y1616845D01*
Y1616673D01*
X2055535D01*
Y1616501D01*
X2055364D01*
Y1616330D01*
Y1616158D01*
Y1615986D01*
X2055192D01*
Y1615815D01*
X2055020D01*
Y1615643D01*
X2054849D01*
Y1615471D01*
X2055020D01*
Y1615300D01*
X2054849D01*
Y1615128D01*
X2055364D01*
Y1614956D01*
X2055535D01*
Y1615128D01*
X2056050D01*
Y1614956D01*
X2056222D01*
Y1615128D01*
X2057424D01*
Y1615300D01*
X2057596D01*
Y1615128D01*
X2057767D01*
Y1615300D01*
X2057939D01*
Y1615471D01*
X2058111D01*
Y1615300D01*
X2058282D01*
Y1615471D01*
X2058454D01*
Y1615300D01*
X2058626D01*
Y1615471D01*
X2059141D01*
Y1615643D01*
X2059312D01*
Y1615471D01*
X2059827D01*
Y1615643D01*
X2060342D01*
Y1615815D01*
X2061201D01*
Y1615986D01*
X2061373D01*
Y1615815D01*
X2061544D01*
Y1615986D01*
X2061716D01*
Y1616158D01*
X2061888D01*
Y1615986D01*
X2062059D01*
Y1616158D01*
X2063261D01*
Y1616330D01*
X2063433D01*
Y1616158D01*
X2063604D01*
Y1616330D01*
X2063776D01*
Y1616158D01*
X2063948D01*
Y1616330D01*
X2064120D01*
Y1616501D01*
X2064291D01*
Y1616330D01*
X2064463D01*
Y1616501D01*
X2064635D01*
Y1616330D01*
X2064806D01*
Y1616501D01*
X2064978D01*
Y1616330D01*
X2065150D01*
Y1616501D01*
X2067038D01*
Y1616673D01*
X2067210D01*
Y1616501D01*
X2067725D01*
Y1616330D01*
X2067896D01*
Y1616501D01*
X2068755D01*
Y1616330D01*
X2068927D01*
Y1616501D01*
X2069098D01*
Y1616330D01*
X2069613D01*
Y1616158D01*
X2069785D01*
Y1616330D01*
X2069957D01*
Y1616158D01*
X2070815D01*
Y1615986D01*
X2070987D01*
Y1616158D01*
X2071158D01*
Y1615986D01*
X2071330D01*
Y1615815D01*
X2071502D01*
Y1615986D01*
X2071673D01*
Y1615815D01*
X2071845D01*
Y1615643D01*
X2072017D01*
Y1615815D01*
X2072189D01*
Y1615643D01*
X2072360D01*
Y1615471D01*
X2072875D01*
Y1615300D01*
X2073047D01*
Y1615128D01*
X2073219D01*
Y1615300D01*
X2073390D01*
Y1615128D01*
X2073562D01*
Y1614956D01*
X2073047D01*
Y1615128D01*
X2072875D01*
Y1614956D01*
X2072704D01*
Y1615128D01*
X2072532D01*
Y1615300D01*
X2071673D01*
Y1615471D01*
X2071502D01*
Y1615300D01*
X2071330D01*
Y1615471D01*
X2071158D01*
Y1615643D01*
X2070987D01*
Y1615471D01*
X2070815D01*
Y1615643D01*
X2069957D01*
Y1615815D01*
X2069785D01*
Y1615643D01*
X2069613D01*
Y1615815D01*
X2069442D01*
Y1615643D01*
X2069270D01*
Y1615815D01*
X2069098D01*
Y1615643D01*
X2068927D01*
Y1615815D01*
X2066351D01*
Y1615643D01*
X2066180D01*
Y1615815D01*
X2065665D01*
Y1615643D01*
X2065493D01*
Y1615815D01*
X2065321D01*
Y1615643D01*
X2065150D01*
Y1615815D01*
X2064978D01*
Y1615643D01*
X2064806D01*
Y1615815D01*
X2064635D01*
Y1615643D01*
X2063433D01*
Y1615471D01*
X2063261D01*
Y1615643D01*
X2063089D01*
Y1615471D01*
X2062918D01*
Y1615643D01*
X2062746D01*
Y1615471D01*
X2062574D01*
Y1615300D01*
X2062403D01*
Y1615471D01*
X2061888D01*
Y1615300D01*
X2060342D01*
Y1615128D01*
X2060171D01*
Y1615300D01*
X2059999D01*
Y1615128D01*
X2059827D01*
Y1614956D01*
X2059656D01*
Y1615128D01*
X2059484D01*
Y1614956D01*
X2059312D01*
Y1615128D01*
X2059141D01*
Y1614956D01*
X2057939D01*
Y1614785D01*
X2057767D01*
Y1614956D01*
X2057596D01*
Y1614785D01*
X2057081D01*
Y1614956D01*
X2056909D01*
Y1614785D01*
X2056737D01*
Y1614613D01*
X2056566D01*
Y1614785D01*
X2056394D01*
Y1614613D01*
X2056222D01*
Y1614785D01*
X2056050D01*
Y1614613D01*
X2053475D01*
Y1614785D01*
X2053647D01*
Y1614956D01*
X2053819D01*
Y1615128D01*
X2053990D01*
Y1615300D01*
Y1615471D01*
X2054162D01*
Y1615643D01*
Y1615815D01*
X2054334D01*
Y1615986D01*
X2054505D01*
Y1616158D01*
X2054677D01*
Y1616330D01*
Y1616501D01*
Y1616673D01*
X2054849D01*
Y1616845D01*
X2055020D01*
Y1617016D01*
X2055192D01*
Y1617188D01*
Y1617360D01*
Y1617531D01*
X2055364D01*
Y1617703D01*
X2055535D01*
Y1617875D01*
X2055707D01*
Y1618046D01*
X2055535D01*
Y1618218D01*
X2055879D01*
Y1618390D01*
Y1618562D01*
X2056050D01*
Y1618733D01*
X2056222D01*
Y1618905D01*
X2056394D01*
Y1619077D01*
Y1619248D01*
Y1619420D01*
X2056566D01*
Y1619592D01*
X2056737D01*
Y1619763D01*
Y1619935D01*
Y1620107D01*
X2056909D01*
Y1620278D01*
X2057081D01*
Y1620450D01*
X2057252D01*
Y1620622D01*
X2057424D01*
Y1620793D01*
X2057767D01*
Y1620622D01*
D02*
G37*
G36*
X2052960Y1614956D02*
X2052789D01*
Y1615128D01*
X2052960D01*
Y1614956D01*
D02*
G37*
G36*
X2089528Y1614441D02*
X2090730D01*
Y1614269D01*
X2090902D01*
Y1614098D01*
X2090730D01*
Y1614269D01*
X2090558D01*
Y1614098D01*
X2090387D01*
Y1614269D01*
X2089185D01*
Y1614441D01*
X2089013D01*
Y1614613D01*
X2089185D01*
Y1614441D01*
X2089357D01*
Y1614613D01*
X2089528D01*
Y1614441D01*
D02*
G37*
G36*
X2091760Y1614269D02*
X2091932D01*
Y1614098D01*
X2092104D01*
Y1613926D01*
X2091932D01*
Y1614098D01*
X2091760D01*
Y1613926D01*
X2091589D01*
Y1614098D01*
X2091417D01*
Y1614269D01*
X2091245D01*
Y1614441D01*
X2091417D01*
Y1614269D01*
X2091589D01*
Y1614441D01*
X2091760D01*
Y1614269D01*
D02*
G37*
G36*
X2057939Y1614441D02*
X2058111D01*
Y1614269D01*
X2056909D01*
Y1614441D01*
X2057767D01*
Y1614613D01*
X2057939D01*
Y1614441D01*
D02*
G37*
G36*
X2094335Y1614098D02*
X2094850D01*
Y1613926D01*
X2093305D01*
Y1614098D01*
X2093477D01*
Y1614269D01*
X2093649D01*
Y1614098D01*
X2094164D01*
Y1614269D01*
X2094335D01*
Y1614098D01*
D02*
G37*
G36*
X2092962D02*
X2092790D01*
Y1614269D01*
X2092962D01*
Y1614098D01*
D02*
G37*
G36*
X2091073Y1614269D02*
X2091245D01*
Y1614098D01*
X2091073D01*
Y1614269D01*
X2090902D01*
Y1614441D01*
X2091073D01*
Y1614269D01*
D02*
G37*
G36*
X2056737D02*
X2056909D01*
Y1614098D01*
X2056737D01*
Y1614269D01*
X2056566D01*
Y1614441D01*
X2056737D01*
Y1614269D01*
D02*
G37*
G36*
X2056394D02*
X2056566D01*
Y1614098D01*
X2056394D01*
Y1614269D01*
X2056222D01*
Y1614441D01*
X2056394D01*
Y1614269D01*
D02*
G37*
G36*
X2056050D02*
X2056222D01*
Y1614098D01*
X2056050D01*
Y1614269D01*
X2055879D01*
Y1614441D01*
X2056050D01*
Y1614269D01*
D02*
G37*
G36*
X2055879Y1614098D02*
X2055707D01*
Y1614269D01*
X2055879D01*
Y1614098D01*
D02*
G37*
G36*
X2095022Y1614441D02*
X2095194D01*
Y1614269D01*
Y1614098D01*
Y1613926D01*
X2095022D01*
Y1614098D01*
X2094850D01*
Y1614269D01*
Y1614441D01*
Y1614613D01*
X2095022D01*
Y1614441D01*
D02*
G37*
G36*
X2092619Y1614098D02*
X2092790D01*
Y1613926D01*
X2092619D01*
Y1614098D01*
X2092447D01*
Y1613926D01*
X2092275D01*
Y1614098D01*
X2092104D01*
Y1614269D01*
X2092619D01*
Y1614098D01*
D02*
G37*
G36*
X2055535D02*
X2055707D01*
Y1613926D01*
X2055535D01*
Y1614098D01*
X2055364D01*
Y1613926D01*
X2055192D01*
Y1614098D01*
X2055020D01*
Y1614269D01*
X2055535D01*
Y1614098D01*
D02*
G37*
G36*
X2054849D02*
X2055020D01*
Y1613926D01*
X2054849D01*
Y1614098D01*
X2054677D01*
Y1613926D01*
X2054505D01*
Y1614098D01*
X2054334D01*
Y1614269D01*
X2054849D01*
Y1614098D01*
D02*
G37*
G36*
X2054334Y1613926D02*
X2054162D01*
Y1614098D01*
X2054334D01*
Y1613926D01*
D02*
G37*
G36*
X2052789Y1614785D02*
X2052960D01*
Y1614613D01*
X2052617D01*
Y1614441D01*
Y1614269D01*
X2052445D01*
Y1614098D01*
X2052960D01*
Y1614269D01*
X2053132D01*
Y1614098D01*
X2053647D01*
Y1614269D01*
X2053819D01*
Y1614098D01*
X2053990D01*
Y1613926D01*
X2052445D01*
Y1614098D01*
X2052273D01*
Y1614269D01*
Y1614441D01*
X2052445D01*
Y1614613D01*
Y1614785D01*
X2052617D01*
Y1614956D01*
X2052789D01*
Y1614785D01*
D02*
G37*
G36*
X2052273Y1613926D02*
X2052102D01*
Y1614098D01*
X2052273D01*
Y1613926D01*
D02*
G37*
%LPC*%
G36*
X2070128Y1656847D02*
X2069957D01*
Y1656675D01*
X2070128D01*
Y1656847D01*
D02*
G37*
G36*
X2075794Y1629549D02*
X2075622D01*
Y1629377D01*
X2075279D01*
Y1629206D01*
Y1629034D01*
X2075107D01*
Y1628862D01*
X2075279D01*
Y1628691D01*
X2075107D01*
Y1628519D01*
X2074935D01*
Y1628347D01*
X2075107D01*
Y1628176D01*
Y1628004D01*
Y1627832D01*
X2075279D01*
Y1627661D01*
X2075450D01*
Y1627489D01*
X2076309D01*
Y1627661D01*
X2076481D01*
Y1627832D01*
Y1628004D01*
Y1628176D01*
X2076652D01*
Y1628347D01*
X2076481D01*
Y1628519D01*
X2076652D01*
Y1628691D01*
X2076481D01*
Y1628862D01*
Y1629034D01*
Y1629206D01*
X2076309D01*
Y1629377D01*
X2075794D01*
Y1629549D01*
D02*
G37*
G36*
X2092790Y1616330D02*
X2092619D01*
Y1616158D01*
X2092790D01*
Y1616330D01*
D02*
G37*
G36*
X2054849Y1615128D02*
X2054677D01*
Y1614956D01*
X2054849D01*
Y1615128D01*
D02*
G37*
%LPD*%
D12*
X2142760Y1593473D02*
Y1598472D01*
X2140261Y1600971D01*
X2137762Y1598472D01*
Y1593473D01*
Y1597222D01*
X2142760D01*
X2135262Y1598472D02*
Y1594723D01*
X2134013Y1593473D01*
X2130264D01*
Y1598472D01*
X2126515Y1599721D02*
Y1598472D01*
X2127765D01*
X2125266D01*
X2126515D01*
Y1594723D01*
X2125266Y1593473D01*
X2121517Y1600971D02*
Y1593473D01*
Y1597222D01*
X2120267Y1598472D01*
X2117768D01*
X2116519Y1597222D01*
Y1593473D01*
X2112770D02*
X2110271D01*
X2109021Y1594723D01*
Y1597222D01*
X2110271Y1598472D01*
X2112770D01*
X2114019Y1597222D01*
Y1594723D01*
X2112770Y1593473D01*
X2106522Y1598472D02*
Y1593473D01*
Y1595972D01*
X2105272Y1597222D01*
X2104023Y1598472D01*
X2102773D01*
X2099024D02*
X2097775D01*
Y1597222D01*
X2099024D01*
Y1598472D01*
Y1594723D02*
X2097775D01*
Y1593473D01*
X2099024D01*
Y1594723D01*
X2085279Y1600971D02*
Y1593473D01*
X2081530D01*
X2080280Y1594723D01*
Y1595972D01*
X2081530Y1597222D01*
X2085279D01*
X2081530D01*
X2080280Y1598472D01*
Y1599721D01*
X2081530Y1600971D01*
X2085279D01*
X2076531Y1598472D02*
X2074032D01*
X2072783Y1597222D01*
Y1593473D01*
X2076531D01*
X2077781Y1594723D01*
X2076531Y1595972D01*
X2072783D01*
X2070283Y1593473D02*
X2067784D01*
X2069034D01*
Y1598472D01*
X2070283D01*
X2061536Y1590974D02*
X2060287D01*
X2059037Y1592224D01*
Y1598472D01*
X2062786D01*
X2064035Y1597222D01*
Y1594723D01*
X2062786Y1593473D01*
X2059037D01*
X2056538Y1598472D02*
Y1594723D01*
X2055288Y1593473D01*
X2051539D01*
Y1598472D01*
X2047791D02*
X2045291D01*
X2044042Y1597222D01*
Y1593473D01*
X2047791D01*
X2049040Y1594723D01*
X2047791Y1595972D01*
X2044042D01*
X2041543Y1593473D02*
Y1598472D01*
X2037794D01*
X2036544Y1597222D01*
Y1593473D01*
X2034045Y1598472D02*
Y1594723D01*
X2032795Y1593473D01*
X2029047D01*
Y1592224D01*
X2030296Y1590974D01*
X2031546D01*
X2029047Y1593473D02*
Y1598472D01*
X2026547Y1593473D02*
X2022799D01*
X2021549Y1594723D01*
X2022799Y1595972D01*
X2025298D01*
X2026547Y1597222D01*
X2025298Y1598472D01*
X2021549D01*
X2019050Y1600971D02*
Y1593473D01*
Y1597222D01*
X2017800Y1598472D01*
X2015301D01*
X2014051Y1597222D01*
Y1593473D01*
X1999056Y1599721D02*
X2000306Y1600971D01*
X2002805D01*
X2004055Y1599721D01*
Y1598472D01*
X2002805Y1597222D01*
X2000306D01*
X1999056Y1595972D01*
Y1594723D01*
X2000306Y1593473D01*
X2002805D01*
X2004055Y1594723D01*
X1996557Y1593473D02*
Y1594723D01*
X1995307D01*
Y1593473D01*
X1996557D01*
X2142760Y1579577D02*
Y1587074D01*
X2139011D01*
X2137762Y1585825D01*
Y1583326D01*
X2139011Y1582076D01*
X2142760D01*
X2135262Y1584575D02*
Y1579577D01*
Y1582076D01*
X2134013Y1583326D01*
X2132763Y1584575D01*
X2131514D01*
X2126515Y1579577D02*
X2124016D01*
X2122767Y1580826D01*
Y1583326D01*
X2124016Y1584575D01*
X2126515D01*
X2127765Y1583326D01*
Y1580826D01*
X2126515Y1579577D01*
X2120267Y1577078D02*
X2119018D01*
X2117768Y1578327D01*
Y1584575D01*
X2109021Y1579577D02*
X2111520D01*
X2112770Y1580826D01*
Y1583326D01*
X2111520Y1584575D01*
X2109021D01*
X2107771Y1583326D01*
Y1582076D01*
X2112770D01*
X2100274Y1584575D02*
X2104023D01*
X2105272Y1583326D01*
Y1580826D01*
X2104023Y1579577D01*
X2100274D01*
X2096525Y1585825D02*
Y1584575D01*
X2097775D01*
X2095275D01*
X2096525D01*
Y1580826D01*
X2095275Y1579577D01*
X2091527Y1584575D02*
X2090277D01*
Y1583326D01*
X2091527D01*
Y1584575D01*
Y1580826D02*
X2090277D01*
Y1579577D01*
X2091527D01*
Y1580826D01*
X2077781Y1579577D02*
Y1587074D01*
X2074032D01*
X2072783Y1585825D01*
Y1583326D01*
X2074032Y1582076D01*
X2077781D01*
X2066535Y1579577D02*
X2069034D01*
X2070283Y1580826D01*
Y1583326D01*
X2069034Y1584575D01*
X2066535D01*
X2065285Y1583326D01*
Y1582076D01*
X2070283D01*
X2060287Y1577078D02*
X2059037D01*
X2057787Y1578327D01*
Y1584575D01*
X2061536D01*
X2062786Y1583326D01*
Y1580826D01*
X2061536Y1579577D01*
X2057787D01*
X2052789Y1577078D02*
X2051539D01*
X2050290Y1578327D01*
Y1584575D01*
X2054039D01*
X2055288Y1583326D01*
Y1580826D01*
X2054039Y1579577D01*
X2050290D01*
X2047791Y1584575D02*
Y1580826D01*
X2046541Y1579577D01*
X2042792D01*
Y1578327D01*
X2044042Y1577078D01*
X2045291D01*
X2042792Y1579577D02*
Y1584575D01*
X2032795Y1587074D02*
X2027797D01*
X2030296D01*
Y1579577D01*
X2025298Y1584575D02*
Y1579577D01*
Y1582076D01*
X2024048Y1583326D01*
X2022799Y1584575D01*
X2021549D01*
X2016551D02*
X2014051D01*
X2012802Y1583326D01*
Y1579577D01*
X2016551D01*
X2017800Y1580826D01*
X2016551Y1582076D01*
X2012802D01*
X2005304Y1584575D02*
X2009053D01*
X2010303Y1583326D01*
Y1580826D01*
X2009053Y1579577D01*
X2005304D01*
X2002805D02*
Y1587074D01*
Y1582076D02*
X1999056Y1584575D01*
X2002805Y1582076D02*
X1999056Y1579577D01*
X1991559D02*
X1994058D01*
X1995307Y1580826D01*
Y1583326D01*
X1994058Y1584575D01*
X1991559D01*
X1990309Y1583326D01*
Y1582076D01*
X1995307D01*
X1987810Y1584575D02*
Y1579577D01*
Y1582076D01*
X1986560Y1583326D01*
X1985311Y1584575D01*
X1984061D01*
X1972815D02*
X1970315Y1579577D01*
X1967816Y1584575D01*
X1960319Y1579577D02*
X1965317D01*
X1960319Y1584575D01*
Y1585825D01*
X1961568Y1587074D01*
X1964067D01*
X1965317Y1585825D01*
X1928606Y1272260D02*
Y1282256D01*
X1933604D01*
X1935271Y1280590D01*
Y1277258D01*
X1933604Y1275592D01*
X1928606D01*
X1931938D02*
X1935271Y1272260D01*
X1945267Y1280590D02*
X1943601Y1282256D01*
X1940269D01*
X1938603Y1280590D01*
Y1278924D01*
X1940269Y1277258D01*
X1943601D01*
X1945267Y1275592D01*
Y1273926D01*
X1943601Y1272260D01*
X1940269D01*
X1938603Y1273926D01*
X1948600Y1282256D02*
X1955264D01*
X1951932D01*
Y1272260D01*
X1935271Y1305590D02*
X1933604Y1307256D01*
X1930272D01*
X1928606Y1305590D01*
Y1298926D01*
X1930272Y1297260D01*
X1933604D01*
X1935271Y1298926D01*
X1938603Y1307256D02*
Y1297260D01*
X1945267D01*
X1928606Y1434256D02*
X1935271D01*
X1931938D01*
Y1424260D01*
X1938603Y1434256D02*
X1945267Y1424260D01*
Y1434256D02*
X1938603Y1424260D01*
X1935271Y1457990D02*
X1933604Y1459657D01*
X1930272D01*
X1928606Y1457990D01*
Y1451326D01*
X1930272Y1449660D01*
X1933604D01*
X1935271Y1451326D01*
Y1454658D01*
X1931938D01*
X1938603Y1449660D02*
Y1459657D01*
X1945267Y1449660D01*
Y1459657D01*
X1948600D02*
Y1449660D01*
X1953598D01*
X1955264Y1451326D01*
Y1457990D01*
X1953598Y1459657D01*
X1948600D01*
X1928606Y1356390D02*
X1930272Y1358056D01*
X1933604D01*
X1935271Y1356390D01*
Y1354724D01*
X1933604Y1353058D01*
X1931938D01*
X1933604D01*
X1935271Y1351392D01*
Y1349726D01*
X1933604Y1348060D01*
X1930272D01*
X1928606Y1349726D01*
X1938603Y1358056D02*
Y1351392D01*
X1941935Y1348060D01*
X1945267Y1351392D01*
Y1358056D01*
X1948600Y1356390D02*
X1950266Y1358056D01*
X1953598D01*
X1955264Y1356390D01*
Y1354724D01*
X1953598Y1353058D01*
X1951932D01*
X1953598D01*
X1955264Y1351392D01*
Y1349726D01*
X1953598Y1348060D01*
X1950266D01*
X1948600Y1349726D01*
X1928606Y1398860D02*
Y1408857D01*
X1933604D01*
X1935271Y1407190D01*
Y1403858D01*
X1933604Y1402192D01*
X1928606D01*
X1931938D02*
X1935271Y1398860D01*
X1938603Y1408857D02*
X1945267Y1398860D01*
Y1408857D02*
X1938603Y1398860D01*
X1928606Y1381790D02*
X1930272Y1383457D01*
X1933604D01*
X1935271Y1381790D01*
Y1380124D01*
X1933604Y1378458D01*
X1931938D01*
X1933604D01*
X1935271Y1376792D01*
Y1375126D01*
X1933604Y1373460D01*
X1930272D01*
X1928606Y1375126D01*
X1938603Y1383457D02*
Y1376792D01*
X1941935Y1373460D01*
X1945267Y1376792D01*
Y1383457D01*
X1948600Y1381790D02*
X1950266Y1383457D01*
X1953598D01*
X1955264Y1381790D01*
Y1380124D01*
X1953598Y1378458D01*
X1951932D01*
X1953598D01*
X1955264Y1376792D01*
Y1375126D01*
X1953598Y1373460D01*
X1950266D01*
X1948600Y1375126D01*
X1928606Y1332657D02*
Y1322660D01*
X1933604D01*
X1935271Y1324326D01*
Y1330990D01*
X1933604Y1332657D01*
X1928606D01*
X1938603D02*
X1941935D01*
X1940269D01*
Y1322660D01*
X1938603D01*
X1941935D01*
X1951932Y1332657D02*
X1948600D01*
X1946933Y1330990D01*
Y1324326D01*
X1948600Y1322660D01*
X1951932D01*
X1953598Y1324326D01*
Y1330990D01*
X1951932Y1332657D01*
X1935271Y1254790D02*
X1933604Y1256457D01*
X1930272D01*
X1928606Y1254790D01*
Y1248126D01*
X1930272Y1246460D01*
X1933604D01*
X1935271Y1248126D01*
Y1251458D01*
X1931938D01*
X1938603Y1246460D02*
Y1256457D01*
X1945267Y1246460D01*
Y1256457D01*
X1948600D02*
Y1246460D01*
X1953598D01*
X1955264Y1248126D01*
Y1254790D01*
X1953598Y1256457D01*
X1948600D01*
X2093358Y1313634D02*
X2103354D01*
X2093358Y1320298D01*
X2103354D01*
Y1328629D02*
Y1325297D01*
X2101688Y1323631D01*
X2095024D01*
X2093358Y1325297D01*
Y1328629D01*
X2095024Y1330295D01*
X2101688D01*
X2103354Y1328629D01*
Y1333627D02*
X2093358D01*
Y1338626D01*
X2095024Y1340292D01*
X2096690D01*
X2098356Y1338626D01*
Y1333627D01*
Y1338626D01*
X2100022Y1340292D01*
X2101688D01*
X2103354Y1338626D01*
Y1333627D01*
Y1348623D02*
Y1345290D01*
X2101688Y1343624D01*
X2095024D01*
X2093358Y1345290D01*
Y1348623D01*
X2095024Y1350289D01*
X2101688D01*
X2103354Y1348623D01*
Y1358619D02*
Y1355287D01*
X2101688Y1353621D01*
X2095024D01*
X2093358Y1355287D01*
Y1358619D01*
X2095024Y1360285D01*
X2101688D01*
X2103354Y1358619D01*
Y1363618D02*
Y1370282D01*
Y1366950D01*
X2093358D01*
X2075854Y1313631D02*
X2065858D01*
Y1318629D01*
X2067524Y1320295D01*
X2069190D01*
X2070856Y1318629D01*
Y1313631D01*
Y1318629D01*
X2072522Y1320295D01*
X2074188D01*
X2075854Y1318629D01*
Y1313631D01*
Y1328626D02*
Y1325294D01*
X2074188Y1323627D01*
X2067524D01*
X2065858Y1325294D01*
Y1328626D01*
X2067524Y1330292D01*
X2074188D01*
X2075854Y1328626D01*
Y1338623D02*
Y1335290D01*
X2074188Y1333624D01*
X2067524D01*
X2065858Y1335290D01*
Y1338623D01*
X2067524Y1340289D01*
X2074188D01*
X2075854Y1338623D01*
Y1343621D02*
Y1350285D01*
Y1346953D01*
X2065858D01*
X1970197Y1338459D02*
X1960200Y1345124D01*
X1970197D02*
X1960200Y1338459D01*
Y1348456D02*
X1970197D01*
Y1353454D01*
X1968530Y1355120D01*
X1965198D01*
X1963532Y1353454D01*
Y1348456D01*
X1960200Y1365117D02*
Y1358453D01*
X1966864Y1365117D01*
X1968530D01*
X1970197Y1363451D01*
Y1360119D01*
X1968530Y1358453D01*
X2116344Y1464290D02*
Y1455959D01*
X2114678Y1454293D01*
X2111346D01*
X2109680Y1455959D01*
Y1464290D01*
X2106347Y1454293D02*
Y1460957D01*
X2103015Y1464290D01*
X2099683Y1460957D01*
Y1454293D01*
Y1459291D01*
X2106347D01*
X2096351Y1454293D02*
Y1464290D01*
X2091352D01*
X2089686Y1462623D01*
Y1459291D01*
X2091352Y1457625D01*
X2096351D01*
X2093018D02*
X2089686Y1454293D01*
X2086354Y1464290D02*
X2079689D01*
X2083022D01*
Y1454293D01*
X2076357D02*
X2073025D01*
X2074691D01*
Y1464290D01*
X2076357Y1462623D01*
X2068026Y1452627D02*
X2061362D01*
X2058029Y1464290D02*
X2051365D01*
X2054697D01*
Y1454293D01*
X2048033Y1464290D02*
X2041368Y1454293D01*
Y1464290D02*
X2048033Y1454293D01*
X2116344Y1445290D02*
Y1436959D01*
X2114678Y1435293D01*
X2111346D01*
X2109680Y1436959D01*
Y1445290D01*
X2106347Y1435293D02*
Y1441957D01*
X2103015Y1445290D01*
X2099683Y1441957D01*
Y1435293D01*
Y1440291D01*
X2106347D01*
X2096351Y1435293D02*
Y1445290D01*
X2091352D01*
X2089686Y1443624D01*
Y1440291D01*
X2091352Y1438625D01*
X2096351D01*
X2093018D02*
X2089686Y1435293D01*
X2086354Y1445290D02*
X2079689D01*
X2083022D01*
Y1435293D01*
X2076357D02*
X2073025D01*
X2074691D01*
Y1445290D01*
X2076357Y1443624D01*
X2068026Y1433627D02*
X2061362D01*
X2058029Y1435293D02*
Y1445290D01*
X2053031D01*
X2051365Y1443624D01*
Y1440291D01*
X2053031Y1438625D01*
X2058029D01*
X2054697D02*
X2051365Y1435293D01*
X2048033Y1445290D02*
X2041368Y1435293D01*
Y1445290D02*
X2048033Y1435293D01*
X2168498Y1223873D02*
X2170164Y1225540D01*
X2173496D01*
X2175163Y1223873D01*
Y1222207D01*
X2173496Y1220541D01*
X2170164D01*
X2168498Y1218875D01*
Y1217209D01*
X2170164Y1215543D01*
X2173496D01*
X2175163Y1217209D01*
X2165166Y1215543D02*
Y1225540D01*
X2160167D01*
X2158501Y1223873D01*
Y1220541D01*
X2160167Y1218875D01*
X2165166D01*
X2155169Y1225540D02*
X2151837D01*
X2153503D01*
Y1215543D01*
X2155169D01*
X2151837D01*
X2146838D02*
X2143506D01*
X2145172D01*
Y1225540D01*
X2146838Y1223873D01*
X2138508Y1213877D02*
X2131843D01*
X2121846Y1223873D02*
X2123513Y1225540D01*
X2126845D01*
X2128511Y1223873D01*
Y1222207D01*
X2126845Y1220541D01*
X2123513D01*
X2121846Y1218875D01*
Y1217209D01*
X2123513Y1215543D01*
X2126845D01*
X2128511Y1217209D01*
X2113516Y1225540D02*
X2116848D01*
X2118514Y1223873D01*
Y1217209D01*
X2116848Y1215543D01*
X2113516D01*
X2111850Y1217209D01*
Y1223873D01*
X2113516Y1225540D01*
X2166832Y1242923D02*
X2168498Y1244590D01*
X2171830D01*
X2173496Y1242923D01*
Y1241257D01*
X2171830Y1239591D01*
X2168498D01*
X2166832Y1237925D01*
Y1236259D01*
X2168498Y1234593D01*
X2171830D01*
X2173496Y1236259D01*
X2163500Y1234593D02*
Y1244590D01*
X2158501D01*
X2156835Y1242923D01*
Y1239591D01*
X2158501Y1237925D01*
X2163500D01*
X2153503Y1244590D02*
X2150171D01*
X2151837D01*
Y1234593D01*
X2153503D01*
X2150171D01*
X2145172D02*
X2141840D01*
X2143506D01*
Y1244590D01*
X2145172Y1242923D01*
X2136842Y1232927D02*
X2130177D01*
X2120180Y1242923D02*
X2121846Y1244590D01*
X2125179D01*
X2126845Y1242923D01*
Y1241257D01*
X2125179Y1239591D01*
X2121846D01*
X2120180Y1237925D01*
Y1236259D01*
X2121846Y1234593D01*
X2125179D01*
X2126845Y1236259D01*
X2116848Y1244590D02*
X2113516D01*
X2115182D01*
Y1234593D01*
X2116848D01*
X2113516D01*
X2078328Y1184503D02*
X2079994Y1186170D01*
X2083326D01*
X2084993Y1184503D01*
Y1182837D01*
X2083326Y1181171D01*
X2079994D01*
X2078328Y1179505D01*
Y1177839D01*
X2079994Y1176173D01*
X2083326D01*
X2084993Y1177839D01*
X2074996Y1176173D02*
Y1186170D01*
X2069997D01*
X2068331Y1184503D01*
Y1181171D01*
X2069997Y1179505D01*
X2074996D01*
X2064999Y1186170D02*
X2061667D01*
X2063333D01*
Y1176173D01*
X2064999D01*
X2061667D01*
X2056668D02*
X2053336D01*
X2055002D01*
Y1186170D01*
X2056668Y1184503D01*
X2048338Y1174507D02*
X2041673D01*
X2031676Y1184503D02*
X2033343Y1186170D01*
X2036675D01*
X2038341Y1184503D01*
Y1177839D01*
X2036675Y1176173D01*
X2033343D01*
X2031676Y1177839D01*
X2021680Y1184503D02*
X2023346Y1186170D01*
X2026678D01*
X2028344Y1184503D01*
Y1182837D01*
X2026678Y1181171D01*
X2023346D01*
X2021680Y1179505D01*
Y1177839D01*
X2023346Y1176173D01*
X2026678D01*
X2028344Y1177839D01*
X2179846Y1204823D02*
X2181513Y1206490D01*
X2184845D01*
X2186511Y1204823D01*
Y1203157D01*
X2184845Y1201491D01*
X2181513D01*
X2179846Y1199825D01*
Y1198159D01*
X2181513Y1196493D01*
X2184845D01*
X2186511Y1198159D01*
X2176514Y1196493D02*
Y1206490D01*
X2171516D01*
X2169850Y1204823D01*
Y1201491D01*
X2171516Y1199825D01*
X2176514D01*
X2166517Y1206490D02*
X2163185D01*
X2164851D01*
Y1196493D01*
X2166517D01*
X2163185D01*
X2158187D02*
X2154854D01*
X2156521D01*
Y1206490D01*
X2158187Y1204823D01*
X2149856Y1194827D02*
X2143192D01*
X2133195Y1204823D02*
X2134861Y1206490D01*
X2138193D01*
X2139859Y1204823D01*
Y1198159D01*
X2138193Y1196493D01*
X2134861D01*
X2133195Y1198159D01*
X2129863Y1206490D02*
Y1196493D01*
X2123198D01*
X2119866Y1206490D02*
Y1196493D01*
Y1199825D01*
X2113201Y1206490D01*
X2118200Y1201491D01*
X2113201Y1196493D01*
X2135511Y1273728D02*
Y1263732D01*
X2140509D01*
X2142176Y1265398D01*
Y1268730D01*
X2140509Y1270396D01*
X2135511D01*
X2145508Y1273728D02*
Y1267064D01*
X2148840Y1263732D01*
X2152172Y1267064D01*
Y1273728D01*
Y1268730D01*
X2145508D01*
X2155505Y1272062D02*
X2157171Y1273728D01*
X2160503D01*
X2162169Y1272062D01*
Y1265398D01*
X2160503Y1263732D01*
X2157171D01*
X2155505Y1265398D01*
Y1267064D01*
X2157171Y1268730D01*
X2162169D01*
X2001693Y1264456D02*
Y1254460D01*
X2006692D01*
X2008358Y1256126D01*
Y1259458D01*
X2006692Y1261124D01*
X2001693D01*
X2011690Y1264456D02*
Y1257792D01*
X2015022Y1254460D01*
X2018354Y1257792D01*
Y1264456D01*
Y1259458D01*
X2011690D01*
X2021687Y1264456D02*
X2025019D01*
X2023353D01*
Y1254460D01*
X2021687Y1256126D01*
X1996672Y1221222D02*
X1993339D01*
X1995005D01*
Y1211225D01*
X1996672D01*
X1993339D01*
X1981676D02*
X1988341D01*
X1981676Y1217889D01*
Y1219555D01*
X1983343Y1221222D01*
X1986675D01*
X1988341Y1219555D01*
X1971680D02*
X1973346Y1221222D01*
X1976678D01*
X1978344Y1219555D01*
Y1212891D01*
X1976678Y1211225D01*
X1973346D01*
X1971680Y1212891D01*
X1968347Y1209559D02*
X1961683D01*
X1951686Y1219555D02*
X1953352Y1221222D01*
X1956685D01*
X1958351Y1219555D01*
Y1217889D01*
X1956685Y1216223D01*
X1953352D01*
X1951686Y1214557D01*
Y1212891D01*
X1953352Y1211225D01*
X1956685D01*
X1958351Y1212891D01*
X1948354Y1221222D02*
Y1211225D01*
X1943356D01*
X1941689Y1212891D01*
Y1219555D01*
X1943356Y1221222D01*
X1948354D01*
X1938357Y1211225D02*
Y1217889D01*
X1935025Y1221222D01*
X1931693Y1217889D01*
Y1211225D01*
Y1216223D01*
X1938357D01*
X1979146Y1235954D02*
X1975813D01*
X1977480D01*
Y1225957D01*
X1979146D01*
X1975813D01*
X1964151D02*
X1970815D01*
X1964151Y1232621D01*
Y1234287D01*
X1965817Y1235954D01*
X1969149D01*
X1970815Y1234287D01*
X1954154D02*
X1955820Y1235954D01*
X1959152D01*
X1960818Y1234287D01*
Y1227623D01*
X1959152Y1225957D01*
X1955820D01*
X1954154Y1227623D01*
X1950821Y1224291D02*
X1944157D01*
X1934160Y1234287D02*
X1935826Y1235954D01*
X1939158D01*
X1940825Y1234287D01*
Y1232621D01*
X1939158Y1230955D01*
X1935826D01*
X1934160Y1229289D01*
Y1227623D01*
X1935826Y1225957D01*
X1939158D01*
X1940825Y1227623D01*
X1924163Y1234287D02*
X1925829Y1235954D01*
X1929162D01*
X1930828Y1234287D01*
Y1227623D01*
X1929162Y1225957D01*
X1925829D01*
X1924163Y1227623D01*
X1920831Y1235954D02*
Y1225957D01*
X1914167D01*
X2030014Y1503624D02*
X2031680Y1505290D01*
X2035013D01*
X2036679Y1503624D01*
Y1496959D01*
X2035013Y1495293D01*
X2031680D01*
X2030014Y1496959D01*
Y1500291D01*
X2033347D01*
X2026682Y1495293D02*
Y1505290D01*
X2021684D01*
X2020017Y1503624D01*
Y1500291D01*
X2021684Y1498625D01*
X2026682D01*
X2010021Y1503624D02*
X2011687Y1505290D01*
X2015019D01*
X2016685Y1503624D01*
Y1501957D01*
X2015019Y1500291D01*
X2011687D01*
X2010021Y1498625D01*
Y1496959D01*
X2011687Y1495293D01*
X2015019D01*
X2016685Y1496959D01*
X2006688Y1493627D02*
X2000024D01*
X1996692Y1495293D02*
Y1505290D01*
X1991693D01*
X1990027Y1503624D01*
Y1500291D01*
X1991693Y1498625D01*
X1996692D01*
X1993359D02*
X1990027Y1495293D01*
X1980030Y1503624D02*
X1981696Y1505290D01*
X1985029D01*
X1986695Y1503624D01*
Y1501957D01*
X1985029Y1500291D01*
X1981696D01*
X1980030Y1498625D01*
Y1496959D01*
X1981696Y1495293D01*
X1985029D01*
X1986695Y1496959D01*
X1976698Y1505290D02*
X1970034D01*
X1973366D01*
Y1495293D01*
X1971467Y1373145D02*
X1961470Y1379810D01*
X1971467D02*
X1961470Y1373145D01*
Y1383142D02*
X1971467D01*
Y1388140D01*
X1969800Y1389807D01*
X1966468D01*
X1964802Y1388140D01*
Y1383142D01*
X1961470Y1393139D02*
Y1396471D01*
Y1394805D01*
X1971467D01*
X1969800Y1393139D01*
M02*
