G04*
G04 #@! TF.GenerationSoftware,Altium Limited,Altium Designer,20.2.7 (254)*
G04*
G04 Layer_Color=16711935*
%FSLAX25Y25*%
%MOIN*%
G70*
G04*
G04 #@! TF.SameCoordinates,A4FD2F15-25C4-4B7E-ACC4-4C6BACDD2ABF*
G04*
G04*
G04 #@! TF.FilePolarity,Negative*
G04*
G01*
G75*
%ADD63R,0.08674X0.08674*%
%ADD64C,0.08674*%
%ADD65R,0.08674X0.08674*%
%ADD66C,0.12611*%
%ADD67O,0.07099X0.03950*%
%ADD68C,0.06509*%
%ADD80R,0.12611X0.12611*%
D63*
X281811Y167717D02*
D03*
D64*
X251811D02*
D03*
X261811D02*
D03*
X271811D02*
D03*
X231811D02*
D03*
X241811D02*
D03*
X229803Y260157D02*
D03*
X219803Y260157D02*
D03*
X229803Y240158D02*
D03*
X219803D02*
D03*
X228622Y250157D02*
D03*
X218622D02*
D03*
X228622Y270158D02*
D03*
X218622Y230157D02*
D03*
X228622D02*
D03*
X219803Y220158D02*
D03*
X229803Y220158D02*
D03*
X218622Y210157D02*
D03*
X228622D02*
D03*
D65*
X218622Y270158D02*
D03*
D66*
X87795Y11024D02*
D03*
X72047D02*
D03*
D67*
X5906Y74410D02*
D03*
X5906Y101969D02*
D03*
D68*
X16535Y78347D02*
D03*
Y98032D02*
D03*
D80*
X122047Y14961D02*
D03*
X145669D02*
D03*
M02*
