G04*
G04 #@! TF.GenerationSoftware,Altium Limited,Altium Designer,20.2.7 (254)*
G04*
G04 Layer_Color=8388736*
%FSLAX25Y25*%
%MOIN*%
G70*
G04*
G04 #@! TF.SameCoordinates,A4FD2F15-25C4-4B7E-ACC4-4C6BACDD2ABF*
G04*
G04*
G04 #@! TF.FilePolarity,Negative*
G04*
G01*
G75*
%ADD39R,0.04737X0.07099*%
%ADD40R,0.05721X0.04737*%
%ADD41R,0.05524X0.07887*%
%ADD42R,0.04343X0.04737*%
%ADD43R,0.04147X0.04147*%
%ADD44R,0.03950X0.01784*%
%ADD45R,0.01784X0.03950*%
%ADD46O,0.02965X0.06706*%
%ADD47O,0.06706X0.02965*%
%ADD48R,0.20879X0.20879*%
%ADD49R,0.04343X0.03556*%
%ADD50R,0.04147X0.04147*%
%ADD51R,0.04737X0.05721*%
%ADD52R,0.02769X0.02375*%
G04:AMPARAMS|DCode=53|XSize=31.62mil|YSize=61.15mil|CornerRadius=5.77mil|HoleSize=0mil|Usage=FLASHONLY|Rotation=0.000|XOffset=0mil|YOffset=0mil|HoleType=Round|Shape=RoundedRectangle|*
%AMROUNDEDRECTD53*
21,1,0.03162,0.04961,0,0,0.0*
21,1,0.02008,0.06115,0,0,0.0*
1,1,0.01154,0.01004,-0.02480*
1,1,0.01154,-0.01004,-0.02480*
1,1,0.01154,-0.01004,0.02480*
1,1,0.01154,0.01004,0.02480*
%
%ADD53ROUNDEDRECTD53*%
%ADD54R,0.07099X0.04737*%
%ADD55R,0.04737X0.03162*%
%ADD56R,0.08280X0.07887*%
%ADD57R,0.08280X0.06706*%
%ADD58R,0.06115X0.02375*%
%ADD59R,0.08477X0.04934*%
%ADD60R,0.09461X0.04934*%
%ADD61R,0.04934X0.04737*%
%ADD62R,0.04737X0.04737*%
%ADD63R,0.08674X0.08674*%
%ADD64C,0.08674*%
%ADD65R,0.08674X0.08674*%
%ADD66C,0.12611*%
%ADD67O,0.07099X0.03950*%
%ADD68C,0.06509*%
G36*
X110665Y188476D02*
X122968D01*
Y183752D01*
X110665D01*
Y188476D01*
D02*
G37*
D39*
X243701Y179921D02*
D03*
X231890D02*
D03*
X121295Y97137D02*
D03*
X133106D02*
D03*
X83106Y27846D02*
D03*
X71295D02*
D03*
X83106Y55405D02*
D03*
X71295D02*
D03*
D40*
X219685Y180315D02*
D03*
Y172441D02*
D03*
D41*
X103972Y134145D02*
D03*
Y149893D02*
D03*
X113421D02*
D03*
Y134145D02*
D03*
D42*
X113323Y125877D02*
D03*
X108008D02*
D03*
X101673Y158268D02*
D03*
X106988D02*
D03*
D43*
X113815Y164067D02*
D03*
Y158555D02*
D03*
X151610Y174303D02*
D03*
Y179815D02*
D03*
X158697Y174303D02*
D03*
Y179815D02*
D03*
X146850Y51468D02*
D03*
Y56980D02*
D03*
X127165Y51468D02*
D03*
X127165Y56980D02*
D03*
X127165Y37795D02*
D03*
Y43307D02*
D03*
X178382Y126665D02*
D03*
Y121153D02*
D03*
X177988Y153043D02*
D03*
Y158555D02*
D03*
X185075Y152649D02*
D03*
Y147137D02*
D03*
D44*
X134090Y132767D02*
D03*
X134090Y130799D02*
D03*
Y150484D02*
D03*
Y148515D02*
D03*
Y146547D02*
D03*
Y144578D02*
D03*
Y142610D02*
D03*
X134090Y140641D02*
D03*
X134090Y138673D02*
D03*
Y136704D02*
D03*
X134090Y134736D02*
D03*
X161256Y148515D02*
D03*
Y150484D02*
D03*
Y130799D02*
D03*
Y132767D02*
D03*
Y134736D02*
D03*
Y136704D02*
D03*
Y138673D02*
D03*
Y140641D02*
D03*
Y142610D02*
D03*
Y144578D02*
D03*
Y146547D02*
D03*
D45*
X137831Y127059D02*
D03*
X139799D02*
D03*
X141768Y127059D02*
D03*
X143736Y127059D02*
D03*
X145705D02*
D03*
X147673Y127059D02*
D03*
X149642Y127059D02*
D03*
X151610D02*
D03*
X153579Y127059D02*
D03*
X137831Y154224D02*
D03*
X139799D02*
D03*
X141768Y154224D02*
D03*
X143736Y154224D02*
D03*
X145705D02*
D03*
X147673Y154224D02*
D03*
X149642Y154224D02*
D03*
X151610D02*
D03*
X153579Y154224D02*
D03*
X155547Y127059D02*
D03*
Y154224D02*
D03*
X157516Y127059D02*
D03*
X157516Y154224D02*
D03*
D46*
X163421Y163279D02*
D03*
X160272D02*
D03*
X157122D02*
D03*
X153972D02*
D03*
X150823D02*
D03*
X147673Y163279D02*
D03*
X144524Y163279D02*
D03*
X141374D02*
D03*
X138224D02*
D03*
X135075D02*
D03*
X131925D02*
D03*
X131925Y118003D02*
D03*
X135075D02*
D03*
X138224D02*
D03*
X141374Y118003D02*
D03*
X144524Y118003D02*
D03*
X147673Y118003D02*
D03*
X150823D02*
D03*
X153972D02*
D03*
X157122Y118003D02*
D03*
X160272D02*
D03*
X163421D02*
D03*
D47*
X125035Y156389D02*
D03*
Y153240D02*
D03*
Y150090D02*
D03*
Y146941D02*
D03*
Y143791D02*
D03*
Y140641D02*
D03*
Y137492D02*
D03*
Y134342D02*
D03*
Y131193D02*
D03*
Y128043D02*
D03*
Y124893D02*
D03*
X170311D02*
D03*
Y128043D02*
D03*
Y131193D02*
D03*
Y134342D02*
D03*
Y137492D02*
D03*
Y140641D02*
D03*
Y143791D02*
D03*
Y146941D02*
D03*
Y150090D02*
D03*
Y153240D02*
D03*
Y156389D02*
D03*
D48*
X147673Y140641D02*
D03*
D49*
X138976Y258268D02*
D03*
Y263779D02*
D03*
X146850Y44094D02*
D03*
Y38583D02*
D03*
D50*
X135075Y109342D02*
D03*
X129563D02*
D03*
X76807Y64066D02*
D03*
X71295D02*
D03*
X31389Y77917D02*
D03*
X36901D02*
D03*
X119327Y171153D02*
D03*
X113815D02*
D03*
Y178633D02*
D03*
X119327D02*
D03*
X192161Y147137D02*
D03*
X197673D02*
D03*
D51*
X133071Y87402D02*
D03*
X125197D02*
D03*
X41732Y255512D02*
D03*
X49606D02*
D03*
D52*
X103150Y14961D02*
D03*
X108268D02*
D03*
D53*
X71098Y46291D02*
D03*
X78579D02*
D03*
Y36960D02*
D03*
X74839D02*
D03*
X71098D02*
D03*
D54*
X49893Y81067D02*
D03*
X49893Y92878D02*
D03*
X59055Y267717D02*
D03*
Y255906D02*
D03*
D55*
X40838Y85595D02*
D03*
X40838Y89335D02*
D03*
X40838Y93075D02*
D03*
X31389D02*
D03*
X31389Y85595D02*
D03*
D56*
X5906Y75590D02*
D03*
Y100787D02*
D03*
D57*
Y84252D02*
D03*
Y92126D02*
D03*
D58*
X16437Y83071D02*
D03*
Y85630D02*
D03*
Y88189D02*
D03*
Y90748D02*
D03*
Y93307D02*
D03*
D59*
X128740Y232283D02*
D03*
Y240158D02*
D03*
Y248031D02*
D03*
Y255906D02*
D03*
Y263779D02*
D03*
Y271654D02*
D03*
Y279527D02*
D03*
Y287402D02*
D03*
X70472D02*
D03*
Y279527D02*
D03*
Y271654D02*
D03*
Y263779D02*
D03*
Y255906D02*
D03*
Y248031D02*
D03*
Y240158D02*
D03*
Y232283D02*
D03*
D60*
X54724Y293307D02*
D03*
Y281693D02*
D03*
D61*
X60728Y287500D02*
D03*
D62*
X120114Y186114D02*
D03*
X113028D02*
D03*
D63*
X281811Y167717D02*
D03*
D64*
X251811D02*
D03*
X261811D02*
D03*
X271811D02*
D03*
X231811D02*
D03*
X241811D02*
D03*
X229803Y260157D02*
D03*
X219803Y260157D02*
D03*
X229803Y240158D02*
D03*
X219803D02*
D03*
X228622Y250157D02*
D03*
X218622D02*
D03*
X228622Y270158D02*
D03*
X218622Y230157D02*
D03*
X228622D02*
D03*
X219803Y220158D02*
D03*
X229803Y220158D02*
D03*
X218622Y210157D02*
D03*
X228622D02*
D03*
D65*
X218622Y270158D02*
D03*
D66*
X87795Y11024D02*
D03*
X72047D02*
D03*
D67*
X5906Y74410D02*
D03*
X5906Y101969D02*
D03*
D68*
X16535Y78347D02*
D03*
Y98032D02*
D03*
M02*
