M48
;Layer_Color=9474304
;FILE_FORMAT=2:5
INCH,LZ
;TYPE=PLATED
T1F00S00C0.01575
T3F00S00C0.03346
T4F00S00C0.04331
T5F00S00C0.07874
%
T01
X0162634Y0010523
X0172476
X0182319
X0192161
X0202004
X0211846
X0221689
X0231531
X0241374
X0251217
X0261059
X026598Y0020366
X0256138
X0246295
X0236453
X022661
X0216768
X0206925
X0197083
X018724
X0177398
X0167555
X0157712
X0162634Y0030208
X0172476
X0182319
X0192161
X0202004
X0211846
X0221689
X0231531
X0241374
X0251217
X0261059
X0270901
X0280744
X0285665Y0040051
X0275823
X026598
X0256138
X0246295
X0236453
X022661
X0216768
X0206925
X0197083
X018724
X0177398
X0167555
X0157712
X0162634Y0049893
X0172476
X0182319
X0192161
X0202004
X0211846
X0221689
X0231531
X0241374
X0251217
X0261059
X0270901
X0280744
X0285665Y0059736
X0275823
X026598
X0256138
X0246295
X0236453
X022661
X0216768
X0206925
X0197083
X018724
X0177398
X0167555
X0157712
X014685Y0062992
X0162634Y0069578
X0172476
X0182319
X0192161
X0202004
X0211846
X0221689
X0231531
X0241374
X0251217
X0261059
X0270901
X0280744
X0285665Y0079421
X0275823
X026598
X0256138
X0246295
X0236453
X022661
X0216768
X0206925
X0197083
X018724
X0177398
X0167555
X0157712
X0162634Y0089263
X0160236Y0095276
Y0108268
X014787Y0099106
X0138976Y0097244
X0140157Y0087402
X0172476Y0089263
X0182319
X0192161
X0202004
X0211846
X0221689
X0231531
X0241374
X0251217
X0261059
X0270901
X0280744
X0285665Y0099106
X0275823
X026598
X0256138
X0246295
X0236453
X022661
X0216768
X0206925
Y0118791
X0199606Y0119685
X0194882Y0120079
X0190945
X0183465Y0120866
X0202004Y0128633
X0211846
X0246295Y0118791
X0256138
X026598
X0275823
X0285665
X0280744Y0128633
X0270901
X0261059
Y0108948
X0270901
X0280744
X0251217
X0241374
X0285665Y0020366
X0152791Y0030208
X0142949
X0138028Y0040051
X0133106Y0049893
X0127165Y0062992
X0123264Y0069578
X0133106
X0124803Y0080709
X0118342Y0079421
X01085
X0098657
X009685Y0070079
X0098657Y0059736
X01085
X0118342
X0113421Y0049893
X0103579
X01085Y0040051
X0098657
X0096457Y0033071
X0098657Y0020366
X01085
X0112992Y0014961
X0113421Y0010523
X0103579
X0133106
Y0030208
X012126Y0025197
X0078972Y0020366
X0059287
X0049445
X0039602
X0044524Y0030208
X0054366
X0064209
X0059287Y0040051
X0049445
X0039602
X002976
X0019917
X0024838Y0049893
X0034681
X0044524
X0054366
X0064209
X0059287Y0059736
X0049445
X0039602
X002976
X0019917
X0010075
X0014996Y0069578
X0024838
X0034681
X0044524
X0054366
X0064209
X007126Y0070079
X0085827Y0064567
X0093736Y0089263
X0103579
X0113421
X01085Y0099106
X0098657
X0088815
X0078972
X0083894Y0108948
X0093736
X0103579
X0109449Y0120472
X0113779Y0116535
X0116929Y0113386
X0120866Y0109843
X0128185Y0099106
X0088815Y0118791
X0078972
X006913
X0074051Y0128633
X0083894
X0074051Y0108948
X0054366
Y0128633
X0034681
X0024838
X0014996
X0019917Y0118791
X002976
X0039602
X0034681Y0108948
X0024838
X0014996
X0005153
X0010075Y0118791
X0024803Y0091732
X0023622Y0086614
X0034681Y0089263
X0064209
X0059287Y0079421
X0054366Y0010523
X0044524
X0034681Y0030208
X0024838
X0019917Y0020366
X0014996Y0049893
X0019917Y0138476
X002976
X0034681Y0148319
X0024838
X002976Y0158161
X0019917
X0024838Y0168003
X0034681
X002976Y0177846
X0019917
X0024838Y0187689
X0034681
X002976Y0197531
X0019917
X0024838Y0207374
X0034681
X002976Y0217216
X0019917
X0024838Y0227059
X0034681
X002976Y0236901
X0019917
X0024838Y0246744
X0034681
X002976Y0256586
X0019917
X0024838Y0266429
X0034681
X0044524
X0049445Y0276271
X0059287
X0039602
X002976
X0019917
X0044524Y0286114
X0054366Y0246744
X0059055Y0250787
X0062992Y0247835
X0059287Y0236901
X0049445
X0054366Y0227059
X0064209
X006913Y0217216
X0078972
X0088815
X0098657
X01085
X0118342
X0128185
X0133106Y0227059
X0123264Y0207374
X0113421
X0103579
X0093736
X0083894
X0074051
X0064209
X0054366
X0059287Y0217216
X0049445
Y0197531
X0059287
X006913
X0078972
X0088815
X0098657
X01085
X0118342
X0128185
X0127953Y019252
X0103579Y0187689
X0093736
X0083894
X0074051
X0064209
X0054366
X0059287Y0177846
X006913
X0078972
X0088815
X0098657
X0093736Y0168003
X0083894
X0074051
X0064209
X0054366
X0059287Y0158161
X006913
X0078972
X0074051Y0148319
X0064209
X0054366
X0059287Y0138476
X0049445
Y0158161
Y0177846
X0106299Y0163747
X0098657Y0138476
X0088815
X0148819Y0185433
X0152362Y0188976
X0141732Y0195669
X0152791Y0207374
X0172476
X0182319
X0192161
X0202004
X0211846
X0206925Y0217216
X0197083
X018724
X0177398
X0182319Y0227059
X0192161
X0202004
X0211846
Y0246744
X0199606Y0253543
X0202004Y0266429
X0192161
X0182319
X0172476
X0162634
X0161024Y0257087
X0165354
X0177398Y0256586
X018724
Y0276271
X0197083
X0206925
X0211846Y0286114
X0221689
X0231531
X0241374
X0251217
X0261059
X026598Y0276271
X0275823
X0285665
X0280744Y0266429
X0270901
X0261059
X0251217
X0256138Y0276271
X0246295
X0236453
X022661
X0202004Y0286114
X0192161
X0182319
X0172476
X0162634
X0152791
X0142949
X014787Y0276271
X0157712
X0167555
X0177398
Y0236901
X018724
X0197083
X0172476Y0227059
X0152362Y0234252
X0148031Y0233858
Y0248031
X0152362Y0253543
X0144095Y0257874
X0138028Y0276271
X0177398Y0197531
X018724
X0197083
X0192161Y0187689
X0182319
X018724Y0177846
X0197083
X0192161Y0168003
X0198031Y0163779
X0197083Y0158161
X0198031Y0151969
X018724Y0158161
X0177953Y0163779
X0172476Y0168003
X0167555Y0177846
X0211417Y0164173
X0211846Y0148319
X0231531
X0241374
X0246295Y0158161
X0236453
X022661
Y0138476
X026598
X0275823
X0285665
X0280744Y0148319
X0285665Y0158161
Y0177846
X0275823
X026598
X0256138
X0261059Y0187689
X0270901
X0280744
X0285665Y0197531
X0275823
X026598
X0256138
X0246295
X0251217Y0207374
X0261059
X0270901
X0280744
X0285665Y0217216
X0275823
X026598
X0256138
X0246295
X0251217Y0227059
X0261059
X0270901
X0280744
X0285665Y0236901
X0275823
X026598
X0256138
X0246295
X0251217Y0246744
X0261059
X0270901
X0280744
X0285665Y0256586
X0275823
X026598
X0256138
X0246295
X0251217Y0187689
X0241374
X0231531
X0221689
X0236453Y0177846
T03
X0016535Y0078347
Y0098032
T04
X0231811Y0167717
X0241811
X0251811
X0261811
X0271811
X0281811
X0228622Y0210157
X0218622
X0219803Y0220158
X0229803Y0220158
X0228622Y0230157
X0218622
X0219803Y0240158
X0229803
X0228622Y0250157
X0218622
X0219803Y0260157
X0229803Y0260157
X0228622Y0270158
X0218622
T05
X0072047Y0011024
X0087795
M30
