G04*
G04 #@! TF.GenerationSoftware,Altium Limited,Altium Designer,20.2.7 (254)*
G04*
G04 Layer_Color=16711935*
%FSLAX25Y25*%
%MOIN*%
G70*
G04*
G04 #@! TF.SameCoordinates,A4FD2F15-25C4-4B7E-ACC4-4C6BACDD2ABF*
G04*
G04*
G04 #@! TF.FilePolarity,Positive*
G04*
G01*
G75*
%ADD13C,0.00787*%
D13*
X33402Y12797D02*
G03*
X33402Y12797I-5610J0D01*
G01*
X283399Y288390D02*
G03*
X283399Y288390I-5610J0D01*
G01*
X14996Y28927D02*
G03*
X14549Y34838I-39548J-17D01*
G01*
D02*
G03*
X14244Y36584I-38849J-5887D01*
G01*
X14244D02*
G03*
X14070Y37414I-37817J-7492D01*
G01*
X14070D02*
G03*
X13840Y38395I-38023J-8406D01*
G01*
X13840D02*
G03*
X13516Y39615I-38179J-9484D01*
G01*
X13516D02*
G03*
X11906Y44213I-38403J-10864D01*
G01*
X11906D02*
G03*
X11023Y46166I-36652J-15399D01*
G01*
X11023D02*
G03*
X10448Y47304I-35389J-17168D01*
G01*
D02*
G03*
X9967Y48190I-34458J-18121D01*
G01*
X9967D02*
G03*
X9532Y48948I-33631J-18813D01*
G01*
X9532Y48948D02*
G03*
X9107Y49651I-33180J-19563D01*
G01*
X9107D02*
G03*
X8573Y50490I-33081J-20468D01*
G01*
X8573D02*
G03*
X7865Y51535I-32879J-21525D01*
G01*
D02*
G03*
X4765Y55414I-32642J-22908D01*
G01*
D02*
G03*
X3312Y56934I-29424J-26674D01*
G01*
X3312Y56934D02*
G03*
X2402Y57809I-27674J-27896D01*
G01*
Y57809D02*
G03*
X1655Y58486I-26491J-28478D01*
G01*
D02*
G03*
X993Y59057I-25480J-28857D01*
G01*
X-64Y118112D02*
G03*
X993Y59057I3461269J32382D01*
G01*
X0Y118162D02*
G03*
X5467Y123403I-24503J31028D01*
G01*
Y123403D02*
G03*
X6356Y124475I-29637J25499D01*
G01*
X6414Y124548D02*
G03*
X6943Y125227I-30161J24013D01*
G01*
D02*
G03*
X7543Y126038I-31001J23569D01*
G01*
X7543Y126038D02*
G03*
X8272Y127086I-31922J22989D01*
G01*
X8272Y127086D02*
G03*
X10629Y131077I-33113J22246D01*
G01*
D02*
G03*
X11602Y133107I-35350J18197D01*
G01*
X11602D02*
G03*
X12107Y134293I-35935J15994D01*
G01*
D02*
G03*
X12475Y135233I-36070J14656D01*
G01*
Y135233D02*
G03*
X12774Y136055I-36068J13578D01*
G01*
X12791Y136105D02*
G03*
X13066Y136921I-36408J12712D01*
G01*
D02*
G03*
X13365Y137884I-37055J12016D01*
G01*
D02*
G03*
X13707Y139114I-37734J11165D01*
G01*
X13707D02*
G03*
X14624Y143725I-38620J10072D01*
G01*
Y143725D02*
G03*
X14866Y145936I-39399J5446D01*
G01*
X14866D02*
G03*
X14950Y147223I-39217J3199D01*
G01*
X14950D02*
G03*
X14986Y148231I-38901J1892D01*
G01*
X14986D02*
G03*
X14996Y149106I-38542J875D01*
G01*
X26807Y301185D02*
G03*
X14996Y289374I0J-11811D01*
G01*
X290584D02*
G03*
X278773Y301185I-11811J0D01*
G01*
Y1D02*
G03*
X290584Y11812I0J11811D01*
G01*
X14996D02*
G03*
X26807Y1I11811J0D01*
G01*
X33399Y288387D02*
G03*
X33399Y288387I-5610J0D01*
G01*
X283401Y12799D02*
G03*
X283401Y12799I-5610J0D01*
G01*
X14996Y28919D02*
Y28927D01*
X-64Y118112D02*
X0Y118162D01*
X6356Y124475D02*
X6414Y124548D01*
X12774Y136055D02*
X12791Y136105D01*
X14996Y149106D02*
Y289374D01*
X26807Y301185D02*
X278773D01*
X290584Y11812D02*
Y289374D01*
X26807Y1D02*
X278773Y1D01*
X14996Y11812D02*
Y28919D01*
M02*
