G04*
G04 #@! TF.GenerationSoftware,Altium Limited,Altium Designer,20.2.7 (254)*
G04*
G04 Layer_Color=128*
%FSLAX25Y25*%
%MOIN*%
G70*
G04*
G04 #@! TF.SameCoordinates,AC8EE5C5-F73A-413B-8336-6D520369465E*
G04*
G04*
G04 #@! TF.FilePolarity,Positive*
G04*
G01*
G75*
%ADD16R,0.10492X0.16496*%
%ADD20R,0.03347X0.03347*%
%ADD21R,0.03347X0.03347*%
%ADD23R,0.03937X0.04134*%
%ADD69R,0.03937X0.06299*%
%ADD70R,0.04921X0.03937*%
%ADD71R,0.06299X0.03937*%
%ADD72R,0.03937X0.04921*%
%ADD73O,0.01378X0.04724*%
G04:AMPARAMS|DCode=74|XSize=108.27mil|YSize=216.54mil|CornerRadius=5.41mil|HoleSize=0mil|Usage=FLASHONLY|Rotation=90.000|XOffset=0mil|YOffset=0mil|HoleType=Round|Shape=RoundedRectangle|*
%AMROUNDEDRECTD74*
21,1,0.10827,0.20571,0,0,90.0*
21,1,0.09744,0.21654,0,0,90.0*
1,1,0.01083,0.10285,0.04872*
1,1,0.01083,0.10285,-0.04872*
1,1,0.01083,-0.10285,-0.04872*
1,1,0.01083,-0.10285,0.04872*
%
%ADD74ROUNDEDRECTD74*%
%ADD75R,0.03543X0.02756*%
%ADD76R,0.03150X0.00984*%
%ADD77R,0.00984X0.03150*%
%ADD78O,0.02165X0.05906*%
%ADD79O,0.05906X0.02165*%
%ADD80R,0.20079X0.20079*%
%ADD81R,0.03543X0.03937*%
%ADD82R,0.04724X0.07087*%
G04:AMPARAMS|DCode=83|XSize=61.02mil|YSize=23.62mil|CornerRadius=11.81mil|HoleSize=0mil|Usage=FLASHONLY|Rotation=270.000|XOffset=0mil|YOffset=0mil|HoleType=Round|Shape=RoundedRectangle|*
%AMROUNDEDRECTD83*
21,1,0.06102,0.00000,0,0,270.0*
21,1,0.03740,0.02362,0,0,270.0*
1,1,0.02362,0.00000,-0.01870*
1,1,0.02362,0.00000,0.01870*
1,1,0.02362,0.00000,0.01870*
1,1,0.02362,0.00000,-0.01870*
%
%ADD83ROUNDEDRECTD83*%
%ADD84R,0.04331X0.07087*%
D16*
X237825Y364173D02*
D03*
X265325D02*
D03*
X8100D02*
D03*
X35600D02*
D03*
D20*
X164173Y147244D02*
D03*
X158661D02*
D03*
X107480Y184646D02*
D03*
X112992D02*
D03*
X103543Y122441D02*
D03*
X98032D02*
D03*
X92126Y115354D02*
D03*
X97638D02*
D03*
X84646Y129134D02*
D03*
X90158D02*
D03*
D21*
X61417Y95276D02*
D03*
Y100787D02*
D03*
X75689Y95177D02*
D03*
Y100689D02*
D03*
X68602D02*
D03*
Y95177D02*
D03*
X157087Y140157D02*
D03*
Y134646D02*
D03*
X164173Y140157D02*
D03*
Y134646D02*
D03*
X157874Y166929D02*
D03*
Y172441D02*
D03*
X146457Y190945D02*
D03*
Y185433D02*
D03*
X61024Y221654D02*
D03*
Y216142D02*
D03*
X85433Y213779D02*
D03*
Y219291D02*
D03*
D23*
X63779Y175591D02*
D03*
X70866D02*
D03*
D69*
X98425Y99606D02*
D03*
X110236D02*
D03*
X224803Y332677D02*
D03*
X236614D02*
D03*
D70*
X98819Y90552D02*
D03*
Y82678D02*
D03*
D71*
X98819Y74803D02*
D03*
Y62992D02*
D03*
X88583Y74803D02*
D03*
Y62992D02*
D03*
X78347Y74803D02*
D03*
Y62992D02*
D03*
X35039Y75590D02*
D03*
Y63779D02*
D03*
D72*
X53937Y96457D02*
D03*
X46063D02*
D03*
X48922Y54040D02*
D03*
X56796D02*
D03*
X217322Y322047D02*
D03*
X225196D02*
D03*
D73*
X45177Y87795D02*
D03*
X47736D02*
D03*
X50295D02*
D03*
X52854D02*
D03*
X55413D02*
D03*
X57972D02*
D03*
X60532D02*
D03*
X63090D02*
D03*
X65650D02*
D03*
X68209D02*
D03*
X45177Y63386D02*
D03*
X47736D02*
D03*
X50295D02*
D03*
X52854D02*
D03*
X55413D02*
D03*
X57972D02*
D03*
X60532Y63386D02*
D03*
X63090Y63386D02*
D03*
X65650Y63386D02*
D03*
X68209Y63386D02*
D03*
D74*
X56693Y75590D02*
D03*
D75*
X138189Y190551D02*
D03*
Y185039D02*
D03*
D76*
X112008Y161417D02*
D03*
Y163386D02*
D03*
Y143701D02*
D03*
Y145669D02*
D03*
Y147638D02*
D03*
Y149606D02*
D03*
Y151575D02*
D03*
Y153543D02*
D03*
Y155512D02*
D03*
Y157480D02*
D03*
Y159449D02*
D03*
X139173Y145669D02*
D03*
Y143701D02*
D03*
Y163386D02*
D03*
Y161417D02*
D03*
Y159449D02*
D03*
Y157480D02*
D03*
Y155512D02*
D03*
Y153543D02*
D03*
Y151575D02*
D03*
Y149606D02*
D03*
Y147638D02*
D03*
D77*
X115748Y167126D02*
D03*
X117717D02*
D03*
X119685D02*
D03*
X121653D02*
D03*
X123622D02*
D03*
X125591D02*
D03*
X127559D02*
D03*
X129528D02*
D03*
X131496D02*
D03*
X115748Y139961D02*
D03*
X117717D02*
D03*
X119685D02*
D03*
X121653D02*
D03*
X123622D02*
D03*
X125591D02*
D03*
X127559D02*
D03*
X129528D02*
D03*
X131496D02*
D03*
X133465Y167126D02*
D03*
Y139961D02*
D03*
X135433Y167126D02*
D03*
X135433Y139961D02*
D03*
D78*
X141339Y130905D02*
D03*
X138189D02*
D03*
X135039D02*
D03*
X131890D02*
D03*
X128740D02*
D03*
X125591D02*
D03*
X122441D02*
D03*
X119291D02*
D03*
X116142D02*
D03*
X112992D02*
D03*
X109843D02*
D03*
Y176181D02*
D03*
X112992D02*
D03*
X116142D02*
D03*
X119291D02*
D03*
X122441D02*
D03*
X125591D02*
D03*
X128740D02*
D03*
X131890D02*
D03*
X135039D02*
D03*
X138189D02*
D03*
X141339D02*
D03*
D79*
X102953Y137795D02*
D03*
Y140945D02*
D03*
Y144095D02*
D03*
Y147244D02*
D03*
Y150394D02*
D03*
Y153543D02*
D03*
Y156693D02*
D03*
Y159843D02*
D03*
Y162992D02*
D03*
Y166142D02*
D03*
Y169291D02*
D03*
X148228D02*
D03*
Y166142D02*
D03*
Y162992D02*
D03*
Y159843D02*
D03*
Y156693D02*
D03*
Y153543D02*
D03*
Y150394D02*
D03*
Y147244D02*
D03*
Y144095D02*
D03*
Y140945D02*
D03*
Y137795D02*
D03*
D80*
X125591Y153543D02*
D03*
D81*
X78051Y136221D02*
D03*
X83366D02*
D03*
X89272Y168898D02*
D03*
X83957D02*
D03*
D82*
X79528Y160630D02*
D03*
Y144882D02*
D03*
X88976D02*
D03*
Y160630D02*
D03*
D83*
X70846Y183858D02*
D03*
X75846D02*
D03*
X80847D02*
D03*
X85847D02*
D03*
Y205118D02*
D03*
X80847D02*
D03*
X75846D02*
D03*
X70846D02*
D03*
D84*
X68306Y216142D02*
D03*
X78149D02*
D03*
M02*
