G04*
G04 #@! TF.GenerationSoftware,Altium Limited,Altium Designer,20.2.7 (254)*
G04*
G04 Layer_Color=8388736*
%FSLAX25Y25*%
%MOIN*%
G70*
G04*
G04 #@! TF.SameCoordinates,3C655C0F-1CA1-4DFD-99B7-6FB2F92942BB*
G04*
G04*
G04 #@! TF.FilePolarity,Negative*
G04*
G01*
G75*
%ADD28R,0.03347X0.04134*%
%ADD29R,0.07598X0.17087*%
%ADD30R,0.11083X0.17087*%
%ADD31R,0.04528X0.04724*%
%ADD32R,0.04724X0.09252*%
%ADD33R,0.10827X0.14606*%
%ADD34R,0.03937X0.03937*%
%ADD35R,0.03937X0.03937*%
%ADD36R,0.05315X0.06102*%
%ADD37R,0.04528X0.04724*%
%ADD38R,0.03347X0.07677*%
%ADD39R,0.03740X0.07677*%
%ADD40R,0.02165X0.03347*%
%ADD41R,0.04724X0.08268*%
%ADD42C,0.07874*%
%ADD43C,0.10335*%
%ADD44R,0.10335X0.10335*%
%ADD45C,0.10433*%
%ADD46C,0.13583*%
%ADD47C,0.13189*%
%ADD48C,0.12402*%
%ADD49C,0.08465*%
%ADD50R,0.08465X0.08465*%
D28*
X232677Y264567D02*
D03*
X238189D02*
D03*
D29*
X251575Y364173D02*
D03*
X21850D02*
D03*
D30*
X237825D02*
D03*
X265325D02*
D03*
X8100D02*
D03*
X35600D02*
D03*
D31*
X54528Y358415D02*
D03*
D32*
X48720Y364419D02*
D03*
X60335D02*
D03*
D33*
X56890Y308661D02*
D03*
X172244D02*
D03*
D34*
X35039Y342126D02*
D03*
X29527D02*
D03*
D35*
X22343Y344882D02*
D03*
Y339370D02*
D03*
X15256Y344882D02*
D03*
Y339370D02*
D03*
D36*
X35630Y276772D02*
D03*
X28937D02*
D03*
D37*
X28346Y284646D02*
D03*
X35433D02*
D03*
D38*
X5118Y293504D02*
D03*
X39764D02*
D03*
Y330906D02*
D03*
X5118D02*
D03*
D39*
X9449Y293504D02*
D03*
X13780D02*
D03*
X18110D02*
D03*
X22441D02*
D03*
X26772D02*
D03*
X31102D02*
D03*
X35433D02*
D03*
Y330906D02*
D03*
X31102D02*
D03*
X26772D02*
D03*
X22441D02*
D03*
X18110D02*
D03*
X13780D02*
D03*
X9449D02*
D03*
D40*
X253543Y244882D02*
D03*
X250787D02*
D03*
D41*
X201181Y274410D02*
D03*
X209055D02*
D03*
X216929D02*
D03*
X224803D02*
D03*
X232677D02*
D03*
X240551D02*
D03*
X248425D02*
D03*
X256299D02*
D03*
Y332677D02*
D03*
X248425D02*
D03*
X240551D02*
D03*
X232677D02*
D03*
X224803D02*
D03*
X216929D02*
D03*
X209055D02*
D03*
X201181D02*
D03*
D42*
X266142Y186221D02*
D03*
X75408Y360025D02*
D03*
X260447Y14384D02*
D03*
D43*
X266457Y224803D02*
D03*
D44*
X250866D02*
D03*
D45*
X10630Y227165D02*
D03*
X227953D02*
D03*
Y38189D02*
D03*
X10630Y101181D02*
D03*
Y164173D02*
D03*
Y38189D02*
D03*
X227953Y164173D02*
D03*
Y101181D02*
D03*
X222205Y366693D02*
D03*
Y346693D02*
D03*
X202205D02*
D03*
Y366693D02*
D03*
D46*
X39173Y38189D02*
D03*
X199409D02*
D03*
X39173Y227165D02*
D03*
D47*
X199409D02*
D03*
D48*
X212205Y356693D02*
D03*
D49*
X264055Y132283D02*
D03*
X254055D02*
D03*
X264055Y142283D02*
D03*
X254055D02*
D03*
X264055Y152284D02*
D03*
X254055D02*
D03*
X264055Y162284D02*
D03*
X254055Y122283D02*
D03*
X264055D02*
D03*
X254055Y112284D02*
D03*
X264055D02*
D03*
X254055Y102284D02*
D03*
X264055D02*
D03*
D50*
X254055Y162284D02*
D03*
M02*
