G04*
G04 #@! TF.GenerationSoftware,Altium Limited,Altium Designer,20.2.7 (254)*
G04*
G04 Layer_Physical_Order=1*
G04 Layer_Color=255*
%FSLAX25Y25*%
%MOIN*%
G70*
G04*
G04 #@! TF.SameCoordinates,AC8EE5C5-F73A-413B-8336-6D520369465E*
G04*
G04*
G04 #@! TF.FilePolarity,Positive*
G04*
G01*
G75*
%ADD11C,0.00787*%
%ADD14R,0.02756X0.03543*%
%ADD15R,0.07008X0.16496*%
%ADD16R,0.10492X0.16496*%
%ADD17R,0.03937X0.04134*%
%ADD18R,0.04134X0.08661*%
%ADD19R,0.10236X0.14016*%
%ADD20R,0.03347X0.03347*%
%ADD21R,0.03347X0.03347*%
%ADD22R,0.04724X0.05512*%
%ADD23R,0.03937X0.04134*%
%ADD24R,0.02756X0.07087*%
%ADD25R,0.03150X0.07087*%
%ADD26R,0.01575X0.02756*%
%ADD27R,0.04134X0.07677*%
%ADD51C,0.03937*%
%ADD52C,0.02756*%
%ADD53C,0.01181*%
%ADD54C,0.01968*%
%ADD55C,0.00984*%
%ADD56C,0.03937*%
%ADD57C,0.03150*%
%ADD58R,0.01811X0.11752*%
%ADD59C,0.09744*%
%ADD60R,0.09744X0.09744*%
%ADD61C,0.09843*%
%ADD62C,0.12992*%
%ADD63C,0.12598*%
%ADD64C,0.11811*%
%ADD65C,0.07874*%
%ADD66R,0.07874X0.07874*%
%ADD67C,0.03150*%
%ADD68C,0.02756*%
G36*
X56299Y356341D02*
X56134Y356282D01*
X55988Y356183D01*
X55862Y356045D01*
X55755Y355868D01*
X55667Y355652D01*
X55599Y355396D01*
X55551Y355101D01*
X55522Y354766D01*
X55512Y354392D01*
X53543D01*
X53534Y354766D01*
X53504Y355101D01*
X53456Y355396D01*
X53388Y355652D01*
X53300Y355868D01*
X53193Y356045D01*
X53067Y356183D01*
X52921Y356282D01*
X52756Y356341D01*
X52571Y356360D01*
X56484D01*
X56299Y356341D01*
D02*
G37*
G36*
X253356Y355918D02*
X253189Y355858D01*
X253041Y355760D01*
X252913Y355622D01*
X252805Y355445D01*
X252716Y355228D01*
X252648Y354973D01*
X252598Y354677D01*
X252569Y354343D01*
X252559Y353969D01*
X250591D01*
X250581Y354343D01*
X250551Y354677D01*
X250502Y354973D01*
X250433Y355228D01*
X250344Y355445D01*
X250236Y355622D01*
X250108Y355760D01*
X249961Y355858D01*
X249793Y355918D01*
X249606Y355937D01*
X253543D01*
X253356Y355918D01*
D02*
G37*
G36*
X23632D02*
X23465Y355858D01*
X23317Y355760D01*
X23189Y355622D01*
X23081Y355445D01*
X22992Y355228D01*
X22923Y354973D01*
X22874Y354677D01*
X22844Y354343D01*
X22835Y353969D01*
X20866D01*
X20856Y354343D01*
X20827Y354677D01*
X20778Y354973D01*
X20709Y355228D01*
X20620Y355445D01*
X20512Y355622D01*
X20384Y355760D01*
X20236Y355858D01*
X20069Y355918D01*
X19882Y355937D01*
X23819D01*
X23632Y355918D01*
D02*
G37*
G36*
X273985Y173328D02*
X273485Y173081D01*
X273349Y173185D01*
X272679Y173463D01*
X271959Y173558D01*
X271240Y173463D01*
X270569Y173185D01*
X269994Y172744D01*
X269552Y172168D01*
X269274Y171497D01*
X269180Y170778D01*
X269274Y170059D01*
X269552Y169388D01*
X269994Y168813D01*
X270153Y168690D01*
Y155385D01*
X269082Y154314D01*
X268496Y154422D01*
X268354Y154765D01*
X267565Y155793D01*
X266537Y156582D01*
X265463Y157027D01*
X265463Y157027D01*
Y157539D01*
X265463Y157540D01*
X266537Y157985D01*
X267565Y158774D01*
X268354Y159802D01*
X268850Y160999D01*
X269019Y162284D01*
X268850Y163568D01*
X268354Y164765D01*
X267565Y165793D01*
X266537Y166582D01*
X266332Y166667D01*
Y173349D01*
X266531Y173609D01*
X266809Y174279D01*
X266904Y174999D01*
X266809Y175718D01*
X266531Y176389D01*
X266090Y176964D01*
X265514Y177406D01*
X264844Y177684D01*
X264124Y177778D01*
X263405Y177684D01*
X262734Y177406D01*
X262158Y176964D01*
X261717Y176389D01*
X261439Y175718D01*
X261344Y174999D01*
X261439Y174279D01*
X261717Y173609D01*
X261916Y173349D01*
Y166724D01*
X261573Y166582D01*
X260545Y165793D01*
X259756Y164765D01*
X259476Y164089D01*
X258976Y164189D01*
Y167205D01*
X249134D01*
Y164090D01*
X248110D01*
X247419Y163952D01*
X246833Y163561D01*
X244392Y161120D01*
X244000Y160534D01*
X243863Y159843D01*
Y150355D01*
X235631Y142123D01*
X235433Y142149D01*
X234713Y142055D01*
X234043Y141777D01*
X233467Y141335D01*
X233466Y141334D01*
X232902Y141306D01*
X227397Y146811D01*
Y153150D01*
X227259Y153841D01*
X226868Y154427D01*
X223718Y157577D01*
X223132Y157968D01*
X222441Y158106D01*
X219804D01*
X219682Y158265D01*
X219106Y158706D01*
X218436Y158984D01*
X217717Y159079D01*
X216997Y158984D01*
X216327Y158706D01*
X215751Y158265D01*
X215309Y157689D01*
X215032Y157019D01*
X214937Y156299D01*
X215001Y155814D01*
X214648Y155417D01*
X214571Y155385D01*
X214173Y155437D01*
X213454Y155343D01*
X212783Y155065D01*
X212208Y154623D01*
X211766Y154048D01*
X211488Y153377D01*
X211394Y152658D01*
X211488Y151938D01*
X211766Y151268D01*
X212208Y150692D01*
X212367Y150570D01*
Y144488D01*
X212504Y143796D01*
X212896Y143210D01*
X229136Y126970D01*
X229110Y126771D01*
X229204Y126052D01*
X229482Y125382D01*
X229924Y124806D01*
X230500Y124364D01*
X231170Y124086D01*
X231889Y123992D01*
X232609Y124086D01*
X233279Y124364D01*
X233855Y124806D01*
X233977Y124965D01*
X243831D01*
X247790Y121006D01*
X248376Y120615D01*
X249067Y120477D01*
X249477D01*
X249756Y119802D01*
X250545Y118774D01*
X251573Y117985D01*
X252770Y117489D01*
X253169Y117436D01*
Y116932D01*
X252822Y116886D01*
X251673Y116410D01*
X250686Y115653D01*
X249928Y114666D01*
X249452Y113517D01*
X249419Y113268D01*
X254055D01*
Y111299D01*
X249419D01*
X249452Y111050D01*
X249928Y109901D01*
X250686Y108914D01*
X251673Y108157D01*
X252822Y107681D01*
X253169Y107635D01*
Y107131D01*
X252770Y107078D01*
X251573Y106582D01*
X250545Y105793D01*
X249756Y104765D01*
X249260Y103568D01*
X249091Y102284D01*
X249260Y100999D01*
X249756Y99802D01*
X250545Y98774D01*
X251573Y97985D01*
X252770Y97489D01*
X254055Y97320D01*
X255340Y97489D01*
X256537Y97985D01*
X257565Y98774D01*
X258354Y99802D01*
X258799Y100875D01*
X258799Y100875D01*
X259311D01*
X259312Y100875D01*
X259756Y99802D01*
X260545Y98774D01*
X261573Y97985D01*
X262249Y97705D01*
Y97087D01*
X261850Y96688D01*
X249567D01*
X246294Y99961D01*
Y103424D01*
X246454Y103546D01*
X246896Y104122D01*
X247173Y104792D01*
X247268Y105512D01*
X247173Y106231D01*
X246896Y106902D01*
X246454Y107477D01*
X245878Y107919D01*
X245208Y108197D01*
X244488Y108291D01*
X243769Y108197D01*
X243098Y107919D01*
X242523Y107477D01*
X242081Y106902D01*
X241803Y106231D01*
X241708Y105512D01*
X241803Y104792D01*
X242081Y104122D01*
X242523Y103546D01*
X242682Y103424D01*
Y99213D01*
X242819Y98521D01*
X243211Y97935D01*
X247542Y93605D01*
X248128Y93213D01*
X248819Y93076D01*
X262598D01*
X263290Y93213D01*
X263876Y93605D01*
X265332Y95061D01*
X265724Y95647D01*
X265862Y96339D01*
Y97705D01*
X266537Y97985D01*
X267565Y98774D01*
X268354Y99802D01*
X268850Y100999D01*
X269019Y102284D01*
X268850Y103568D01*
X268354Y104765D01*
X267565Y105793D01*
X266537Y106582D01*
X265340Y107078D01*
X264941Y107131D01*
Y107635D01*
X265288Y107681D01*
X266438Y108157D01*
X267425Y108914D01*
X268182Y109901D01*
X268658Y111050D01*
X268691Y111299D01*
X264055D01*
Y113268D01*
X268691D01*
X268658Y113517D01*
X268182Y114666D01*
X267425Y115653D01*
X266438Y116410D01*
X265288Y116886D01*
X264187Y117031D01*
Y117536D01*
X265288Y117681D01*
X266438Y118157D01*
X267425Y118914D01*
X268182Y119901D01*
X268658Y121050D01*
X268691Y121299D01*
X264055D01*
Y123268D01*
X268691D01*
X268658Y123517D01*
X268182Y124666D01*
X267425Y125653D01*
X266438Y126410D01*
X265288Y126886D01*
X264187Y127031D01*
Y127536D01*
X265288Y127681D01*
X266438Y128157D01*
X267425Y128914D01*
X268182Y129901D01*
X268658Y131050D01*
X268691Y131299D01*
X264055D01*
Y133268D01*
X268691D01*
X268658Y133517D01*
X268182Y134666D01*
X267425Y135653D01*
X266438Y136410D01*
X265288Y136886D01*
X264941Y136932D01*
Y137436D01*
X265340Y137489D01*
X266537Y137985D01*
X267565Y138774D01*
X268354Y139802D01*
X268850Y140999D01*
X269019Y142283D01*
X268850Y143568D01*
X268354Y144765D01*
X267565Y145793D01*
X266537Y146582D01*
X265463Y147027D01*
X265463Y147028D01*
Y147539D01*
X265463Y147540D01*
X266537Y147985D01*
X267565Y148774D01*
X268354Y149802D01*
X268634Y150477D01*
X269606D01*
X270298Y150615D01*
X270884Y151006D01*
X273236Y153359D01*
X273485Y153731D01*
X273985Y153579D01*
X273985Y1606D01*
X1606D01*
Y355044D01*
X2067Y355138D01*
Y355138D01*
X7116D01*
Y364173D01*
X9085D01*
Y355138D01*
X14134D01*
X14134Y355138D01*
Y355138D01*
X14468Y354803D01*
X14941Y354331D01*
X17323D01*
Y353937D01*
X19291Y351969D01*
Y348155D01*
X19291Y348031D01*
X19489Y347737D01*
X19489Y347737D01*
Y346689D01*
X18111D01*
Y347737D01*
X12402D01*
X12402Y342028D01*
X12796Y341771D01*
X12796Y341528D01*
Y340355D01*
X17717D01*
Y341771D01*
X18111Y342028D01*
X18111Y342088D01*
Y343076D01*
X19489D01*
Y336516D01*
X20635D01*
Y335630D01*
X19685D01*
Y335236D01*
X19094D01*
Y330906D01*
X17126D01*
Y335236D01*
X16535D01*
Y335630D01*
X2559D01*
Y326181D01*
X3740D01*
Y297835D01*
X2953D01*
Y294488D01*
X5118D01*
Y293504D01*
X6102D01*
Y289973D01*
X6484D01*
X6412Y289953D01*
X6347Y289894D01*
X6289Y289795D01*
X6240Y289658D01*
X6198Y289480D01*
X6163Y289264D01*
X6154Y289173D01*
X6693D01*
Y288779D01*
X7843D01*
Y288068D01*
X7483Y287792D01*
X7041Y287217D01*
X6764Y286546D01*
X6669Y285827D01*
X6764Y285107D01*
X7041Y284437D01*
X7483Y283861D01*
X8059Y283419D01*
X8729Y283142D01*
X9449Y283047D01*
X10168Y283142D01*
X10839Y283419D01*
X11273Y283753D01*
X11605Y283824D01*
X11963Y283755D01*
X12390Y283427D01*
X13060Y283150D01*
X13780Y283055D01*
X14499Y283150D01*
X15169Y283427D01*
X15745Y283869D01*
X16187Y284445D01*
X16465Y285115D01*
X16559Y285835D01*
X16465Y286554D01*
X16187Y287225D01*
X15745Y287800D01*
X15385Y288076D01*
Y288779D01*
X20835D01*
Y287715D01*
X20475Y287439D01*
X20034Y286863D01*
X19756Y286193D01*
X19661Y285473D01*
X19756Y284754D01*
X20034Y284084D01*
X20475Y283508D01*
X21051Y283066D01*
X21722Y282788D01*
X22441Y282694D01*
X23160Y282788D01*
X23831Y283066D01*
X24407Y283508D01*
X24848Y284084D01*
X25126Y284754D01*
X25591Y284635D01*
Y281791D01*
X27231D01*
X27207Y281882D01*
X27119Y282099D01*
X27012Y282276D01*
X26886Y282414D01*
X26740Y282512D01*
X26575Y282571D01*
X26390Y282591D01*
X27362D01*
Y284646D01*
Y287500D01*
X25591D01*
Y286312D01*
X25126Y286193D01*
X24848Y286863D01*
X24407Y287439D01*
X24047Y287715D01*
Y288779D01*
X32852D01*
Y287894D01*
X32283D01*
Y281398D01*
X33049D01*
Y280709D01*
X32343D01*
X32343Y280709D01*
X32087Y280709D01*
X31830Y280315D01*
X31587Y280315D01*
X29921D01*
Y279610D01*
X29961Y279584D01*
X30128Y279524D01*
X30315Y279503D01*
X29921Y279505D01*
Y276772D01*
Y273228D01*
X31830Y273228D01*
X32087Y272835D01*
X32343D01*
X32343Y272835D01*
X39173D01*
Y274190D01*
X45781D01*
X48994Y270978D01*
Y220866D01*
X49082Y220198D01*
X49340Y219576D01*
X49750Y219041D01*
X62379Y206411D01*
Y172835D01*
Y130033D01*
X62467Y129365D01*
X62725Y128742D01*
X63135Y128208D01*
X74972Y116371D01*
X75340Y115891D01*
X78069Y113163D01*
Y104783D01*
X78157Y104115D01*
X78415Y103492D01*
X78825Y102958D01*
X90332Y91451D01*
Y83647D01*
X90228Y83397D01*
X90134Y82677D01*
X90228Y81958D01*
X90506Y81287D01*
X90948Y80712D01*
X91524Y80270D01*
X92194Y79992D01*
X92913Y79897D01*
X93633Y79992D01*
X94303Y80270D01*
X94879Y80712D01*
X95321Y81287D01*
X95598Y81958D01*
X95693Y82677D01*
X95598Y83397D01*
X95495Y83647D01*
Y92520D01*
X95407Y93188D01*
X95149Y93810D01*
X94739Y94345D01*
X92738Y96345D01*
X92868Y96702D01*
X92958Y96833D01*
X93633Y96921D01*
X93884Y97025D01*
X146850D01*
X147519Y97113D01*
X148141Y97371D01*
X148676Y97781D01*
X158912Y108017D01*
X159322Y108552D01*
X159580Y109175D01*
X159668Y109843D01*
Y128951D01*
X159772Y129202D01*
X159866Y129921D01*
X159772Y130641D01*
X159668Y130891D01*
Y165466D01*
X164131Y169930D01*
X164382Y170034D01*
X164958Y170475D01*
X165399Y171051D01*
X165677Y171721D01*
X165772Y172441D01*
X165677Y173160D01*
X165399Y173831D01*
X164958Y174407D01*
X164382Y174848D01*
X163712Y175126D01*
X162992Y175221D01*
X162273Y175126D01*
X161602Y174848D01*
X161027Y174407D01*
X160585Y173831D01*
X160481Y173580D01*
X155262Y168360D01*
X154851Y167826D01*
X154593Y167203D01*
X154506Y166535D01*
Y130891D01*
X154402Y130641D01*
X154307Y129921D01*
X154402Y129202D01*
X154506Y128951D01*
Y110912D01*
X145781Y102187D01*
X93982D01*
X87939Y108231D01*
Y116273D01*
X88043Y116523D01*
X88138Y117243D01*
X88043Y117962D01*
X87838Y118457D01*
X87776Y118929D01*
X87518Y119551D01*
X87108Y120086D01*
X85814Y121380D01*
X86097Y121804D01*
X86288Y121724D01*
X87008Y121630D01*
X87727Y121724D01*
X88398Y122002D01*
X88973Y122444D01*
X89415Y123020D01*
X89607Y123482D01*
X89810Y123617D01*
X97313Y131121D01*
X97638Y131079D01*
X98357Y131173D01*
X99028Y131451D01*
X99603Y131893D01*
X100045Y132468D01*
X100323Y133139D01*
X100417Y133858D01*
X100323Y134578D01*
X100045Y135248D01*
X99603Y135824D01*
X99028Y136266D01*
X98357Y136543D01*
X97638Y136638D01*
X96918Y136543D01*
X96248Y136266D01*
X95672Y135824D01*
X95231Y135248D01*
X94953Y134578D01*
X94858Y133858D01*
X94901Y133534D01*
X88246Y126879D01*
X87727Y127094D01*
X87008Y127189D01*
X86288Y127094D01*
X85618Y126817D01*
X85042Y126375D01*
X84601Y125799D01*
X84323Y125129D01*
X84228Y124409D01*
X84323Y123690D01*
X84402Y123498D01*
X83978Y123215D01*
X73447Y133746D01*
Y169797D01*
X90833Y187183D01*
X109266D01*
X109517Y187079D01*
X110236Y186984D01*
X110956Y187079D01*
X111626Y187356D01*
X112202Y187798D01*
X112492Y188176D01*
X112559Y188205D01*
X113032D01*
X113099Y188176D01*
X113389Y187798D01*
X113964Y187356D01*
X114635Y187079D01*
X115354Y186984D01*
X116074Y187079D01*
X116744Y187356D01*
X117320Y187798D01*
X117442Y187957D01*
X123228D01*
X123920Y188095D01*
X124506Y188487D01*
X125391Y189372D01*
X125916Y189441D01*
X126587Y189719D01*
X127162Y190160D01*
X127604Y190736D01*
X127882Y191407D01*
X127977Y192126D01*
X127882Y192845D01*
X127604Y193516D01*
X127162Y194091D01*
X126587Y194533D01*
X125916Y194811D01*
X125197Y194906D01*
X124477Y194811D01*
X123807Y194533D01*
X123231Y194091D01*
X122790Y193516D01*
X122512Y192845D01*
X122417Y192126D01*
X122424Y192070D01*
X121986Y191570D01*
X117639D01*
X117460Y191801D01*
X117706Y192301D01*
X118504D01*
X119172Y192389D01*
X119794Y192647D01*
X120329Y193057D01*
X136637Y209365D01*
X137129Y209149D01*
X137200Y208608D01*
X137478Y207938D01*
X137919Y207362D01*
X138495Y206920D01*
X139165Y206643D01*
X139532Y206594D01*
Y127285D01*
X139373Y127162D01*
X138931Y126587D01*
X138654Y125916D01*
X138559Y125197D01*
X138654Y124477D01*
X138931Y123807D01*
X139373Y123231D01*
X139949Y122790D01*
X140619Y122512D01*
X141339Y122417D01*
X142058Y122512D01*
X142728Y122790D01*
X143304Y123231D01*
X143746Y123807D01*
X144024Y124477D01*
X144118Y125197D01*
X144024Y125916D01*
X143746Y126587D01*
X143304Y127162D01*
X143145Y127285D01*
Y207652D01*
X143007Y208343D01*
X142616Y208929D01*
X142613Y208932D01*
X142665Y209328D01*
X142570Y210047D01*
X142292Y210718D01*
X141850Y211293D01*
X141275Y211735D01*
X140604Y212013D01*
X140063Y212084D01*
X139848Y212576D01*
X194738Y267466D01*
X195149Y268001D01*
X195407Y268623D01*
X195494Y269291D01*
Y319477D01*
X195920Y319902D01*
X196053Y320076D01*
X196060Y320082D01*
X196502Y320657D01*
X196779Y321328D01*
X196874Y322047D01*
X196779Y322767D01*
X196502Y323437D01*
X196060Y324013D01*
X195484Y324454D01*
X194814Y324732D01*
X194095Y324827D01*
X193375Y324732D01*
X192705Y324454D01*
X192129Y324013D01*
X191687Y323437D01*
X191410Y322767D01*
X191398Y322682D01*
X191088Y322372D01*
X190678Y321837D01*
X190420Y321215D01*
X190332Y320547D01*
Y270360D01*
X117435Y197463D01*
X87008D01*
X86340Y197375D01*
X85717Y197117D01*
X85183Y196707D01*
X68004Y179528D01*
X67542Y179719D01*
Y207480D01*
X67499Y207805D01*
X67972Y208039D01*
X78375Y197637D01*
X78417Y197312D01*
X78695Y196642D01*
X79137Y196066D01*
X79712Y195624D01*
X80383Y195346D01*
X81102Y195252D01*
X81822Y195346D01*
X82492Y195624D01*
X83068Y196066D01*
X83510Y196642D01*
X83787Y197312D01*
X83882Y198031D01*
X83787Y198751D01*
X83510Y199421D01*
X83068Y199997D01*
X82492Y200439D01*
X81822Y200716D01*
X81497Y200759D01*
X59097Y223159D01*
Y300125D01*
X59109Y300254D01*
X59141Y300445D01*
X59148Y300472D01*
X63189D01*
Y316850D01*
X50591D01*
Y304791D01*
X50021Y304678D01*
X49305Y304199D01*
X47708Y302602D01*
X41142D01*
Y326575D01*
X41929D01*
Y329921D01*
X39764D01*
Y330906D01*
X38780D01*
Y335236D01*
X38386D01*
Y344291D01*
X40157Y346063D01*
X55118D01*
X58268Y349213D01*
Y359301D01*
X59350D01*
Y363435D01*
X57480D01*
Y363386D01*
X57480Y363386D01*
X51575D01*
Y363435D01*
X49705D01*
Y359301D01*
X50787D01*
Y352362D01*
X50000Y351575D01*
X34705D01*
X31604Y354676D01*
X31795Y355138D01*
X34616D01*
Y364173D01*
X35601D01*
Y365158D01*
X41634D01*
Y372410D01*
X199783D01*
X199883Y371910D01*
X199326Y371679D01*
X198133Y370764D01*
X197218Y369572D01*
X196643Y368183D01*
X196576Y367677D01*
X207833D01*
X207766Y368183D01*
X207191Y369572D01*
X206276Y370764D01*
X205084Y371679D01*
X204527Y371910D01*
X204626Y372410D01*
X219783D01*
X219883Y371910D01*
X219326Y371679D01*
X218133Y370764D01*
X217218Y369572D01*
X216643Y368183D01*
X216576Y367677D01*
X227833D01*
X227766Y368183D01*
X227191Y369572D01*
X226276Y370764D01*
X225084Y371679D01*
X224527Y371910D01*
X224626Y372410D01*
X231791D01*
Y365158D01*
X237825D01*
Y364173D01*
X238809D01*
Y355138D01*
X243071D01*
Y350551D01*
X242520Y350000D01*
X236614D01*
X231976Y354638D01*
X232184Y355138D01*
X236841D01*
Y363189D01*
X231791D01*
Y355530D01*
X231291Y355323D01*
X225322Y361292D01*
X225384Y361937D01*
X226276Y362621D01*
X227191Y363814D01*
X227766Y365203D01*
X227833Y365709D01*
X216576D01*
X216643Y365203D01*
X217218Y363814D01*
X217767Y363098D01*
X217521Y362598D01*
X215772D01*
X214854Y363089D01*
X213555Y363483D01*
X212205Y363616D01*
X210854Y363483D01*
X209555Y363089D01*
X208358Y362449D01*
X207309Y361588D01*
X206448Y360539D01*
X205809Y359342D01*
X205415Y358044D01*
X205282Y356693D01*
X205415Y355342D01*
X205809Y354044D01*
X206448Y352847D01*
X207309Y351798D01*
X208358Y350937D01*
X209555Y350297D01*
X210854Y349903D01*
X212205Y349770D01*
X213555Y349903D01*
X214854Y350297D01*
X215772Y350787D01*
X217521D01*
X217767Y350287D01*
X217218Y349572D01*
X216643Y348183D01*
X216576Y347677D01*
X227833D01*
X227766Y348183D01*
X227407Y349051D01*
X227831Y349335D01*
X235039Y342126D01*
X235433Y342520D01*
X250394D01*
X254091Y338822D01*
Y338041D01*
X254080Y337911D01*
X254048Y337717D01*
X254043Y337697D01*
X253051D01*
Y328839D01*
X251279D01*
Y331693D01*
X248425D01*
X245571D01*
Y328839D01*
X243799D01*
Y337697D01*
X237303D01*
Y328839D01*
X235925D01*
Y337697D01*
X229429D01*
Y328839D01*
X228051D01*
Y337697D01*
X227157D01*
X226906Y338197D01*
X227094Y338651D01*
X227189Y339370D01*
X227094Y340090D01*
X226817Y340760D01*
X226375Y341336D01*
X225898Y341701D01*
X225799Y342256D01*
X226276Y342621D01*
X227191Y343814D01*
X227766Y345203D01*
X227833Y345709D01*
X216576D01*
X216643Y345203D01*
X217218Y343814D01*
X218133Y342621D01*
X218189Y342579D01*
X217925Y342171D01*
X217255Y342449D01*
X216535Y342544D01*
X215816Y342449D01*
X215146Y342171D01*
X214570Y341729D01*
X214128Y341154D01*
X213850Y340483D01*
X213756Y339764D01*
X213850Y339044D01*
X214128Y338374D01*
X214264Y338197D01*
X214018Y337697D01*
X213681D01*
Y328839D01*
X212303D01*
Y337697D01*
X205807D01*
Y328839D01*
X204429D01*
Y337697D01*
X197933D01*
Y327658D01*
X199114D01*
Y279035D01*
X198327D01*
Y275394D01*
X201181D01*
X204035D01*
Y278248D01*
X205807D01*
Y269390D01*
X207249D01*
Y262921D01*
X207051Y262769D01*
X206610Y262194D01*
X206332Y261523D01*
X206237Y260804D01*
X206332Y260084D01*
X206610Y259414D01*
X207051Y258838D01*
X207354Y258606D01*
X207185Y258106D01*
X197363D01*
X197241Y258265D01*
X196665Y258706D01*
X195995Y258984D01*
X195276Y259079D01*
X194556Y258984D01*
X193886Y258706D01*
X193310Y258265D01*
X192868Y257689D01*
X192591Y257019D01*
X192496Y256299D01*
X192591Y255580D01*
X192868Y254909D01*
X193310Y254334D01*
X193886Y253892D01*
X194556Y253614D01*
X195276Y253520D01*
X195995Y253614D01*
X196665Y253892D01*
X197241Y254334D01*
X197363Y254493D01*
X240158D01*
X240849Y254630D01*
X241435Y255022D01*
X244584Y258172D01*
X244976Y258757D01*
X245113Y259449D01*
Y266142D01*
X244976Y266833D01*
X244584Y267419D01*
X243076Y268928D01*
X243267Y269390D01*
X243799D01*
Y278248D01*
X245177D01*
Y269390D01*
X251673D01*
Y278248D01*
X253445D01*
Y275394D01*
X256299D01*
X259154D01*
Y279035D01*
X258366D01*
Y327658D01*
X259547D01*
Y337697D01*
X258556D01*
X258551Y337717D01*
X258518Y337911D01*
X258507Y338041D01*
Y341339D01*
X258366Y342047D01*
Y354213D01*
X258963Y354809D01*
X259291Y355138D01*
Y355138D01*
X259291Y355138D01*
X264341D01*
Y364173D01*
X265325D01*
Y365158D01*
X271358D01*
Y372410D01*
X273985D01*
X273985Y173328D01*
D02*
G37*
G36*
X33916Y350162D02*
X34168Y349940D01*
X34401Y349756D01*
X34615Y349609D01*
X34812Y349499D01*
X34991Y349427D01*
X35151Y349393D01*
X35294Y349396D01*
X35418Y349437D01*
X35524Y349515D01*
X36916Y348123D01*
X36746Y347934D01*
X36595Y347723D01*
X36461Y347491D01*
X36345Y347237D01*
X36246Y346961D01*
X36166Y346665D01*
X36104Y346346D01*
X36032Y345645D01*
X36028Y345478D01*
X36030Y345381D01*
X36084Y344752D01*
X36132Y344496D01*
X36193Y344279D01*
X36267Y344102D01*
X36355Y343964D01*
X36457Y343866D01*
X36572Y343807D01*
X36700Y343787D01*
X33378D01*
X33507Y343807D01*
X33621Y343866D01*
X33723Y343964D01*
X33811Y344102D01*
X33886Y344279D01*
X33946Y344496D01*
X33994Y344752D01*
X34028Y345047D01*
X34048Y345381D01*
X34049Y345427D01*
X34041Y345650D01*
X33999Y346026D01*
X33929Y346391D01*
X33832Y346744D01*
X33707Y347086D01*
X33554Y347417D01*
X33373Y347735D01*
X33164Y348042D01*
X32927Y348338D01*
X32663Y348622D01*
X33647Y350422D01*
X33916Y350162D01*
D02*
G37*
G36*
X24004Y345951D02*
X24040Y345851D01*
X24099Y345762D01*
X24183Y345685D01*
X24290Y345620D01*
X24422Y345567D01*
X24577Y345526D01*
X24756Y345496D01*
X24959Y345479D01*
X25185Y345473D01*
Y344292D01*
X24959Y344286D01*
X24756Y344268D01*
X24577Y344238D01*
X24422Y344197D01*
X24290Y344144D01*
X24183Y344079D01*
X24099Y344002D01*
X24040Y343914D01*
X24004Y343813D01*
X23992Y343701D01*
Y346063D01*
X24004Y345951D01*
D02*
G37*
G36*
X20694Y343701D02*
X20682Y343813D01*
X20646Y343914D01*
X20586Y344002D01*
X20503Y344079D01*
X20395Y344144D01*
X20264Y344197D01*
X20109Y344238D01*
X19930Y344268D01*
X19727Y344286D01*
X19500Y344292D01*
Y345473D01*
X19727Y345479D01*
X19930Y345496D01*
X20109Y345526D01*
X20264Y345567D01*
X20395Y345620D01*
X20503Y345685D01*
X20586Y345762D01*
X20646Y345851D01*
X20682Y345951D01*
X20694Y346063D01*
Y343701D01*
D02*
G37*
G36*
X16917Y345951D02*
X16953Y345851D01*
X17013Y345762D01*
X17096Y345685D01*
X17204Y345620D01*
X17335Y345567D01*
X17490Y345526D01*
X17669Y345496D01*
X17872Y345479D01*
X18099Y345473D01*
Y344292D01*
X17872Y344286D01*
X17669Y344268D01*
X17490Y344238D01*
X17335Y344197D01*
X17204Y344144D01*
X17096Y344079D01*
X17013Y344002D01*
X16953Y343914D01*
X16917Y343813D01*
X16905Y343701D01*
Y346063D01*
X16917Y345951D01*
D02*
G37*
G36*
X252559Y348439D02*
X252573Y348051D01*
X252615Y347675D01*
X252684Y347310D01*
X252782Y346957D01*
X252907Y346615D01*
X253060Y346285D01*
X253241Y345966D01*
X253450Y345659D01*
X253686Y345363D01*
X253951Y345079D01*
X252559Y343687D01*
X252275Y343951D01*
X251979Y344188D01*
X251672Y344397D01*
X251353Y344578D01*
X251023Y344731D01*
X250681Y344856D01*
X250328Y344953D01*
X249963Y345023D01*
X249587Y345065D01*
X249199Y345079D01*
X248622Y347047D01*
X248996Y347067D01*
X249331Y347126D01*
X249626Y347224D01*
X249882Y347362D01*
X250098Y347539D01*
X250276Y347756D01*
X250413Y348012D01*
X250512Y348307D01*
X250571Y348642D01*
X250591Y349016D01*
X252559Y348439D01*
D02*
G37*
G36*
X27878Y341330D02*
X27867Y341425D01*
X27834Y341510D01*
X27779Y341585D01*
X27701Y341650D01*
X27602Y341705D01*
X27481Y341751D01*
X27337Y341786D01*
X27172Y341811D01*
X26984Y341826D01*
X26774Y341831D01*
Y343012D01*
X26984Y343017D01*
X27172Y343032D01*
X27337Y343057D01*
X27481Y343092D01*
X27602Y343137D01*
X27701Y343192D01*
X27779Y343257D01*
X27834Y343333D01*
X27867Y343418D01*
X27878Y343513D01*
Y341330D01*
D02*
G37*
G36*
X36572Y340445D02*
X36457Y340386D01*
X36355Y340287D01*
X36267Y340149D01*
X36193Y339972D01*
X36132Y339756D01*
X36084Y339500D01*
X36050Y339205D01*
X36030Y338870D01*
X36023Y338496D01*
X34055D01*
X34048Y338870D01*
X33994Y339500D01*
X33946Y339756D01*
X33886Y339972D01*
X33811Y340149D01*
X33723Y340287D01*
X33621Y340386D01*
X33507Y340445D01*
X33378Y340464D01*
X36700D01*
X36572Y340445D01*
D02*
G37*
G36*
X23510Y337697D02*
X23409Y337662D01*
X23321Y337603D01*
X23244Y337520D01*
X23179Y337414D01*
X23126Y337284D01*
X23085Y337130D01*
X23055Y336953D01*
X23037Y336753D01*
X23031Y336528D01*
X21850D01*
X21845Y336753D01*
X21827Y336953D01*
X21797Y337130D01*
X21756Y337284D01*
X21703Y337414D01*
X21638Y337520D01*
X21561Y337603D01*
X21472Y337662D01*
X21372Y337697D01*
X21260Y337709D01*
X23622D01*
X23510Y337697D01*
D02*
G37*
G36*
X257293Y338096D02*
X257323Y337759D01*
X257372Y337462D01*
X257441Y337205D01*
X257529Y336987D01*
X257638Y336809D01*
X257766Y336670D01*
X257913Y336571D01*
X258081Y336511D01*
X258268Y336492D01*
X254331D01*
X254518Y336511D01*
X254685Y336571D01*
X254833Y336670D01*
X254961Y336809D01*
X255069Y336987D01*
X255157Y337205D01*
X255226Y337462D01*
X255276Y337759D01*
X255305Y338096D01*
X255315Y338472D01*
X257283D01*
X257293Y338096D01*
D02*
G37*
G36*
X225623Y338096D02*
X225653Y337760D01*
X225702Y337463D01*
X225771Y337206D01*
X225859Y336988D01*
X225968Y336810D01*
X226096Y336671D01*
X226243Y336572D01*
X226411Y336512D01*
X226597Y336492D01*
X222748Y336504D01*
X222919Y336523D01*
X223071Y336582D01*
X223205Y336681D01*
X223322Y336819D01*
X223421Y336996D01*
X223501Y337212D01*
X223564Y337468D01*
X223609Y337764D01*
X223636Y338098D01*
X223645Y338472D01*
X225613D01*
X225623Y338096D01*
D02*
G37*
G36*
X217923Y338096D02*
X217953Y337759D01*
X218002Y337462D01*
X218071Y337205D01*
X218159Y336987D01*
X218268Y336809D01*
X218396Y336670D01*
X218543Y336571D01*
X218711Y336511D01*
X218898Y336492D01*
X214961D01*
X215148Y336511D01*
X215315Y336571D01*
X215463Y336670D01*
X215591Y336809D01*
X215699Y336987D01*
X215787Y337205D01*
X215856Y337462D01*
X215905Y337759D01*
X215935Y338096D01*
X215945Y338472D01*
X217913D01*
X217923Y338096D01*
D02*
G37*
G36*
X36423Y336031D02*
X36469Y335401D01*
X36510Y335145D01*
X36562Y334929D01*
X36626Y334752D01*
X36701Y334614D01*
X36788Y334516D01*
X36886Y334456D01*
X36996Y334437D01*
X33870D01*
X33980Y334456D01*
X34079Y334516D01*
X34165Y334614D01*
X34240Y334752D01*
X34304Y334929D01*
X34356Y335145D01*
X34397Y335401D01*
X34426Y335697D01*
X34449Y336405D01*
X36417D01*
X36423Y336031D01*
D02*
G37*
G36*
X23037Y335391D02*
X23055Y335188D01*
X23085Y335009D01*
X23126Y334854D01*
X23179Y334723D01*
X23244Y334616D01*
X23321Y334532D01*
X23409Y334472D01*
X23510Y334437D01*
X23622Y334425D01*
X21260D01*
X21372Y334437D01*
X21472Y334472D01*
X21561Y334532D01*
X21638Y334616D01*
X21703Y334723D01*
X21756Y334854D01*
X21797Y335009D01*
X21827Y335188D01*
X21845Y335391D01*
X21850Y335618D01*
X23031D01*
X23037Y335391D01*
D02*
G37*
G36*
X26083Y340752D02*
X26673Y340635D01*
Y339271D01*
X32677D01*
Y335236D01*
X32087D01*
Y330906D01*
X30118D01*
Y335236D01*
X29528D01*
Y335630D01*
X24247D01*
Y336516D01*
X25197D01*
Y340761D01*
X25697Y341010D01*
X26083Y340752D01*
D02*
G37*
G36*
X58671Y301646D02*
X58504Y301587D01*
X58356Y301488D01*
X58228Y301351D01*
X58120Y301173D01*
X58031Y300957D01*
X57963Y300701D01*
X57913Y300406D01*
X57884Y300071D01*
X57874Y299697D01*
X55905D01*
X55896Y300071D01*
X55866Y300406D01*
X55817Y300701D01*
X55748Y300957D01*
X55660Y301173D01*
X55551Y301351D01*
X55423Y301488D01*
X55276Y301587D01*
X55108Y301646D01*
X54921Y301665D01*
X58858D01*
X58671Y301646D01*
D02*
G37*
G36*
X28172Y298178D02*
X28230Y297261D01*
X28251Y297162D01*
X28275Y297092D01*
X28303Y297049D01*
X28334Y297035D01*
X25775Y297023D01*
X25857Y297038D01*
X25929Y297081D01*
X25993Y297152D01*
X26048Y297252D01*
X26095Y297380D01*
X26134Y297536D01*
X26164Y297721D01*
X26185Y297935D01*
X26202Y298446D01*
X28171D01*
X28172Y298178D01*
D02*
G37*
G36*
X40476Y289977D02*
X40409Y289953D01*
X40350Y289913D01*
X40299Y289857D01*
X40256Y289785D01*
X40220Y289697D01*
X40193Y289593D01*
X40173Y289473D01*
X40161Y289337D01*
X40157Y289185D01*
X39370D01*
X39366Y289337D01*
X39354Y289473D01*
X39335Y289593D01*
X39307Y289697D01*
X39272Y289785D01*
X39228Y289857D01*
X39177Y289913D01*
X39118Y289953D01*
X39051Y289977D01*
X38976Y289985D01*
X40551D01*
X40476Y289977D01*
D02*
G37*
G36*
X23154D02*
X23087Y289953D01*
X23028Y289913D01*
X22976Y289857D01*
X22933Y289785D01*
X22898Y289697D01*
X22870Y289593D01*
X22850Y289473D01*
X22839Y289337D01*
X22835Y289185D01*
X22047D01*
X22043Y289337D01*
X22031Y289473D01*
X22012Y289593D01*
X21984Y289697D01*
X21949Y289785D01*
X21905Y289857D01*
X21854Y289913D01*
X21795Y289953D01*
X21728Y289977D01*
X21654Y289985D01*
X23228D01*
X23154Y289977D01*
D02*
G37*
G36*
X14492D02*
X14425Y289953D01*
X14366Y289913D01*
X14315Y289857D01*
X14272Y289785D01*
X14236Y289697D01*
X14209Y289593D01*
X14189Y289473D01*
X14177Y289337D01*
X14173Y289185D01*
X13386D01*
X13382Y289337D01*
X13370Y289473D01*
X13350Y289593D01*
X13323Y289697D01*
X13287Y289785D01*
X13244Y289857D01*
X13193Y289913D01*
X13134Y289953D01*
X13067Y289977D01*
X12992Y289985D01*
X14567D01*
X14492Y289977D01*
D02*
G37*
G36*
X10161D02*
X10095Y289953D01*
X10035Y289913D01*
X9984Y289857D01*
X9941Y289785D01*
X9905Y289697D01*
X9878Y289593D01*
X9858Y289473D01*
X9847Y289337D01*
X9843Y289185D01*
X9055D01*
X9051Y289337D01*
X9039Y289473D01*
X9020Y289593D01*
X8992Y289697D01*
X8957Y289785D01*
X8913Y289857D01*
X8862Y289913D01*
X8803Y289953D01*
X8736Y289977D01*
X8661Y289985D01*
X10236D01*
X10161Y289977D01*
D02*
G37*
G36*
X233390Y270587D02*
X233323Y270563D01*
X233264Y270523D01*
X233213Y270467D01*
X233169Y270395D01*
X233134Y270307D01*
X233106Y270203D01*
X233087Y270083D01*
X233075Y269947D01*
X233071Y269795D01*
X232283D01*
X232279Y269947D01*
X232268Y270083D01*
X232248Y270203D01*
X232221Y270307D01*
X232185Y270395D01*
X232142Y270467D01*
X232090Y270523D01*
X232031Y270563D01*
X231965Y270587D01*
X231890Y270595D01*
X233465D01*
X233390Y270587D01*
D02*
G37*
G36*
X241620Y270583D02*
X241520Y270547D01*
X241431Y270487D01*
X241354Y270404D01*
X241289Y270297D01*
X241236Y270165D01*
X241195Y270010D01*
X241165Y269831D01*
X241148Y269629D01*
X241142Y269402D01*
X239961D01*
X239955Y269629D01*
X239937Y269831D01*
X239908Y270010D01*
X239866Y270165D01*
X239813Y270297D01*
X239748Y270404D01*
X239671Y270487D01*
X239583Y270547D01*
X239482Y270583D01*
X239370Y270595D01*
X241732D01*
X241620Y270583D01*
D02*
G37*
G36*
X225872D02*
X225772Y270547D01*
X225683Y270487D01*
X225606Y270404D01*
X225541Y270297D01*
X225488Y270165D01*
X225447Y270010D01*
X225417Y269831D01*
X225400Y269629D01*
X225394Y269402D01*
X224213D01*
X224207Y269629D01*
X224189Y269831D01*
X224159Y270010D01*
X224118Y270165D01*
X224065Y270297D01*
X224000Y270404D01*
X223923Y270487D01*
X223835Y270547D01*
X223734Y270583D01*
X223622Y270595D01*
X225984D01*
X225872Y270583D01*
D02*
G37*
G36*
X217998D02*
X217898Y270547D01*
X217809Y270487D01*
X217732Y270404D01*
X217667Y270297D01*
X217614Y270165D01*
X217573Y270010D01*
X217543Y269831D01*
X217526Y269629D01*
X217520Y269402D01*
X216339D01*
X216333Y269629D01*
X216315Y269831D01*
X216285Y270010D01*
X216244Y270165D01*
X216191Y270297D01*
X216126Y270404D01*
X216049Y270487D01*
X215961Y270547D01*
X215860Y270583D01*
X215748Y270595D01*
X218110D01*
X217998Y270583D01*
D02*
G37*
G36*
X210124D02*
X210024Y270547D01*
X209935Y270487D01*
X209858Y270404D01*
X209793Y270297D01*
X209740Y270165D01*
X209699Y270010D01*
X209669Y269831D01*
X209652Y269629D01*
X209646Y269402D01*
X208465D01*
X208459Y269629D01*
X208441Y269831D01*
X208411Y270010D01*
X208370Y270165D01*
X208317Y270297D01*
X208252Y270404D01*
X208175Y270487D01*
X208087Y270547D01*
X207986Y270583D01*
X207874Y270595D01*
X210236D01*
X210124Y270583D01*
D02*
G37*
G36*
X233075Y266962D02*
X233087Y266826D01*
X233106Y266706D01*
X233134Y266602D01*
X233169Y266514D01*
X233213Y266442D01*
X233264Y266387D01*
X233323Y266347D01*
X233390Y266323D01*
X233465Y266315D01*
X231890D01*
X231965Y266323D01*
X232031Y266347D01*
X232090Y266387D01*
X232142Y266442D01*
X232185Y266514D01*
X232221Y266602D01*
X232248Y266706D01*
X232268Y266826D01*
X232279Y266962D01*
X232283Y267114D01*
X233071D01*
X233075Y266962D01*
D02*
G37*
G36*
X231323Y263779D02*
X231315Y263854D01*
X231291Y263921D01*
X231251Y263980D01*
X231195Y264032D01*
X231123Y264075D01*
X231035Y264110D01*
X230931Y264138D01*
X230812Y264158D01*
X230676Y264169D01*
X230524Y264173D01*
Y264961D01*
X230676Y264965D01*
X230812Y264976D01*
X230931Y264996D01*
X231035Y265024D01*
X231123Y265059D01*
X231195Y265102D01*
X231251Y265154D01*
X231291Y265213D01*
X231315Y265280D01*
X231323Y265354D01*
Y263779D01*
D02*
G37*
G36*
X239258Y262807D02*
X239158Y262772D01*
X239069Y262712D01*
X238992Y262628D01*
X238927Y262521D01*
X238874Y262390D01*
X238833Y262235D01*
X238803Y262056D01*
X238785Y261853D01*
X238779Y261626D01*
X237598D01*
X237593Y261853D01*
X237575Y262056D01*
X237545Y262235D01*
X237504Y262390D01*
X237451Y262521D01*
X237386Y262628D01*
X237309Y262712D01*
X237221Y262772D01*
X237120Y262807D01*
X237008Y262819D01*
X239370D01*
X239258Y262807D01*
D02*
G37*
G36*
X249134Y160045D02*
Y157362D01*
X252722D01*
X252822Y156886D01*
X251673Y156410D01*
X250686Y155653D01*
X249928Y154666D01*
X249452Y153517D01*
X249419Y153268D01*
X254055D01*
Y151299D01*
X249419D01*
X249452Y151050D01*
X249928Y149901D01*
X250686Y148914D01*
X251673Y148157D01*
X252822Y147681D01*
X253169Y147635D01*
Y147131D01*
X252770Y147078D01*
X251573Y146582D01*
X250545Y145793D01*
X249756Y144765D01*
X249477Y144090D01*
X244252D01*
X243561Y143952D01*
X242975Y143561D01*
X239103Y139689D01*
X239013Y139689D01*
X238821Y140149D01*
X238830Y140212D01*
X246947Y148329D01*
X247338Y148915D01*
X247476Y149607D01*
Y159094D01*
X248634Y160252D01*
X249134Y160045D01*
D02*
G37*
%LPC*%
G36*
X51575Y369537D02*
X49705D01*
Y365404D01*
X51575D01*
Y369537D01*
D02*
G37*
G36*
X47736D02*
X45866D01*
Y365404D01*
X47736D01*
Y369537D01*
D02*
G37*
G36*
X63189D02*
X61319D01*
Y365404D01*
X63189D01*
Y369537D01*
D02*
G37*
G36*
X59350D02*
X57480D01*
Y365404D01*
X59350D01*
Y369537D01*
D02*
G37*
G36*
X207833Y365709D02*
X203189D01*
Y361065D01*
X203695Y361131D01*
X205084Y361706D01*
X206276Y362621D01*
X207191Y363814D01*
X207766Y365203D01*
X207833Y365709D01*
D02*
G37*
G36*
X201220D02*
X196576D01*
X196643Y365203D01*
X197218Y363814D01*
X198133Y362621D01*
X199326Y361706D01*
X200714Y361131D01*
X201220Y361065D01*
Y365709D01*
D02*
G37*
G36*
X63189Y363435D02*
X61319D01*
Y359301D01*
X63189D01*
Y363435D01*
D02*
G37*
G36*
X47736Y363435D02*
X45866D01*
Y359301D01*
X47736D01*
Y363435D01*
D02*
G37*
G36*
X271358Y363189D02*
X266309D01*
Y355138D01*
X271358D01*
Y363189D01*
D02*
G37*
G36*
X41634D02*
X36585D01*
Y355138D01*
X41634D01*
Y363189D01*
D02*
G37*
G36*
X75408Y365386D02*
X74020Y365203D01*
X72727Y364668D01*
X71617Y363816D01*
X70765Y362706D01*
X70230Y361413D01*
X70047Y360025D01*
X70230Y358638D01*
X70765Y357345D01*
X71617Y356235D01*
X72727Y355383D01*
X74020Y354847D01*
X75408Y354665D01*
X76795Y354847D01*
X78088Y355383D01*
X79198Y356235D01*
X80050Y357345D01*
X80586Y358638D01*
X80769Y360025D01*
X80586Y361413D01*
X80050Y362706D01*
X79198Y363816D01*
X78088Y364668D01*
X76795Y365203D01*
X75408Y365386D01*
D02*
G37*
G36*
X203189Y352321D02*
Y347677D01*
X207833D01*
X207766Y348183D01*
X207191Y349572D01*
X206276Y350764D01*
X205084Y351679D01*
X203695Y352255D01*
X203189Y352321D01*
D02*
G37*
G36*
X201220D02*
X200714Y352255D01*
X199326Y351679D01*
X198133Y350764D01*
X197218Y349572D01*
X196643Y348183D01*
X196576Y347677D01*
X201220D01*
Y352321D01*
D02*
G37*
G36*
X207833Y345709D02*
X203189D01*
Y341065D01*
X203695Y341131D01*
X205084Y341706D01*
X206276Y342621D01*
X207191Y343814D01*
X207766Y345203D01*
X207833Y345709D01*
D02*
G37*
G36*
X201220D02*
X196576D01*
X196643Y345203D01*
X197218Y343814D01*
X198133Y342621D01*
X199326Y341706D01*
X200714Y341131D01*
X201220Y341065D01*
Y345709D01*
D02*
G37*
G36*
X17717Y338386D02*
X16240D01*
Y336910D01*
X17717D01*
Y338386D01*
D02*
G37*
G36*
X14272D02*
X12796D01*
Y336910D01*
X14272D01*
Y338386D01*
D02*
G37*
G36*
X251279Y337303D02*
X249410D01*
Y333662D01*
X251279D01*
Y337303D01*
D02*
G37*
G36*
X247441D02*
X245571D01*
Y333662D01*
X247441D01*
Y337303D01*
D02*
G37*
G36*
X41929Y335236D02*
X40748D01*
Y331890D01*
X41929D01*
Y335236D01*
D02*
G37*
G36*
X178150Y316457D02*
X173228D01*
Y309646D01*
X178150D01*
Y316457D01*
D02*
G37*
G36*
X171260D02*
X166339D01*
Y309646D01*
X171260D01*
Y316457D01*
D02*
G37*
G36*
X178150Y307677D02*
X173228D01*
Y300866D01*
X178150D01*
Y307677D01*
D02*
G37*
G36*
X171260D02*
X166339D01*
Y300866D01*
X171260D01*
Y307677D01*
D02*
G37*
G36*
X136221Y322441D02*
X92913D01*
Y294882D01*
X136221D01*
Y322441D01*
D02*
G37*
G36*
X4134Y292520D02*
X2953D01*
Y289173D01*
X4079D01*
X4073Y289264D01*
X4038Y289480D01*
X3997Y289658D01*
X3947Y289795D01*
X3890Y289894D01*
X3825Y289953D01*
X3752Y289973D01*
X4134D01*
Y292520D01*
D02*
G37*
G36*
X31102Y287500D02*
X29331D01*
Y285630D01*
X31102D01*
Y287500D01*
D02*
G37*
G36*
Y283661D02*
X29331D01*
Y282591D01*
X30303D01*
X30118Y282571D01*
X29953Y282512D01*
X29807Y282414D01*
X29681Y282276D01*
X29574Y282099D01*
X29486Y281882D01*
X29462Y281791D01*
X31102D01*
Y283661D01*
D02*
G37*
G36*
X27257Y280315D02*
X25787D01*
Y277887D01*
X25886Y277913D01*
X26104Y278002D01*
X26282Y278110D01*
X26421Y278238D01*
X26520Y278386D01*
X26579Y278553D01*
X26599Y278740D01*
Y277756D01*
X27953D01*
Y279511D01*
X26587Y279516D01*
X26734Y279535D01*
X26866Y279594D01*
X26982Y279693D01*
X27083Y279831D01*
X27168Y280008D01*
X27238Y280224D01*
X27257Y280315D01*
D02*
G37*
G36*
X27953Y275787D02*
X26599D01*
Y274803D01*
X26579Y274990D01*
X26520Y275157D01*
X26421Y275305D01*
X26282Y275433D01*
X26104Y275541D01*
X25886Y275630D01*
X25787Y275656D01*
Y273228D01*
X27953D01*
Y275787D01*
D02*
G37*
G36*
X259154Y273425D02*
X257283D01*
Y269783D01*
X259154D01*
Y273425D01*
D02*
G37*
G36*
X255315D02*
X253445D01*
Y269783D01*
X255315D01*
Y273425D01*
D02*
G37*
G36*
X204035Y273425D02*
X202165D01*
Y269783D01*
X204035D01*
Y273425D01*
D02*
G37*
G36*
X200197D02*
X198327D01*
Y269783D01*
X200197D01*
Y273425D01*
D02*
G37*
G36*
X255118Y247047D02*
X254528D01*
Y245866D01*
X255118D01*
Y247047D01*
D02*
G37*
G36*
X267441Y230382D02*
Y225787D01*
X272035D01*
X271971Y226280D01*
X271400Y227657D01*
X270493Y228839D01*
X269311Y229747D01*
X267934Y230317D01*
X267441Y230382D01*
D02*
G37*
G36*
X265472D02*
X264979Y230317D01*
X263603Y229747D01*
X262420Y228839D01*
X261513Y227657D01*
X260943Y226280D01*
X260878Y225787D01*
X265472D01*
Y230382D01*
D02*
G37*
G36*
X199409Y234484D02*
X197982Y234343D01*
X196609Y233927D01*
X195343Y233251D01*
X194234Y232341D01*
X193324Y231231D01*
X192648Y229966D01*
X192231Y228593D01*
X192091Y227165D01*
X192231Y225738D01*
X192648Y224365D01*
X193324Y223099D01*
X194234Y221990D01*
X195343Y221080D01*
X196609Y220404D01*
X197982Y219987D01*
X199409Y219847D01*
X200837Y219987D01*
X202210Y220404D01*
X203475Y221080D01*
X204585Y221990D01*
X205495Y223099D01*
X206171Y224365D01*
X206588Y225738D01*
X206728Y227165D01*
X206588Y228593D01*
X206171Y229966D01*
X205495Y231231D01*
X204585Y232341D01*
X203475Y233251D01*
X202210Y233927D01*
X200837Y234343D01*
X199409Y234484D01*
D02*
G37*
G36*
X39173Y234682D02*
X37707Y234537D01*
X36297Y234110D01*
X34997Y233415D01*
X33858Y232480D01*
X32923Y231341D01*
X32229Y230042D01*
X31801Y228632D01*
X31657Y227165D01*
X31801Y225699D01*
X32229Y224289D01*
X32923Y222989D01*
X33858Y221850D01*
X34997Y220916D01*
X36297Y220221D01*
X37707Y219793D01*
X39173Y219649D01*
X40640Y219793D01*
X42050Y220221D01*
X43349Y220916D01*
X44488Y221850D01*
X45423Y222989D01*
X46118Y224289D01*
X46545Y225699D01*
X46690Y227165D01*
X46545Y228632D01*
X46118Y230042D01*
X45423Y231341D01*
X44488Y232480D01*
X43349Y233415D01*
X42050Y234110D01*
X40640Y234537D01*
X39173Y234682D01*
D02*
G37*
G36*
X272035Y223819D02*
X267441D01*
Y219224D01*
X267934Y219289D01*
X269311Y219860D01*
X270493Y220767D01*
X271400Y221949D01*
X271971Y223326D01*
X272035Y223819D01*
D02*
G37*
G36*
X265472D02*
X260878D01*
X260943Y223326D01*
X261513Y221949D01*
X262420Y220767D01*
X263603Y219860D01*
X264979Y219289D01*
X265472Y219224D01*
Y223819D01*
D02*
G37*
G36*
X211811Y248055D02*
X211092Y247961D01*
X210421Y247683D01*
X209845Y247241D01*
X209404Y246665D01*
X209126Y245995D01*
X209031Y245276D01*
X209126Y244556D01*
X209404Y243886D01*
X209845Y243310D01*
X210421Y242868D01*
X211092Y242591D01*
X211811Y242496D01*
X212530Y242591D01*
X213201Y242868D01*
X213776Y243310D01*
X213899Y243469D01*
X248819D01*
Y242323D01*
X248981D01*
Y230659D01*
X245010D01*
Y218947D01*
X256722D01*
Y230659D01*
X252594D01*
Y242323D01*
X252756D01*
Y242717D01*
X255118D01*
Y243898D01*
X253543D01*
Y244882D01*
X252756D01*
Y247047D01*
X252756D01*
Y247441D01*
X248819D01*
Y247082D01*
X213899D01*
X213776Y247241D01*
X213201Y247683D01*
X212530Y247961D01*
X211811Y248055D01*
D02*
G37*
G36*
X266142Y191581D02*
X264754Y191399D01*
X263461Y190863D01*
X262351Y190011D01*
X261499Y188901D01*
X260964Y187608D01*
X260781Y186221D01*
X260964Y184833D01*
X261499Y183540D01*
X262351Y182430D01*
X263461Y181578D01*
X264754Y181042D01*
X266142Y180860D01*
X267529Y181042D01*
X268822Y181578D01*
X269932Y182430D01*
X270784Y183540D01*
X271320Y184833D01*
X271503Y186221D01*
X271320Y187608D01*
X270784Y188901D01*
X269932Y190011D01*
X268822Y190863D01*
X267529Y191399D01*
X266142Y191581D01*
D02*
G37*
G36*
X11614Y169802D02*
Y165157D01*
X16258D01*
X16192Y165664D01*
X15616Y167052D01*
X14701Y168245D01*
X13509Y169160D01*
X12120Y169735D01*
X11614Y169802D01*
D02*
G37*
G36*
X9646D02*
X9140Y169735D01*
X7751Y169160D01*
X6559Y168245D01*
X5643Y167052D01*
X5068Y165664D01*
X5002Y165157D01*
X9646D01*
Y169802D01*
D02*
G37*
G36*
X16258Y163189D02*
X11614D01*
Y158545D01*
X12120Y158612D01*
X13509Y159187D01*
X14701Y160102D01*
X15616Y161294D01*
X16192Y162683D01*
X16258Y163189D01*
D02*
G37*
G36*
X9646D02*
X5002D01*
X5068Y162683D01*
X5643Y161294D01*
X6559Y160102D01*
X7751Y159187D01*
X9140Y158612D01*
X9646Y158545D01*
Y163189D01*
D02*
G37*
G36*
X227953Y233099D02*
X226795Y232985D01*
X225682Y232648D01*
X224656Y232099D01*
X223757Y231361D01*
X223019Y230462D01*
X222470Y229436D01*
X222133Y228323D01*
X222019Y227165D01*
X222133Y226008D01*
X222470Y224894D01*
X223019Y223869D01*
X223757Y222969D01*
X224656Y222231D01*
X224776Y222167D01*
Y169171D01*
X224656Y169107D01*
X223757Y168369D01*
X223019Y167470D01*
X222470Y166444D01*
X222133Y165331D01*
X222019Y164173D01*
X222133Y163016D01*
X222470Y161902D01*
X223019Y160876D01*
X223757Y159977D01*
X224656Y159239D01*
X225682Y158691D01*
X226795Y158353D01*
X227953Y158239D01*
X229110Y158353D01*
X230224Y158691D01*
X231250Y159239D01*
X232149Y159977D01*
X232887Y160876D01*
X233435Y161902D01*
X233773Y163016D01*
X233887Y164173D01*
X233773Y165331D01*
X233435Y166444D01*
X232887Y167470D01*
X232149Y168369D01*
X231250Y169107D01*
X231130Y169171D01*
Y222167D01*
X231250Y222231D01*
X232149Y222969D01*
X232887Y223869D01*
X233435Y224894D01*
X233773Y226008D01*
X233887Y227165D01*
X233773Y228323D01*
X233435Y229436D01*
X232887Y230462D01*
X232149Y231361D01*
X231250Y232099D01*
X230224Y232648D01*
X229110Y232985D01*
X227953Y233099D01*
D02*
G37*
G36*
X169959Y145967D02*
X169240Y145873D01*
X168570Y145595D01*
X167994Y145153D01*
X167552Y144578D01*
X167274Y143907D01*
X167180Y143188D01*
X167274Y142468D01*
X167552Y141798D01*
X167994Y141222D01*
X168570Y140780D01*
X169240Y140503D01*
X169959Y140408D01*
X170158Y140434D01*
X179620Y130973D01*
Y123811D01*
X179460Y123689D01*
X179019Y123114D01*
X178741Y122443D01*
X178646Y121724D01*
X178741Y121004D01*
X179019Y120334D01*
X179460Y119758D01*
X180036Y119316D01*
X180706Y119039D01*
X181426Y118944D01*
X182145Y119039D01*
X182816Y119316D01*
X183391Y119758D01*
X183833Y120334D01*
X184111Y121004D01*
X184205Y121724D01*
X184111Y122443D01*
X183833Y123114D01*
X183391Y123689D01*
X183232Y123811D01*
Y131721D01*
X183095Y132412D01*
X182703Y132998D01*
X172713Y142989D01*
X172739Y143188D01*
X172644Y143907D01*
X172367Y144578D01*
X171925Y145153D01*
X171349Y145595D01*
X170679Y145873D01*
X169959Y145967D01*
D02*
G37*
G36*
X10630Y233099D02*
X9472Y232985D01*
X8359Y232648D01*
X7333Y232099D01*
X6434Y231361D01*
X5696Y230462D01*
X5147Y229436D01*
X4810Y228323D01*
X4696Y227165D01*
X4810Y226008D01*
X5147Y224894D01*
X5696Y223869D01*
X6434Y222969D01*
X7333Y222231D01*
X8359Y221683D01*
X9472Y221345D01*
X10630Y221231D01*
X11788Y221345D01*
X11918Y221385D01*
X18477Y214826D01*
Y158403D01*
X8384Y148309D01*
X7879Y147651D01*
X7561Y146885D01*
X7453Y146063D01*
Y106179D01*
X7333Y106115D01*
X6434Y105377D01*
X5696Y104478D01*
X5147Y103452D01*
X4810Y102339D01*
X4696Y101181D01*
X4810Y100023D01*
X5147Y98910D01*
X5696Y97884D01*
X6434Y96985D01*
X7333Y96247D01*
X7850Y95971D01*
Y82677D01*
X7945Y81958D01*
X8223Y81287D01*
X8664Y80712D01*
X14964Y74412D01*
X15539Y73971D01*
X16210Y73693D01*
X16929Y73598D01*
X17649Y73693D01*
X18319Y73971D01*
X18895Y74412D01*
X19336Y74988D01*
X19614Y75659D01*
X19709Y76378D01*
X19614Y77097D01*
X19336Y77768D01*
X18895Y78343D01*
X13410Y83829D01*
Y95971D01*
X13927Y96247D01*
X14826Y96985D01*
X15564Y97884D01*
X16112Y98910D01*
X16450Y100023D01*
X16564Y101181D01*
X16450Y102339D01*
X16112Y103452D01*
X15564Y104478D01*
X14826Y105377D01*
X13927Y106115D01*
X13807Y106179D01*
Y144747D01*
X23900Y154840D01*
X24405Y155498D01*
X24722Y156264D01*
X24830Y157087D01*
Y216142D01*
X24722Y216964D01*
X24405Y217730D01*
X23900Y218388D01*
X16410Y225877D01*
X16450Y226008D01*
X16564Y227165D01*
X16450Y228323D01*
X16112Y229436D01*
X15564Y230462D01*
X14826Y231361D01*
X13927Y232099D01*
X12901Y232648D01*
X11788Y232985D01*
X10630Y233099D01*
D02*
G37*
G36*
X52912Y61348D02*
X52192Y61253D01*
X51522Y60975D01*
X50946Y60533D01*
X50504Y59958D01*
X50227Y59287D01*
X50132Y58568D01*
X50227Y57849D01*
X50504Y57178D01*
X50946Y56602D01*
X51522Y56161D01*
X52192Y55883D01*
X52912Y55788D01*
X53631Y55883D01*
X54302Y56161D01*
X54877Y56602D01*
X54999Y56762D01*
X60330D01*
X60682Y56302D01*
X61258Y55861D01*
X61928Y55583D01*
X62648Y55488D01*
X63367Y55583D01*
X64038Y55861D01*
X64613Y56302D01*
X65055Y56878D01*
X65333Y57548D01*
X65427Y58268D01*
X65333Y58987D01*
X65055Y59658D01*
X64613Y60233D01*
X64038Y60675D01*
X63367Y60953D01*
X62648Y61047D01*
X61928Y60953D01*
X61258Y60675D01*
X60866Y60374D01*
X54999D01*
X54877Y60533D01*
X54302Y60975D01*
X53631Y61253D01*
X52912Y61348D01*
D02*
G37*
G36*
X11614Y43817D02*
Y39173D01*
X16258D01*
X16192Y39679D01*
X15616Y41068D01*
X14701Y42260D01*
X13509Y43176D01*
X12120Y43751D01*
X11614Y43817D01*
D02*
G37*
G36*
X9646D02*
X9140Y43751D01*
X7751Y43176D01*
X6559Y42260D01*
X5643Y41068D01*
X5068Y39679D01*
X5002Y39173D01*
X9646D01*
Y43817D01*
D02*
G37*
G36*
X16258Y37205D02*
X11614D01*
Y32561D01*
X12120Y32627D01*
X13509Y33202D01*
X14701Y34117D01*
X15616Y35310D01*
X16192Y36699D01*
X16258Y37205D01*
D02*
G37*
G36*
X9646D02*
X5002D01*
X5068Y36699D01*
X5643Y35310D01*
X6559Y34117D01*
X7751Y33202D01*
X9140Y32627D01*
X9646Y32561D01*
Y37205D01*
D02*
G37*
G36*
X227953Y107115D02*
X226795Y107001D01*
X225682Y106664D01*
X224656Y106115D01*
X223757Y105377D01*
X223019Y104478D01*
X222470Y103452D01*
X222133Y102339D01*
X222019Y101181D01*
X222133Y100023D01*
X222470Y98910D01*
X223019Y97884D01*
X223757Y96985D01*
X224656Y96247D01*
X224776Y96183D01*
Y43187D01*
X224656Y43123D01*
X223757Y42385D01*
X223019Y41486D01*
X222470Y40460D01*
X222133Y39347D01*
X222019Y38189D01*
X222133Y37031D01*
X222470Y35918D01*
X223019Y34892D01*
X223757Y33993D01*
X224656Y33255D01*
X225682Y32707D01*
X226795Y32369D01*
X227953Y32255D01*
X229110Y32369D01*
X230224Y32707D01*
X231250Y33255D01*
X232149Y33993D01*
X232887Y34892D01*
X233435Y35918D01*
X233773Y37031D01*
X233887Y38189D01*
X233773Y39347D01*
X233435Y40460D01*
X232887Y41486D01*
X232149Y42385D01*
X231250Y43123D01*
X231130Y43187D01*
Y96183D01*
X231250Y96247D01*
X232149Y96985D01*
X232887Y97884D01*
X233435Y98910D01*
X233773Y100023D01*
X233887Y101181D01*
X233773Y102339D01*
X233435Y103452D01*
X232887Y104478D01*
X232149Y105377D01*
X231250Y106115D01*
X230224Y106664D01*
X229110Y107001D01*
X227953Y107115D01*
D02*
G37*
G36*
X199409Y45706D02*
X197943Y45561D01*
X196533Y45133D01*
X195234Y44439D01*
X194095Y43504D01*
X193160Y42365D01*
X192465Y41065D01*
X192037Y39655D01*
X191893Y38189D01*
X192037Y36723D01*
X192465Y35313D01*
X193160Y34013D01*
X194095Y32874D01*
X195234Y31939D01*
X196533Y31245D01*
X197943Y30817D01*
X199409Y30672D01*
X200876Y30817D01*
X202286Y31245D01*
X203585Y31939D01*
X204724Y32874D01*
X205659Y34013D01*
X206354Y35313D01*
X206782Y36723D01*
X206926Y38189D01*
X206782Y39655D01*
X206354Y41065D01*
X205659Y42365D01*
X204724Y43504D01*
X203585Y44439D01*
X202286Y45133D01*
X200876Y45561D01*
X199409Y45706D01*
D02*
G37*
G36*
X39173D02*
X37707Y45561D01*
X36297Y45133D01*
X34997Y44439D01*
X33858Y43504D01*
X32923Y42365D01*
X32229Y41065D01*
X31801Y39655D01*
X31657Y38189D01*
X31801Y36723D01*
X32229Y35313D01*
X32923Y34013D01*
X33858Y32874D01*
X34997Y31939D01*
X36297Y31245D01*
X37707Y30817D01*
X39173Y30672D01*
X40640Y30817D01*
X42050Y31245D01*
X43349Y31939D01*
X44488Y32874D01*
X45423Y34013D01*
X46118Y35313D01*
X46545Y36723D01*
X46690Y38189D01*
X46545Y39655D01*
X46118Y41065D01*
X45423Y42365D01*
X44488Y43504D01*
X43349Y44439D01*
X42050Y45133D01*
X40640Y45561D01*
X39173Y45706D01*
D02*
G37*
G36*
X260447Y19745D02*
X259060Y19562D01*
X257767Y19027D01*
X256656Y18175D01*
X255804Y17064D01*
X255269Y15772D01*
X255086Y14384D01*
X255269Y12997D01*
X255804Y11704D01*
X256656Y10593D01*
X257767Y9742D01*
X259060Y9206D01*
X260447Y9023D01*
X261835Y9206D01*
X263127Y9742D01*
X264238Y10593D01*
X265090Y11704D01*
X265625Y12997D01*
X265808Y14384D01*
X265625Y15772D01*
X265090Y17064D01*
X264238Y18175D01*
X263127Y19027D01*
X261835Y19562D01*
X260447Y19745D01*
D02*
G37*
%LPD*%
D11*
X22441Y285473D02*
Y293504D01*
X13780Y285835D02*
Y293504D01*
X228346Y264567D02*
X232677D01*
X232731Y264513D01*
X39764Y285630D02*
Y293504D01*
Y285630D02*
X39961Y285433D01*
X232731Y264513D02*
Y266196D01*
X232677Y264567D02*
Y274410D01*
X253661Y132677D02*
X254055Y132283D01*
X13780Y293504D02*
X13780Y293504D01*
X9449Y285827D02*
Y293504D01*
Y285827D02*
X9449Y285827D01*
D14*
X232677Y264567D02*
D03*
X238189D02*
D03*
D15*
X251575Y364173D02*
D03*
X21850D02*
D03*
D16*
X237825D02*
D03*
X265325D02*
D03*
X8100D02*
D03*
X35600D02*
D03*
D17*
X54528Y358415D02*
D03*
D18*
X48720Y364419D02*
D03*
X60335D02*
D03*
D19*
X56890Y308661D02*
D03*
X172244D02*
D03*
D20*
X35039Y342126D02*
D03*
X29527D02*
D03*
D21*
X22343Y344882D02*
D03*
Y339370D02*
D03*
X15256Y344882D02*
D03*
Y339370D02*
D03*
D22*
X35630Y276772D02*
D03*
X28937D02*
D03*
D23*
X28346Y284646D02*
D03*
X35433D02*
D03*
D24*
X5118Y293504D02*
D03*
X39764D02*
D03*
Y330906D02*
D03*
X5118D02*
D03*
D25*
X9449Y293504D02*
D03*
X13780D02*
D03*
X18110D02*
D03*
X22441D02*
D03*
X26772D02*
D03*
X31102D02*
D03*
X35433D02*
D03*
Y330906D02*
D03*
X31102D02*
D03*
X26772D02*
D03*
X22441D02*
D03*
X18110D02*
D03*
X13780D02*
D03*
X9449D02*
D03*
D26*
X253543Y244882D02*
D03*
X250787D02*
D03*
D27*
X201181Y274410D02*
D03*
X209055D02*
D03*
X216929D02*
D03*
X224803D02*
D03*
X232677D02*
D03*
X240551D02*
D03*
X248425D02*
D03*
X256299D02*
D03*
Y332677D02*
D03*
X248425D02*
D03*
X240551D02*
D03*
X232677D02*
D03*
X224803D02*
D03*
X216929D02*
D03*
X209055D02*
D03*
X201181D02*
D03*
D51*
X266142Y186221D02*
D03*
X75408Y360025D02*
D03*
X260447Y14384D02*
D03*
D52*
X64961Y130033D02*
Y172835D01*
X80650Y104783D02*
X92913Y92520D01*
X77165Y117717D02*
X80650Y114232D01*
Y104783D02*
Y114232D01*
X64961Y130033D02*
X77165Y117828D01*
Y117717D02*
Y117828D01*
X92913Y82677D02*
Y92520D01*
X70866Y132677D02*
X85282Y118261D01*
Y117318D02*
X85358Y117243D01*
X85282Y117318D02*
Y118261D01*
X85358Y107162D02*
Y117243D01*
X70866Y132677D02*
Y170866D01*
X92913Y99606D02*
X146850D01*
X157087Y109843D01*
X85358Y107162D02*
X92913Y99606D01*
X46850Y276772D02*
X51575Y272047D01*
Y220866D02*
Y272047D01*
X35630Y276772D02*
X46850D01*
X194095Y321728D02*
Y322047D01*
X192913Y320547D02*
X194095Y321728D01*
X192913Y269291D02*
Y320547D01*
X64961Y172835D02*
Y207480D01*
X118504Y194882D02*
X192913Y269291D01*
X87008Y194882D02*
X118504D01*
X64961Y172835D02*
X87008Y194882D01*
X35630Y276772D02*
Y284449D01*
X35433Y284646D02*
X35630Y284449D01*
X31102Y293504D02*
X35433D01*
Y284646D02*
Y293504D01*
X51575Y220866D02*
X64961Y207480D01*
X157087Y129921D02*
Y166535D01*
X162992Y172441D01*
X157087Y109843D02*
Y129921D01*
X70866Y170866D02*
X89764Y189764D01*
X110236D01*
D53*
X62648Y58268D02*
X62785D01*
X63086Y58568D01*
X52912D02*
X63086D01*
X224747Y260881D02*
Y268054D01*
X224803Y268110D01*
X216929Y261086D02*
Y274409D01*
X216929Y274410D02*
X216929Y274409D01*
X209055Y260842D02*
Y274410D01*
X209017Y260804D02*
X209055Y260842D01*
X217717Y156299D02*
X222441D01*
X225590Y153150D01*
X214173Y144488D02*
Y152658D01*
X220768Y143759D02*
Y152658D01*
X220768Y143759D02*
X220768Y143759D01*
X214173Y144488D02*
X231889Y126771D01*
X220768Y143759D02*
X231850Y132677D01*
X211811Y245276D02*
X250394D01*
X225590Y146063D02*
Y153150D01*
X238189Y264567D02*
X238189Y264567D01*
Y259842D02*
Y264567D01*
X240158Y256299D02*
X243307Y259449D01*
X195276Y256299D02*
X240158D01*
X22441Y330906D02*
Y339272D01*
X22343Y339370D02*
X22441Y339272D01*
X26378Y342817D02*
Y343701D01*
X29232Y342421D02*
X29527Y342126D01*
X26774Y342421D02*
X29232D01*
X26378Y342817D02*
X26774Y342421D01*
X25196Y344882D02*
X25588Y344491D01*
X25588D01*
X26378Y343701D01*
X22343Y344882D02*
X25196D01*
X15256D02*
X22343D01*
X181426Y121724D02*
Y131721D01*
X169959Y143188D02*
X181426Y131721D01*
X141339Y125197D02*
Y207652D01*
X139885Y209105D02*
X141339Y207652D01*
X139885Y209105D02*
Y209328D01*
X125197Y191732D02*
Y192126D01*
X115354Y189764D02*
X123228D01*
X125197Y191732D01*
X243307Y259449D02*
Y266142D01*
X240551Y268898D02*
Y274410D01*
Y268898D02*
X243307Y266142D01*
X266457Y224803D02*
Y237874D01*
X253543Y244882D02*
X259449D01*
X266457Y237874D01*
X250787Y224882D02*
Y244882D01*
Y224882D02*
X250866Y224803D01*
X225590Y146063D02*
X232284Y139370D01*
X235433D01*
X245669Y159843D02*
X248110Y162284D01*
X235433Y139370D02*
X245669Y149607D01*
Y159843D01*
X244252Y142283D02*
X254055D01*
X238583Y136614D02*
X244252Y142283D01*
X231850Y132677D02*
X253661D01*
X224803Y268110D02*
X224803Y268110D01*
X224803Y268110D02*
Y274410D01*
X264055Y152284D02*
X269606D01*
X271959Y154636D02*
Y170778D01*
X269606Y152284D02*
X271959Y154636D01*
X249067Y122283D02*
X254055D01*
X231889Y126771D02*
X244579D01*
X249067Y122283D01*
X248110Y162284D02*
X254055D01*
X264055Y96339D02*
Y102284D01*
X262598Y94882D02*
X264055Y96339D01*
X248819Y94882D02*
X262598D01*
X244488Y99213D02*
Y105512D01*
Y99213D02*
X248819Y94882D01*
D54*
X5118Y282677D02*
Y293504D01*
X11024Y276772D02*
X28937D01*
X5118Y282677D02*
X11024Y276772D01*
X28346Y277362D02*
Y284646D01*
Y277362D02*
X28937Y276772D01*
X264124Y163691D02*
Y174999D01*
X263386Y162953D02*
X264124Y163691D01*
X263386Y162953D02*
X264055Y162284D01*
X224629Y332851D02*
X224803Y332677D01*
X224629Y332851D02*
Y339151D01*
X224410Y339370D02*
X224629Y339151D01*
X236221Y346063D02*
X251575D01*
X212205Y356693D02*
X225591D01*
X236221Y346063D01*
X251575D02*
Y364173D01*
X256299Y332677D02*
Y341339D01*
X251575Y346063D02*
X256299Y341339D01*
X51181Y348819D02*
X54528Y352165D01*
Y358415D01*
X36220Y348819D02*
X51181D01*
X35039Y347638D02*
X36220Y348819D01*
X23004Y350787D02*
X31890D01*
X21850Y351940D02*
Y364173D01*
Y351940D02*
X23004Y350787D01*
X31890D02*
X35039Y347638D01*
Y342126D02*
Y347638D01*
Y337008D02*
Y342126D01*
Y337008D02*
X35433Y336614D01*
Y330906D02*
Y336614D01*
X56890Y306772D02*
Y308661D01*
Y222244D02*
Y306772D01*
Y222244D02*
X81102Y198031D01*
X52756Y302638D02*
X56890Y306772D01*
X50866Y302638D02*
X52756D01*
X48622Y300394D02*
X50866Y302638D01*
X29134Y300394D02*
X48622D01*
X27186Y298446D02*
X29134Y300394D01*
X26772Y293504D02*
X27186Y293919D01*
Y298446D01*
X216929Y332677D02*
Y338837D01*
X216535Y339231D02*
X216929Y338837D01*
X216535Y339231D02*
Y339764D01*
D55*
X87008Y124409D02*
X87422Y124824D01*
X88603D01*
X97638Y133858D01*
D56*
X227953Y164173D02*
Y227165D01*
X21654Y157087D02*
Y216142D01*
X10630Y227165D02*
X21654Y216142D01*
X227953Y38189D02*
Y101181D01*
X10630Y146063D02*
X21654Y157087D01*
X10630Y101181D02*
Y146063D01*
D57*
Y82677D02*
X16929Y76378D01*
X10630Y82677D02*
Y101181D01*
D58*
X237825Y358297D02*
D03*
X265325D02*
D03*
X8100D02*
D03*
X35600D02*
D03*
D59*
X266457Y224803D02*
D03*
D60*
X250866D02*
D03*
D61*
X10630Y227165D02*
D03*
X227953D02*
D03*
Y38189D02*
D03*
X10630Y101181D02*
D03*
Y164173D02*
D03*
Y38189D02*
D03*
X227953Y164173D02*
D03*
Y101181D02*
D03*
X222205Y366693D02*
D03*
Y346693D02*
D03*
X202205D02*
D03*
Y366693D02*
D03*
D62*
X39173Y38189D02*
D03*
X199409D02*
D03*
X39173Y227165D02*
D03*
D63*
X199409D02*
D03*
D64*
X212205Y356693D02*
D03*
D65*
X264055Y132283D02*
D03*
X254055D02*
D03*
X264055Y142283D02*
D03*
X254055D02*
D03*
X264055Y152284D02*
D03*
X254055D02*
D03*
X264055Y162284D02*
D03*
X254055Y122283D02*
D03*
X264055D02*
D03*
X254055Y112284D02*
D03*
X264055D02*
D03*
X254055Y102284D02*
D03*
X264055D02*
D03*
D66*
X254055Y162284D02*
D03*
D67*
X272301Y352576D02*
D03*
X267379Y342733D02*
D03*
X272301Y332891D02*
D03*
X267379Y323048D02*
D03*
X272301Y313206D02*
D03*
X267379Y303363D02*
D03*
X272301Y293520D02*
D03*
X267379Y283678D02*
D03*
X272301Y273835D02*
D03*
X267379Y263993D02*
D03*
X272301Y254150D02*
D03*
X267379Y244308D02*
D03*
X272301Y234465D02*
D03*
Y214780D02*
D03*
X267379Y204938D02*
D03*
X272301Y195095D02*
D03*
Y175410D02*
D03*
Y136040D02*
D03*
Y116355D02*
D03*
Y96670D02*
D03*
X267379Y86827D02*
D03*
X272301Y76985D02*
D03*
X267379Y67142D02*
D03*
X272301Y57300D02*
D03*
X267379Y47458D02*
D03*
X272301Y37615D02*
D03*
X267379Y27772D02*
D03*
X272301Y17930D02*
D03*
X267379Y8087D02*
D03*
X262458Y332891D02*
D03*
Y313206D02*
D03*
Y293520D02*
D03*
Y273835D02*
D03*
X257537Y263993D02*
D03*
X262458Y254150D02*
D03*
X257537Y244308D02*
D03*
X262458Y234465D02*
D03*
Y214780D02*
D03*
X257537Y204938D02*
D03*
X262458Y195095D02*
D03*
X257537Y185253D02*
D03*
Y86827D02*
D03*
X262458Y76985D02*
D03*
X257537Y67142D02*
D03*
X262458Y57300D02*
D03*
X257537Y47458D02*
D03*
X262458Y37615D02*
D03*
X257537Y27772D02*
D03*
Y8087D02*
D03*
X247694Y263993D02*
D03*
X252616Y254150D02*
D03*
Y214780D02*
D03*
X247694Y204938D02*
D03*
X252616Y195095D02*
D03*
X247694Y185253D02*
D03*
Y145883D02*
D03*
Y86827D02*
D03*
X252616Y76985D02*
D03*
X247694Y67142D02*
D03*
X252616Y57300D02*
D03*
X247694Y47458D02*
D03*
X252616Y37615D02*
D03*
X247694Y27772D02*
D03*
X252616Y17930D02*
D03*
X247694Y8087D02*
D03*
X242773Y234465D02*
D03*
X237852Y224623D02*
D03*
X242773Y214780D02*
D03*
X237852Y204938D02*
D03*
X242773Y195095D02*
D03*
X237852Y185253D02*
D03*
X242773Y175410D02*
D03*
X237852Y165568D02*
D03*
Y106513D02*
D03*
Y86827D02*
D03*
X242773Y76985D02*
D03*
X237852Y67142D02*
D03*
X242773Y57300D02*
D03*
X237852Y47458D02*
D03*
X242773Y37615D02*
D03*
X237852Y27772D02*
D03*
X242773Y17930D02*
D03*
X237852Y8087D02*
D03*
X232931Y234465D02*
D03*
Y214780D02*
D03*
Y195095D02*
D03*
Y175410D02*
D03*
Y155725D02*
D03*
Y116355D02*
D03*
Y76985D02*
D03*
Y57300D02*
D03*
X228009Y27772D02*
D03*
X232931Y17930D02*
D03*
X228009Y8087D02*
D03*
X223088Y116355D02*
D03*
X218167Y106513D02*
D03*
Y86827D02*
D03*
X223088Y76985D02*
D03*
X218167Y67142D02*
D03*
X223088Y57300D02*
D03*
X218167Y47458D02*
D03*
Y27772D02*
D03*
X223088Y17930D02*
D03*
X218167Y8087D02*
D03*
X208324Y224623D02*
D03*
Y204938D02*
D03*
Y185253D02*
D03*
Y165568D02*
D03*
X213246Y136040D02*
D03*
Y116355D02*
D03*
X208324Y106513D02*
D03*
X213246Y96670D02*
D03*
X208324Y86827D02*
D03*
X213246Y76985D02*
D03*
X208324Y67142D02*
D03*
X213246Y57300D02*
D03*
X208324Y47458D02*
D03*
X213246Y37615D02*
D03*
X208324Y27772D02*
D03*
X213246Y17930D02*
D03*
X208324Y8087D02*
D03*
X203403Y214780D02*
D03*
X198482Y204938D02*
D03*
X203403Y195095D02*
D03*
X198482Y185253D02*
D03*
X203403Y175410D02*
D03*
X198482Y165568D02*
D03*
X203403Y155725D02*
D03*
Y136040D02*
D03*
Y116355D02*
D03*
X198482Y106513D02*
D03*
X203403Y96670D02*
D03*
X198482Y86827D02*
D03*
X203403Y76985D02*
D03*
X198482Y67142D02*
D03*
X203403Y57300D02*
D03*
X198482Y47458D02*
D03*
Y27772D02*
D03*
X203403Y17930D02*
D03*
X198482Y8087D02*
D03*
X188639Y362418D02*
D03*
X193561Y352576D02*
D03*
X188639Y342733D02*
D03*
X193561Y332891D02*
D03*
X188639Y323048D02*
D03*
Y303363D02*
D03*
Y283678D02*
D03*
X193561Y234465D02*
D03*
X188639Y224623D02*
D03*
X193561Y214780D02*
D03*
X188639Y204938D02*
D03*
X193561Y195095D02*
D03*
X188639Y185253D02*
D03*
X193561Y175410D02*
D03*
X188639Y165568D02*
D03*
X193561Y155725D02*
D03*
Y136040D02*
D03*
Y116355D02*
D03*
X188639Y106513D02*
D03*
X193561Y96670D02*
D03*
X188639Y86827D02*
D03*
X193561Y76985D02*
D03*
X188639Y67142D02*
D03*
X193561Y57300D02*
D03*
X188639Y47458D02*
D03*
Y27772D02*
D03*
X193561Y17930D02*
D03*
X188639Y8087D02*
D03*
X178797Y362418D02*
D03*
X183718Y352576D02*
D03*
X178797Y342733D02*
D03*
X183718Y332891D02*
D03*
X178797Y323048D02*
D03*
X183718Y313206D02*
D03*
Y293520D02*
D03*
X178797Y283678D02*
D03*
X183718Y273835D02*
D03*
X178797Y263993D02*
D03*
X183718Y234465D02*
D03*
X178797Y224623D02*
D03*
X183718Y214780D02*
D03*
X178797Y204938D02*
D03*
X183718Y195095D02*
D03*
X178797Y185253D02*
D03*
X183718Y175410D02*
D03*
X178797Y165568D02*
D03*
X183718Y155725D02*
D03*
Y136040D02*
D03*
Y116355D02*
D03*
X178797Y106513D02*
D03*
X183718Y96670D02*
D03*
X178797Y86827D02*
D03*
X183718Y76985D02*
D03*
X178797Y67142D02*
D03*
X183718Y57300D02*
D03*
X178797Y47458D02*
D03*
X183718Y37615D02*
D03*
X178797Y27772D02*
D03*
X183718Y17930D02*
D03*
X178797Y8087D02*
D03*
X168954Y362418D02*
D03*
X173876Y352576D02*
D03*
X168954Y342733D02*
D03*
X173876Y332891D02*
D03*
X168954Y323048D02*
D03*
X173876Y293520D02*
D03*
X168954Y283678D02*
D03*
X173876Y273835D02*
D03*
X168954Y263993D02*
D03*
X173876Y214780D02*
D03*
X168954Y204938D02*
D03*
X173876Y195095D02*
D03*
X168954Y185253D02*
D03*
X173876Y175410D02*
D03*
X168954Y165568D02*
D03*
Y126198D02*
D03*
Y106513D02*
D03*
X173876Y96670D02*
D03*
X168954Y86827D02*
D03*
X173876Y76985D02*
D03*
X168954Y67142D02*
D03*
X173876Y57300D02*
D03*
X168954Y47458D02*
D03*
X173876Y37615D02*
D03*
X168954Y27772D02*
D03*
X173876Y17930D02*
D03*
X168954Y8087D02*
D03*
X159112Y362418D02*
D03*
X164033Y352576D02*
D03*
X159112Y342733D02*
D03*
X164033Y332891D02*
D03*
X159112Y323048D02*
D03*
X164033Y313206D02*
D03*
X159112Y303363D02*
D03*
X164033Y293520D02*
D03*
X159112Y283678D02*
D03*
X164033Y273835D02*
D03*
X159112Y263993D02*
D03*
X164033Y254150D02*
D03*
X159112Y244308D02*
D03*
X164033Y214780D02*
D03*
X159112Y204938D02*
D03*
X164033Y195095D02*
D03*
X159112Y185253D02*
D03*
X164033Y96670D02*
D03*
X159112Y86827D02*
D03*
X164033Y76985D02*
D03*
X159112Y67142D02*
D03*
X164033Y57300D02*
D03*
X159112Y47458D02*
D03*
X164033Y37615D02*
D03*
X159112Y27772D02*
D03*
X164033Y17930D02*
D03*
X159112Y8087D02*
D03*
X149269Y362418D02*
D03*
X154191Y352576D02*
D03*
X149269Y342733D02*
D03*
X154191Y332891D02*
D03*
X149269Y323048D02*
D03*
X154191Y313206D02*
D03*
X149269Y303363D02*
D03*
X154191Y293520D02*
D03*
X149269Y283678D02*
D03*
X154191Y273835D02*
D03*
X149269Y263993D02*
D03*
X154191Y254150D02*
D03*
X149269Y244308D02*
D03*
X154191Y195095D02*
D03*
X149269Y126198D02*
D03*
X154191Y96670D02*
D03*
X149269Y86827D02*
D03*
X154191Y76985D02*
D03*
X149269Y67142D02*
D03*
X154191Y57300D02*
D03*
X149269Y47458D02*
D03*
X154191Y37615D02*
D03*
X149269Y27772D02*
D03*
X154191Y17930D02*
D03*
X149269Y8087D02*
D03*
X139427Y362418D02*
D03*
X144348Y352576D02*
D03*
X139427Y342733D02*
D03*
X144348Y332891D02*
D03*
X139427Y323048D02*
D03*
X144348Y313206D02*
D03*
X139427Y303363D02*
D03*
X144348Y293520D02*
D03*
X139427Y283678D02*
D03*
X144348Y273835D02*
D03*
X139427Y263993D02*
D03*
X144348Y254150D02*
D03*
X139427Y244308D02*
D03*
X144348Y234465D02*
D03*
X139427Y224623D02*
D03*
Y106513D02*
D03*
Y86827D02*
D03*
X144348Y76985D02*
D03*
X139427Y67142D02*
D03*
X144348Y57300D02*
D03*
X139427Y47458D02*
D03*
X144348Y37615D02*
D03*
X139427Y27772D02*
D03*
X144348Y17930D02*
D03*
X139427Y8087D02*
D03*
X129584Y362418D02*
D03*
X134505Y352576D02*
D03*
X129584Y342733D02*
D03*
X134505Y332891D02*
D03*
X129584Y283678D02*
D03*
X134505Y273835D02*
D03*
X129584Y263993D02*
D03*
X134505Y254150D02*
D03*
X129584Y244308D02*
D03*
X134505Y234465D02*
D03*
X129584Y224623D02*
D03*
Y106513D02*
D03*
Y86827D02*
D03*
X134505Y76985D02*
D03*
X129584Y67142D02*
D03*
X134505Y57300D02*
D03*
X129584Y47458D02*
D03*
X134505Y37615D02*
D03*
X129584Y27772D02*
D03*
X134505Y17930D02*
D03*
X129584Y8087D02*
D03*
X119742Y362418D02*
D03*
X124663Y352576D02*
D03*
X119742Y342733D02*
D03*
X124663Y332891D02*
D03*
X119742Y283678D02*
D03*
X124663Y273835D02*
D03*
X119742Y263993D02*
D03*
X124663Y254150D02*
D03*
X119742Y244308D02*
D03*
X124663Y234465D02*
D03*
X119742Y224623D02*
D03*
X124663Y214780D02*
D03*
X119742Y204938D02*
D03*
Y106513D02*
D03*
Y86827D02*
D03*
X124663Y76985D02*
D03*
X119742Y67142D02*
D03*
X124663Y57300D02*
D03*
X119742Y47458D02*
D03*
X124663Y37615D02*
D03*
X119742Y27772D02*
D03*
X124663Y17930D02*
D03*
X119742Y8087D02*
D03*
X109899Y362418D02*
D03*
X114821Y352576D02*
D03*
X109899Y342733D02*
D03*
X114821Y332891D02*
D03*
X109899Y283678D02*
D03*
X114821Y273835D02*
D03*
X109899Y263993D02*
D03*
X114821Y254150D02*
D03*
X109899Y244308D02*
D03*
X114821Y234465D02*
D03*
X109899Y224623D02*
D03*
X114821Y214780D02*
D03*
X109899Y204938D02*
D03*
Y106513D02*
D03*
Y86827D02*
D03*
X114821Y76985D02*
D03*
X109899Y67142D02*
D03*
X114821Y57300D02*
D03*
X109899Y47458D02*
D03*
X114821Y37615D02*
D03*
X109899Y27772D02*
D03*
X114821Y17930D02*
D03*
X109899Y8087D02*
D03*
X100057Y362418D02*
D03*
X104978Y352576D02*
D03*
X100057Y342733D02*
D03*
X104978Y332891D02*
D03*
X100057Y283678D02*
D03*
X104978Y273835D02*
D03*
X100057Y263993D02*
D03*
X104978Y254150D02*
D03*
X100057Y244308D02*
D03*
X104978Y234465D02*
D03*
Y214780D02*
D03*
X100057Y185253D02*
D03*
X104978Y175410D02*
D03*
Y76985D02*
D03*
Y57300D02*
D03*
X100057Y47458D02*
D03*
X104978Y37615D02*
D03*
X100057Y27772D02*
D03*
X104978Y17930D02*
D03*
X100057Y8087D02*
D03*
X90214Y362418D02*
D03*
X95135Y352576D02*
D03*
X90214Y342733D02*
D03*
X95135Y332891D02*
D03*
X90214Y323048D02*
D03*
Y303363D02*
D03*
Y283678D02*
D03*
X95135Y273835D02*
D03*
X90214Y263993D02*
D03*
X95135Y254150D02*
D03*
X90214Y244308D02*
D03*
X95135Y234465D02*
D03*
Y57300D02*
D03*
X90214Y47458D02*
D03*
X95135Y37615D02*
D03*
X90214Y27772D02*
D03*
X95135Y17930D02*
D03*
X90214Y8087D02*
D03*
X85293Y352576D02*
D03*
X80372Y342733D02*
D03*
X85293Y332891D02*
D03*
X80372Y323048D02*
D03*
X85293Y313206D02*
D03*
X80372Y303363D02*
D03*
X85293Y293520D02*
D03*
X80372Y283678D02*
D03*
X85293Y273835D02*
D03*
X80372Y263993D02*
D03*
X85293Y254150D02*
D03*
X80372Y244308D02*
D03*
Y224623D02*
D03*
Y86827D02*
D03*
X85293Y57300D02*
D03*
X80372Y47458D02*
D03*
X85293Y37615D02*
D03*
X80372Y27772D02*
D03*
X85293Y17930D02*
D03*
X80372Y8087D02*
D03*
X75450Y352576D02*
D03*
X70529Y342733D02*
D03*
X75450Y332891D02*
D03*
X70529Y323048D02*
D03*
X75450Y313206D02*
D03*
X70529Y303363D02*
D03*
X75450Y293520D02*
D03*
X70529Y283678D02*
D03*
X75450Y273835D02*
D03*
X70529Y263993D02*
D03*
X75450Y254150D02*
D03*
X70529Y244308D02*
D03*
Y224623D02*
D03*
X75450Y195095D02*
D03*
X70529Y47458D02*
D03*
X75450Y37615D02*
D03*
X70529Y27772D02*
D03*
X75450Y17930D02*
D03*
X70529Y8087D02*
D03*
X65608Y352576D02*
D03*
X60687Y342733D02*
D03*
X65608Y332891D02*
D03*
X60687Y323048D02*
D03*
X65608Y313206D02*
D03*
Y293520D02*
D03*
Y273835D02*
D03*
Y254150D02*
D03*
X60687Y204938D02*
D03*
Y185253D02*
D03*
Y165568D02*
D03*
Y145883D02*
D03*
Y126198D02*
D03*
X65608Y116355D02*
D03*
X60687Y47458D02*
D03*
X65608Y37615D02*
D03*
X60687Y27772D02*
D03*
X65608Y17930D02*
D03*
X60687Y8087D02*
D03*
X50844Y342733D02*
D03*
X55765Y332891D02*
D03*
X50844Y323048D02*
D03*
Y204938D02*
D03*
X55765Y195095D02*
D03*
X50844Y185253D02*
D03*
X55765Y175410D02*
D03*
X50844Y165568D02*
D03*
X55765Y155725D02*
D03*
X50844Y145883D02*
D03*
X55765Y136040D02*
D03*
X50844Y126198D02*
D03*
X55765Y116355D02*
D03*
X50844Y106513D02*
D03*
Y47458D02*
D03*
X55765Y37615D02*
D03*
X50844Y27772D02*
D03*
X55765Y17930D02*
D03*
X50844Y8087D02*
D03*
X41001Y342733D02*
D03*
X45923Y332891D02*
D03*
Y313206D02*
D03*
X41001Y244308D02*
D03*
X45923Y234465D02*
D03*
Y214780D02*
D03*
X41001Y204938D02*
D03*
X45923Y195095D02*
D03*
X41001Y185253D02*
D03*
X45923Y175410D02*
D03*
X41001Y165568D02*
D03*
X45923Y155725D02*
D03*
X41001Y145883D02*
D03*
X45923Y136040D02*
D03*
X41001Y126198D02*
D03*
X45923Y116355D02*
D03*
X41001Y106513D02*
D03*
Y47458D02*
D03*
Y27772D02*
D03*
X45923Y17930D02*
D03*
X41001Y8087D02*
D03*
X31159Y244308D02*
D03*
X36080Y214780D02*
D03*
X31159Y204938D02*
D03*
X36080Y195095D02*
D03*
X31159Y185253D02*
D03*
X36080Y175410D02*
D03*
X31159Y165568D02*
D03*
X36080Y155725D02*
D03*
X31159Y145883D02*
D03*
X36080Y136040D02*
D03*
X31159Y126198D02*
D03*
X36080Y116355D02*
D03*
X31159Y106513D02*
D03*
X36080Y96670D02*
D03*
X31159Y86827D02*
D03*
X36080Y57300D02*
D03*
X31159Y47458D02*
D03*
Y27772D02*
D03*
X36080Y17930D02*
D03*
X31159Y8087D02*
D03*
X21317Y263993D02*
D03*
X26238Y254150D02*
D03*
X21317Y244308D02*
D03*
X26238Y234465D02*
D03*
X21317Y224623D02*
D03*
X26238Y155725D02*
D03*
X21317Y145883D02*
D03*
X26238Y136040D02*
D03*
X21317Y126198D02*
D03*
X26238Y116355D02*
D03*
X21317Y106513D02*
D03*
X26238Y96670D02*
D03*
X21317Y86827D02*
D03*
Y67142D02*
D03*
X26238Y57300D02*
D03*
X21317Y47458D02*
D03*
X26238Y37615D02*
D03*
X21317Y27772D02*
D03*
X26238Y17930D02*
D03*
X21317Y8087D02*
D03*
X16395Y352576D02*
D03*
X11474Y263993D02*
D03*
X16395Y254150D02*
D03*
X11474Y244308D02*
D03*
X16395Y234465D02*
D03*
X11474Y204938D02*
D03*
X16395Y195095D02*
D03*
X11474Y185253D02*
D03*
X16395Y175410D02*
D03*
Y136040D02*
D03*
Y116355D02*
D03*
X11474Y67142D02*
D03*
X16395Y57300D02*
D03*
X11474Y47458D02*
D03*
Y27772D02*
D03*
X16395Y17930D02*
D03*
X11474Y8087D02*
D03*
X85358Y117243D02*
D03*
X72441Y90551D02*
D03*
X39764Y91732D02*
D03*
X41732Y58268D02*
D03*
X71653Y57874D02*
D03*
X62648Y58268D02*
D03*
X52912Y58568D02*
D03*
X224747Y260881D02*
D03*
X216929Y261086D02*
D03*
X209017Y260804D02*
D03*
X30709Y337402D02*
D03*
X5906Y275984D02*
D03*
X28346Y220472D02*
D03*
X148031Y173228D02*
D03*
X152756Y177559D02*
D03*
X146063Y177953D02*
D03*
X124803Y160236D02*
D03*
X146457Y133071D02*
D03*
X162992Y128347D02*
D03*
X173436Y132419D02*
D03*
X169291Y137008D02*
D03*
X79134Y131102D02*
D03*
X87795Y138583D02*
D03*
X79921Y173228D02*
D03*
X75197Y154331D02*
D03*
X83858D02*
D03*
X152362Y204724D02*
D03*
X135827Y124803D02*
D03*
X129528D02*
D03*
X122835D02*
D03*
X103162Y130725D02*
D03*
X109055Y120472D02*
D03*
X94488Y146063D02*
D03*
X125591Y153543D02*
D03*
X118898Y155905D02*
D03*
X132283Y151181D02*
D03*
Y155905D02*
D03*
X118704Y146908D02*
D03*
X123228Y146850D02*
D03*
X194095Y322047D02*
D03*
X92913Y82677D02*
D03*
Y99606D02*
D03*
X264124Y174999D02*
D03*
X217717Y156299D02*
D03*
X214173Y152658D02*
D03*
X220768D02*
D03*
X211811Y245276D02*
D03*
X110236Y189764D02*
D03*
X162992Y172441D02*
D03*
X157087Y129921D02*
D03*
X70866Y170866D02*
D03*
X238189Y259842D02*
D03*
X224410Y339370D02*
D03*
X22441Y285473D02*
D03*
X13780Y285835D02*
D03*
X169959Y143188D02*
D03*
X181426Y121724D02*
D03*
X216535Y339764D02*
D03*
X139885Y209328D02*
D03*
X141339Y125197D02*
D03*
X125197Y192126D02*
D03*
X115354Y189764D02*
D03*
X195276Y256299D02*
D03*
X235433Y139370D02*
D03*
X238583Y136614D02*
D03*
X228346Y264567D02*
D03*
X271959Y170778D02*
D03*
X39961Y285433D02*
D03*
X231889Y126771D02*
D03*
X231850Y132677D02*
D03*
X244488Y105512D02*
D03*
X9449Y285827D02*
D03*
X87008Y124409D02*
D03*
X81102Y198031D02*
D03*
X97638Y133858D02*
D03*
X16929Y76378D02*
D03*
D68*
X237825Y352421D02*
D03*
X265325D02*
D03*
X8100D02*
D03*
X35600D02*
D03*
M02*
