M48
;Layer_Color=9474304
;FILE_FORMAT=2:5
INCH,LZ
;TYPE=PLATED
T1F00S00C0.01575
T2F00S00C0.04331
T3F00S00C0.05118
T4F00S00C0.05512
T5F00S00C0.05709
T6F00S00C0.06496
T7F00S00C0.12598
T8F00S00C0.12992
%
T01
X0011474Y0008087
X0021317
X0031159
X0041001
X0050844
X0060687
X0070529
X0080372
X0090214
X0100057
X0109899
X0119742
X0129584
X0139427
X0149269
X0159112
X0168954
X0178797
X0188639
X0198482
X0208324
X0218167
X0228009
X0237852
X0247694
X0257537
X0267379
X0272301Y001793
X0267379Y0027772
X0257537
X0247694
X0237852
X0228009
X0218167
X0208324
X0198482
X0203403Y001793
X0213246
X0223088
X0232931
X0242773
X0252616
Y0037615
X0262458
X0272301
X0267379Y0047458
X0257537
X0247694
X0237852
X0242773Y00573
X0252616
X0262458
X0272301
X0267379Y0067142
X0257537
X0247694
X0237852
X0242773Y0076985
X0252616
X0262458
X0272301
X0267379Y0086827
X0257537
X0247694
X0237852
X0232931Y0076985
X0223088
X0213246
X0203403
X0193561
X0198482Y0086827
X0208324
X0218167
X0213246Y009667
X0203403
X0193561
X0198482Y0106513
X0208324
X0218167
X0223088Y0116355
X0232931
X0231889Y0126771
X023185Y0132677
X0235433Y013937
X0238583Y0136614
X0247694Y0145883
X0232931Y0155725
X0237852Y0165568
X0217717Y0156299
X0220768Y0152658
X0214173
X0203403Y0155725
X0193561
X0198482Y0165568
X0208324
X0213246Y013604
X0203403
X0193561
Y0116355
X0203403
X0213246
X0237852Y0106513
X0244488Y0105512
X0272301Y009667
Y0116355
Y013604
X0232931Y00573
X0223088
X0213246
X0203403
X0193561
X0198482Y0067142
X0208324
X0218167
Y0047458
X0208324
X0198482
X0213246Y0037615
X0242773
X0193561Y001793
X0183718
X0173876
X0164033
X0154191
X0144348
X0134505
X0124663
X0114821
X0104978
X0095135
X0085293
X007545
X0065608
X0055765
X0045923
X003608
X0041001Y0027772
X0050844
X0060687
X0070529
X0080372
X0090214
X0100057
X0109899
X0119742
X0129584
X0139427
X0149269
X0159112
X0168954
X0178797
X0188639
X0183718Y0037615
X0173876
X0164033
X0154191
X0144348
X0134505
X0124663
X0114821
X0104978
X0095135
X0085293
X007545
X0065608
X0055765
X0060687Y0047458
X0070529
X0080372
X0090214
X0100057
X0109899
X0119742
X0129584
X0139427
X0149269
X0159112
X0168954
X0178797
X0188639
X0183718Y00573
X0173876
X0164033
X0154191
X0144348
X0134505
X0124663
X0114821
X0104978
X0095135
X0085293
X0071653Y0057874
X0062648Y0058268
X0052912Y0058568
X0041732Y0058268
X003608Y00573
X0041001Y0047458
X0050844
X0039764Y0091732
X003608Y009667
X0041001Y0106513
X0050844
X0055765Y0116355
X0065608
X0060687Y0126198
X0050844
X0041001
X0045923Y013604
X0055765
X0060687Y0145883
X0050844
X0041001
X0045923Y0155725
X0055765
X0060687Y0165568
X0050844
X0041001
X003608Y0155725
Y013604
Y0116355
X0045923
X0085358Y0117243
X0087008Y0124409
X0079134Y0131102
X0087795Y0138583
X0094488Y0146063
X0097638Y0133858
X0103162Y0130725
X0109055Y0120472
X0109899Y0106513
X0119742
X0129584
X0139427
Y0086827
X0149269
X0159112
X0168954
X0178797
X0188639
X0183718Y009667
X0173876
X0164033
X0154191
Y0076985
X0164033
X0173876
X0183718
X0188639Y0067142
X0178797
X0168954
X0159112
X0149269
X0139427
X0129584
X0119742
X0109899
X0114821Y0076985
X0124663
X0134505
X0144348
X0129584Y0086827
X0119742
X0109899
X0104978Y0076985
X0092913Y0082677
X0080372Y0086827
X0072441Y0090551
X0092913Y0099606
X0122835Y0124803
X0129528
X0135827
X0141339Y0125197
X0149269Y0126198
X0146457Y0133071
X0157087Y0129921
X0162992Y0128347
X0168954Y0126198
X0173436Y0132419
X0169291Y0137008
X0169959Y0143188
X0183718Y013604
X0181426Y0121724
X0183718Y0116355
X0188639Y0106513
X0178797
X0168954
Y0165568
X0178797
X0188639
X0183718Y0155725
X0132283Y0155905
Y0151181
X0125591Y0153543
X0124803Y0160236
X0118898Y0155905
X0118704Y0146908
X0123228Y014685
X0083858Y0154331
X0075197
X0026238Y0155725
X0031159Y0165568
Y0145883
X0021317
X0026238Y013604
X0016395
X0021317Y0126198
X0031159
X0026238Y0116355
X0016395
X0021317Y0106513
X0031159
X0026238Y009667
X0031159Y0086827
X0021317
X0016929Y0076378
X0021317Y0067142
X0011474
X0016395Y00573
X0026238
X0031159Y0047458
X0021317
X0011474
Y0027772
X0021317
X0031159
X0026238Y0037615
Y001793
X0016395
Y017541
X0011474Y0185253
X0016395Y0195095
X0011474Y0204938
X0031159
X0028346Y0220472
X0021317Y0224623
X0026238Y0234465
X0016395
X0021317Y0244308
X0031159
X0026238Y025415
X0016395
X0021317Y0263993
X0011474
X0005906Y0275984
X0009449Y0285827
X001378Y0285835
X0022441Y0285473
X0011474Y0244308
X0031159Y0185253
X0041001
X0050844
X0060687
X0055765Y0195095
X0045923
X003608
X0041001Y0204938
X0050844
X0060687
X007545Y0195095
X0081102Y0198031
X0079921Y0173228
X0070866Y0170866
X0055765Y017541
X0045923
X003608
Y021478
X0045923
Y0234465
X0041001Y0244308
X0070529
X0080372
X0090214
X0100057
X0109899
X0119742
X0129584
X0139427
X0149269
X0159112
X0164033Y025415
X0154191
X0144348
X0134505
X0124663
X0114821
X0104978
X0095135
X0085293
X007545
X0065608
X0070529Y0263993
X0080372
X0090214
X0100057
X0109899
X0119742
X0129584
X0139427
X0149269
X0159112
X0168954
X0178797
X0183718Y0273835
X0173876
X0164033
X0154191
X0144348
X0134505
X0124663
X0114821
X0104978
X0095135
X0085293
X007545
X0065608
X0070529Y0283678
X0080372
X0090214
X0100057
X0109899
X0119742
X0129584
X0139427
X0149269
X0159112
X0168954
X0178797
X0188639
X0183718Y029352
X0173876
X0164033
X0154191
X0144348
X0149269Y0303363
X0159112
X0164033Y0313206
X0154191
X0144348
X0149269Y0323048
X0159112
X0168954
X0178797
X0188639
X0183718Y0313206
X0188639Y0303363
X0139427
Y0323048
X0090214
X0080372
X0070529
X0060687
X0050844
X0045923Y0313206
X0065608
X007545
X0085293
X0090214Y0303363
X0080372
X0070529
X007545Y029352
X0085293
X0065608
X0039961Y0285433
X0070529Y0224623
X0080372
X0095135Y0234465
X0104978
X0114821
X0124663
X0134505
X0144348
X0139427Y0224623
X0129584
X0119742
X0109899
X0114821Y021478
X0124663
X0119742Y0204938
X0109899
X0104978Y021478
X0110236Y0189764
X0115354
X0125197Y0192126
X0139885Y0209328
X0152362Y0204724
X0159112Y0204938
X0168954
X0178797
X0188639
X0183718Y021478
X0173876
X0164033
Y0195095
X0173876
X0183718
X0188639Y0185253
X0178797
X0168954
X0159112
X0152756Y0177559
X0146063Y0177953
X0148031Y0173228
X0162992Y0172441
X0173876Y017541
X0183718
X0154191Y0195095
X0178797Y0224623
X0188639
X0183718Y0234465
X0100057Y0185253
X0104978Y017541
X0193561
X0203403
X0208324Y0185253
X0198482
X0203403Y0195095
X0193561
X0198482Y0204938
X0208324
X0203403Y021478
X0193561
Y0234465
X0195276Y0256299
X0209017Y0260804
X0216929Y0261086
X0224747Y0260881
X0228346Y0264567
X0238189Y0259842
X0247694Y0263993
X0257537
X0267379
X0272301Y0273835
X0262458
X0267379Y0283678
X0272301Y029352
X0262458
X0267379Y0303363
X0272301Y0313206
X0262458
X0267379Y0323048
X0272301Y025415
X0262458
X0252616
X0257537Y0244308
X0267379
X0272301Y0234465
X0262458
Y021478
X0272301
X0267379Y0204938
X0257537
X0247694
X0237852
X0242773Y021478
X0252616
Y0195095
X0262458
X0272301
Y017541
X0271959Y0170778
X0264124Y0174999
X0257537Y0185253
X0247694
X0237852
X0242773Y0195095
X0232931
Y021478
X0237852Y0224623
X0242773Y0234465
X0232931
X0211811Y0245276
X0208324Y0224623
X0232931Y017541
X0242773
X0194095Y0322047
X0193561Y0332891
Y0352576
X0216535Y0339764
X022441Y033937
X0237825Y0352421
X0265325
X0272301Y0352576
X0267379Y0342733
X0272301Y0332891
X0262458
X0183718
X0173876
X0164033
X0154191
X0144348
X0134505
X0124663
X0114821
X0104978
X0095135
X0085293
X007545
X0065608
X0055765
X0045923
X0050844Y0342733
X0060687
X0070529
X0080372
X0090214
X0100057
X0109899
X0119742
X0129584
X0139427
X0149269
X0159112
X0168954
X0178797
X0188639
X0183718Y0352576
X0173876
X0164033
X0154191
X0144348
X0134505
X0124663
X0114821
X0104978
X0095135
X0085293
X007545
X0065608
X00356Y0352421
X0041001Y0342733
X0090214Y0362418
X0100057
X0109899
X0119742
X0129584
X0139427
X0149269
X0159112
X0168954
X0178797
X0188639
X0016395Y0352576
X00081Y0352421
X0030709Y0337402
T02
X0254055Y0102284
Y0112284
Y0122283
Y0132283
X0264055
Y0142283
X0254055
Y0152284
X0264055
Y0162284
X0254055
X0264055Y0122283
Y0112284
Y0102284
T03
X0227953Y0038189
Y0101181
Y0164173
X001063
Y0101181
Y0038189
Y0227165
X0227953
T04
X0202205Y0346693
X0222205
Y0366693
X0202205
T05
X0212205Y0356693
T06
X0250866Y0224803
X0266457
T07
X0199409Y0227165
T08
X0199409Y0038189
X0039173
Y0227165
M30
