G04*
G04 #@! TF.GenerationSoftware,Altium Limited,Altium Designer,20.2.7 (254)*
G04*
G04 Layer_Color=16711935*
%FSLAX25Y25*%
%MOIN*%
G70*
G04*
G04 #@! TF.SameCoordinates,AC8EE5C5-F73A-413B-8336-6D520369465E*
G04*
G04*
G04 #@! TF.FilePolarity,Negative*
G04*
G01*
G75*
%ADD30R,0.11083X0.17087*%
%ADD34R,0.03937X0.03937*%
%ADD35R,0.03937X0.03937*%
%ADD37R,0.04528X0.04724*%
%ADD42C,0.07874*%
%ADD43C,0.10335*%
%ADD44R,0.10335X0.10335*%
%ADD45C,0.10433*%
%ADD46C,0.13583*%
%ADD47C,0.13189*%
%ADD48C,0.12402*%
%ADD49C,0.08465*%
%ADD50R,0.08465X0.08465*%
%ADD86R,0.04528X0.06890*%
%ADD87R,0.05512X0.04528*%
%ADD88R,0.06890X0.04528*%
%ADD89R,0.04528X0.05512*%
%ADD90O,0.01968X0.05315*%
G04:AMPARAMS|DCode=91|XSize=114.17mil|YSize=222.44mil|CornerRadius=8.37mil|HoleSize=0mil|Usage=FLASHONLY|Rotation=90.000|XOffset=0mil|YOffset=0mil|HoleType=Round|Shape=RoundedRectangle|*
%AMROUNDEDRECTD91*
21,1,0.11417,0.20571,0,0,90.0*
21,1,0.09744,0.22244,0,0,90.0*
1,1,0.01673,0.10285,0.04872*
1,1,0.01673,0.10285,-0.04872*
1,1,0.01673,-0.10285,-0.04872*
1,1,0.01673,-0.10285,0.04872*
%
%ADD91ROUNDEDRECTD91*%
%ADD92R,0.04134X0.03347*%
%ADD93R,0.03740X0.01575*%
%ADD94R,0.01575X0.03740*%
%ADD95O,0.02756X0.06496*%
%ADD96O,0.06496X0.02756*%
%ADD97R,0.20669X0.20669*%
%ADD98R,0.04134X0.04528*%
%ADD99R,0.05315X0.07677*%
G04:AMPARAMS|DCode=100|XSize=66.93mil|YSize=29.53mil|CornerRadius=14.76mil|HoleSize=0mil|Usage=FLASHONLY|Rotation=270.000|XOffset=0mil|YOffset=0mil|HoleType=Round|Shape=RoundedRectangle|*
%AMROUNDEDRECTD100*
21,1,0.06693,0.00000,0,0,270.0*
21,1,0.03740,0.02953,0,0,270.0*
1,1,0.02953,0.00000,-0.01870*
1,1,0.02953,0.00000,0.01870*
1,1,0.02953,0.00000,0.01870*
1,1,0.02953,0.00000,-0.01870*
%
%ADD100ROUNDEDRECTD100*%
%ADD101R,0.04921X0.07677*%
D30*
X237825Y364173D02*
D03*
X265325D02*
D03*
X8100D02*
D03*
X35600D02*
D03*
D34*
X164173Y147244D02*
D03*
X158661D02*
D03*
X107480Y184646D02*
D03*
X112992D02*
D03*
X103543Y122441D02*
D03*
X98032D02*
D03*
X92126Y115354D02*
D03*
X97638D02*
D03*
X84646Y129134D02*
D03*
X90158D02*
D03*
D35*
X61417Y95276D02*
D03*
Y100787D02*
D03*
X75689Y95177D02*
D03*
Y100689D02*
D03*
X68602D02*
D03*
Y95177D02*
D03*
X157087Y140157D02*
D03*
Y134646D02*
D03*
X164173Y140157D02*
D03*
Y134646D02*
D03*
X157874Y166929D02*
D03*
Y172441D02*
D03*
X146457Y190945D02*
D03*
Y185433D02*
D03*
X61024Y221654D02*
D03*
Y216142D02*
D03*
X85433Y213779D02*
D03*
Y219291D02*
D03*
D37*
X63779Y175591D02*
D03*
X70866D02*
D03*
D42*
X266142Y186221D02*
D03*
X75408Y360025D02*
D03*
X260447Y14384D02*
D03*
D43*
X266457Y224803D02*
D03*
D44*
X250866D02*
D03*
D45*
X10630Y227165D02*
D03*
X227953D02*
D03*
Y38189D02*
D03*
X10630Y101181D02*
D03*
Y164173D02*
D03*
Y38189D02*
D03*
X227953Y164173D02*
D03*
Y101181D02*
D03*
X222205Y366693D02*
D03*
Y346693D02*
D03*
X202205D02*
D03*
Y366693D02*
D03*
D46*
X39173Y38189D02*
D03*
X199409D02*
D03*
X39173Y227165D02*
D03*
D47*
X199409D02*
D03*
D48*
X212205Y356693D02*
D03*
D49*
X264055Y132283D02*
D03*
X254055D02*
D03*
X264055Y142283D02*
D03*
X254055D02*
D03*
X264055Y152284D02*
D03*
X254055D02*
D03*
X264055Y162284D02*
D03*
X254055Y122283D02*
D03*
X264055D02*
D03*
X254055Y112284D02*
D03*
X264055D02*
D03*
X254055Y102284D02*
D03*
X264055D02*
D03*
D50*
X254055Y162284D02*
D03*
D86*
X98425Y99606D02*
D03*
X110236D02*
D03*
X224803Y332677D02*
D03*
X236614D02*
D03*
D87*
X98819Y90552D02*
D03*
Y82678D02*
D03*
D88*
X98819Y74803D02*
D03*
Y62992D02*
D03*
X88583Y74803D02*
D03*
Y62992D02*
D03*
X78347Y74803D02*
D03*
Y62992D02*
D03*
X35039Y75590D02*
D03*
Y63779D02*
D03*
D89*
X53937Y96457D02*
D03*
X46063D02*
D03*
X48922Y54040D02*
D03*
X56796D02*
D03*
X217322Y322047D02*
D03*
X225196D02*
D03*
D90*
X45177Y87795D02*
D03*
X47736D02*
D03*
X50295D02*
D03*
X52854D02*
D03*
X55413D02*
D03*
X57972D02*
D03*
X60532D02*
D03*
X63090D02*
D03*
X65650D02*
D03*
X68209D02*
D03*
X45177Y63386D02*
D03*
X47736D02*
D03*
X50295D02*
D03*
X52854D02*
D03*
X55413D02*
D03*
X57972D02*
D03*
X60532Y63386D02*
D03*
X63090Y63386D02*
D03*
X65650Y63386D02*
D03*
X68209Y63386D02*
D03*
D91*
X56693Y75590D02*
D03*
D92*
X138189Y190551D02*
D03*
Y185039D02*
D03*
D93*
X112008Y161417D02*
D03*
Y163386D02*
D03*
Y143701D02*
D03*
Y145669D02*
D03*
Y147638D02*
D03*
Y149606D02*
D03*
Y151575D02*
D03*
Y153543D02*
D03*
Y155512D02*
D03*
Y157480D02*
D03*
Y159449D02*
D03*
X139173Y145669D02*
D03*
Y143701D02*
D03*
Y163386D02*
D03*
Y161417D02*
D03*
Y159449D02*
D03*
Y157480D02*
D03*
Y155512D02*
D03*
Y153543D02*
D03*
Y151575D02*
D03*
Y149606D02*
D03*
Y147638D02*
D03*
D94*
X115748Y167126D02*
D03*
X117717D02*
D03*
X119685D02*
D03*
X121653D02*
D03*
X123622D02*
D03*
X125591D02*
D03*
X127559D02*
D03*
X129528D02*
D03*
X131496D02*
D03*
X115748Y139961D02*
D03*
X117717D02*
D03*
X119685D02*
D03*
X121653D02*
D03*
X123622D02*
D03*
X125591D02*
D03*
X127559D02*
D03*
X129528D02*
D03*
X131496D02*
D03*
X133465Y167126D02*
D03*
Y139961D02*
D03*
X135433Y167126D02*
D03*
X135433Y139961D02*
D03*
D95*
X141339Y130905D02*
D03*
X138189D02*
D03*
X135039D02*
D03*
X131890D02*
D03*
X128740D02*
D03*
X125591D02*
D03*
X122441D02*
D03*
X119291D02*
D03*
X116142D02*
D03*
X112992D02*
D03*
X109843D02*
D03*
Y176181D02*
D03*
X112992D02*
D03*
X116142D02*
D03*
X119291D02*
D03*
X122441D02*
D03*
X125591D02*
D03*
X128740D02*
D03*
X131890D02*
D03*
X135039D02*
D03*
X138189D02*
D03*
X141339D02*
D03*
D96*
X102953Y137795D02*
D03*
Y140945D02*
D03*
Y144095D02*
D03*
Y147244D02*
D03*
Y150394D02*
D03*
Y153543D02*
D03*
Y156693D02*
D03*
Y159843D02*
D03*
Y162992D02*
D03*
Y166142D02*
D03*
Y169291D02*
D03*
X148228D02*
D03*
Y166142D02*
D03*
Y162992D02*
D03*
Y159843D02*
D03*
Y156693D02*
D03*
Y153543D02*
D03*
Y150394D02*
D03*
Y147244D02*
D03*
Y144095D02*
D03*
Y140945D02*
D03*
Y137795D02*
D03*
D97*
X125591Y153543D02*
D03*
D98*
X78051Y136221D02*
D03*
X83366D02*
D03*
X89272Y168898D02*
D03*
X83957D02*
D03*
D99*
X79528Y160630D02*
D03*
Y144882D02*
D03*
X88976D02*
D03*
Y160630D02*
D03*
D100*
X70846Y183858D02*
D03*
X75846D02*
D03*
X80847D02*
D03*
X85847D02*
D03*
Y205118D02*
D03*
X80847D02*
D03*
X75846D02*
D03*
X70846D02*
D03*
D101*
X68306Y216142D02*
D03*
X78149D02*
D03*
M02*
