G04*
G04 #@! TF.GenerationSoftware,Altium Limited,Altium Designer,20.2.7 (254)*
G04*
G04 Layer_Physical_Order=2*
G04 Layer_Color=16711680*
%FSLAX25Y25*%
%MOIN*%
G70*
G04*
G04 #@! TF.SameCoordinates,AC8EE5C5-F73A-413B-8336-6D520369465E*
G04*
G04*
G04 #@! TF.FilePolarity,Positive*
G04*
G01*
G75*
%ADD11C,0.00787*%
%ADD16R,0.10492X0.16496*%
%ADD20R,0.03347X0.03347*%
%ADD21R,0.03347X0.03347*%
%ADD23R,0.03937X0.04134*%
%ADD51C,0.03937*%
%ADD53C,0.01181*%
%ADD54C,0.01968*%
%ADD55C,0.00984*%
%ADD56C,0.03937*%
%ADD57C,0.03150*%
%ADD58R,0.01811X0.11752*%
%ADD59C,0.09744*%
%ADD60R,0.09744X0.09744*%
%ADD61C,0.09843*%
%ADD62C,0.12992*%
%ADD63C,0.12598*%
%ADD64C,0.11811*%
%ADD65C,0.07874*%
%ADD66R,0.07874X0.07874*%
%ADD67C,0.03150*%
%ADD68C,0.02756*%
%ADD69R,0.03937X0.06299*%
%ADD70R,0.04921X0.03937*%
%ADD71R,0.06299X0.03937*%
%ADD72R,0.03937X0.04921*%
%ADD73O,0.01378X0.04724*%
G04:AMPARAMS|DCode=74|XSize=108.27mil|YSize=216.54mil|CornerRadius=5.41mil|HoleSize=0mil|Usage=FLASHONLY|Rotation=90.000|XOffset=0mil|YOffset=0mil|HoleType=Round|Shape=RoundedRectangle|*
%AMROUNDEDRECTD74*
21,1,0.10827,0.20571,0,0,90.0*
21,1,0.09744,0.21654,0,0,90.0*
1,1,0.01083,0.10285,0.04872*
1,1,0.01083,0.10285,-0.04872*
1,1,0.01083,-0.10285,-0.04872*
1,1,0.01083,-0.10285,0.04872*
%
%ADD74ROUNDEDRECTD74*%
%ADD75R,0.03543X0.02756*%
%ADD76R,0.03150X0.00984*%
%ADD77R,0.00984X0.03150*%
%ADD78O,0.02165X0.05906*%
%ADD79O,0.05906X0.02165*%
%ADD80R,0.20079X0.20079*%
%ADD81R,0.03543X0.03937*%
%ADD82R,0.04724X0.07087*%
G04:AMPARAMS|DCode=83|XSize=61.02mil|YSize=23.62mil|CornerRadius=11.81mil|HoleSize=0mil|Usage=FLASHONLY|Rotation=270.000|XOffset=0mil|YOffset=0mil|HoleType=Round|Shape=RoundedRectangle|*
%AMROUNDEDRECTD83*
21,1,0.06102,0.00000,0,0,270.0*
21,1,0.03740,0.02362,0,0,270.0*
1,1,0.02362,0.00000,-0.01870*
1,1,0.02362,0.00000,0.01870*
1,1,0.02362,0.00000,0.01870*
1,1,0.02362,0.00000,-0.01870*
%
%ADD83ROUNDEDRECTD83*%
%ADD84R,0.04331X0.07087*%
%ADD85C,0.02362*%
G36*
X273985Y173328D02*
X273485Y173081D01*
X273349Y173185D01*
X272679Y173463D01*
X271959Y173558D01*
X271240Y173463D01*
X271112Y173410D01*
X270931Y173531D01*
X270317Y173653D01*
X270317Y173653D01*
X267000D01*
X266722Y174069D01*
X266809Y174279D01*
X266904Y174999D01*
X266809Y175718D01*
X266531Y176389D01*
X266090Y176964D01*
X265514Y177406D01*
X264844Y177684D01*
X264124Y177778D01*
X263405Y177684D01*
X262734Y177406D01*
X262158Y176964D01*
X262036Y176805D01*
X248227D01*
X248220Y176806D01*
X247529Y176669D01*
X246943Y176277D01*
X240652Y169986D01*
X240260Y169400D01*
X240123Y168709D01*
Y151251D01*
X239693Y150822D01*
X223395D01*
X223346Y150921D01*
X223198Y151322D01*
X223453Y151938D01*
X223547Y152658D01*
X223453Y153377D01*
X223175Y154048D01*
X222733Y154623D01*
X222673Y154670D01*
Y157874D01*
X222535Y158565D01*
X222143Y159151D01*
X221491Y159803D01*
Y239803D01*
X226080Y244392D01*
X226472Y244978D01*
X226609Y245669D01*
X226553Y245952D01*
Y258793D01*
X226712Y258915D01*
X227154Y259491D01*
X227432Y260161D01*
X227526Y260881D01*
X227455Y261420D01*
X227477Y261478D01*
X227749Y261781D01*
X227869Y261850D01*
X228346Y261787D01*
X229066Y261882D01*
X229736Y262160D01*
X230312Y262601D01*
X230754Y263177D01*
X231031Y263847D01*
X231126Y264567D01*
X231031Y265286D01*
X230754Y265957D01*
X230312Y266532D01*
X229736Y266974D01*
X229066Y267252D01*
X228346Y267347D01*
X227627Y267252D01*
X226957Y266974D01*
X226381Y266532D01*
X226259Y266373D01*
X218794D01*
X218602Y266835D01*
X222537Y270770D01*
X222929Y271356D01*
X223066Y272047D01*
Y276464D01*
X223398Y276616D01*
X223566Y276635D01*
X236383Y263819D01*
Y261930D01*
X236224Y261808D01*
X235782Y261232D01*
X235504Y260562D01*
X235409Y259842D01*
X235504Y259123D01*
X235782Y258453D01*
X236224Y257877D01*
X236799Y257435D01*
X237470Y257158D01*
X238189Y257063D01*
X238908Y257158D01*
X239579Y257435D01*
X240155Y257877D01*
X240596Y258453D01*
X240874Y259123D01*
X240969Y259842D01*
X240874Y260562D01*
X240596Y261232D01*
X240155Y261808D01*
X239995Y261930D01*
Y264567D01*
X239858Y265258D01*
X239466Y265844D01*
X226610Y278700D01*
Y318406D01*
X228346D01*
Y325689D01*
X226610D01*
Y328346D01*
X227953D01*
Y337008D01*
X226609D01*
Y337710D01*
X226817Y337980D01*
X227094Y338651D01*
X227189Y339370D01*
X227094Y340090D01*
X226817Y340760D01*
X226375Y341336D01*
X225898Y341701D01*
X225799Y342256D01*
X226276Y342621D01*
X227191Y343814D01*
X227766Y345203D01*
X227833Y345709D01*
X216576D01*
X216643Y345203D01*
X217218Y343814D01*
X218133Y342621D01*
X218189Y342579D01*
X217925Y342171D01*
X217255Y342449D01*
X216535Y342544D01*
X215816Y342449D01*
X215146Y342171D01*
X214570Y341729D01*
X214128Y341154D01*
X213850Y340483D01*
X213756Y339764D01*
X213850Y339044D01*
X214128Y338374D01*
X214570Y337798D01*
X215146Y337356D01*
X215816Y337079D01*
X216535Y336984D01*
X216734Y337010D01*
X219454Y334291D01*
Y325689D01*
X214173D01*
Y324304D01*
X214153Y324299D01*
X213959Y324267D01*
X213829Y324255D01*
X195744D01*
X195484Y324454D01*
X194814Y324732D01*
X194095Y324827D01*
X193375Y324732D01*
X192705Y324454D01*
X192129Y324013D01*
X191687Y323437D01*
X191410Y322767D01*
X191315Y322047D01*
X191410Y321328D01*
X191687Y320657D01*
X192129Y320082D01*
X192705Y319640D01*
X193375Y319362D01*
X194095Y319268D01*
X194814Y319362D01*
X195484Y319640D01*
X195745Y319840D01*
X213829D01*
X213959Y319828D01*
X214153Y319796D01*
X214173Y319791D01*
Y318406D01*
X219454D01*
Y272796D01*
X215393Y268736D01*
X198819D01*
X198128Y268598D01*
X197542Y268206D01*
X141130Y211795D01*
X140604Y212013D01*
X139885Y212107D01*
X139165Y212013D01*
X138495Y211735D01*
X137919Y211293D01*
X137478Y210718D01*
X137200Y210047D01*
X137105Y209328D01*
X137200Y208608D01*
X137478Y207938D01*
X137919Y207362D01*
X138495Y206920D01*
X138703Y206834D01*
X138801Y206344D01*
X126815Y194358D01*
X126587Y194533D01*
X125916Y194811D01*
X125197Y194906D01*
X124477Y194811D01*
X123807Y194533D01*
X123231Y194091D01*
X122790Y193516D01*
X122512Y192845D01*
X122417Y192126D01*
X122512Y191407D01*
X122790Y190736D01*
X123231Y190160D01*
X123807Y189719D01*
X124122Y189588D01*
X124228Y189303D01*
X124258Y188990D01*
X123922Y188487D01*
X123784Y187795D01*
Y180407D01*
X123403Y180203D01*
X123284Y180192D01*
X122441Y180359D01*
X121558Y180184D01*
X121338Y180037D01*
X120897Y180272D01*
Y190551D01*
X120775Y191166D01*
X120427Y191686D01*
X120427Y191687D01*
X116096Y196017D01*
X115575Y196365D01*
X114961Y196488D01*
X114961Y196487D01*
X103027D01*
X98456Y201059D01*
Y226366D01*
X98456Y226366D01*
X98334Y226981D01*
X97986Y227502D01*
X90100Y235387D01*
X89579Y235735D01*
X88965Y235858D01*
X88965Y235858D01*
X85433D01*
X85433Y235858D01*
X85433Y235858D01*
X63646D01*
X41369Y258134D01*
Y283040D01*
X41926Y283468D01*
X42368Y284043D01*
X42646Y284714D01*
X42740Y285433D01*
X42646Y286153D01*
X42368Y286823D01*
X41926Y287399D01*
X41350Y287840D01*
X40680Y288118D01*
X39961Y288213D01*
X39241Y288118D01*
X38571Y287840D01*
X37995Y287399D01*
X37553Y286823D01*
X37276Y286153D01*
X37181Y285433D01*
X37276Y284714D01*
X37553Y284043D01*
X37995Y283468D01*
X38158Y283343D01*
Y259771D01*
X37696Y259580D01*
X24047Y273230D01*
Y283232D01*
X24407Y283508D01*
X24848Y284084D01*
X25126Y284754D01*
X25221Y285473D01*
X25126Y286193D01*
X24848Y286863D01*
X24407Y287439D01*
X23831Y287881D01*
X23160Y288158D01*
X22441Y288253D01*
X21722Y288158D01*
X21051Y287881D01*
X20475Y287439D01*
X20034Y286863D01*
X19756Y286193D01*
X19661Y285473D01*
X19756Y284754D01*
X20034Y284084D01*
X20475Y283508D01*
X20835Y283232D01*
Y274867D01*
X20373Y274676D01*
X15385Y279664D01*
Y283593D01*
X15745Y283869D01*
X16187Y284445D01*
X16465Y285115D01*
X16559Y285835D01*
X16465Y286554D01*
X16187Y287225D01*
X15745Y287800D01*
X15169Y288242D01*
X14499Y288520D01*
X13780Y288614D01*
X13060Y288520D01*
X12390Y288242D01*
X11955Y287909D01*
X11623Y287837D01*
X11265Y287907D01*
X10839Y288234D01*
X10168Y288512D01*
X9449Y288606D01*
X8729Y288512D01*
X8059Y288234D01*
X7483Y287792D01*
X7041Y287217D01*
X6764Y286546D01*
X6669Y285827D01*
X6764Y285107D01*
X7041Y284437D01*
X7483Y283861D01*
X7843Y283585D01*
Y281102D01*
X7843Y281102D01*
X7965Y280488D01*
X8314Y279967D01*
X59888Y228392D01*
X59888Y228392D01*
X60409Y228044D01*
X61024Y227922D01*
X86343D01*
X90520Y223744D01*
Y177034D01*
X90520Y177034D01*
X90411Y176901D01*
X89248D01*
X87452Y178697D01*
Y180220D01*
X87550Y180285D01*
X88072Y181067D01*
X88255Y181988D01*
Y185728D01*
X88072Y186650D01*
X87550Y187431D01*
X86768Y187953D01*
X85847Y188137D01*
X84925Y187953D01*
X84143Y187431D01*
X83621Y186650D01*
X83601Y186550D01*
X83092D01*
X83072Y186650D01*
X82550Y187431D01*
X81768Y187953D01*
X80847Y188137D01*
X79925Y187953D01*
X79143Y187431D01*
X78621Y186650D01*
X78601Y186550D01*
X78092D01*
X78072Y186650D01*
X77549Y187431D01*
X76768Y187953D01*
X75846Y188137D01*
X74925Y187953D01*
X74143Y187431D01*
X73621Y186650D01*
X73601Y186550D01*
X73092D01*
X73072Y186650D01*
X72549Y187431D01*
X71768Y187953D01*
X70846Y188137D01*
X69925Y187953D01*
X69143Y187431D01*
X68621Y186650D01*
X68438Y185728D01*
Y181988D01*
X68621Y181067D01*
X68796Y180806D01*
X68838Y180709D01*
X68890Y180634D01*
X68913Y180595D01*
X68937Y180544D01*
X68962Y180480D01*
X68985Y180402D01*
X69007Y180309D01*
X69023Y180216D01*
X69040Y180027D01*
Y178839D01*
X67716D01*
Y172343D01*
X67953D01*
X68288Y171843D01*
X68181Y171586D01*
X68086Y170866D01*
X68181Y170147D01*
X68459Y169476D01*
X68901Y168901D01*
X69476Y168459D01*
X70147Y168181D01*
X70866Y168087D01*
X71586Y168181D01*
X72256Y168459D01*
X72832Y168901D01*
X73273Y169476D01*
X73551Y170147D01*
X73641Y170825D01*
X74141Y170793D01*
Y166317D01*
X70447Y162624D01*
X70077Y162070D01*
X69947Y161417D01*
Y132283D01*
X70077Y131631D01*
X70447Y131077D01*
X77928Y123597D01*
X78481Y123227D01*
X79134Y123097D01*
X84569D01*
X84601Y123020D01*
X85042Y122444D01*
X85618Y122002D01*
X86062Y121818D01*
X86205Y121293D01*
X86195Y121245D01*
X84915Y119964D01*
X84638Y119928D01*
X83968Y119650D01*
X83392Y119208D01*
X82951Y118633D01*
X82673Y117962D01*
X82578Y117243D01*
X82673Y116523D01*
X82951Y115853D01*
X83392Y115277D01*
X83968Y114836D01*
X84638Y114558D01*
X85358Y114463D01*
X86077Y114558D01*
X86748Y114836D01*
X87323Y115277D01*
X87765Y115853D01*
X88043Y116523D01*
X88138Y117243D01*
X88043Y117962D01*
X88037Y117977D01*
X88526Y118466D01*
X89086Y118443D01*
X89272Y118209D01*
Y112500D01*
X100492D01*
Y113749D01*
X101879D01*
X102071Y113287D01*
X95315Y106531D01*
X54331D01*
X53639Y106393D01*
X53053Y106002D01*
X48681Y101629D01*
X48289Y101043D01*
X48152Y100352D01*
Y100098D01*
X42913D01*
Y92815D01*
X45750D01*
X45772Y92702D01*
X46164Y92115D01*
X46984Y91295D01*
X46892Y90680D01*
X46790Y90612D01*
X46457Y90564D01*
X46161Y90606D01*
Y87795D01*
X45177D01*
Y86811D01*
X43672D01*
Y86122D01*
X43705Y85956D01*
X43295Y85456D01*
X41732D01*
X41271Y85365D01*
X40881Y85103D01*
X40881Y85103D01*
X39306Y83529D01*
X39045Y83138D01*
X38953Y82677D01*
X38953Y82677D01*
Y81601D01*
X38478Y81125D01*
X32677D01*
X32216Y81034D01*
X31826Y80773D01*
X31038Y79985D01*
X30777Y79595D01*
X30685Y79134D01*
X30685Y79134D01*
Y78463D01*
X29308Y78373D01*
X28848Y78370D01*
X18860D01*
X18319Y78785D01*
X17649Y79063D01*
X16929Y79158D01*
X16210Y79063D01*
X15539Y78785D01*
X14964Y78343D01*
X14522Y77768D01*
X14244Y77097D01*
X14149Y76378D01*
X14244Y75659D01*
X14522Y74988D01*
X14964Y74412D01*
X15751Y73625D01*
X16327Y73183D01*
X16997Y72906D01*
X17717Y72811D01*
X28769D01*
X30297Y72778D01*
X30685Y72747D01*
Y72047D01*
X30777Y71586D01*
X31038Y71196D01*
X31826Y70408D01*
X32216Y70147D01*
X32677Y70056D01*
X32677Y70056D01*
X37690D01*
X41525Y66221D01*
X41916Y65960D01*
X42377Y65868D01*
X42377Y65868D01*
X43386D01*
X43733Y65368D01*
X43672Y65059D01*
Y64370D01*
X45177D01*
Y63386D01*
X46161D01*
Y60575D01*
X46457Y60617D01*
X46790Y60569D01*
X47160Y60322D01*
X47383Y60278D01*
X47443Y60237D01*
X47744Y59739D01*
X47744Y59735D01*
X47667Y59344D01*
Y57682D01*
X45772D01*
Y50398D01*
X52071D01*
Y55419D01*
X52571Y55833D01*
X52912Y55788D01*
X53146Y55819D01*
X53646Y55381D01*
Y50398D01*
X59945D01*
Y56441D01*
X60445Y56611D01*
X60682Y56302D01*
X61258Y55861D01*
X61928Y55583D01*
X62648Y55488D01*
X63367Y55583D01*
X64038Y55861D01*
X64613Y56302D01*
X65055Y56878D01*
X65333Y57548D01*
X65427Y58268D01*
X65333Y58987D01*
X65055Y59658D01*
X65284Y60173D01*
X65382Y60246D01*
X65158D01*
X65156Y60435D01*
X65105Y61151D01*
X65086Y61249D01*
X65064Y61331D01*
X65040Y61397D01*
X65012Y61449D01*
X66287D01*
X66260Y61397D01*
X66235Y61331D01*
X66213Y61249D01*
X66194Y61151D01*
X66165Y60911D01*
X66148Y60609D01*
X66143Y60305D01*
X66226Y60322D01*
X66714Y60648D01*
X67224Y60575D01*
Y63386D01*
X68209D01*
Y64370D01*
X69714D01*
Y65059D01*
X69681Y65225D01*
X70091Y65725D01*
X70472D01*
X70933Y65817D01*
X71324Y66078D01*
X71324Y66078D01*
X72899Y67652D01*
X73160Y68043D01*
X73251Y68504D01*
X73251Y68504D01*
Y69580D01*
X73727Y70056D01*
X80706D01*
X80764Y70067D01*
X80822Y70061D01*
X80992Y70113D01*
X81167Y70147D01*
X81216Y70180D01*
X81271Y70196D01*
X81410Y70309D01*
X81558Y70408D01*
X81590Y70457D01*
X81635Y70494D01*
X81925Y70844D01*
X82012Y71007D01*
X82113Y71162D01*
X82123Y71213D01*
X82147Y71258D01*
X82166Y71442D01*
X82200Y71624D01*
X82224Y71654D01*
X82677D01*
Y72546D01*
X82702Y72553D01*
X82894Y72584D01*
X83021Y72595D01*
X83908D01*
X84035Y72584D01*
X84227Y72553D01*
X84252Y72546D01*
Y71654D01*
X85389D01*
X85445Y71642D01*
X85501Y71654D01*
X85524D01*
X85573Y71649D01*
X85587Y71654D01*
X91579D01*
X91593Y71649D01*
X91641Y71654D01*
X91664D01*
X91720Y71642D01*
X91776Y71654D01*
X92913D01*
Y72546D01*
X92938Y72553D01*
X93130Y72584D01*
X93257Y72595D01*
X94144D01*
X94271Y72584D01*
X94464Y72553D01*
X94488Y72546D01*
Y71654D01*
X95625D01*
X95681Y71642D01*
X95737Y71654D01*
X95761D01*
X95809Y71649D01*
X95823Y71654D01*
X103150D01*
Y77953D01*
X100625D01*
Y79528D01*
X102461D01*
Y85827D01*
X96512D01*
X96498Y85832D01*
X96450Y85827D01*
X96426D01*
X96370Y85838D01*
X96314Y85827D01*
X95177D01*
Y84935D01*
X95153Y84928D01*
X94960Y84896D01*
X94833Y84885D01*
X94563D01*
X94303Y85084D01*
X93633Y85362D01*
X92913Y85457D01*
X92194Y85362D01*
X91524Y85084D01*
X90948Y84643D01*
X90506Y84067D01*
X90228Y83397D01*
X90134Y82677D01*
X90228Y81958D01*
X90506Y81287D01*
X90948Y80712D01*
X91524Y80270D01*
X92194Y79992D01*
X92913Y79897D01*
X93633Y79992D01*
X94303Y80270D01*
X94564Y80470D01*
X94833D01*
X94960Y80459D01*
X95153Y80427D01*
X95177Y80421D01*
Y79528D01*
X96314D01*
X96370Y79517D01*
X96426Y79528D01*
X96450D01*
X96498Y79524D01*
X96512Y79528D01*
X97013D01*
Y77953D01*
X95823D01*
X95809Y77957D01*
X95761Y77953D01*
X95737D01*
X95681Y77964D01*
X95625Y77953D01*
X94488D01*
Y77060D01*
X94464Y77054D01*
X94271Y77022D01*
X94144Y77011D01*
X93257D01*
X93130Y77022D01*
X92938Y77054D01*
X92913Y77060D01*
Y77953D01*
X91776D01*
X91720Y77964D01*
X91664Y77953D01*
X91641D01*
X91593Y77957D01*
X91579Y77953D01*
X85587D01*
X85573Y77957D01*
X85524Y77953D01*
X85501D01*
X85445Y77964D01*
X85389Y77953D01*
X84252D01*
Y77060D01*
X84227Y77054D01*
X84035Y77022D01*
X83908Y77011D01*
X83021D01*
X82894Y77022D01*
X82702Y77054D01*
X82677Y77060D01*
Y77953D01*
X81888D01*
X81479Y77978D01*
X81360Y78348D01*
X81353Y78361D01*
X81326Y78440D01*
X81326Y78444D01*
X81225Y78599D01*
X81137Y78762D01*
X80848Y79113D01*
X80803Y79150D01*
X80770Y79198D01*
X80622Y79297D01*
X80484Y79410D01*
X80428Y79427D01*
X80380Y79459D01*
X80205Y79494D01*
X80034Y79545D01*
X79976Y79539D01*
X79919Y79551D01*
X73334D01*
X73251Y79633D01*
Y82284D01*
X73160Y82744D01*
X72899Y83135D01*
X72899Y83135D01*
X71324Y84710D01*
X70933Y84971D01*
X70472Y85062D01*
X70472Y85062D01*
X69863D01*
X69591Y85473D01*
X69603Y85562D01*
X69714Y86122D01*
Y86811D01*
X68209D01*
Y87795D01*
X67224D01*
Y90606D01*
X66929Y90564D01*
X66596Y90612D01*
X66342Y90781D01*
X66191Y91337D01*
X66561Y91707D01*
X66931Y92260D01*
X66943Y92323D01*
X71457D01*
Y93471D01*
X72835D01*
Y92323D01*
X78543D01*
Y98032D01*
X78150Y98228D01*
Y99705D01*
X75689D01*
Y101673D01*
X78150D01*
Y102918D01*
X95276D01*
Y101865D01*
X95248Y101857D01*
X95057Y101825D01*
X94928Y101814D01*
X94563D01*
X94303Y102014D01*
X93633Y102291D01*
X92913Y102386D01*
X92194Y102291D01*
X91524Y102014D01*
X90948Y101572D01*
X90506Y100996D01*
X90228Y100326D01*
X90134Y99606D01*
X90228Y98887D01*
X90506Y98216D01*
X90948Y97641D01*
X91524Y97199D01*
X92194Y96921D01*
X92913Y96827D01*
X93633Y96921D01*
X94303Y97199D01*
X94563Y97399D01*
X94928D01*
X95057Y97387D01*
X95248Y97355D01*
X95276Y97348D01*
Y95276D01*
X97013D01*
Y93701D01*
X95177D01*
Y87402D01*
X102461D01*
Y93701D01*
X100625D01*
Y95276D01*
X101575D01*
Y103937D01*
X98484D01*
X98292Y104399D01*
X105669Y111776D01*
X171615D01*
X172306Y111914D01*
X172892Y112305D01*
X179961Y119374D01*
X180036Y119316D01*
X180706Y119039D01*
X181426Y118944D01*
X182145Y119039D01*
X182816Y119316D01*
X183391Y119758D01*
X183833Y120334D01*
X184111Y121004D01*
X184205Y121724D01*
X184111Y122443D01*
X183833Y123114D01*
X183391Y123689D01*
X182816Y124131D01*
X182604Y124219D01*
X182506Y124709D01*
X184144Y126347D01*
X224532D01*
X228392Y122487D01*
X228913Y122139D01*
X229528Y122016D01*
X229528Y122016D01*
X233465D01*
X233465Y122016D01*
X234079Y122139D01*
X234600Y122487D01*
X239430Y127316D01*
X239930Y127109D01*
Y106735D01*
X239930Y106735D01*
X239930Y106735D01*
Y104289D01*
X239930Y104289D01*
X240052Y103674D01*
X240400Y103153D01*
X242405Y101148D01*
X242405Y101148D01*
X242926Y100800D01*
X243541Y100678D01*
X249394D01*
X249756Y99802D01*
X250545Y98774D01*
X251573Y97985D01*
X252770Y97489D01*
X254055Y97320D01*
X255340Y97489D01*
X256537Y97985D01*
X257565Y98774D01*
X258354Y99802D01*
X258799Y100875D01*
X258799Y100875D01*
X259311D01*
X259312Y100875D01*
X259756Y99802D01*
X260545Y98774D01*
X261573Y97985D01*
X262770Y97489D01*
X264055Y97320D01*
X265340Y97489D01*
X266537Y97985D01*
X267565Y98774D01*
X268354Y99802D01*
X268850Y100999D01*
X269019Y102284D01*
X268850Y103568D01*
X268354Y104765D01*
X267565Y105793D01*
X266537Y106582D01*
X265340Y107078D01*
X264941Y107131D01*
Y107635D01*
X265288Y107681D01*
X266438Y108157D01*
X267425Y108914D01*
X268182Y109901D01*
X268658Y111050D01*
X268691Y111299D01*
X264055D01*
Y113268D01*
X268691D01*
X268658Y113517D01*
X268182Y114666D01*
X267425Y115653D01*
X266438Y116410D01*
X265288Y116886D01*
X264187Y117031D01*
Y117536D01*
X265288Y117681D01*
X266438Y118157D01*
X267425Y118914D01*
X268182Y119901D01*
X268658Y121050D01*
X268691Y121299D01*
X264055D01*
Y123268D01*
X268691D01*
X268658Y123517D01*
X268182Y124666D01*
X267425Y125653D01*
X266438Y126410D01*
X265288Y126886D01*
X264187Y127031D01*
Y127536D01*
X265288Y127681D01*
X266438Y128157D01*
X267425Y128914D01*
X268182Y129901D01*
X268658Y131050D01*
X268691Y131299D01*
X264055D01*
Y133268D01*
X268691D01*
X268658Y133517D01*
X268182Y134666D01*
X267425Y135653D01*
X266438Y136410D01*
X265288Y136886D01*
X264941Y136932D01*
Y137436D01*
X265340Y137489D01*
X266537Y137985D01*
X267565Y138774D01*
X268354Y139802D01*
X268850Y140999D01*
X269019Y142283D01*
X268850Y143568D01*
X268828Y143620D01*
X272002Y146793D01*
X272002Y146793D01*
X272350Y147314D01*
X272472Y147928D01*
X272472Y147928D01*
Y165748D01*
X272472Y165748D01*
X272350Y166363D01*
X272002Y166883D01*
X271305Y167580D01*
X271538Y168054D01*
X271959Y167998D01*
X272679Y168093D01*
X273349Y168371D01*
X273485Y168475D01*
X273985Y168228D01*
X273985Y1606D01*
X1606D01*
Y355044D01*
X2067Y355138D01*
Y355138D01*
X7116D01*
Y364173D01*
X9085D01*
Y355138D01*
X14134D01*
X14134Y355138D01*
Y355138D01*
X14468Y354803D01*
X14941Y354331D01*
X17323D01*
Y353937D01*
X19291Y351969D01*
Y348031D01*
X20866Y346457D01*
X25591D01*
X28248Y343799D01*
X31792D01*
X32677Y342913D01*
Y327362D01*
X38386D01*
Y344291D01*
X40157Y346063D01*
X55118D01*
X58268Y349213D01*
Y362598D01*
X57480Y363386D01*
X51575D01*
X50787Y362598D01*
Y352362D01*
X50000Y351575D01*
X34705D01*
X31604Y354676D01*
X31795Y355138D01*
X34616D01*
Y364173D01*
X35601D01*
Y365158D01*
X41634D01*
Y372410D01*
X199783D01*
X199883Y371910D01*
X199326Y371679D01*
X198133Y370764D01*
X197218Y369572D01*
X196643Y368183D01*
X196576Y367677D01*
X207833D01*
X207766Y368183D01*
X207191Y369572D01*
X206276Y370764D01*
X205084Y371679D01*
X204527Y371910D01*
X204626Y372410D01*
X219783D01*
X219883Y371910D01*
X219326Y371679D01*
X218133Y370764D01*
X217218Y369572D01*
X216643Y368183D01*
X216576Y367677D01*
X227833D01*
X227766Y368183D01*
X227191Y369572D01*
X226276Y370764D01*
X225084Y371679D01*
X224527Y371910D01*
X224626Y372410D01*
X231791D01*
Y365158D01*
X237825D01*
Y364173D01*
X238809D01*
Y355138D01*
X243071D01*
Y350551D01*
X242520Y350000D01*
X236614D01*
X231976Y354638D01*
X232184Y355138D01*
X236841D01*
Y363189D01*
X231791D01*
Y355530D01*
X231291Y355323D01*
X225322Y361292D01*
X225384Y361937D01*
X226276Y362621D01*
X227191Y363814D01*
X227766Y365203D01*
X227833Y365709D01*
X216576D01*
X216643Y365203D01*
X217218Y363814D01*
X217767Y363098D01*
X217521Y362598D01*
X215772D01*
X214854Y363089D01*
X213555Y363483D01*
X212205Y363616D01*
X210854Y363483D01*
X209555Y363089D01*
X208358Y362449D01*
X207309Y361588D01*
X206448Y360539D01*
X205809Y359342D01*
X205415Y358044D01*
X205282Y356693D01*
X205415Y355342D01*
X205809Y354044D01*
X206448Y352847D01*
X207309Y351798D01*
X208358Y350937D01*
X209555Y350297D01*
X210854Y349903D01*
X212205Y349770D01*
X213555Y349903D01*
X214854Y350297D01*
X215772Y350787D01*
X217521D01*
X217767Y350287D01*
X217218Y349572D01*
X216643Y348183D01*
X216576Y347677D01*
X227833D01*
X227766Y348183D01*
X227407Y349051D01*
X227831Y349335D01*
X235039Y342126D01*
X235433Y342520D01*
X250394D01*
X254232Y338681D01*
Y336516D01*
X258366D01*
Y354213D01*
X258963Y354809D01*
X259291Y355138D01*
Y355138D01*
X259291Y355138D01*
X264341D01*
Y364173D01*
X265325D01*
Y365158D01*
X271358D01*
Y372410D01*
X273985D01*
X273985Y173328D01*
D02*
G37*
G36*
X225400Y336769D02*
X225417Y336566D01*
X225447Y336387D01*
X225488Y336232D01*
X225541Y336101D01*
X225606Y335994D01*
X225683Y335910D01*
X225772Y335851D01*
X225872Y335815D01*
X225984Y335803D01*
X223622D01*
X223734Y335815D01*
X223835Y335851D01*
X223923Y335910D01*
X224000Y335994D01*
X224065Y336101D01*
X224118Y336232D01*
X224160Y336387D01*
X224189Y336566D01*
X224207Y336769D01*
X224213Y336996D01*
X225394D01*
X225400Y336769D01*
D02*
G37*
G36*
X225872Y329540D02*
X225772Y329504D01*
X225684Y329444D01*
X225607Y329361D01*
X225542Y329253D01*
X225489Y329122D01*
X225447Y328967D01*
X225418Y328788D01*
X225400Y328585D01*
X225394Y328359D01*
X224213D01*
X224207Y328585D01*
X224189Y328788D01*
X224160Y328967D01*
X224119Y329122D01*
X224065Y329253D01*
X224001Y329361D01*
X223924Y329444D01*
X223835Y329504D01*
X223735Y329540D01*
X223622Y329552D01*
X225985D01*
X225872Y329540D01*
D02*
G37*
G36*
X225400Y325450D02*
X225418Y325248D01*
X225447Y325069D01*
X225489Y324914D01*
X225542Y324782D01*
X225607Y324675D01*
X225684Y324591D01*
X225772Y324532D01*
X225872Y324496D01*
X225985Y324484D01*
X223622D01*
X223735Y324496D01*
X223835Y324532D01*
X223924Y324591D01*
X224001Y324675D01*
X224065Y324782D01*
X224119Y324914D01*
X224160Y325069D01*
X224189Y325248D01*
X224207Y325450D01*
X224213Y325677D01*
X225394D01*
X225400Y325450D01*
D02*
G37*
G36*
X215378Y320079D02*
X215358Y320266D01*
X215299Y320433D01*
X215200Y320581D01*
X215061Y320709D01*
X214883Y320817D01*
X214665Y320906D01*
X214407Y320975D01*
X214110Y321024D01*
X213774Y321053D01*
X213397Y321063D01*
Y323032D01*
X213774Y323042D01*
X214110Y323071D01*
X214407Y323120D01*
X214665Y323189D01*
X214883Y323278D01*
X215061Y323386D01*
X215200Y323514D01*
X215299Y323662D01*
X215358Y323829D01*
X215378Y324016D01*
Y320079D01*
D02*
G37*
G36*
X225872Y319599D02*
X225772Y319563D01*
X225684Y319503D01*
X225607Y319420D01*
X225542Y319313D01*
X225489Y319181D01*
X225447Y319026D01*
X225418Y318847D01*
X225400Y318644D01*
X225394Y318418D01*
X224213D01*
X224207Y318644D01*
X224189Y318847D01*
X224160Y319026D01*
X224119Y319181D01*
X224065Y319313D01*
X224001Y319420D01*
X223924Y319503D01*
X223835Y319563D01*
X223735Y319599D01*
X223622Y319611D01*
X225985D01*
X225872Y319599D01*
D02*
G37*
G36*
X101227Y193747D02*
X101227Y193746D01*
X101748Y193398D01*
X102362Y193276D01*
X102362Y193276D01*
X114295D01*
X114661Y192911D01*
X114480Y192385D01*
X113964Y192171D01*
X113389Y191729D01*
X113099Y191351D01*
X113032Y191322D01*
X112559D01*
X112492Y191351D01*
X112202Y191729D01*
X111626Y192171D01*
X110956Y192449D01*
X110236Y192543D01*
X109517Y192449D01*
X108846Y192171D01*
X108271Y191729D01*
X107829Y191154D01*
X107551Y190483D01*
X107457Y189764D01*
X107551Y189044D01*
X107829Y188374D01*
X108271Y187798D01*
X108521Y187606D01*
X108465Y187440D01*
Y184646D01*
Y182996D01*
X108603D01*
X108523Y182987D01*
X108465Y182964D01*
Y182185D01*
X109941D01*
X110138Y181791D01*
X111286D01*
Y179937D01*
X110994Y179709D01*
X110932Y179687D01*
X110865Y179679D01*
X110827Y179681D01*
Y178770D01*
X110684Y178051D01*
Y176181D01*
Y174311D01*
X110827Y173592D01*
Y172720D01*
X110902Y172770D01*
X111015Y172748D01*
X111387Y172492D01*
Y172441D01*
X111387Y172441D01*
X111509Y171827D01*
X111857Y171306D01*
X112644Y170518D01*
X112644Y170518D01*
X113165Y170170D01*
X113779Y170048D01*
X113780Y170048D01*
X114286D01*
X114357Y169942D01*
X114469Y169488D01*
X114469D01*
Y168110D01*
X115748D01*
Y166142D01*
X114469D01*
Y165059D01*
X110464D01*
Y167126D01*
X110464Y167126D01*
X110342Y167740D01*
X109994Y168261D01*
X109994Y168261D01*
X107828Y170427D01*
X107307Y170775D01*
X106693Y170897D01*
X106693Y170897D01*
X106473D01*
X106455Y170923D01*
X105706Y171424D01*
X104823Y171599D01*
X101083D01*
X100874Y171771D01*
Y174612D01*
X100752Y175227D01*
X100404Y175748D01*
X100404Y175748D01*
X96881Y179270D01*
Y197439D01*
X97343Y197630D01*
X101227Y193747D01*
D02*
G37*
G36*
X144808Y189567D02*
X144798Y189660D01*
X144768Y189744D01*
X144718Y189818D01*
X144648Y189882D01*
X144558Y189936D01*
X144449Y189980D01*
X144319Y190015D01*
X144170Y190039D01*
X144000Y190054D01*
X143811Y190059D01*
Y191043D01*
X144000Y191048D01*
X144170Y191063D01*
X144319Y191088D01*
X144449Y191122D01*
X144558Y191166D01*
X144648Y191220D01*
X144718Y191284D01*
X144768Y191358D01*
X144798Y191442D01*
X144808Y191535D01*
Y189567D01*
D02*
G37*
G36*
X139947Y191442D02*
X139977Y191358D01*
X140026Y191284D01*
X140096Y191220D01*
X140186Y191166D01*
X140295Y191122D01*
X140425Y191088D01*
X140574Y191063D01*
X140744Y191048D01*
X140933Y191043D01*
Y190059D01*
X140744Y190054D01*
X140574Y190039D01*
X140425Y190015D01*
X140295Y189980D01*
X140186Y189936D01*
X140096Y189882D01*
X140026Y189818D01*
X139977Y189744D01*
X139947Y189660D01*
X139937Y189567D01*
Y191535D01*
X139947Y191442D01*
D02*
G37*
G36*
X113278Y187043D02*
X113290Y186886D01*
X113311Y186748D01*
X113341Y186627D01*
X113378Y186526D01*
X113425Y186443D01*
X113479Y186378D01*
X113542Y186332D01*
X113613Y186304D01*
X113693Y186295D01*
X111870D01*
X111949Y186304D01*
X112021Y186332D01*
X112083Y186378D01*
X112138Y186443D01*
X112184Y186526D01*
X112222Y186627D01*
X112251Y186748D01*
X112272Y186886D01*
X112285Y187043D01*
X112289Y187219D01*
X113273D01*
X113278Y187043D01*
D02*
G37*
G36*
X147169Y183776D02*
X147102Y183752D01*
X147043Y183712D01*
X146992Y183656D01*
X146949Y183584D01*
X146913Y183496D01*
X146886Y183392D01*
X146866Y183272D01*
X146854Y183136D01*
X146850Y182984D01*
X146063D01*
X146059Y183136D01*
X146047Y183272D01*
X146028Y183392D01*
X146000Y183496D01*
X145965Y183584D01*
X145921Y183656D01*
X145870Y183712D01*
X145811Y183752D01*
X145744Y183776D01*
X145669Y183784D01*
X147244D01*
X147169Y183776D01*
D02*
G37*
G36*
X139080Y183664D02*
X138996Y183634D01*
X138922Y183585D01*
X138858Y183516D01*
X138804Y183427D01*
X138760Y183319D01*
X138725Y183191D01*
X138701Y183044D01*
X138686Y182876D01*
X138681Y182689D01*
X137697D01*
X137692Y182876D01*
X137677Y183044D01*
X137653Y183191D01*
X137618Y183319D01*
X137574Y183427D01*
X137520Y183516D01*
X137456Y183585D01*
X137382Y183634D01*
X137298Y183664D01*
X137205Y183673D01*
X139173D01*
X139080Y183664D01*
D02*
G37*
G36*
X113883Y182986D02*
X113799Y182957D01*
X113725Y182907D01*
X113661Y182837D01*
X113607Y182747D01*
X113563Y182638D01*
X113529Y182508D01*
X113504Y182359D01*
X113489Y182190D01*
X113484Y182000D01*
X112500D01*
X112495Y182190D01*
X112480Y182359D01*
X112456Y182508D01*
X112421Y182638D01*
X112377Y182747D01*
X112323Y182837D01*
X112259Y182907D01*
X112185Y182957D01*
X112101Y182986D01*
X112008Y182996D01*
X113976D01*
X113883Y182986D01*
D02*
G37*
G36*
X86553Y181118D02*
X86488Y181087D01*
X86430Y181036D01*
X86379Y180964D01*
X86337Y180871D01*
X86302Y180757D01*
X86275Y180624D01*
X86256Y180469D01*
X86244Y180294D01*
X86240Y180098D01*
X85453D01*
X85449Y180294D01*
X85418Y180624D01*
X85391Y180757D01*
X85356Y180871D01*
X85314Y180964D01*
X85263Y181036D01*
X85206Y181087D01*
X85140Y181118D01*
X85066Y181128D01*
X86626D01*
X86553Y181118D01*
D02*
G37*
G36*
X81730Y181344D02*
X81647Y181301D01*
X81575Y181230D01*
X81512Y181131D01*
X81459Y181004D01*
X81416Y180848D01*
X81382Y180664D01*
X81358Y180452D01*
X81343Y180211D01*
X81339Y179942D01*
X80354D01*
X80349Y180211D01*
X80311Y180664D01*
X80277Y180848D01*
X80234Y181004D01*
X80181Y181131D01*
X80118Y181230D01*
X80045Y181301D01*
X79963Y181344D01*
X79872Y181358D01*
X81821D01*
X81730Y181344D01*
D02*
G37*
G36*
X76730D02*
X76648Y181301D01*
X76575Y181230D01*
X76512Y181131D01*
X76459Y181004D01*
X76416Y180848D01*
X76382Y180664D01*
X76358Y180452D01*
X76343Y180211D01*
X76339Y179942D01*
X75354D01*
X75349Y180211D01*
X75311Y180664D01*
X75277Y180848D01*
X75234Y181004D01*
X75181Y181131D01*
X75118Y181230D01*
X75046Y181301D01*
X74963Y181344D01*
X74872Y181358D01*
X76821D01*
X76730Y181344D01*
D02*
G37*
G36*
X71786Y181281D02*
X71712Y181154D01*
X71648Y181017D01*
X71591Y180871D01*
X71544Y180714D01*
X71505Y180548D01*
X71475Y180372D01*
X71453Y180186D01*
X71436Y179786D01*
X70257D01*
X70253Y179991D01*
X70218Y180372D01*
X70188Y180548D01*
X70149Y180714D01*
X70101Y180871D01*
X70045Y181017D01*
X69981Y181154D01*
X69907Y181281D01*
X69825Y181399D01*
X71868D01*
X71786Y181281D01*
D02*
G37*
G36*
X119689Y179633D02*
X119720Y179295D01*
X119746Y179157D01*
X119781Y179041D01*
X119823Y178946D01*
X119873Y178872D01*
X119931Y178819D01*
X119996Y178787D01*
X120069Y178777D01*
X118514D01*
X118587Y178787D01*
X118652Y178819D01*
X118709Y178872D01*
X118759Y178946D01*
X118802Y179041D01*
X118836Y179157D01*
X118863Y179295D01*
X118882Y179454D01*
X118894Y179633D01*
X118898Y179834D01*
X119685D01*
X119689Y179633D01*
D02*
G37*
G36*
X138686Y179829D02*
X138699Y179672D01*
X138721Y179519D01*
X138752Y179372D01*
X138792Y179230D01*
X138841Y179092D01*
X138898Y178960D01*
X138965Y178832D01*
X139040Y178709D01*
X139124Y178591D01*
X137254D01*
X137338Y178709D01*
X137413Y178832D01*
X137480Y178960D01*
X137537Y179092D01*
X137586Y179230D01*
X137626Y179372D01*
X137657Y179519D01*
X137679Y179672D01*
X137692Y179829D01*
X137697Y179990D01*
X138681D01*
X138686Y179829D01*
D02*
G37*
G36*
X132484Y179917D02*
X132511Y179533D01*
X132536Y179360D01*
X132566Y179200D01*
X132604Y179053D01*
X132649Y178918D01*
X132701Y178796D01*
X132759Y178687D01*
X132825Y178591D01*
X130955D01*
X131020Y178687D01*
X131079Y178796D01*
X131130Y178918D01*
X131175Y179053D01*
X131213Y179200D01*
X131244Y179360D01*
X131268Y179533D01*
X131296Y179917D01*
X131299Y180129D01*
X132480D01*
X132484Y179917D01*
D02*
G37*
G36*
X126185D02*
X126212Y179533D01*
X126236Y179360D01*
X126267Y179200D01*
X126305Y179053D01*
X126350Y178918D01*
X126402Y178796D01*
X126460Y178687D01*
X126526Y178591D01*
X124655D01*
X124721Y178687D01*
X124779Y178796D01*
X124831Y178918D01*
X124876Y179053D01*
X124914Y179200D01*
X124945Y179360D01*
X124969Y179533D01*
X124997Y179917D01*
X125000Y180129D01*
X126181D01*
X126185Y179917D01*
D02*
G37*
G36*
X116736Y179917D02*
X116763Y179533D01*
X116787Y179360D01*
X116818Y179200D01*
X116856Y179053D01*
X116901Y178918D01*
X116953Y178796D01*
X117011Y178687D01*
X117077Y178591D01*
X115207D01*
X115272Y178687D01*
X115331Y178796D01*
X115382Y178918D01*
X115427Y179053D01*
X115465Y179200D01*
X115496Y179360D01*
X115520Y179533D01*
X115548Y179917D01*
X115551Y180129D01*
X116732D01*
X116736Y179917D01*
D02*
G37*
G36*
X113489Y179829D02*
X113502Y179672D01*
X113524Y179519D01*
X113555Y179372D01*
X113595Y179230D01*
X113644Y179092D01*
X113701Y178960D01*
X113768Y178832D01*
X113843Y178709D01*
X113927Y178591D01*
X112057D01*
X112141Y178709D01*
X112216Y178832D01*
X112283Y178960D01*
X112340Y179092D01*
X112389Y179230D01*
X112429Y179372D01*
X112460Y179519D01*
X112482Y179672D01*
X112496Y179829D01*
X112500Y179990D01*
X113484D01*
X113489Y179829D01*
D02*
G37*
G36*
X71443Y178600D02*
X71461Y178397D01*
X71490Y178218D01*
X71531Y178063D01*
X71585Y177932D01*
X71650Y177824D01*
X71726Y177741D01*
X71815Y177681D01*
X71915Y177645D01*
X72028Y177634D01*
X69665D01*
X69778Y177645D01*
X69878Y177681D01*
X69967Y177741D01*
X70043Y177824D01*
X70108Y177932D01*
X70161Y178063D01*
X70203Y178218D01*
X70232Y178397D01*
X70250Y178600D01*
X70256Y178827D01*
X71437D01*
X71443Y178600D01*
D02*
G37*
G36*
X132303Y175747D02*
X132299Y175708D01*
X132292Y175559D01*
X132283Y174560D01*
X131496D01*
X131472Y175764D01*
X132308D01*
X132303Y175747D01*
D02*
G37*
G36*
X126004Y175747D02*
X126000Y175708D01*
X125993Y175559D01*
X125984Y174560D01*
X125197D01*
X125173Y175764D01*
X126008D01*
X126004Y175747D01*
D02*
G37*
G36*
X158272Y174740D02*
X158283Y174606D01*
X158303Y174488D01*
X158331Y174386D01*
X158366Y174299D01*
X158409Y174228D01*
X158461Y174173D01*
X158520Y174134D01*
X158587Y174110D01*
X158661Y174102D01*
X157087D01*
X157161Y174110D01*
X157228Y174134D01*
X157287Y174173D01*
X157339Y174228D01*
X157382Y174299D01*
X157417Y174386D01*
X157445Y174488D01*
X157465Y174606D01*
X157476Y174740D01*
X157480Y174890D01*
X158268D01*
X158272Y174740D01*
D02*
G37*
G36*
X158292Y172858D02*
X157456D01*
X157461Y172875D01*
X157465Y172914D01*
X157472Y173063D01*
X157480Y174062D01*
X158268D01*
X158292Y172858D01*
D02*
G37*
G36*
X119825Y173404D02*
X119796Y173381D01*
X119770Y173344D01*
X119747Y173291D01*
X119728Y173223D01*
X119713Y173140D01*
X119701Y173042D01*
X119687Y172800D01*
X119685Y172657D01*
X118898D01*
X118896Y172800D01*
X118870Y173140D01*
X118854Y173223D01*
X118835Y173291D01*
X118813Y173344D01*
X118787Y173381D01*
X118757Y173404D01*
X118724Y173412D01*
X119858D01*
X119825Y173404D01*
D02*
G37*
G36*
X138894Y173575D02*
X138829Y173543D01*
X138771Y173491D01*
X138721Y173416D01*
X138679Y173321D01*
X138644Y173205D01*
X138617Y173067D01*
X138598Y172909D01*
X138586Y172729D01*
X138583Y172528D01*
X137795D01*
X137792Y172729D01*
X137761Y173067D01*
X137734Y173205D01*
X137699Y173321D01*
X137657Y173416D01*
X137607Y173491D01*
X137549Y173543D01*
X137484Y173575D01*
X137411Y173586D01*
X138967D01*
X138894Y173575D01*
D02*
G37*
G36*
X132595D02*
X132529Y173543D01*
X132472Y173491D01*
X132422Y173416D01*
X132379Y173321D01*
X132345Y173205D01*
X132318Y173067D01*
X132299Y172909D01*
X132287Y172729D01*
X132283Y172528D01*
X131496D01*
X131492Y172729D01*
X131462Y173067D01*
X131435Y173205D01*
X131400Y173321D01*
X131358Y173416D01*
X131308Y173491D01*
X131250Y173543D01*
X131185Y173575D01*
X131112Y173586D01*
X132668D01*
X132595Y173575D01*
D02*
G37*
G36*
X126295D02*
X126230Y173543D01*
X126172Y173491D01*
X126123Y173416D01*
X126080Y173321D01*
X126046Y173205D01*
X126019Y173067D01*
X126000Y172909D01*
X125988Y172729D01*
X125984Y172528D01*
X125197D01*
X125193Y172729D01*
X125162Y173067D01*
X125135Y173205D01*
X125101Y173321D01*
X125059Y173416D01*
X125009Y173491D01*
X124951Y173543D01*
X124886Y173575D01*
X124813Y173586D01*
X126368D01*
X126295Y173575D01*
D02*
G37*
G36*
X113697D02*
X113632Y173543D01*
X113574Y173491D01*
X113524Y173416D01*
X113482Y173321D01*
X113447Y173205D01*
X113420Y173067D01*
X113401Y172909D01*
X113390Y172729D01*
X113386Y172528D01*
X112598D01*
X112595Y172729D01*
X112564Y173067D01*
X112537Y173205D01*
X112502Y173321D01*
X112460Y173416D01*
X112410Y173491D01*
X112353Y173543D01*
X112287Y173575D01*
X112214Y173586D01*
X113770D01*
X113697Y173575D01*
D02*
G37*
G36*
X71935Y173536D02*
X71835Y173500D01*
X71746Y173440D01*
X71669Y173357D01*
X71604Y173249D01*
X71551Y173118D01*
X71510Y172963D01*
X71480Y172784D01*
X71463Y172581D01*
X71457Y172354D01*
X70276D01*
X70270Y172581D01*
X70252Y172784D01*
X70222Y172963D01*
X70181Y173118D01*
X70128Y173249D01*
X70063Y173357D01*
X69986Y173440D01*
X69898Y173500D01*
X69797Y173536D01*
X69685Y173548D01*
X72047D01*
X71935Y173536D01*
D02*
G37*
G36*
X143602Y182579D02*
X144851D01*
Y181564D01*
X144851Y181564D01*
X144973Y180949D01*
X145321Y180428D01*
X145782Y179967D01*
X145783Y179967D01*
X146303Y179619D01*
X146918Y179497D01*
X146918Y179497D01*
X153272D01*
X156268Y176500D01*
Y175295D01*
X155020D01*
Y173880D01*
X154648Y173806D01*
X154095Y173436D01*
X151688Y171030D01*
X151641Y171043D01*
X151581Y171064D01*
X151525Y171088D01*
X151473Y171116D01*
X151422Y171147D01*
X151338Y171207D01*
X151241Y171250D01*
X150982Y171424D01*
X150098Y171599D01*
X146358D01*
X145475Y171424D01*
X144726Y170923D01*
X144709Y170897D01*
X144488D01*
X144488Y170897D01*
X143874Y170775D01*
X143353Y170427D01*
X140991Y168064D01*
X140643Y167544D01*
X140520Y166929D01*
X140520Y166929D01*
Y165059D01*
X137106D01*
Y168902D01*
X137402Y169261D01*
X138016Y169383D01*
X138537Y169731D01*
X139324Y170518D01*
X139324Y170518D01*
X139672Y171039D01*
X139795Y171653D01*
Y172090D01*
X140236Y172325D01*
X140455Y172179D01*
X141339Y172003D01*
X142222Y172179D01*
X142971Y172679D01*
X143471Y173428D01*
X143647Y174311D01*
Y178051D01*
X143471Y178935D01*
X142971Y179683D01*
X142222Y180184D01*
X141339Y180359D01*
X140455Y180184D01*
X140395Y180143D01*
X139895Y180411D01*
Y182480D01*
X141142D01*
Y187598D01*
X141142D01*
Y187992D01*
X141142D01*
Y188845D01*
X143602D01*
Y182579D01*
D02*
G37*
G36*
X156225Y171318D02*
X156216Y171398D01*
X156188Y171469D01*
X156142Y171532D01*
X156077Y171587D01*
X155994Y171633D01*
X155892Y171671D01*
X155772Y171700D01*
X155634Y171721D01*
X155476Y171734D01*
X155301Y171738D01*
Y172722D01*
X155476Y172726D01*
X155634Y172739D01*
X155772Y172760D01*
X155892Y172789D01*
X155994Y172827D01*
X156077Y172873D01*
X156142Y172928D01*
X156188Y172991D01*
X156216Y173062D01*
X156225Y173142D01*
Y171318D01*
D02*
G37*
G36*
X159535Y173510D02*
X159571Y173409D01*
X159631Y173321D01*
X159714Y173244D01*
X159821Y173179D01*
X159953Y173126D01*
X160108Y173085D01*
X160287Y173055D01*
X160490Y173037D01*
X160716Y173031D01*
Y171850D01*
X160490Y171844D01*
X160287Y171827D01*
X160108Y171797D01*
X159953Y171756D01*
X159821Y171703D01*
X159714Y171638D01*
X159631Y171561D01*
X159571Y171473D01*
X159535Y171372D01*
X159523Y171260D01*
Y173622D01*
X159535Y173510D01*
D02*
G37*
G36*
X133859Y169327D02*
X133889Y168815D01*
X133901Y168760D01*
X133914Y168720D01*
X133928Y168697D01*
X133945Y168689D01*
X132984D01*
X133001Y168697D01*
X133016Y168720D01*
X133028Y168760D01*
X133040Y168815D01*
X133049Y168886D01*
X133063Y169075D01*
X133071Y169476D01*
X133858D01*
X133859Y169327D01*
D02*
G37*
G36*
X129922D02*
X129952Y168815D01*
X129964Y168760D01*
X129977Y168720D01*
X129991Y168697D01*
X130008Y168689D01*
X129047D01*
X129064Y168697D01*
X129078Y168720D01*
X129092Y168760D01*
X129103Y168815D01*
X129112Y168886D01*
X129126Y169075D01*
X129134Y169476D01*
X129921D01*
X129922Y169327D01*
D02*
G37*
G36*
X125985D02*
X126015Y168815D01*
X126027Y168760D01*
X126040Y168720D01*
X126054Y168697D01*
X126071Y168689D01*
X125110D01*
X125127Y168697D01*
X125142Y168720D01*
X125154Y168760D01*
X125166Y168815D01*
X125175Y168886D01*
X125189Y169075D01*
X125197Y169476D01*
X125984D01*
X125985Y169327D01*
D02*
G37*
G36*
X122048D02*
X122078Y168815D01*
X122090Y168760D01*
X122102Y168720D01*
X122117Y168697D01*
X122134Y168689D01*
X121173D01*
X121190Y168697D01*
X121204Y168720D01*
X121218Y168760D01*
X121229Y168815D01*
X121238Y168886D01*
X121252Y169075D01*
X121260Y169476D01*
X122047D01*
X122048Y169327D01*
D02*
G37*
G36*
X120080D02*
X120110Y168815D01*
X120121Y168760D01*
X120134Y168720D01*
X120149Y168697D01*
X120165Y168689D01*
X119205D01*
X119221Y168697D01*
X119236Y168720D01*
X119249Y168760D01*
X119260Y168815D01*
X119270Y168886D01*
X119283Y169075D01*
X119291Y169476D01*
X120079D01*
X120080Y169327D01*
D02*
G37*
G36*
X145633Y168514D02*
X145622Y168586D01*
X145591Y168652D01*
X145538Y168709D01*
X145464Y168759D01*
X145369Y168802D01*
X145252Y168836D01*
X145115Y168863D01*
X144956Y168882D01*
X144776Y168894D01*
X144575Y168898D01*
Y169685D01*
X144776Y169689D01*
X145115Y169720D01*
X145252Y169746D01*
X145369Y169781D01*
X145464Y169823D01*
X145538Y169873D01*
X145591Y169931D01*
X145622Y169996D01*
X145633Y170069D01*
Y168514D01*
D02*
G37*
G36*
X105559Y169996D02*
X105590Y169931D01*
X105643Y169873D01*
X105717Y169823D01*
X105813Y169781D01*
X105929Y169746D01*
X106067Y169720D01*
X106225Y169700D01*
X106405Y169689D01*
X106606Y169685D01*
Y168898D01*
X106405Y168894D01*
X106067Y168863D01*
X105929Y168836D01*
X105813Y168802D01*
X105717Y168759D01*
X105643Y168709D01*
X105590Y168652D01*
X105559Y168586D01*
X105548Y168514D01*
Y170069D01*
X105559Y169996D01*
D02*
G37*
G36*
X150756Y170142D02*
X150879Y170067D01*
X151007Y170001D01*
X151139Y169943D01*
X151277Y169894D01*
X151419Y169854D01*
X151567Y169823D01*
X151719Y169801D01*
X151876Y169788D01*
X152038Y169783D01*
Y168799D01*
X151876Y168795D01*
X151719Y168781D01*
X151567Y168759D01*
X151419Y168728D01*
X151277Y168688D01*
X151139Y168640D01*
X151007Y168582D01*
X150879Y168516D01*
X150756Y168440D01*
X150638Y168356D01*
Y170227D01*
X150756Y170142D01*
D02*
G37*
G36*
X156225Y166142D02*
X156217Y166217D01*
X156193Y166284D01*
X156153Y166342D01*
X156097Y166394D01*
X156025Y166437D01*
X155937Y166472D01*
X155833Y166500D01*
X155713Y166520D01*
X155577Y166532D01*
X155425Y166535D01*
Y167323D01*
X155577Y167327D01*
X155713Y167339D01*
X155833Y167358D01*
X155937Y167386D01*
X156025Y167421D01*
X156097Y167465D01*
X156153Y167516D01*
X156193Y167575D01*
X156217Y167642D01*
X156225Y167717D01*
Y166142D01*
D02*
G37*
G36*
X89867Y166943D02*
X89784Y166913D01*
X89710Y166864D01*
X89646Y166794D01*
X89591Y166704D01*
X89547Y166595D01*
X89513Y166465D01*
X89488Y166315D01*
X89473Y166146D01*
X89468Y165957D01*
X88484D01*
X88479Y166146D01*
X88465Y166315D01*
X88440Y166465D01*
X88406Y166595D01*
X88361Y166704D01*
X88307Y166794D01*
X88243Y166864D01*
X88169Y166913D01*
X88086Y166943D01*
X87992Y166953D01*
X89961D01*
X89867Y166943D01*
D02*
G37*
G36*
X145573Y165426D02*
X145563Y165488D01*
X145533Y165542D01*
X145483Y165590D01*
X145413Y165632D01*
X145323Y165668D01*
X145214Y165697D01*
X145084Y165719D01*
X144934Y165735D01*
X144575Y165748D01*
Y166535D01*
X144765Y166539D01*
X145084Y166564D01*
X145214Y166587D01*
X145323Y166616D01*
X145413Y166651D01*
X145483Y166693D01*
X145533Y166741D01*
X145563Y166796D01*
X145573Y166857D01*
Y165426D01*
D02*
G37*
G36*
X150834Y166847D02*
X150866Y166781D01*
X150919Y166724D01*
X150993Y166674D01*
X151088Y166631D01*
X151205Y166597D01*
X151342Y166570D01*
X151501Y166551D01*
X151681Y166539D01*
X151882Y166535D01*
Y165748D01*
X151681Y165744D01*
X151342Y165713D01*
X151205Y165687D01*
X151088Y165652D01*
X150993Y165610D01*
X150919Y165560D01*
X150866Y165502D01*
X150834Y165437D01*
X150824Y165364D01*
Y166920D01*
X150834Y166847D01*
D02*
G37*
G36*
X100357Y165364D02*
X100347Y165437D01*
X100315Y165502D01*
X100262Y165560D01*
X100188Y165610D01*
X100093Y165652D01*
X99976Y165687D01*
X99839Y165713D01*
X99680Y165733D01*
X99501Y165744D01*
X99300Y165748D01*
Y166535D01*
X99501Y166539D01*
X99839Y166570D01*
X99976Y166597D01*
X100093Y166631D01*
X100188Y166674D01*
X100262Y166724D01*
X100315Y166781D01*
X100347Y166847D01*
X100357Y166920D01*
Y165364D01*
D02*
G37*
G36*
X116230Y165557D02*
X116232Y165540D01*
X116234Y165511D01*
X116240Y164980D01*
X115453D01*
X115451Y165091D01*
X115436Y165278D01*
X115423Y165353D01*
X115407Y165418D01*
X115386Y165470D01*
X115362Y165511D01*
X115334Y165540D01*
X115303Y165557D01*
X115268Y165563D01*
X116228D01*
X116230Y165557D01*
D02*
G37*
G36*
X89473Y164959D02*
X89488Y164791D01*
X89513Y164644D01*
X89547Y164516D01*
X89591Y164407D01*
X89646Y164319D01*
X89710Y164250D01*
X89784Y164201D01*
X89867Y164171D01*
X89961Y164161D01*
X87992D01*
X88086Y164171D01*
X88169Y164201D01*
X88243Y164250D01*
X88307Y164319D01*
X88361Y164407D01*
X88406Y164516D01*
X88440Y164644D01*
X88465Y164791D01*
X88479Y164959D01*
X88484Y165146D01*
X89468D01*
X89473Y164959D01*
D02*
G37*
G36*
X262249Y168865D02*
X262249Y168865D01*
X265478D01*
X269261Y165083D01*
Y163883D01*
X268760Y163784D01*
X268354Y164765D01*
X267565Y165793D01*
X266537Y166582D01*
X265340Y167078D01*
X264055Y167247D01*
X262770Y167078D01*
X261573Y166582D01*
X260545Y165793D01*
X259756Y164765D01*
X259476Y164089D01*
X258976Y164189D01*
Y167205D01*
X249134D01*
Y157362D01*
X252722D01*
X252822Y156886D01*
X251673Y156410D01*
X250686Y155653D01*
X249928Y154666D01*
X249452Y153517D01*
X249419Y153268D01*
X254055D01*
Y151299D01*
X249419D01*
X249452Y151050D01*
X249928Y149901D01*
X250686Y148914D01*
X251673Y148157D01*
X252822Y147681D01*
X253169Y147635D01*
Y147131D01*
X252770Y147078D01*
X251573Y146582D01*
X250545Y145793D01*
X249756Y144765D01*
X249260Y143568D01*
X249091Y142283D01*
X249260Y140999D01*
X249756Y139802D01*
X250545Y138774D01*
X251573Y137985D01*
X252647Y137540D01*
X252647Y137539D01*
Y137028D01*
X252647Y137027D01*
X251573Y136582D01*
X250545Y135793D01*
X249756Y134765D01*
X249260Y133568D01*
X249091Y132283D01*
X249260Y130999D01*
X249756Y129802D01*
X250545Y128774D01*
X251573Y127985D01*
X252647Y127540D01*
X252647Y127539D01*
Y127027D01*
X252647Y127027D01*
X251573Y126582D01*
X250545Y125793D01*
X249756Y124765D01*
X249260Y123568D01*
X249091Y122283D01*
X249260Y120999D01*
X249756Y119802D01*
X250545Y118774D01*
X251573Y117985D01*
X252770Y117489D01*
X253169Y117436D01*
Y116932D01*
X252822Y116886D01*
X251673Y116410D01*
X250686Y115653D01*
X249928Y114666D01*
X249452Y113517D01*
X249419Y113268D01*
X254055D01*
Y111299D01*
X249419D01*
X249452Y111050D01*
X249928Y109901D01*
X250686Y108914D01*
X251673Y108157D01*
X252822Y107681D01*
X253169Y107635D01*
Y107131D01*
X252770Y107078D01*
X251573Y106582D01*
X250545Y105793D01*
X249756Y104765D01*
X249394Y103889D01*
X247316D01*
X247006Y104389D01*
X247173Y104792D01*
X247268Y105512D01*
X247173Y106231D01*
X246896Y106902D01*
X246454Y107477D01*
X245878Y107919D01*
X245208Y108197D01*
X244913Y108236D01*
Y138841D01*
X244913Y138841D01*
X244791Y139456D01*
X244443Y139977D01*
X240817Y143602D01*
X241009Y144064D01*
X242520D01*
X242520Y144064D01*
X243134Y144186D01*
X243655Y144534D01*
X246411Y147290D01*
X246411Y147290D01*
X246759Y147811D01*
X246881Y148425D01*
X246881Y148425D01*
Y166658D01*
X249090Y168867D01*
X262242D01*
X262249Y168865D01*
D02*
G37*
G36*
X116921Y164161D02*
X116931Y164035D01*
X116948Y163923D01*
X116972Y163827D01*
X117002Y163745D01*
X117040Y163678D01*
X117084Y163626D01*
X117134Y163588D01*
X117192Y163566D01*
X117256Y163559D01*
X115793D01*
X115857Y163566D01*
X115914Y163588D01*
X115965Y163626D01*
X116009Y163678D01*
X116046Y163745D01*
X116077Y163827D01*
X116100Y163923D01*
X116117Y164035D01*
X116127Y164161D01*
X116131Y164303D01*
X116918D01*
X116921Y164161D01*
D02*
G37*
G36*
X150834Y163697D02*
X150866Y163632D01*
X150919Y163574D01*
X150993Y163524D01*
X151088Y163482D01*
X151205Y163447D01*
X151342Y163420D01*
X151501Y163401D01*
X151681Y163390D01*
X151882Y163386D01*
Y162598D01*
X151681Y162595D01*
X151342Y162564D01*
X151205Y162537D01*
X151088Y162502D01*
X150993Y162460D01*
X150919Y162410D01*
X150866Y162353D01*
X150834Y162287D01*
X150824Y162214D01*
Y163770D01*
X150834Y163697D01*
D02*
G37*
G36*
X100357Y162214D02*
X100347Y162287D01*
X100315Y162353D01*
X100262Y162410D01*
X100188Y162460D01*
X100093Y162502D01*
X99976Y162537D01*
X99839Y162564D01*
X99680Y162583D01*
X99501Y162595D01*
X99300Y162598D01*
Y163386D01*
X99501Y163390D01*
X99839Y163420D01*
X99976Y163447D01*
X100093Y163482D01*
X100188Y163524D01*
X100262Y163574D01*
X100315Y163632D01*
X100347Y163697D01*
X100357Y163770D01*
Y162214D01*
D02*
G37*
G36*
X78621Y181067D02*
X78896Y180656D01*
X78900Y180646D01*
X78905Y180641D01*
X79133Y180300D01*
X79141Y180217D01*
Y177421D01*
X79270Y176768D01*
X79640Y176215D01*
X83439Y172416D01*
X83832Y172153D01*
X83680Y171653D01*
X81398D01*
Y169882D01*
X82181D01*
X82186Y169896D01*
X82197Y169992D01*
Y169882D01*
X83957D01*
Y168898D01*
X84941D01*
Y166142D01*
X85965D01*
X86135Y165972D01*
X86195Y165799D01*
X85887Y165354D01*
X85433D01*
Y155905D01*
X87270D01*
Y154724D01*
X87400Y154071D01*
X87770Y153518D01*
X88688Y152600D01*
X88481Y152100D01*
X80315D01*
X79662Y151970D01*
X79109Y151600D01*
X78321Y150813D01*
X77951Y150259D01*
X77822Y149606D01*
X75984D01*
Y140157D01*
X75984D01*
X76259Y139677D01*
X76096Y139370D01*
X75098D01*
Y133071D01*
X81004D01*
Y133465D01*
X82382D01*
Y136221D01*
Y138976D01*
X81297D01*
X81185Y139128D01*
X81005Y139476D01*
X81008Y139868D01*
X81065Y140157D01*
X83071D01*
Y148688D01*
X85827D01*
Y145866D01*
X88977D01*
X92126D01*
Y148688D01*
X99197D01*
X99425Y148395D01*
X99446Y148333D01*
X99455Y148267D01*
X99453Y148228D01*
X100364D01*
X101083Y148085D01*
X102953D01*
Y146403D01*
X101083D01*
X100364Y146260D01*
X99453D01*
X99455Y146221D01*
X99446Y146155D01*
X99425Y146093D01*
X99197Y145800D01*
X97638D01*
X96985Y145671D01*
X96431Y145301D01*
X92588Y141457D01*
X92126Y141649D01*
Y143898D01*
X91315D01*
D01*
D01*
X89961D01*
Y140551D01*
X91029D01*
X91220Y140089D01*
X88951Y137820D01*
X88581Y137267D01*
X88451Y136614D01*
Y131988D01*
X87303D01*
X87106Y131595D01*
X85630D01*
Y130783D01*
X85630D01*
X85630D01*
Y129134D01*
X84646D01*
Y128150D01*
X82996D01*
Y127953D01*
X82985Y128065D01*
X82954Y128150D01*
X82185D01*
Y126673D01*
X81753Y126509D01*
X79840D01*
X73360Y132990D01*
Y160711D01*
X75916Y163267D01*
X76378Y163076D01*
Y161614D01*
X77124D01*
X77145Y161643D01*
X77178Y161728D01*
X77189Y161823D01*
Y161614D01*
X78543D01*
Y164161D01*
X78347D01*
X78459Y164173D01*
X78543Y164203D01*
Y164961D01*
X77817D01*
X77500Y165347D01*
X77552Y165610D01*
Y180255D01*
X77555Y180293D01*
X77788Y180641D01*
X77793Y180646D01*
X77797Y180656D01*
X78072Y181067D01*
X78092Y181167D01*
X78601D01*
X78621Y181067D01*
D02*
G37*
G36*
X140743Y161881D02*
X140764Y161866D01*
X140800Y161853D01*
X140849Y161842D01*
X140913Y161833D01*
X141082Y161819D01*
X141443Y161811D01*
Y161024D01*
X141308Y161023D01*
X140849Y160993D01*
X140800Y160981D01*
X140764Y160968D01*
X140743Y160954D01*
X140736Y160937D01*
Y161898D01*
X140743Y161881D01*
D02*
G37*
G36*
X137610Y160937D02*
X137603Y160954D01*
X137579Y160968D01*
X137540Y160981D01*
X137485Y160993D01*
X137414Y161002D01*
X137225Y161016D01*
X136823Y161024D01*
Y161811D01*
X136973Y161812D01*
X137485Y161842D01*
X137540Y161853D01*
X137579Y161866D01*
X137603Y161881D01*
X137610Y161898D01*
Y160937D01*
D02*
G37*
G36*
X110445Y161898D02*
Y160937D01*
X110437Y160972D01*
X110414Y161004D01*
X110374Y161031D01*
X110319Y161056D01*
X110248Y161076D01*
X110162Y161092D01*
X110059Y161105D01*
X109807Y161120D01*
X109658Y161122D01*
Y161909D01*
X110445Y161898D01*
D02*
G37*
G36*
X135626Y162130D02*
X135649Y162063D01*
X135689Y162004D01*
X135744Y161953D01*
X135815Y161909D01*
X135901Y161874D01*
X136004Y161846D01*
X136122Y161827D01*
X136256Y161815D01*
X136405Y161811D01*
Y161024D01*
X136256Y161020D01*
X136122Y161008D01*
X136004Y160988D01*
X135901Y160961D01*
X135815Y160925D01*
X135744Y160882D01*
X135689Y160831D01*
X135649Y160772D01*
X135626Y160705D01*
X135618Y160630D01*
Y162205D01*
X135626Y162130D01*
D02*
G37*
G36*
X105810Y160222D02*
X105826Y160209D01*
X105854Y160197D01*
X105893Y160186D01*
X105944Y160177D01*
X106006Y160170D01*
X106165Y160161D01*
X106371Y160157D01*
Y159370D01*
X106251Y159369D01*
X105840Y159342D01*
X105795Y159332D01*
X105763Y159320D01*
X105743Y159307D01*
X105735Y159293D01*
X105805Y160237D01*
X105810Y160222D01*
D02*
G37*
G36*
X150834Y160547D02*
X150866Y160482D01*
X150919Y160424D01*
X150993Y160374D01*
X151088Y160332D01*
X151205Y160298D01*
X151342Y160271D01*
X151501Y160252D01*
X151681Y160240D01*
X151882Y160236D01*
Y159449D01*
X151681Y159445D01*
X151342Y159414D01*
X151205Y159387D01*
X151088Y159353D01*
X150993Y159310D01*
X150919Y159261D01*
X150866Y159203D01*
X150834Y159138D01*
X150824Y159065D01*
Y160620D01*
X150834Y160547D01*
D02*
G37*
G36*
X100357Y159065D02*
X100347Y159138D01*
X100315Y159203D01*
X100262Y159261D01*
X100188Y159310D01*
X100093Y159353D01*
X99976Y159387D01*
X99839Y159414D01*
X99680Y159433D01*
X99501Y159445D01*
X99300Y159449D01*
Y160236D01*
X99501Y160240D01*
X99839Y160271D01*
X99976Y160298D01*
X100093Y160332D01*
X100188Y160374D01*
X100262Y160424D01*
X100315Y160482D01*
X100347Y160547D01*
X100357Y160620D01*
Y159065D01*
D02*
G37*
G36*
X140744Y159913D02*
X140768Y159898D01*
X140807Y159885D01*
X140862Y159874D01*
X140933Y159864D01*
X141122Y159850D01*
X141523Y159843D01*
Y159055D01*
X141374Y159054D01*
X140862Y159024D01*
X140807Y159013D01*
X140768Y159000D01*
X140744Y158985D01*
X140736Y158969D01*
Y159929D01*
X140744Y159913D01*
D02*
G37*
G36*
X110445Y158969D02*
X110437Y158985D01*
X110414Y159000D01*
X110374Y159013D01*
X110319Y159024D01*
X110248Y159034D01*
X110059Y159047D01*
X109658Y159055D01*
Y159843D01*
X109807Y159843D01*
X110319Y159874D01*
X110374Y159885D01*
X110414Y159898D01*
X110437Y159913D01*
X110445Y159929D01*
Y158969D01*
D02*
G37*
G36*
X140744Y157944D02*
X140768Y157929D01*
X140807Y157916D01*
X140862Y157905D01*
X140933Y157896D01*
X141122Y157882D01*
X141523Y157874D01*
Y157087D01*
X141374Y157086D01*
X140862Y157055D01*
X140807Y157044D01*
X140768Y157031D01*
X140744Y157017D01*
X140736Y157000D01*
Y157960D01*
X140744Y157944D01*
D02*
G37*
G36*
X110445Y157960D02*
Y157000D01*
X110437Y157035D01*
X110414Y157067D01*
X110374Y157095D01*
X110319Y157118D01*
X110248Y157139D01*
X110162Y157156D01*
X110059Y157168D01*
X109807Y157183D01*
X109658Y157185D01*
Y157972D01*
X110445Y157960D01*
D02*
G37*
G36*
X145445Y156144D02*
X145438Y156159D01*
X145418Y156173D01*
X145386Y156185D01*
X145341Y156195D01*
X145283Y156204D01*
X145130Y156217D01*
X144927Y156223D01*
X144807Y156224D01*
Y157011D01*
X144916Y157012D01*
X145239Y157032D01*
X145290Y157041D01*
X145330Y157052D01*
X145358Y157065D01*
X145374Y157079D01*
X145379Y157095D01*
X145445Y156144D01*
D02*
G37*
G36*
X89867Y157101D02*
X89784Y157071D01*
X89710Y157021D01*
X89646Y156951D01*
X89591Y156862D01*
X89547Y156752D01*
X89513Y156623D01*
X89488Y156473D01*
X89473Y156304D01*
X89468Y156114D01*
X88484D01*
X88479Y156304D01*
X88465Y156473D01*
X88440Y156623D01*
X88406Y156752D01*
X88361Y156862D01*
X88307Y156951D01*
X88243Y157021D01*
X88169Y157071D01*
X88086Y157101D01*
X87992Y157111D01*
X89961D01*
X89867Y157101D01*
D02*
G37*
G36*
X150834Y157398D02*
X150866Y157333D01*
X150919Y157275D01*
X150993Y157225D01*
X151088Y157183D01*
X151205Y157148D01*
X151342Y157121D01*
X151501Y157102D01*
X151681Y157090D01*
X151882Y157087D01*
Y156299D01*
X151681Y156295D01*
X151342Y156265D01*
X151205Y156238D01*
X151088Y156203D01*
X150993Y156161D01*
X150919Y156111D01*
X150866Y156053D01*
X150834Y155988D01*
X150824Y155915D01*
Y157471D01*
X150834Y157398D01*
D02*
G37*
G36*
X105559D02*
X105590Y157333D01*
X105643Y157275D01*
X105717Y157225D01*
X105813Y157183D01*
X105929Y157148D01*
X106067Y157121D01*
X106225Y157102D01*
X106405Y157090D01*
X106606Y157087D01*
Y156299D01*
X106405Y156295D01*
X106067Y156265D01*
X105929Y156238D01*
X105813Y156203D01*
X105717Y156161D01*
X105643Y156111D01*
X105590Y156053D01*
X105559Y155988D01*
X105548Y155915D01*
Y157471D01*
X105559Y157398D01*
D02*
G37*
G36*
X100543Y155758D02*
X100425Y155842D01*
X100302Y155917D01*
X100174Y155984D01*
X100042Y156041D01*
X99904Y156090D01*
X99762Y156130D01*
X99615Y156161D01*
X99462Y156183D01*
X99305Y156196D01*
X99143Y156201D01*
Y157185D01*
X99305Y157190D01*
X99462Y157203D01*
X99615Y157225D01*
X99762Y157256D01*
X99904Y157296D01*
X100042Y157345D01*
X100174Y157402D01*
X100302Y157469D01*
X100425Y157544D01*
X100543Y157628D01*
Y155758D01*
D02*
G37*
G36*
X140744Y155975D02*
X140768Y155961D01*
X140807Y155948D01*
X140862Y155937D01*
X140933Y155927D01*
X141122Y155913D01*
X141523Y155905D01*
Y155118D01*
X141374Y155117D01*
X140862Y155087D01*
X140807Y155076D01*
X140768Y155063D01*
X140744Y155048D01*
X140736Y155032D01*
Y155992D01*
X140744Y155975D01*
D02*
G37*
G36*
X110445Y155032D02*
X110437Y155048D01*
X110414Y155063D01*
X110374Y155076D01*
X110319Y155087D01*
X110248Y155096D01*
X110059Y155110D01*
X109658Y155118D01*
Y155905D01*
X109807Y155906D01*
X110319Y155937D01*
X110374Y155948D01*
X110414Y155961D01*
X110437Y155975D01*
X110445Y155992D01*
Y155032D01*
D02*
G37*
G36*
X140744Y154007D02*
X140768Y153992D01*
X140807Y153979D01*
X140862Y153968D01*
X140933Y153959D01*
X141122Y153945D01*
X141523Y153937D01*
Y153150D01*
X141374Y153149D01*
X140862Y153119D01*
X140807Y153107D01*
X140768Y153094D01*
X140744Y153080D01*
X140736Y153063D01*
Y154024D01*
X140744Y154007D01*
D02*
G37*
G36*
X110445Y153063D02*
X110437Y153080D01*
X110414Y153094D01*
X110374Y153107D01*
X110319Y153119D01*
X110248Y153128D01*
X110059Y153142D01*
X109658Y153150D01*
Y153937D01*
X109807Y153938D01*
X110319Y153968D01*
X110374Y153979D01*
X110414Y153992D01*
X110437Y154007D01*
X110445Y154023D01*
Y153063D01*
D02*
G37*
G36*
X150834Y154248D02*
X150866Y154183D01*
X150919Y154125D01*
X150993Y154075D01*
X151088Y154033D01*
X151205Y153998D01*
X151342Y153972D01*
X151501Y153952D01*
X151681Y153941D01*
X151882Y153937D01*
Y153150D01*
X151681Y153146D01*
X151342Y153115D01*
X151205Y153088D01*
X151088Y153054D01*
X150993Y153011D01*
X150919Y152961D01*
X150866Y152904D01*
X150834Y152838D01*
X150824Y152765D01*
Y154321D01*
X150834Y154248D01*
D02*
G37*
G36*
X145633Y152765D02*
X145622Y152838D01*
X145591Y152904D01*
X145538Y152961D01*
X145464Y153011D01*
X145369Y153054D01*
X145252Y153088D01*
X145115Y153115D01*
X144956Y153134D01*
X144776Y153146D01*
X144575Y153150D01*
Y153937D01*
X144776Y153941D01*
X145115Y153972D01*
X145252Y153998D01*
X145369Y154033D01*
X145464Y154075D01*
X145538Y154125D01*
X145591Y154183D01*
X145622Y154248D01*
X145633Y154321D01*
Y152765D01*
D02*
G37*
G36*
X105559Y154248D02*
X105590Y154183D01*
X105643Y154125D01*
X105717Y154075D01*
X105813Y154033D01*
X105929Y153998D01*
X106067Y153972D01*
X106225Y153952D01*
X106405Y153941D01*
X106606Y153937D01*
Y153150D01*
X106405Y153146D01*
X106067Y153115D01*
X105929Y153088D01*
X105813Y153054D01*
X105717Y153011D01*
X105643Y152961D01*
X105590Y152904D01*
X105559Y152838D01*
X105548Y152765D01*
Y154321D01*
X105559Y154248D01*
D02*
G37*
G36*
X100543Y152608D02*
X100425Y152692D01*
X100302Y152768D01*
X100174Y152834D01*
X100042Y152892D01*
X99904Y152940D01*
X99762Y152980D01*
X99615Y153011D01*
X99462Y153033D01*
X99305Y153047D01*
X99143Y153051D01*
Y154035D01*
X99305Y154040D01*
X99462Y154053D01*
X99615Y154075D01*
X99762Y154106D01*
X99904Y154146D01*
X100042Y154195D01*
X100174Y154253D01*
X100302Y154319D01*
X100425Y154394D01*
X100543Y154479D01*
Y152608D01*
D02*
G37*
G36*
X110445Y151095D02*
X110437Y151111D01*
X110414Y151126D01*
X110374Y151139D01*
X110319Y151150D01*
X110248Y151160D01*
X110059Y151173D01*
X109658Y151181D01*
Y151969D01*
X109807Y151969D01*
X110319Y152000D01*
X110374Y152011D01*
X110414Y152024D01*
X110437Y152039D01*
X110445Y152055D01*
Y151095D01*
D02*
G37*
G36*
X209845Y243310D02*
X210421Y242868D01*
X211092Y242591D01*
X211811Y242496D01*
X212530Y242591D01*
X213201Y242868D01*
X213442Y243053D01*
X213942Y242807D01*
Y159533D01*
X212896Y158487D01*
X212504Y157901D01*
X212367Y157210D01*
Y154745D01*
X212208Y154623D01*
X211766Y154048D01*
X211488Y153377D01*
X211394Y152658D01*
X211488Y151938D01*
X211743Y151322D01*
X211595Y150921D01*
X211546Y150822D01*
X178242D01*
X169453Y159611D01*
X169453Y159611D01*
X167360Y161705D01*
X167360Y161705D01*
X164798Y164266D01*
Y170353D01*
X164958Y170475D01*
X165399Y171051D01*
X165677Y171721D01*
X165772Y172441D01*
X165677Y173160D01*
X165399Y173831D01*
X164958Y174407D01*
X164382Y174848D01*
X163712Y175126D01*
X162992Y175221D01*
X162273Y175126D01*
X161602Y174848D01*
X161228Y174561D01*
X160728Y174808D01*
Y175295D01*
X159480D01*
Y177165D01*
X159357Y177780D01*
X159009Y178301D01*
X159009Y178301D01*
X155072Y182238D01*
X154551Y182586D01*
X153937Y182708D01*
X153937Y182708D01*
X149311D01*
Y188091D01*
Y193799D01*
X143602D01*
Y192257D01*
X141142D01*
Y193110D01*
X137052D01*
X136860Y193572D01*
X186757Y243469D01*
X209723D01*
X209845Y243310D01*
D02*
G37*
G36*
X105675Y150987D02*
X105702Y150945D01*
X105746Y150908D01*
X105808Y150876D01*
X105887Y150849D01*
X105984Y150827D01*
X106099Y150810D01*
X106232Y150797D01*
X106550Y150787D01*
Y150000D01*
X106382Y149997D01*
X106099Y149978D01*
X105984Y149961D01*
X105887Y149938D01*
X105808Y149911D01*
X105746Y149880D01*
X105702Y149843D01*
X105675Y149801D01*
X105666Y149754D01*
Y151033D01*
X105675Y150987D01*
D02*
G37*
G36*
X100543Y149459D02*
X100425Y149543D01*
X100302Y149618D01*
X100174Y149684D01*
X100042Y149742D01*
X99904Y149791D01*
X99762Y149831D01*
X99615Y149862D01*
X99462Y149884D01*
X99305Y149897D01*
X99143Y149902D01*
Y150886D01*
X99305Y150890D01*
X99462Y150903D01*
X99615Y150926D01*
X99762Y150957D01*
X99904Y150997D01*
X100042Y151045D01*
X100174Y151103D01*
X100302Y151169D01*
X100425Y151245D01*
X100543Y151329D01*
Y149459D01*
D02*
G37*
G36*
X140744Y150070D02*
X140768Y150055D01*
X140807Y150042D01*
X140862Y150031D01*
X140933Y150022D01*
X141122Y150008D01*
X141523Y150000D01*
Y149213D01*
X141374Y149212D01*
X140862Y149181D01*
X140807Y149170D01*
X140768Y149157D01*
X140744Y149143D01*
X140736Y149126D01*
Y150086D01*
X140744Y150070D01*
D02*
G37*
G36*
X113578Y150070D02*
X113602Y150055D01*
X113642Y150042D01*
X113697Y150031D01*
X113768Y150022D01*
X113956Y150008D01*
X114358Y150000D01*
Y149213D01*
X114208Y149212D01*
X113697Y149181D01*
X113642Y149170D01*
X113602Y149157D01*
X113578Y149143D01*
X113571Y149126D01*
Y150086D01*
X113578Y150070D01*
D02*
G37*
G36*
X110445Y149126D02*
X110437Y149143D01*
X110414Y149157D01*
X110374Y149170D01*
X110319Y149181D01*
X110248Y149191D01*
X110059Y149205D01*
X109658Y149213D01*
Y150000D01*
X109807Y150001D01*
X110319Y150031D01*
X110374Y150042D01*
X110414Y150055D01*
X110437Y150070D01*
X110445Y150086D01*
Y149126D01*
D02*
G37*
G36*
X115575Y148819D02*
X115567Y148894D01*
X115543Y148961D01*
X115503Y149020D01*
X115447Y149071D01*
X115375Y149114D01*
X115287Y149150D01*
X115183Y149177D01*
X115064Y149197D01*
X114928Y149209D01*
X114776Y149213D01*
Y150000D01*
X114928Y150004D01*
X115064Y150016D01*
X115183Y150035D01*
X115287Y150063D01*
X115375Y150098D01*
X115447Y150142D01*
X115503Y150193D01*
X115543Y150252D01*
X115567Y150319D01*
X115575Y150394D01*
Y148819D01*
D02*
G37*
G36*
X80025Y149210D02*
X80039Y149043D01*
X80064Y148896D01*
X80098Y148767D01*
X80143Y148659D01*
X80197Y148571D01*
X80261Y148502D01*
X80335Y148453D01*
X80418Y148423D01*
X80512Y148413D01*
X78543D01*
X78637Y148423D01*
X78720Y148453D01*
X78794Y148502D01*
X78858Y148571D01*
X78912Y148659D01*
X78957Y148767D01*
X78991Y148896D01*
X79016Y149043D01*
X79031Y149210D01*
X79036Y149397D01*
X80020D01*
X80025Y149210D01*
D02*
G37*
G36*
X110445Y147158D02*
X110437Y147174D01*
X110414Y147189D01*
X110374Y147202D01*
X110319Y147213D01*
X110248Y147222D01*
X110059Y147236D01*
X109658Y147244D01*
Y148031D01*
X109807Y148032D01*
X110319Y148063D01*
X110374Y148074D01*
X110414Y148087D01*
X110437Y148101D01*
X110445Y148118D01*
Y147158D01*
D02*
G37*
G36*
X150834Y147949D02*
X150866Y147884D01*
X150919Y147826D01*
X150993Y147776D01*
X151088Y147734D01*
X151205Y147699D01*
X151342Y147672D01*
X151501Y147653D01*
X151681Y147642D01*
X151882Y147638D01*
Y146850D01*
X151681Y146847D01*
X151342Y146816D01*
X151205Y146789D01*
X151088Y146754D01*
X150993Y146712D01*
X150919Y146662D01*
X150866Y146605D01*
X150834Y146539D01*
X150824Y146466D01*
Y148022D01*
X150834Y147949D01*
D02*
G37*
G36*
X145633Y146466D02*
X145622Y146539D01*
X145591Y146605D01*
X145538Y146662D01*
X145464Y146712D01*
X145369Y146754D01*
X145252Y146789D01*
X145115Y146816D01*
X144956Y146835D01*
X144776Y146847D01*
X144575Y146850D01*
Y147638D01*
X144776Y147642D01*
X145115Y147672D01*
X145252Y147699D01*
X145369Y147734D01*
X145464Y147776D01*
X145538Y147826D01*
X145591Y147884D01*
X145622Y147949D01*
X145633Y148022D01*
Y146466D01*
D02*
G37*
G36*
X157000Y146457D02*
X156992Y146531D01*
X156969Y146598D01*
X156929Y146658D01*
X156874Y146709D01*
X156803Y146752D01*
X156717Y146787D01*
X156614Y146815D01*
X156496Y146835D01*
X156362Y146846D01*
X156213Y146850D01*
Y147638D01*
X156362Y147642D01*
X156496Y147653D01*
X156614Y147673D01*
X156717Y147701D01*
X156803Y147736D01*
X156874Y147780D01*
X156929Y147831D01*
X156969Y147890D01*
X156992Y147957D01*
X157000Y148031D01*
Y146457D01*
D02*
G37*
G36*
X165834Y148313D02*
X165870Y148213D01*
X165930Y148124D01*
X166013Y148047D01*
X166121Y147982D01*
X166252Y147929D01*
X166407Y147888D01*
X166586Y147858D01*
X166789Y147841D01*
X167016Y147835D01*
Y146653D01*
X166789Y146648D01*
X166586Y146630D01*
X166407Y146600D01*
X166252Y146559D01*
X166121Y146506D01*
X166013Y146441D01*
X165930Y146364D01*
X165870Y146276D01*
X165834Y146175D01*
X165823Y146063D01*
Y148425D01*
X165834Y148313D01*
D02*
G37*
G36*
X140744Y146133D02*
X140768Y146118D01*
X140807Y146105D01*
X140862Y146094D01*
X140933Y146085D01*
X141122Y146071D01*
X141523Y146063D01*
Y145276D01*
X141374Y145275D01*
X140862Y145245D01*
X140807Y145233D01*
X140768Y145220D01*
X140744Y145206D01*
X140736Y145189D01*
Y146149D01*
X140744Y146133D01*
D02*
G37*
G36*
X137610Y145189D02*
X137603Y145206D01*
X137579Y145220D01*
X137540Y145233D01*
X137485Y145245D01*
X137414Y145254D01*
X137225Y145268D01*
X136823Y145276D01*
Y146063D01*
X136973Y146064D01*
X137485Y146094D01*
X137540Y146105D01*
X137579Y146118D01*
X137603Y146133D01*
X137610Y146149D01*
Y145189D01*
D02*
G37*
G36*
X110445Y145189D02*
X110437Y145205D01*
X110414Y145220D01*
X110374Y145233D01*
X110319Y145244D01*
X110248Y145254D01*
X110059Y145268D01*
X109658Y145275D01*
Y146063D01*
X109807Y146064D01*
X110319Y146094D01*
X110374Y146105D01*
X110414Y146118D01*
X110437Y146133D01*
X110445Y146149D01*
Y145189D01*
D02*
G37*
G36*
X159323Y145588D02*
X159287Y145566D01*
X159256Y145531D01*
X159229Y145481D01*
X159206Y145417D01*
X159187Y145338D01*
X159172Y145246D01*
X159162Y145139D01*
X159153Y144882D01*
X158169D01*
X158167Y145017D01*
X158150Y145246D01*
X158136Y145338D01*
X158117Y145417D01*
X158094Y145481D01*
X158067Y145531D01*
X158036Y145566D01*
X158000Y145588D01*
X157960Y145595D01*
X159362D01*
X159323Y145588D01*
D02*
G37*
G36*
X135626Y146382D02*
X135649Y146315D01*
X135689Y146256D01*
X135744Y146205D01*
X135815Y146161D01*
X135901Y146126D01*
X136004Y146098D01*
X136122Y146079D01*
X136256Y146067D01*
X136405Y146063D01*
Y145276D01*
X136256Y145272D01*
X136122Y145260D01*
X136004Y145240D01*
X135901Y145213D01*
X135815Y145177D01*
X135744Y145134D01*
X135689Y145083D01*
X135649Y145024D01*
X135626Y144957D01*
X135618Y144882D01*
Y146457D01*
X135626Y146382D01*
D02*
G37*
G36*
X140744Y144165D02*
X140768Y144150D01*
X140807Y144137D01*
X140862Y144126D01*
X140933Y144116D01*
X141122Y144102D01*
X141523Y144095D01*
Y143307D01*
X141374Y143306D01*
X140862Y143276D01*
X140807Y143265D01*
X140768Y143252D01*
X140744Y143237D01*
X140736Y143221D01*
Y144181D01*
X140744Y144165D01*
D02*
G37*
G36*
X110445Y143221D02*
X110440Y143237D01*
X110424Y143252D01*
X110397Y143265D01*
X110360Y143276D01*
X110311Y143285D01*
X110252Y143293D01*
X110103Y143304D01*
X109910Y143307D01*
Y144094D01*
X110012Y144095D01*
X110311Y144116D01*
X110360Y144125D01*
X110397Y144137D01*
X110424Y144150D01*
X110440Y144164D01*
X110445Y144181D01*
Y143221D01*
D02*
G37*
G36*
X100543Y143159D02*
X100425Y143244D01*
X100302Y143319D01*
X100174Y143385D01*
X100042Y143443D01*
X99904Y143492D01*
X99762Y143532D01*
X99615Y143562D01*
X99462Y143585D01*
X99305Y143598D01*
X99143Y143602D01*
Y144587D01*
X99305Y144591D01*
X99462Y144604D01*
X99615Y144626D01*
X99762Y144658D01*
X99904Y144697D01*
X100042Y144746D01*
X100174Y144804D01*
X100302Y144870D01*
X100425Y144946D01*
X100543Y145030D01*
Y143159D01*
D02*
G37*
G36*
X128272Y143520D02*
X128205Y143496D01*
X128146Y143456D01*
X128094Y143400D01*
X128051Y143328D01*
X128016Y143240D01*
X127988Y143136D01*
X127969Y143016D01*
X127957Y142880D01*
X127953Y142728D01*
X127165D01*
X127161Y142880D01*
X127150Y143016D01*
X127130Y143136D01*
X127102Y143240D01*
X127067Y143328D01*
X127024Y143400D01*
X126972Y143456D01*
X126913Y143496D01*
X126847Y143520D01*
X126772Y143528D01*
X128347D01*
X128272Y143520D01*
D02*
G37*
G36*
X164670Y142555D02*
X164682Y142398D01*
X164703Y142259D01*
X164733Y142139D01*
X164770Y142038D01*
X164816Y141955D01*
X164871Y141890D01*
X164934Y141844D01*
X165005Y141816D01*
X165085Y141807D01*
X163261D01*
X163341Y141816D01*
X163412Y141844D01*
X163476Y141890D01*
X163530Y141955D01*
X163576Y142038D01*
X163614Y142139D01*
X163643Y142259D01*
X163664Y142398D01*
X163677Y142555D01*
X163681Y142730D01*
X164665D01*
X164670Y142555D01*
D02*
G37*
G36*
X127954Y142161D02*
X127984Y141649D01*
X127995Y141594D01*
X128008Y141555D01*
X128023Y141531D01*
X128039Y141523D01*
X127079D01*
X127095Y141531D01*
X127110Y141555D01*
X127123Y141594D01*
X127134Y141649D01*
X127144Y141720D01*
X127158Y141909D01*
X127165Y142311D01*
X127953D01*
X127954Y142161D01*
D02*
G37*
G36*
X80247Y141353D02*
X80176Y141326D01*
X80113Y141279D01*
X80058Y141215D01*
X80012Y141132D01*
X79974Y141030D01*
X79945Y140910D01*
X79924Y140771D01*
X79912Y140614D01*
X79907Y140439D01*
X78923D01*
X78919Y140614D01*
X78906Y140771D01*
X78885Y140910D01*
X78856Y141030D01*
X78818Y141132D01*
X78772Y141215D01*
X78717Y141279D01*
X78654Y141326D01*
X78583Y141353D01*
X78503Y141363D01*
X80327D01*
X80247Y141353D01*
D02*
G37*
G36*
X173668Y141384D02*
X173668Y141384D01*
X174189Y141036D01*
X174803Y140914D01*
X232548D01*
X232882Y140414D01*
X232748Y140089D01*
X232653Y139370D01*
X232748Y138650D01*
X233025Y137980D01*
X233467Y137404D01*
X233827Y137128D01*
Y135264D01*
X233327Y135018D01*
X233240Y135084D01*
X232569Y135362D01*
X231850Y135457D01*
X231130Y135362D01*
X230460Y135084D01*
X229884Y134643D01*
X229608Y134283D01*
X181522D01*
X180908Y134161D01*
X180387Y133812D01*
X180387Y133812D01*
X168259Y121684D01*
X120744D01*
X117747Y124681D01*
Y126814D01*
X118188Y127050D01*
X118408Y126903D01*
X119291Y126727D01*
X120175Y126903D01*
X120866Y127365D01*
X121558Y126903D01*
X122441Y126727D01*
X123324Y126903D01*
X124016Y127365D01*
X124707Y126903D01*
X125591Y126727D01*
X126474Y126903D01*
X127223Y127403D01*
X127680Y127494D01*
X127756Y127444D01*
Y128317D01*
X127899Y129035D01*
Y130905D01*
Y132776D01*
X127756Y133494D01*
Y134367D01*
X127680Y134317D01*
X127223Y134408D01*
X126474Y134908D01*
X125591Y135084D01*
X124707Y134908D01*
X124016Y134446D01*
X123324Y134908D01*
X122441Y135084D01*
X121558Y134908D01*
X120866Y134446D01*
X120407Y134752D01*
X120302Y135354D01*
X120820Y135872D01*
X121168Y136393D01*
X121291Y137008D01*
X121715Y137205D01*
X127264D01*
Y137598D01*
X127264D01*
Y137610D01*
X127165D01*
X127164Y137760D01*
X127134Y138272D01*
X127123Y138327D01*
X127110Y138366D01*
X127095Y138390D01*
X127079Y138398D01*
X127264D01*
Y139961D01*
X127854D01*
Y138398D01*
X128039D01*
X128023Y138390D01*
X128008Y138366D01*
X127995Y138327D01*
X127984Y138272D01*
X127974Y138201D01*
X127961Y138012D01*
X127953Y137610D01*
X127854D01*
Y137598D01*
X127854D01*
Y137205D01*
X133867D01*
X133950Y136787D01*
X134298Y136266D01*
X135002Y135562D01*
X134817Y135039D01*
X134156Y134908D01*
X133465Y134446D01*
X132773Y134908D01*
X131890Y135084D01*
X131007Y134908D01*
X130258Y134408D01*
X129800Y134317D01*
X129724Y134367D01*
Y133494D01*
X129581Y132776D01*
Y130905D01*
Y129035D01*
X129724Y128317D01*
Y127444D01*
X129800Y127494D01*
X130258Y127403D01*
X131007Y126903D01*
X131890Y126727D01*
X132773Y126903D01*
X133465Y127365D01*
X134156Y126903D01*
X135039Y126727D01*
X135923Y126903D01*
X136614Y127365D01*
X137306Y126903D01*
X138189Y126727D01*
X138476Y126784D01*
X138831Y126345D01*
X138654Y125916D01*
X138559Y125197D01*
X138654Y124477D01*
X138931Y123807D01*
X139373Y123231D01*
X139949Y122790D01*
X140619Y122512D01*
X141339Y122417D01*
X142058Y122512D01*
X142728Y122790D01*
X143304Y123231D01*
X143746Y123807D01*
X144024Y124477D01*
X144118Y125197D01*
X144024Y125916D01*
X143746Y126587D01*
X143304Y127162D01*
X143148Y127282D01*
X143158Y127427D01*
X143173Y127528D01*
X143191Y127622D01*
X143209Y127693D01*
X143225Y127742D01*
X143237Y127769D01*
X143239Y127774D01*
X143269Y127818D01*
X143307Y127907D01*
X143471Y128152D01*
X143647Y129035D01*
Y132776D01*
X143471Y133659D01*
X142971Y134408D01*
X142944Y134425D01*
Y134646D01*
X142822Y135260D01*
X142474Y135781D01*
X142474Y135781D01*
X140899Y137356D01*
X140378Y137704D01*
X139764Y137826D01*
X139764Y137826D01*
X137279D01*
X137106Y137999D01*
Y138342D01*
X137118Y138398D01*
X137111Y138430D01*
X137116Y138463D01*
X137106Y138500D01*
Y142028D01*
X140634D01*
X140671Y142018D01*
X140717Y141530D01*
Y139173D01*
X140717Y139173D01*
X140839Y138559D01*
X141188Y138038D01*
X142565Y136660D01*
X142565Y136660D01*
X143086Y136312D01*
X143701Y136190D01*
X143701Y136190D01*
X144709D01*
X144726Y136163D01*
X145475Y135663D01*
X146358Y135487D01*
X150098D01*
X150982Y135663D01*
X151405Y135946D01*
X153307Y134044D01*
X153861Y133674D01*
X154232Y133600D01*
Y131791D01*
X154483D01*
X154704Y131343D01*
X154679Y131311D01*
X154402Y130641D01*
X154307Y129921D01*
X154402Y129202D01*
X154679Y128531D01*
X155121Y127956D01*
X155697Y127514D01*
X156367Y127236D01*
X157087Y127142D01*
X157806Y127236D01*
X158476Y127514D01*
X159052Y127956D01*
X159494Y128531D01*
X159772Y129202D01*
X159866Y129921D01*
X159772Y130641D01*
X159494Y131311D01*
X159469Y131343D01*
X159691Y131791D01*
X159941D01*
Y137500D01*
X159547Y137697D01*
Y139164D01*
X159442Y139156D01*
X159277Y139131D01*
X159133Y139096D01*
X159012Y139051D01*
X158912Y138996D01*
X158835Y138930D01*
X158780Y138855D01*
X158747Y138770D01*
X158736Y138675D01*
Y139173D01*
X157087D01*
Y141142D01*
X159547D01*
Y141228D01*
X160047Y141639D01*
X160236Y141601D01*
X161319D01*
X161319Y137303D01*
X161713Y137047D01*
X161713Y136803D01*
Y135630D01*
X162482D01*
X162512Y135715D01*
X162524Y135827D01*
Y135630D01*
X166634D01*
Y137047D01*
X167028Y137303D01*
X167028Y137363D01*
Y141758D01*
X167528Y141857D01*
X167552Y141798D01*
X167994Y141222D01*
X168570Y140780D01*
X169240Y140503D01*
X169959Y140408D01*
X170679Y140503D01*
X171349Y140780D01*
X171925Y141222D01*
X172367Y141798D01*
X172454Y142010D01*
X172945Y142107D01*
X173668Y141384D01*
D02*
G37*
G36*
X145633Y140167D02*
X145622Y140240D01*
X145591Y140305D01*
X145538Y140363D01*
X145464Y140413D01*
X145369Y140455D01*
X145252Y140490D01*
X145115Y140517D01*
X144956Y140536D01*
X144776Y140547D01*
X144575Y140551D01*
Y141339D01*
X144776Y141342D01*
X145115Y141373D01*
X145252Y141400D01*
X145369Y141435D01*
X145464Y141477D01*
X145538Y141527D01*
X145591Y141585D01*
X145622Y141650D01*
X145633Y141723D01*
Y140167D01*
D02*
G37*
G36*
X105559Y141650D02*
X105590Y141585D01*
X105643Y141527D01*
X105717Y141477D01*
X105813Y141435D01*
X105929Y141400D01*
X106067Y141373D01*
X106225Y141354D01*
X106405Y141342D01*
X106606Y141339D01*
Y140551D01*
X106405Y140547D01*
X106067Y140517D01*
X105929Y140490D01*
X105813Y140455D01*
X105717Y140413D01*
X105643Y140363D01*
X105590Y140305D01*
X105559Y140240D01*
X105548Y140167D01*
Y141723D01*
X105559Y141650D01*
D02*
G37*
G36*
X150756Y141796D02*
X150879Y141721D01*
X151007Y141654D01*
X151139Y141596D01*
X151277Y141548D01*
X151419Y141508D01*
X151567Y141477D01*
X151719Y141455D01*
X151876Y141441D01*
X152038Y141437D01*
Y140453D01*
X151876Y140448D01*
X151719Y140435D01*
X151567Y140413D01*
X151419Y140382D01*
X151277Y140342D01*
X151139Y140293D01*
X151007Y140236D01*
X150879Y140169D01*
X150756Y140094D01*
X150638Y140010D01*
Y141880D01*
X150756Y141796D01*
D02*
G37*
G36*
X100543Y140010D02*
X100425Y140094D01*
X100302Y140169D01*
X100174Y140236D01*
X100042Y140293D01*
X99904Y140342D01*
X99762Y140382D01*
X99615Y140413D01*
X99462Y140435D01*
X99305Y140448D01*
X99143Y140453D01*
Y141437D01*
X99305Y141441D01*
X99462Y141455D01*
X99615Y141477D01*
X99762Y141508D01*
X99904Y141548D01*
X100042Y141596D01*
X100174Y141654D01*
X100302Y141721D01*
X100425Y141796D01*
X100543Y141880D01*
Y140010D01*
D02*
G37*
G36*
X155437Y139173D02*
X155427Y139267D01*
X155397Y139350D01*
X155348Y139424D01*
X155278Y139488D01*
X155188Y139542D01*
X155079Y139587D01*
X154949Y139621D01*
X154800Y139646D01*
X154630Y139660D01*
X154441Y139665D01*
Y140650D01*
X154630Y140655D01*
X154800Y140669D01*
X154949Y140694D01*
X155079Y140728D01*
X155188Y140773D01*
X155278Y140827D01*
X155348Y140891D01*
X155397Y140965D01*
X155427Y141048D01*
X155437Y141142D01*
Y139173D01*
D02*
G37*
G36*
X78562Y138913D02*
X78574Y138756D01*
X78595Y138618D01*
X78624Y138497D01*
X78662Y138396D01*
X78708Y138313D01*
X78763Y138248D01*
X78826Y138202D01*
X78897Y138174D01*
X78977Y138165D01*
X77153D01*
X77233Y138174D01*
X77304Y138202D01*
X77367Y138248D01*
X77422Y138313D01*
X77468Y138396D01*
X77506Y138497D01*
X77535Y138618D01*
X77556Y138756D01*
X77569Y138913D01*
X77573Y139089D01*
X78557D01*
X78562Y138913D01*
D02*
G37*
G36*
X116212Y138392D02*
X116197Y138374D01*
X116184Y138344D01*
X116173Y138301D01*
X116163Y138247D01*
X116156Y138181D01*
X116145Y138012D01*
X116142Y137795D01*
X115354D01*
X115353Y137910D01*
X115333Y138247D01*
X115323Y138301D01*
X115312Y138344D01*
X115299Y138374D01*
X115284Y138392D01*
X115268Y138398D01*
X116228D01*
X116212Y138392D01*
D02*
G37*
G36*
X135897Y138390D02*
X135882Y138366D01*
X135869Y138327D01*
X135858Y138272D01*
X135848Y138201D01*
X135835Y138012D01*
X135827Y137610D01*
X135039D01*
X135038Y137760D01*
X135008Y138272D01*
X134997Y138327D01*
X134984Y138366D01*
X134969Y138390D01*
X134953Y138398D01*
X135913D01*
X135897Y138390D01*
D02*
G37*
G36*
X120149D02*
X120134Y138366D01*
X120121Y138327D01*
X120110Y138272D01*
X120100Y138201D01*
X120087Y138012D01*
X120079Y137610D01*
X119291D01*
X119290Y137760D01*
X119260Y138272D01*
X119249Y138327D01*
X119236Y138366D01*
X119221Y138390D01*
X119205Y138398D01*
X120165D01*
X120149Y138390D01*
D02*
G37*
G36*
X118180D02*
X118166Y138366D01*
X118152Y138327D01*
X118141Y138272D01*
X118132Y138201D01*
X118118Y138012D01*
X118110Y137610D01*
X117323D01*
X117322Y137760D01*
X117292Y138272D01*
X117280Y138327D01*
X117268Y138366D01*
X117253Y138390D01*
X117236Y138398D01*
X118197D01*
X118180Y138390D01*
D02*
G37*
G36*
X145633Y137017D02*
X145622Y137090D01*
X145591Y137156D01*
X145538Y137213D01*
X145464Y137263D01*
X145369Y137305D01*
X145252Y137340D01*
X145115Y137367D01*
X144956Y137386D01*
X144776Y137398D01*
X144575Y137402D01*
Y138189D01*
X144776Y138193D01*
X145115Y138224D01*
X145252Y138250D01*
X145369Y138285D01*
X145464Y138327D01*
X145538Y138377D01*
X145591Y138435D01*
X145622Y138500D01*
X145633Y138573D01*
Y137017D01*
D02*
G37*
G36*
X105559Y138500D02*
X105590Y138435D01*
X105643Y138377D01*
X105717Y138327D01*
X105813Y138285D01*
X105929Y138250D01*
X106067Y138224D01*
X106225Y138204D01*
X106405Y138193D01*
X106606Y138189D01*
Y137402D01*
X106405Y137398D01*
X106067Y137367D01*
X105929Y137340D01*
X105813Y137305D01*
X105717Y137263D01*
X105643Y137213D01*
X105590Y137156D01*
X105559Y137090D01*
X105548Y137017D01*
Y138573D01*
X105559Y138500D01*
D02*
G37*
G36*
X150832Y138521D02*
X150866Y138472D01*
X150924Y138429D01*
X151004Y138391D01*
X151107Y138359D01*
X151234Y138334D01*
X151383Y138313D01*
X151750Y138290D01*
X151969Y138287D01*
Y137303D01*
X151750Y137300D01*
X151234Y137257D01*
X151107Y137231D01*
X151004Y137199D01*
X150924Y137162D01*
X150866Y137118D01*
X150832Y137069D01*
X150820Y137015D01*
Y138576D01*
X150832Y138521D01*
D02*
G37*
G36*
X100543Y136860D02*
X100425Y136944D01*
X100302Y137020D01*
X100174Y137086D01*
X100042Y137144D01*
X99904Y137192D01*
X99762Y137232D01*
X99615Y137263D01*
X99462Y137285D01*
X99305Y137299D01*
X99143Y137303D01*
Y138287D01*
X99305Y138292D01*
X99462Y138305D01*
X99615Y138327D01*
X99762Y138358D01*
X99904Y138398D01*
X100042Y138447D01*
X100174Y138505D01*
X100302Y138571D01*
X100425Y138646D01*
X100543Y138731D01*
Y136860D01*
D02*
G37*
G36*
X108038Y136223D02*
X108165Y136118D01*
X108271Y135991D01*
X108327Y135887D01*
X108237Y135433D01*
X108237Y135433D01*
Y134425D01*
X108210Y134408D01*
X107710Y133659D01*
X107534Y132776D01*
Y129035D01*
X107710Y128152D01*
X108210Y127403D01*
X108237Y127386D01*
Y125861D01*
X108237Y125861D01*
X108359Y125246D01*
X108707Y124725D01*
X116011Y117422D01*
X115819Y116960D01*
X100492D01*
Y118209D01*
X99444D01*
Y119587D01*
X100886Y119587D01*
X101142Y119980D01*
X101386Y119980D01*
X102559D01*
Y122441D01*
Y124902D01*
X101142D01*
X100886Y125295D01*
X100826Y125295D01*
X99738D01*
Y125984D01*
X99608Y126637D01*
X99238Y127191D01*
X95801Y130628D01*
Y131230D01*
X95919Y131289D01*
X96301Y131429D01*
X96918Y131173D01*
X97638Y131079D01*
X98357Y131173D01*
X99028Y131451D01*
X99603Y131893D01*
X100045Y132468D01*
X100323Y133139D01*
X100417Y133858D01*
X100323Y134578D01*
X100067Y135196D01*
X100166Y135382D01*
X100385Y135626D01*
X101083Y135487D01*
X104823D01*
X105706Y135663D01*
X106455Y136163D01*
X106473Y136190D01*
X107480D01*
X107480Y136190D01*
X107934Y136280D01*
X108038Y136223D01*
D02*
G37*
G36*
X155437Y134338D02*
X155428Y134418D01*
X155400Y134490D01*
X155354Y134552D01*
X155290Y134607D01*
X155206Y134653D01*
X155105Y134691D01*
X154985Y134720D01*
X154846Y134741D01*
X154689Y134754D01*
X154514Y134758D01*
Y135742D01*
X154689Y135747D01*
X154846Y135759D01*
X154985Y135780D01*
X155105Y135810D01*
X155206Y135847D01*
X155290Y135893D01*
X155354Y135948D01*
X155400Y136011D01*
X155428Y136082D01*
X155437Y136162D01*
Y134338D01*
D02*
G37*
G36*
X141736Y134358D02*
X141767Y134019D01*
X141794Y133882D01*
X141828Y133765D01*
X141871Y133670D01*
X141921Y133596D01*
X141978Y133543D01*
X142043Y133511D01*
X142116Y133501D01*
X140561D01*
X140634Y133511D01*
X140699Y133543D01*
X140757Y133596D01*
X140807Y133670D01*
X140849Y133765D01*
X140883Y133882D01*
X140910Y134019D01*
X140929Y134178D01*
X140941Y134358D01*
X140945Y134559D01*
X141732D01*
X141736Y134358D01*
D02*
G37*
G36*
X113390D02*
X113420Y134019D01*
X113447Y133882D01*
X113482Y133765D01*
X113524Y133670D01*
X113574Y133596D01*
X113632Y133543D01*
X113697Y133511D01*
X113770Y133501D01*
X112214D01*
X112287Y133511D01*
X112353Y133543D01*
X112410Y133596D01*
X112460Y133670D01*
X112502Y133765D01*
X112537Y133882D01*
X112564Y134019D01*
X112583Y134178D01*
X112595Y134358D01*
X112598Y134559D01*
X113386D01*
X113390Y134358D01*
D02*
G37*
G36*
X110240D02*
X110271Y134019D01*
X110298Y133882D01*
X110332Y133765D01*
X110374Y133670D01*
X110424Y133596D01*
X110482Y133543D01*
X110547Y133511D01*
X110620Y133501D01*
X109065D01*
X109138Y133511D01*
X109203Y133543D01*
X109261Y133596D01*
X109310Y133670D01*
X109353Y133765D01*
X109387Y133882D01*
X109414Y134019D01*
X109433Y134178D01*
X109445Y134358D01*
X109449Y134559D01*
X110236D01*
X110240Y134358D01*
D02*
G37*
G36*
X158156Y132973D02*
X158055Y132937D01*
X157966Y132878D01*
X157890Y132796D01*
X157825Y132689D01*
X157772Y132559D01*
X157730Y132406D01*
X157701Y132229D01*
X157683Y132028D01*
X157677Y131803D01*
X156496D01*
X156490Y132028D01*
X156472Y132229D01*
X156443Y132406D01*
X156402Y132559D01*
X156348Y132689D01*
X156283Y132796D01*
X156207Y132878D01*
X156118Y132937D01*
X156018Y132973D01*
X155905Y132984D01*
X158268D01*
X158156Y132973D01*
D02*
G37*
G36*
X141756Y131323D02*
X140921D01*
X140925Y131339D01*
X140929Y131379D01*
X140936Y131527D01*
X140945Y132527D01*
X141732D01*
X141756Y131323D01*
D02*
G37*
G36*
X90654Y131590D02*
X90669Y131421D01*
X90694Y131271D01*
X90728Y131142D01*
X90773Y131032D01*
X90827Y130942D01*
X90891Y130873D01*
X90965Y130823D01*
X91048Y130793D01*
X91142Y130783D01*
X89173D01*
X89267Y130793D01*
X89350Y130823D01*
X89424Y130873D01*
X89488Y130942D01*
X89542Y131032D01*
X89587Y131142D01*
X89621Y131271D01*
X89646Y131421D01*
X89660Y131590D01*
X89665Y131779D01*
X90650D01*
X90654Y131590D01*
D02*
G37*
G36*
X116847Y128299D02*
X116781Y128268D01*
X116724Y128215D01*
X116674Y128141D01*
X116631Y128046D01*
X116597Y127929D01*
X116570Y127792D01*
X116551Y127633D01*
X116539Y127453D01*
X116535Y127252D01*
X115748D01*
X115744Y127453D01*
X115714Y127792D01*
X115687Y127929D01*
X115652Y128046D01*
X115610Y128141D01*
X115560Y128215D01*
X115502Y128268D01*
X115437Y128299D01*
X115364Y128310D01*
X116920D01*
X116847Y128299D01*
D02*
G37*
G36*
X113697D02*
X113632Y128268D01*
X113574Y128215D01*
X113524Y128141D01*
X113482Y128046D01*
X113447Y127929D01*
X113420Y127792D01*
X113401Y127633D01*
X113390Y127453D01*
X113386Y127252D01*
X112598D01*
X112595Y127453D01*
X112564Y127792D01*
X112537Y127929D01*
X112502Y128046D01*
X112460Y128141D01*
X112410Y128215D01*
X112353Y128268D01*
X112287Y128299D01*
X112214Y128310D01*
X113770D01*
X113697Y128299D01*
D02*
G37*
G36*
X110547D02*
X110482Y128268D01*
X110424Y128215D01*
X110374Y128141D01*
X110332Y128046D01*
X110298Y127929D01*
X110271Y127792D01*
X110252Y127633D01*
X110240Y127453D01*
X110236Y127252D01*
X109449D01*
X109445Y127453D01*
X109414Y127792D01*
X109387Y127929D01*
X109353Y128046D01*
X109310Y128141D01*
X109261Y128215D01*
X109203Y128268D01*
X109138Y128299D01*
X109065Y128310D01*
X110620D01*
X110547Y128299D01*
D02*
G37*
G36*
X142208Y128399D02*
X142150Y128290D01*
X142098Y128168D01*
X142053Y128034D01*
X142015Y127886D01*
X141984Y127726D01*
X141960Y127553D01*
X141933Y127169D01*
X141929Y126958D01*
X140748D01*
X140745Y127169D01*
X140717Y127553D01*
X140693Y127726D01*
X140662Y127886D01*
X140624Y128034D01*
X140579Y128168D01*
X140527Y128290D01*
X140469Y128399D01*
X140403Y128496D01*
X142274D01*
X142208Y128399D01*
D02*
G37*
G36*
X91226Y127473D02*
X91126Y127437D01*
X91037Y127377D01*
X90961Y127294D01*
X90896Y127186D01*
X90842Y127055D01*
X90801Y126900D01*
X90772Y126721D01*
X90754Y126518D01*
X90748Y126292D01*
X89567D01*
X89561Y126518D01*
X89543Y126721D01*
X89514Y126900D01*
X89472Y127055D01*
X89419Y127186D01*
X89354Y127294D01*
X89278Y127377D01*
X89189Y127437D01*
X89089Y127473D01*
X88976Y127485D01*
X91339D01*
X91226Y127473D01*
D02*
G37*
G36*
X98528Y124897D02*
X98543Y124728D01*
X98568Y124578D01*
X98602Y124449D01*
X98647Y124339D01*
X98701Y124250D01*
X98765Y124180D01*
X98839Y124130D01*
X98922Y124100D01*
X99016Y124090D01*
X97047D01*
X97141Y124100D01*
X97224Y124130D01*
X97298Y124180D01*
X97362Y124250D01*
X97416Y124339D01*
X97461Y124449D01*
X97495Y124578D01*
X97520Y124728D01*
X97534Y124897D01*
X97539Y125086D01*
X98524D01*
X98528Y124897D01*
D02*
G37*
G36*
X98707Y120780D02*
X98606Y120744D01*
X98518Y120684D01*
X98441Y120601D01*
X98376Y120493D01*
X98323Y120362D01*
X98282Y120207D01*
X98252Y120028D01*
X98234Y119825D01*
X98228Y119599D01*
X97047D01*
X97041Y119825D01*
X97024Y120028D01*
X96994Y120207D01*
X96953Y120362D01*
X96900Y120493D01*
X96835Y120601D01*
X96758Y120684D01*
X96669Y120744D01*
X96569Y120780D01*
X96457Y120792D01*
X98819D01*
X98707Y120780D01*
D02*
G37*
G36*
X92716Y120391D02*
X91535Y118620D01*
X91524Y118844D01*
X91488Y119045D01*
X91429Y119222D01*
X91347Y119376D01*
X91240Y119505D01*
X91110Y119612D01*
X90957Y119694D01*
X90780Y119754D01*
X90579Y119789D01*
X90354Y119801D01*
Y120982D01*
X90579Y120994D01*
X90780Y121029D01*
X90957Y121088D01*
X91110Y121171D01*
X91240Y121277D01*
X91347Y121407D01*
X91429Y121561D01*
X91488Y121738D01*
X91524Y121939D01*
X91535Y122163D01*
X92716Y120391D01*
D02*
G37*
G36*
X98234Y117970D02*
X98252Y117767D01*
X98282Y117588D01*
X98323Y117433D01*
X98376Y117302D01*
X98441Y117194D01*
X98518Y117111D01*
X98606Y117051D01*
X98707Y117016D01*
X98819Y117004D01*
X96457D01*
X96569Y117016D01*
X96669Y117051D01*
X96758Y117111D01*
X96835Y117194D01*
X96900Y117302D01*
X96953Y117433D01*
X96994Y117588D01*
X97024Y117767D01*
X97041Y117970D01*
X97047Y118197D01*
X98228D01*
X98234Y117970D01*
D02*
G37*
G36*
X92722D02*
X92740Y117767D01*
X92770Y117588D01*
X92811Y117433D01*
X92864Y117302D01*
X92929Y117194D01*
X93006Y117111D01*
X93094Y117051D01*
X93195Y117016D01*
X93307Y117004D01*
X90945D01*
X91057Y117016D01*
X91158Y117051D01*
X91246Y117111D01*
X91323Y117194D01*
X91388Y117302D01*
X91441Y117433D01*
X91482Y117588D01*
X91512Y117767D01*
X91530Y117970D01*
X91535Y118197D01*
X92716D01*
X92722Y117970D01*
D02*
G37*
G36*
X98071Y115768D02*
X98111Y115763D01*
X98259Y115757D01*
X99259Y115748D01*
Y114961D01*
X98055Y114936D01*
Y115772D01*
X98071Y115768D01*
D02*
G37*
G36*
X99307Y116067D02*
X99331Y116000D01*
X99370Y115941D01*
X99425Y115890D01*
X99496Y115847D01*
X99582Y115811D01*
X99685Y115784D01*
X99803Y115764D01*
X99937Y115752D01*
X100086Y115748D01*
Y114961D01*
X99937Y114957D01*
X99803Y114945D01*
X99685Y114925D01*
X99582Y114898D01*
X99496Y114862D01*
X99425Y114819D01*
X99370Y114768D01*
X99331Y114709D01*
X99307Y114642D01*
X99299Y114567D01*
Y116142D01*
X99307Y116067D01*
D02*
G37*
G36*
X69199Y103305D02*
X69217Y103102D01*
X69246Y102923D01*
X69287Y102768D01*
X69341Y102637D01*
X69406Y102529D01*
X69482Y102446D01*
X69571Y102386D01*
X69671Y102350D01*
X69784Y102338D01*
X67421D01*
X67533Y102350D01*
X67634Y102386D01*
X67722Y102446D01*
X67799Y102529D01*
X67864Y102637D01*
X67917Y102768D01*
X67959Y102923D01*
X67988Y103102D01*
X68006Y103305D01*
X68012Y103531D01*
X69193D01*
X69199Y103305D01*
D02*
G37*
G36*
X59768Y99696D02*
X59757Y99791D01*
X59724Y99876D01*
X59669Y99951D01*
X59592Y100016D01*
X59492Y100072D01*
X59371Y100117D01*
X59227Y100152D01*
X59062Y100177D01*
X58874Y100192D01*
X58664Y100197D01*
Y101378D01*
X58874Y101383D01*
X59062Y101398D01*
X59227Y101423D01*
X59371Y101458D01*
X59492Y101503D01*
X59592Y101558D01*
X59669Y101624D01*
X59724Y101699D01*
X59757Y101784D01*
X59768Y101879D01*
Y99696D01*
D02*
G37*
G36*
X96469Y97638D02*
X96449Y97825D01*
X96390Y97992D01*
X96292Y98140D01*
X96154Y98268D01*
X95977Y98376D01*
X95760Y98465D01*
X95504Y98533D01*
X95209Y98583D01*
X94874Y98612D01*
X94500Y98622D01*
Y100591D01*
X94874Y100600D01*
X95209Y100630D01*
X95504Y100679D01*
X95760Y100748D01*
X95977Y100837D01*
X96154Y100945D01*
X96292Y101073D01*
X96390Y101221D01*
X96449Y101388D01*
X96469Y101575D01*
Y97638D01*
D02*
G37*
G36*
X99888Y96469D02*
X99788Y96433D01*
X99699Y96373D01*
X99622Y96290D01*
X99557Y96182D01*
X99504Y96051D01*
X99463Y95896D01*
X99433Y95717D01*
X99415Y95514D01*
X99410Y95288D01*
X98229D01*
X98223Y95514D01*
X98205Y95717D01*
X98175Y95896D01*
X98134Y96051D01*
X98081Y96182D01*
X98016Y96290D01*
X97939Y96373D01*
X97851Y96433D01*
X97750Y96469D01*
X97638Y96481D01*
X100000D01*
X99888Y96469D01*
D02*
G37*
G36*
X74040Y94193D02*
X74030Y94286D01*
X74000Y94370D01*
X73950Y94444D01*
X73880Y94508D01*
X73791Y94562D01*
X73681Y94606D01*
X73552Y94641D01*
X73402Y94665D01*
X73233Y94680D01*
X73044Y94685D01*
Y95669D01*
X73233Y95674D01*
X73402Y95689D01*
X73552Y95714D01*
X73681Y95748D01*
X73791Y95792D01*
X73880Y95846D01*
X73950Y95910D01*
X74000Y95984D01*
X74030Y96068D01*
X74040Y96161D01*
Y94193D01*
D02*
G37*
G36*
X70262Y96068D02*
X70291Y95984D01*
X70341Y95910D01*
X70411Y95846D01*
X70501Y95792D01*
X70610Y95748D01*
X70740Y95714D01*
X70889Y95689D01*
X71059Y95674D01*
X71248Y95669D01*
Y94685D01*
X71059Y94680D01*
X70889Y94665D01*
X70740Y94641D01*
X70610Y94606D01*
X70501Y94562D01*
X70411Y94508D01*
X70341Y94444D01*
X70291Y94370D01*
X70262Y94286D01*
X70252Y94193D01*
Y96161D01*
X70262Y96068D01*
D02*
G37*
G36*
X66953Y93858D02*
X66944Y93937D01*
X66916Y94009D01*
X66870Y94072D01*
X66805Y94126D01*
X66722Y94173D01*
X66621Y94210D01*
X66501Y94240D01*
X66362Y94261D01*
X66205Y94273D01*
X66029Y94277D01*
Y95262D01*
X66205Y95266D01*
X66362Y95278D01*
X66501Y95299D01*
X66621Y95329D01*
X66722Y95367D01*
X66805Y95413D01*
X66870Y95467D01*
X66916Y95530D01*
X66944Y95602D01*
X66953Y95681D01*
Y93858D01*
D02*
G37*
G36*
X48019Y94008D02*
X48031Y93393D01*
X46850D01*
X46826Y94020D01*
X48019Y94008D01*
D02*
G37*
G36*
X54828Y94010D02*
X54744Y93980D01*
X54670Y93930D01*
X54606Y93861D01*
X54552Y93771D01*
X54508Y93661D01*
X54473Y93532D01*
X54449Y93383D01*
X54434Y93213D01*
X54429Y93024D01*
X53445D01*
X53440Y93213D01*
X53425Y93383D01*
X53401Y93532D01*
X53366Y93661D01*
X53322Y93771D01*
X53268Y93861D01*
X53204Y93930D01*
X53130Y93980D01*
X53046Y94010D01*
X52953Y94020D01*
X54921D01*
X54828Y94010D01*
D02*
G37*
G36*
X62308Y93604D02*
X62224Y93575D01*
X62151Y93526D01*
X62087Y93457D01*
X62033Y93368D01*
X61988Y93260D01*
X61954Y93132D01*
X61929Y92984D01*
X61914Y92817D01*
X61910Y92630D01*
X60925D01*
X60920Y92817D01*
X60905Y92984D01*
X60881Y93132D01*
X60847Y93260D01*
X60802Y93368D01*
X60748Y93457D01*
X60684Y93526D01*
X60610Y93575D01*
X60527Y93604D01*
X60433Y93614D01*
X62402D01*
X62308Y93604D01*
D02*
G37*
G36*
X99415Y93463D02*
X99433Y93260D01*
X99463Y93081D01*
X99504Y92926D01*
X99557Y92794D01*
X99622Y92687D01*
X99699Y92603D01*
X99788Y92544D01*
X99888Y92508D01*
X100000Y92496D01*
X97638D01*
X97750Y92508D01*
X97851Y92544D01*
X97939Y92603D01*
X98016Y92687D01*
X98081Y92794D01*
X98134Y92926D01*
X98175Y93081D01*
X98205Y93260D01*
X98223Y93463D01*
X98229Y93689D01*
X99410D01*
X99415Y93463D01*
D02*
G37*
G36*
X61025Y90674D02*
X61060Y90120D01*
X61076Y90015D01*
X61095Y89924D01*
X61117Y89847D01*
X61142Y89783D01*
X61169Y89733D01*
X59894D01*
X59921Y89783D01*
X59946Y89847D01*
X59968Y89924D01*
X59987Y90015D01*
X60003Y90120D01*
X60026Y90370D01*
X60038Y90674D01*
X60039Y90847D01*
X61024D01*
X61025Y90674D01*
D02*
G37*
G36*
X58610Y89733D02*
X57335D01*
X57344Y89758D01*
X57352Y89805D01*
X57359Y89875D01*
X57374Y90217D01*
X57382Y90984D01*
X58563D01*
X58610Y89733D01*
D02*
G37*
G36*
X55907Y90746D02*
X55958Y90030D01*
X55977Y89932D01*
X55999Y89850D01*
X56023Y89784D01*
X56051Y89733D01*
X54776D01*
X54803Y89784D01*
X54828Y89850D01*
X54850Y89932D01*
X54869Y90030D01*
X54898Y90270D01*
X54915Y90572D01*
X54921Y90935D01*
X55905D01*
X55907Y90746D01*
D02*
G37*
G36*
X53456Y89764D02*
X52217Y89733D01*
X52218Y89746D01*
X52220Y89780D01*
X52226Y90801D01*
X53407D01*
X53456Y89764D01*
D02*
G37*
G36*
X58601Y85833D02*
X58593Y85785D01*
X58586Y85716D01*
X58570Y85373D01*
X58563Y84606D01*
X57382D01*
X57335Y85858D01*
X58610D01*
X58601Y85833D01*
D02*
G37*
G36*
X53483D02*
X53475Y85785D01*
X53468Y85716D01*
X53452Y85373D01*
X53445Y84606D01*
X52264D01*
X52217Y85858D01*
X53492D01*
X53483Y85833D01*
D02*
G37*
G36*
X51335Y83644D02*
X51351Y82575D01*
X51001Y82219D01*
X46407D01*
X45735Y82085D01*
X45166Y81704D01*
X44785Y81135D01*
X44651Y80463D01*
Y70718D01*
X44785Y70046D01*
X45166Y69477D01*
X45735Y69096D01*
X46407Y68962D01*
X51562D01*
X51575Y68110D01*
X50537Y67072D01*
X42377D01*
X38189Y71260D01*
X32677D01*
X31890Y72047D01*
Y72835D01*
X34449D01*
Y75590D01*
Y78347D01*
X31890D01*
Y79134D01*
X32677Y79921D01*
X38976D01*
X40157Y81102D01*
Y82677D01*
X41732Y84252D01*
X44993D01*
X45177Y84215D01*
X45361Y84252D01*
X47552D01*
X47736Y84215D01*
X47921Y84252D01*
X50000D01*
X51335Y83644D01*
D02*
G37*
G36*
X96370Y80721D02*
X96351Y80906D01*
X96292Y81071D01*
X96193Y81217D01*
X96056Y81343D01*
X95878Y81450D01*
X95662Y81538D01*
X95406Y81606D01*
X95111Y81655D01*
X94776Y81684D01*
X94402Y81693D01*
Y83662D01*
X94776Y83672D01*
X95111Y83701D01*
X95406Y83749D01*
X95662Y83817D01*
X95878Y83905D01*
X96056Y84012D01*
X96193Y84138D01*
X96292Y84284D01*
X96351Y84449D01*
X96370Y84634D01*
Y80721D01*
D02*
G37*
G36*
X99495Y81942D02*
X99477Y81866D01*
X99461Y81752D01*
X99436Y81414D01*
X99424Y80721D01*
X100000D01*
X99888Y80709D01*
X99787Y80674D01*
X99699Y80615D01*
X99622Y80532D01*
X99557Y80426D01*
X99504Y80296D01*
X99463Y80142D01*
X99433Y79965D01*
X99415Y79764D01*
X99410Y79540D01*
X98228D01*
X98223Y79764D01*
X98205Y79965D01*
X98175Y80142D01*
X98134Y80296D01*
X98081Y80426D01*
X98016Y80532D01*
X97939Y80615D01*
X97850Y80674D01*
X97750Y80709D01*
X97638Y80721D01*
X98187D01*
X98142Y81606D01*
X98123Y81982D01*
X99515D01*
X99495Y81942D01*
D02*
G37*
G36*
X99415Y77716D02*
X99433Y77516D01*
X99463Y77338D01*
X99504Y77185D01*
X99557Y77055D01*
X99622Y76949D01*
X99699Y76866D01*
X99787Y76807D01*
X99888Y76771D01*
X100000Y76760D01*
X99450D01*
X99515Y75499D01*
X98123D01*
X98143Y75538D01*
X98161Y75615D01*
X98176Y75729D01*
X98202Y76067D01*
X98214Y76760D01*
X97638D01*
X97750Y76771D01*
X97850Y76807D01*
X97939Y76866D01*
X98016Y76949D01*
X98081Y77055D01*
X98134Y77185D01*
X98175Y77338D01*
X98205Y77516D01*
X98223Y77716D01*
X98228Y77941D01*
X99410D01*
X99415Y77716D01*
D02*
G37*
G36*
X31902Y73634D02*
X31870Y73707D01*
X31776Y73772D01*
X31618Y73829D01*
X31398Y73878D01*
X31114Y73920D01*
X30358Y73981D01*
X28752Y74016D01*
Y77165D01*
X29351Y77169D01*
X31398Y77303D01*
X31618Y77352D01*
X31776Y77410D01*
X31870Y77474D01*
X31902Y77547D01*
Y73634D01*
D02*
G37*
G36*
X95681Y72847D02*
X95662Y73031D01*
X95603Y73197D01*
X95504Y73343D01*
X95366Y73469D01*
X95189Y73576D01*
X94973Y73663D01*
X94717Y73731D01*
X94421Y73780D01*
X94087Y73809D01*
X93713Y73819D01*
Y75787D01*
X94087Y75797D01*
X94421Y75826D01*
X94717Y75875D01*
X94973Y75943D01*
X95189Y76030D01*
X95366Y76137D01*
X95504Y76264D01*
X95603Y76410D01*
X95662Y76575D01*
X95681Y76760D01*
Y72847D01*
D02*
G37*
G36*
X91740Y76575D02*
X91799Y76410D01*
X91897Y76264D01*
X92035Y76137D01*
X92212Y76030D01*
X92429Y75943D01*
X92685Y75875D01*
X92980Y75826D01*
X93315Y75797D01*
X93689Y75787D01*
Y73819D01*
X93315Y73809D01*
X92980Y73780D01*
X92685Y73731D01*
X92429Y73663D01*
X92212Y73576D01*
X92035Y73469D01*
X91897Y73343D01*
X91799Y73197D01*
X91740Y73031D01*
X91720Y72847D01*
Y76760D01*
X91740Y76575D01*
D02*
G37*
G36*
X85445Y72847D02*
X85425Y73031D01*
X85366Y73197D01*
X85268Y73343D01*
X85130Y73469D01*
X84953Y73576D01*
X84736Y73663D01*
X84481Y73731D01*
X84185Y73780D01*
X83851Y73809D01*
X83477Y73819D01*
Y75787D01*
X83851Y75797D01*
X84185Y75826D01*
X84481Y75875D01*
X84736Y75943D01*
X84953Y76030D01*
X85130Y76137D01*
X85268Y76264D01*
X85366Y76410D01*
X85425Y76575D01*
X85445Y76760D01*
Y72847D01*
D02*
G37*
G36*
X81504Y76575D02*
X81563Y76410D01*
X81661Y76264D01*
X81799Y76137D01*
X81976Y76030D01*
X82193Y75943D01*
X82449Y75875D01*
X82744Y75826D01*
X83078Y75797D01*
X83453Y75787D01*
Y73819D01*
X83078Y73809D01*
X82744Y73780D01*
X82449Y73731D01*
X82193Y73663D01*
X81976Y73576D01*
X81799Y73469D01*
X81661Y73343D01*
X81563Y73197D01*
X81504Y73031D01*
X81484Y72847D01*
Y76760D01*
X81504Y76575D01*
D02*
G37*
G36*
X72047Y82284D02*
Y79134D01*
X72835Y78347D01*
X79919D01*
X80208Y77996D01*
X80022Y77559D01*
X78937D01*
Y74803D01*
Y72047D01*
X80809D01*
X80996Y71610D01*
X80706Y71260D01*
X73228D01*
X72047Y70079D01*
Y68504D01*
X70472Y66929D01*
X68393D01*
X68209Y66966D01*
X68024Y66929D01*
X65834D01*
X65650Y66966D01*
X65465Y66929D01*
X63275D01*
X63090Y66966D01*
X62906Y66929D01*
X58240D01*
Y68962D01*
X66978D01*
X67650Y69096D01*
X68220Y69477D01*
X68601Y70046D01*
X68735Y70718D01*
Y80463D01*
X68601Y81135D01*
X68220Y81704D01*
X67650Y82085D01*
X66978Y82219D01*
X58240D01*
Y83858D01*
X70472D01*
X72047Y82284D01*
D02*
G37*
G36*
X61169Y65323D02*
X59894D01*
X59922Y65378D01*
X59948Y65452D01*
X59971Y65544D01*
X59990Y65656D01*
X60020Y65938D01*
X60039Y66295D01*
X60044Y66729D01*
X61226Y66910D01*
X61169Y65323D01*
D02*
G37*
G36*
X58610Y65323D02*
X57335D01*
X57344Y65348D01*
X57352Y65396D01*
X57359Y65465D01*
X57374Y65808D01*
X57382Y66575D01*
X58563D01*
X58610Y65323D01*
D02*
G37*
G36*
X53492D02*
X52217D01*
X52226Y65348D01*
X52234Y65396D01*
X52241Y65465D01*
X52256Y65808D01*
X52264Y66575D01*
X53445D01*
X53492Y65323D01*
D02*
G37*
G36*
X48346Y61398D02*
X48322Y61334D01*
X48300Y61257D01*
X48281Y61166D01*
X48265Y61061D01*
X48241Y60811D01*
X48230Y60507D01*
X48228Y60335D01*
X47244D01*
X47243Y60507D01*
X47208Y61061D01*
X47192Y61166D01*
X47173Y61257D01*
X47151Y61334D01*
X47126Y61398D01*
X47098Y61449D01*
X48374D01*
X48346Y61398D01*
D02*
G37*
G36*
X50905Y61397D02*
X50881Y61331D01*
X50859Y61251D01*
X50840Y61155D01*
X50811Y60918D01*
X50793Y60622D01*
X50787Y60267D01*
X49803D01*
X49802Y60452D01*
X49751Y61155D01*
X49732Y61251D01*
X49710Y61331D01*
X49685Y61397D01*
X49658Y61449D01*
X50933D01*
X50905Y61397D01*
D02*
G37*
G36*
X63719Y61423D02*
X63711Y61376D01*
X63704Y61306D01*
X63689Y60964D01*
X63681Y60197D01*
X62500D01*
X62453Y61449D01*
X63728D01*
X63719Y61423D01*
D02*
G37*
G36*
X53483D02*
X53475Y61376D01*
X53468Y61306D01*
X53452Y60964D01*
X53445Y60197D01*
X52264D01*
X52217Y61449D01*
X53492D01*
X53483Y61423D01*
D02*
G37*
G36*
X57293Y57284D02*
X57308Y57114D01*
X57332Y56965D01*
X57367Y56835D01*
X57411Y56726D01*
X57465Y56636D01*
X57529Y56566D01*
X57603Y56516D01*
X57687Y56486D01*
X57780Y56476D01*
X55812D01*
X55905Y56486D01*
X55989Y56516D01*
X56063Y56566D01*
X56126Y56636D01*
X56181Y56726D01*
X56225Y56835D01*
X56259Y56965D01*
X56284Y57114D01*
X56299Y57284D01*
X56304Y57473D01*
X57288D01*
X57293Y57284D01*
D02*
G37*
G36*
X49870D02*
X49884Y57114D01*
X49909Y56965D01*
X49944Y56835D01*
X49988Y56726D01*
X50042Y56636D01*
X50106Y56566D01*
X50180Y56516D01*
X50263Y56486D01*
X50357Y56476D01*
X48388D01*
X48482Y56486D01*
X48566Y56516D01*
X48639Y56566D01*
X48703Y56636D01*
X48757Y56726D01*
X48802Y56835D01*
X48836Y56965D01*
X48861Y57114D01*
X48876Y57284D01*
X48880Y57473D01*
X49865D01*
X49870Y57284D01*
D02*
G37*
%LPC*%
G36*
X207833Y365709D02*
X203189D01*
Y361065D01*
X203695Y361131D01*
X205084Y361706D01*
X206276Y362621D01*
X207191Y363814D01*
X207766Y365203D01*
X207833Y365709D01*
D02*
G37*
G36*
X201220D02*
X196576D01*
X196643Y365203D01*
X197218Y363814D01*
X198133Y362621D01*
X199326Y361706D01*
X200714Y361131D01*
X201220Y361065D01*
Y365709D01*
D02*
G37*
G36*
X271358Y363189D02*
X266309D01*
Y355138D01*
X271358D01*
Y363189D01*
D02*
G37*
G36*
X41634D02*
X36585D01*
Y355138D01*
X41634D01*
Y363189D01*
D02*
G37*
G36*
X75408Y365386D02*
X74020Y365203D01*
X72727Y364668D01*
X71617Y363816D01*
X70765Y362706D01*
X70230Y361413D01*
X70047Y360025D01*
X70230Y358638D01*
X70765Y357345D01*
X71617Y356235D01*
X72727Y355383D01*
X74020Y354847D01*
X75408Y354665D01*
X76795Y354847D01*
X78088Y355383D01*
X79198Y356235D01*
X80050Y357345D01*
X80586Y358638D01*
X80769Y360025D01*
X80586Y361413D01*
X80050Y362706D01*
X79198Y363816D01*
X78088Y364668D01*
X76795Y365203D01*
X75408Y365386D01*
D02*
G37*
G36*
X203189Y352321D02*
Y347677D01*
X207833D01*
X207766Y348183D01*
X207191Y349572D01*
X206276Y350764D01*
X205084Y351679D01*
X203695Y352255D01*
X203189Y352321D01*
D02*
G37*
G36*
X201220D02*
X200714Y352255D01*
X199326Y351679D01*
X198133Y350764D01*
X197218Y349572D01*
X196643Y348183D01*
X196576Y347677D01*
X201220D01*
Y352321D01*
D02*
G37*
G36*
X207833Y345709D02*
X203189D01*
Y341065D01*
X203695Y341131D01*
X205084Y341706D01*
X206276Y342621D01*
X207191Y343814D01*
X207766Y345203D01*
X207833Y345709D01*
D02*
G37*
G36*
X201220D02*
X196576D01*
X196643Y345203D01*
X197218Y343814D01*
X198133Y342621D01*
X199326Y341706D01*
X200714Y341131D01*
X201220Y341065D01*
Y345709D01*
D02*
G37*
G36*
X239370Y336614D02*
X237598D01*
Y333661D01*
X239370D01*
Y336614D01*
D02*
G37*
G36*
X235630D02*
X233858D01*
Y333661D01*
X235630D01*
Y336614D01*
D02*
G37*
G36*
X239370Y331693D02*
X237598D01*
Y328740D01*
X239370D01*
Y331693D01*
D02*
G37*
G36*
X235630D02*
X233858D01*
Y328740D01*
X235630D01*
Y331693D01*
D02*
G37*
G36*
X267441Y230382D02*
Y225787D01*
X272035D01*
X271971Y226280D01*
X271400Y227657D01*
X270493Y228839D01*
X269311Y229747D01*
X267934Y230317D01*
X267441Y230382D01*
D02*
G37*
G36*
X265472D02*
X264979Y230317D01*
X263603Y229747D01*
X262420Y228839D01*
X261513Y227657D01*
X260943Y226280D01*
X260878Y225787D01*
X265472D01*
Y230382D01*
D02*
G37*
G36*
X63484Y224114D02*
X62008D01*
Y222638D01*
X62673D01*
Y222835D01*
X62685Y222722D01*
X62715Y222638D01*
X63484D01*
Y224114D01*
D02*
G37*
G36*
X60039D02*
X58563D01*
Y222638D01*
X60039D01*
Y224114D01*
D02*
G37*
G36*
X227953Y233099D02*
X226795Y232985D01*
X225682Y232648D01*
X224656Y232099D01*
X223757Y231361D01*
X223019Y230462D01*
X222470Y229436D01*
X222133Y228323D01*
X222019Y227165D01*
X222133Y226008D01*
X222470Y224894D01*
X223019Y223869D01*
X223757Y222969D01*
X224656Y222231D01*
X225682Y221683D01*
X226795Y221345D01*
X227953Y221231D01*
X229110Y221345D01*
X230224Y221683D01*
X231250Y222231D01*
X232149Y222969D01*
X232887Y223869D01*
X233435Y224894D01*
X233773Y226008D01*
X233887Y227165D01*
X233773Y228323D01*
X233435Y229436D01*
X232887Y230462D01*
X232149Y231361D01*
X231250Y232099D01*
X230224Y232648D01*
X229110Y232985D01*
X227953Y233099D01*
D02*
G37*
G36*
X10630D02*
X9472Y232985D01*
X8359Y232648D01*
X7333Y232099D01*
X6434Y231361D01*
X5696Y230462D01*
X5147Y229436D01*
X4810Y228323D01*
X4696Y227165D01*
X4810Y226008D01*
X5147Y224894D01*
X5696Y223869D01*
X6434Y222969D01*
X7333Y222231D01*
X8359Y221683D01*
X9472Y221345D01*
X10630Y221231D01*
X11788Y221345D01*
X12901Y221683D01*
X13927Y222231D01*
X14826Y222969D01*
X15564Y223869D01*
X16112Y224894D01*
X16450Y226008D01*
X16564Y227165D01*
X16450Y228323D01*
X16112Y229436D01*
X15564Y230462D01*
X14826Y231361D01*
X13927Y232099D01*
X12901Y232648D01*
X11788Y232985D01*
X10630Y233099D01*
D02*
G37*
G36*
X88287Y222146D02*
X82579D01*
Y220899D01*
X82418Y220867D01*
X81995Y220585D01*
X81495Y220777D01*
Y220867D01*
X74803D01*
Y217679D01*
X74431Y217605D01*
X73878Y217235D01*
X73228Y216586D01*
X72578Y217236D01*
X72025Y217606D01*
X71653Y217680D01*
Y220867D01*
X64960D01*
Y217848D01*
X64231D01*
X63878Y218201D01*
X63878Y218996D01*
X63484Y219253D01*
X63484Y219496D01*
Y220669D01*
X62715D01*
X62685Y220585D01*
X62673Y220472D01*
Y220669D01*
X58563D01*
Y219253D01*
X58169Y218996D01*
X58169Y218936D01*
Y213287D01*
X63878D01*
Y214436D01*
X64960D01*
Y211418D01*
X69769D01*
X69961Y210956D01*
X69640Y210635D01*
X69270Y210082D01*
X69140Y209429D01*
Y208721D01*
X69138Y208683D01*
X68905Y208335D01*
X68900Y208330D01*
X68896Y208321D01*
X68621Y207910D01*
X68438Y206988D01*
Y203248D01*
X68621Y202326D01*
X69143Y201545D01*
X69925Y201023D01*
X70846Y200840D01*
X71768Y201023D01*
X72549Y201545D01*
X73072Y202326D01*
X73092Y202427D01*
X73601D01*
X73621Y202326D01*
X74143Y201545D01*
X74925Y201023D01*
X75846Y200840D01*
X76768Y201023D01*
X77549Y201545D01*
X78072Y202326D01*
X78092Y202427D01*
X78601D01*
X78621Y202326D01*
X78796Y202065D01*
X78838Y201969D01*
X78890Y201894D01*
X78913Y201855D01*
X78937Y201804D01*
X78962Y201740D01*
X78985Y201662D01*
X79007Y201569D01*
X79023Y201476D01*
X79040Y201287D01*
Y199871D01*
X78695Y199421D01*
X78417Y198751D01*
X78323Y198031D01*
X78417Y197312D01*
X78695Y196642D01*
X79137Y196066D01*
X79712Y195624D01*
X80383Y195346D01*
X81102Y195252D01*
X81822Y195346D01*
X82492Y195624D01*
X83068Y196066D01*
X83510Y196642D01*
X83787Y197312D01*
X83882Y198031D01*
X83787Y198751D01*
X83510Y199421D01*
X83068Y199997D01*
X82653Y200315D01*
Y201311D01*
X82655Y201351D01*
X82667Y201460D01*
X82686Y201569D01*
X82708Y201662D01*
X82731Y201740D01*
X82756Y201804D01*
X82780Y201854D01*
X82803Y201894D01*
X82855Y201969D01*
X82897Y202065D01*
X83072Y202326D01*
X83255Y203248D01*
Y206988D01*
X83072Y207910D01*
X82550Y208691D01*
X81768Y209213D01*
X80847Y209397D01*
X79925Y209213D01*
X79143Y208691D01*
X78621Y207910D01*
X78601Y207810D01*
X78092D01*
X78072Y207910D01*
X77797Y208321D01*
X77793Y208330D01*
X77788Y208335D01*
X77560Y208676D01*
X77552Y208760D01*
Y209390D01*
X77423Y210043D01*
X77053Y210596D01*
X76693Y210956D01*
X76884Y211418D01*
X81495D01*
Y215785D01*
X81867Y215859D01*
X82420Y216228D01*
X82501Y216309D01*
X82972Y216073D01*
X82973Y215937D01*
Y214764D01*
X85433D01*
X87082D01*
Y214874D01*
X87093Y214778D01*
X87099Y214764D01*
X87894D01*
Y216180D01*
X88287Y216437D01*
X88287Y216497D01*
Y222146D01*
D02*
G37*
G36*
X39173Y234682D02*
X37707Y234537D01*
X36297Y234110D01*
X34997Y233415D01*
X33858Y232480D01*
X32923Y231341D01*
X32229Y230042D01*
X31801Y228632D01*
X31657Y227165D01*
X31801Y225699D01*
X32229Y224289D01*
X32923Y222989D01*
X33858Y221850D01*
X34997Y220916D01*
X36297Y220221D01*
X37707Y219793D01*
X39173Y219649D01*
X40640Y219793D01*
X42050Y220221D01*
X43349Y220916D01*
X44488Y221850D01*
X45423Y222989D01*
X46118Y224289D01*
X46545Y225699D01*
X46690Y227165D01*
X46545Y228632D01*
X46118Y230042D01*
X45423Y231341D01*
X44488Y232480D01*
X43349Y233415D01*
X42050Y234110D01*
X40640Y234537D01*
X39173Y234682D01*
D02*
G37*
G36*
X272035Y223819D02*
X267441D01*
Y219224D01*
X267934Y219289D01*
X269311Y219860D01*
X270493Y220767D01*
X271400Y221949D01*
X271971Y223326D01*
X272035Y223819D01*
D02*
G37*
G36*
X265472D02*
X260878D01*
X260943Y223326D01*
X261513Y221949D01*
X262420Y220767D01*
X263603Y219860D01*
X264979Y219289D01*
X265472Y219224D01*
Y223819D01*
D02*
G37*
G36*
X256722Y230659D02*
X245010D01*
Y218947D01*
X256722D01*
Y230659D01*
D02*
G37*
G36*
X87894Y212795D02*
X87099D01*
X87093Y212781D01*
X87082Y212685D01*
Y212795D01*
X86417D01*
Y212130D01*
X86831D01*
X86737Y212120D01*
X86654Y212090D01*
X86580Y212041D01*
X86516Y211971D01*
X86462Y211881D01*
X86417Y211772D01*
X86417Y211772D01*
Y211319D01*
X87894D01*
Y212795D01*
D02*
G37*
G36*
X84449D02*
X82973D01*
Y211319D01*
X84449D01*
Y212795D01*
D02*
G37*
G36*
X86831Y208698D02*
Y206102D01*
X87853D01*
Y206988D01*
X87701Y207756D01*
X87266Y208407D01*
X86831Y208698D01*
D02*
G37*
G36*
X84862Y208698D02*
X84427Y208407D01*
X83992Y207756D01*
X83839Y206988D01*
Y206102D01*
X84862D01*
Y208698D01*
D02*
G37*
G36*
Y204134D02*
X83839D01*
Y203248D01*
X83992Y202480D01*
X84427Y201829D01*
X84862Y201538D01*
Y204134D01*
D02*
G37*
G36*
X87853D02*
X86831D01*
Y201538D01*
X87266Y201829D01*
X87701Y202480D01*
X87853Y203248D01*
Y204134D01*
D02*
G37*
G36*
X266142Y191581D02*
X264754Y191399D01*
X263461Y190863D01*
X262351Y190011D01*
X261499Y188901D01*
X260964Y187608D01*
X260781Y186221D01*
X260964Y184833D01*
X261499Y183540D01*
X262351Y182430D01*
X263461Y181578D01*
X264754Y181042D01*
X266142Y180860D01*
X267529Y181042D01*
X268822Y181578D01*
X269932Y182430D01*
X270784Y183540D01*
X271320Y184833D01*
X271503Y186221D01*
X271320Y187608D01*
X270784Y188901D01*
X269932Y190011D01*
X268822Y190863D01*
X267529Y191399D01*
X266142Y191581D01*
D02*
G37*
G36*
X66535Y178445D02*
X64764D01*
Y176575D01*
X66535D01*
Y178445D01*
D02*
G37*
G36*
X62795D02*
X61024D01*
Y176575D01*
X62795D01*
Y178445D01*
D02*
G37*
G36*
X66535Y174606D02*
X64764D01*
Y172736D01*
X66535D01*
Y174606D01*
D02*
G37*
G36*
X62795D02*
X61024D01*
Y172736D01*
X62795D01*
Y174606D01*
D02*
G37*
G36*
X11614Y169802D02*
Y165157D01*
X16258D01*
X16192Y165664D01*
X15616Y167052D01*
X14701Y168245D01*
X13509Y169160D01*
X12120Y169735D01*
X11614Y169802D01*
D02*
G37*
G36*
X9646D02*
X9140Y169735D01*
X7751Y169160D01*
X6559Y168245D01*
X5643Y167052D01*
X5068Y165664D01*
X5002Y165157D01*
X9646D01*
Y169802D01*
D02*
G37*
G36*
X16258Y163189D02*
X11614D01*
Y158545D01*
X12120Y158612D01*
X13509Y159187D01*
X14701Y160102D01*
X15616Y161294D01*
X16192Y162683D01*
X16258Y163189D01*
D02*
G37*
G36*
X9646D02*
X5002D01*
X5068Y162683D01*
X5643Y161294D01*
X6559Y160102D01*
X7751Y159187D01*
X9140Y158612D01*
X9646Y158545D01*
Y163189D01*
D02*
G37*
G36*
X227953Y170107D02*
X226795Y169993D01*
X225682Y169656D01*
X224656Y169107D01*
X223757Y168369D01*
X223019Y167470D01*
X222470Y166444D01*
X222133Y165331D01*
X222019Y164173D01*
X222133Y163016D01*
X222470Y161902D01*
X223019Y160876D01*
X223757Y159977D01*
X224656Y159239D01*
X225682Y158691D01*
X226795Y158353D01*
X227953Y158239D01*
X229110Y158353D01*
X230224Y158691D01*
X231250Y159239D01*
X232149Y159977D01*
X232887Y160876D01*
X233435Y161902D01*
X233773Y163016D01*
X233887Y164173D01*
X233773Y165331D01*
X233435Y166444D01*
X232887Y167470D01*
X232149Y168369D01*
X231250Y169107D01*
X230224Y169656D01*
X229110Y169993D01*
X227953Y170107D01*
D02*
G37*
G36*
X112992Y103543D02*
X111221D01*
Y100591D01*
X112992D01*
Y103543D01*
D02*
G37*
G36*
X109252D02*
X107480D01*
Y100591D01*
X109252D01*
Y103543D01*
D02*
G37*
G36*
X112992Y98622D02*
X111221D01*
Y95669D01*
X112992D01*
Y98622D01*
D02*
G37*
G36*
X109252D02*
X107480D01*
Y95669D01*
X109252D01*
Y98622D01*
D02*
G37*
G36*
X227953Y107115D02*
X226795Y107001D01*
X225682Y106664D01*
X224656Y106115D01*
X223757Y105377D01*
X223019Y104478D01*
X222470Y103452D01*
X222133Y102339D01*
X222019Y101181D01*
X222133Y100023D01*
X222470Y98910D01*
X223019Y97884D01*
X223757Y96985D01*
X224656Y96247D01*
X225682Y95699D01*
X226795Y95361D01*
X227953Y95247D01*
X229110Y95361D01*
X230224Y95699D01*
X231250Y96247D01*
X232149Y96985D01*
X232887Y97884D01*
X233435Y98910D01*
X233773Y100023D01*
X233887Y101181D01*
X233773Y102339D01*
X233435Y103452D01*
X232887Y104478D01*
X232149Y105377D01*
X231250Y106115D01*
X230224Y106664D01*
X229110Y107001D01*
X227953Y107115D01*
D02*
G37*
G36*
X10630D02*
X9472Y107001D01*
X8359Y106664D01*
X7333Y106115D01*
X6434Y105377D01*
X5696Y104478D01*
X5147Y103452D01*
X4810Y102339D01*
X4696Y101181D01*
X4810Y100023D01*
X5147Y98910D01*
X5696Y97884D01*
X6434Y96985D01*
X7333Y96247D01*
X8359Y95699D01*
X9472Y95361D01*
X10630Y95247D01*
X11788Y95361D01*
X12901Y95699D01*
X13927Y96247D01*
X14826Y96985D01*
X15564Y97884D01*
X16112Y98910D01*
X16450Y100023D01*
X16564Y101181D01*
X16450Y102339D01*
X16112Y103452D01*
X15564Y104478D01*
X14826Y105377D01*
X13927Y106115D01*
X12901Y106664D01*
X11788Y107001D01*
X10630Y107115D01*
D02*
G37*
G36*
X69193Y90587D02*
Y88779D01*
X69714D01*
Y89468D01*
X69599Y90044D01*
X69273Y90533D01*
X69193Y90587D01*
D02*
G37*
G36*
X44193D02*
X44113Y90533D01*
X43786Y90044D01*
X43672Y89468D01*
Y88779D01*
X44193D01*
Y90587D01*
D02*
G37*
G36*
X38976Y66535D02*
X36024D01*
Y64764D01*
X38976D01*
Y66535D01*
D02*
G37*
G36*
X34055D02*
X31102D01*
Y65098D01*
X31311Y65154D01*
X31524Y65240D01*
X31689Y65341D01*
X31807Y65457D01*
X31878Y65589D01*
X31902Y65736D01*
Y64764D01*
X34055D01*
Y66535D01*
D02*
G37*
G36*
X92520Y65748D02*
X89567D01*
Y63976D01*
X91708D01*
Y64173D01*
X91720Y64061D01*
X91750Y63976D01*
X92520D01*
Y65748D01*
D02*
G37*
G36*
X82284D02*
X79331D01*
Y63976D01*
X81472D01*
Y64173D01*
X81484Y64061D01*
X81514Y63976D01*
X82284D01*
Y65748D01*
D02*
G37*
G36*
X102756D02*
X99803D01*
Y63976D01*
X102756D01*
Y65748D01*
D02*
G37*
G36*
X87598D02*
X84646D01*
Y63976D01*
X85415D01*
X85445Y64061D01*
X85457Y64173D01*
Y63976D01*
X87598D01*
Y65748D01*
D02*
G37*
G36*
X97835D02*
X94882D01*
Y63976D01*
X95651D01*
X95681Y64061D01*
X95693Y64173D01*
Y63976D01*
X97835D01*
Y65748D01*
D02*
G37*
G36*
X77362D02*
X74410D01*
Y63976D01*
X77362D01*
Y65748D01*
D02*
G37*
G36*
X34055Y62795D02*
X31902D01*
Y61823D01*
X31878Y61970D01*
X31807Y62102D01*
X31689Y62218D01*
X31524Y62319D01*
X31311Y62405D01*
X31102Y62461D01*
Y61024D01*
X34055D01*
Y62795D01*
D02*
G37*
G36*
X97835Y62008D02*
X95693D01*
Y61811D01*
X95681Y61923D01*
X95651Y62008D01*
X94882D01*
Y60236D01*
X97835D01*
Y62008D01*
D02*
G37*
G36*
X92520D02*
X91750D01*
X91720Y61923D01*
X91708Y61811D01*
Y62008D01*
X89567D01*
Y60236D01*
X92520D01*
Y62008D01*
D02*
G37*
G36*
X87598D02*
X85457D01*
Y61811D01*
X85445Y61923D01*
X85415Y62008D01*
X84646D01*
Y60236D01*
X87598D01*
Y62008D01*
D02*
G37*
G36*
X82284D02*
X81514D01*
X81484Y61923D01*
X81472Y61811D01*
Y62008D01*
X79331D01*
Y60236D01*
X82284D01*
Y62008D01*
D02*
G37*
G36*
X38976Y62795D02*
X36024D01*
Y61024D01*
X38976D01*
Y62795D01*
D02*
G37*
G36*
X69714Y62402D02*
X69193D01*
Y60595D01*
X69273Y60648D01*
X69599Y61137D01*
X69714Y61713D01*
Y62402D01*
D02*
G37*
G36*
X44193D02*
X43672D01*
Y61713D01*
X43786Y61137D01*
X44113Y60648D01*
X44193Y60595D01*
Y62402D01*
D02*
G37*
G36*
X102756Y62008D02*
X99803D01*
Y60236D01*
X102756D01*
Y62008D01*
D02*
G37*
G36*
X77362D02*
X74410D01*
Y60236D01*
X77362D01*
Y62008D01*
D02*
G37*
G36*
X65846Y60246D02*
X65453D01*
X65650Y60207D01*
X65846Y60246D01*
D02*
G37*
G36*
X11614Y43817D02*
Y39173D01*
X16258D01*
X16192Y39679D01*
X15616Y41068D01*
X14701Y42260D01*
X13509Y43176D01*
X12120Y43751D01*
X11614Y43817D01*
D02*
G37*
G36*
X9646D02*
X9140Y43751D01*
X7751Y43176D01*
X6559Y42260D01*
X5643Y41068D01*
X5068Y39679D01*
X5002Y39173D01*
X9646D01*
Y43817D01*
D02*
G37*
G36*
X16258Y37205D02*
X11614D01*
Y32561D01*
X12120Y32627D01*
X13509Y33202D01*
X14701Y34117D01*
X15616Y35310D01*
X16192Y36699D01*
X16258Y37205D01*
D02*
G37*
G36*
X9646D02*
X5002D01*
X5068Y36699D01*
X5643Y35310D01*
X6559Y34117D01*
X7751Y33202D01*
X9140Y32627D01*
X9646Y32561D01*
Y37205D01*
D02*
G37*
G36*
X227953Y44123D02*
X226795Y44009D01*
X225682Y43671D01*
X224656Y43123D01*
X223757Y42385D01*
X223019Y41486D01*
X222470Y40460D01*
X222133Y39347D01*
X222019Y38189D01*
X222133Y37031D01*
X222470Y35918D01*
X223019Y34892D01*
X223757Y33993D01*
X224656Y33255D01*
X225682Y32707D01*
X226795Y32369D01*
X227953Y32255D01*
X229110Y32369D01*
X230224Y32707D01*
X231250Y33255D01*
X232149Y33993D01*
X232887Y34892D01*
X233435Y35918D01*
X233773Y37031D01*
X233887Y38189D01*
X233773Y39347D01*
X233435Y40460D01*
X232887Y41486D01*
X232149Y42385D01*
X231250Y43123D01*
X230224Y43671D01*
X229110Y44009D01*
X227953Y44123D01*
D02*
G37*
G36*
X199409Y45706D02*
X197943Y45561D01*
X196533Y45133D01*
X195234Y44439D01*
X194095Y43504D01*
X193160Y42365D01*
X192465Y41065D01*
X192037Y39655D01*
X191893Y38189D01*
X192037Y36723D01*
X192465Y35313D01*
X193160Y34013D01*
X194095Y32874D01*
X195234Y31939D01*
X196533Y31245D01*
X197943Y30817D01*
X199409Y30672D01*
X200876Y30817D01*
X202286Y31245D01*
X203585Y31939D01*
X204724Y32874D01*
X205659Y34013D01*
X206354Y35313D01*
X206782Y36723D01*
X206926Y38189D01*
X206782Y39655D01*
X206354Y41065D01*
X205659Y42365D01*
X204724Y43504D01*
X203585Y44439D01*
X202286Y45133D01*
X200876Y45561D01*
X199409Y45706D01*
D02*
G37*
G36*
X39173D02*
X37707Y45561D01*
X36297Y45133D01*
X34997Y44439D01*
X33858Y43504D01*
X32923Y42365D01*
X32229Y41065D01*
X31801Y39655D01*
X31657Y38189D01*
X31801Y36723D01*
X32229Y35313D01*
X32923Y34013D01*
X33858Y32874D01*
X34997Y31939D01*
X36297Y31245D01*
X37707Y30817D01*
X39173Y30672D01*
X40640Y30817D01*
X42050Y31245D01*
X43349Y31939D01*
X44488Y32874D01*
X45423Y34013D01*
X46118Y35313D01*
X46545Y36723D01*
X46690Y38189D01*
X46545Y39655D01*
X46118Y41065D01*
X45423Y42365D01*
X44488Y43504D01*
X43349Y44439D01*
X42050Y45133D01*
X40640Y45561D01*
X39173Y45706D01*
D02*
G37*
G36*
X260447Y19745D02*
X259060Y19562D01*
X257767Y19027D01*
X256656Y18175D01*
X255804Y17064D01*
X255269Y15772D01*
X255086Y14384D01*
X255269Y12997D01*
X255804Y11704D01*
X256656Y10593D01*
X257767Y9742D01*
X259060Y9206D01*
X260447Y9023D01*
X261835Y9206D01*
X263127Y9742D01*
X264238Y10593D01*
X265090Y11704D01*
X265625Y12997D01*
X265808Y14384D01*
X265625Y15772D01*
X265090Y17064D01*
X264238Y18175D01*
X263127Y19027D01*
X261835Y19562D01*
X260447Y19745D01*
D02*
G37*
%LPD*%
G36*
X83784Y218590D02*
X83777Y218630D01*
X83755Y218666D01*
X83720Y218697D01*
X83670Y218724D01*
X83606Y218747D01*
X83527Y218766D01*
X83434Y218780D01*
X83328Y218791D01*
X83071Y218799D01*
Y219783D01*
X83206Y219786D01*
X83434Y219802D01*
X83527Y219817D01*
X83606Y219836D01*
X83670Y219859D01*
X83720Y219886D01*
X83755Y219917D01*
X83777Y219953D01*
X83784Y219992D01*
Y218590D01*
D02*
G37*
G36*
X80300Y218267D02*
X80327Y218195D01*
X80374Y218132D01*
X80438Y218078D01*
X80521Y218032D01*
X80623Y217994D01*
X80743Y217965D01*
X80882Y217944D01*
X81039Y217931D01*
X81214Y217927D01*
Y216943D01*
X81039Y216938D01*
X80882Y216926D01*
X80743Y216905D01*
X80623Y216875D01*
X80521Y216838D01*
X80438Y216791D01*
X80374Y216737D01*
X80327Y216674D01*
X80300Y216603D01*
X80290Y216523D01*
Y218346D01*
X80300Y218267D01*
D02*
G37*
G36*
X66165Y215158D02*
X66155Y215251D01*
X66125Y215335D01*
X66075Y215408D01*
X66006Y215472D01*
X65916Y215527D01*
X65807Y215571D01*
X65677Y215605D01*
X65527Y215630D01*
X65358Y215645D01*
X65169Y215650D01*
Y216634D01*
X65358Y216639D01*
X65527Y216653D01*
X65677Y216678D01*
X65807Y216713D01*
X65916Y216757D01*
X66006Y216811D01*
X66075Y216875D01*
X66125Y216949D01*
X66155Y217033D01*
X66165Y217126D01*
Y215158D01*
D02*
G37*
G36*
X62683Y217033D02*
X62713Y216949D01*
X62762Y216875D01*
X62832Y216811D01*
X62922Y216757D01*
X63032Y216713D01*
X63161Y216678D01*
X63310Y216653D01*
X63480Y216639D01*
X63669Y216634D01*
Y215650D01*
X63480Y215645D01*
X63310Y215630D01*
X63161Y215605D01*
X63032Y215571D01*
X62922Y215527D01*
X62832Y215472D01*
X62762Y215408D01*
X62713Y215335D01*
X62683Y215251D01*
X62673Y215158D01*
Y217126D01*
X62683Y217033D01*
D02*
G37*
G36*
X70457Y216862D02*
X70485Y216791D01*
X70531Y216728D01*
X70596Y216673D01*
X70679Y216627D01*
X70780Y216589D01*
X70900Y216560D01*
X71039Y216539D01*
X71196Y216526D01*
X71372Y216522D01*
Y215538D01*
X71196Y215534D01*
X71039Y215521D01*
X70900Y215500D01*
X70780Y215471D01*
X70679Y215433D01*
X70596Y215387D01*
X70531Y215332D01*
X70485Y215269D01*
X70457Y215198D01*
X70448Y215118D01*
Y216942D01*
X70457Y216862D01*
D02*
G37*
G36*
X76008Y215117D02*
X75998Y215197D01*
X75971Y215268D01*
X75924Y215331D01*
X75860Y215386D01*
X75777Y215432D01*
X75675Y215469D01*
X75555Y215499D01*
X75416Y215520D01*
X75259Y215532D01*
X75084Y215537D01*
Y216521D01*
X75259Y216525D01*
X75416Y216538D01*
X75555Y216559D01*
X75675Y216588D01*
X75777Y216626D01*
X75860Y216672D01*
X75924Y216726D01*
X75971Y216789D01*
X75998Y216861D01*
X76008Y216940D01*
Y215117D01*
D02*
G37*
G36*
X76343Y208765D02*
X76382Y208312D01*
X76416Y208128D01*
X76459Y207973D01*
X76512Y207845D01*
X76575Y207746D01*
X76648Y207675D01*
X76730Y207633D01*
X76821Y207619D01*
X74872D01*
X74963Y207633D01*
X75046Y207675D01*
X75118Y207746D01*
X75181Y207845D01*
X75234Y207973D01*
X75277Y208128D01*
X75311Y208312D01*
X75335Y208524D01*
X75349Y208765D01*
X75354Y209034D01*
X76339D01*
X76343Y208765D01*
D02*
G37*
G36*
X71343D02*
X71382Y208312D01*
X71416Y208128D01*
X71459Y207973D01*
X71512Y207845D01*
X71575Y207746D01*
X71648Y207675D01*
X71729Y207633D01*
X71821Y207619D01*
X69872D01*
X69963Y207633D01*
X70046Y207675D01*
X70118Y207746D01*
X70181Y207845D01*
X70234Y207973D01*
X70277Y208128D01*
X70311Y208312D01*
X70335Y208524D01*
X70350Y208765D01*
X70354Y209034D01*
X71339D01*
X71343Y208765D01*
D02*
G37*
G36*
X81786Y202541D02*
X81712Y202414D01*
X81647Y202277D01*
X81591Y202130D01*
X81544Y201974D01*
X81505Y201808D01*
X81475Y201632D01*
X81453Y201446D01*
X81436Y201046D01*
X80257D01*
X80252Y201251D01*
X80218Y201632D01*
X80188Y201808D01*
X80149Y201974D01*
X80102Y202130D01*
X80045Y202277D01*
X79981Y202414D01*
X79907Y202541D01*
X79825Y202658D01*
X81868D01*
X81786Y202541D01*
D02*
G37*
%LPC*%
G36*
X106496Y187106D02*
X105020D01*
Y185630D01*
X106496D01*
Y187106D01*
D02*
G37*
G36*
Y183661D02*
X105020D01*
Y182185D01*
X106496D01*
Y183661D01*
D02*
G37*
G36*
X108858Y179643D02*
X108494Y179399D01*
X108081Y178781D01*
X107936Y178051D01*
Y177165D01*
X108858D01*
Y179643D01*
D02*
G37*
G36*
Y175197D02*
X107936D01*
Y174311D01*
X108081Y173581D01*
X108494Y172963D01*
X108858Y172720D01*
Y175197D01*
D02*
G37*
G36*
X82972Y167913D02*
X82197D01*
Y167803D01*
X82186Y167899D01*
X82181Y167913D01*
X81398D01*
Y166142D01*
X82972D01*
Y167913D01*
D02*
G37*
G36*
X82677Y164961D02*
X80512D01*
Y164203D01*
X80597Y164173D01*
X80709Y164161D01*
X80512D01*
Y161614D01*
X82677D01*
Y164961D01*
D02*
G37*
G36*
X78543Y159646D02*
X77189D01*
Y159640D01*
X77189Y159646D01*
X76378D01*
Y156299D01*
X78543D01*
Y159646D01*
D02*
G37*
G36*
X82677D02*
X80512D01*
Y156299D01*
X82677D01*
Y159646D01*
D02*
G37*
G36*
X87992Y143898D02*
X85827D01*
Y140551D01*
X87992D01*
Y141363D01*
X87992Y141363D01*
X87992D01*
Y143898D01*
D02*
G37*
G36*
X85925Y138976D02*
X84350D01*
Y137205D01*
X85925D01*
Y138976D01*
D02*
G37*
G36*
Y135236D02*
X85126D01*
Y135236D01*
Y135236D01*
X84350D01*
Y134276D01*
X84489D01*
X84409Y134267D01*
X84350Y134244D01*
Y133465D01*
X85925D01*
Y135236D01*
D02*
G37*
G36*
X83661Y131595D02*
X82185D01*
Y130118D01*
X82954D01*
X82985Y130203D01*
X82996Y130315D01*
Y130118D01*
X83661D01*
Y131595D01*
D02*
G37*
G36*
X199409Y234484D02*
X197982Y234343D01*
X196609Y233927D01*
X195343Y233251D01*
X194234Y232341D01*
X193324Y231231D01*
X192648Y229966D01*
X192231Y228593D01*
X192091Y227165D01*
X192231Y225738D01*
X192648Y224365D01*
X193324Y223099D01*
X194234Y221990D01*
X195343Y221080D01*
X196609Y220404D01*
X197982Y219987D01*
X199409Y219847D01*
X200837Y219987D01*
X202210Y220404D01*
X203475Y221080D01*
X204585Y221990D01*
X205495Y223099D01*
X206171Y224365D01*
X206588Y225738D01*
X206728Y227165D01*
X206588Y228593D01*
X206171Y229966D01*
X205495Y231231D01*
X204585Y232341D01*
X203475Y233251D01*
X202210Y233927D01*
X200837Y234343D01*
X199409Y234484D01*
D02*
G37*
G36*
X163189Y133661D02*
X162524D01*
Y133465D01*
X162512Y133577D01*
X162482Y133661D01*
X161713D01*
Y132185D01*
X163189D01*
Y133661D01*
D02*
G37*
G36*
X166634D02*
X165157D01*
Y132185D01*
X166634D01*
Y133661D01*
D02*
G37*
G36*
X104528Y124902D02*
Y123425D01*
X106004D01*
Y124902D01*
X104528D01*
D02*
G37*
G36*
X106004Y121457D02*
X104528D01*
Y119980D01*
X106004D01*
Y121457D01*
D02*
G37*
G36*
X38976Y78347D02*
X35630D01*
Y76181D01*
X36152D01*
Y76705D01*
X36282Y76605D01*
X36460Y76516D01*
X36687Y76438D01*
X36963Y76370D01*
X37289Y76312D01*
X38086Y76228D01*
X38165Y76225D01*
Y76772D01*
X38177Y76660D01*
X38213Y76559D01*
X38272Y76471D01*
X38356Y76394D01*
X38463Y76329D01*
X38594Y76276D01*
X38750Y76234D01*
X38929Y76205D01*
X38976Y76200D01*
Y78347D01*
D02*
G37*
G36*
X36152Y75000D02*
X35630D01*
Y72835D01*
X38976D01*
Y74981D01*
X38929Y74976D01*
X38750Y74947D01*
X38594Y74906D01*
X38463Y74852D01*
X38356Y74787D01*
X38272Y74711D01*
X38213Y74622D01*
X38177Y74522D01*
X38165Y74410D01*
Y74931D01*
X37289Y74869D01*
X36963Y74812D01*
X36687Y74743D01*
X36460Y74665D01*
X36282Y74576D01*
X36152Y74476D01*
Y75000D01*
D02*
G37*
G36*
X77756Y77559D02*
X74410D01*
Y75394D01*
X75065D01*
X75113Y75439D01*
X75173Y75527D01*
X75209Y75628D01*
X75221Y75740D01*
Y75394D01*
X77756D01*
Y77559D01*
D02*
G37*
G36*
Y74213D02*
X75221D01*
Y73378D01*
X75209Y73490D01*
X75173Y73590D01*
X75113Y73679D01*
X75030Y73756D01*
X74923Y73821D01*
X74791Y73874D01*
X74636Y73915D01*
X74457Y73945D01*
X74410Y73949D01*
Y72047D01*
X77756D01*
Y74213D01*
D02*
G37*
%LPD*%
D11*
X112008Y149606D02*
X121653D01*
X125591Y153543D01*
X127559Y151575D02*
X133465Y145669D01*
X127559Y139961D02*
Y151575D01*
X125591Y153543D02*
X127559Y151575D01*
X133465Y145669D02*
X139173D01*
X125591Y153543D02*
X133465Y161417D01*
X139173D01*
X116524Y162610D02*
X125591Y153543D01*
X115748Y167126D02*
X115846Y167028D01*
Y164980D02*
Y167028D01*
Y164980D02*
X116524Y164303D01*
Y162610D02*
Y164303D01*
X266001Y170472D02*
X266142D01*
X265999Y170471D02*
X266001Y170472D01*
X262249Y170471D02*
X265999D01*
X262247Y170472D02*
X262249Y170471D01*
X248425Y170472D02*
X262247D01*
X265349Y172047D02*
X270317D01*
X265347Y172046D02*
X265349Y172047D01*
X262901Y172046D02*
X265347D01*
X262900Y172047D02*
X262901Y172046D01*
X247773Y172047D02*
X262900D01*
X266142Y170472D02*
X270866Y165748D01*
X176760Y147244D02*
X241867D01*
X176108Y145669D02*
X242520D01*
X175455Y144095D02*
X238054D01*
X174803Y142520D02*
X237402D01*
X176569Y147435D02*
X176760Y147244D01*
X170073Y151704D02*
X176108Y145669D01*
X169421Y150129D02*
X175455Y144095D01*
X163779Y153543D02*
X174803Y142520D01*
X22441Y272564D02*
Y285473D01*
X13780Y278999D02*
Y285835D01*
X168924Y120079D02*
X181522Y132677D01*
X116142Y124016D02*
X120079Y120079D01*
X168924D01*
X169576Y118504D02*
X182175Y131102D01*
X112992Y124938D02*
X119426Y118504D01*
X169576D01*
X118774Y116929D02*
X170228D01*
X182827Y129528D01*
X109843Y125861D02*
X118774Y116929D01*
X170881Y115354D02*
X183479Y127953D01*
X97638Y115354D02*
X170881D01*
X243701Y149077D02*
Y167975D01*
X241867Y147244D02*
X243701Y149077D01*
Y167975D02*
X247773Y172047D01*
X165348Y158656D02*
X176569Y147435D01*
X161012Y162992D02*
X165348Y158656D01*
X165348D01*
X148228Y162992D02*
X161012D01*
X148228Y159843D02*
X161934D01*
X245276Y148425D02*
Y167323D01*
X248425Y170472D01*
X242520Y145669D02*
X245276Y148425D01*
X170073Y151704D02*
X170073D01*
X161934Y159843D02*
X170073Y151704D01*
X148228Y156693D02*
X162857D01*
X238054Y144095D02*
X243307Y138841D01*
Y107154D02*
Y138841D01*
X162857Y156693D02*
X169421Y150129D01*
X169421D01*
X148228Y153543D02*
X163779D01*
X241535Y106735D02*
Y138386D01*
X237402Y142520D02*
X241535Y138386D01*
X235433Y131497D02*
Y139370D01*
Y131497D02*
X235433Y131496D01*
X233661Y129724D02*
X235433Y131496D01*
X233465Y123622D02*
X238583Y128740D01*
Y136614D01*
X270866Y147928D02*
Y165748D01*
X264055Y142283D02*
X265221D01*
X270866Y147928D01*
X270317Y172047D02*
X271586Y170778D01*
X271959D01*
X241535Y106735D02*
X241535Y106735D01*
X241535Y104289D02*
Y106735D01*
X39764Y257469D02*
Y285236D01*
X39961Y285433D01*
X39764Y257469D02*
X62981Y234252D01*
X85433D01*
X96850Y200394D02*
Y226366D01*
X88965Y234252D02*
X96850Y226366D01*
X85433Y234252D02*
X88965D01*
X85433Y234252D02*
X85433Y234252D01*
X96850Y200394D02*
X102362Y194882D01*
X114961D01*
X119291Y176181D02*
Y190551D01*
X114961Y194882D02*
X119291Y190551D01*
X157874Y172441D02*
Y177165D01*
X153937Y181102D02*
X157874Y177165D01*
X146457Y181564D02*
Y185433D01*
Y181564D02*
X146918Y181102D01*
X153937D01*
X244488Y105512D02*
Y105973D01*
X243307Y107154D02*
X244488Y105973D01*
X241535Y104289D02*
X243541Y102284D01*
X229528Y123622D02*
X233465D01*
X225197Y127953D02*
X229528Y123622D01*
X183479Y127953D02*
X225197D01*
X229528Y126771D02*
X231889D01*
X226772Y129528D02*
X229528Y126771D01*
X229331Y129724D02*
X233661D01*
X182827Y129528D02*
X226772D01*
X109843Y125861D02*
Y130905D01*
X182175Y131102D02*
X227953D01*
X229331Y129724D01*
X181522Y132677D02*
X231850D01*
X112992Y124938D02*
Y130905D01*
X243541Y102284D02*
X254055D01*
X116142Y124016D02*
Y130905D01*
X22441Y272564D02*
X62328Y232677D01*
X88313D01*
X95276Y178605D02*
Y225714D01*
X88313Y232677D02*
X95276Y225714D01*
Y178605D02*
X99268Y174612D01*
Y169753D02*
Y174612D01*
X99730Y169291D02*
X102953D01*
X99268Y169753D02*
X99730Y169291D01*
X87660Y231102D02*
X93701Y225062D01*
Y177953D02*
X97693Y173960D01*
X93701Y177953D02*
Y225062D01*
X87008Y229528D02*
X92126Y224410D01*
Y177034D02*
X96119Y173042D01*
X92126Y177034D02*
Y224410D01*
X13780Y278999D02*
X61676Y231102D01*
X87660D01*
X9449Y281102D02*
X61024Y229528D01*
X9449Y281102D02*
Y285827D01*
X98155Y166142D02*
X102953D01*
X97693Y166603D02*
Y173960D01*
Y166603D02*
X98155Y166142D01*
X96119Y164695D02*
Y173042D01*
X97821Y162992D02*
X102953D01*
X96119Y164695D02*
X97821Y162992D01*
X91638Y175295D02*
X94544Y172389D01*
Y160972D02*
X95673Y159843D01*
X102953D01*
X94544Y160972D02*
Y172389D01*
X61024Y229528D02*
X87008D01*
X85847Y178032D02*
Y183858D01*
Y178032D02*
X88583Y175295D01*
X91638D01*
X153937Y166929D02*
X157874D01*
X153150Y166142D02*
X153937Y166929D01*
X148228Y166142D02*
X153150D01*
X148228Y147244D02*
X158661D01*
X143701Y137795D02*
X148228D01*
X142323Y139173D02*
X143701Y137795D01*
X142323Y139173D02*
Y143110D01*
X139173Y143701D02*
X141732D01*
X142323Y143110D01*
X143898Y141477D02*
Y143898D01*
Y141477D02*
X144430Y140945D01*
X142126Y145669D02*
X143898Y143898D01*
X144430Y140945D02*
X148228D01*
X139173Y145669D02*
X142126D01*
X144488Y147244D02*
X148228D01*
X142126Y149606D02*
X144488Y147244D01*
X139173Y149606D02*
X142126D01*
X144488Y169291D02*
X148228D01*
X142126Y166929D02*
X144488Y169291D01*
X142126Y164328D02*
Y166929D01*
X141184Y163386D02*
X142126Y164328D01*
X139173Y163386D02*
X141184D01*
X139173Y163386D02*
X139173Y163386D01*
X144095Y164069D02*
Y165681D01*
X139173Y161417D02*
X141443D01*
X144095Y164069D01*
Y165681D02*
X144556Y166142D01*
X148228D01*
X147965Y162729D02*
X148228Y162992D01*
X145012Y162729D02*
X147965D01*
X143701Y161417D02*
X145012Y162729D01*
X143701Y160236D02*
Y161417D01*
X142913Y159449D02*
X143701Y160236D01*
X139173Y159449D02*
X142913D01*
X147965Y159579D02*
X148228Y159843D01*
X145406Y159579D02*
X147965D01*
X143307Y157480D02*
X145406Y159579D01*
X142126Y157480D02*
X143307D01*
X142126Y157480D02*
X142126Y157480D01*
X139173Y157480D02*
X142126D01*
X148153Y156618D02*
X148228Y156693D01*
X144807Y156618D02*
X148153D01*
X143701Y155512D02*
X144807Y156618D01*
X139173Y155512D02*
X143701D01*
X139173Y153543D02*
X148228D01*
X148228Y153543D01*
X141339Y130905D02*
Y134646D01*
X139764Y136221D02*
X141339Y134646D01*
X135433Y137401D02*
X136614Y136221D01*
X139764D01*
X135433Y137401D02*
Y139961D01*
X128740Y130905D02*
Y135433D01*
X127559Y136614D02*
X128740Y135433D01*
X127559Y136614D02*
Y139961D01*
X109843Y130905D02*
Y135433D01*
X111221Y136811D01*
X114764D02*
X115748Y137795D01*
X111221Y136811D02*
X114764D01*
X115748Y137795D02*
Y139961D01*
X112992Y134646D02*
X113583Y135236D01*
X112992Y130905D02*
Y134646D01*
X113583Y135236D02*
X115686D01*
X117717Y137266D02*
Y139961D01*
X115686Y135236D02*
X117717Y137266D01*
X116405Y133728D02*
X119685Y137008D01*
X116142Y130905D02*
X116405Y131169D01*
Y133728D01*
X119685Y137008D02*
Y139961D01*
X138189Y176181D02*
X138189Y176181D01*
X138189Y171653D02*
Y176181D01*
X134252Y170866D02*
X137402D01*
X138189Y171653D01*
X133465Y170079D02*
X134252Y170866D01*
X133465Y167126D02*
Y170079D01*
X131890Y172047D02*
Y176181D01*
X129528Y169685D02*
X131890Y172047D01*
X129528Y167126D02*
Y169685D01*
X109843Y171653D02*
Y176181D01*
X111417Y170079D02*
X114702D01*
X109843Y171653D02*
X111417Y170079D01*
X115748Y167126D02*
Y169033D01*
X114702Y170079D02*
X115748Y169033D01*
X115748Y167126D02*
X115748Y167126D01*
X112992Y172441D02*
Y176181D01*
Y172441D02*
X113779Y171653D01*
X115354D01*
X117717Y167126D02*
Y169291D01*
X115354Y171653D02*
X117717Y169291D01*
X119685Y167126D02*
Y169565D01*
X116142Y176181D02*
X116353Y175969D01*
Y172896D02*
Y175969D01*
Y172896D02*
X119685Y169565D01*
X121653Y167126D02*
Y170295D01*
X119291Y172657D02*
Y176181D01*
Y172657D02*
X121653Y170295D01*
X125591Y167126D02*
Y176181D01*
X102953Y169291D02*
X106693D01*
X108858Y167126D01*
Y164093D02*
X109565Y163386D01*
X108858Y164093D02*
Y167126D01*
X109565Y163386D02*
X112008D01*
X107283Y163441D02*
Y164644D01*
X106049Y165878D02*
X107283Y164644D01*
X109208Y161516D02*
X111909D01*
X107283Y163441D02*
X109208Y161516D01*
X103216Y165878D02*
X106049D01*
X111909Y161516D02*
X112008Y161417D01*
X107408Y161089D02*
Y161089D01*
X103216Y162729D02*
X105768D01*
X102953Y162992D02*
X103216Y162729D01*
X105768D02*
X107408Y161089D01*
Y161089D02*
X109048Y159449D01*
X112008D01*
X108556Y157579D02*
X111909D01*
X102953Y159843D02*
X103032Y159764D01*
X106371D01*
X108556Y157579D01*
X102953Y166142D02*
X103216Y165878D01*
X111909Y157579D02*
X112008Y157480D01*
X102953Y156693D02*
X106693D01*
X107874Y155512D01*
X112008D01*
X102953Y153543D02*
X112008D01*
X102953Y153543D02*
X102953Y153543D01*
X102953Y150394D02*
X106550D01*
X107731Y151575D02*
X112008D01*
X106550Y150394D02*
X107731Y151575D01*
X102953Y147244D02*
X103216Y147508D01*
X106169D01*
X108268Y149606D02*
X112008D01*
X106169Y147508D02*
X108268Y149606D01*
X102953Y144095D02*
X105196D01*
X105774Y144673D01*
X105871D01*
X108836Y147638D02*
X112008D01*
X105871Y144673D02*
X108836Y147638D01*
X107677Y141406D02*
Y143973D01*
X102953Y140945D02*
X107216D01*
X107677Y141406D01*
X109373Y145669D02*
X112008D01*
X107677Y143973D02*
X109373Y145669D01*
X102953Y137795D02*
X107480D01*
X109449Y139764D01*
X109910Y143701D02*
X112008D01*
X109449Y143239D02*
X109910Y143701D01*
X109449Y139764D02*
Y143239D01*
D16*
X237825Y364173D02*
D03*
X265325D02*
D03*
X8100D02*
D03*
X35600D02*
D03*
D20*
X164173Y147244D02*
D03*
X158661D02*
D03*
X107480Y184646D02*
D03*
X112992D02*
D03*
X103543Y122441D02*
D03*
X98032D02*
D03*
X92126Y115354D02*
D03*
X97638D02*
D03*
X84646Y129134D02*
D03*
X90158D02*
D03*
D21*
X61417Y95276D02*
D03*
Y100787D02*
D03*
X75689Y95177D02*
D03*
Y100689D02*
D03*
X68602D02*
D03*
Y95177D02*
D03*
X157087Y140157D02*
D03*
Y134646D02*
D03*
X164173Y140157D02*
D03*
Y134646D02*
D03*
X157874Y166929D02*
D03*
Y172441D02*
D03*
X146457Y190945D02*
D03*
Y185433D02*
D03*
X61024Y221654D02*
D03*
Y216142D02*
D03*
X85433Y213779D02*
D03*
Y219291D02*
D03*
D23*
X63779Y175591D02*
D03*
X70866D02*
D03*
D51*
X266142Y186221D02*
D03*
X75408Y360025D02*
D03*
X260447Y14384D02*
D03*
D53*
X198819Y266929D02*
X216142D01*
X141594Y209704D02*
X198819Y266929D01*
X139885Y209328D02*
X140261Y209704D01*
X141594D01*
X85358Y117852D02*
X87897Y120391D01*
X85358Y117243D02*
Y117852D01*
X68570Y104724D02*
X96063D01*
X68602Y100689D02*
Y104692D01*
X68570Y104724D02*
X68602Y104692D01*
X96063Y104724D02*
X104921Y113583D01*
X62648Y58268D02*
X62795D01*
X63090Y58563D01*
Y63386D01*
X52854Y58625D02*
Y63386D01*
Y58625D02*
X52912Y58568D01*
X49958Y100352D02*
X54331Y104724D01*
X68570D01*
X49958Y93659D02*
Y100352D01*
Y93659D02*
X52817Y90801D01*
Y87833D02*
X52854Y87795D01*
X52817Y87833D02*
Y90801D01*
X47441Y93393D02*
Y95079D01*
X46063Y96457D02*
X47441Y95079D01*
Y93393D02*
X50271Y90562D01*
Y87819D02*
X50295Y87795D01*
X50271Y87819D02*
Y90562D01*
X57972Y83591D02*
X58664Y82899D01*
X68282D01*
X58664Y68320D02*
X69387D01*
X57972Y83591D02*
Y100095D01*
X69387Y68320D02*
X70079Y69012D01*
Y74559D01*
X57972Y67628D02*
X58664Y68320D01*
X57972Y63386D02*
Y67628D01*
X68282Y82899D02*
X70079Y81102D01*
Y74559D02*
Y81102D01*
X78102Y74559D02*
X78347Y74803D01*
X70079Y74559D02*
X78102D01*
X60532Y63386D02*
Y65112D01*
X60635Y65216D01*
Y68110D01*
X42126Y69073D02*
X42818Y68382D01*
X42126Y69073D02*
Y75591D01*
X52854Y63386D02*
Y67690D01*
X52162Y68382D02*
X52854Y67690D01*
X42818Y68382D02*
X52162D01*
Y82813D02*
X52854Y83505D01*
X42126Y75591D02*
Y82121D01*
X52854Y83505D02*
Y87795D01*
X42818Y82813D02*
X52162D01*
X42126Y82121D02*
X42818Y82813D01*
X35039Y75590D02*
X42126D01*
X42126Y75591D01*
X58664Y100787D02*
X61417D01*
X57972Y100095D02*
X58664Y100787D01*
X216142Y266929D02*
X221260Y272047D01*
Y335039D01*
X224747Y245726D02*
Y260881D01*
Y245726D02*
X224803Y245669D01*
X206690Y264567D02*
X228346D01*
X204724Y262601D02*
X206690Y264567D01*
X216929Y261082D02*
Y261086D01*
X216929Y261082D02*
X216929Y261082D01*
X216929Y261082D02*
X217717Y260294D01*
X209017Y260804D02*
X209866D01*
X215748Y254921D01*
X216535Y339764D02*
X221260Y335039D01*
X248221Y174999D02*
X264124D01*
X248220Y175000D02*
X248221Y174999D01*
X241929Y168709D02*
X248220Y175000D01*
X215748Y158785D02*
Y254921D01*
X214173Y157210D02*
X215748Y158785D01*
X214173Y152658D02*
Y157210D01*
X219685Y159055D02*
X220866Y157874D01*
Y152756D02*
Y157874D01*
X219685Y159055D02*
Y240551D01*
X217717Y156299D02*
Y260294D01*
X177494Y149016D02*
X240442D01*
X214173Y152658D02*
X214173Y152658D01*
X220768Y152658D02*
X220866Y152756D01*
X168176Y158334D02*
X177494Y149016D01*
X240442D02*
X241929Y150503D01*
Y168709D01*
X166082Y160427D02*
X168176Y158334D01*
X168176D01*
X162992Y163517D02*
Y172441D01*
Y163517D02*
X166082Y160427D01*
Y160427D02*
Y160427D01*
X186009Y245276D02*
X211811D01*
X219685Y240551D02*
X224803Y245669D01*
X157874Y172441D02*
X162992D01*
X162992Y172441D01*
X157087Y129921D02*
Y134646D01*
X92126Y120391D02*
Y123228D01*
Y115354D02*
Y120391D01*
X87897D02*
X92126D01*
X70866Y170866D02*
Y175591D01*
X70866Y175591D02*
X70866Y175591D01*
X238189Y259842D02*
Y264567D01*
X224804Y277952D02*
Y322441D01*
Y277952D02*
X238189Y264567D01*
X224803Y332677D02*
Y338444D01*
X224410Y338837D02*
X224803Y338444D01*
X224410Y338837D02*
Y339370D01*
X224804Y322441D02*
Y332677D01*
X224803Y332677D02*
X224804Y332677D01*
X98819Y90552D02*
Y99212D01*
X98425Y99606D02*
X98819Y99212D01*
X98819Y74803D02*
Y82678D01*
X88583Y62992D02*
X98819D01*
X78347D02*
X88583D01*
X181076Y121374D02*
X181426Y121724D01*
X179405Y121374D02*
X181076D01*
X171615Y113583D02*
X179405Y121374D01*
X104921Y113583D02*
X171615D01*
X167323Y147244D02*
X169583Y144984D01*
X164173Y147244D02*
X167323D01*
X161322Y134646D02*
X164173D01*
X160630Y135337D02*
X161322Y134646D01*
X160630Y135337D02*
Y138976D01*
X159840Y139767D02*
X160630Y138976D01*
X157087Y140157D02*
X157477Y139767D01*
X159840D01*
X141339Y125197D02*
Y130905D01*
X141339Y125197D02*
X141339Y125197D01*
X127352Y192341D02*
X184224Y249213D01*
X125197Y192126D02*
X125412Y192341D01*
X127352D01*
X116142Y176181D02*
Y182222D01*
X116240Y182320D01*
Y186971D01*
X116142Y187070D02*
X116240Y186971D01*
X116142Y187070D02*
Y188444D01*
X115354Y189231D02*
X116142Y188444D01*
X115354Y189231D02*
Y189764D01*
X188189Y249213D02*
X195276Y256299D01*
X184224Y249213D02*
X188189D01*
X125591Y187795D02*
X185039Y247244D01*
X204724Y261024D02*
Y262601D01*
X190945Y247244D02*
X204724Y261024D01*
X185039Y247244D02*
X190945D01*
X131890Y191156D02*
X186009Y245276D01*
X125591Y176181D02*
Y187795D01*
X131890Y176181D02*
Y191156D01*
X90158Y125197D02*
Y129134D01*
Y125197D02*
X92126Y123228D01*
X76086Y160731D02*
X79528D01*
Y167323D01*
Y160630D02*
Y160731D01*
X81102Y168898D02*
X83957D01*
X79528Y167323D02*
X81102Y168898D01*
X77559Y129134D02*
X84646D01*
X74016Y132677D02*
X77559Y129134D01*
X97638Y115354D02*
Y122047D01*
X98032Y122441D01*
X74016Y158661D02*
X76086Y160731D01*
X74016Y132677D02*
Y158661D01*
X70846Y175610D02*
Y183858D01*
Y175610D02*
X70866Y175591D01*
X85433Y213779D02*
X88189D01*
X89764Y215354D01*
Y222047D01*
X80709Y223622D02*
X88189D01*
X89764Y222047D01*
X78740Y221654D02*
X80709Y223622D01*
X61024Y221654D02*
X61024Y221654D01*
X78740D01*
X80847Y198287D02*
Y205118D01*
Y198287D02*
X81102Y198031D01*
X125591Y176181D02*
X125591Y176181D01*
D54*
X194095Y322047D02*
X217322D01*
X194095Y322047D02*
X194095Y322047D01*
X92914Y82678D02*
X98819D01*
X92913Y82677D02*
X92914Y82678D01*
X92913Y99606D02*
X98425D01*
X98819Y82678D02*
X98819Y82678D01*
X78347Y74803D02*
X88583D01*
X98819D01*
D55*
X68694Y91661D02*
X70782D01*
X66607D02*
X68694D01*
X68209Y87795D02*
Y91175D01*
X68694Y91661D01*
X70782D02*
X71891Y90551D01*
X65650Y87795D02*
Y90703D01*
X66607Y91661D01*
X71891Y90551D02*
X72441D01*
X50295Y60267D02*
Y63386D01*
X48922Y54827D02*
X49373Y55278D01*
Y59344D01*
X50295Y60267D01*
X45177Y58760D02*
Y63386D01*
Y58760D02*
X45669Y58268D01*
X41732D02*
X45669D01*
X47736Y60335D02*
Y63386D01*
X45669Y58268D02*
X47736Y60335D01*
X68177Y57874D02*
X71653D01*
X67323D02*
X68177D01*
X68209Y57905D02*
Y63386D01*
X68177Y57874D02*
X68209Y57905D01*
X65650Y59547D02*
X67323Y57874D01*
X65650Y59547D02*
Y63386D01*
X56796Y54827D02*
Y59346D01*
X55468Y60674D02*
X56796Y59346D01*
X55468Y60674D02*
Y63331D01*
X55413Y63386D02*
X55468Y63331D01*
X45362Y91732D02*
X46457D01*
X47681Y90508D01*
Y87850D02*
X47736Y87795D01*
X47681Y87850D02*
Y90508D01*
X45177Y91547D02*
X45362Y91732D01*
X39764D02*
X44992D01*
X45177Y91547D01*
Y87795D02*
Y91547D01*
X68602Y95177D02*
X75689D01*
X68195Y94770D02*
X68602Y95177D01*
X66029Y94770D02*
X68195D01*
X65354Y94095D02*
X66029Y94770D01*
X63090Y90650D02*
X65354Y92913D01*
Y94095D01*
X63090Y87795D02*
Y90650D01*
X61417Y91732D02*
Y95276D01*
X60532Y87795D02*
Y90847D01*
X61417Y91732D01*
X53937Y92913D02*
Y96457D01*
X55413Y87795D02*
Y91437D01*
X53937Y92913D02*
X55413Y91437D01*
X112781Y184856D02*
X112992Y184646D01*
X112781Y184856D02*
Y187219D01*
X110236Y189764D02*
X112781Y187219D01*
X138189Y190551D02*
X146063D01*
X146457Y190945D01*
X92871Y160279D02*
X96457Y156693D01*
X90945Y173622D02*
X92871Y171696D01*
Y160279D02*
Y171696D01*
X107480Y184646D02*
X107691Y184435D01*
Y182073D02*
Y184435D01*
Y182073D02*
X109843Y179921D01*
Y176181D02*
Y179921D01*
X86614Y124803D02*
X87008Y124409D01*
X79134Y124803D02*
X86614D01*
X71653Y132283D02*
X79134Y124803D01*
X71653Y132283D02*
Y161417D01*
X75846Y165610D02*
Y183858D01*
X71653Y161417D02*
X75846Y165610D01*
X80847Y177421D02*
Y183858D01*
Y177421D02*
X84646Y173622D01*
X90945D01*
X96457Y156693D02*
X102953D01*
X88976Y138189D02*
Y144882D01*
X87008Y136221D02*
X88976Y138189D01*
X83366Y136221D02*
X87008D01*
X84646Y129134D02*
Y132283D01*
X83366Y136221D02*
X83577Y136010D01*
Y133352D02*
Y136010D01*
Y133352D02*
X84646Y132283D01*
X90158Y129134D02*
Y136614D01*
X85847Y205118D02*
Y213366D01*
X85433Y213779D02*
X85847Y213366D01*
X61024Y216142D02*
X68306D01*
X68306Y216142D01*
X78149D02*
X79441Y217435D01*
X78035Y216029D02*
X78149Y216142D01*
X79441Y217435D02*
X81214D01*
X83071Y219291D01*
X85433D02*
X85433Y219291D01*
X83071Y219291D02*
X85433D01*
X75846Y205118D02*
Y209390D01*
X74213Y211024D02*
X75846Y209390D01*
X75084Y216029D02*
X78035D01*
X74213Y215158D02*
X75084Y216029D01*
X74213Y211024D02*
Y215158D01*
X70846Y209429D02*
X72441Y211024D01*
X70846Y205118D02*
Y209429D01*
X72441Y211024D02*
Y214961D01*
X68306Y216142D02*
X68419Y216030D01*
X71372D01*
X72441Y214961D01*
X157663Y172230D02*
X157874Y172441D01*
X155301Y172230D02*
X157663D01*
X152362Y169291D02*
X155301Y172230D01*
X148228Y169291D02*
X152362D01*
X79415Y144770D02*
X79528Y144882D01*
X79415Y140439D02*
Y144770D01*
X78065Y139089D02*
X79415Y140439D01*
X78051Y136221D02*
X78065Y136234D01*
Y139089D01*
X98032Y122441D02*
Y125984D01*
X94095Y129921D02*
Y137008D01*
Y129921D02*
X98032Y125984D01*
X138189Y176181D02*
X138189Y176181D01*
X138189Y176181D02*
Y185039D01*
X160236Y143307D02*
X163597D01*
X164173Y140157D02*
Y142730D01*
X163597Y143307D02*
X164173Y142730D01*
X158661Y144882D02*
X160236Y143307D01*
X158661Y147244D02*
X158661Y147244D01*
Y144882D02*
Y147244D01*
X152362Y140945D02*
X153150Y140157D01*
X157087D01*
X148228Y140945D02*
X152362D01*
X156482Y135250D02*
X157087Y134646D01*
X154514Y135250D02*
X156482D01*
X148228Y137795D02*
X151969D01*
X154514Y135250D01*
X97638Y133858D02*
Y136614D01*
X98819Y137795D02*
X102953D01*
X97638Y136614D02*
X98819Y137795D01*
X94095Y137008D02*
X98032Y140945D01*
X90158Y136614D02*
X97638Y144095D01*
X98032Y140945D02*
X102953D01*
X97638Y144095D02*
X102953D01*
X88976Y160630D02*
Y168602D01*
X89272Y168898D01*
X95669Y147244D02*
X102953D01*
X93307Y144882D02*
X95669Y147244D01*
X88976Y144882D02*
X93307D01*
X80315Y150394D02*
X102953D01*
X79528Y149606D02*
X80315Y150394D01*
X90158Y153543D02*
X102953D01*
X88976Y154724D02*
X90158Y153543D01*
X88976Y154724D02*
Y160630D01*
X79528Y144882D02*
Y149606D01*
X112992Y176181D02*
Y184646D01*
X112992Y184646D02*
X112992Y184646D01*
D56*
X10630Y63779D02*
Y79921D01*
Y38189D02*
Y63779D01*
Y164173D02*
X21654Y153150D01*
X10630Y79921D02*
X21654Y90945D01*
Y153150D01*
D57*
X16929Y76378D02*
X17717Y75590D01*
X35039D01*
D58*
X237825Y358297D02*
D03*
X265325D02*
D03*
X8100D02*
D03*
X35600D02*
D03*
D59*
X266457Y224803D02*
D03*
D60*
X250866D02*
D03*
D61*
X10630Y227165D02*
D03*
X227953D02*
D03*
Y38189D02*
D03*
X10630Y101181D02*
D03*
Y164173D02*
D03*
Y38189D02*
D03*
X227953Y164173D02*
D03*
Y101181D02*
D03*
X222205Y366693D02*
D03*
Y346693D02*
D03*
X202205D02*
D03*
Y366693D02*
D03*
D62*
X39173Y38189D02*
D03*
X199409D02*
D03*
X39173Y227165D02*
D03*
D63*
X199409D02*
D03*
D64*
X212205Y356693D02*
D03*
D65*
X264055Y132283D02*
D03*
X254055D02*
D03*
X264055Y142283D02*
D03*
X254055D02*
D03*
X264055Y152284D02*
D03*
X254055D02*
D03*
X264055Y162284D02*
D03*
X254055Y122283D02*
D03*
X264055D02*
D03*
X254055Y112284D02*
D03*
X264055D02*
D03*
X254055Y102284D02*
D03*
X264055D02*
D03*
D66*
X254055Y162284D02*
D03*
D67*
X272301Y352576D02*
D03*
X267379Y342733D02*
D03*
X272301Y332891D02*
D03*
X267379Y323048D02*
D03*
X272301Y313206D02*
D03*
X267379Y303363D02*
D03*
X272301Y293520D02*
D03*
X267379Y283678D02*
D03*
X272301Y273835D02*
D03*
X267379Y263993D02*
D03*
X272301Y254150D02*
D03*
X267379Y244308D02*
D03*
X272301Y234465D02*
D03*
Y214780D02*
D03*
X267379Y204938D02*
D03*
X272301Y195095D02*
D03*
Y175410D02*
D03*
Y136040D02*
D03*
Y116355D02*
D03*
Y96670D02*
D03*
X267379Y86827D02*
D03*
X272301Y76985D02*
D03*
X267379Y67142D02*
D03*
X272301Y57300D02*
D03*
X267379Y47458D02*
D03*
X272301Y37615D02*
D03*
X267379Y27772D02*
D03*
X272301Y17930D02*
D03*
X267379Y8087D02*
D03*
X262458Y332891D02*
D03*
Y313206D02*
D03*
Y293520D02*
D03*
Y273835D02*
D03*
X257537Y263993D02*
D03*
X262458Y254150D02*
D03*
X257537Y244308D02*
D03*
X262458Y234465D02*
D03*
Y214780D02*
D03*
X257537Y204938D02*
D03*
X262458Y195095D02*
D03*
X257537Y185253D02*
D03*
Y86827D02*
D03*
X262458Y76985D02*
D03*
X257537Y67142D02*
D03*
X262458Y57300D02*
D03*
X257537Y47458D02*
D03*
X262458Y37615D02*
D03*
X257537Y27772D02*
D03*
Y8087D02*
D03*
X247694Y263993D02*
D03*
X252616Y254150D02*
D03*
Y214780D02*
D03*
X247694Y204938D02*
D03*
X252616Y195095D02*
D03*
X247694Y185253D02*
D03*
Y145883D02*
D03*
Y86827D02*
D03*
X252616Y76985D02*
D03*
X247694Y67142D02*
D03*
X252616Y57300D02*
D03*
X247694Y47458D02*
D03*
X252616Y37615D02*
D03*
X247694Y27772D02*
D03*
X252616Y17930D02*
D03*
X247694Y8087D02*
D03*
X242773Y234465D02*
D03*
X237852Y224623D02*
D03*
X242773Y214780D02*
D03*
X237852Y204938D02*
D03*
X242773Y195095D02*
D03*
X237852Y185253D02*
D03*
X242773Y175410D02*
D03*
X237852Y165568D02*
D03*
Y106513D02*
D03*
Y86827D02*
D03*
X242773Y76985D02*
D03*
X237852Y67142D02*
D03*
X242773Y57300D02*
D03*
X237852Y47458D02*
D03*
X242773Y37615D02*
D03*
X237852Y27772D02*
D03*
X242773Y17930D02*
D03*
X237852Y8087D02*
D03*
X232931Y234465D02*
D03*
Y214780D02*
D03*
Y195095D02*
D03*
Y175410D02*
D03*
Y155725D02*
D03*
Y116355D02*
D03*
Y76985D02*
D03*
Y57300D02*
D03*
X228009Y27772D02*
D03*
X232931Y17930D02*
D03*
X228009Y8087D02*
D03*
X223088Y116355D02*
D03*
X218167Y106513D02*
D03*
Y86827D02*
D03*
X223088Y76985D02*
D03*
X218167Y67142D02*
D03*
X223088Y57300D02*
D03*
X218167Y47458D02*
D03*
Y27772D02*
D03*
X223088Y17930D02*
D03*
X218167Y8087D02*
D03*
X208324Y224623D02*
D03*
Y204938D02*
D03*
Y185253D02*
D03*
Y165568D02*
D03*
X213246Y136040D02*
D03*
Y116355D02*
D03*
X208324Y106513D02*
D03*
X213246Y96670D02*
D03*
X208324Y86827D02*
D03*
X213246Y76985D02*
D03*
X208324Y67142D02*
D03*
X213246Y57300D02*
D03*
X208324Y47458D02*
D03*
X213246Y37615D02*
D03*
X208324Y27772D02*
D03*
X213246Y17930D02*
D03*
X208324Y8087D02*
D03*
X203403Y214780D02*
D03*
X198482Y204938D02*
D03*
X203403Y195095D02*
D03*
X198482Y185253D02*
D03*
X203403Y175410D02*
D03*
X198482Y165568D02*
D03*
X203403Y155725D02*
D03*
Y136040D02*
D03*
Y116355D02*
D03*
X198482Y106513D02*
D03*
X203403Y96670D02*
D03*
X198482Y86827D02*
D03*
X203403Y76985D02*
D03*
X198482Y67142D02*
D03*
X203403Y57300D02*
D03*
X198482Y47458D02*
D03*
Y27772D02*
D03*
X203403Y17930D02*
D03*
X198482Y8087D02*
D03*
X188639Y362418D02*
D03*
X193561Y352576D02*
D03*
X188639Y342733D02*
D03*
X193561Y332891D02*
D03*
X188639Y323048D02*
D03*
Y303363D02*
D03*
Y283678D02*
D03*
X193561Y234465D02*
D03*
X188639Y224623D02*
D03*
X193561Y214780D02*
D03*
X188639Y204938D02*
D03*
X193561Y195095D02*
D03*
X188639Y185253D02*
D03*
X193561Y175410D02*
D03*
X188639Y165568D02*
D03*
X193561Y155725D02*
D03*
Y136040D02*
D03*
Y116355D02*
D03*
X188639Y106513D02*
D03*
X193561Y96670D02*
D03*
X188639Y86827D02*
D03*
X193561Y76985D02*
D03*
X188639Y67142D02*
D03*
X193561Y57300D02*
D03*
X188639Y47458D02*
D03*
Y27772D02*
D03*
X193561Y17930D02*
D03*
X188639Y8087D02*
D03*
X178797Y362418D02*
D03*
X183718Y352576D02*
D03*
X178797Y342733D02*
D03*
X183718Y332891D02*
D03*
X178797Y323048D02*
D03*
X183718Y313206D02*
D03*
Y293520D02*
D03*
X178797Y283678D02*
D03*
X183718Y273835D02*
D03*
X178797Y263993D02*
D03*
X183718Y234465D02*
D03*
X178797Y224623D02*
D03*
X183718Y214780D02*
D03*
X178797Y204938D02*
D03*
X183718Y195095D02*
D03*
X178797Y185253D02*
D03*
X183718Y175410D02*
D03*
X178797Y165568D02*
D03*
X183718Y155725D02*
D03*
Y136040D02*
D03*
Y116355D02*
D03*
X178797Y106513D02*
D03*
X183718Y96670D02*
D03*
X178797Y86827D02*
D03*
X183718Y76985D02*
D03*
X178797Y67142D02*
D03*
X183718Y57300D02*
D03*
X178797Y47458D02*
D03*
X183718Y37615D02*
D03*
X178797Y27772D02*
D03*
X183718Y17930D02*
D03*
X178797Y8087D02*
D03*
X168954Y362418D02*
D03*
X173876Y352576D02*
D03*
X168954Y342733D02*
D03*
X173876Y332891D02*
D03*
X168954Y323048D02*
D03*
X173876Y293520D02*
D03*
X168954Y283678D02*
D03*
X173876Y273835D02*
D03*
X168954Y263993D02*
D03*
X173876Y214780D02*
D03*
X168954Y204938D02*
D03*
X173876Y195095D02*
D03*
X168954Y185253D02*
D03*
X173876Y175410D02*
D03*
X168954Y165568D02*
D03*
Y126198D02*
D03*
Y106513D02*
D03*
X173876Y96670D02*
D03*
X168954Y86827D02*
D03*
X173876Y76985D02*
D03*
X168954Y67142D02*
D03*
X173876Y57300D02*
D03*
X168954Y47458D02*
D03*
X173876Y37615D02*
D03*
X168954Y27772D02*
D03*
X173876Y17930D02*
D03*
X168954Y8087D02*
D03*
X159112Y362418D02*
D03*
X164033Y352576D02*
D03*
X159112Y342733D02*
D03*
X164033Y332891D02*
D03*
X159112Y323048D02*
D03*
X164033Y313206D02*
D03*
X159112Y303363D02*
D03*
X164033Y293520D02*
D03*
X159112Y283678D02*
D03*
X164033Y273835D02*
D03*
X159112Y263993D02*
D03*
X164033Y254150D02*
D03*
X159112Y244308D02*
D03*
X164033Y214780D02*
D03*
X159112Y204938D02*
D03*
X164033Y195095D02*
D03*
X159112Y185253D02*
D03*
X164033Y96670D02*
D03*
X159112Y86827D02*
D03*
X164033Y76985D02*
D03*
X159112Y67142D02*
D03*
X164033Y57300D02*
D03*
X159112Y47458D02*
D03*
X164033Y37615D02*
D03*
X159112Y27772D02*
D03*
X164033Y17930D02*
D03*
X159112Y8087D02*
D03*
X149269Y362418D02*
D03*
X154191Y352576D02*
D03*
X149269Y342733D02*
D03*
X154191Y332891D02*
D03*
X149269Y323048D02*
D03*
X154191Y313206D02*
D03*
X149269Y303363D02*
D03*
X154191Y293520D02*
D03*
X149269Y283678D02*
D03*
X154191Y273835D02*
D03*
X149269Y263993D02*
D03*
X154191Y254150D02*
D03*
X149269Y244308D02*
D03*
X154191Y195095D02*
D03*
X149269Y126198D02*
D03*
X154191Y96670D02*
D03*
X149269Y86827D02*
D03*
X154191Y76985D02*
D03*
X149269Y67142D02*
D03*
X154191Y57300D02*
D03*
X149269Y47458D02*
D03*
X154191Y37615D02*
D03*
X149269Y27772D02*
D03*
X154191Y17930D02*
D03*
X149269Y8087D02*
D03*
X139427Y362418D02*
D03*
X144348Y352576D02*
D03*
X139427Y342733D02*
D03*
X144348Y332891D02*
D03*
X139427Y323048D02*
D03*
X144348Y313206D02*
D03*
X139427Y303363D02*
D03*
X144348Y293520D02*
D03*
X139427Y283678D02*
D03*
X144348Y273835D02*
D03*
X139427Y263993D02*
D03*
X144348Y254150D02*
D03*
X139427Y244308D02*
D03*
X144348Y234465D02*
D03*
X139427Y224623D02*
D03*
Y106513D02*
D03*
Y86827D02*
D03*
X144348Y76985D02*
D03*
X139427Y67142D02*
D03*
X144348Y57300D02*
D03*
X139427Y47458D02*
D03*
X144348Y37615D02*
D03*
X139427Y27772D02*
D03*
X144348Y17930D02*
D03*
X139427Y8087D02*
D03*
X129584Y362418D02*
D03*
X134505Y352576D02*
D03*
X129584Y342733D02*
D03*
X134505Y332891D02*
D03*
X129584Y283678D02*
D03*
X134505Y273835D02*
D03*
X129584Y263993D02*
D03*
X134505Y254150D02*
D03*
X129584Y244308D02*
D03*
X134505Y234465D02*
D03*
X129584Y224623D02*
D03*
Y106513D02*
D03*
Y86827D02*
D03*
X134505Y76985D02*
D03*
X129584Y67142D02*
D03*
X134505Y57300D02*
D03*
X129584Y47458D02*
D03*
X134505Y37615D02*
D03*
X129584Y27772D02*
D03*
X134505Y17930D02*
D03*
X129584Y8087D02*
D03*
X119742Y362418D02*
D03*
X124663Y352576D02*
D03*
X119742Y342733D02*
D03*
X124663Y332891D02*
D03*
X119742Y283678D02*
D03*
X124663Y273835D02*
D03*
X119742Y263993D02*
D03*
X124663Y254150D02*
D03*
X119742Y244308D02*
D03*
X124663Y234465D02*
D03*
X119742Y224623D02*
D03*
X124663Y214780D02*
D03*
X119742Y204938D02*
D03*
Y106513D02*
D03*
Y86827D02*
D03*
X124663Y76985D02*
D03*
X119742Y67142D02*
D03*
X124663Y57300D02*
D03*
X119742Y47458D02*
D03*
X124663Y37615D02*
D03*
X119742Y27772D02*
D03*
X124663Y17930D02*
D03*
X119742Y8087D02*
D03*
X109899Y362418D02*
D03*
X114821Y352576D02*
D03*
X109899Y342733D02*
D03*
X114821Y332891D02*
D03*
X109899Y283678D02*
D03*
X114821Y273835D02*
D03*
X109899Y263993D02*
D03*
X114821Y254150D02*
D03*
X109899Y244308D02*
D03*
X114821Y234465D02*
D03*
X109899Y224623D02*
D03*
X114821Y214780D02*
D03*
X109899Y204938D02*
D03*
Y106513D02*
D03*
Y86827D02*
D03*
X114821Y76985D02*
D03*
X109899Y67142D02*
D03*
X114821Y57300D02*
D03*
X109899Y47458D02*
D03*
X114821Y37615D02*
D03*
X109899Y27772D02*
D03*
X114821Y17930D02*
D03*
X109899Y8087D02*
D03*
X100057Y362418D02*
D03*
X104978Y352576D02*
D03*
X100057Y342733D02*
D03*
X104978Y332891D02*
D03*
X100057Y283678D02*
D03*
X104978Y273835D02*
D03*
X100057Y263993D02*
D03*
X104978Y254150D02*
D03*
X100057Y244308D02*
D03*
X104978Y234465D02*
D03*
Y214780D02*
D03*
X100057Y185253D02*
D03*
X104978Y175410D02*
D03*
Y76985D02*
D03*
Y57300D02*
D03*
X100057Y47458D02*
D03*
X104978Y37615D02*
D03*
X100057Y27772D02*
D03*
X104978Y17930D02*
D03*
X100057Y8087D02*
D03*
X90214Y362418D02*
D03*
X95135Y352576D02*
D03*
X90214Y342733D02*
D03*
X95135Y332891D02*
D03*
X90214Y323048D02*
D03*
Y303363D02*
D03*
Y283678D02*
D03*
X95135Y273835D02*
D03*
X90214Y263993D02*
D03*
X95135Y254150D02*
D03*
X90214Y244308D02*
D03*
X95135Y234465D02*
D03*
Y57300D02*
D03*
X90214Y47458D02*
D03*
X95135Y37615D02*
D03*
X90214Y27772D02*
D03*
X95135Y17930D02*
D03*
X90214Y8087D02*
D03*
X85293Y352576D02*
D03*
X80372Y342733D02*
D03*
X85293Y332891D02*
D03*
X80372Y323048D02*
D03*
X85293Y313206D02*
D03*
X80372Y303363D02*
D03*
X85293Y293520D02*
D03*
X80372Y283678D02*
D03*
X85293Y273835D02*
D03*
X80372Y263993D02*
D03*
X85293Y254150D02*
D03*
X80372Y244308D02*
D03*
Y224623D02*
D03*
Y86827D02*
D03*
X85293Y57300D02*
D03*
X80372Y47458D02*
D03*
X85293Y37615D02*
D03*
X80372Y27772D02*
D03*
X85293Y17930D02*
D03*
X80372Y8087D02*
D03*
X75450Y352576D02*
D03*
X70529Y342733D02*
D03*
X75450Y332891D02*
D03*
X70529Y323048D02*
D03*
X75450Y313206D02*
D03*
X70529Y303363D02*
D03*
X75450Y293520D02*
D03*
X70529Y283678D02*
D03*
X75450Y273835D02*
D03*
X70529Y263993D02*
D03*
X75450Y254150D02*
D03*
X70529Y244308D02*
D03*
Y224623D02*
D03*
X75450Y195095D02*
D03*
X70529Y47458D02*
D03*
X75450Y37615D02*
D03*
X70529Y27772D02*
D03*
X75450Y17930D02*
D03*
X70529Y8087D02*
D03*
X65608Y352576D02*
D03*
X60687Y342733D02*
D03*
X65608Y332891D02*
D03*
X60687Y323048D02*
D03*
X65608Y313206D02*
D03*
Y293520D02*
D03*
Y273835D02*
D03*
Y254150D02*
D03*
X60687Y204938D02*
D03*
Y185253D02*
D03*
Y165568D02*
D03*
Y145883D02*
D03*
Y126198D02*
D03*
X65608Y116355D02*
D03*
X60687Y47458D02*
D03*
X65608Y37615D02*
D03*
X60687Y27772D02*
D03*
X65608Y17930D02*
D03*
X60687Y8087D02*
D03*
X50844Y342733D02*
D03*
X55765Y332891D02*
D03*
X50844Y323048D02*
D03*
Y204938D02*
D03*
X55765Y195095D02*
D03*
X50844Y185253D02*
D03*
X55765Y175410D02*
D03*
X50844Y165568D02*
D03*
X55765Y155725D02*
D03*
X50844Y145883D02*
D03*
X55765Y136040D02*
D03*
X50844Y126198D02*
D03*
X55765Y116355D02*
D03*
X50844Y106513D02*
D03*
Y47458D02*
D03*
X55765Y37615D02*
D03*
X50844Y27772D02*
D03*
X55765Y17930D02*
D03*
X50844Y8087D02*
D03*
X41001Y342733D02*
D03*
X45923Y332891D02*
D03*
Y313206D02*
D03*
X41001Y244308D02*
D03*
X45923Y234465D02*
D03*
Y214780D02*
D03*
X41001Y204938D02*
D03*
X45923Y195095D02*
D03*
X41001Y185253D02*
D03*
X45923Y175410D02*
D03*
X41001Y165568D02*
D03*
X45923Y155725D02*
D03*
X41001Y145883D02*
D03*
X45923Y136040D02*
D03*
X41001Y126198D02*
D03*
X45923Y116355D02*
D03*
X41001Y106513D02*
D03*
Y47458D02*
D03*
Y27772D02*
D03*
X45923Y17930D02*
D03*
X41001Y8087D02*
D03*
X31159Y244308D02*
D03*
X36080Y214780D02*
D03*
X31159Y204938D02*
D03*
X36080Y195095D02*
D03*
X31159Y185253D02*
D03*
X36080Y175410D02*
D03*
X31159Y165568D02*
D03*
X36080Y155725D02*
D03*
X31159Y145883D02*
D03*
X36080Y136040D02*
D03*
X31159Y126198D02*
D03*
X36080Y116355D02*
D03*
X31159Y106513D02*
D03*
X36080Y96670D02*
D03*
X31159Y86827D02*
D03*
X36080Y57300D02*
D03*
X31159Y47458D02*
D03*
Y27772D02*
D03*
X36080Y17930D02*
D03*
X31159Y8087D02*
D03*
X21317Y263993D02*
D03*
X26238Y254150D02*
D03*
X21317Y244308D02*
D03*
X26238Y234465D02*
D03*
X21317Y224623D02*
D03*
X26238Y155725D02*
D03*
X21317Y145883D02*
D03*
X26238Y136040D02*
D03*
X21317Y126198D02*
D03*
X26238Y116355D02*
D03*
X21317Y106513D02*
D03*
X26238Y96670D02*
D03*
X21317Y86827D02*
D03*
Y67142D02*
D03*
X26238Y57300D02*
D03*
X21317Y47458D02*
D03*
X26238Y37615D02*
D03*
X21317Y27772D02*
D03*
X26238Y17930D02*
D03*
X21317Y8087D02*
D03*
X16395Y352576D02*
D03*
X11474Y263993D02*
D03*
X16395Y254150D02*
D03*
X11474Y244308D02*
D03*
X16395Y234465D02*
D03*
X11474Y204938D02*
D03*
X16395Y195095D02*
D03*
X11474Y185253D02*
D03*
X16395Y175410D02*
D03*
Y136040D02*
D03*
Y116355D02*
D03*
X11474Y67142D02*
D03*
X16395Y57300D02*
D03*
X11474Y47458D02*
D03*
Y27772D02*
D03*
X16395Y17930D02*
D03*
X11474Y8087D02*
D03*
X85358Y117243D02*
D03*
X72441Y90551D02*
D03*
X39764Y91732D02*
D03*
X41732Y58268D02*
D03*
X71653Y57874D02*
D03*
X62648Y58268D02*
D03*
X52912Y58568D02*
D03*
X224747Y260881D02*
D03*
X216929Y261086D02*
D03*
X209017Y260804D02*
D03*
X30709Y337402D02*
D03*
X5906Y275984D02*
D03*
X28346Y220472D02*
D03*
X148031Y173228D02*
D03*
X152756Y177559D02*
D03*
X146063Y177953D02*
D03*
X124803Y160236D02*
D03*
X146457Y133071D02*
D03*
X162992Y128347D02*
D03*
X173436Y132419D02*
D03*
X169291Y137008D02*
D03*
X79134Y131102D02*
D03*
X87795Y138583D02*
D03*
X79921Y173228D02*
D03*
X75197Y154331D02*
D03*
X83858D02*
D03*
X152362Y204724D02*
D03*
X135827Y124803D02*
D03*
X129528D02*
D03*
X122835D02*
D03*
X103162Y130725D02*
D03*
X109055Y120472D02*
D03*
X94488Y146063D02*
D03*
X125591Y153543D02*
D03*
X118898Y155905D02*
D03*
X132283Y151181D02*
D03*
Y155905D02*
D03*
X118704Y146908D02*
D03*
X123228Y146850D02*
D03*
X194095Y322047D02*
D03*
X92913Y82677D02*
D03*
Y99606D02*
D03*
X264124Y174999D02*
D03*
X217717Y156299D02*
D03*
X214173Y152658D02*
D03*
X220768D02*
D03*
X211811Y245276D02*
D03*
X110236Y189764D02*
D03*
X162992Y172441D02*
D03*
X157087Y129921D02*
D03*
X70866Y170866D02*
D03*
X238189Y259842D02*
D03*
X224410Y339370D02*
D03*
X22441Y285473D02*
D03*
X13780Y285835D02*
D03*
X169959Y143188D02*
D03*
X181426Y121724D02*
D03*
X216535Y339764D02*
D03*
X139885Y209328D02*
D03*
X141339Y125197D02*
D03*
X125197Y192126D02*
D03*
X115354Y189764D02*
D03*
X195276Y256299D02*
D03*
X235433Y139370D02*
D03*
X238583Y136614D02*
D03*
X228346Y264567D02*
D03*
X271959Y170778D02*
D03*
X39961Y285433D02*
D03*
X231889Y126771D02*
D03*
X231850Y132677D02*
D03*
X244488Y105512D02*
D03*
X9449Y285827D02*
D03*
X87008Y124409D02*
D03*
X81102Y198031D02*
D03*
X97638Y133858D02*
D03*
X16929Y76378D02*
D03*
D68*
X237825Y352421D02*
D03*
X265325D02*
D03*
X8100D02*
D03*
X35600D02*
D03*
D69*
X98425Y99606D02*
D03*
X110236D02*
D03*
X224803Y332677D02*
D03*
X236614D02*
D03*
D70*
X98819Y90552D02*
D03*
Y82678D02*
D03*
D71*
X98819Y74803D02*
D03*
Y62992D02*
D03*
X88583Y74803D02*
D03*
Y62992D02*
D03*
X78347Y74803D02*
D03*
Y62992D02*
D03*
X35039Y75590D02*
D03*
Y63779D02*
D03*
D72*
X53937Y96457D02*
D03*
X46063D02*
D03*
X48922Y54040D02*
D03*
X56796D02*
D03*
X217322Y322047D02*
D03*
X225196D02*
D03*
D73*
X45177Y87795D02*
D03*
X47736D02*
D03*
X50295D02*
D03*
X52854D02*
D03*
X55413D02*
D03*
X57972D02*
D03*
X60532D02*
D03*
X63090D02*
D03*
X65650D02*
D03*
X68209D02*
D03*
X45177Y63386D02*
D03*
X47736D02*
D03*
X50295D02*
D03*
X52854D02*
D03*
X55413D02*
D03*
X57972D02*
D03*
X60532Y63386D02*
D03*
X63090Y63386D02*
D03*
X65650Y63386D02*
D03*
X68209Y63386D02*
D03*
D74*
X56693Y75590D02*
D03*
D75*
X138189Y190551D02*
D03*
Y185039D02*
D03*
D76*
X112008Y161417D02*
D03*
Y163386D02*
D03*
Y143701D02*
D03*
Y145669D02*
D03*
Y147638D02*
D03*
Y149606D02*
D03*
Y151575D02*
D03*
Y153543D02*
D03*
Y155512D02*
D03*
Y157480D02*
D03*
Y159449D02*
D03*
X139173Y145669D02*
D03*
Y143701D02*
D03*
Y163386D02*
D03*
Y161417D02*
D03*
Y159449D02*
D03*
Y157480D02*
D03*
Y155512D02*
D03*
Y153543D02*
D03*
Y151575D02*
D03*
Y149606D02*
D03*
Y147638D02*
D03*
D77*
X115748Y167126D02*
D03*
X117717D02*
D03*
X119685D02*
D03*
X121653D02*
D03*
X123622D02*
D03*
X125591D02*
D03*
X127559D02*
D03*
X129528D02*
D03*
X131496D02*
D03*
X115748Y139961D02*
D03*
X117717D02*
D03*
X119685D02*
D03*
X121653D02*
D03*
X123622D02*
D03*
X125591D02*
D03*
X127559D02*
D03*
X129528D02*
D03*
X131496D02*
D03*
X133465Y167126D02*
D03*
Y139961D02*
D03*
X135433Y167126D02*
D03*
X135433Y139961D02*
D03*
D78*
X141339Y130905D02*
D03*
X138189D02*
D03*
X135039D02*
D03*
X131890D02*
D03*
X128740D02*
D03*
X125591D02*
D03*
X122441D02*
D03*
X119291D02*
D03*
X116142D02*
D03*
X112992D02*
D03*
X109843D02*
D03*
Y176181D02*
D03*
X112992D02*
D03*
X116142D02*
D03*
X119291D02*
D03*
X122441D02*
D03*
X125591D02*
D03*
X128740D02*
D03*
X131890D02*
D03*
X135039D02*
D03*
X138189D02*
D03*
X141339D02*
D03*
D79*
X102953Y137795D02*
D03*
Y140945D02*
D03*
Y144095D02*
D03*
Y147244D02*
D03*
Y150394D02*
D03*
Y153543D02*
D03*
Y156693D02*
D03*
Y159843D02*
D03*
Y162992D02*
D03*
Y166142D02*
D03*
Y169291D02*
D03*
X148228D02*
D03*
Y166142D02*
D03*
Y162992D02*
D03*
Y159843D02*
D03*
Y156693D02*
D03*
Y153543D02*
D03*
Y150394D02*
D03*
Y147244D02*
D03*
Y144095D02*
D03*
Y140945D02*
D03*
Y137795D02*
D03*
D80*
X125591Y153543D02*
D03*
D81*
X78051Y136221D02*
D03*
X83366D02*
D03*
X89272Y168898D02*
D03*
X83957D02*
D03*
D82*
X79528Y160630D02*
D03*
Y144882D02*
D03*
X88976D02*
D03*
Y160630D02*
D03*
D83*
X70846Y183858D02*
D03*
X75846D02*
D03*
X80847D02*
D03*
X85847D02*
D03*
Y205118D02*
D03*
X80847D02*
D03*
X75846D02*
D03*
X70846D02*
D03*
D84*
X68306Y216142D02*
D03*
X78149D02*
D03*
D85*
X10630Y63779D02*
X35039D01*
M02*
