G04*
G04 #@! TF.GenerationSoftware,Altium Limited,Altium Designer,20.2.7 (254)*
G04*
G04 Layer_Color=15724527*
%FSLAX25Y25*%
%MOIN*%
G70*
G04*
G04 #@! TF.SameCoordinates,AC8EE5C5-F73A-413B-8336-6D520369465E*
G04*
G04*
G04 #@! TF.FilePolarity,Positive*
G04*
G01*
G75*
%ADD10C,0.01575*%
%ADD11C,0.00787*%
%ADD12C,0.00551*%
%ADD13C,0.00394*%
G36*
X197244Y266710D02*
Y268723D01*
X198788D01*
Y266710D01*
X197244D01*
D02*
G37*
G36*
X257132Y75877D02*
X257160D01*
X257198Y75866D01*
X257291Y75849D01*
X257389Y75817D01*
X257498Y75768D01*
X257553Y75735D01*
X257607Y75702D01*
X257662Y75658D01*
X257717Y75609D01*
X257722Y75604D01*
X257728Y75598D01*
X257738Y75582D01*
X257760Y75560D01*
X257799Y75506D01*
X257848Y75424D01*
X257897Y75331D01*
X257941Y75222D01*
X257973Y75096D01*
X257979Y75030D01*
X257984Y74959D01*
Y74212D01*
X257979Y74173D01*
X257962Y74130D01*
X257935Y74086D01*
X257924Y74080D01*
X257897Y74064D01*
X257859Y74048D01*
X257804Y74042D01*
X257799D01*
X257793D01*
X257766Y74048D01*
X257722Y74059D01*
X257678Y74086D01*
X257673D01*
X257667Y74097D01*
X257646Y74124D01*
X257629Y74162D01*
X257618Y74190D01*
Y74998D01*
X257607Y75041D01*
X257596Y75096D01*
X257580Y75156D01*
X257553Y75222D01*
X257515Y75287D01*
X257466Y75353D01*
X257460Y75358D01*
X257438Y75380D01*
X257400Y75407D01*
X257356Y75434D01*
X257296Y75467D01*
X257231Y75489D01*
X257154Y75511D01*
X257067Y75516D01*
X256701D01*
X256690D01*
X256663D01*
X256619Y75506D01*
X256565Y75495D01*
X256505Y75478D01*
X256439Y75445D01*
X256374Y75407D01*
X256308Y75353D01*
X256302Y75347D01*
X256281Y75325D01*
X256253Y75293D01*
X256226Y75243D01*
X256193Y75189D01*
X256171Y75118D01*
X256150Y75041D01*
X256144Y74959D01*
Y74217D01*
X256139Y74195D01*
X256133Y74168D01*
X256122Y74135D01*
X256101Y74097D01*
X256068Y74069D01*
X256024Y74048D01*
X255964Y74042D01*
X254484D01*
X254479D01*
X254457Y74048D01*
X254424Y74053D01*
X254392Y74064D01*
X254359Y74086D01*
X254326Y74119D01*
X254304Y74162D01*
X254299Y74222D01*
Y75708D01*
X254304Y75740D01*
X254326Y75784D01*
X254337Y75806D01*
X254359Y75828D01*
X254370Y75839D01*
X254397Y75855D01*
X254435Y75871D01*
X254484Y75882D01*
X254495D01*
X254522Y75877D01*
X254561Y75860D01*
X254604Y75833D01*
X254615Y75828D01*
X254632Y75800D01*
X254654Y75757D01*
X254659Y75729D01*
X254664Y75697D01*
Y74408D01*
X255778D01*
Y74998D01*
X255784Y75025D01*
Y75058D01*
X255795Y75096D01*
X255811Y75183D01*
X255844Y75282D01*
X255893Y75391D01*
X255926Y75445D01*
X255959Y75506D01*
X256002Y75555D01*
X256051Y75609D01*
X256057Y75615D01*
X256062Y75620D01*
X256079Y75637D01*
X256101Y75653D01*
X256155Y75697D01*
X256231Y75746D01*
X256330Y75795D01*
X256439Y75839D01*
X256565Y75871D01*
X256630Y75877D01*
X256701Y75882D01*
X257067D01*
X257072D01*
X257083D01*
X257105D01*
X257132Y75877D01*
D02*
G37*
G36*
X254544Y73294D02*
X257826Y72191D01*
X257831D01*
X257837Y72186D01*
X257864Y72175D01*
X257902Y72153D01*
X257941Y72126D01*
X257946Y72120D01*
X257957Y72098D01*
X257968Y72066D01*
X257984Y72017D01*
Y72000D01*
X257973Y71978D01*
X257962Y71956D01*
X257946Y71924D01*
X257919Y71896D01*
X257880Y71869D01*
X257826Y71842D01*
X254544Y70739D01*
X254479Y70728D01*
X254473D01*
X254468D01*
X254441Y70733D01*
X254402Y70750D01*
X254359Y70783D01*
X254353D01*
X254348Y70793D01*
X254326Y70821D01*
X254310Y70859D01*
X254299Y70886D01*
Y70963D01*
X254315Y71012D01*
X254321Y71017D01*
X254337Y71034D01*
X254375Y71061D01*
X254424Y71088D01*
X257187Y72017D01*
X254430Y72950D01*
X254419Y72956D01*
X254397Y72967D01*
X254370Y72988D01*
X254337Y73016D01*
X254331Y73027D01*
X254315Y73049D01*
X254304Y73081D01*
X254299Y73119D01*
Y73130D01*
X254304Y73163D01*
X254321Y73207D01*
X254348Y73251D01*
X254359Y73261D01*
X254386Y73278D01*
X254424Y73294D01*
X254479Y73305D01*
X254544Y73294D01*
D02*
G37*
G36*
X256008Y69986D02*
X256057Y69969D01*
X256101Y69936D01*
X256106Y69925D01*
X256122Y69904D01*
X256139Y69860D01*
X256144Y69805D01*
Y69794D01*
X256139Y69762D01*
X256128Y69723D01*
X256101Y69680D01*
X256090Y69669D01*
X256062Y69652D01*
X256019Y69636D01*
X255959Y69625D01*
X255953D01*
X255948D01*
X255920Y69620D01*
X255882Y69603D01*
X255838Y69570D01*
X255833D01*
X255827Y69560D01*
X255806Y69532D01*
X255784Y69494D01*
X255773Y69467D01*
Y68883D01*
X257804D01*
X257809D01*
X257820D01*
X257853Y68877D01*
X257897Y68861D01*
X257941Y68828D01*
X257946Y68817D01*
X257962Y68795D01*
X257979Y68752D01*
X257984Y68697D01*
Y68686D01*
X257979Y68653D01*
X257968Y68615D01*
X257941Y68571D01*
X257930Y68560D01*
X257908Y68544D01*
X257864Y68528D01*
X257804Y68517D01*
X255593D01*
X255587D01*
X255565Y68522D01*
X255533Y68528D01*
X255500Y68539D01*
X255467Y68560D01*
X255434Y68593D01*
X255413Y68637D01*
X255407Y68697D01*
Y69472D01*
X255418Y69516D01*
X255429Y69570D01*
X255445Y69631D01*
X255478Y69696D01*
X255516Y69762D01*
X255571Y69827D01*
X255576Y69833D01*
X255598Y69854D01*
X255631Y69882D01*
X255680Y69909D01*
X255735Y69942D01*
X255800Y69964D01*
X255877Y69986D01*
X255959Y69991D01*
X255964D01*
X255975D01*
X256008Y69986D01*
D02*
G37*
G36*
X257842Y67774D02*
X257880Y67758D01*
X257924Y67730D01*
X257935Y67725D01*
X257951Y67698D01*
X257973Y67654D01*
X257979Y67627D01*
X257984Y67594D01*
Y66644D01*
X257979Y66622D01*
X257973Y66567D01*
X257957Y66496D01*
X257930Y66415D01*
X257897Y66327D01*
X257842Y66240D01*
X257771Y66153D01*
X257760Y66142D01*
X257733Y66120D01*
X257689Y66087D01*
X257624Y66049D01*
X257553Y66005D01*
X257460Y65972D01*
X257362Y65951D01*
X257253Y65940D01*
X256144D01*
X256139D01*
X256133D01*
X256117D01*
X256095Y65945D01*
X256040Y65951D01*
X255969Y65967D01*
X255888Y65989D01*
X255806Y66027D01*
X255713Y66076D01*
X255631Y66147D01*
X255620Y66158D01*
X255598Y66185D01*
X255560Y66229D01*
X255516Y66294D01*
X255478Y66371D01*
X255440Y66458D01*
X255418Y66562D01*
X255407Y66671D01*
Y67070D01*
X255413Y67092D01*
X255418Y67152D01*
X255434Y67223D01*
X255462Y67299D01*
X255500Y67387D01*
X255555Y67474D01*
X255626Y67561D01*
X255636Y67572D01*
X255664Y67594D01*
X255707Y67632D01*
X255767Y67670D01*
X255844Y67709D01*
X255931Y67747D01*
X256035Y67769D01*
X256144Y67780D01*
X256701D01*
X256707D01*
X256728D01*
X256756Y67769D01*
X256788Y67758D01*
X256827Y67736D01*
X256854Y67703D01*
X256876Y67654D01*
X256881Y67594D01*
Y66305D01*
X257253D01*
X257258D01*
X257280D01*
X257307Y66311D01*
X257340Y66316D01*
X257384Y66333D01*
X257427Y66349D01*
X257471Y66376D01*
X257515Y66409D01*
X257520Y66420D01*
X257542Y66442D01*
X257569Y66480D01*
X257596Y66524D01*
Y66529D01*
X257602Y66540D01*
X257607Y66573D01*
X257613Y66622D01*
X257618Y66671D01*
Y67605D01*
X257624Y67638D01*
X257646Y67681D01*
X257657Y67703D01*
X257678Y67725D01*
X257689Y67736D01*
X257717Y67752D01*
X257755Y67769D01*
X257804Y67780D01*
X257815D01*
X257842Y67774D01*
D02*
G37*
G36*
X257848Y65197D02*
X257886Y65181D01*
X257930Y65148D01*
X257941Y65137D01*
X257957Y65110D01*
X257973Y65071D01*
X257984Y65017D01*
Y65000D01*
X257979Y64984D01*
X257973Y64968D01*
X257951Y64919D01*
X257935Y64891D01*
X257913Y64869D01*
X256652Y63908D01*
X256788Y63728D01*
X257804D01*
X257809D01*
X257820D01*
X257853Y63723D01*
X257897Y63706D01*
X257941Y63674D01*
X257946Y63663D01*
X257962Y63641D01*
X257979Y63597D01*
X257984Y63543D01*
Y63532D01*
X257979Y63499D01*
X257968Y63461D01*
X257941Y63417D01*
X257930Y63406D01*
X257908Y63390D01*
X257864Y63373D01*
X257804Y63362D01*
X254484D01*
X254479D01*
X254473D01*
X254441Y63368D01*
X254397Y63384D01*
X254348Y63417D01*
X254342Y63428D01*
X254321Y63455D01*
X254304Y63494D01*
X254299Y63543D01*
Y63554D01*
X254304Y63586D01*
X254321Y63625D01*
X254348Y63668D01*
Y63674D01*
X254353Y63679D01*
X254381Y63701D01*
X254424Y63717D01*
X254452Y63728D01*
X254484D01*
X256330D01*
X255445Y64908D01*
X255440Y64919D01*
X255423Y64940D01*
X255413Y64979D01*
X255407Y65022D01*
Y65033D01*
X255413Y65066D01*
X255434Y65104D01*
X255445Y65126D01*
X255467Y65148D01*
X255478Y65159D01*
X255505Y65175D01*
X255544Y65192D01*
X255593Y65202D01*
X255598D01*
X255609D01*
X255626Y65197D01*
X255642Y65192D01*
X255691Y65170D01*
X255718Y65153D01*
X255740Y65126D01*
X256434Y64209D01*
X257689Y65164D01*
X257700Y65170D01*
X257722Y65186D01*
X257760Y65197D01*
X257804Y65202D01*
X257809D01*
X257815D01*
X257848Y65197D01*
D02*
G37*
G36*
X257842Y62620D02*
X257880Y62603D01*
X257924Y62576D01*
X257935Y62571D01*
X257951Y62543D01*
X257973Y62500D01*
X257979Y62472D01*
X257984Y62440D01*
Y61861D01*
X257979Y61839D01*
X257973Y61784D01*
X257957Y61714D01*
X257930Y61632D01*
X257897Y61544D01*
X257842Y61457D01*
X257771Y61370D01*
X257760Y61359D01*
X257733Y61337D01*
X257689Y61299D01*
X257624Y61260D01*
X257553Y61222D01*
X257460Y61184D01*
X257362Y61162D01*
X257253Y61151D01*
X256144D01*
X256139D01*
X256128D01*
X256117D01*
X256095Y61157D01*
X256035Y61162D01*
X255964Y61178D01*
X255882Y61206D01*
X255795Y61238D01*
X255707Y61293D01*
X255626Y61364D01*
X255614Y61375D01*
X255593Y61402D01*
X255555Y61452D01*
X255516Y61511D01*
X255478Y61588D01*
X255440Y61675D01*
X255418Y61779D01*
X255407Y61888D01*
Y62451D01*
X255413Y62483D01*
X255434Y62527D01*
X255445Y62549D01*
X255467Y62571D01*
X255478Y62582D01*
X255505Y62598D01*
X255544Y62615D01*
X255593Y62625D01*
X255604D01*
X255631Y62620D01*
X255669Y62603D01*
X255713Y62576D01*
X255724Y62571D01*
X255740Y62543D01*
X255762Y62500D01*
X255767Y62472D01*
X255773Y62440D01*
Y61856D01*
X255778Y61828D01*
X255784Y61796D01*
X255800Y61752D01*
X255817Y61708D01*
X255844Y61664D01*
X255882Y61621D01*
X255893Y61610D01*
X255915Y61588D01*
X255953Y61561D01*
X256002Y61539D01*
X256008D01*
X256013Y61533D01*
X256046Y61528D01*
X256090Y61523D01*
X256144Y61517D01*
X257253D01*
X257258D01*
X257280D01*
X257307Y61523D01*
X257340Y61528D01*
X257384Y61544D01*
X257427Y61561D01*
X257471Y61588D01*
X257515Y61621D01*
X257520Y61632D01*
X257542Y61659D01*
X257569Y61697D01*
X257596Y61741D01*
Y61746D01*
X257602Y61752D01*
X257607Y61790D01*
X257613Y61834D01*
X257618Y61883D01*
Y62451D01*
X257624Y62483D01*
X257646Y62527D01*
X257657Y62549D01*
X257678Y62571D01*
X257689Y62582D01*
X257717Y62598D01*
X257755Y62615D01*
X257804Y62625D01*
X257815D01*
X257842Y62620D01*
D02*
G37*
G36*
X257848Y60780D02*
X257886Y60764D01*
X257930Y60731D01*
X257941Y60720D01*
X257957Y60698D01*
X257973Y60654D01*
X257984Y60600D01*
Y60578D01*
X257979Y60551D01*
X257968Y60523D01*
X257962Y60518D01*
X257951Y60496D01*
X257935Y60458D01*
X257913Y60419D01*
X257880Y60370D01*
X257842Y60321D01*
X257799Y60272D01*
X257744Y60228D01*
X257749Y60223D01*
X257760Y60212D01*
X257782Y60190D01*
X257804Y60163D01*
X257831Y60130D01*
X257859Y60087D01*
X257891Y60037D01*
X257919Y59983D01*
Y59977D01*
X257930Y59955D01*
X257941Y59928D01*
X257951Y59890D01*
X257962Y59841D01*
X257973Y59792D01*
X257979Y59732D01*
X257984Y59677D01*
Y59278D01*
X257979Y59257D01*
X257973Y59202D01*
X257957Y59131D01*
X257930Y59049D01*
X257897Y58967D01*
X257842Y58880D01*
X257771Y58793D01*
X257760Y58781D01*
X257733Y58760D01*
X257689Y58722D01*
X257624Y58683D01*
X257553Y58645D01*
X257460Y58607D01*
X257362Y58585D01*
X257253Y58574D01*
X256144D01*
X256139D01*
X256128D01*
X256117D01*
X256095Y58579D01*
X256035Y58585D01*
X255964Y58601D01*
X255882Y58629D01*
X255795Y58661D01*
X255707Y58716D01*
X255626Y58787D01*
X255614Y58798D01*
X255593Y58825D01*
X255555Y58869D01*
X255516Y58934D01*
X255478Y59005D01*
X255440Y59098D01*
X255418Y59197D01*
X255407Y59306D01*
Y60256D01*
X255418Y60289D01*
X255429Y60321D01*
X255451Y60354D01*
X255484Y60387D01*
X255533Y60409D01*
X255593Y60414D01*
X257247D01*
X257253D01*
X257263D01*
X257285Y60419D01*
X257318Y60425D01*
X257389Y60447D01*
X257427Y60463D01*
X257471Y60485D01*
X257476Y60491D01*
X257487Y60496D01*
X257509Y60512D01*
X257531Y60529D01*
X257558Y60556D01*
X257586Y60589D01*
X257613Y60627D01*
X257635Y60671D01*
Y60676D01*
X257646Y60687D01*
X257657Y60709D01*
X257673Y60731D01*
X257695Y60747D01*
X257722Y60769D01*
X257755Y60780D01*
X257799Y60785D01*
X257804D01*
X257809D01*
X257848Y60780D01*
D02*
G37*
G36*
X256008Y57832D02*
X256057Y57815D01*
X256101Y57782D01*
X256106Y57771D01*
X256122Y57750D01*
X256139Y57706D01*
X256144Y57651D01*
Y57640D01*
X256139Y57608D01*
X256128Y57569D01*
X256101Y57526D01*
X256090Y57515D01*
X256062Y57498D01*
X256019Y57482D01*
X255959Y57471D01*
X255953D01*
X255948D01*
X255920Y57466D01*
X255882Y57449D01*
X255838Y57416D01*
X255833D01*
X255827Y57406D01*
X255806Y57378D01*
X255784Y57340D01*
X255773Y57313D01*
Y56729D01*
X257804D01*
X257809D01*
X257820D01*
X257853Y56723D01*
X257897Y56707D01*
X257941Y56674D01*
X257946Y56663D01*
X257962Y56641D01*
X257979Y56598D01*
X257984Y56543D01*
Y56532D01*
X257979Y56499D01*
X257968Y56461D01*
X257941Y56417D01*
X257930Y56406D01*
X257908Y56390D01*
X257864Y56374D01*
X257804Y56363D01*
X255593D01*
X255587D01*
X255565Y56368D01*
X255533Y56374D01*
X255500Y56385D01*
X255467Y56406D01*
X255434Y56439D01*
X255413Y56483D01*
X255407Y56543D01*
Y57318D01*
X255418Y57362D01*
X255429Y57416D01*
X255445Y57477D01*
X255478Y57542D01*
X255516Y57608D01*
X255571Y57673D01*
X255576Y57679D01*
X255598Y57701D01*
X255631Y57728D01*
X255680Y57755D01*
X255735Y57788D01*
X255800Y57810D01*
X255877Y57832D01*
X255959Y57837D01*
X255964D01*
X255975D01*
X256008Y57832D01*
D02*
G37*
G36*
X254522Y55620D02*
X254561Y55604D01*
X254604Y55576D01*
X254615Y55571D01*
X254632Y55544D01*
X254654Y55500D01*
X254659Y55473D01*
X254664Y55440D01*
Y54703D01*
X257804D01*
X257809D01*
X257820D01*
X257853Y54698D01*
X257897Y54681D01*
X257941Y54648D01*
X257946Y54637D01*
X257962Y54616D01*
X257979Y54572D01*
X257984Y54517D01*
Y54506D01*
X257979Y54474D01*
X257968Y54435D01*
X257941Y54392D01*
X257930Y54381D01*
X257908Y54364D01*
X257864Y54348D01*
X257804Y54337D01*
X254664D01*
Y53584D01*
X254659Y53545D01*
X254643Y53502D01*
X254615Y53458D01*
X254610D01*
X254604Y53453D01*
X254577Y53436D01*
X254534Y53420D01*
X254484Y53414D01*
X254479D01*
X254473D01*
X254446Y53420D01*
X254408Y53431D01*
X254364Y53458D01*
X254359D01*
X254353Y53469D01*
X254331Y53491D01*
X254310Y53535D01*
X254299Y53562D01*
Y55451D01*
X254304Y55484D01*
X254326Y55527D01*
X254337Y55549D01*
X254359Y55571D01*
X254370Y55582D01*
X254397Y55598D01*
X254435Y55615D01*
X254484Y55626D01*
X254495D01*
X254522Y55620D01*
D02*
G37*
G36*
X255653Y52634D02*
X258694Y51678D01*
X258699D01*
X258721Y51667D01*
X258754Y51656D01*
X258792Y51640D01*
X258836Y51613D01*
X258880Y51580D01*
X258929Y51542D01*
X258972Y51492D01*
X258978Y51487D01*
X258989Y51465D01*
X259011Y51438D01*
X259027Y51400D01*
X259049Y51350D01*
X259071Y51296D01*
X259082Y51236D01*
X259087Y51170D01*
Y50974D01*
X259082Y50941D01*
X259060Y50897D01*
X259049Y50876D01*
X259027Y50848D01*
X259016Y50843D01*
X258989Y50826D01*
X258951Y50805D01*
X258902Y50799D01*
X258896D01*
X258891D01*
X258858Y50805D01*
X258820Y50815D01*
X258776Y50843D01*
X258765Y50854D01*
X258749Y50881D01*
X258732Y50925D01*
X258721Y50985D01*
Y51176D01*
X258716Y51198D01*
X258705Y51230D01*
X258683Y51263D01*
X258678Y51269D01*
X258661Y51285D01*
X258629Y51307D01*
X258590Y51323D01*
X257968Y51520D01*
X255653Y50810D01*
X255587Y50799D01*
X255582D01*
X255576D01*
X255544Y50805D01*
X255505Y50821D01*
X255462Y50854D01*
Y50859D01*
X255451Y50864D01*
X255434Y50892D01*
X255418Y50936D01*
X255407Y50985D01*
Y51007D01*
X255413Y51028D01*
X255423Y51056D01*
X255440Y51083D01*
X255467Y51110D01*
X255500Y51138D01*
X255544Y51159D01*
X257340Y51711D01*
X255544Y52284D01*
X255538D01*
X255522Y52295D01*
X255500Y52306D01*
X255473Y52322D01*
X255451Y52344D01*
X255429Y52372D01*
X255413Y52410D01*
X255407Y52453D01*
Y52470D01*
X255413Y52503D01*
X255429Y52546D01*
X255456Y52590D01*
X255467Y52601D01*
X255489Y52617D01*
X255533Y52634D01*
X255587Y52644D01*
X255653Y52634D01*
D02*
G37*
G36*
X258399Y50095D02*
X258454Y50089D01*
X258525Y50073D01*
X258607Y50046D01*
X258694Y50007D01*
X258781Y49953D01*
X258869Y49882D01*
X258880Y49871D01*
X258902Y49843D01*
X258940Y49800D01*
X258978Y49740D01*
X259016Y49663D01*
X259054Y49576D01*
X259076Y49472D01*
X259087Y49363D01*
Y48615D01*
X259082Y48582D01*
X259060Y48539D01*
X259049Y48517D01*
X259027Y48489D01*
X259016Y48484D01*
X258989Y48468D01*
X258951Y48446D01*
X258902Y48440D01*
X258896D01*
X258891D01*
X258858Y48446D01*
X258820Y48457D01*
X258776Y48484D01*
X258765Y48495D01*
X258749Y48522D01*
X258732Y48566D01*
X258721Y48626D01*
Y49390D01*
X258716Y49418D01*
X258705Y49456D01*
X258694Y49494D01*
X258678Y49538D01*
X258650Y49581D01*
X258612Y49625D01*
X258607Y49631D01*
X258596Y49641D01*
X258568Y49658D01*
X258541Y49680D01*
X258503Y49702D01*
X258459Y49718D01*
X258405Y49729D01*
X258350Y49734D01*
X257984D01*
Y48970D01*
X257979Y48948D01*
X257973Y48893D01*
X257957Y48823D01*
X257930Y48741D01*
X257897Y48653D01*
X257842Y48566D01*
X257771Y48478D01*
X257760Y48468D01*
X257733Y48446D01*
X257689Y48408D01*
X257624Y48369D01*
X257553Y48331D01*
X257460Y48293D01*
X257362Y48271D01*
X257253Y48260D01*
X256144D01*
X256139D01*
X256128D01*
X256117D01*
X256095Y48266D01*
X256035Y48271D01*
X255964Y48287D01*
X255882Y48315D01*
X255795Y48347D01*
X255707Y48402D01*
X255626Y48473D01*
X255614Y48484D01*
X255593Y48511D01*
X255555Y48555D01*
X255516Y48621D01*
X255478Y48691D01*
X255440Y48784D01*
X255418Y48883D01*
X255407Y48992D01*
Y49942D01*
X255418Y49975D01*
X255429Y50007D01*
X255451Y50040D01*
X255484Y50073D01*
X255533Y50095D01*
X255593Y50100D01*
X258350D01*
X258355D01*
X258361D01*
X258377D01*
X258399Y50095D01*
D02*
G37*
G36*
Y47518D02*
X258454Y47512D01*
X258525Y47496D01*
X258607Y47468D01*
X258694Y47430D01*
X258781Y47376D01*
X258869Y47305D01*
X258880Y47294D01*
X258902Y47266D01*
X258940Y47223D01*
X258978Y47163D01*
X259016Y47086D01*
X259054Y46999D01*
X259076Y46895D01*
X259087Y46786D01*
Y46038D01*
X259082Y46005D01*
X259060Y45961D01*
X259049Y45940D01*
X259027Y45912D01*
X259016Y45907D01*
X258989Y45891D01*
X258951Y45869D01*
X258902Y45863D01*
X258896D01*
X258891D01*
X258858Y45869D01*
X258820Y45880D01*
X258776Y45907D01*
X258765Y45918D01*
X258749Y45945D01*
X258732Y45989D01*
X258721Y46049D01*
Y46813D01*
X258716Y46841D01*
X258705Y46879D01*
X258694Y46917D01*
X258678Y46961D01*
X258650Y47004D01*
X258612Y47048D01*
X258607Y47054D01*
X258596Y47064D01*
X258568Y47081D01*
X258541Y47103D01*
X258503Y47124D01*
X258459Y47141D01*
X258405Y47152D01*
X258350Y47157D01*
X257984D01*
Y46393D01*
X257979Y46371D01*
X257973Y46316D01*
X257957Y46245D01*
X257930Y46163D01*
X257897Y46076D01*
X257842Y45989D01*
X257771Y45901D01*
X257760Y45891D01*
X257733Y45869D01*
X257689Y45830D01*
X257624Y45792D01*
X257553Y45754D01*
X257460Y45716D01*
X257362Y45694D01*
X257253Y45683D01*
X256144D01*
X256139D01*
X256128D01*
X256117D01*
X256095Y45689D01*
X256035Y45694D01*
X255964Y45710D01*
X255882Y45738D01*
X255795Y45770D01*
X255707Y45825D01*
X255626Y45896D01*
X255614Y45907D01*
X255593Y45934D01*
X255555Y45978D01*
X255516Y46043D01*
X255478Y46114D01*
X255440Y46207D01*
X255418Y46305D01*
X255407Y46415D01*
Y47365D01*
X255418Y47397D01*
X255429Y47430D01*
X255451Y47463D01*
X255484Y47496D01*
X255533Y47518D01*
X255593Y47523D01*
X258350D01*
X258355D01*
X258361D01*
X258377D01*
X258399Y47518D01*
D02*
G37*
G36*
X257842Y44940D02*
X257880Y44924D01*
X257924Y44897D01*
X257935Y44891D01*
X257951Y44864D01*
X257973Y44820D01*
X257979Y44793D01*
X257984Y44760D01*
Y43810D01*
X257979Y43788D01*
X257973Y43734D01*
X257957Y43663D01*
X257930Y43581D01*
X257897Y43494D01*
X257842Y43406D01*
X257771Y43319D01*
X257760Y43308D01*
X257733Y43286D01*
X257689Y43253D01*
X257624Y43215D01*
X257553Y43171D01*
X257460Y43139D01*
X257362Y43117D01*
X257253Y43106D01*
X256144D01*
X256139D01*
X256133D01*
X256117D01*
X256095Y43111D01*
X256040Y43117D01*
X255969Y43133D01*
X255888Y43155D01*
X255806Y43193D01*
X255713Y43242D01*
X255631Y43313D01*
X255620Y43324D01*
X255598Y43352D01*
X255560Y43395D01*
X255516Y43461D01*
X255478Y43537D01*
X255440Y43625D01*
X255418Y43728D01*
X255407Y43837D01*
Y44236D01*
X255413Y44258D01*
X255418Y44318D01*
X255434Y44389D01*
X255462Y44465D01*
X255500Y44553D01*
X255555Y44640D01*
X255626Y44728D01*
X255636Y44738D01*
X255664Y44760D01*
X255707Y44798D01*
X255767Y44837D01*
X255844Y44875D01*
X255931Y44913D01*
X256035Y44935D01*
X256144Y44946D01*
X256701D01*
X256707D01*
X256728D01*
X256756Y44935D01*
X256788Y44924D01*
X256827Y44902D01*
X256854Y44870D01*
X256876Y44820D01*
X256881Y44760D01*
Y43472D01*
X257253D01*
X257258D01*
X257280D01*
X257307Y43477D01*
X257340Y43483D01*
X257384Y43499D01*
X257427Y43515D01*
X257471Y43543D01*
X257515Y43575D01*
X257520Y43586D01*
X257542Y43608D01*
X257569Y43646D01*
X257596Y43690D01*
Y43696D01*
X257602Y43707D01*
X257607Y43739D01*
X257613Y43788D01*
X257618Y43837D01*
Y44771D01*
X257624Y44804D01*
X257646Y44848D01*
X257657Y44870D01*
X257678Y44891D01*
X257689Y44902D01*
X257717Y44919D01*
X257755Y44935D01*
X257804Y44946D01*
X257815D01*
X257842Y44940D01*
D02*
G37*
G36*
X255822Y42363D02*
X255882Y42358D01*
X255953Y42342D01*
X256035Y42314D01*
X256122Y42276D01*
X256210Y42221D01*
X256297Y42150D01*
X256308Y42140D01*
X256330Y42112D01*
X256363Y42063D01*
X256401Y42003D01*
X256445Y41927D01*
X256477Y41839D01*
X256499Y41735D01*
X256510Y41626D01*
Y40523D01*
X257804D01*
X257809D01*
X257820D01*
X257853Y40518D01*
X257897Y40501D01*
X257941Y40469D01*
X257946Y40458D01*
X257962Y40436D01*
X257979Y40392D01*
X257984Y40338D01*
Y40327D01*
X257979Y40294D01*
X257968Y40256D01*
X257941Y40212D01*
X257930Y40201D01*
X257908Y40185D01*
X257864Y40168D01*
X257804Y40157D01*
X254484D01*
X254479D01*
X254457Y40163D01*
X254424Y40168D01*
X254392Y40179D01*
X254359Y40201D01*
X254326Y40234D01*
X254304Y40278D01*
X254299Y40338D01*
Y41659D01*
X254304Y41681D01*
X254310Y41741D01*
X254326Y41812D01*
X254353Y41894D01*
X254392Y41981D01*
X254446Y42068D01*
X254517Y42150D01*
X254528Y42161D01*
X254555Y42183D01*
X254604Y42221D01*
X254664Y42260D01*
X254741Y42298D01*
X254828Y42336D01*
X254927Y42358D01*
X255036Y42369D01*
X255773D01*
X255778D01*
X255784D01*
X255800D01*
X255822Y42363D01*
D02*
G37*
%LPC*%
G36*
X256515Y67414D02*
X256144D01*
X256139D01*
X256117D01*
X256090Y67408D01*
X256051Y67403D01*
X256013Y67387D01*
X255969Y67370D01*
X255926Y67343D01*
X255882Y67305D01*
X255877Y67299D01*
X255866Y67288D01*
X255849Y67261D01*
X255827Y67234D01*
X255806Y67195D01*
X255789Y67152D01*
X255778Y67097D01*
X255773Y67042D01*
Y66644D01*
X255778Y66617D01*
X255784Y66584D01*
X255800Y66540D01*
X255817Y66496D01*
X255844Y66453D01*
X255882Y66409D01*
X255893Y66398D01*
X255915Y66376D01*
X255953Y66349D01*
X256002Y66327D01*
X256008D01*
X256013Y66322D01*
X256046Y66316D01*
X256090Y66311D01*
X256144Y66305D01*
X256515D01*
Y67414D01*
D02*
G37*
G36*
X257253Y60048D02*
X255773D01*
Y59278D01*
X255778Y59251D01*
X255784Y59218D01*
X255800Y59175D01*
X255817Y59131D01*
X255844Y59087D01*
X255882Y59044D01*
X255893Y59033D01*
X255915Y59011D01*
X255953Y58984D01*
X256002Y58962D01*
X256008D01*
X256013Y58956D01*
X256046Y58951D01*
X256090Y58945D01*
X256144Y58940D01*
X257253D01*
X257258D01*
X257280D01*
X257307Y58945D01*
X257340Y58951D01*
X257384Y58967D01*
X257427Y58984D01*
X257471Y59011D01*
X257515Y59044D01*
X257520Y59054D01*
X257542Y59082D01*
X257569Y59120D01*
X257596Y59164D01*
Y59169D01*
X257602Y59175D01*
X257607Y59213D01*
X257613Y59257D01*
X257618Y59306D01*
Y59704D01*
X257613Y59732D01*
X257607Y59770D01*
X257596Y59808D01*
X257575Y59852D01*
X257553Y59895D01*
X257520Y59939D01*
X257515Y59944D01*
X257504Y59955D01*
X257476Y59972D01*
X257449Y59994D01*
X257411Y60015D01*
X257362Y60032D01*
X257313Y60043D01*
X257253Y60048D01*
D02*
G37*
G36*
X257618Y49734D02*
X255773D01*
Y48965D01*
X255778Y48937D01*
X255784Y48904D01*
X255800Y48861D01*
X255817Y48817D01*
X255844Y48773D01*
X255882Y48730D01*
X255893Y48719D01*
X255915Y48697D01*
X255953Y48670D01*
X256002Y48648D01*
X256008D01*
X256013Y48642D01*
X256046Y48637D01*
X256090Y48631D01*
X256144Y48626D01*
X257253D01*
X257258D01*
X257280D01*
X257307Y48631D01*
X257340Y48637D01*
X257384Y48653D01*
X257427Y48670D01*
X257471Y48697D01*
X257515Y48730D01*
X257520Y48741D01*
X257542Y48768D01*
X257569Y48806D01*
X257596Y48850D01*
Y48855D01*
X257602Y48861D01*
X257607Y48899D01*
X257613Y48943D01*
X257618Y48992D01*
Y49734D01*
D02*
G37*
G36*
Y47157D02*
X255773D01*
Y46387D01*
X255778Y46360D01*
X255784Y46327D01*
X255800Y46284D01*
X255817Y46240D01*
X255844Y46196D01*
X255882Y46153D01*
X255893Y46142D01*
X255915Y46120D01*
X255953Y46093D01*
X256002Y46071D01*
X256008D01*
X256013Y46065D01*
X256046Y46060D01*
X256090Y46054D01*
X256144Y46049D01*
X257253D01*
X257258D01*
X257280D01*
X257307Y46054D01*
X257340Y46060D01*
X257384Y46076D01*
X257427Y46093D01*
X257471Y46120D01*
X257515Y46153D01*
X257520Y46163D01*
X257542Y46191D01*
X257569Y46229D01*
X257596Y46273D01*
Y46278D01*
X257602Y46284D01*
X257607Y46322D01*
X257613Y46365D01*
X257618Y46415D01*
Y47157D01*
D02*
G37*
G36*
X256515Y44580D02*
X256144D01*
X256139D01*
X256117D01*
X256090Y44575D01*
X256051Y44569D01*
X256013Y44553D01*
X255969Y44536D01*
X255926Y44509D01*
X255882Y44471D01*
X255877Y44465D01*
X255866Y44455D01*
X255849Y44427D01*
X255827Y44400D01*
X255806Y44362D01*
X255789Y44318D01*
X255778Y44263D01*
X255773Y44209D01*
Y43810D01*
X255778Y43783D01*
X255784Y43750D01*
X255800Y43707D01*
X255817Y43663D01*
X255844Y43619D01*
X255882Y43575D01*
X255893Y43565D01*
X255915Y43543D01*
X255953Y43515D01*
X256002Y43494D01*
X256008D01*
X256013Y43488D01*
X256046Y43483D01*
X256090Y43477D01*
X256144Y43472D01*
X256515D01*
Y44580D01*
D02*
G37*
G36*
X255778Y42003D02*
X255036D01*
X255030D01*
X255009D01*
X254981Y41998D01*
X254943Y41992D01*
X254905Y41976D01*
X254861Y41959D01*
X254817Y41932D01*
X254774Y41894D01*
X254768Y41888D01*
X254757Y41877D01*
X254741Y41850D01*
X254719Y41823D01*
X254697Y41785D01*
X254681Y41741D01*
X254670Y41686D01*
X254664Y41632D01*
Y40523D01*
X256144D01*
Y41659D01*
X256139Y41686D01*
X256133Y41725D01*
X256122Y41763D01*
X256101Y41806D01*
X256079Y41850D01*
X256046Y41894D01*
X256040Y41899D01*
X256030Y41910D01*
X256002Y41927D01*
X255975Y41948D01*
X255937Y41970D01*
X255888Y41987D01*
X255838Y41998D01*
X255778Y42003D01*
D02*
G37*
%LPD*%
D10*
X240630Y225590D02*
G03*
X240630Y225590I-787J0D01*
G01*
D11*
X5118Y288189D02*
G03*
X5118Y287795I0J-197D01*
G01*
D02*
G03*
X5118Y288189I0J197D01*
G01*
D02*
G03*
X5118Y287795I0J-197D01*
G01*
X199149Y267520D02*
G03*
X199149Y267520I-1148J0D01*
G01*
X269213Y232677D02*
Y239370D01*
X248110D02*
X269213D01*
X248110Y232677D02*
Y239370D01*
X243189Y205906D02*
Y232677D01*
Y205906D02*
X274134D01*
Y232677D01*
X269213D02*
X274134D01*
X248110D02*
X269213D01*
X243189D02*
X248110D01*
X231496Y354724D02*
Y372441D01*
Y354724D02*
X271654D01*
Y372441D01*
X1772Y354724D02*
Y372441D01*
Y354724D02*
X41929D01*
Y372441D01*
X45079Y370472D02*
X63976D01*
Y354724D02*
Y370472D01*
X45079Y354724D02*
X63976D01*
X45079D02*
Y370472D01*
X47835Y306693D02*
Y310630D01*
X45866Y308661D02*
X49803D01*
X59449Y349661D02*
X169685D01*
X59449Y267661D02*
X169685D01*
X59449Y317244D02*
Y349661D01*
X169685Y317244D02*
Y349661D01*
Y267661D02*
Y300079D01*
X59449Y267661D02*
Y300079D01*
X26771Y339370D02*
X37795D01*
X26771Y344882D02*
X37795D01*
Y339370D02*
Y344882D01*
X26771Y339370D02*
Y344882D01*
X19587Y347638D02*
X25099D01*
X19587Y336614D02*
X25099D01*
Y347638D01*
X19587Y336614D02*
Y347638D01*
X12500D02*
X18012D01*
X12500Y336614D02*
X18012D01*
Y347638D01*
X12500Y336614D02*
Y347638D01*
X1181Y6693D02*
Y258661D01*
Y6693D02*
X94291D01*
Y1693D02*
Y6693D01*
Y1693D02*
X144291D01*
Y6693D01*
X237402D01*
Y258661D01*
X144291D02*
X237402D01*
X144291D02*
Y263661D01*
X94291D02*
X144291D01*
X94291Y258661D02*
Y263661D01*
X1181Y258661D02*
X94291D01*
X31693Y286319D02*
X32087D01*
X31693Y282972D02*
X32087D01*
X255315Y242598D02*
Y247165D01*
X249016D02*
X255315D01*
X249016Y242598D02*
Y247165D01*
Y242598D02*
X255315D01*
X197244Y272047D02*
Y335039D01*
X260236Y272047D02*
Y335039D01*
X198425Y351772D02*
Y361614D01*
X207283Y342913D02*
X217126D01*
X225984Y351772D02*
Y361614D01*
X207283Y370472D02*
X217126D01*
X249055Y99783D02*
Y104783D01*
Y109783D02*
Y114784D01*
Y119783D02*
Y124784D01*
Y129783D02*
Y134783D01*
Y139784D02*
Y144783D01*
Y149784D02*
Y154783D01*
X251555Y97284D02*
X256555D01*
X251555Y107283D02*
X256555D01*
X251555Y117283D02*
X256555D01*
X251555Y127284D02*
X256555D01*
X251555Y137284D02*
X256555D01*
X251555Y147283D02*
X256555D01*
Y107283D02*
X259055Y104783D01*
Y99783D02*
Y104783D01*
X256555Y97284D02*
X259055Y99783D01*
X249055D02*
X251555Y97284D01*
X269055Y99783D02*
Y104783D01*
X249055D02*
X251555Y107283D01*
X249055Y114784D02*
X251555Y117283D01*
X269055Y109783D02*
Y114784D01*
X249055Y109783D02*
X251555Y107283D01*
X256555D02*
X259055Y109783D01*
Y114784D01*
X256555Y117283D02*
X259055Y114784D01*
X256555Y127284D02*
X259055Y124784D01*
Y119783D02*
Y124784D01*
X256555Y117283D02*
X259055Y119783D01*
X249055D02*
X251555Y117283D01*
X269055Y119783D02*
Y124784D01*
X249055D02*
X251555Y127284D01*
X249055Y134783D02*
X251555Y137284D01*
X269055Y129783D02*
Y134783D01*
X249055Y129783D02*
X251555Y127284D01*
X256555D02*
X259055Y129783D01*
Y134783D01*
X256555Y137284D02*
X259055Y134783D01*
X256555Y147283D02*
X259055Y144783D01*
Y139784D02*
Y144783D01*
X256555Y137284D02*
X259055Y139784D01*
X249055D02*
X251555Y137284D01*
X269055Y139784D02*
Y144783D01*
X249055D02*
X251555Y147283D01*
X269055Y149784D02*
Y154783D01*
X249055Y149784D02*
X251555Y147283D01*
X256555D02*
X259055Y149784D01*
Y154783D01*
X269055Y159783D02*
Y164784D01*
X266555Y157283D02*
X269055Y159783D01*
X261555Y167283D02*
X266555D01*
X269055Y164784D01*
X266555Y157283D02*
X269055Y154783D01*
Y149784D02*
Y154783D01*
X266555Y147283D02*
X269055Y149784D01*
X259055D02*
X261555Y147283D01*
X259055Y144783D02*
X261555Y147283D01*
X259055Y139784D02*
X261555Y137284D01*
X266555D02*
X269055Y139784D01*
Y144783D01*
X266555Y147283D02*
X269055Y144783D01*
X266555Y137284D02*
X269055Y134783D01*
Y129783D02*
Y134783D01*
X266555Y127284D02*
X269055Y129783D01*
X259055D02*
X261555Y127284D01*
X259055Y134783D02*
X261555Y137284D01*
X259055Y124784D02*
X261555Y127284D01*
X259055Y119783D02*
X261555Y117283D01*
X266555D02*
X269055Y119783D01*
Y124784D01*
X266555Y127284D02*
X269055Y124784D01*
X266555Y117283D02*
X269055Y114784D01*
Y109783D02*
Y114784D01*
X266555Y107283D02*
X269055Y109783D01*
X259055D02*
X261555Y107283D01*
X259055Y114784D02*
X261555Y117283D01*
X259055Y104783D02*
X261555Y107283D01*
X259055Y99783D02*
X261555Y97284D01*
X266555D02*
X269055Y99783D01*
Y104783D01*
X266555Y107283D02*
X269055Y104783D01*
X261555Y157283D02*
X266555D01*
X261555Y147283D02*
X266555D01*
X261555Y137284D02*
X266555D01*
X261555Y127284D02*
X266555D01*
X261555Y117283D02*
X266555D01*
X261555Y107283D02*
X266555D01*
X269055Y159783D02*
Y164784D01*
X261555Y97284D02*
X266555D01*
X249055Y154783D02*
X251555Y157283D01*
X256555D02*
X259055Y154783D01*
X249055Y167283D02*
X259055D01*
X249055Y157283D02*
X256555D01*
X259055Y159783D02*
Y167283D01*
Y159783D02*
X261555Y157283D01*
X259055Y164784D02*
X261555Y167283D01*
X259055Y154783D02*
X261555Y157283D01*
X249055D02*
Y167283D01*
X271359Y97874D02*
Y99842D01*
Y98858D01*
X274311D01*
Y100826D02*
X271359D01*
X272343Y101810D01*
X271359Y102794D01*
X274311D01*
X271851Y105745D02*
X271359Y105254D01*
Y104270D01*
X271851Y103778D01*
X272343D01*
X272835Y104270D01*
Y105254D01*
X273327Y105745D01*
X273819D01*
X274311Y105254D01*
Y104270D01*
X273819Y103778D01*
X271851Y109842D02*
X271359Y109350D01*
Y108366D01*
X271851Y107874D01*
X273819D01*
X274311Y108366D01*
Y109350D01*
X273819Y109842D01*
X272835D01*
Y108858D01*
X274311Y110826D02*
X271359D01*
X274311Y112794D01*
X271359D01*
Y113778D02*
X274311D01*
Y115253D01*
X273819Y115745D01*
X271851D01*
X271359Y115253D01*
Y113778D01*
X271851Y119842D02*
X271359Y119350D01*
Y118366D01*
X271851Y117874D01*
X273819D01*
X274311Y118366D01*
Y119350D01*
X273819Y119842D01*
X272835D01*
Y118858D01*
X274311Y120826D02*
X271359D01*
X274311Y122794D01*
X271359D01*
Y123778D02*
X274311D01*
Y125253D01*
X273819Y125745D01*
X271851D01*
X271359Y125253D01*
Y123778D01*
X271851Y129842D02*
X271359Y129350D01*
Y128366D01*
X271851Y127874D01*
X273819D01*
X274311Y128366D01*
Y129350D01*
X273819Y129842D01*
X272835D01*
Y128858D01*
X274311Y130826D02*
X271359D01*
X274311Y132794D01*
X271359D01*
Y133778D02*
X274311D01*
Y135254D01*
X273819Y135746D01*
X271851D01*
X271359Y135254D01*
Y133778D01*
Y137874D02*
Y139842D01*
Y138858D01*
X274311D01*
X271359Y140826D02*
X274311D01*
Y142302D01*
X273819Y142794D01*
X271851D01*
X271359Y142302D01*
Y140826D01*
Y145254D02*
Y144270D01*
X271851Y143778D01*
X273819D01*
X274311Y144270D01*
Y145254D01*
X273819Y145746D01*
X271851D01*
X271359Y145254D01*
Y147874D02*
Y149842D01*
Y148858D01*
X274311D01*
X271359Y150826D02*
X274311D01*
Y152302D01*
X273819Y152794D01*
X271851D01*
X271359Y152302D01*
Y150826D01*
Y153778D02*
Y154762D01*
Y154270D01*
X274311D01*
Y153778D01*
Y154762D01*
X271851Y157874D02*
X271359Y158366D01*
Y159350D01*
X271851Y159842D01*
X272343D01*
X272835Y159350D01*
Y158858D01*
Y159350D01*
X273327Y159842D01*
X273819D01*
X274311Y159350D01*
Y158366D01*
X273819Y157874D01*
X271359Y160826D02*
X273327D01*
X274311Y161810D01*
X273327Y162794D01*
X271359D01*
X271851Y163778D02*
X271359Y164270D01*
Y165253D01*
X271851Y165745D01*
X272343D01*
X272835Y165253D01*
Y164762D01*
Y165253D01*
X273327Y165745D01*
X273819D01*
X274311Y165253D01*
Y164270D01*
X273819Y163778D01*
X245250Y98726D02*
X243859Y100117D01*
X244554Y99422D01*
X246641Y101509D01*
X242119Y102552D02*
Y101857D01*
X242815Y101161D01*
X243511D01*
X244902Y102552D01*
Y103248D01*
X244206Y103944D01*
X243511D01*
X241075Y102900D02*
X243163Y104988D01*
X242467Y104292D01*
X239684D01*
X241771Y104292D01*
Y106379D01*
X244206Y110465D02*
Y109769D01*
X244902Y109074D01*
X245598D01*
X246989Y110465D01*
Y111161D01*
X246294Y111857D01*
X245598D01*
X244902Y111161D01*
X245598Y110465D01*
X245250Y112900D02*
X243163Y110813D01*
X243859Y114292D01*
X241771Y112205D01*
X241075Y112900D02*
X243163Y114988D01*
X242119Y116031D01*
X241423D01*
X240032Y114640D01*
Y113944D01*
X241075Y112900D01*
X247731Y120892D02*
X245644Y118805D01*
Y120196D01*
X244252Y120196D01*
X246339Y122283D01*
X243556Y120892D02*
X242861Y121588D01*
X243209Y121240D01*
X245296Y123327D01*
X245644Y122979D01*
X244948Y123675D01*
X240774Y124371D02*
Y123675D01*
X241469Y122979D01*
X242165D01*
X242513Y123327D01*
Y124023D01*
X241817Y124718D01*
X241817Y125414D01*
X242165Y125762D01*
X242861D01*
X243556Y125066D01*
Y124371D01*
X238686Y125762D02*
X239382Y125066D01*
X240078D01*
X241469Y126458D01*
Y127154D01*
X240774Y127849D01*
X240078D01*
X238686Y126458D01*
Y125762D01*
X244206Y130465D02*
Y129769D01*
X244902Y129074D01*
X245598D01*
X245946Y129421D01*
Y130117D01*
X245250Y130813D01*
Y131509D01*
X245598Y131857D01*
X246294D01*
X246989Y131161D01*
Y130465D01*
X242119Y132552D02*
Y131857D01*
X242815Y131161D01*
X243511D01*
X244902Y132552D01*
Y133248D01*
X244206Y133944D01*
X243511D01*
X241075Y132900D02*
X243163Y134987D01*
X242467Y134292D01*
X239684D01*
X241771Y134292D01*
Y136379D01*
X247337Y140813D02*
X245250Y138726D01*
X244206Y139769D01*
Y140465D01*
X244902Y141161D01*
X245598Y141161D01*
X246641Y140117D01*
X245946Y140813D02*
X245946Y142204D01*
X242119Y142552D02*
Y141857D01*
X242815Y141161D01*
X243511D01*
X243859Y141509D01*
Y142204D01*
X243163Y142900D01*
X243163Y143596D01*
X243511Y143944D01*
X244206D01*
X244902Y143248D01*
Y142552D01*
X241075Y142900D02*
X239684Y144292D01*
X240380Y143596D01*
X242467Y145683D01*
X247731Y160655D02*
X245644Y158568D01*
Y159960D01*
X244252Y159960D01*
X246339Y162047D01*
X242513Y161699D02*
X243209Y161003D01*
X243904D01*
X245296Y162395D01*
Y163091D01*
X244600Y163786D01*
X243904D01*
X242513Y162395D01*
Y161699D01*
X240426Y164482D02*
Y163786D01*
X241121Y163091D01*
X241817D01*
X242165Y163438D01*
Y164134D01*
X241469Y164830D01*
Y165526D01*
X241817Y165874D01*
X242513D01*
X243209Y165178D01*
Y164482D01*
X239382Y164830D02*
X238686Y165526D01*
X239034Y165178D01*
X241121Y167265D01*
X241469Y166917D01*
X240773Y167613D01*
X244206Y150465D02*
Y149769D01*
X244902Y149074D01*
X245598D01*
X246989Y150465D01*
Y151161D01*
X246294Y151857D01*
X245598D01*
X244902Y151161D01*
X245598Y150465D01*
X245250Y152900D02*
X243163Y150813D01*
X243859Y154292D01*
X241771Y152205D01*
X241075Y152900D02*
X243163Y154988D01*
X242119Y156031D01*
X241423D01*
X240032Y154640D01*
Y153944D01*
X241075Y152900D01*
X262994Y352558D02*
X265355Y349016D01*
Y352558D02*
X262994Y349016D01*
X266536Y352558D02*
Y349016D01*
X267717Y350197D01*
X268897Y349016D01*
Y352558D01*
X271849Y349016D02*
Y352558D01*
X270078Y350787D01*
X272439D01*
X3742Y286023D02*
Y282481D01*
X5513D01*
X6103Y283071D01*
Y285433D01*
X5513Y286023D01*
X3742D01*
X7284D02*
Y282481D01*
X9055D01*
X9645Y283071D01*
Y285433D01*
X9055Y286023D01*
X7284D01*
X10826Y282481D02*
X12007D01*
X11416D01*
Y286023D01*
X10826Y285433D01*
X185041Y369881D02*
X187402Y366339D01*
Y369881D02*
X185041Y366339D01*
X188583Y369881D02*
Y366339D01*
X189764Y367520D01*
X190945Y366339D01*
Y369881D01*
X192125Y369291D02*
X192716Y369881D01*
X193896D01*
X194487Y369291D01*
Y368701D01*
X193896Y368110D01*
X193306D01*
X193896D01*
X194487Y367520D01*
Y366930D01*
X193896Y366339D01*
X192716D01*
X192125Y366930D01*
X45671Y352558D02*
X48032Y349016D01*
Y352558D02*
X45671Y349016D01*
X49213Y352558D02*
Y349016D01*
X50394Y350197D01*
X51574Y349016D01*
Y352558D01*
X55117Y349016D02*
X52755D01*
X55117Y351378D01*
Y351968D01*
X54526Y352558D01*
X53346D01*
X52755Y351968D01*
X2167Y352952D02*
X4528Y349410D01*
Y352952D02*
X2167Y349410D01*
X5709Y352952D02*
Y349410D01*
X6890Y350591D01*
X8070Y349410D01*
Y352952D01*
X9251Y349410D02*
X10432D01*
X9841D01*
Y352952D01*
X9251Y352362D01*
X250198Y173818D02*
X252559Y170276D01*
Y173818D02*
X250198Y170276D01*
X256101Y173818D02*
X253740D01*
Y172047D01*
X254921Y172638D01*
X255511D01*
X256101Y172047D01*
Y170867D01*
X255511Y170276D01*
X254330D01*
X253740Y170867D01*
X262796Y245472D02*
X265158Y241930D01*
Y245472D02*
X262796Y241930D01*
X268109D02*
Y245472D01*
X266338Y243701D01*
X268700D01*
X53347Y268308D02*
X56889Y270670D01*
X53347D02*
X56889Y268308D01*
Y274212D02*
Y271850D01*
X54528Y274212D01*
X53937D01*
X53347Y273621D01*
Y272441D01*
X53937Y271850D01*
X2757Y264763D02*
X5118Y261221D01*
Y264763D02*
X2757Y261221D01*
X6299D02*
X7480D01*
X6889D01*
Y264763D01*
X6299Y264173D01*
X247836Y252952D02*
Y250591D01*
X249017Y249410D01*
X250197Y250591D01*
Y252952D01*
X251378D02*
Y249410D01*
X253149D01*
X253740Y250000D01*
Y252362D01*
X253149Y252952D01*
X251378D01*
X254920Y249410D02*
X256101D01*
X255511D01*
Y252952D01*
X254920Y252362D01*
X222245Y262796D02*
Y266338D01*
X224016D01*
X224606Y265748D01*
Y264567D01*
X224016Y263977D01*
X222245D01*
X223426D02*
X224606Y262796D01*
X225787Y266338D02*
X228149D01*
Y265748D01*
X225787Y263386D01*
Y262796D01*
X10826Y340158D02*
X7284D01*
Y341929D01*
X7874Y342520D01*
X9055D01*
X9646Y341929D01*
Y340158D01*
Y341339D02*
X10826Y342520D01*
Y343700D02*
Y344881D01*
Y344291D01*
X7284D01*
X7874Y343700D01*
X29922Y350196D02*
Y346654D01*
X32283D01*
X33464D02*
X34645D01*
X34054D01*
Y350196D01*
X33464Y349606D01*
X265135Y196674D02*
X262773D01*
Y194903D01*
X263954D01*
X262773D01*
Y193132D01*
X266315Y196674D02*
Y193132D01*
X268087D01*
X268677Y193722D01*
Y196084D01*
X268087Y196674D01*
X266315D01*
X272219D02*
X269858D01*
Y194903D01*
X271038Y195493D01*
X271629D01*
X272219Y194903D01*
Y193722D01*
X271629Y193132D01*
X270448D01*
X269858Y193722D01*
X74434Y370479D02*
X72073D01*
Y368708D01*
X73254D01*
X72073D01*
Y366937D01*
X75615Y370479D02*
Y366937D01*
X77386D01*
X77977Y367527D01*
Y369888D01*
X77386Y370479D01*
X75615D01*
X79157Y369888D02*
X79748Y370479D01*
X80928D01*
X81519Y369888D01*
Y369298D01*
X80928Y368708D01*
X80338D01*
X80928D01*
X81519Y368117D01*
Y367527D01*
X80928Y366937D01*
X79748D01*
X79157Y367527D01*
X259420Y24837D02*
X257059D01*
Y23066D01*
X258240D01*
X257059D01*
Y21295D01*
X260601Y24837D02*
Y21295D01*
X262372D01*
X262962Y21886D01*
Y24247D01*
X262372Y24837D01*
X260601D01*
X264143Y21295D02*
X265324D01*
X264734D01*
Y24837D01*
X264143Y24247D01*
X191142Y325986D02*
X194685D01*
Y327757D01*
X194094Y328347D01*
X191733D01*
X191142Y327757D01*
Y325986D01*
Y329528D02*
X194685D01*
Y331299D01*
X194094Y331889D01*
X191733D01*
X191142Y331299D01*
Y329528D01*
X194685Y335432D02*
Y333070D01*
X192323Y335432D01*
X191733D01*
X191142Y334841D01*
Y333661D01*
X191733Y333070D01*
X20276Y278346D02*
X19685Y278936D01*
X18505D01*
X17914Y278346D01*
Y275985D01*
X18505Y275394D01*
X19685D01*
X20276Y275985D01*
X21456Y278346D02*
X22047Y278936D01*
X23228D01*
X23818Y278346D01*
Y277756D01*
X23228Y277165D01*
X22637D01*
X23228D01*
X23818Y276575D01*
Y275985D01*
X23228Y275394D01*
X22047D01*
X21456Y275985D01*
X20276Y285433D02*
X19685Y286023D01*
X18505D01*
X17914Y285433D01*
Y283071D01*
X18505Y282481D01*
X19685D01*
X20276Y283071D01*
X23818Y282481D02*
X21456D01*
X23818Y284842D01*
Y285433D01*
X23228Y286023D01*
X22047D01*
X21456Y285433D01*
X2363Y342520D02*
X1772Y341929D01*
Y340749D01*
X2363Y340158D01*
X4724D01*
X5314Y340749D01*
Y341929D01*
X4724Y342520D01*
X5314Y343700D02*
Y344881D01*
Y344291D01*
X1772D01*
X2363Y343700D01*
D12*
X257165Y243701D02*
G03*
X257165Y243701I-276J0D01*
G01*
D13*
X42323Y298425D02*
Y325984D01*
Y298425D02*
Y325984D01*
X2559Y298425D02*
Y325984D01*
Y298425D02*
Y325984D01*
M02*
