G04*
G04 #@! TF.GenerationSoftware,Altium Limited,Altium Designer,20.2.7 (254)*
G04*
G04 Layer_Color=32896*
%FSLAX25Y25*%
%MOIN*%
G70*
G04*
G04 #@! TF.SameCoordinates,AC8EE5C5-F73A-413B-8336-6D520369465E*
G04*
G04*
G04 #@! TF.FilePolarity,Positive*
G04*
G01*
G75*
%ADD11C,0.00787*%
%ADD55C,0.00984*%
%ADD85C,0.02362*%
%ADD102C,0.01000*%
D11*
X95276Y95276D02*
Y103937D01*
X113386Y95276D02*
Y103937D01*
X95276Y95276D02*
X113386D01*
X95276Y103937D02*
X113386D01*
X95276Y79528D02*
Y93701D01*
X102362Y79528D02*
Y93701D01*
X95276D02*
X102362D01*
X95276Y79528D02*
X102362D01*
X94488Y77953D02*
X103150D01*
X94488Y59842D02*
X103150D01*
X94488D02*
Y77953D01*
X103150Y59842D02*
Y77953D01*
X84252D02*
X92913D01*
X84252Y59842D02*
X92913D01*
X84252D02*
Y77953D01*
X92913Y59842D02*
Y77953D01*
X74016D02*
X82677D01*
X74016Y59842D02*
X82677D01*
X74016D02*
Y77953D01*
X82677Y59842D02*
Y77953D01*
X58661Y92520D02*
X64173D01*
X58661Y103543D02*
X64173D01*
Y92520D02*
Y103543D01*
X58661Y92520D02*
Y103543D01*
X57087Y92913D02*
Y100000D01*
X42913Y92913D02*
Y100000D01*
X57087D01*
X42913Y92913D02*
X57087D01*
X78445Y92421D02*
Y103445D01*
X72933Y92421D02*
Y103445D01*
Y92421D02*
X78445D01*
X72933Y103445D02*
X78445D01*
X65847Y92421D02*
Y103445D01*
X71358Y92421D02*
Y103445D01*
X65847D02*
X71358D01*
X65847Y92421D02*
X71358D01*
X42913Y84449D02*
X42913Y66732D01*
X70472Y84449D02*
X70472Y66732D01*
X45772Y50497D02*
X59945D01*
X45772Y57583D02*
X59945D01*
X45772Y50497D02*
Y57583D01*
X59945Y50497D02*
Y57583D01*
X30709Y78740D02*
X39370D01*
X30709Y60630D02*
X39370D01*
X30709D02*
Y78740D01*
X39370Y60630D02*
Y78740D01*
X154331Y131890D02*
Y142913D01*
X159843Y131890D02*
Y142913D01*
X154331D02*
X159843D01*
X154331Y131890D02*
X159843D01*
X161417D02*
Y142913D01*
X166929Y131890D02*
Y142913D01*
X161417D02*
X166929D01*
X161417Y131890D02*
X166929D01*
X155905Y150000D02*
X166929D01*
X155905Y144488D02*
X166929D01*
Y150000D01*
X155905Y144488D02*
Y150000D01*
X160630Y164173D02*
Y175197D01*
X155118Y164173D02*
Y175197D01*
Y164173D02*
X160630D01*
X155118Y175197D02*
X160630D01*
X144882Y193701D02*
X148031D01*
X104724Y181890D02*
X115748D01*
X104724Y187402D02*
X115748D01*
X104724Y181890D02*
Y187402D01*
X115748Y181890D02*
Y187402D01*
X107480Y135433D02*
X143701D01*
X107480Y171653D02*
X143701D01*
Y135433D02*
Y171653D01*
X107480Y135433D02*
Y171653D01*
X111024Y138976D02*
Y141634D01*
Y138976D02*
X113681D01*
X111024Y165453D02*
Y168110D01*
X113681D01*
X137500D02*
X140157D01*
Y165453D02*
Y168110D01*
X95276Y125197D02*
X106299D01*
X95276Y119685D02*
X106299D01*
Y125197D01*
X95276Y119685D02*
Y125197D01*
X89370Y112598D02*
X100394D01*
X89370Y118110D02*
X100394D01*
X89370Y112598D02*
Y118110D01*
X100394Y112598D02*
Y118110D01*
X81890Y126378D02*
X92913D01*
X81890Y131890D02*
X92913D01*
X81890Y126378D02*
Y131890D01*
X92913Y126378D02*
Y131890D01*
X90945Y149606D02*
Y155905D01*
X77559Y149606D02*
Y155905D01*
X83071Y162992D02*
X85433D01*
X83071Y142520D02*
X85433D01*
X67126Y173917D02*
X67520D01*
X67126Y177264D02*
X67520D01*
X69193Y200768D02*
X87402D01*
X69193Y188169D02*
Y200768D01*
Y188169D02*
X87402D01*
Y200768D01*
X58268Y213386D02*
Y224410D01*
X63779Y213386D02*
Y224410D01*
X58268D02*
X63779D01*
X58268Y213386D02*
X63779D01*
X81299Y211615D02*
Y220670D01*
X65157Y211615D02*
X81299D01*
X65157D02*
Y220670D01*
X81299D01*
X88189Y211024D02*
Y222047D01*
X82677Y211024D02*
Y222047D01*
Y211024D02*
X88189D01*
X82677Y222047D02*
X88189D01*
X221654Y328346D02*
Y337008D01*
X239764Y328346D02*
Y337008D01*
X221654Y328346D02*
X239764D01*
X221654Y337008D02*
X239764D01*
X214173Y318504D02*
X228346D01*
X214173Y325591D02*
X228346D01*
X214173Y318504D02*
Y325591D01*
X228346Y318504D02*
Y325591D01*
X113976Y124015D02*
X114566Y124606D01*
X115747D01*
X116337Y124015D01*
Y121654D01*
X115747Y121064D01*
X114566D01*
X113976Y121654D01*
X110434Y121064D02*
X112795D01*
X110434Y123425D01*
Y124015D01*
X111024Y124606D01*
X112205D01*
X112795Y124015D01*
X109253Y121064D02*
X108072D01*
X108663D01*
Y124606D01*
X109253Y124015D01*
X107086Y108661D02*
X107676Y109251D01*
X108857D01*
X109447Y108661D01*
Y106300D01*
X108857Y105709D01*
X107676D01*
X107086Y106300D01*
X103544Y105709D02*
X105905D01*
X103544Y108071D01*
Y108661D01*
X104134Y109251D01*
X105315D01*
X105905Y108661D01*
X102363D02*
X101773Y109251D01*
X100592D01*
X100002Y108661D01*
Y106300D01*
X100592Y105709D01*
X101773D01*
X102363Y106300D01*
Y108661D01*
X112302Y192519D02*
X112893Y193110D01*
X114074D01*
X114664Y192519D01*
Y190158D01*
X114074Y189567D01*
X112893D01*
X112302Y190158D01*
X111122Y189567D02*
X109941D01*
X110531D01*
Y193110D01*
X111122Y192519D01*
X108170Y190158D02*
X107580Y189567D01*
X106399D01*
X105808Y190158D01*
Y192519D01*
X106399Y193110D01*
X107580D01*
X108170Y192519D01*
Y191929D01*
X107580Y191339D01*
X105808D01*
X163386Y172145D02*
X162796Y172735D01*
Y173916D01*
X163386Y174506D01*
X165748D01*
X166338Y173916D01*
Y172735D01*
X165748Y172145D01*
X166338Y170964D02*
Y169784D01*
Y170374D01*
X162796D01*
X163386Y170964D01*
Y168012D02*
X162796Y167422D01*
Y166241D01*
X163386Y165651D01*
X163977D01*
X164567Y166241D01*
X165157Y165651D01*
X165748D01*
X166338Y166241D01*
Y167422D01*
X165748Y168012D01*
X165157D01*
X164567Y167422D01*
X163977Y168012D01*
X163386D01*
X164567Y167422D02*
Y166241D01*
X155906Y127657D02*
X155315Y128247D01*
Y129428D01*
X155906Y130018D01*
X158267D01*
X158858Y129428D01*
Y128247D01*
X158267Y127657D01*
X158858Y126476D02*
Y125295D01*
Y125886D01*
X155315D01*
X155906Y126476D01*
X155315Y123524D02*
Y121163D01*
X155906D01*
X158267Y123524D01*
X158858D01*
X77263Y130315D02*
X77854Y130905D01*
X79034D01*
X79624Y130315D01*
Y127953D01*
X79034Y127363D01*
X77854D01*
X77263Y127953D01*
X76082Y127363D02*
X74902D01*
X75492D01*
Y130905D01*
X76082Y130315D01*
X70769Y130905D02*
X71950Y130315D01*
X73131Y129134D01*
Y127953D01*
X72540Y127363D01*
X71359D01*
X70769Y127953D01*
Y128543D01*
X71359Y129134D01*
X73131D01*
X77951Y226181D02*
X75590D01*
Y225590D01*
X77951Y223229D01*
Y222638D01*
X75590D01*
X72048Y223229D02*
Y225590D01*
X72638Y226181D01*
X73819D01*
X74409Y225590D01*
Y223229D01*
X73819Y222638D01*
X72638D01*
X73228Y223819D02*
X72048Y222638D01*
X72638D02*
X72048Y223229D01*
X68506Y222638D02*
X70867D01*
X68506Y225000D01*
Y225590D01*
X69096Y226181D01*
X70276D01*
X70867Y225590D01*
X71064Y156888D02*
Y154527D01*
X71654D01*
X74015Y156888D01*
X74606D01*
Y154527D01*
X74015Y150985D02*
X71654D01*
X71064Y151575D01*
Y152756D01*
X71654Y153346D01*
X74015D01*
X74606Y152756D01*
Y151575D01*
X73425Y152166D02*
X74606Y150985D01*
Y151575D02*
X74015Y150985D01*
X74606Y149804D02*
Y148623D01*
Y149214D01*
X71064D01*
X71654Y149804D01*
X139566Y201377D02*
X136024D01*
Y199606D01*
X136615Y199016D01*
X137795D01*
X138386Y199606D01*
Y201377D01*
Y200196D02*
X139566Y199016D01*
X138976Y197835D02*
X139566Y197245D01*
Y196064D01*
X138976Y195473D01*
X136615D01*
X136024Y196064D01*
Y197245D01*
X136615Y197835D01*
X137205D01*
X137795Y197245D01*
Y195473D01*
X165944Y130117D02*
X162402D01*
Y128346D01*
X162993Y127756D01*
X164173D01*
X164764Y128346D01*
Y130117D01*
Y128936D02*
X165944Y127756D01*
X162993Y126575D02*
X162402Y125985D01*
Y124804D01*
X162993Y124214D01*
X163583D01*
X164173Y124804D01*
X164764Y124214D01*
X165354D01*
X165944Y124804D01*
Y125985D01*
X165354Y126575D01*
X164764D01*
X164173Y125985D01*
X163583Y126575D01*
X162993D01*
X164173Y125985D02*
Y124804D01*
X164369Y152166D02*
Y155708D01*
X162598D01*
X162008Y155118D01*
Y153937D01*
X162598Y153347D01*
X164369D01*
X163188D02*
X162008Y152166D01*
X158466Y155708D02*
X159646Y155118D01*
X160827Y153937D01*
Y152756D01*
X160237Y152166D01*
X159056D01*
X158466Y152756D01*
Y153347D01*
X159056Y153937D01*
X160827D01*
X108464Y113583D02*
Y117125D01*
X106693D01*
X106102Y116535D01*
Y115354D01*
X106693Y114764D01*
X108464D01*
X107283D02*
X106102Y113583D01*
X102560Y117125D02*
X104921D01*
Y115354D01*
X103741Y115945D01*
X103150D01*
X102560Y115354D01*
Y114174D01*
X103150Y113583D01*
X104331D01*
X104921Y114174D01*
X70275Y111220D02*
X66733D01*
Y109448D01*
X67323Y108858D01*
X68504D01*
X69094Y109448D01*
Y111220D01*
Y110039D02*
X70275Y108858D01*
Y105906D02*
X66733D01*
X68504Y107677D01*
Y105316D01*
X63188Y111220D02*
X59646D01*
Y109448D01*
X60237Y108858D01*
X61417D01*
X62008Y109448D01*
Y111220D01*
Y110039D02*
X63188Y108858D01*
X60237Y107677D02*
X59646Y107087D01*
Y105906D01*
X60237Y105316D01*
X60827D01*
X61417Y105906D01*
Y106497D01*
Y105906D01*
X62008Y105316D01*
X62598D01*
X63188Y105906D01*
Y107087D01*
X62598Y107677D01*
X77362Y111220D02*
X73820D01*
Y109449D01*
X74410Y108858D01*
X75590D01*
X76181Y109449D01*
Y111220D01*
Y110039D02*
X77362Y108858D01*
Y105316D02*
Y107677D01*
X75000Y105316D01*
X74410D01*
X73820Y105906D01*
Y107087D01*
X74410Y107677D01*
X149211Y121457D02*
Y124999D01*
X148030Y123819D01*
X146849Y124999D01*
Y121457D01*
X145668D02*
Y124999D01*
X143897D01*
X143307Y124409D01*
Y123228D01*
X143897Y122638D01*
X145668D01*
X142126Y124999D02*
Y122048D01*
X141536Y121457D01*
X140355D01*
X139765Y122048D01*
Y124999D01*
X138584Y121457D02*
X137404D01*
X137994D01*
Y124999D01*
X138584Y124409D01*
X104528Y89960D02*
X108070D01*
Y87598D01*
X105119Y86418D02*
X104528Y85827D01*
Y84646D01*
X105119Y84056D01*
X105709D01*
X106299Y84646D01*
Y85237D01*
Y84646D01*
X106890Y84056D01*
X107480D01*
X108070Y84646D01*
Y85827D01*
X107480Y86418D01*
X236810Y323818D02*
Y320276D01*
X234449D01*
X230907D02*
X233268D01*
X230907Y322638D01*
Y323228D01*
X231497Y323818D01*
X232678D01*
X233268Y323228D01*
X144292Y203739D02*
X147834D01*
X146063D01*
Y201377D01*
X144292D01*
X147834D01*
X144292Y200197D02*
X147834D01*
Y197835D01*
Y196654D02*
Y195474D01*
Y196064D01*
X144292D01*
X144882Y196654D01*
X269840Y196711D02*
X272201D01*
Y194939D01*
X271021D01*
X272201D01*
Y193168D01*
X268659Y196711D02*
Y193168D01*
X266888D01*
X266298Y193759D01*
Y196120D01*
X266888Y196711D01*
X268659D01*
X262756D02*
X263936Y196120D01*
X265117Y194939D01*
Y193759D01*
X264527Y193168D01*
X263346D01*
X262756Y193759D01*
Y194349D01*
X263346Y194939D01*
X265117D01*
X79146Y370484D02*
X81508D01*
Y368713D01*
X80327D01*
X81508D01*
Y366942D01*
X77965Y370484D02*
Y366942D01*
X76194D01*
X75604Y367532D01*
Y369894D01*
X76194Y370484D01*
X77965D01*
X72652Y366942D02*
Y370484D01*
X74423Y368713D01*
X72062D01*
X264232Y24873D02*
X266594D01*
Y23102D01*
X265413D01*
X266594D01*
Y21331D01*
X263051Y24873D02*
Y21331D01*
X261280D01*
X260690Y21922D01*
Y24283D01*
X261280Y24873D01*
X263051D01*
X257148Y21331D02*
X259509D01*
X257148Y23693D01*
Y24283D01*
X257738Y24873D01*
X258919D01*
X259509Y24283D01*
X63583Y198621D02*
X67125D01*
Y196850D01*
X66535Y196260D01*
X64174D01*
X63583Y196850D01*
Y198621D01*
X67125Y192718D02*
Y195079D01*
X64764Y192718D01*
X64174D01*
X63583Y193308D01*
Y194489D01*
X64174Y195079D01*
X69291Y58070D02*
Y54528D01*
X67519D01*
X66929Y55119D01*
Y57480D01*
X67519Y58070D01*
X69291D01*
X65748Y54528D02*
X64568D01*
X65158D01*
Y58070D01*
X65748Y57480D01*
X105906Y70964D02*
X105316Y71554D01*
Y72735D01*
X105906Y73325D01*
X108267D01*
X108858Y72735D01*
Y71554D01*
X108267Y70964D01*
X108858Y69783D02*
Y68603D01*
Y69193D01*
X105316D01*
X105906Y69783D01*
X105316Y64470D02*
Y66831D01*
X107087D01*
X106496Y65651D01*
Y65060D01*
X107087Y64470D01*
X108267D01*
X108858Y65060D01*
Y66241D01*
X108267Y66831D01*
X248129Y333858D02*
X248720Y334448D01*
X249900D01*
X250491Y333858D01*
Y331497D01*
X249900Y330906D01*
X248720D01*
X248129Y331497D01*
X246949Y330906D02*
X245768D01*
X246358D01*
Y334448D01*
X246949Y333858D01*
X242226Y330906D02*
Y334448D01*
X243997Y332677D01*
X241635D01*
X53544Y221358D02*
X52953Y221948D01*
Y223129D01*
X53544Y223719D01*
X55905D01*
X56495Y223129D01*
Y221948D01*
X55905Y221358D01*
X56495Y220177D02*
Y218996D01*
Y219586D01*
X52953D01*
X53544Y220177D01*
Y217225D02*
X52953Y216635D01*
Y215454D01*
X53544Y214864D01*
X54134D01*
X54724Y215454D01*
Y216044D01*
Y215454D01*
X55315Y214864D01*
X55905D01*
X56495Y215454D01*
Y216635D01*
X55905Y217225D01*
X90945Y218995D02*
X90355Y219586D01*
Y220766D01*
X90945Y221357D01*
X93307D01*
X93897Y220766D01*
Y219586D01*
X93307Y218995D01*
X93897Y217815D02*
Y216634D01*
Y217224D01*
X90355D01*
X90945Y217815D01*
X93897Y212501D02*
Y214863D01*
X91536Y212501D01*
X90945D01*
X90355Y213092D01*
Y214272D01*
X90945Y214863D01*
X68799Y170866D02*
X69389Y171456D01*
X70570D01*
X71160Y170866D01*
Y168504D01*
X70570Y167914D01*
X69389D01*
X68799Y168504D01*
X67618Y167914D02*
X66437D01*
X67028D01*
Y171456D01*
X67618Y170866D01*
X64666Y167914D02*
X63485D01*
X64076D01*
Y171456D01*
X64666Y170866D01*
X71751Y137401D02*
X72342Y137992D01*
X73522D01*
X74113Y137401D01*
Y135040D01*
X73522Y134449D01*
X72342D01*
X71751Y135040D01*
X70571Y134449D02*
X69390D01*
X69980D01*
Y137992D01*
X70571Y137401D01*
X67619D02*
X67028Y137992D01*
X65848D01*
X65257Y137401D01*
Y135040D01*
X65848Y134449D01*
X67028D01*
X67619Y135040D01*
Y137401D01*
X87204Y176378D02*
X87795Y176968D01*
X88976D01*
X89566Y176378D01*
Y174016D01*
X88976Y173426D01*
X87795D01*
X87204Y174016D01*
X86024D02*
X85434Y173426D01*
X84253D01*
X83662Y174016D01*
Y176378D01*
X84253Y176968D01*
X85434D01*
X86024Y176378D01*
Y175787D01*
X85434Y175197D01*
X83662D01*
X50984Y104724D02*
X51574Y105314D01*
X52755D01*
X53346Y104724D01*
Y102363D01*
X52755Y101772D01*
X51574D01*
X50984Y102363D01*
X49803Y104724D02*
X49213Y105314D01*
X48032D01*
X47442Y104724D01*
Y104134D01*
X48032Y103543D01*
X47442Y102953D01*
Y102363D01*
X48032Y101772D01*
X49213D01*
X49803Y102363D01*
Y102953D01*
X49213Y103543D01*
X49803Y104134D01*
Y104724D01*
X49213Y103543D02*
X48032D01*
X35236Y83858D02*
X35826Y84448D01*
X37007D01*
X37598Y83858D01*
Y81497D01*
X37007Y80906D01*
X35826D01*
X35236Y81497D01*
X34055Y84448D02*
X31694D01*
Y83858D01*
X34055Y81497D01*
Y80906D01*
X41535Y55118D02*
X42126Y55708D01*
X43306D01*
X43897Y55118D01*
Y52756D01*
X43306Y52166D01*
X42126D01*
X41535Y52756D01*
X37993Y55708D02*
X39174Y55118D01*
X40354Y53937D01*
Y52756D01*
X39764Y52166D01*
X38583D01*
X37993Y52756D01*
Y53347D01*
X38583Y53937D01*
X40354D01*
X78937Y82677D02*
X79527Y83267D01*
X80708D01*
X81298Y82677D01*
Y80315D01*
X80708Y79725D01*
X79527D01*
X78937Y80315D01*
X75395Y83267D02*
X77756D01*
Y81496D01*
X76575Y82086D01*
X75985D01*
X75395Y81496D01*
Y80315D01*
X75985Y79725D01*
X77166D01*
X77756Y80315D01*
X89173Y83070D02*
X89763Y83661D01*
X90944D01*
X91535Y83070D01*
Y80709D01*
X90944Y80119D01*
X89763D01*
X89173Y80709D01*
X86221Y80119D02*
Y83661D01*
X87992Y81890D01*
X85631D01*
D55*
X71358Y63386D02*
G03*
X71358Y63386I-492J0D01*
G01*
X145079Y130905D02*
G03*
X145079Y130905I-492J0D01*
G01*
X68209Y205098D02*
G03*
X68209Y205098I-492J0D01*
G01*
D85*
X140945Y139370D02*
G03*
X140945Y139370I-1181J0D01*
G01*
D102*
X93307Y162992D02*
G03*
X93307Y162992I-394J0D01*
G01*
M02*
